0
SECTION
2
HEADER
9
$INSUNITS
70
4
0
ENDSEC
0
SECTION
2
TABLES
0
TABLE
2
LTYPE
0
LTYPE
72
65
70
64
2
CONTINUOUS
3
______
73
0
40
0
0
ENDTAB
0
TABLE
2
LAYER
0
ENDTAB
0
ENDSEC
0
SECTION
2
ENTITIES
0
LINE
8
0
10
57.4479572
20
-139.5429404
11
75.883576
21
-144.1394564
0
LINE
8
0
10
57.4479572
20
-139.5429404
11
70.3907786
21
-87.6321191
0
LINE
8
0
10
71.28706
20
-162.5750752
11
91.6632702
21
-167.655435
0
LINE
8
0
10
91.6632702
20
-167.655435
11
94.2034501
21
-157.4673299
0
LINE
8
0
10
75.883576
20
-144.1394564
11
71.28706
21
-162.5750752
0
LINE
8
0
10
94.2034501
20
-157.4673299
11
112.6390689
21
-162.0638459
0
LINE
8
0
10
112.6390689
20
-162.0638459
11
113.3648346
21
-159.1529587
0
LINE
8
0
10
113.3648346
20
-159.1529587
11
129.859862
21
-163.2656309
0
LINE
8
0
10
144.8642357
20
-111.3535056
11
146.0738452
21
-106.5020269
0
LINE
8
0
10
70.3907786
20
-87.6321191
11
146.0738452
21
-106.5020269
0
LINE
8
0
10
123.6908536
20
-188.008172
11
129.859862
21
-163.2656309
0
LINE
8
0
10
162.9369717
20
-117.4054652
11
163.2998545
21
-115.9500216
0
LINE
8
0
10
163.2998545
20
-115.9500216
11
144.8642357
21
-111.3535056
0
LINE
8
0
10
148.6635798
20
-174.652913
11
151.8547797
21
-175.4485685
0
LINE
8
0
10
157.0583349
20
-176.7459605
11
167.0991987
21
-179.249429
0
LINE
8
0
10
167.0991987
20
-179.249429
11
172.1795585
21
-158.8732188
0
LINE
8
0
10
181.3725905
20
-122.0019812
11
162.9369717
21
-117.4054652
0
LINE
8
0
10
123.6908536
20
-188.008172
11
142.9560821
21
-192.8115329
0
LINE
8
0
10
145.9774919
20
-185.4262234
11
148.6635798
21
-174.652913
0
LINE
8
0
10
142.9560821
20
-192.8115329
11
159.0771757
21
-202.3075828
0
LINE
8
0
10
164.0717047
20
-196.0845282
11
170.7220406
21
-184.7944982
0
LINE
8
0
10
170.7220406
20
-184.7944982
11
157.0583349
21
-176.7459605
0
LINE
8
0
10
151.8547797
20
-175.4485685
11
145.9774919
21
-185.4262234
0
LINE
8
0
10
159.0771757
20
-202.3075828
11
172.6182576
21
-216.8286153
0
LINE
8
0
10
172.6182576
20
-216.8286153
11
187.9766853
21
-202.5066498
0
LINE
8
0
10
187.9766853
20
-202.5066498
11
173.6547198
21
-187.1482221
0
LINE
8
0
10
173.6547198
20
-187.1482221
11
164.0717047
21
-196.0845282
0
LINE
8
0
10
344.066531
20
-144.1394564
11
362.5021498
21
-139.5429404
0
LINE
8
0
10
349.5593284
20
-87.6321191
11
362.5021498
21
-139.5429404
0
LINE
8
0
10
328.2868368
20
-167.655435
11
348.663047
21
-162.5750752
0
LINE
8
0
10
348.663047
20
-162.5750752
11
344.066531
21
-144.1394564
0
LINE
8
0
10
325.7466569
20
-157.4673299
11
328.2868368
21
-167.655435
0
LINE
8
0
10
307.3110381
20
-162.0638459
11
325.7466569
21
-157.4673299
0
LINE
8
0
10
306.5852724
20
-159.1529587
11
307.3110381
21
-162.0638459
0
LINE
8
0
10
290.090245
20
-163.2656309
11
306.5852724
21
-159.1529587
0
LINE
8
0
10
273.8762618
20
-106.5020269
11
349.5593284
21
-87.6321191
0
LINE
8
0
10
273.8762618
20
-106.5020269
11
275.0858713
21
-111.3535056
0
LINE
8
0
10
290.090245
20
-163.2656309
11
296.2592534
21
-188.008172
0
LINE
8
0
10
275.0858713
20
-111.3535056
11
256.6502525
21
-115.9500216
0
LINE
8
0
10
256.6502525
20
-115.9500216
11
257.0131353
21
-117.4054652
0
LINE
8
0
10
252.8509083
20
-179.249429
11
262.8917721
21
-176.7459605
0
LINE
8
0
10
268.0953273
20
-175.4485685
11
271.2865272
21
-174.652913
0
LINE
8
0
10
247.7705485
20
-158.8732188
11
252.8509083
21
-179.249429
0
LINE
8
0
10
257.0131353
20
-117.4054652
11
238.5775165
21
-122.0019812
0
LINE
8
0
10
276.9940249
20
-192.8115329
11
296.2592534
21
-188.008172
0
LINE
8
0
10
271.2865272
20
-174.652913
11
273.9726151
21
-185.4262234
0
LINE
8
0
10
260.8729313
20
-202.3075828
11
276.9940249
21
-192.8115329
0
LINE
8
0
10
273.9726151
20
-185.4262234
11
268.0953273
21
-175.4485685
0
LINE
8
0
10
262.8917721
20
-176.7459605
11
249.2280664
21
-184.7944982
0
LINE
8
0
10
249.2280664
20
-184.7944982
11
255.8784023
21
-196.0845282
0
LINE
8
0
10
247.3318494
20
-216.8286153
11
260.8729313
21
-202.3075828
0
LINE
8
0
10
255.8784023
20
-196.0845282
11
246.2953872
21
-187.1482221
0
LINE
8
0
10
246.2953872
20
-187.1482221
11
231.9734217
21
-202.5066498
0
LINE
8
0
10
231.9734217
20
-202.5066498
11
247.3318494
21
-216.8286153
0
LINE
8
0
10
181.3725905
20
-122.0019812
11
238.5775165
21
-122.0019812
0
LINE
8
0
10
247.7705485
20
-158.8732188
11
172.1795585
21
-158.8732188
0
ENDSEC
0
EOF