0
SECTION
2
HEADER
9
$INSUNITS
70
4
0
ENDSEC
0
SECTION
2
TABLES
0
TABLE
2
LTYPE
0
LTYPE
72
65
70
64
2
CONTINUOUS
3
______
73
0
40
0
0
ENDTAB
0
TABLE
2
LAYER
0
ENDTAB
0
ENDSEC
0
SECTION
2
ENTITIES
0
LINE
8
0
10
57.4479572
20
-139.5429404
11
75.883576
21
-144.1394564
0
LINE
8
0
10
57.4479572
20
-139.5429404
11
70.8746224
21
-85.6915277
0
LINE
8
0
10
71.7709038
20
-160.6344837
11
92.147114
21
-165.7148435
0
LINE
8
0
10
92.147114
20
-165.7148435
11
94.6872939
21
-155.5267384
0
LINE
8
0
10
75.883576
20
-144.1394564
11
71.7709038
21
-160.6344837
0
LINE
8
0
10
94.6872939
20
-155.5267384
11
113.1229127
21
-160.1232544
0
LINE
8
0
10
113.1229127
20
-160.1232544
11
113.8486784
21
-157.2123673
0
LINE
8
0
10
113.8486784
20
-157.2123673
11
130.3437058
21
-161.3250395
0
LINE
8
0
10
145.3480795
20
-109.4129141
11
146.557689
21
-104.5614355
0
LINE
8
0
10
70.8746224
20
-85.6915277
11
146.557689
21
-104.5614355
0
LINE
8
0
10
123.6908536
20
-188.008172
11
130.3437058
21
-161.3250395
0
LINE
8
0
10
162.9369717
20
-117.4054652
11
163.7836983
21
-114.0094301
0
LINE
8
0
10
163.7836983
20
-114.0094301
11
145.3480795
21
-109.4129141
0
LINE
8
0
10
148.6635798
20
-174.652913
11
151.8547797
21
-175.4485685
0
LINE
8
0
10
157.0583349
20
-176.7459605
11
167.0991987
21
-179.249429
0
LINE
8
0
10
167.0991987
20
-179.249429
11
172.1795585
21
-158.8732188
0
LINE
8
0
10
181.3725905
20
-122.0019812
11
162.9369717
21
-117.4054652
0
LINE
8
0
10
123.6908536
20
-188.008172
11
142.9560821
21
-192.8115329
0
LINE
8
0
10
145.9774919
20
-185.4262234
11
148.6635798
21
-174.652913
0
LINE
8
0
10
142.9560821
20
-192.8115329
11
159.0771757
21
-202.3075828
0
LINE
8
0
10
164.0717047
20
-196.0845282
11
170.7220406
21
-184.7944982
0
LINE
8
0
10
170.7220406
20
-184.7944982
11
157.0583349
21
-176.7459605
0
LINE
8
0
10
151.8547797
20
-175.4485685
11
145.9774919
21
-185.4262234
0
LINE
8
0
10
159.0771757
20
-202.3075828
11
172.6182576
21
-216.8286153
0
LINE
8
0
10
172.6182576
20
-216.8286153
11
187.9766853
21
-202.5066498
0
LINE
8
0
10
187.9766853
20
-202.5066498
11
173.6547198
21
-187.1482221
0
LINE
8
0
10
173.6547198
20
-187.1482221
11
164.0717047
21
-196.0845282
0
LINE
8
0
10
345.0342186
20
-144.1394564
11
363.4698374
21
-139.5429404
0
LINE
8
0
10
350.0431722
20
-85.6915277
11
363.4698374
21
-139.5429404
0
LINE
8
0
10
328.7706806
20
-165.7148435
11
349.1468908
21
-160.6344837
0
LINE
8
0
10
349.1468908
20
-160.6344837
11
345.0342186
21
-144.1394564
0
LINE
8
0
10
326.2305007
20
-155.5267384
11
328.7706806
21
-165.7148435
0
LINE
8
0
10
307.7948819
20
-160.1232544
11
326.2305007
21
-155.5267384
0
LINE
8
0
10
307.0691162
20
-157.2123673
11
307.7948819
21
-160.1232544
0
LINE
8
0
10
290.5740888
20
-161.3250395
11
307.0691162
21
-157.2123673
0
LINE
8
0
10
274.3601056
20
-104.5614355
11
350.0431722
21
-85.6915277
0
LINE
8
0
10
274.3601056
20
-104.5614355
11
275.5697151
21
-109.4129141
0
LINE
8
0
10
290.5740888
20
-161.3250395
11
297.226941
21
-188.008172
0
LINE
8
0
10
275.5697151
20
-109.4129141
11
257.1340963
21
-114.0094301
0
LINE
8
0
10
257.1340963
20
-114.0094301
11
257.9808229
21
-117.4054652
0
LINE
8
0
10
253.8185959
20
-179.249429
11
263.8594597
21
-176.7459605
0
LINE
8
0
10
269.0630149
20
-175.4485685
11
272.2542148
21
-174.652913
0
LINE
8
0
10
248.7382361
20
-158.8732188
11
253.8185959
21
-179.249429
0
LINE
8
0
10
257.9808229
20
-117.4054652
11
239.5452041
21
-122.0019812
0
LINE
8
0
10
277.9617125
20
-192.8115329
11
297.226941
21
-188.008172
0
LINE
8
0
10
272.2542148
20
-174.652913
11
274.9403027
21
-185.4262234
0
LINE
8
0
10
261.8406189
20
-202.3075828
11
277.9617125
21
-192.8115329
0
LINE
8
0
10
274.9403027
20
-185.4262234
11
269.0630149
21
-175.4485685
0
LINE
8
0
10
263.8594597
20
-176.7459605
11
250.195754
21
-184.7944982
0
LINE
8
0
10
250.195754
20
-184.7944982
11
256.8460899
21
-196.0845282
0
LINE
8
0
10
248.299537
20
-216.8286153
11
261.8406189
21
-202.3075828
0
LINE
8
0
10
256.8460899
20
-196.0845282
11
247.2630748
21
-187.1482221
0
LINE
8
0
10
247.2630748
20
-187.1482221
11
232.9411093
21
-202.5066498
0
LINE
8
0
10
232.9411093
20
-202.5066498
11
248.299537
21
-216.8286153
0
LINE
8
0
10
181.3725905
20
-122.0019812
11
239.5452041
21
-122.0019812
0
LINE
8
0
10
248.7382361
20
-158.8732188
11
172.1795585
21
-158.8732188
0
ENDSEC
0
EOF