0
SECTION
2
HEADER
9
$INSUNITS
70
4
0
ENDSEC
0
SECTION
2
TABLES
0
TABLE
2
LTYPE
0
LTYPE
72
65
70
64
2
CONTINUOUS
3
______
73
0
40
0
0
ENDTAB
0
TABLE
2
LAYER
0
ENDTAB
0
ENDSEC
0
SECTION
2
ENTITIES
0
LINE
8
0
10
299.9590143
20
-206.800212
11
114.9889723
21
-206.800212
0
LINE
8
0
10
111.5892112
20
-205.4664941
11
67.889773
21
-164.9437955
0
LINE
8
0
10
66.9594071
20
-163.7775134
11
54.937111
21
-142.9542858
0
LINE
8
0
10
54.4376088
20
-139.1601908
11
68.6527649
21
-86.108506
0
LINE
8
0
10
73.4434461
20
-82.4027527
11
108.7777963
21
-82.1275036
0
LINE
8
0
10
109.3417623
20
-82.1549927
11
127.7994664
21
-84.1038916
0
LINE
8
0
10
128.5685434
20
-84.2466216
11
149.80263
21
-89.936278
0
LINE
8
0
10
150.5983979
20
-90.2236089
11
184.2407599
21
-105.7020993
0
LINE
8
0
10
186.3306228
20
-106.159801
11
228.6173638
21
-106.159801
0
LINE
8
0
10
230.7072267
20
-105.7020993
11
264.3495887
21
-90.2236089
0
LINE
8
0
10
265.1453566
20
-89.936278
11
286.3794432
21
-84.2466216
0
LINE
8
0
10
287.1485202
20
-84.1038916
11
305.6062243
21
-82.1549927
0
LINE
8
0
10
306.1701903
20
-82.1275036
11
341.5045405
21
-82.4027527
0
LINE
8
0
10
346.2952217
20
-86.108506
11
360.5103778
21
-139.1601908
0
LINE
8
0
10
360.0108756
20
-142.9542858
11
347.9885795
21
-163.7775134
0
LINE
8
0
10
347.0582136
20
-164.9437955
11
303.3587754
21
-205.4664941
0
ARC
8
0
10
114.9889723
20
-201.800212
40
5
50
227.1600906
51
270
0
ARC
8
0
10
71.2895341
20
-161.2775134
40
5
50
210.0000001
51
227.1600906
0
ARC
8
0
10
59.267238
20
-140.4542858
40
5
50
165.0000021
51
210.0000001
0
ARC
8
0
10
73.4823941
20
-87.402601
40
5
50
90.4463157
51
165.0000021
0
ARC
8
0
10
108.8167443
20
-87.1273519
40
5
50
83.9726258
51
90.4463157
0
ARC
8
0
10
127.2744483
20
-89.0762508
40
5
50
75.0000021
51
83.9726258
0
ARC
8
0
10
148.508535
20
-94.7659071
40
5
50
65.2933463
51
75.0000021
0
ARC
8
0
10
186.3306228
20
-101.159801
40
5
50
245.2933463
51
270
0
ARC
8
0
10
228.6173638
20
-101.159801
40
5
50
270
51
294.7066537
0
ARC
8
0
10
266.4394516
20
-94.7659071
40
5
50
104.9999979
51
114.7066537
0
ARC
8
0
10
287.6735383
20
-89.0762508
40
5
50
96.0273742
51
104.9999979
0
ARC
8
0
10
306.1312423
20
-87.1273519
40
5
50
89.5536843
51
96.0273742
0
ARC
8
0
10
341.4655925
20
-87.402601
40
5
50
14.9999979
51
89.5536843
0
ARC
8
0
10
355.6807486
20
-140.4542858
40
5
50
329.9999999
51
14.9999979
0
ARC
8
0
10
343.6584525
20
-161.2775134
40
5
50
312.8399094
51
329.9999999
0
ARC
8
0
10
299.9590143
20
-201.800212
40
5
50
270
51
312.8399094
0
ENDSEC
0
EOF