0
SECTION
2
HEADER
9
$INSUNITS
70
4
0
ENDSEC
0
SECTION
2
TABLES
0
TABLE
2
LTYPE
0
LTYPE
72
65
70
64
2
CONTINUOUS
3
______
73
0
40
0
0
ENDTAB
0
TABLE
2
LAYER
0
ENDTAB
0
ENDSEC
0
SECTION
2
ENTITIES
0
LINE
8
0
10
261.9187263
20
-219.1714173
11
100.9212059
21
-219.1714173
0
LINE
8
0
10
97.2583674
20
-217.5748883
11
53.2852268
21
-170.250696
0
LINE
8
0
10
52.4165264
20
-168.9603165
11
42.2687718
21
-147.1983864
0
LINE
8
0
10
42.1018475
20
-143.3751945
11
60.8866697
21
-91.7643198
0
LINE
8
0
10
65.9820983
20
-88.4902034
11
101.2059797
21
-91.2955931
0
LINE
8
0
10
101.7654037
20
-91.3721304
11
119.9830135
21
-94.9223083
0
LINE
8
0
10
120.7367246
20
-95.1315248
11
141.3941231
21
-102.650203
0
LINE
8
0
10
142.1618201
20
-103.0057962
11
174.1264963
21
-121.2430447
0
LINE
8
0
10
176.6042937
20
-121.9001747
11
186.2356385
21
-121.9001747
0
LINE
8
0
10
188.7134359
20
-121.2430447
11
220.6781121
21
-103.0057962
0
LINE
8
0
10
221.4458091
20
-102.650203
11
242.1032076
21
-95.1315248
0
LINE
8
0
10
242.8569187
20
-94.9223083
11
261.0745285
21
-91.3721304
0
LINE
8
0
10
261.6339525
20
-91.2955931
11
296.8578339
21
-88.4902034
0
LINE
8
0
10
301.9532625
20
-91.7643198
11
320.7380847
21
-143.3751945
0
LINE
8
0
10
320.5711604
20
-147.1983864
11
310.4234058
21
-168.9603165
0
LINE
8
0
10
309.5547054
20
-170.250696
11
265.5815648
21
-217.5748883
0
ARC
8
0
10
100.9212059
20
-214.1714173
40
5
50
222.8979134
51
270
0
ARC
8
0
10
56.9480652
20
-166.8472251
40
5
50
205.0000017
51
222.8979134
0
ARC
8
0
10
46.8003107
20
-145.085295
40
5
50
160.0000019
51
205.0000017
0
ARC
8
0
10
65.5851328
20
-93.4744203
40
5
50
85.4463181
51
160.0000019
0
ARC
8
0
10
100.8090142
20
-96.2798101
40
5
50
78.9726294
51
85.4463181
0
ARC
8
0
10
119.026624
20
-99.8299879
40
5
50
70.0000019
51
78.9726294
0
ARC
8
0
10
139.6840226
20
-107.3486662
40
5
50
60.293349
51
70.0000019
0
ARC
8
0
10
176.6042937
20
-116.9001747
40
5
50
240.293349
51
270
0
ARC
8
0
10
186.2356385
20
-116.9001747
40
5
50
270
51
299.706651
0
ARC
8
0
10
223.1559096
20
-107.3486662
40
5
50
109.9999981
51
119.706651
0
ARC
8
0
10
243.8133082
20
-99.8299879
40
5
50
101.0273706
51
109.9999981
0
ARC
8
0
10
262.030918
20
-96.2798101
40
5
50
94.5536819
51
101.0273706
0
ARC
8
0
10
297.2547994
20
-93.4744203
40
5
50
19.9999981
51
94.5536819
0
ARC
8
0
10
316.0396215
20
-145.085295
40
5
50
334.9999983
51
19.9999981
0
ARC
8
0
10
305.891867
20
-166.8472251
40
5
50
317.1020866
51
334.9999983
0
ARC
8
0
10
261.9187263
20
-214.1714173
40
5
50
270
51
317.1020866
0
ENDSEC
0
EOF