0
SECTION
2
HEADER
9
$INSUNITS
70
4
0
ENDSEC
0
SECTION
2
TABLES
0
TABLE
2
LTYPE
0
LTYPE
72
65
70
64
2
CONTINUOUS
3
______
73
0
40
0
0
ENDTAB
0
TABLE
2
LAYER
0
ENDTAB
0
ENDSEC
0
SECTION
2
ENTITIES
0
LINE
8
0
10
244.0380715
20
-216.905439
11
170.9099151
21
-216.905439
0
LINE
8
0
10
168.6085875
20
-216.3443456
11
119.3085231
21
-190.7849918
0
LINE
8
0
10
119.2684865
20
-190.764463
11
68.6622653
21
-165.1030565
0
LINE
8
0
10
66.5934292
20
-163.1436212
11
54.937111
21
-142.9542858
0
LINE
8
0
10
54.4376088
20
-139.1601908
11
68.6527649
21
-86.108506
0
LINE
8
0
10
73.4434461
20
-82.4027527
11
108.7777963
21
-82.1275036
0
LINE
8
0
10
109.3417623
20
-82.1549927
11
127.7994664
21
-84.1038916
0
LINE
8
0
10
128.5685434
20
-84.2466216
11
149.80263
21
-89.936278
0
LINE
8
0
10
150.5983979
20
-90.2236089
11
184.2407599
21
-105.7020993
0
LINE
8
0
10
186.3306228
20
-106.159801
11
228.6173638
21
-106.159801
0
LINE
8
0
10
230.7072267
20
-105.7020993
11
264.3495887
21
-90.2236089
0
LINE
8
0
10
265.1453566
20
-89.936278
11
286.3794432
21
-84.2466216
0
LINE
8
0
10
287.1485202
20
-84.1038916
11
305.6062243
21
-82.1549927
0
LINE
8
0
10
306.1701903
20
-82.1275036
11
341.5045405
21
-82.4027527
0
LINE
8
0
10
346.2952217
20
-86.108506
11
360.5103778
21
-139.1601908
0
LINE
8
0
10
360.0108756
20
-142.9542858
11
348.3545574
21
-163.1436212
0
LINE
8
0
10
346.2857213
20
-165.1030565
11
295.6795001
21
-190.764463
0
LINE
8
0
10
295.6394635
20
-190.7849918
11
246.3393991
21
-216.3443456
0
ARC
8
0
10
170.9099151
20
-211.905439
40
5
50
242.5957585
51
270
0
ARC
8
0
10
117.0071956
20
-195.2238984
40
5
50
62.5957585
51
63.1113409
0
ARC
8
0
10
70.9235562
20
-160.6436212
40
5
50
210.0000001
51
243.1113409
0
ARC
8
0
10
59.267238
20
-140.4542858
40
5
50
165.0000021
51
210.0000001
0
ARC
8
0
10
73.4823941
20
-87.402601
40
5
50
90.4463157
51
165.0000021
0
ARC
8
0
10
108.8167443
20
-87.1273519
40
5
50
83.9726258
51
90.4463157
0
ARC
8
0
10
127.2744483
20
-89.0762508
40
5
50
75.0000021
51
83.9726258
0
ARC
8
0
10
148.508535
20
-94.7659071
40
5
50
65.2933463
51
75.0000021
0
ARC
8
0
10
186.3306228
20
-101.159801
40
5
50
245.2933463
51
270
0
ARC
8
0
10
228.6173638
20
-101.159801
40
5
50
270
51
294.7066537
0
ARC
8
0
10
266.4394516
20
-94.7659071
40
5
50
104.9999979
51
114.7066537
0
ARC
8
0
10
287.6735383
20
-89.0762508
40
5
50
96.0273742
51
104.9999979
0
ARC
8
0
10
306.1312423
20
-87.1273519
40
5
50
89.5536843
51
96.0273742
0
ARC
8
0
10
341.4655925
20
-87.402601
40
5
50
14.9999979
51
89.5536843
0
ARC
8
0
10
355.6807486
20
-140.4542858
40
5
50
329.9999999
51
14.9999979
0
ARC
8
0
10
344.0244304
20
-160.6436212
40
5
50
296.8886591
51
329.9999999
0
ARC
8
0
10
297.940791
20
-195.2238984
40
5
50
116.8886591
51
117.4042415
0
ARC
8
0
10
244.0380715
20
-211.905439
40
5
50
270
51
297.4042415
0
ENDSEC
0
EOF