0
SECTION
2
HEADER
9
$INSUNITS
70
4
0
ENDSEC
0
SECTION
2
TABLES
0
TABLE
2
LTYPE
0
LTYPE
72
65
70
64
2
CONTINUOUS
3
______
73
0
40
0
0
ENDTAB
0
TABLE
2
LAYER
0
ENDTAB
0
ENDSEC
0
SECTION
2
ENTITIES
0
LINE
8
0
10
57.4479572
20
-139.5429404
11
75.883576
21
-144.1394564
0
LINE
8
0
10
57.4479572
20
-139.5429404
11
70.8746224
21
-85.6915277
0
LINE
8
0
10
71.7709038
20
-160.6344837
11
92.147114
21
-165.7148435
0
LINE
8
0
10
92.147114
20
-165.7148435
11
94.6872939
21
-155.5267384
0
LINE
8
0
10
75.883576
20
-144.1394564
11
71.7709038
21
-160.6344837
0
LINE
8
0
10
94.6872939
20
-155.5267384
11
129.6179401
21
-164.2359266
0
LINE
8
0
10
70.8746224
20
-85.6915277
11
183.4289266
21
-113.7544675
0
LINE
8
0
10
123.6908536
20
-188.008172
11
129.6179401
21
-164.2359266
0
LINE
8
0
10
166.9282698
20
-179.9349875
11
173.510129
21
-153.5365923
0
LINE
8
0
10
123.6908536
20
-188.008172
11
142.9560821
21
-192.8115329
0
LINE
8
0
10
142.9560821
20
-192.8115329
11
159.0771757
21
-202.3075828
0
LINE
8
0
10
159.0771757
20
-202.3075828
11
172.6182576
21
-216.8286153
0
LINE
8
0
10
172.6182576
20
-216.8286153
11
187.9766853
21
-202.5066498
0
LINE
8
0
10
166.9282698
20
-179.9349875
11
187.9766853
21
-202.5066498
0
LINE
8
0
10
345.0342186
20
-144.1394564
11
363.4698374
21
-139.5429404
0
LINE
8
0
10
350.0431722
20
-85.6915277
11
363.4698374
21
-139.5429404
0
LINE
8
0
10
328.7706806
20
-165.7148435
11
349.1468908
21
-160.6344837
0
LINE
8
0
10
349.1468908
20
-160.6344837
11
345.0342186
21
-144.1394564
0
LINE
8
0
10
326.2305007
20
-155.5267384
11
328.7706806
21
-165.7148435
0
LINE
8
0
10
291.2998545
20
-164.2359266
11
326.2305007
21
-155.5267384
0
LINE
8
0
10
237.488868
20
-113.7544675
11
350.0431722
21
-85.6915277
0
LINE
8
0
10
291.2998545
20
-164.2359266
11
297.226941
21
-188.008172
0
LINE
8
0
10
247.4076656
20
-153.5365923
11
253.9895248
21
-179.9349875
0
LINE
8
0
10
277.9617125
20
-192.8115329
11
297.226941
21
-188.008172
0
LINE
8
0
10
261.8406189
20
-202.3075828
11
277.9617125
21
-192.8115329
0
LINE
8
0
10
248.299537
20
-216.8286153
11
261.8406189
21
-202.3075828
0
LINE
8
0
10
232.9411093
20
-202.5066498
11
253.9895248
21
-179.9349875
0
LINE
8
0
10
232.9411093
20
-202.5066498
11
248.299537
21
-216.8286153
0
LINE
8
0
10
183.4289266
20
-113.7544675
11
237.488868
21
-113.7544675
0
LINE
8
0
10
247.4076656
20
-153.5365923
11
173.510129
21
-153.5365923
0
ENDSEC
0
EOF