0
SECTION
2
HEADER
9
$INSUNITS
70
4
0
ENDSEC
0
SECTION
2
TABLES
0
TABLE
2
LTYPE
0
LTYPE
72
65
70
64
2
CONTINUOUS
3
______
73
0
40
0
0
ENDTAB
0
TABLE
2
LAYER
0
ENDTAB
0
ENDSEC
0
SECTION
2
ENTITIES
0
LINE
8
0
10
58.1789392
20
-144.8782628
11
69.8224879
21
-147.7813256
0
LINE
8
0
10
69.8224879
20
-147.7813256
11
67.403269
21
-157.4842827
0
ARC
8
0
10
72.2547476
20
-158.6938921
40
5
50
166
51
166.0214363
0
ARC
8
0
10
74.1953391
20
-159.177736
40
7
50
166.0153117
51
255.9999994
0
LINE
8
0
10
72.5018858
20
-165.9698061
11
88.996913
21
-170.0824783
0
ARC
8
0
10
90.2065225
20
-165.2309997
40
5
50
256
51
256.0214374
0
ARC
8
0
10
90.6903663
20
-163.2904082
40
7
50
255.9999994
51
345.9999994
0
LINE
8
0
10
97.4824364
20
-164.9838615
11
98.329163
21
-161.5878265
0
LINE
8
0
10
98.329163
20
-161.5878265
11
123.5568519
21
-167.8777958
0
LINE
8
0
10
119.3232188
20
-184.857971
11
123.5568519
21
-167.8777958
0
ARC
8
0
10
126.1152889
20
-186.5514243
40
7
50
165.9999994
51
255.9999994
0
LINE
8
0
10
124.4218356
20
-193.3434944
11
141.0430416
21
-197.4876265
0
LINE
8
0
10
141.0430416
20
-197.4876265
11
155.9148325
21
-206.2477808
0
LINE
8
0
10
155.9148325
20
-206.2477808
11
167.5974924
21
-218.7758998
0
ARC
8
0
10
172.7169683
20
-214.0019112
40
7
50
223.0000017
51
313.0000017
0
LINE
8
0
10
177.4916882
20
-219.120705
11
189.9232384
21
-207.5280969
0
ARC
8
0
10
186.513978
20
-203.8706465
40
5
50
312.9885413
51
313.0000017
0
ARC
8
0
10
185.1499812
20
-202.4079391
40
7
50
313.0000017
51
403.0000017
0
LINE
8
0
10
172.4365127
20
-178.510459
11
190.268775
21
-197.6332192
0
LINE
8
0
10
172.4365127
20
-178.510459
11
177.4165571
21
-158.5365923
0
LINE
8
0
10
243.5012375
20
-158.5365923
11
177.4165571
21
-158.5365923
0
LINE
8
0
10
243.5012375
20
-158.5365923
11
248.4812819
21
-178.510459
0
LINE
8
0
10
230.6490196
20
-197.6332192
11
248.4812819
21
-178.510459
0
ARC
8
0
10
235.7678134
20
-202.4079391
40
7
50
136.9999983
51
226.9999983
0
ARC
8
0
10
234.4038166
20
-203.8706465
40
5
50
226.9999983
51
227.0114587
0
LINE
8
0
10
230.9945562
20
-207.5280969
11
243.4261064
21
-219.120705
0
ARC
8
0
10
248.2008263
20
-214.0019112
40
7
50
226.9999983
51
316.9999983
0
ARC
8
0
10
249.6635337
20
-215.365908
40
5
50
316.9999983
51
317.0114587
0
LINE
8
0
10
253.3209841
20
-218.7751684
11
265.0029621
21
-206.2477808
0
LINE
8
0
10
265.0029621
20
-206.2477808
11
279.8747531
21
-197.4876265
0
LINE
8
0
10
279.8747531
20
-197.4876265
11
296.495959
21
-193.3434944
0
ARC
8
0
10
295.2863495
20
-188.4920158
40
5
50
284
51
284.0214376
0
ARC
8
0
10
294.8025057
20
-186.5514243
40
7
50
284.0153123
51
373.9846891
0
ARC
8
0
10
296.7430972
20
-186.0675804
40
5
50
373.9785639
51
14.0000001
0
LINE
8
0
10
297.3609426
20
-167.8777958
11
301.5945758
21
-184.857971
0
LINE
8
0
10
297.3609426
20
-167.8777958
11
322.5886316
21
-161.5878265
0
LINE
8
0
10
322.5886316
20
-161.5878265
11
323.4353582
21
-164.9838615
0
ARC
8
0
10
328.2868368
20
-163.7742521
40
5
50
194
51
194.0214398
0
ARC
8
0
10
330.2274283
20
-163.2904082
40
7
50
194.0153149
51
284.0000006
0
LINE
8
0
10
331.9208816
20
-170.0824783
11
348.4159088
21
-165.9698061
0
ARC
8
0
10
346.7224555
20
-159.177736
40
7
50
284.0000006
51
374.0000006
0
LINE
8
0
10
353.5145256
20
-157.4842827
11
351.0953067
21
-147.7813256
0
LINE
8
0
10
351.0953067
20
-147.7813256
11
362.7388554
21
-144.8782628
0
ARC
8
0
10
361.529246
20
-140.0267842
40
5
50
284
51
284.0214398
0
ARC
8
0
10
361.0454021
20
-138.0861927
40
7
50
284.0153149
51
373.9846875
0
ARC
8
0
10
362.9859936
20
-137.6023489
40
5
50
373.9785626
51
14
0
LINE
8
0
10
355.3784946
20
-86.4225097
11
367.8374722
21
-136.3927394
0
ARC
8
0
10
348.5864245
20
-88.115963
40
7
50
14.0000006
51
103.9846867
0
LINE
8
0
10
236.8749453
20
-108.7544675
11
346.8929712
21
-81.3238929
0
LINE
8
0
10
184.0428493
20
-108.7544675
11
236.8749453
21
-108.7544675
0
LINE
8
0
10
74.0248234
20
-81.3238929
11
184.0428493
21
-108.7544675
0
ARC
8
0
10
72.3313701
20
-88.115963
40
7
50
75.9999994
51
165.9999994
0
LINE
8
0
10
53.0803224
20
-136.3927394
11
65.5393
21
-86.4225097
0
ARC
8
0
10
59.8723925
20
-138.0861927
40
7
50
165.9999994
51
255.9999994
0
ENDSEC
0
EOF