0
SECTION
2
HEADER
9
$INSUNITS
70
4
0
ENDSEC
0
SECTION
2
TABLES
0
TABLE
2
LTYPE
0
LTYPE
72
65
70
64
2
CONTINUOUS
3
______
73
0
40
0
0
ENDTAB
0
TABLE
2
LAYER
0
ENDTAB
0
ENDSEC
0
SECTION
2
ENTITIES
0
LINE
8
0
10
57.305673
20
-144.6605331
11
69.8224879
21
-147.7813256
0
LINE
8
0
10
69.8224879
20
-147.7813256
11
67.1855392
21
-158.3575489
0
ARC
8
0
10
73.1043432
20
-159.8332725
40
6.1
50
165.9999994
51
255.9999994
0
LINE
8
0
10
71.6286196
20
-165.7520764
11
89.8701792
21
-170.3002081
0
ARC
8
0
10
91.3459028
20
-164.3814041
40
6.1
50
255.9999994
51
345.9999994
0
LINE
8
0
10
97.2647067
20
-165.8571277
11
98.3291631
21
-161.5878265
0
LINE
8
0
10
98.3291631
20
-161.5878265
11
110.8459779
21
-164.708619
0
ARC
8
0
10
112.3217015
20
-158.789815
40
6.1
50
255.9999994
51
315.456211
0
LINE
8
0
10
116.6692603
20
-163.0686854
11
124.2826177
21
-164.9669087
0
LINE
8
0
10
119.1054891
20
-185.7312372
11
124.2826177
21
-164.9669087
0
ARC
8
0
10
125.024293
20
-187.2069608
40
6.1
50
165.9999994
51
255.9999994
0
LINE
8
0
10
123.5485694
20
-193.1257647
11
141.0430418
21
-197.4876266
0
LINE
8
0
10
141.0430418
20
-197.4876266
11
155.9148324
21
-206.2477807
0
LINE
8
0
10
155.9148324
20
-206.2477807
11
168.2112909
21
-219.434118
0
ARC
8
0
10
172.6725485
20
-215.273928
40
6.1
50
223.0000017
51
313.0000017
0
LINE
8
0
10
176.8327385
20
-219.7351856
11
190.582188
21
-206.9136165
0
ARC
8
0
10
186.421998
20
-202.4523589
40
6.1
50
313.0000017
51
403.0000017
0
LINE
8
0
10
172.4365127
20
-178.510459
11
190.8832556
21
-198.2921689
0
LINE
8
0
10
172.4365127
20
-178.510459
11
177.4165571
21
-158.5365923
0
LINE
8
0
10
243.5012375
20
-158.5365923
11
177.4165571
21
-158.5365923
0
LINE
8
0
10
243.5012375
20
-158.5365923
11
248.4812818
21
-178.5104591
0
LINE
8
0
10
230.034539
20
-198.2921689
11
248.4812818
21
-178.5104591
0
ARC
8
0
10
234.4957966
20
-202.4523589
40
6.1
50
136.9999983
51
226.9999983
0
LINE
8
0
10
230.3356066
20
-206.9136165
11
244.0850561
21
-219.7351856
0
ARC
8
0
10
247.4950479
20
-216.0784171
40
5
50
227.0000001
51
227.0269829
0
ARC
8
0
10
248.2452461
20
-215.273928
40
6.1
50
227.0221166
51
316.9999983
0
LINE
8
0
10
252.7065037
20
-219.434118
11
265.002962
21
-206.2477808
0
LINE
8
0
10
265.002962
20
-206.2477808
11
279.8747531
21
-197.4876265
0
LINE
8
0
10
279.8747531
20
-197.4876265
11
297.3692252
21
-193.1257647
0
ARC
8
0
10
296.1596158
20
-188.2742861
40
5
50
284
51
284.0269877
0
ARC
8
0
10
295.8935016
20
-187.2069608
40
6.1
50
284.022121
51
374.0000006
0
LINE
8
0
10
296.6351769
20
-164.9669086
11
301.8123055
21
-185.7312372
0
LINE
8
0
10
296.6351769
20
-164.9669086
11
304.2485342
21
-163.0686854
0
ARC
8
0
10
308.5960931
20
-158.789815
40
6.1
50
224.5437883
51
284.0000006
0
LINE
8
0
10
310.0718167
20
-164.7086189
11
322.5886316
21
-161.5878265
0
LINE
8
0
10
322.5886316
20
-161.5878265
11
323.6530879
21
-165.8571277
0
ARC
8
0
10
329.5718918
20
-164.3814041
40
6.1
50
194.0000006
51
284.0000006
0
LINE
8
0
10
331.0476154
20
-170.300208
11
349.289175
21
-165.7520764
0
ARC
8
0
10
347.8134514
20
-159.8332725
40
6.1
50
284.0000006
51
374.0000006
0
LINE
8
0
10
353.7322553
20
-158.3575489
11
351.0953067
21
-147.7813256
0
LINE
8
0
10
351.0953067
20
-147.7813256
11
363.6121216
21
-144.6605331
0
ARC
8
0
10
362.136398
20
-138.7417292
40
6.1
50
284.0000006
51
374.0000006
0
LINE
8
0
10
358.9105543
20
-100.5888272
11
368.055202
21
-137.2660056
0
ARC
8
0
10
352.9917504
20
-102.0645508
40
6.1
50
14.0000006
51
104.0000006
0
LINE
8
0
10
351.5160268
20
-96.1457469
11
338.0289162
21
-99.5084611
0
ARC
8
0
10
334.873499
20
-103.3870359
40
5
50
50.8698981
51
104.0000005
0
LINE
8
0
10
333.6638895
20
-98.5355573
11
320.0797493
21
-101.9224638
0
LINE
8
0
10
320.0797493
20
-101.9224638
11
319.015293
21
-97.6531626
0
ARC
8
0
10
313.0964891
20
-99.1288862
40
6.1
50
14.0000006
51
104.0000006
0
LINE
8
0
10
311.6207655
20
-93.2100823
11
298.2826634
21
-96.5356446
0
ARC
8
0
10
293.9351046
20
-100.8145151
40
6.1
50
44.5437896
51
104.0000006
0
LINE
8
0
10
236.8749453
20
-108.7544675
11
292.459381
21
-94.8957112
0
LINE
8
0
10
184.0428493
20
-108.7544675
11
236.8749453
21
-108.7544675
0
LINE
8
0
10
128.4584136
20
-94.8957112
11
184.0428493
21
-108.7544675
0
ARC
8
0
10
126.98269
20
-100.8145151
40
6.1
50
75.9999994
51
135.4562117
0
LINE
8
0
10
122.6351311
20
-96.5356447
11
109.2970291
21
-93.2100822
0
ARC
8
0
10
107.8213055
20
-99.1288862
40
6.1
50
75.9999994
51
165.9999994
0
LINE
8
0
10
101.9025016
20
-97.6531626
11
100.8380452
21
-101.9224638
0
LINE
8
0
10
100.8380452
20
-101.9224638
11
88.3212304
21
-98.8016713
0
ARC
8
0
10
86.8455068
20
-104.7204753
40
6.1
50
75.9999994
51
123.7682387
0
LINE
8
0
10
83.454914
20
-99.6495897
11
69.4017678
21
-96.1457468
0
ARC
8
0
10
67.9260442
20
-102.0645508
40
6.1
50
75.9999994
51
165.9999994
0
LINE
8
0
10
52.8625927
20
-137.2660056
11
62.0072403
21
-100.5888272
0
ARC
8
0
10
58.7813966
20
-138.7417292
40
6.1
50
165.9999994
51
255.9999994
0
ENDSEC
0
EOF