0
SECTION
2
HEADER
9
$INSUNITS
70
4
0
ENDSEC
0
SECTION
2
TABLES
0
TABLE
2
LTYPE
0
LTYPE
72
65
70
64
2
CONTINUOUS
3
______
73
0
40
0
0
ENDTAB
0
TABLE
2
LAYER
0
ENDTAB
0
ENDSEC
0
SECTION
2
ENTITIES
0
LINE
8
0
10
57.2086434
20
-144.6363409
11
69.8224879
21
-147.7813256
0
LINE
8
0
10
69.8224879
20
-147.7813256
11
67.161347
21
-158.4545785
0
ARC
8
0
10
72.9831214
20
-159.9061099
40
6
50
165.9999994
51
255.9999994
0
LINE
8
0
10
71.53159
20
-165.7278842
11
89.9672088
21
-170.3244003
0
ARC
8
0
10
91.4187402
20
-164.5026259
40
6
50
255.9999994
51
345.9999994
0
LINE
8
0
10
97.2405145
20
-165.9541573
11
98.3291631
21
-161.5878265
0
LINE
8
0
10
98.3291631
20
-161.5878265
11
123.556852
21
-167.8777958
0
LINE
8
0
10
119.0812969
20
-185.8282668
11
123.556852
21
-167.8777958
0
ARC
8
0
10
124.9030712
20
-187.2797982
40
6
50
165.9999994
51
255.9999994
0
LINE
8
0
10
123.4515398
20
-193.1015725
11
141.0430416
21
-197.4876265
0
LINE
8
0
10
141.0430416
20
-197.4876265
11
155.9148325
21
-206.2477808
0
LINE
8
0
10
155.9148325
20
-206.2477808
11
168.2794907
21
-219.5072534
0
ARC
8
0
10
172.6676129
20
-215.4152632
40
6
50
223.0000017
51
313.0000017
0
LINE
8
0
10
176.7596031
20
-219.8033854
11
190.6553234
21
-206.8454167
0
ARC
8
0
10
187.2453316
20
-203.1886482
40
5
50
312.9999999
51
313.0280706
0
ARC
8
0
10
186.5633332
20
-202.4572945
40
6
50
313.0233925
51
402.9766092
0
ARC
8
0
10
187.294687
20
-201.7752961
40
5
50
402.9719306
51
42.9999999
0
LINE
8
0
10
172.4365127
20
-178.510459
11
190.9514555
21
-198.3653043
0
LINE
8
0
10
172.4365127
20
-178.510459
11
177.4165571
21
-158.5365923
0
LINE
8
0
10
243.5012375
20
-158.5365923
11
177.4165571
21
-158.5365923
0
LINE
8
0
10
243.5012375
20
-158.5365923
11
248.4812818
21
-178.510459
0
LINE
8
0
10
229.9663392
20
-198.3653043
11
248.4812818
21
-178.510459
0
ARC
8
0
10
234.3544614
20
-202.4572945
40
6
50
136.9999983
51
226.9999983
0
LINE
8
0
10
230.2624712
20
-206.8454167
11
244.1581915
21
-219.8033855
0
ARC
8
0
10
248.2501817
20
-215.4152632
40
6
50
226.9999983
51
316.9999983
0
LINE
8
0
10
252.6383039
20
-219.5072534
11
265.0029621
21
-206.2477807
0
LINE
8
0
10
265.0029621
20
-206.2477807
11
279.874753
21
-197.4876265
0
LINE
8
0
10
279.874753
20
-197.4876265
11
297.4662547
21
-193.1015725
0
ARC
8
0
10
296.0147234
20
-187.2797982
40
6
50
284.0000006
51
374.0000006
0
LINE
8
0
10
297.3609426
20
-167.8777958
11
301.8364977
21
-185.8282668
0
LINE
8
0
10
297.3609426
20
-167.8777958
11
322.5886316
21
-161.5878265
0
LINE
8
0
10
322.5886316
20
-161.5878265
11
323.6772801
21
-165.9541573
0
ARC
8
0
10
329.4990544
20
-164.5026259
40
6
50
194.0000006
51
284.0000006
0
LINE
8
0
10
330.9505858
20
-170.3244002
11
349.3862046
21
-165.7278842
0
ARC
8
0
10
347.9346732
20
-159.9061099
40
6
50
284.0000006
51
374.0000006
0
LINE
8
0
10
353.7564475
20
-158.4545785
11
351.0953067
21
-147.7813256
0
LINE
8
0
10
351.0953067
20
-147.7813256
11
363.7091512
21
-144.6363409
0
ARC
8
0
10
362.2576198
20
-138.8145666
40
6
50
284.0000006
51
374.0000006
0
LINE
8
0
10
358.8863621
20
-100.4917976
11
368.0793942
21
-137.3630352
0
ARC
8
0
10
353.0645878
20
-101.943329
40
6
50
14.0000006
51
104.0000006
0
LINE
8
0
10
351.6130564
20
-96.1215547
11
337.5167321
21
-99.6361631
0
ARC
8
0
10
334.1451252
20
-104.5992535
40
6
50
55.8103137
51
104.0000006
0
LINE
8
0
10
332.6935938
20
-98.7774792
11
320.0797493
21
-101.9224638
0
LINE
8
0
10
320.0797493
20
-101.9224638
11
318.9911008
21
-97.556133
0
ARC
8
0
10
313.1693265
20
-99.0076644
40
6
50
14.0000006
51
104.0000006
0
LINE
8
0
10
311.7177951
20
-93.1858901
11
298.3239808
21
-96.5253431
0
ARC
8
0
10
294.007942
20
-100.6932933
40
6
50
43.9999999
51
104.0000006
0
LINE
8
0
10
236.8749453
20
-108.7544675
11
292.5564106
21
-94.871519
0
LINE
8
0
10
184.0428493
20
-108.7544675
11
236.8749453
21
-108.7544675
0
LINE
8
0
10
128.361384
20
-94.871519
11
184.0428493
21
-108.7544675
0
ARC
8
0
10
126.9098526
20
-100.6932933
40
6
50
75.9999994
51
136.0000001
0
LINE
8
0
10
122.5938138
20
-96.5253431
11
109.1999995
21
-93.18589
0
ARC
8
0
10
107.7484681
20
-99.0076644
40
6
50
75.9999994
51
165.9999994
0
LINE
8
0
10
101.9266938
20
-97.556133
11
100.8380452
21
-101.9224638
0
LINE
8
0
10
100.8380452
20
-101.9224638
11
88.2242008
21
-98.7774791
0
ARC
8
0
10
86.7726694
20
-104.5992535
40
6
50
75.9999994
51
124.1896871
0
LINE
8
0
10
83.4010624
20
-99.6361631
11
69.3047382
21
-96.1215546
0
ARC
8
0
10
67.8532068
20
-101.943329
40
6
50
75.9999994
51
165.9999994
0
LINE
8
0
10
52.8384005
20
-137.3630352
11
62.0314325
21
-100.4917976
0
ARC
8
0
10
58.6601748
20
-138.8145666
40
6
50
165.9999994
51
255.9999994
0
ENDSEC
0
EOF