0
SECTION
2
HEADER
9
$INSUNITS
70
4
0
ENDSEC
0
SECTION
2
TABLES
0
TABLE
2
LTYPE
0
LTYPE
72
65
70
64
2
CONTINUOUS
3
______
73
0
40
0
0
ENDTAB
0
TABLE
2
LAYER
0
ENDTAB
0
ENDSEC
0
SECTION
2
ENTITIES
0
LINE
8
0
10
347.7152727
20
-148.9773881
11
361.2382344
21
-145.3539215
0
ARC
8
0
10
359.9441391
20
-140.5242924
40
5
50
284.9999999
51
375.0000001
0
LINE
8
0
10
354.4212652
20
-100.5941301
11
364.7737682
21
-139.2301972
0
ARC
8
0
10
349.5913773
20
-101.8872594
40
5
50
14.988541
51
105.0000002
0
LINE
8
0
10
316.4217298
20
-105.5986588
11
348.297282
21
-97.0576302
0
LINE
8
0
10
316.4217298
20
-105.5986588
11
314.998225
21
-100.2860667
0
ARC
8
0
10
310.1685959
20
-101.580162
40
5
50
14.9999999
51
105.0000002
0
LINE
8
0
10
308.8745007
20
-96.7505329
11
294.9483382
21
-100.4820368
0
ARC
8
0
10
291.0395481
20
-103.5999463
40
5
50
38.5781785
51
105.0000002
0
LINE
8
0
10
289.7454529
20
-98.7703172
11
269.4610106
21
-104.2055171
0
ARC
8
0
10
270.7551058
20
-109.0351462
40
5
50
104.9999999
51
194.9999998
0
LINE
8
0
10
265.9254767
20
-110.3292414
11
252.402515
21
-113.9527081
0
ARC
8
0
10
253.6966103
20
-118.7823372
40
5
50
104.9999999
51
150.5729978
0
LINE
8
0
10
249.3416985
20
-116.3257658
11
234.438153
21
-120.3191587
0
ARC
8
0
10
235.7322482
20
-125.1487878
40
5
50
105
51
195
0
LINE
8
0
10
230.9026191
20
-126.442883
11
246.1729427
21
-183.4325067
0
ARC
8
0
10
251.0025718
20
-182.1384115
40
5
50
194.9999998
51
281.1798307
0
ARC
8
0
10
256.6533518
20
-185.2870826
40
5
50
200.5661923
51
211.5
0
LINE
8
0
10
252.390151
20
-187.8995754
11
252.7414251
21
-188.4728026
0
LINE
8
0
10
252.7414251
20
-188.4728026
11
239.0238406
21
-200.6090961
0
ARC
8
0
10
242.3369408
20
-204.3538747
40
5
50
131.4999999
51
221.4999997
0
LINE
8
0
10
238.5921622
20
-207.6669749
11
252.5071832
21
-223.3950451
0
ARC
8
0
10
256.2519618
20
-220.0819449
40
5
50
221.4999997
51
311.4999999
0
LINE
8
0
10
259.565062
20
-223.8267235
11
275.2931322
21
-209.9117025
0
ARC
8
0
10
271.980032
20
-206.1669239
40
5
50
311.4999999
51
389.3355348
0
LINE
8
0
10
276.33886
20
-203.7173078
11
286.5493564
21
-197.4603076
0
LINE
8
0
10
286.5493564
20
-197.4603076
11
305.0275572
21
-192.5090886
0
ARC
8
0
10
303.733462
20
-187.6794595
40
5
50
284.9999999
51
375.0000001
0
LINE
8
0
10
303.860382
20
-168.8346147
11
308.5630911
21
-186.3853643
0
ARC
8
0
10
305.1544773
20
-164.0049856
40
5
50
254.9999991
51
284.9999999
0
LINE
8
0
10
306.4485725
20
-168.8346147
11
319.9715341
21
-165.2111481
0
LINE
8
0
10
319.9715341
20
-165.2111481
11
321.3950388
21
-170.5237401
0
ARC
8
0
10
326.2246679
20
-169.2296449
40
5
50
194.9999995
51
284.9999999
0
LINE
8
0
10
327.5187631
20
-174.059274
11
347.8032054
21
-168.6240741
0
ARC
8
0
10
346.5091102
20
-163.794445
40
5
50
284.9999999
51
374.9999998
0
LINE
8
0
10
351.3387393
20
-162.5003498
11
347.7152727
21
-148.9773881
0
LINE
8
0
10
53.7097523
20
-145.3539215
11
67.2327139
21
-148.9773882
0
LINE
8
0
10
67.2327139
20
-148.9773882
11
63.6092472
21
-162.5003497
0
ARC
8
0
10
68.4388764
20
-163.794445
40
5
50
164.9999997
51
255.011459
0
LINE
8
0
10
67.1457471
20
-168.6243329
11
87.4292235
21
-174.059274
0
ARC
8
0
10
88.7233187
20
-169.2296449
40
5
50
255.0000001
51
345.0000002
0
LINE
8
0
10
93.5529478
20
-170.5237401
11
94.9764526
21
-165.2111481
0
LINE
8
0
10
94.9764526
20
-165.2111481
11
108.4994141
21
-168.8346148
0
ARC
8
0
10
109.7935093
20
-164.0049856
40
5
50
255.0000001
51
285.0000009
0
LINE
8
0
10
106.3848955
20
-186.3853643
11
111.0876046
21
-168.8346147
0
ARC
8
0
10
111.2145246
20
-187.6794595
40
5
50
165.0000002
51
255.0000001
0
LINE
8
0
10
109.9204294
20
-192.5090886
11
128.3986304
21
-197.4603077
0
LINE
8
0
10
128.3986304
20
-197.4603077
11
138.6091266
21
-203.7173078
0
ARC
8
0
10
142.9679546
20
-206.1669239
40
5
50
150.6644652
51
228.5000001
0
LINE
8
0
10
139.6548544
20
-209.9117025
11
155.3829246
21
-223.8267235
0
ARC
8
0
10
158.6960248
20
-220.0819449
40
5
50
228.5000001
51
318.5000003
0
LINE
8
0
10
162.4408034
20
-223.3950451
11
176.3558244
21
-207.6669749
0
ARC
8
0
10
172.6110458
20
-204.3538747
40
5
50
318.5000001
51
408.5000003
0
LINE
8
0
10
175.924146
20
-200.6090961
11
162.2065616
21
-188.4728026
0
LINE
8
0
10
162.2065616
20
-188.4728026
11
162.5578356
21
-187.8995754
0
ARC
8
0
10
158.2946348
20
-185.2870826
40
5
50
328.5
51
339.4338088
0
ARC
8
0
10
163.9454148
20
-182.1384115
40
5
50
258.8201707
51
344.9999999
0
LINE
8
0
10
168.7750439
20
-183.4325067
11
184.0453675
21
-126.442883
0
ARC
8
0
10
179.2157384
20
-125.1487878
40
5
50
345
51
435.0000002
0
LINE
8
0
10
180.5098336
20
-120.3191587
11
165.606288
21
-116.3257657
0
ARC
8
0
10
161.2513763
20
-118.7823372
40
5
50
389.4270037
51
435.0000003
0
LINE
8
0
10
162.5445056
20
-113.9524493
11
149.02251
21
-110.3292415
0
ARC
8
0
10
144.1928808
20
-109.0351462
40
5
50
344.9999999
51
435.011459
0
LINE
8
0
10
145.4860101
20
-104.2052583
11
125.2025337
21
-98.7703172
0
ARC
8
0
10
123.9084385
20
-103.5999463
40
5
50
75.0000001
51
141.4218231
0
LINE
8
0
10
119.9996483
20
-100.4820369
11
106.073486
21
-96.7505329
0
ARC
8
0
10
104.7793907
20
-101.580162
40
5
50
75.0000001
51
164.9999999
0
LINE
8
0
10
99.9495029
20
-100.2870327
11
98.5262568
21
-105.5986588
0
LINE
8
0
10
66.6507045
20
-97.0576303
11
98.5262568
21
-105.5986588
0
ARC
8
0
10
65.3566093
20
-101.8872594
40
5
50
435.0000002
51
165
0
LINE
8
0
10
50.1742184
20
-139.2301972
11
60.5269802
21
-100.5931642
0
ARC
8
0
10
55.0038475
20
-140.5242924
40
5
50
165.0000002
51
255.0000001
0
ENDSEC
0
EOF