0
SECTION
2
HEADER
9
$INSUNITS
70
4
0
ENDSEC
0
SECTION
2
TABLES
0
TABLE
2
LTYPE
0
LTYPE
72
65
70
64
2
CONTINUOUS
3
______
73
0
40
0
0
ENDTAB
0
TABLE
2
LAYER
0
ENDTAB
0
ENDSEC
0
SECTION
2
ENTITIES
0
LINE
8
0
10
57.7895168
20
-142.7199417
11
72.2469231
21
-146.3245779
0
LINE
8
0
10
72.2469231
20
-146.3245779
11
69.1261307
21
-158.8413927
0
ARC
8
0
10
73.1043432
20
-159.8332725
40
4.1
50
165.9999994
51
255.9999994
0
LINE
8
0
10
72.1124634
20
-163.811485
11
90.354023
21
-168.3596166
0
ARC
8
0
10
91.3459028
20
-164.3814041
40
4.1
50
255.9999994
51
345.9999994
0
LINE
8
0
10
95.3241153
20
-165.3732839
11
96.8724154
21
-159.1633913
0
LINE
8
0
10
96.8724154
20
-159.1633913
11
111.3298217
21
-162.7680275
0
ARC
8
0
10
112.3217015
20
-158.789815
40
4.1
50
255.9999994
51
330.4373019
0
LINE
8
0
10
115.8879484
20
-160.8126553
11
126.7070529
21
-163.510161
0
LINE
8
0
10
121.0460805
20
-186.215081
11
126.7070529
21
-163.510161
0
ARC
8
0
10
125.024293
20
-187.2069608
40
4.1
50
165.9999994
51
255.9999994
0
LINE
8
0
10
124.0324132
20
-191.1851733
11
141.8082577
21
-195.617189
0
LINE
8
0
10
141.8082577
20
-195.617189
11
157.1797697
21
-204.6717015
0
LINE
8
0
10
157.1797697
20
-204.6717015
11
169.6739983
21
-218.0701213
0
ARC
8
0
10
172.6725485
20
-215.273928
40
4.1
50
223.0000017
51
313.0000017
0
LINE
8
0
10
175.4687418
20
-218.2724782
11
189.2181913
21
-205.4509091
0
ARC
8
0
10
186.421998
20
-202.4523589
40
4.1
50
313.0000017
51
403.0000017
0
LINE
8
0
10
170.2332156
20
-179.0802704
11
189.4205482
21
-199.6561657
0
LINE
8
0
10
170.2332156
20
-179.0802704
11
175.8539858
21
-156.5365923
0
LINE
8
0
10
245.0638087
20
-156.5365923
11
175.8539858
21
-156.5365923
0
LINE
8
0
10
245.0638087
20
-156.5365923
11
250.6845791
21
-179.0802704
0
LINE
8
0
10
231.4972464
20
-199.6561656
11
250.6845791
21
-179.0802704
0
ARC
8
0
10
234.4957966
20
-202.4523589
40
4.1
50
136.9999983
51
226.9999983
0
LINE
8
0
10
231.6996033
20
-205.4509091
11
245.4490528
21
-218.2724782
0
ARC
8
0
10
247.4950479
20
-216.0784171
40
3
50
227.0000001
51
227.0285596
0
ARC
8
0
10
248.2452461
20
-215.273928
40
4.1
50
226.9999983
51
316.9999983
0
LINE
8
0
10
251.2437963
20
-218.0701213
11
263.7380247
21
-204.6717017
0
LINE
8
0
10
263.7380247
20
-204.6717017
11
279.1095369
21
-195.6171891
0
LINE
8
0
10
279.1095369
20
-195.6171891
11
296.8853814
21
-191.1851732
0
ARC
8
0
10
295.8935016
20
-187.2069608
40
4.1
50
284.0000006
51
374.0000006
0
LINE
8
0
10
294.2107417
20
-163.510161
11
299.8717141
21
-186.215081
0
LINE
8
0
10
294.2107417
20
-163.510161
11
305.0298461
21
-160.8126552
0
ARC
8
0
10
308.5960931
20
-158.789815
40
4.1
50
209.5626962
51
284.0000006
0
LINE
8
0
10
309.5879729
20
-162.7680275
11
324.0453792
21
-159.1633912
0
LINE
8
0
10
324.0453792
20
-159.1633912
11
325.5936793
21
-165.3732839
0
ARC
8
0
10
329.5718918
20
-164.3814041
40
4.1
50
194.0000006
51
284.0000006
0
LINE
8
0
10
330.5637716
20
-168.3596166
11
348.8053312
21
-163.811485
0
ARC
8
0
10
347.8134514
20
-159.8332725
40
4.1
50
284.0000006
51
374.0000006
0
LINE
8
0
10
351.7916639
20
-158.8413927
11
348.6708714
21
-146.3245779
0
LINE
8
0
10
348.6708714
20
-146.3245779
11
363.1282778
21
-142.7199416
0
ARC
8
0
10
362.136398
20
-138.7417292
40
4.1
50
284.0000006
51
374.0000006
0
LINE
8
0
10
356.9699629
20
-101.072671
11
366.1146105
21
-137.7498494
0
ARC
8
0
10
352.9917504
20
-102.0645508
40
4.1
50
14.0000006
51
104.0000006
0
LINE
8
0
10
351.9998706
20
-98.0863383
11
337.3759879
21
-101.7324818
0
ARC
8
0
10
334.873499
20
-103.3870359
40
3
50
33.4712189
51
104.0000005
0
LINE
8
0
10
334.1477333
20
-100.4761487
11
318.6230017
21
-104.3468991
0
LINE
8
0
10
318.6230017
20
-104.3468991
11
317.0747015
21
-98.1370064
0
ARC
8
0
10
313.0964891
20
-99.1288862
40
4.1
50
14.0000006
51
104.0000006
0
LINE
8
0
10
312.1046093
20
-95.1506737
11
297.5013516
21
-98.7916749
0
ARC
8
0
10
293.9351046
20
-100.8145151
40
4.1
50
29.5626962
51
104.0000006
0
LINE
8
0
10
237.1205142
20
-110.7544675
11
292.9432248
21
-96.8363026
0
LINE
8
0
10
183.7972804
20
-110.7544675
11
237.1205142
21
-110.7544675
0
LINE
8
0
10
127.9745698
20
-96.8363026
11
183.7972804
21
-110.7544675
0
ARC
8
0
10
126.98269
20
-100.8145151
40
4.1
50
75.9999994
51
150.4373019
0
LINE
8
0
10
123.4164431
20
-98.7916748
11
108.8131853
21
-95.1506737
0
ARC
8
0
10
107.8213055
20
-99.1288862
40
4.1
50
75.9999994
51
165.9999994
0
LINE
8
0
10
103.843093
20
-98.1370064
11
102.2947929
21
-104.346899
0
LINE
8
0
10
102.2947929
20
-104.346899
11
87.8373866
21
-100.7422628
0
ARC
8
0
10
86.8455068
20
-104.7204753
40
4.1
50
75.9999994
51
135.1898441
0
LINE
8
0
10
83.9367789
20
-101.8309594
11
68.917924
21
-98.0863383
0
ARC
8
0
10
67.9260442
20
-102.0645508
40
4.1
50
75.9999994
51
165.9999994
0
LINE
8
0
10
54.8031841
20
-137.7498494
11
63.9478317
21
-101.072671
0
ARC
8
0
10
58.7813966
20
-138.7417292
40
4.1
50
165.9999994
51
255.9999994
0
ENDSEC
0
EOF