0
SECTION
2
HEADER
9
$INSUNITS
70
4
0
ENDSEC
0
SECTION
2
TABLES
0
TABLE
2
LTYPE
0
LTYPE
72
65
70
64
2
CONTINUOUS
3
______
73
0
40
0
0
ENDTAB
0
TABLE
2
LAYER
0
ENDTAB
0
ENDSEC
0
SECTION
2
ENTITIES
0
LINE
8
0
10
56.2383477
20
-144.394419
11
69.8224879
21
-147.7813256
0
LINE
8
0
10
69.8224879
20
-147.7813256
11
66.9194252
21
-159.4248742
0
ARC
8
0
10
71.7709038
20
-160.6344837
40
5
50
165.9999999
51
256
0
LINE
8
0
10
70.5612943
20
-165.4859623
11
90.9375045
21
-170.5663221
0
ARC
8
0
10
92.147114
20
-165.7148435
40
5
50
256
51
345.9999997
0
LINE
8
0
10
96.9985926
20
-166.924453
11
98.329163
21
-161.5878265
0
LINE
8
0
10
98.329163
20
-161.5878265
11
111.9133032
21
-164.9747331
0
ARC
8
0
10
113.1229127
20
-160.1232544
40
5
50
256
51
322.4218209
0
LINE
8
0
10
117.0855225
20
-163.1724713
11
124.2826176
21
-164.9669087
0
LINE
8
0
10
118.839375
20
-186.7985625
11
124.2826176
21
-164.9669087
0
ARC
8
0
10
123.6908536
20
-188.008172
40
5
50
165.9999999
51
255.9999997
0
LINE
8
0
10
122.4812441
20
-192.8596506
11
141.0430418
21
-197.4876266
0
LINE
8
0
10
141.0430418
20
-197.4876266
11
155.9148325
21
-206.2477808
0
LINE
8
0
10
155.9148325
20
-206.2477808
11
168.961489
21
-220.2386071
0
ARC
8
0
10
172.6182576
20
-216.8286153
40
5
50
222.9999999
51
312.9999996
0
LINE
8
0
10
176.0282494
20
-220.4853838
11
191.3866771
21
-206.1634183
0
ARC
8
0
10
187.9766853
20
-202.5066498
40
5
50
312.9999999
51
403.0000001
0
LINE
8
0
10
191.6334538
20
-199.096658
11
177.3114883
21
-183.7382303
0
ARC
8
0
10
173.6547198
20
-187.1482221
40
5
50
42.9999999
51
73.3386186
0
ARC
8
0
10
170.7220406
20
-184.7944982
40
5
50
389.1613826
51
419.5000003
0
LINE
8
0
10
173.2597324
20
-180.4863524
11
172.1123744
21
-179.8105069
0
LINE
8
0
10
172.1123744
20
-179.8105069
11
176.0859866
21
-163.8732188
0
LINE
8
0
10
244.831808
20
-163.8732188
11
176.0859866
21
-163.8732188
0
LINE
8
0
10
244.831808
20
-163.8732188
11
248.8054202
21
-179.8105069
0
LINE
8
0
10
248.8054202
20
-179.8105069
11
247.6580622
21
-180.4863524
0
ARC
8
0
10
250.195754
20
-184.7944982
40
5
50
120.4999999
51
150.83862
0
ARC
8
0
10
247.2630748
20
-187.1482221
40
5
50
106.6613814
51
136.9999997
0
LINE
8
0
10
243.6063063
20
-183.7382303
11
229.2843408
21
-199.096658
0
ARC
8
0
10
232.9411093
20
-202.5066498
40
5
50
137.0000001
51
226.9999999
0
LINE
8
0
10
229.5311175
20
-206.1634183
11
244.8895452
21
-220.4853838
0
ARC
8
0
10
248.299537
20
-216.8286153
40
5
50
226.9999999
51
317.0000001
0
LINE
8
0
10
251.9563055
20
-220.2386071
11
265.0029622
21
-206.2477807
0
LINE
8
0
10
265.0029622
20
-206.2477807
11
279.8747531
21
-197.4876265
0
LINE
8
0
10
279.8747531
20
-197.4876265
11
298.4365505
21
-192.8596506
0
ARC
8
0
10
297.226941
20
-188.008172
40
5
50
284
51
14.0000001
0
LINE
8
0
10
296.6351769
20
-164.9669087
11
302.0784196
21
-186.7985625
0
LINE
8
0
10
296.6351769
20
-164.9669087
11
303.8322721
21
-163.1724713
0
ARC
8
0
10
307.7948819
20
-160.1232544
40
5
50
217.5781791
51
284
0
LINE
8
0
10
309.0044914
20
-164.974733
11
322.5886316
21
-161.5878265
0
LINE
8
0
10
322.5886316
20
-161.5878265
11
323.919202
21
-166.924453
0
ARC
8
0
10
328.7706806
20
-165.7148435
40
5
50
194.0000001
51
284
0
LINE
8
0
10
329.9802901
20
-170.5663221
11
350.3565003
21
-165.4859623
0
ARC
8
0
10
349.1468908
20
-160.6344837
40
5
50
284
51
374.0000003
0
LINE
8
0
10
353.9983694
20
-159.4248742
11
351.0953067
21
-147.7813256
0
LINE
8
0
10
351.0953067
20
-147.7813256
11
364.6794469
21
-144.394419
0
ARC
8
0
10
363.4698374
20
-139.5429404
40
5
50
284
51
374.0000006
0
LINE
8
0
10
354.8946508
20
-84.4819182
11
368.321316
21
-138.3333309
0
ARC
8
0
10
350.0431722
20
-85.6915277
40
5
50
14
51
104.0000003
0
LINE
8
0
10
273.1504961
20
-99.7099569
11
348.8335627
21
-80.8400491
0
ARC
8
0
10
274.3601056
20
-104.5614355
40
5
50
104
51
194.0000003
0
LINE
8
0
10
269.508627
20
-105.771045
11
255.9244869
21
-109.1579515
0
ARC
8
0
10
257.1340963
20
-114.0094301
40
5
50
104
51
176.5423979
0
LINE
8
0
10
252.1431978
20
-113.7078805
11
238.9312813
21
-117.0019812
0
LINE
8
0
10
181.9865132
20
-117.0019812
11
238.9312813
21
-117.0019812
0
LINE
8
0
10
181.9865132
20
-117.0019812
11
168.7745968
21
-113.7078804
0
ARC
8
0
10
163.7836983
20
-114.0094301
40
5
50
363.4576032
51
435.9999992
0
LINE
8
0
10
164.9933078
20
-109.1579515
11
151.4091676
21
-105.771045
0
ARC
8
0
10
146.557689
20
-104.5614355
40
5
50
346
51
436
0
LINE
8
0
10
72.0842319
20
-80.8400491
11
147.7672985
21
-99.7099569
0
ARC
8
0
10
70.8746224
20
-85.6915277
40
5
50
435.9999997
51
166
0
LINE
8
0
10
52.5964786
20
-138.3333309
11
66.0231438
21
-84.4819182
0
ARC
8
0
10
57.4479572
20
-139.5429404
40
5
50
165.9999997
51
256
0
ENDSEC
0
EOF