0
SECTION
2
HEADER
9
$INSUNITS
70
4
0
ENDSEC
0
SECTION
2
TABLES
0
TABLE
2
LTYPE
0
LTYPE
72
65
70
64
2
CONTINUOUS
3
______
73
0
40
0
0
ENDTAB
0
TABLE
2
LAYER
0
ENDTAB
0
ENDSEC
0
SECTION
2
ENTITIES
0
LINE
8
0
10
261.9187263
20
-224.1714173
11
100.9212059
21
-224.1714173
0
ARC
8
0
10
100.9212059
20
-214.1714173
40
10
50
222.8979134
51
270
0
LINE
8
0
10
93.5955289
20
-220.9783592
11
49.6223883
21
-173.654167
0
ARC
8
0
10
56.9480652
20
-166.8472251
40
10
50
205.0000017
51
222.8979134
0
ARC
8
0
10
52.4165263
20
-168.9603165
40
5
50
564.9885401
51
205.0000017
0
LINE
8
0
10
47.8845648
20
-171.0725014
11
37.7372329
21
-149.3114777
0
ARC
8
0
10
46.8003107
20
-145.085295
40
10
50
160.0000019
51
205.0000017
0
ARC
8
0
10
42.1018475
20
-143.3751944
40
5
50
519.9885406
51
160.0000019
0
LINE
8
0
10
37.4037265
20
-141.664154
11
56.1878646
21
-90.0551587
0
ARC
8
0
10
65.5851328
20
-93.4744203
40
10
50
85.4463181
51
160.0000019
0
LINE
8
0
10
66.379064
20
-83.5059865
11
101.6029453
21
-86.3113762
0
ARC
8
0
10
100.8090142
20
-96.2798101
40
10
50
78.9726294
51
85.4463181
0
LINE
8
0
10
102.7217934
20
-86.4644508
11
120.9394033
21
-90.0146287
0
ARC
8
0
10
119.9830135
20
-94.9223082
40
5
50
438.9564246
51
78.9726268
0
ARC
8
0
10
119.026624
20
-99.8299879
40
10
50
70.0000019
51
78.9645272
0
ARC
8
0
10
120.7367246
20
-95.1315247
40
5
50
429.9885406
51
70.0000019
0
LINE
8
0
10
122.447765
20
-90.4334037
11
143.1042239
21
-97.9517399
0
ARC
8
0
10
139.6840226
20
-107.3486662
40
10
50
60.293349
51
70.0000019
0
LINE
8
0
10
144.6396177
20
-98.6629263
11
176.6042939
21
-116.9001748
0
LINE
8
0
10
176.6042937
20
-116.9001747
11
186.2356385
21
-116.9001747
0
LINE
8
0
10
186.2356383
20
-116.9001748
11
218.2003145
21
-98.6629263
0
ARC
8
0
10
223.1559096
20
-107.3486662
40
10
50
109.9999981
51
119.706651
0
LINE
8
0
10
219.736648
20
-97.951398
11
240.3921672
21
-90.4334037
0
ARC
8
0
10
242.1032076
20
-95.1315247
40
5
50
109.9999981
51
110.0114594
0
ARC
8
0
10
243.8133082
20
-99.8299879
40
10
50
101.0273706
51
109.9999981
0
LINE
8
0
10
241.900529
20
-90.0146287
11
260.1181388
21
-86.4644509
0
ARC
8
0
10
262.030918
20
-96.2798101
40
10
50
94.5536819
51
101.0273706
0
LINE
8
0
10
261.2369868
20
-86.3113762
11
296.4608682
21
-83.5059864
0
ARC
8
0
10
297.2547994
20
-93.4744203
40
10
50
19.9999981
51
94.5536819
0
LINE
8
0
10
306.6520676
20
-90.0551587
11
325.4365478
21
-141.6650938
0
ARC
8
0
10
316.0396215
20
-145.085295
40
10
50
334.9999983
51
379.9999981
0
LINE
8
0
10
325.1022766
20
-149.3123839
11
314.9549448
21
-171.0734078
0
ARC
8
0
10
305.891867
20
-166.8472251
40
10
50
317.1020866
51
334.9999983
0
LINE
8
0
10
313.2175439
20
-173.6541669
11
269.2444032
21
-220.9783591
0
ARC
8
0
10
261.9187263
20
-214.1714173
40
10
50
270
51
317.1020866
0
ENDSEC
0
EOF