0
SECTION
2
HEADER
9
$INSUNITS
70
4
0
ENDSEC
0
SECTION
2
TABLES
0
TABLE
2
LTYPE
0
LTYPE
72
65
70
64
2
CONTINUOUS
3
______
73
0
40
0
0
ENDTAB
0
TABLE
2
LAYER
0
ENDTAB
0
ENDSEC
0
SECTION
2
ENTITIES
0
LINE
8
0
10
56.2383477
20
-144.394419
11
69.8224879
21
-147.7813256
0
LINE
8
0
10
69.8224879
20
-147.7813256
11
66.4355814
21
-161.3654657
0
ARC
8
0
10
71.28706
20
-162.5750752
40
5
50
165.9999999
51
256
0
LINE
8
0
10
70.0774505
20
-167.4265538
11
90.4536607
21
-172.5069136
0
ARC
8
0
10
91.6632702
20
-167.655435
40
5
50
256
51
345.9999997
0
LINE
8
0
10
96.5147488
20
-168.8650445
11
97.8453192
21
-163.528418
0
LINE
8
0
10
97.8453192
20
-163.528418
11
111.4294594
21
-166.9153246
0
ARC
8
0
10
112.6390689
20
-162.0638459
40
5
50
256
51
322.4218209
0
LINE
8
0
10
116.6016787
20
-165.1130628
11
123.7987739
21
-166.9075001
0
LINE
8
0
10
118.839375
20
-186.7985625
11
123.7987739
21
-166.9075001
0
ARC
8
0
10
123.6908536
20
-188.008172
40
5
50
165.9999999
51
255.9999997
0
LINE
8
0
10
122.4812441
20
-192.8596506
11
141.0430418
21
-197.4876266
0
LINE
8
0
10
141.0430418
20
-197.4876266
11
155.9148325
21
-206.2477808
0
LINE
8
0
10
155.9148325
20
-206.2477808
11
168.961489
21
-220.2386071
0
ARC
8
0
10
172.6182576
20
-216.8286153
40
5
50
222.9999999
51
312.9999996
0
LINE
8
0
10
176.0282494
20
-220.4853838
11
191.3866771
21
-206.1634183
0
ARC
8
0
10
187.9766853
20
-202.5066498
40
5
50
312.9999999
51
403.0000001
0
LINE
8
0
10
191.6334538
20
-199.096658
11
177.3114883
21
-183.7382303
0
ARC
8
0
10
173.6547198
20
-187.1482221
40
5
50
42.9999999
51
73.3386186
0
ARC
8
0
10
170.7220406
20
-184.7944982
40
5
50
389.1613826
51
419.5000003
0
LINE
8
0
10
173.2597324
20
-180.4863524
11
172.1123744
21
-179.8105069
0
LINE
8
0
10
172.1123744
20
-179.8105069
11
176.0859866
21
-163.8732188
0
LINE
8
0
10
243.8641204
20
-163.8732188
11
176.0859866
21
-163.8732188
0
LINE
8
0
10
243.8641204
20
-163.8732188
11
247.8377326
21
-179.8105069
0
LINE
8
0
10
247.8377326
20
-179.8105069
11
246.6903746
21
-180.4863524
0
ARC
8
0
10
249.2280664
20
-184.7944982
40
5
50
120.4999999
51
150.83862
0
ARC
8
0
10
246.2953872
20
-187.1482221
40
5
50
106.6613814
51
136.9999997
0
LINE
8
0
10
242.6386187
20
-183.7382303
11
228.3166532
21
-199.096658
0
ARC
8
0
10
231.9734217
20
-202.5066498
40
5
50
137.0000001
51
226.9999999
0
LINE
8
0
10
228.5634299
20
-206.1634183
11
243.9218576
21
-220.4853838
0
ARC
8
0
10
247.3318494
20
-216.8286153
40
5
50
226.9999999
51
317.0000001
0
LINE
8
0
10
250.9886179
20
-220.2386071
11
264.0352746
21
-206.2477807
0
LINE
8
0
10
264.0352746
20
-206.2477807
11
278.9070655
21
-197.4876265
0
LINE
8
0
10
278.9070655
20
-197.4876265
11
297.4688629
21
-192.8596506
0
ARC
8
0
10
296.2592534
20
-188.008172
40
5
50
284.0000003
51
14.0000001
0
LINE
8
0
10
296.1513331
20
-166.9075001
11
301.110732
21
-186.7985625
0
LINE
8
0
10
296.1513331
20
-166.9075001
11
303.3484283
21
-165.1130627
0
ARC
8
0
10
307.3110381
20
-162.0638459
40
5
50
217.5781782
51
284
0
LINE
8
0
10
308.5206476
20
-166.9153245
11
322.1047878
21
-163.528418
0
LINE
8
0
10
322.1047878
20
-163.528418
11
323.4353582
21
-168.8650445
0
ARC
8
0
10
328.2868368
20
-167.655435
40
5
50
194.0000001
51
284
0
LINE
8
0
10
329.4964463
20
-172.5069136
11
349.8726565
21
-167.4265538
0
ARC
8
0
10
348.663047
20
-162.5750752
40
5
50
284
51
374.0000003
0
LINE
8
0
10
353.5145256
20
-161.3654657
11
350.1276191
21
-147.7813256
0
LINE
8
0
10
350.1276191
20
-147.7813256
11
363.7117593
21
-144.394419
0
ARC
8
0
10
362.5021498
20
-139.5429404
40
5
50
284
51
374.0000006
0
LINE
8
0
10
354.410807
20
-86.4225096
11
367.3536284
21
-138.3333309
0
ARC
8
0
10
349.5593284
20
-87.6321191
40
5
50
14
51
104.0000003
0
LINE
8
0
10
272.6666523
20
-101.6505483
11
348.3497189
21
-82.7806405
0
ARC
8
0
10
273.8762618
20
-106.5020269
40
5
50
104
51
194.0000003
0
LINE
8
0
10
269.0247832
20
-107.7116364
11
255.440643
21
-111.098543
0
ARC
8
0
10
256.6502525
20
-115.9500216
40
5
50
104
51
149.572996
0
LINE
8
0
10
252.3388771
20
-113.4178205
11
237.9635937
21
-117.0019812
0
LINE
8
0
10
181.9865132
20
-117.0019812
11
237.9635937
21
-117.0019812
0
LINE
8
0
10
181.9865132
20
-117.0019812
11
167.6112299
21
-113.4178205
0
ARC
8
0
10
163.2998545
20
-115.9500216
40
5
50
390.427004
51
435.9999992
0
LINE
8
0
10
164.509464
20
-111.098543
11
150.9253238
21
-107.7116364
0
ARC
8
0
10
146.0738452
20
-106.5020269
40
5
50
346
51
435.9999998
0
LINE
8
0
10
71.6003881
20
-82.7806405
11
147.2834547
21
-101.6505483
0
ARC
8
0
10
70.3907786
20
-87.6321191
40
5
50
435.9999997
51
166
0
LINE
8
0
10
52.5964786
20
-138.3333309
11
65.5393
21
-86.4225096
0
ARC
8
0
10
57.4479572
20
-139.5429404
40
5
50
165.9999997
51
256
0
ENDSEC
0
EOF