0
SECTION
2
HEADER
9
$INSUNITS
70
4
0
ENDSEC
0
SECTION
2
TABLES
0
TABLE
2
LTYPE
0
LTYPE
72
65
70
64
2
CONTINUOUS
3
______
73
0
40
0
0
ENDTAB
0
TABLE
2
LAYER
0
ENDTAB
0
ENDSEC
0
SECTION
2
ENTITIES
0
LINE
8
0
10
59.1450618
20
-138.5232171
11
76.8044441
21
-142.9261956
0
LINE
8
0
10
76.8044441
20
-142.9261956
11
81.2074226
21
-125.2668133
0
LINE
8
0
10
81.2074226
20
-125.2668133
11
63.5480403
21
-120.8638348
0
LINE
8
0
10
63.5480403
20
-120.8638348
11
59.1450618
21
-138.5232171
0
LINE
8
0
10
63.7415778
20
-120.0875983
11
81.4009601
21
-124.4905768
0
LINE
8
0
10
81.4009601
20
-124.4905768
11
85.8039386
21
-106.8311945
0
LINE
8
0
10
85.8039386
20
-106.8311945
11
68.1445563
21
-102.428216
0
LINE
8
0
10
68.1445563
20
-102.428216
11
63.7415778
21
-120.0875983
0
LINE
8
0
10
73.4680084
20
-159.6147604
11
91.1273907
21
-164.0177389
0
LINE
8
0
10
91.1273907
20
-164.0177389
11
95.5303692
21
-146.3583566
0
LINE
8
0
10
95.5303692
20
-146.3583566
11
77.8709869
21
-141.9553781
0
LINE
8
0
10
77.8709869
20
-141.9553781
11
73.4680084
21
-159.6147604
0
LINE
8
0
10
78.0645244
20
-141.1791416
11
95.7239067
21
-145.5821201
0
LINE
8
0
10
95.7239067
20
-145.5821201
11
100.1268852
21
-127.9227378
0
LINE
8
0
10
100.1268852
20
-127.9227378
11
82.4675029
21
-123.5197593
0
LINE
8
0
10
82.4675029
20
-123.5197593
11
78.0645244
21
-141.1791416
0
LINE
8
0
10
82.6610404
20
-122.7435228
11
100.3204227
21
-127.1465013
0
LINE
8
0
10
100.3204227
20
-127.1465013
11
104.7234012
21
-109.487119
0
LINE
8
0
10
104.7234012
20
-109.487119
11
87.0640189
21
-105.0841405
0
LINE
8
0
10
87.0640189
20
-105.0841405
11
82.6610404
21
-122.7435228
0
LINE
8
0
10
94.4438071
20
-154.0231713
11
112.1031894
21
-158.4261498
0
LINE
8
0
10
112.1031894
20
-158.4261498
11
116.5061679
21
-140.7667675
0
LINE
8
0
10
116.5061679
20
-140.7667675
11
98.8467856
21
-136.363789
0
LINE
8
0
10
98.8467856
20
-136.363789
11
94.4438071
21
-154.0231713
0
LINE
8
0
10
99.0403231
20
-135.5875525
11
116.6997054
21
-139.990531
0
LINE
8
0
10
116.6997054
20
-139.990531
11
121.1026839
21
-122.3311487
0
LINE
8
0
10
121.1026839
20
-122.3311487
11
103.4433016
21
-117.9281702
0
LINE
8
0
10
103.4433016
20
-117.9281702
11
99.0403231
21
-135.5875525
0
LINE
8
0
10
103.6368391
20
-117.1519337
11
121.2962214
21
-121.5549122
0
LINE
8
0
10
121.2962214
20
-121.5549122
11
125.6991999
21
-103.8955299
0
LINE
8
0
10
125.6991999
20
-103.8955299
11
108.0398176
21
-99.4925514
0
LINE
8
0
10
108.0398176
20
-99.4925514
11
103.6368391
21
-117.1519337
0
LINE
8
0
10
113.6051916
20
-155.7088002
11
131.2645739
21
-160.1117787
0
LINE
8
0
10
131.2645739
20
-160.1117787
11
135.6675524
21
-142.4523964
0
LINE
8
0
10
135.6675524
20
-142.4523964
11
118.0081701
21
-138.0494179
0
LINE
8
0
10
118.0081701
20
-138.0494179
11
113.6051916
21
-155.7088002
0
LINE
8
0
10
118.2017076
20
-137.2731814
11
135.8610899
21
-141.6761599
0
LINE
8
0
10
135.8610899
20
-141.6761599
11
140.2640684
21
-124.0167776
0
LINE
8
0
10
140.2640684
20
-124.0167776
11
122.6046861
21
-119.6137991
0
LINE
8
0
10
122.6046861
20
-119.6137991
11
118.2017076
21
-137.2731814
0
LINE
8
0
10
122.7982236
20
-118.8375626
11
140.4576059
21
-123.2405411
0
LINE
8
0
10
140.4576059
20
-123.2405411
11
144.8605844
21
-105.5811588
0
LINE
8
0
10
144.8605844
20
-105.5811588
11
127.2012021
21
-101.1781803
0
LINE
8
0
10
127.2012021
20
-101.1781803
11
122.7982236
21
-118.8375626
0
LINE
8
0
10
130.8312009
20
-165.1567948
11
148.4905832
21
-169.5597733
0
LINE
8
0
10
148.4905832
20
-169.5597733
11
152.8935617
21
-151.900391
0
LINE
8
0
10
152.8935617
20
-151.900391
11
135.2341794
21
-147.4974125
0
LINE
8
0
10
135.2341794
20
-147.4974125
11
130.8312009
21
-165.1567948
0
LINE
8
0
10
135.4277169
20
-146.721176
11
153.0870992
21
-151.1241545
0
LINE
8
0
10
153.0870992
20
-151.1241545
11
157.4900777
21
-133.4647722
0
LINE
8
0
10
157.4900777
20
-133.4647722
11
139.8306954
21
-129.0617937
0
LINE
8
0
10
139.8306954
20
-129.0617937
11
135.4277169
21
-146.721176
0
LINE
8
0
10
140.0242329
20
-128.2855572
11
157.6836152
21
-132.6885357
0
LINE
8
0
10
157.6836152
20
-132.6885357
11
162.0865937
21
-115.0291534
0
LINE
8
0
10
162.0865937
20
-115.0291534
11
144.4272114
21
-110.6261749
0
LINE
8
0
10
144.4272114
20
-110.6261749
11
140.0242329
21
-128.2855572
0
LINE
8
0
10
148.4200931
20
-173.1493459
11
166.0794754
21
-177.5523244
0
LINE
8
0
10
166.0794754
20
-177.5523244
11
170.4824539
21
-159.8929421
0
LINE
8
0
10
170.4824539
20
-159.8929421
11
152.8230716
21
-155.4899636
0
LINE
8
0
10
152.8230716
20
-155.4899636
11
148.4200931
21
-173.1493459
0
LINE
8
0
10
153.0166091
20
-154.7137271
11
170.6759914
21
-159.1167056
0
LINE
8
0
10
170.6759914
20
-159.1167056
11
175.0789699
21
-141.4573233
0
LINE
8
0
10
175.0789699
20
-141.4573233
11
157.4195876
21
-137.0543448
0
LINE
8
0
10
157.4195876
20
-137.0543448
11
153.0166091
21
-154.7137271
0
LINE
8
0
10
157.6131251
20
-136.2781083
11
175.2725074
21
-140.6810868
0
LINE
8
0
10
175.2725074
20
-140.6810868
11
179.6754859
21
-123.0217045
0
LINE
8
0
10
179.6754859
20
-123.0217045
11
162.0161036
21
-118.618726
0
LINE
8
0
10
162.0161036
20
-118.618726
11
157.6131251
21
-136.2781083
0
LINE
8
0
10
125.3879582
20
-186.9884487
11
143.0473405
21
-191.3914272
0
LINE
8
0
10
143.0473405
20
-191.3914272
11
147.450319
21
-173.7320449
0
LINE
8
0
10
147.450319
20
-173.7320449
11
129.7909367
21
-169.3290664
0
LINE
8
0
10
129.7909367
20
-169.3290664
11
125.3879582
21
-186.9884487
0
LINE
8
0
10
143.8863571
20
-191.7346779
11
159.5680079
21
-200.9718761
0
LINE
8
0
10
159.5680079
20
-200.9718761
11
168.8052061
21
-185.2902253
0
LINE
8
0
10
168.8052061
20
-185.2902253
11
153.1235553
21
-176.0530271
0
LINE
8
0
10
153.1235553
20
-176.0530271
11
143.8863571
21
-191.7346779
0
LINE
8
0
10
160.2749849
20
-201.5392851
11
172.6873551
21
-214.8499225
0
LINE
8
0
10
172.6873551
20
-214.8499225
11
185.9979925
21
-202.4375523
0
LINE
8
0
10
185.9979925
20
-202.4375523
11
173.5856223
21
-189.1269149
0
LINE
8
0
10
173.5856223
20
-189.1269149
11
160.2749849
21
-201.5392851
0
LINE
8
0
10
344.1133505
20
-142.9261956
11
361.7727328
21
-138.5232171
0
LINE
8
0
10
361.7727328
20
-138.5232171
11
357.3697543
21
-120.8638348
0
LINE
8
0
10
357.3697543
20
-120.8638348
11
339.710372
21
-125.2668133
0
LINE
8
0
10
339.710372
20
-125.2668133
11
344.1133505
21
-142.9261956
0
LINE
8
0
10
339.5168345
20
-124.4905768
11
357.1762168
21
-120.0875983
0
LINE
8
0
10
357.1762168
20
-120.0875983
11
352.7732383
21
-102.428216
0
LINE
8
0
10
352.7732383
20
-102.428216
11
335.113856
21
-106.8311945
0
LINE
8
0
10
335.113856
20
-106.8311945
11
339.5168345
21
-124.4905768
0
LINE
8
0
10
329.7904039
20
-164.0177389
11
347.4497862
21
-159.6147604
0
LINE
8
0
10
347.4497862
20
-159.6147604
11
343.0468077
21
-141.9553781
0
LINE
8
0
10
343.0468077
20
-141.9553781
11
325.3874254
21
-146.3583566
0
LINE
8
0
10
325.3874254
20
-146.3583566
11
329.7904039
21
-164.0177389
0
LINE
8
0
10
325.1938879
20
-145.5821201
11
342.8532702
21
-141.1791416
0
LINE
8
0
10
342.8532702
20
-141.1791416
11
338.4502917
21
-123.5197593
0
LINE
8
0
10
338.4502917
20
-123.5197593
11
320.7909094
21
-127.9227378
0
LINE
8
0
10
320.7909094
20
-127.9227378
11
325.1938879
21
-145.5821201
0
LINE
8
0
10
320.5973719
20
-127.1465013
11
338.2567542
21
-122.7435228
0
LINE
8
0
10
338.2567542
20
-122.7435228
11
333.8537757
21
-105.0841405
0
LINE
8
0
10
333.8537757
20
-105.0841405
11
316.1943934
21
-109.487119
0
LINE
8
0
10
316.1943934
20
-109.487119
11
320.5973719
21
-127.1465013
0
LINE
8
0
10
308.8146052
20
-158.4261498
11
326.4739875
21
-154.0231713
0
LINE
8
0
10
326.4739875
20
-154.0231713
11
322.071009
21
-136.363789
0
LINE
8
0
10
322.071009
20
-136.363789
11
304.4116267
21
-140.7667675
0
LINE
8
0
10
304.4116267
20
-140.7667675
11
308.8146052
21
-158.4261498
0
LINE
8
0
10
304.2180892
20
-139.990531
11
321.8774715
21
-135.5875525
0
LINE
8
0
10
321.8774715
20
-135.5875525
11
317.474493
21
-117.9281702
0
LINE
8
0
10
317.474493
20
-117.9281702
11
299.8151107
21
-122.3311487
0
LINE
8
0
10
299.8151107
20
-122.3311487
11
304.2180892
21
-139.990531
0
LINE
8
0
10
299.6215732
20
-121.5549122
11
317.2809555
21
-117.1519337
0
LINE
8
0
10
317.2809555
20
-117.1519337
11
312.877977
21
-99.4925514
0
LINE
8
0
10
312.877977
20
-99.4925514
11
295.2185947
21
-103.8955299
0
LINE
8
0
10
295.2185947
20
-103.8955299
11
299.6215732
21
-121.5549122
0
LINE
8
0
10
289.6532207
20
-160.1117787
11
307.312603
21
-155.7088002
0
LINE
8
0
10
307.312603
20
-155.7088002
11
302.9096245
21
-138.0494179
0
LINE
8
0
10
302.9096245
20
-138.0494179
11
285.2502422
21
-142.4523964
0
LINE
8
0
10
285.2502422
20
-142.4523964
11
289.6532207
21
-160.1117787
0
LINE
8
0
10
285.0567047
20
-141.6761599
11
302.716087
21
-137.2731814
0
LINE
8
0
10
302.716087
20
-137.2731814
11
298.3131085
21
-119.6137991
0
LINE
8
0
10
298.3131085
20
-119.6137991
11
280.6537262
21
-124.0167776
0
LINE
8
0
10
280.6537262
20
-124.0167776
11
285.0567047
21
-141.6761599
0
LINE
8
0
10
280.4601887
20
-123.2405411
11
298.119571
21
-118.8375626
0
LINE
8
0
10
298.119571
20
-118.8375626
11
293.7165925
21
-101.1781803
0
LINE
8
0
10
293.7165925
20
-101.1781803
11
276.0572102
21
-105.5811588
0
LINE
8
0
10
276.0572102
20
-105.5811588
11
280.4601887
21
-123.2405411
0
LINE
8
0
10
272.4272114
20
-169.5597733
11
290.0865937
21
-165.1567948
0
LINE
8
0
10
290.0865937
20
-165.1567948
11
285.6836152
21
-147.4974125
0
LINE
8
0
10
285.6836152
20
-147.4974125
11
268.0242329
21
-151.900391
0
LINE
8
0
10
268.0242329
20
-151.900391
11
272.4272114
21
-169.5597733
0
LINE
8
0
10
267.8306954
20
-151.1241545
11
285.4900777
21
-146.721176
0
LINE
8
0
10
285.4900777
20
-146.721176
11
281.0870992
21
-129.0617937
0
LINE
8
0
10
281.0870992
20
-129.0617937
11
263.4277169
21
-133.4647722
0
LINE
8
0
10
263.4277169
20
-133.4647722
11
267.8306954
21
-151.1241545
0
LINE
8
0
10
263.2341794
20
-132.6885357
11
280.8935617
21
-128.2855572
0
LINE
8
0
10
280.8935617
20
-128.2855572
11
276.4905832
21
-110.6261749
0
LINE
8
0
10
276.4905832
20
-110.6261749
11
258.8312009
21
-115.0291534
0
LINE
8
0
10
258.8312009
20
-115.0291534
11
263.2341794
21
-132.6885357
0
LINE
8
0
10
254.8383192
20
-177.5523244
11
272.4977015
21
-173.1493459
0
LINE
8
0
10
272.4977015
20
-173.1493459
11
268.094723
21
-155.4899636
0
LINE
8
0
10
268.094723
20
-155.4899636
11
250.4353407
21
-159.8929421
0
LINE
8
0
10
250.4353407
20
-159.8929421
11
254.8383192
21
-177.5523244
0
LINE
8
0
10
250.2418032
20
-159.1167056
11
267.9011855
21
-154.7137271
0
LINE
8
0
10
267.9011855
20
-154.7137271
11
263.498207
21
-137.0543448
0
LINE
8
0
10
263.498207
20
-137.0543448
11
245.8388247
21
-141.4573233
0
LINE
8
0
10
245.8388247
20
-141.4573233
11
250.2418032
21
-159.1167056
0
LINE
8
0
10
245.6452872
20
-140.6810868
11
263.3046695
21
-136.2781083
0
LINE
8
0
10
263.3046695
20
-136.2781083
11
258.901691
21
-118.618726
0
LINE
8
0
10
258.901691
20
-118.618726
11
241.2423087
21
-123.0217045
0
LINE
8
0
10
241.2423087
20
-123.0217045
11
245.6452872
21
-140.6810868
0
LINE
8
0
10
277.8704541
20
-191.3914272
11
295.5298364
21
-186.9884487
0
LINE
8
0
10
295.5298364
20
-186.9884487
11
291.1268579
21
-169.3290664
0
LINE
8
0
10
291.1268579
20
-169.3290664
11
273.4674756
21
-173.7320449
0
LINE
8
0
10
273.4674756
20
-173.7320449
11
277.8704541
21
-191.3914272
0
LINE
8
0
10
261.3497867
20
-200.9718761
11
277.0314375
21
-191.7346779
0
LINE
8
0
10
277.0314375
20
-191.7346779
11
267.7942393
21
-176.0530271
0
LINE
8
0
10
267.7942393
20
-176.0530271
11
252.1125885
21
-185.2902253
0
LINE
8
0
10
252.1125885
20
-185.2902253
11
261.3497867
21
-200.9718761
0
LINE
8
0
10
248.2304395
20
-214.8499225
11
260.6428097
21
-201.5392851
0
LINE
8
0
10
260.6428097
20
-201.5392851
11
247.3321723
21
-189.1269149
0
LINE
8
0
10
247.3321723
20
-189.1269149
11
234.9198021
21
-202.4375523
0
LINE
8
0
10
234.9198021
20
-202.4375523
11
248.2304395
21
-214.8499225
0
ENDSEC
0
EOF