0
SECTION
2
HEADER
9
$INSUNITS
70
4
0
ENDSEC
0
SECTION
2
TABLES
0
TABLE
2
LTYPE
0
LTYPE
72
65
70
64
2
CONTINUOUS
3
______
73
0
40
0
0
ENDTAB
0
TABLE
2
LAYER
0
ENDTAB
0
ENDSEC
0
SECTION
2
ENTITIES
0
LINE
8
0
10
61.8119406
20
-136.9207946
11
75.2020216
21
-140.2593168
0
LINE
8
0
10
75.2020216
20
-140.2593168
11
78.5405438
21
-126.8692358
0
LINE
8
0
10
78.5405438
20
-126.8692358
11
65.1504628
21
-123.5307136
0
LINE
8
0
10
65.1504628
20
-123.5307136
11
61.8119406
21
-136.9207946
0
LINE
8
0
10
66.4084566
20
-118.4851758
11
79.7985376
21
-121.823698
0
LINE
8
0
10
79.7985376
20
-121.823698
11
83.1370598
21
-108.433617
0
LINE
8
0
10
83.1370598
20
-108.433617
11
69.7469788
21
-105.0950948
0
LINE
8
0
10
69.7469788
20
-105.0950948
11
66.4084566
21
-118.4851758
0
LINE
8
0
10
75.6510434
20
-159.9529294
11
89.0411244
21
-163.2914516
0
LINE
8
0
10
89.0411244
20
-163.2914516
11
92.3796466
21
-149.9013706
0
LINE
8
0
10
92.3796466
20
-149.9013706
11
78.9895656
21
-146.5628484
0
LINE
8
0
10
78.9895656
20
-146.5628484
11
75.6510434
21
-159.9529294
0
LINE
8
0
10
80.2475594
20
-141.5173106
11
93.6376404
21
-144.8558328
0
LINE
8
0
10
93.6376404
20
-144.8558328
11
96.9761626
21
-131.4657518
0
LINE
8
0
10
96.9761626
20
-131.4657518
11
83.5860816
21
-128.1272296
0
LINE
8
0
10
83.5860816
20
-128.1272296
11
80.2475594
21
-141.5173106
0
LINE
8
0
10
84.8440754
20
-123.0816918
11
98.2341564
21
-126.420214
0
LINE
8
0
10
98.2341564
20
-126.420214
11
101.5726786
21
-113.030133
0
LINE
8
0
10
101.5726786
20
-113.030133
11
88.1825976
21
-109.6916108
0
LINE
8
0
10
88.1825976
20
-109.6916108
11
84.8440754
21
-123.0816918
0
LINE
8
0
10
96.6268421
20
-154.3613403
11
110.0169231
21
-157.6998625
0
LINE
8
0
10
110.0169231
20
-157.6998625
11
113.3554453
21
-144.3097815
0
LINE
8
0
10
113.3554453
20
-144.3097815
11
99.9653643
21
-140.9712593
0
LINE
8
0
10
99.9653643
20
-140.9712593
11
96.6268421
21
-154.3613403
0
LINE
8
0
10
101.2233581
20
-135.9257215
11
114.6134391
21
-139.2642437
0
LINE
8
0
10
114.6134391
20
-139.2642437
11
117.9519613
21
-125.8741627
0
LINE
8
0
10
117.9519613
20
-125.8741627
11
104.5618803
21
-122.5356405
0
LINE
8
0
10
104.5618803
20
-122.5356405
11
101.2233581
21
-135.9257215
0
LINE
8
0
10
105.8198741
20
-117.4901027
11
119.2099551
21
-120.8286249
0
LINE
8
0
10
119.2099551
20
-120.8286249
11
122.5484773
21
-107.4385439
0
LINE
8
0
10
122.5484773
20
-107.4385439
11
109.1583963
21
-104.1000217
0
LINE
8
0
10
109.1583963
20
-104.1000217
11
105.8198741
21
-117.4901027
0
LINE
8
0
10
115.7882266
20
-156.0469691
11
129.1783076
21
-159.3854913
0
LINE
8
0
10
129.1783076
20
-159.3854913
11
132.5168298
21
-145.9954103
0
LINE
8
0
10
132.5168298
20
-145.9954103
11
119.1267488
21
-142.6568881
0
LINE
8
0
10
119.1267488
20
-142.6568881
11
115.7882266
21
-156.0469691
0
LINE
8
0
10
120.3847426
20
-137.6113503
11
133.7748236
21
-140.9498725
0
LINE
8
0
10
133.7748236
20
-140.9498725
11
137.1133458
21
-127.5597915
0
LINE
8
0
10
137.1133458
20
-127.5597915
11
123.7232648
21
-124.2212693
0
LINE
8
0
10
123.7232648
20
-124.2212693
11
120.3847426
21
-137.6113503
0
LINE
8
0
10
124.9812586
20
-119.1757315
11
138.3713396
21
-122.5142537
0
LINE
8
0
10
138.3713396
20
-122.5142537
11
141.7098618
21
-109.1241727
0
LINE
8
0
10
141.7098618
20
-109.1241727
11
128.3197808
21
-105.7856505
0
LINE
8
0
10
128.3197808
20
-105.7856505
11
124.9812586
21
-119.1757315
0
LINE
8
0
10
133.0142359
20
-165.4949638
11
146.4043169
21
-168.833486
0
LINE
8
0
10
146.4043169
20
-168.833486
11
149.7428391
21
-155.443405
0
LINE
8
0
10
149.7428391
20
-155.443405
11
136.3527581
21
-152.1048828
0
LINE
8
0
10
136.3527581
20
-152.1048828
11
133.0142359
21
-165.4949638
0
LINE
8
0
10
137.6107519
20
-147.059345
11
151.0008329
21
-150.3978672
0
LINE
8
0
10
151.0008329
20
-150.3978672
11
154.3393551
21
-137.0077862
0
LINE
8
0
10
154.3393551
20
-137.0077862
11
140.9492741
21
-133.669264
0
LINE
8
0
10
140.9492741
20
-133.669264
11
137.6107519
21
-147.059345
0
LINE
8
0
10
142.2072679
20
-128.6237262
11
155.5973489
21
-131.9622484
0
LINE
8
0
10
155.5973489
20
-131.9622484
11
158.9358711
21
-118.5721674
0
LINE
8
0
10
158.9358711
20
-118.5721674
11
145.5457901
21
-115.2336452
0
LINE
8
0
10
145.5457901
20
-115.2336452
11
142.2072679
21
-128.6237262
0
LINE
8
0
10
151.0869719
20
-171.5469234
11
164.4770529
21
-174.8854456
0
LINE
8
0
10
164.4770529
20
-174.8854456
11
167.8155751
21
-161.4953646
0
LINE
8
0
10
167.8155751
20
-161.4953646
11
154.4254941
21
-158.1568424
0
LINE
8
0
10
154.4254941
20
-158.1568424
11
151.0869719
21
-171.5469234
0
LINE
8
0
10
155.6834879
20
-153.1113046
11
169.0735689
21
-156.4498268
0
LINE
8
0
10
169.0735689
20
-156.4498268
11
172.4120911
21
-143.0597458
0
LINE
8
0
10
172.4120911
20
-143.0597458
11
159.0220101
21
-139.7212236
0
LINE
8
0
10
159.0220101
20
-139.7212236
11
155.6834879
21
-153.1113046
0
LINE
8
0
10
160.2800039
20
-134.6756858
11
173.6700849
21
-138.014208
0
LINE
8
0
10
173.6700849
20
-138.014208
11
177.0086071
21
-124.624127
0
LINE
8
0
10
177.0086071
20
-124.624127
11
163.6185261
21
-121.2856048
0
LINE
8
0
10
163.6185261
20
-121.2856048
11
160.2800039
21
-134.6756858
0
LINE
8
0
10
128.054837
20
-185.3860262
11
141.444918
21
-188.7245484
0
LINE
8
0
10
141.444918
20
-188.7245484
11
144.7834402
21
-175.3344674
0
LINE
8
0
10
144.7834402
20
-175.3344674
11
131.3933592
21
-171.9959452
0
LINE
8
0
10
131.3933592
20
-171.9959452
11
128.054837
21
-185.3860262
0
LINE
8
0
10
146.8985257
20
-190.9556781
11
158.7890081
21
-197.9597075
0
LINE
8
0
10
158.7890081
20
-197.9597075
11
165.7930375
21
-186.0692251
0
LINE
8
0
10
165.7930375
20
-186.0692251
11
153.9025551
21
-179.0651957
0
LINE
8
0
10
153.9025551
20
-179.0651957
11
146.8985257
21
-190.9556781
0
LINE
8
0
10
163.3843595
20
-201.6478668
11
172.7959368
21
-211.7405479
0
LINE
8
0
10
172.7959368
20
-211.7405479
11
182.8886179
21
-202.3289706
0
LINE
8
0
10
182.8886179
20
-202.3289706
11
173.4770406
21
-192.2362895
0
LINE
8
0
10
173.4770406
20
-192.2362895
11
163.3843595
21
-201.6478668
0
LINE
8
0
10
344.7480854
20
-140.2593168
11
358.1381664
21
-136.9207946
0
LINE
8
0
10
358.1381664
20
-136.9207946
11
354.7996442
21
-123.5307136
0
LINE
8
0
10
354.7996442
20
-123.5307136
11
341.4095632
21
-126.8692358
0
LINE
8
0
10
341.4095632
20
-126.8692358
11
344.7480854
21
-140.2593168
0
LINE
8
0
10
340.1515694
20
-121.823698
11
353.5416504
21
-118.4851758
0
LINE
8
0
10
353.5416504
20
-118.4851758
11
350.2031282
21
-105.0950948
0
LINE
8
0
10
350.2031282
20
-105.0950948
11
336.8130472
21
-108.433617
0
LINE
8
0
10
336.8130472
20
-108.433617
11
340.1515694
21
-121.823698
0
LINE
8
0
10
330.9089826
20
-163.2914516
11
344.2990636
21
-159.9529294
0
LINE
8
0
10
344.2990636
20
-159.9529294
11
340.9605414
21
-146.5628484
0
LINE
8
0
10
340.9605414
20
-146.5628484
11
327.5704604
21
-149.9013706
0
LINE
8
0
10
327.5704604
20
-149.9013706
11
330.9089826
21
-163.2914516
0
LINE
8
0
10
326.3124666
20
-144.8558328
11
339.7025476
21
-141.5173106
0
LINE
8
0
10
339.7025476
20
-141.5173106
11
336.3640254
21
-128.1272296
0
LINE
8
0
10
336.3640254
20
-128.1272296
11
322.9739444
21
-131.4657518
0
LINE
8
0
10
322.9739444
20
-131.4657518
11
326.3124666
21
-144.8558328
0
LINE
8
0
10
321.7159506
20
-126.420214
11
335.1060316
21
-123.0816918
0
LINE
8
0
10
335.1060316
20
-123.0816918
11
331.7675094
21
-109.6916108
0
LINE
8
0
10
331.7675094
20
-109.6916108
11
318.3774284
21
-113.030133
0
LINE
8
0
10
318.3774284
20
-113.030133
11
321.7159506
21
-126.420214
0
LINE
8
0
10
309.9331839
20
-157.6998625
11
323.3232649
21
-154.3613403
0
LINE
8
0
10
323.3232649
20
-154.3613403
11
319.9847427
21
-140.9712593
0
LINE
8
0
10
319.9847427
20
-140.9712593
11
306.5946617
21
-144.3097815
0
LINE
8
0
10
306.5946617
20
-144.3097815
11
309.9331839
21
-157.6998625
0
LINE
8
0
10
305.3366679
20
-139.2642437
11
318.7267489
21
-135.9257215
0
LINE
8
0
10
318.7267489
20
-135.9257215
11
315.3882267
21
-122.5356405
0
LINE
8
0
10
315.3882267
20
-122.5356405
11
301.9981457
21
-125.8741627
0
LINE
8
0
10
301.9981457
20
-125.8741627
11
305.3366679
21
-139.2642437
0
LINE
8
0
10
300.7401519
20
-120.8286249
11
314.1302329
21
-117.4901027
0
LINE
8
0
10
314.1302329
20
-117.4901027
11
310.7917107
21
-104.1000217
0
LINE
8
0
10
310.7917107
20
-104.1000217
11
297.4016297
21
-107.4385439
0
LINE
8
0
10
297.4016297
20
-107.4385439
11
300.7401519
21
-120.8286249
0
LINE
8
0
10
290.7717994
20
-159.3854913
11
304.1618804
21
-156.0469691
0
LINE
8
0
10
304.1618804
20
-156.0469691
11
300.8233582
21
-142.6568881
0
LINE
8
0
10
300.8233582
20
-142.6568881
11
287.4332772
21
-145.9954103
0
LINE
8
0
10
287.4332772
20
-145.9954103
11
290.7717994
21
-159.3854913
0
LINE
8
0
10
286.1752834
20
-140.9498725
11
299.5653644
21
-137.6113503
0
LINE
8
0
10
299.5653644
20
-137.6113503
11
296.2268422
21
-124.2212693
0
LINE
8
0
10
296.2268422
20
-124.2212693
11
282.8367612
21
-127.5597915
0
LINE
8
0
10
282.8367612
20
-127.5597915
11
286.1752834
21
-140.9498725
0
LINE
8
0
10
281.5787674
20
-122.5142537
11
294.9688484
21
-119.1757315
0
LINE
8
0
10
294.9688484
20
-119.1757315
11
291.6303262
21
-105.7856505
0
LINE
8
0
10
291.6303262
20
-105.7856505
11
278.2402452
21
-109.1241727
0
LINE
8
0
10
278.2402452
20
-109.1241727
11
281.5787674
21
-122.5142537
0
LINE
8
0
10
273.5457901
20
-168.833486
11
286.9358711
21
-165.4949638
0
LINE
8
0
10
286.9358711
20
-165.4949638
11
283.5973489
21
-152.1048828
0
LINE
8
0
10
283.5973489
20
-152.1048828
11
270.2072679
21
-155.443405
0
LINE
8
0
10
270.2072679
20
-155.443405
11
273.5457901
21
-168.833486
0
LINE
8
0
10
268.9492741
20
-150.3978672
11
282.3393551
21
-147.059345
0
LINE
8
0
10
282.3393551
20
-147.059345
11
279.0008329
21
-133.669264
0
LINE
8
0
10
279.0008329
20
-133.669264
11
265.6107519
21
-137.0077862
0
LINE
8
0
10
265.6107519
20
-137.0077862
11
268.9492741
21
-150.3978672
0
LINE
8
0
10
264.3527581
20
-131.9622484
11
277.7428391
21
-128.6237262
0
LINE
8
0
10
277.7428391
20
-128.6237262
11
274.4043169
21
-115.2336452
0
LINE
8
0
10
274.4043169
20
-115.2336452
11
261.0142359
21
-118.5721674
0
LINE
8
0
10
261.0142359
20
-118.5721674
11
264.3527581
21
-131.9622484
0
LINE
8
0
10
255.4730541
20
-174.8854456
11
268.8631351
21
-171.5469234
0
LINE
8
0
10
268.8631351
20
-171.5469234
11
265.5246129
21
-158.1568424
0
LINE
8
0
10
265.5246129
20
-158.1568424
11
252.1345319
21
-161.4953646
0
LINE
8
0
10
252.1345319
20
-161.4953646
11
255.4730541
21
-174.8854456
0
LINE
8
0
10
250.8765381
20
-156.4498268
11
264.2666191
21
-153.1113046
0
LINE
8
0
10
264.2666191
20
-153.1113046
11
260.9280969
21
-139.7212236
0
LINE
8
0
10
260.9280969
20
-139.7212236
11
247.5380159
21
-143.0597458
0
LINE
8
0
10
247.5380159
20
-143.0597458
11
250.8765381
21
-156.4498268
0
LINE
8
0
10
246.2800221
20
-138.014208
11
259.6701031
21
-134.6756858
0
LINE
8
0
10
259.6701031
20
-134.6756858
11
256.3315809
21
-121.2856048
0
LINE
8
0
10
256.3315809
20
-121.2856048
11
242.9414999
21
-124.624127
0
LINE
8
0
10
242.9414999
20
-124.624127
11
246.2800221
21
-138.014208
0
LINE
8
0
10
278.505189
20
-188.7245484
11
291.89527
21
-185.3860262
0
LINE
8
0
10
291.89527
20
-185.3860262
11
288.5567478
21
-171.9959452
0
LINE
8
0
10
288.5567478
20
-171.9959452
11
275.1666668
21
-175.3344674
0
LINE
8
0
10
275.1666668
20
-175.3344674
11
278.505189
21
-188.7245484
0
LINE
8
0
10
261.1610989
20
-197.9597075
11
273.0515813
21
-190.9556781
0
LINE
8
0
10
273.0515813
20
-190.9556781
11
266.0475519
21
-179.0651957
0
LINE
8
0
10
266.0475519
20
-179.0651957
11
254.1570695
21
-186.0692251
0
LINE
8
0
10
254.1570695
20
-186.0692251
11
261.1610989
21
-197.9597075
0
LINE
8
0
10
247.1541702
20
-211.7405479
11
256.5657475
21
-201.6478668
0
LINE
8
0
10
256.5657475
20
-201.6478668
11
246.4730664
21
-192.2362895
0
LINE
8
0
10
246.4730664
20
-192.2362895
11
237.0614891
21
-202.3289706
0
LINE
8
0
10
237.0614891
20
-202.3289706
11
247.1541702
21
-211.7405479
0
ENDSEC
0
EOF