0
SECTION
2
HEADER
9
$INSUNITS
70
4
0
ENDSEC
0
SECTION
2
TABLES
0
TABLE
2
LTYPE
0
LTYPE
72
65
70
64
2
CONTINUOUS
3
______
73
0
40
0
0
ENDTAB
0
TABLE
2
LAYER
0
ENDTAB
0
ENDSEC
0
SECTION
2
ENTITIES
0
LINE
8
0
10
59.412929
20
-137.978708
11
72.7427054
21
-141.5504108
0
LINE
8
0
10
72.7427054
20
-141.5504108
11
76.3144082
21
-128.2206344
0
LINE
8
0
10
76.3144082
20
-128.2206344
11
62.9846318
21
-124.6489316
0
LINE
8
0
10
62.9846318
20
-124.6489316
11
59.412929
21
-137.978708
0
LINE
8
0
10
64.3304909
20
-119.6261173
11
77.6602673
21
-123.1978201
0
LINE
8
0
10
77.6602673
20
-123.1978201
11
81.2319701
21
-109.8680437
0
LINE
8
0
10
81.2319701
20
-109.8680437
11
67.9021937
21
-106.2963409
0
LINE
8
0
10
67.9021937
20
-106.2963409
11
64.3304909
21
-119.6261173
0
LINE
8
0
10
72.8479579
20
-161.2488606
11
86.1777343
21
-164.8205634
0
LINE
8
0
10
86.1777343
20
-164.8205634
11
89.7494371
21
-151.490787
0
LINE
8
0
10
89.7494371
20
-151.490787
11
76.4196607
21
-147.9190842
0
LINE
8
0
10
76.4196607
20
-147.9190842
11
72.8479579
21
-161.2488606
0
LINE
8
0
10
77.7655197
20
-142.8962699
11
91.0952961
21
-146.4679727
0
LINE
8
0
10
91.0952961
20
-146.4679727
11
94.6669989
21
-133.1381963
0
LINE
8
0
10
94.6669989
20
-133.1381963
11
81.3372225
21
-129.5664935
0
LINE
8
0
10
81.3372225
20
-129.5664935
11
77.7655197
21
-142.8962699
0
LINE
8
0
10
82.6830816
20
-124.5436792
11
96.012858
21
-128.115382
0
LINE
8
0
10
96.012858
20
-128.115382
11
99.5845608
21
-114.7856056
0
LINE
8
0
10
99.5845608
20
-114.7856056
11
86.2547844
21
-111.2139028
0
LINE
8
0
10
86.2547844
20
-111.2139028
11
82.6830816
21
-124.5436792
0
LINE
8
0
10
93.9181485
20
-156.0242013
11
107.2479249
21
-159.5959041
0
LINE
8
0
10
107.2479249
20
-159.5959041
11
110.8196277
21
-146.2661277
0
LINE
8
0
10
110.8196277
20
-146.2661277
11
97.4898513
21
-142.6944249
0
LINE
8
0
10
97.4898513
20
-142.6944249
11
93.9181485
21
-156.0242013
0
LINE
8
0
10
98.8357104
20
-137.6716106
11
112.1654868
21
-141.2433134
0
LINE
8
0
10
112.1654868
20
-141.2433134
11
115.7371896
21
-127.913537
0
LINE
8
0
10
115.7371896
20
-127.913537
11
102.4074132
21
-124.3418342
0
LINE
8
0
10
102.4074132
20
-124.3418342
11
98.8357104
21
-137.6716106
0
LINE
8
0
10
103.7532723
20
-119.3190199
11
117.0830487
21
-122.8907227
0
LINE
8
0
10
117.0830487
20
-122.8907227
11
120.6547515
21
-109.5609463
0
LINE
8
0
10
120.6547515
20
-109.5609463
11
107.3249751
21
-105.9892435
0
LINE
8
0
10
107.3249751
20
-105.9892435
11
103.7532723
21
-119.3190199
0
LINE
8
0
10
113.0471964
20
-158.0439856
11
126.3769728
21
-161.6156884
0
LINE
8
0
10
126.3769728
20
-161.6156884
11
129.9486756
21
-148.285912
0
LINE
8
0
10
129.9486756
20
-148.285912
11
116.6188992
21
-144.7142092
0
LINE
8
0
10
116.6188992
20
-144.7142092
11
113.0471964
21
-158.0439856
0
LINE
8
0
10
117.9647582
20
-139.6913949
11
131.2945346
21
-143.2630977
0
LINE
8
0
10
131.2945346
20
-143.2630977
11
134.8662374
21
-129.9333213
0
LINE
8
0
10
134.8662374
20
-129.9333213
11
121.536461
21
-126.3616185
0
LINE
8
0
10
121.536461
20
-126.3616185
11
117.9647582
21
-139.6913949
0
LINE
8
0
10
122.8823201
20
-121.3388042
11
136.2120965
21
-124.910507
0
LINE
8
0
10
136.2120965
20
-124.910507
11
139.7837993
21
-111.5807306
0
LINE
8
0
10
139.7837993
20
-111.5807306
11
126.4540229
21
-108.0090278
0
LINE
8
0
10
126.4540229
20
-108.0090278
11
122.8823201
21
-121.3388042
0
LINE
8
0
10
130.1056918
20
-167.7911766
11
143.4354682
21
-171.3628794
0
LINE
8
0
10
143.4354682
20
-171.3628794
11
147.007171
21
-158.033103
0
LINE
8
0
10
147.007171
20
-158.033103
11
133.6773946
21
-154.4614002
0
LINE
8
0
10
133.6773946
20
-154.4614002
11
130.1056918
21
-167.7911766
0
LINE
8
0
10
135.0232537
20
-149.4385859
11
148.3530301
21
-153.0102887
0
LINE
8
0
10
148.3530301
20
-153.0102887
11
151.9247329
21
-139.6805123
0
LINE
8
0
10
151.9247329
20
-139.6805123
11
138.5949565
21
-136.1088095
0
LINE
8
0
10
138.5949565
20
-136.1088095
11
135.0232537
21
-149.4385859
0
LINE
8
0
10
139.9408156
20
-131.0859952
11
153.270592
21
-134.657698
0
LINE
8
0
10
153.270592
20
-134.657698
11
156.8422948
21
-121.3279216
0
LINE
8
0
10
156.8422948
20
-121.3279216
11
143.5125184
21
-117.7562188
0
LINE
8
0
10
143.5125184
20
-117.7562188
11
139.9408156
21
-131.0859952
0
LINE
8
0
10
148.070054
20
-174.1576272
11
161.3998304
21
-177.72933
0
LINE
8
0
10
161.3998304
20
-177.72933
11
164.9715332
21
-164.3995536
0
LINE
8
0
10
164.9715332
20
-164.3995536
11
151.6417568
21
-160.8278508
0
LINE
8
0
10
151.6417568
20
-160.8278508
11
148.070054
21
-174.1576272
0
LINE
8
0
10
152.9876158
20
-155.8050365
11
166.3173922
21
-159.3767393
0
LINE
8
0
10
166.3173922
20
-159.3767393
11
169.889095
21
-146.0469629
0
LINE
8
0
10
169.889095
20
-146.0469629
11
156.5593186
21
-142.4752601
0
LINE
8
0
10
156.5593186
20
-142.4752601
11
152.9876158
21
-155.8050365
0
LINE
8
0
10
157.9051777
20
-137.4524458
11
171.2349541
21
-141.0241486
0
LINE
8
0
10
171.2349541
20
-141.0241486
11
174.8066569
21
-127.6943722
0
LINE
8
0
10
174.8066569
20
-127.6943722
11
161.4768805
21
-124.1226694
0
LINE
8
0
10
161.4768805
20
-124.1226694
11
157.9051777
21
-137.4524458
0
LINE
8
0
10
115.6236061
20
-185.1338751
11
128.9533825
21
-188.7055779
0
LINE
8
0
10
128.9533825
20
-188.7055779
11
132.5250853
21
-175.3758015
0
LINE
8
0
10
132.5250853
20
-175.3758015
11
119.1953089
21
-171.8040987
0
LINE
8
0
10
119.1953089
20
-171.8040987
11
115.6236061
21
-185.1338751
0
LINE
8
0
10
134.3672209
20
-191.0315464
11
146.1336551
21
-198.2420266
0
LINE
8
0
10
146.1336551
20
-198.2420266
11
153.3441353
21
-186.4755924
0
LINE
8
0
10
153.3441353
20
-186.4755924
11
141.5777011
21
-179.2651122
0
LINE
8
0
10
141.5777011
20
-179.2651122
11
134.3672209
21
-191.0315464
0
LINE
8
0
10
148.0496274
20
-205.8561154
11
158.3852163
21
-215.0002721
0
LINE
8
0
10
158.3852163
20
-215.0002721
11
167.529373
21
-204.6646832
0
LINE
8
0
10
167.529373
20
-204.6646832
11
157.1937841
21
-195.5205265
0
LINE
8
0
10
157.1937841
20
-195.5205265
11
148.0496274
21
-205.8561154
0
LINE
8
0
10
342.2052812
20
-141.5504108
11
355.5350576
21
-137.978708
0
LINE
8
0
10
355.5350576
20
-137.978708
11
351.9633548
21
-124.6489316
0
LINE
8
0
10
351.9633548
20
-124.6489316
11
338.6335784
21
-128.2206344
0
LINE
8
0
10
338.6335784
20
-128.2206344
11
342.2052812
21
-141.5504108
0
LINE
8
0
10
337.2877193
20
-123.1978201
11
350.6174957
21
-119.6261173
0
LINE
8
0
10
350.6174957
20
-119.6261173
11
347.0457929
21
-106.2963409
0
LINE
8
0
10
347.0457929
20
-106.2963409
11
333.7160165
21
-109.8680437
0
LINE
8
0
10
333.7160165
20
-109.8680437
11
337.2877193
21
-123.1978201
0
LINE
8
0
10
328.7702523
20
-164.8205634
11
342.1000287
21
-161.2488606
0
LINE
8
0
10
342.1000287
20
-161.2488606
11
338.5283259
21
-147.9190842
0
LINE
8
0
10
338.5283259
20
-147.9190842
11
325.1985495
21
-151.490787
0
LINE
8
0
10
325.1985495
20
-151.490787
11
328.7702523
21
-164.8205634
0
LINE
8
0
10
323.8526905
20
-146.4679727
11
337.1824669
21
-142.8962699
0
LINE
8
0
10
337.1824669
20
-142.8962699
11
333.6107641
21
-129.5664935
0
LINE
8
0
10
333.6107641
20
-129.5664935
11
320.2809877
21
-133.1381963
0
LINE
8
0
10
320.2809877
20
-133.1381963
11
323.8526905
21
-146.4679727
0
LINE
8
0
10
318.9351286
20
-128.115382
11
332.264905
21
-124.5436792
0
LINE
8
0
10
332.264905
20
-124.5436792
11
328.6932022
21
-111.2139028
0
LINE
8
0
10
328.6932022
20
-111.2139028
11
315.3634258
21
-114.7856056
0
LINE
8
0
10
315.3634258
20
-114.7856056
11
318.9351286
21
-128.115382
0
LINE
8
0
10
307.7000617
20
-159.5959041
11
321.0298381
21
-156.0242013
0
LINE
8
0
10
321.0298381
20
-156.0242013
11
317.4581353
21
-142.6944249
0
LINE
8
0
10
317.4581353
20
-142.6944249
11
304.1283589
21
-146.2661277
0
LINE
8
0
10
304.1283589
20
-146.2661277
11
307.7000617
21
-159.5959041
0
LINE
8
0
10
302.7824998
20
-141.2433134
11
316.1122762
21
-137.6716106
0
LINE
8
0
10
316.1122762
20
-137.6716106
11
312.5405734
21
-124.3418342
0
LINE
8
0
10
312.5405734
20
-124.3418342
11
299.210797
21
-127.913537
0
LINE
8
0
10
299.210797
20
-127.913537
11
302.7824998
21
-141.2433134
0
LINE
8
0
10
297.8649379
20
-122.8907227
11
311.1947143
21
-119.3190199
0
LINE
8
0
10
311.1947143
20
-119.3190199
11
307.6230115
21
-105.9892435
0
LINE
8
0
10
307.6230115
20
-105.9892435
11
294.2932351
21
-109.5609463
0
LINE
8
0
10
294.2932351
20
-109.5609463
11
297.8649379
21
-122.8907227
0
LINE
8
0
10
288.5710138
20
-161.6156884
11
301.9007902
21
-158.0439856
0
LINE
8
0
10
301.9007902
20
-158.0439856
11
298.3290874
21
-144.7142092
0
LINE
8
0
10
298.3290874
20
-144.7142092
11
284.999311
21
-148.285912
0
LINE
8
0
10
284.999311
20
-148.285912
11
288.5710138
21
-161.6156884
0
LINE
8
0
10
283.653452
20
-143.2630977
11
296.9832284
21
-139.6913949
0
LINE
8
0
10
296.9832284
20
-139.6913949
11
293.4115256
21
-126.3616185
0
LINE
8
0
10
293.4115256
20
-126.3616185
11
280.0817492
21
-129.9333213
0
LINE
8
0
10
280.0817492
20
-129.9333213
11
283.653452
21
-143.2630977
0
LINE
8
0
10
278.7358901
20
-124.910507
11
292.0656665
21
-121.3388042
0
LINE
8
0
10
292.0656665
20
-121.3388042
11
288.4939637
21
-108.0090278
0
LINE
8
0
10
288.4939637
20
-108.0090278
11
275.1641873
21
-111.5807306
0
LINE
8
0
10
275.1641873
20
-111.5807306
11
278.7358901
21
-124.910507
0
LINE
8
0
10
271.5125184
20
-171.3628794
11
284.8422948
21
-167.7911766
0
LINE
8
0
10
284.8422948
20
-167.7911766
11
281.270592
21
-154.4614002
0
LINE
8
0
10
281.270592
20
-154.4614002
11
267.9408156
21
-158.033103
0
LINE
8
0
10
267.9408156
20
-158.033103
11
271.5125184
21
-171.3628794
0
LINE
8
0
10
266.5949565
20
-153.0102887
11
279.9247329
21
-149.4385859
0
LINE
8
0
10
279.9247329
20
-149.4385859
11
276.3530301
21
-136.1088095
0
LINE
8
0
10
276.3530301
20
-136.1088095
11
263.0232537
21
-139.6805123
0
LINE
8
0
10
263.0232537
20
-139.6805123
11
266.5949565
21
-153.0102887
0
LINE
8
0
10
261.6773946
20
-134.657698
11
275.007171
21
-131.0859952
0
LINE
8
0
10
275.007171
20
-131.0859952
11
271.4354682
21
-117.7562188
0
LINE
8
0
10
271.4354682
20
-117.7562188
11
258.1056918
21
-121.3279216
0
LINE
8
0
10
258.1056918
20
-121.3279216
11
261.6773946
21
-134.657698
0
LINE
8
0
10
253.5481562
20
-177.72933
11
266.8779326
21
-174.1576272
0
LINE
8
0
10
266.8779326
20
-174.1576272
11
263.3062298
21
-160.8278508
0
LINE
8
0
10
263.3062298
20
-160.8278508
11
249.9764534
21
-164.3995536
0
LINE
8
0
10
249.9764534
20
-164.3995536
11
253.5481562
21
-177.72933
0
LINE
8
0
10
248.6305944
20
-159.3767393
11
261.9603708
21
-155.8050365
0
LINE
8
0
10
261.9603708
20
-155.8050365
11
258.388668
21
-142.4752601
0
LINE
8
0
10
258.388668
20
-142.4752601
11
245.0588916
21
-146.0469629
0
LINE
8
0
10
245.0588916
20
-146.0469629
11
248.6305944
21
-159.3767393
0
LINE
8
0
10
243.7130325
20
-141.0241486
11
257.0428089
21
-137.4524458
0
LINE
8
0
10
257.0428089
20
-137.4524458
11
253.4711061
21
-124.1226694
0
LINE
8
0
10
253.4711061
20
-124.1226694
11
240.1413297
21
-127.6943722
0
LINE
8
0
10
240.1413297
20
-127.6943722
11
243.7130325
21
-141.0241486
0
LINE
8
0
10
285.9946041
20
-188.7055779
11
299.3243805
21
-185.1338751
0
LINE
8
0
10
299.3243805
20
-185.1338751
11
295.7526777
21
-171.8040987
0
LINE
8
0
10
295.7526777
20
-171.8040987
11
282.4229013
21
-175.3758015
0
LINE
8
0
10
282.4229013
20
-175.3758015
11
285.9946041
21
-188.7055779
0
LINE
8
0
10
268.8143315
20
-198.2420266
11
280.5807657
21
-191.0315464
0
LINE
8
0
10
280.5807657
20
-191.0315464
11
273.3702855
21
-179.2651122
0
LINE
8
0
10
273.3702855
20
-179.2651122
11
261.6038513
21
-186.4755924
0
LINE
8
0
10
261.6038513
20
-186.4755924
11
268.8143315
21
-198.2420266
0
LINE
8
0
10
256.5627703
20
-215.0002721
11
266.8983592
21
-205.8561154
0
LINE
8
0
10
266.8983592
20
-205.8561154
11
257.7542025
21
-195.5205265
0
LINE
8
0
10
257.7542025
20
-195.5205265
11
247.4186136
21
-204.6646832
0
LINE
8
0
10
247.4186136
20
-204.6646832
11
256.5627703
21
-215.0002721
0
ENDSEC
0
EOF