0
SECTION
2
HEADER
9
$INSUNITS
70
4
0
ENDSEC
0
SECTION
2
TABLES
0
TABLE
2
LTYPE
0
LTYPE
72
65
70
64
2
CONTINUOUS
3
______
73
0
40
0
0
ENDTAB
0
TABLE
2
LAYER
0
ENDTAB
0
ENDSEC
0
SECTION
2
ENTITIES
0
LINE
8
0
10
56.8409648
20
-139.4636322
11
74.2276296
21
-144.122375
0
LINE
8
0
10
74.2276296
20
-144.122375
11
78.8863724
21
-126.7357102
0
LINE
8
0
10
78.8863724
20
-126.7357102
11
61.4997076
21
-122.0769674
0
LINE
8
0
10
61.4997076
20
-122.0769674
11
56.8409648
21
-139.4636322
0
LINE
8
0
10
61.7585267
20
-121.1110415
11
79.1451915
21
-125.7697843
0
LINE
8
0
10
79.1451915
20
-125.7697843
11
83.8039343
21
-108.3831195
0
LINE
8
0
10
83.8039343
20
-108.3831195
11
66.4172695
21
-103.7243767
0
LINE
8
0
10
66.4172695
20
-103.7243767
11
61.7585267
21
-121.1110415
0
LINE
8
0
10
66.6760885
20
-102.7584508
11
84.0627533
21
-107.4171936
0
LINE
8
0
10
84.0627533
20
-107.4171936
11
88.7214961
21
-90.0305288
0
LINE
8
0
10
88.7214961
20
-90.0305288
11
71.3348313
21
-85.371786
0
LINE
8
0
10
71.3348313
20
-85.371786
11
66.6760885
21
-102.7584508
0
LINE
8
0
10
70.2759937
20
-162.7337848
11
87.6626585
21
-167.3925276
0
LINE
8
0
10
87.6626585
20
-167.3925276
11
92.3214013
21
-150.0058628
0
LINE
8
0
10
92.3214013
20
-150.0058628
11
74.9347365
21
-145.34712
0
LINE
8
0
10
74.9347365
20
-145.34712
11
70.2759937
21
-162.7337848
0
LINE
8
0
10
75.1935555
20
-144.3811941
11
92.5802203
21
-149.0399369
0
LINE
8
0
10
92.5802203
20
-149.0399369
11
97.2389631
21
-131.6532721
0
LINE
8
0
10
97.2389631
20
-131.6532721
11
79.8522983
21
-126.9945293
0
LINE
8
0
10
79.8522983
20
-126.9945293
11
75.1935555
21
-144.3811941
0
LINE
8
0
10
80.1111174
20
-126.0286034
11
97.4977822
21
-130.6873462
0
LINE
8
0
10
97.4977822
20
-130.6873462
11
102.156525
21
-113.3006814
0
LINE
8
0
10
102.156525
20
-113.3006814
11
84.7698602
21
-108.6419386
0
LINE
8
0
10
84.7698602
20
-108.6419386
11
80.1111174
21
-126.0286034
0
LINE
8
0
10
85.0286792
20
-107.6760127
11
102.415344
21
-112.3347555
0
LINE
8
0
10
102.415344
20
-112.3347555
11
107.0740868
21
-94.9480907
0
LINE
8
0
10
107.0740868
20
-94.9480907
11
89.687422
21
-90.2893479
0
LINE
8
0
10
89.687422
20
-90.2893479
11
85.0286792
21
-107.6760127
0
LINE
8
0
10
91.3461843
20
-157.5091255
11
108.7328491
21
-162.1678683
0
LINE
8
0
10
108.7328491
20
-162.1678683
11
113.3915919
21
-144.7812035
0
LINE
8
0
10
113.3915919
20
-144.7812035
11
96.0049271
21
-140.1224607
0
LINE
8
0
10
96.0049271
20
-140.1224607
11
91.3461843
21
-157.5091255
0
LINE
8
0
10
96.2637462
20
-139.1565348
11
113.650411
21
-143.8152776
0
LINE
8
0
10
113.650411
20
-143.8152776
11
118.3091538
21
-126.4286128
0
LINE
8
0
10
118.3091538
20
-126.4286128
11
100.922489
21
-121.76987
0
LINE
8
0
10
100.922489
20
-121.76987
11
96.2637462
21
-139.1565348
0
LINE
8
0
10
101.1813081
20
-120.8039441
11
118.5679729
21
-125.4626869
0
LINE
8
0
10
118.5679729
20
-125.4626869
11
123.2267157
21
-108.0760221
0
LINE
8
0
10
123.2267157
20
-108.0760221
11
105.8400509
21
-103.4172793
0
LINE
8
0
10
105.8400509
20
-103.4172793
11
101.1813081
21
-120.8039441
0
LINE
8
0
10
106.0988699
20
-102.4513534
11
123.4855347
21
-107.1100962
0
LINE
8
0
10
123.4855347
20
-107.1100962
11
128.1442775
21
-89.7234314
0
LINE
8
0
10
128.1442775
20
-89.7234314
11
110.7576127
21
-85.0646886
0
LINE
8
0
10
110.7576127
20
-85.0646886
11
106.0988699
21
-102.4513534
0
LINE
8
0
10
110.4752322
20
-159.5289098
11
127.861897
21
-164.1876526
0
LINE
8
0
10
127.861897
20
-164.1876526
11
132.5206398
21
-146.8009878
0
LINE
8
0
10
132.5206398
20
-146.8009878
11
115.133975
21
-142.142245
0
LINE
8
0
10
115.133975
20
-142.142245
11
110.4752322
21
-159.5289098
0
LINE
8
0
10
115.392794
20
-141.1763191
11
132.7794588
21
-145.8350619
0
LINE
8
0
10
132.7794588
20
-145.8350619
11
137.4382016
21
-128.4483971
0
LINE
8
0
10
137.4382016
20
-128.4483971
11
120.0515368
21
-123.7896543
0
LINE
8
0
10
120.0515368
20
-123.7896543
11
115.392794
21
-141.1763191
0
LINE
8
0
10
120.3103559
20
-122.8237284
11
137.6970207
21
-127.4824712
0
LINE
8
0
10
137.6970207
20
-127.4824712
11
142.3557635
21
-110.0958064
0
LINE
8
0
10
142.3557635
20
-110.0958064
11
124.9690987
21
-105.4370636
0
LINE
8
0
10
124.9690987
20
-105.4370636
11
120.3103559
21
-122.8237284
0
LINE
8
0
10
125.2279177
20
-104.4711377
11
142.6145825
21
-109.1298805
0
LINE
8
0
10
142.6145825
20
-109.1298805
11
147.2733253
21
-91.7432157
0
LINE
8
0
10
147.2733253
20
-91.7432157
11
129.8866605
21
-87.0844729
0
LINE
8
0
10
129.8866605
20
-87.0844729
11
125.2279177
21
-104.4711377
0
LINE
8
0
10
127.5337276
20
-169.2761008
11
144.9203924
21
-173.9348436
0
LINE
8
0
10
144.9203924
20
-173.9348436
11
149.5791352
21
-156.5481788
0
LINE
8
0
10
149.5791352
20
-156.5481788
11
132.1924704
21
-151.889436
0
LINE
8
0
10
132.1924704
20
-151.889436
11
127.5337276
21
-169.2761008
0
LINE
8
0
10
132.4512895
20
-150.9235101
11
149.8379543
21
-155.5822529
0
LINE
8
0
10
149.8379543
20
-155.5822529
11
154.4966971
21
-138.1955881
0
LINE
8
0
10
154.4966971
20
-138.1955881
11
137.1100323
21
-133.5368453
0
LINE
8
0
10
137.1100323
20
-133.5368453
11
132.4512895
21
-150.9235101
0
LINE
8
0
10
137.3688514
20
-132.5709194
11
154.7555162
21
-137.2296622
0
LINE
8
0
10
154.7555162
20
-137.2296622
11
159.414259
21
-119.8429974
0
LINE
8
0
10
159.414259
20
-119.8429974
11
142.0275942
21
-115.1842546
0
LINE
8
0
10
142.0275942
20
-115.1842546
11
137.3688514
21
-132.5709194
0
LINE
8
0
10
142.2864132
20
-114.2183287
11
159.673078
21
-118.8770715
0
LINE
8
0
10
159.673078
20
-118.8770715
11
164.3318208
21
-101.4904067
0
LINE
8
0
10
164.3318208
20
-101.4904067
11
146.945156
21
-96.8316639
0
LINE
8
0
10
146.945156
20
-96.8316639
11
142.2864132
21
-114.2183287
0
LINE
8
0
10
145.4980898
20
-175.6425514
11
162.8847546
21
-180.3012942
0
LINE
8
0
10
162.8847546
20
-180.3012942
11
167.5434974
21
-162.9146294
0
LINE
8
0
10
167.5434974
20
-162.9146294
11
150.1568326
21
-158.2558866
0
LINE
8
0
10
150.1568326
20
-158.2558866
11
145.4980898
21
-175.6425514
0
LINE
8
0
10
150.4156516
20
-157.2899607
11
167.8023164
21
-161.9487035
0
LINE
8
0
10
167.8023164
20
-161.9487035
11
172.4610592
21
-144.5620387
0
LINE
8
0
10
172.4610592
20
-144.5620387
11
155.0743944
21
-139.9032959
0
LINE
8
0
10
155.0743944
20
-139.9032959
11
150.4156516
21
-157.2899607
0
LINE
8
0
10
155.3332135
20
-138.93737
11
172.7198783
21
-143.5961128
0
LINE
8
0
10
172.7198783
20
-143.5961128
11
177.3786211
21
-126.209448
0
LINE
8
0
10
177.3786211
20
-126.209448
11
159.9919563
21
-121.5507052
0
LINE
8
0
10
159.9919563
20
-121.5507052
11
155.3332135
21
-138.93737
0
LINE
8
0
10
160.2507753
20
-120.5847793
11
177.6374401
21
-125.2435221
0
LINE
8
0
10
177.6374401
20
-125.2435221
11
182.2961829
21
-107.8568573
0
LINE
8
0
10
182.2961829
20
-107.8568573
11
164.9095181
21
-103.1981145
0
LINE
8
0
10
164.9095181
20
-103.1981145
11
160.2507753
21
-120.5847793
0
LINE
8
0
10
122.2279372
20
-189.0775803
11
139.614602
21
-193.7363231
0
LINE
8
0
10
139.614602
20
-193.7363231
11
144.2733448
21
-176.3496583
0
LINE
8
0
10
144.2733448
20
-176.3496583
11
126.88668
21
-171.6909155
0
LINE
8
0
10
126.88668
20
-171.6909155
11
122.2279372
21
-189.0775803
0
LINE
8
0
10
140.5805279
20
-193.9951421
11
157.9671927
21
-198.6538849
0
LINE
8
0
10
157.9671927
20
-198.6538849
11
162.6259355
21
-181.2672201
0
LINE
8
0
10
162.6259355
20
-181.2672201
11
145.2392707
21
-176.6084773
0
LINE
8
0
10
145.2392707
20
-176.6084773
11
140.5805279
21
-193.9951421
0
LINE
8
0
10
159.0225822
20
-199.3524321
11
170.1044888
21
-213.5366257
0
LINE
8
0
10
170.1044888
20
-213.5366257
11
184.2886824
21
-202.4547191
0
LINE
8
0
10
184.2886824
20
-202.4547191
11
173.2067758
21
-188.2705255
0
LINE
8
0
10
173.2067758
20
-188.2705255
11
159.0225822
21
-199.3524321
0
LINE
8
0
10
340.720357
20
-144.122375
11
358.1070218
21
-139.4636322
0
LINE
8
0
10
358.1070218
20
-139.4636322
11
353.448279
21
-122.0769674
0
LINE
8
0
10
353.448279
20
-122.0769674
11
336.0616142
21
-126.7357102
0
LINE
8
0
10
336.0616142
20
-126.7357102
11
340.720357
21
-144.122375
0
LINE
8
0
10
335.8027951
20
-125.7697843
11
353.1894599
21
-121.1110415
0
LINE
8
0
10
353.1894599
20
-121.1110415
11
348.5307171
21
-103.7243767
0
LINE
8
0
10
348.5307171
20
-103.7243767
11
331.1440523
21
-108.3831195
0
LINE
8
0
10
331.1440523
20
-108.3831195
11
335.8027951
21
-125.7697843
0
LINE
8
0
10
330.8852333
20
-107.4171936
11
348.2718981
21
-102.7584508
0
LINE
8
0
10
348.2718981
20
-102.7584508
11
343.6131553
21
-85.371786
0
LINE
8
0
10
343.6131553
20
-85.371786
11
326.2264905
21
-90.0305288
0
LINE
8
0
10
326.2264905
20
-90.0305288
11
330.8852333
21
-107.4171936
0
LINE
8
0
10
327.2853281
20
-167.3925276
11
344.6719929
21
-162.7337848
0
LINE
8
0
10
344.6719929
20
-162.7337848
11
340.0132501
21
-145.34712
0
LINE
8
0
10
340.0132501
20
-145.34712
11
322.6265853
21
-150.0058628
0
LINE
8
0
10
322.6265853
20
-150.0058628
11
327.2853281
21
-167.3925276
0
LINE
8
0
10
322.3677663
20
-149.0399369
11
339.7544311
21
-144.3811941
0
LINE
8
0
10
339.7544311
20
-144.3811941
11
335.0956883
21
-126.9945293
0
LINE
8
0
10
335.0956883
20
-126.9945293
11
317.7090235
21
-131.6532721
0
LINE
8
0
10
317.7090235
20
-131.6532721
11
322.3677663
21
-149.0399369
0
LINE
8
0
10
317.4502044
20
-130.6873462
11
334.8368692
21
-126.0286034
0
LINE
8
0
10
334.8368692
20
-126.0286034
11
330.1781264
21
-108.6419386
0
LINE
8
0
10
330.1781264
20
-108.6419386
11
312.7914616
21
-113.3006814
0
LINE
8
0
10
312.7914616
20
-113.3006814
11
317.4502044
21
-130.6873462
0
LINE
8
0
10
312.5326426
20
-112.3347555
11
329.9193074
21
-107.6760127
0
LINE
8
0
10
329.9193074
20
-107.6760127
11
325.2605646
21
-90.2893479
0
LINE
8
0
10
325.2605646
20
-90.2893479
11
307.8738998
21
-94.9480907
0
LINE
8
0
10
307.8738998
20
-94.9480907
11
312.5326426
21
-112.3347555
0
LINE
8
0
10
306.2151375
20
-162.1678683
11
323.6018023
21
-157.5091255
0
LINE
8
0
10
323.6018023
20
-157.5091255
11
318.9430595
21
-140.1224607
0
LINE
8
0
10
318.9430595
20
-140.1224607
11
301.5563947
21
-144.7812035
0
LINE
8
0
10
301.5563947
20
-144.7812035
11
306.2151375
21
-162.1678683
0
LINE
8
0
10
301.2975756
20
-143.8152776
11
318.6842404
21
-139.1565348
0
LINE
8
0
10
318.6842404
20
-139.1565348
11
314.0254976
21
-121.76987
0
LINE
8
0
10
314.0254976
20
-121.76987
11
296.6388328
21
-126.4286128
0
LINE
8
0
10
296.6388328
20
-126.4286128
11
301.2975756
21
-143.8152776
0
LINE
8
0
10
296.3800137
20
-125.4626869
11
313.7666785
21
-120.8039441
0
LINE
8
0
10
313.7666785
20
-120.8039441
11
309.1079357
21
-103.4172793
0
LINE
8
0
10
309.1079357
20
-103.4172793
11
291.7212709
21
-108.0760221
0
LINE
8
0
10
291.7212709
20
-108.0760221
11
296.3800137
21
-125.4626869
0
LINE
8
0
10
291.4624519
20
-107.1100962
11
308.8491167
21
-102.4513534
0
LINE
8
0
10
308.8491167
20
-102.4513534
11
304.1903739
21
-85.0646886
0
LINE
8
0
10
304.1903739
20
-85.0646886
11
286.8037091
21
-89.7234314
0
LINE
8
0
10
286.8037091
20
-89.7234314
11
291.4624519
21
-107.1100962
0
LINE
8
0
10
287.0860896
20
-164.1876526
11
304.4727544
21
-159.5289098
0
LINE
8
0
10
304.4727544
20
-159.5289098
11
299.8140116
21
-142.142245
0
LINE
8
0
10
299.8140116
20
-142.142245
11
282.4273468
21
-146.8009878
0
LINE
8
0
10
282.4273468
20
-146.8009878
11
287.0860896
21
-164.1876526
0
LINE
8
0
10
282.1685278
20
-145.8350619
11
299.5551926
21
-141.1763191
0
LINE
8
0
10
299.5551926
20
-141.1763191
11
294.8964498
21
-123.7896543
0
LINE
8
0
10
294.8964498
20
-123.7896543
11
277.509785
21
-128.4483971
0
LINE
8
0
10
277.509785
20
-128.4483971
11
282.1685278
21
-145.8350619
0
LINE
8
0
10
277.2509659
20
-127.4824712
11
294.6376307
21
-122.8237284
0
LINE
8
0
10
294.6376307
20
-122.8237284
11
289.9788879
21
-105.4370636
0
LINE
8
0
10
289.9788879
20
-105.4370636
11
272.5922231
21
-110.0958064
0
LINE
8
0
10
272.5922231
20
-110.0958064
11
277.2509659
21
-127.4824712
0
LINE
8
0
10
272.3334041
20
-109.1298805
11
289.7200689
21
-104.4711377
0
LINE
8
0
10
289.7200689
20
-104.4711377
11
285.0613261
21
-87.0844729
0
LINE
8
0
10
285.0613261
20
-87.0844729
11
267.6746613
21
-91.7432157
0
LINE
8
0
10
267.6746613
20
-91.7432157
11
272.3334041
21
-109.1298805
0
LINE
8
0
10
270.0275942
20
-173.9348436
11
287.414259
21
-169.2761008
0
LINE
8
0
10
287.414259
20
-169.2761008
11
282.7555162
21
-151.889436
0
LINE
8
0
10
282.7555162
20
-151.889436
11
265.3688514
21
-156.5481788
0
LINE
8
0
10
265.3688514
20
-156.5481788
11
270.0275942
21
-173.9348436
0
LINE
8
0
10
265.1100323
20
-155.5822529
11
282.4966971
21
-150.9235101
0
LINE
8
0
10
282.4966971
20
-150.9235101
11
277.8379543
21
-133.5368453
0
LINE
8
0
10
277.8379543
20
-133.5368453
11
260.4512895
21
-138.1955881
0
LINE
8
0
10
260.4512895
20
-138.1955881
11
265.1100323
21
-155.5822529
0
LINE
8
0
10
260.1924704
20
-137.2296622
11
277.5791352
21
-132.5709194
0
LINE
8
0
10
277.5791352
20
-132.5709194
11
272.9203924
21
-115.1842546
0
LINE
8
0
10
272.9203924
20
-115.1842546
11
255.5337276
21
-119.8429974
0
LINE
8
0
10
255.5337276
20
-119.8429974
11
260.1924704
21
-137.2296622
0
LINE
8
0
10
255.2749086
20
-118.8770715
11
272.6615734
21
-114.2183287
0
LINE
8
0
10
272.6615734
20
-114.2183287
11
268.0028306
21
-96.8316639
0
LINE
8
0
10
268.0028306
20
-96.8316639
11
250.6161658
21
-101.4904067
0
LINE
8
0
10
250.6161658
20
-101.4904067
11
255.2749086
21
-118.8770715
0
LINE
8
0
10
252.063232
20
-180.3012942
11
269.4498968
21
-175.6425514
0
LINE
8
0
10
269.4498968
20
-175.6425514
11
264.791154
21
-158.2558866
0
LINE
8
0
10
264.791154
20
-158.2558866
11
247.4044892
21
-162.9146294
0
LINE
8
0
10
247.4044892
20
-162.9146294
11
252.063232
21
-180.3012942
0
LINE
8
0
10
247.1456702
20
-161.9487035
11
264.532335
21
-157.2899607
0
LINE
8
0
10
264.532335
20
-157.2899607
11
259.8735922
21
-139.9032959
0
LINE
8
0
10
259.8735922
20
-139.9032959
11
242.4869274
21
-144.5620387
0
LINE
8
0
10
242.4869274
20
-144.5620387
11
247.1456702
21
-161.9487035
0
LINE
8
0
10
242.2281083
20
-143.5961128
11
259.6147731
21
-138.93737
0
LINE
8
0
10
259.6147731
20
-138.93737
11
254.9560303
21
-121.5507052
0
LINE
8
0
10
254.9560303
20
-121.5507052
11
237.5693655
21
-126.209448
0
LINE
8
0
10
237.5693655
20
-126.209448
11
242.2281083
21
-143.5961128
0
LINE
8
0
10
237.3105465
20
-125.2435221
11
254.6972113
21
-120.5847793
0
LINE
8
0
10
254.6972113
20
-120.5847793
11
250.0384685
21
-103.1981145
0
LINE
8
0
10
250.0384685
20
-103.1981145
11
232.6518037
21
-107.8568573
0
LINE
8
0
10
232.6518037
20
-107.8568573
11
237.3105465
21
-125.2435221
0
LINE
8
0
10
275.3333846
20
-193.7363231
11
292.7200494
21
-189.0775803
0
LINE
8
0
10
292.7200494
20
-189.0775803
11
288.0613066
21
-171.6909155
0
LINE
8
0
10
288.0613066
20
-171.6909155
11
270.6746418
21
-176.3496583
0
LINE
8
0
10
270.6746418
20
-176.3496583
11
275.3333846
21
-193.7363231
0
LINE
8
0
10
256.9807939
20
-198.6538849
11
274.3674587
21
-193.9951421
0
LINE
8
0
10
274.3674587
20
-193.9951421
11
269.7087159
21
-176.6084773
0
LINE
8
0
10
269.7087159
20
-176.6084773
11
252.3220511
21
-181.2672201
0
LINE
8
0
10
252.3220511
20
-181.2672201
11
256.9807939
21
-198.6538849
0
LINE
8
0
10
244.8434978
20
-213.5366257
11
255.9254044
21
-199.3524321
0
LINE
8
0
10
255.9254044
20
-199.3524321
11
241.7412108
21
-188.2705255
0
LINE
8
0
10
241.7412108
20
-188.2705255
11
230.6593042
21
-202.4547191
0
LINE
8
0
10
230.6593042
20
-202.4547191
11
244.8434978
21
-213.5366257
0
ENDSEC
0
EOF