0
SECTION
2
HEADER
9
$INSUNITS
70
4
0
ENDSEC
0
SECTION
2
TABLES
0
TABLE
2
LTYPE
0
LTYPE
72
65
70
64
2
CONTINUOUS
3
______
73
0
40
0
0
ENDTAB
0
TABLE
2
LAYER
0
ENDTAB
0
ENDSEC
0
SECTION
2
ENTITIES
0
LINE
8
0
10
59.2662836
20
-138.4503797
11
76.7316067
21
-142.8049738
0
LINE
8
0
10
76.7316067
20
-142.8049738
11
81.0862008
21
-125.3396507
0
LINE
8
0
10
81.0862008
20
-125.3396507
11
63.6208777
21
-120.9850566
0
LINE
8
0
10
63.6208777
20
-120.9850566
11
59.2662836
21
-138.4503797
0
LINE
8
0
10
63.8627996
20
-120.0147609
11
81.3281227
21
-124.369355
0
LINE
8
0
10
81.3281227
20
-124.369355
11
85.6827168
21
-106.9040319
0
LINE
8
0
10
85.6827168
20
-106.9040319
11
68.2173937
21
-102.5494378
0
LINE
8
0
10
68.2173937
20
-102.5494378
11
63.8627996
21
-120.0147609
0
LINE
8
0
10
73.5892302
20
-159.541923
11
91.0545533
21
-163.8965171
0
LINE
8
0
10
91.0545533
20
-163.8965171
11
95.4091474
21
-146.431194
0
LINE
8
0
10
95.4091474
20
-146.431194
11
77.9438243
21
-142.0765999
0
LINE
8
0
10
77.9438243
20
-142.0765999
11
73.5892302
21
-159.541923
0
LINE
8
0
10
78.1857462
20
-141.1063042
11
95.6510693
21
-145.4608983
0
LINE
8
0
10
95.6510693
20
-145.4608983
11
100.0056634
21
-127.9955752
0
LINE
8
0
10
100.0056634
20
-127.9955752
11
82.5403403
21
-123.6409811
0
LINE
8
0
10
82.5403403
20
-123.6409811
11
78.1857462
21
-141.1063042
0
LINE
8
0
10
82.7822622
20
-122.6706854
11
100.2475853
21
-127.0252795
0
LINE
8
0
10
100.2475853
20
-127.0252795
11
104.6021794
21
-109.5599564
0
LINE
8
0
10
104.6021794
20
-109.5599564
11
87.1368563
21
-105.2053623
0
LINE
8
0
10
87.1368563
20
-105.2053623
11
82.7822622
21
-122.6706854
0
LINE
8
0
10
94.5650289
20
-153.9503339
11
112.030352
21
-158.304928
0
LINE
8
0
10
112.030352
20
-158.304928
11
116.3849461
21
-140.8396049
0
LINE
8
0
10
116.3849461
20
-140.8396049
11
98.919623
21
-136.4850108
0
LINE
8
0
10
98.919623
20
-136.4850108
11
94.5650289
21
-153.9503339
0
LINE
8
0
10
99.1615449
20
-135.5147151
11
116.626868
21
-139.8693092
0
LINE
8
0
10
116.626868
20
-139.8693092
11
120.9814621
21
-122.4039861
0
LINE
8
0
10
120.9814621
20
-122.4039861
11
103.516139
21
-118.049392
0
LINE
8
0
10
103.516139
20
-118.049392
11
99.1615449
21
-135.5147151
0
LINE
8
0
10
103.7580609
20
-117.0790963
11
121.223384
21
-121.4336904
0
LINE
8
0
10
121.223384
20
-121.4336904
11
125.5779781
21
-103.9683673
0
LINE
8
0
10
125.5779781
20
-103.9683673
11
108.112655
21
-99.6137732
0
LINE
8
0
10
108.112655
20
-99.6137732
11
103.7580609
21
-117.0790963
0
LINE
8
0
10
113.7264134
20
-155.6359628
11
131.1917365
21
-159.9905569
0
LINE
8
0
10
131.1917365
20
-159.9905569
11
135.5463306
21
-142.5252338
0
LINE
8
0
10
135.5463306
20
-142.5252338
11
118.0810075
21
-138.1706397
0
LINE
8
0
10
118.0810075
20
-138.1706397
11
113.7264134
21
-155.6359628
0
LINE
8
0
10
118.3229294
20
-137.200344
11
135.7882525
21
-141.5549381
0
LINE
8
0
10
135.7882525
20
-141.5549381
11
140.1428466
21
-124.089615
0
LINE
8
0
10
140.1428466
20
-124.089615
11
122.6775235
21
-119.7350209
0
LINE
8
0
10
122.6775235
20
-119.7350209
11
118.3229294
21
-137.200344
0
LINE
8
0
10
122.9194454
20
-118.7647252
11
140.3847685
21
-123.1193193
0
LINE
8
0
10
140.3847685
20
-123.1193193
11
144.7393626
21
-105.6539962
0
LINE
8
0
10
144.7393626
20
-105.6539962
11
127.2740395
21
-101.2994021
0
LINE
8
0
10
127.2740395
20
-101.2994021
11
122.9194454
21
-118.7647252
0
LINE
8
0
10
130.9524227
20
-165.0839574
11
148.4177458
21
-169.4385515
0
LINE
8
0
10
148.4177458
20
-169.4385515
11
152.7723399
21
-151.9732284
0
LINE
8
0
10
152.7723399
20
-151.9732284
11
135.3070168
21
-147.6186343
0
LINE
8
0
10
135.3070168
20
-147.6186343
11
130.9524227
21
-165.0839574
0
LINE
8
0
10
135.5489387
20
-146.6483386
11
153.0142618
21
-151.0029327
0
LINE
8
0
10
153.0142618
20
-151.0029327
11
157.3688559
21
-133.5376096
0
LINE
8
0
10
157.3688559
20
-133.5376096
11
139.9035328
21
-129.1830155
0
LINE
8
0
10
139.9035328
20
-129.1830155
11
135.5489387
21
-146.6483386
0
LINE
8
0
10
140.1454547
20
-128.2127198
11
157.6107778
21
-132.5673139
0
LINE
8
0
10
157.6107778
20
-132.5673139
11
161.9653719
21
-115.1019908
0
LINE
8
0
10
161.9653719
20
-115.1019908
11
144.5000488
21
-110.7473967
0
LINE
8
0
10
144.5000488
20
-110.7473967
11
140.1454547
21
-128.2127198
0
LINE
8
0
10
148.5413149
20
-173.0765085
11
166.006638
21
-177.4311026
0
LINE
8
0
10
166.006638
20
-177.4311026
11
170.3612321
21
-159.9657795
0
LINE
8
0
10
170.3612321
20
-159.9657795
11
152.895909
21
-155.6111854
0
LINE
8
0
10
152.895909
20
-155.6111854
11
148.5413149
21
-173.0765085
0
LINE
8
0
10
153.1378309
20
-154.6408897
11
170.603154
21
-158.9954838
0
LINE
8
0
10
170.603154
20
-158.9954838
11
174.9577481
21
-141.5301607
0
LINE
8
0
10
174.9577481
20
-141.5301607
11
157.492425
21
-137.1755666
0
LINE
8
0
10
157.492425
20
-137.1755666
11
153.1378309
21
-154.6408897
0
LINE
8
0
10
157.7343469
20
-136.2052709
11
175.19967
21
-140.559865
0
LINE
8
0
10
175.19967
20
-140.559865
11
179.5542641
21
-123.0945419
0
LINE
8
0
10
179.5542641
20
-123.0945419
11
162.088941
21
-118.7399478
0
LINE
8
0
10
162.088941
20
-118.7399478
11
157.7343469
21
-136.2052709
0
LINE
8
0
10
125.50918
20
-186.9156113
11
142.9745031
21
-191.2702054
0
LINE
8
0
10
142.9745031
20
-191.2702054
11
147.3290972
21
-173.8048823
0
LINE
8
0
10
147.3290972
20
-173.8048823
11
129.8637741
21
-169.4502882
0
LINE
8
0
10
129.8637741
20
-169.4502882
11
125.50918
21
-186.9156113
0
LINE
8
0
10
144.0232739
20
-191.6992688
11
159.5325988
21
-200.8349593
0
LINE
8
0
10
159.5325988
20
-200.8349593
11
168.6682893
21
-185.3256344
0
LINE
8
0
10
168.6682893
20
-185.3256344
11
153.1589644
21
-176.1899439
0
LINE
8
0
10
153.1589644
20
-176.1899439
11
144.0232739
21
-191.6992688
0
LINE
8
0
10
160.4163201
20
-201.5442206
11
172.6922906
21
-214.7085873
0
LINE
8
0
10
172.6922906
20
-214.7085873
11
185.8566573
21
-202.4326168
0
LINE
8
0
10
185.8566573
20
-202.4326168
11
173.5806868
21
-189.2682501
0
LINE
8
0
10
173.5806868
20
-189.2682501
11
160.4163201
21
-201.5442206
0
LINE
8
0
10
344.1861879
20
-142.8049738
11
361.651511
21
-138.4503797
0
LINE
8
0
10
361.651511
20
-138.4503797
11
357.2969169
21
-120.9850566
0
LINE
8
0
10
357.2969169
20
-120.9850566
11
339.8315938
21
-125.3396507
0
LINE
8
0
10
339.8315938
20
-125.3396507
11
344.1861879
21
-142.8049738
0
LINE
8
0
10
339.5896719
20
-124.369355
11
357.054995
21
-120.0147609
0
LINE
8
0
10
357.054995
20
-120.0147609
11
352.7004009
21
-102.5494378
0
LINE
8
0
10
352.7004009
20
-102.5494378
11
335.2350778
21
-106.9040319
0
LINE
8
0
10
335.2350778
20
-106.9040319
11
339.5896719
21
-124.369355
0
LINE
8
0
10
329.8632413
20
-163.8965171
11
347.3285644
21
-159.541923
0
LINE
8
0
10
347.3285644
20
-159.541923
11
342.9739703
21
-142.0765999
0
LINE
8
0
10
342.9739703
20
-142.0765999
11
325.5086472
21
-146.431194
0
LINE
8
0
10
325.5086472
20
-146.431194
11
329.8632413
21
-163.8965171
0
LINE
8
0
10
325.2667253
20
-145.4608983
11
342.7320484
21
-141.1063042
0
LINE
8
0
10
342.7320484
20
-141.1063042
11
338.3774543
21
-123.6409811
0
LINE
8
0
10
338.3774543
20
-123.6409811
11
320.9121312
21
-127.9955752
0
LINE
8
0
10
320.9121312
20
-127.9955752
11
325.2667253
21
-145.4608983
0
LINE
8
0
10
320.6702093
20
-127.0252795
11
338.1355324
21
-122.6706854
0
LINE
8
0
10
338.1355324
20
-122.6706854
11
333.7809383
21
-105.2053623
0
LINE
8
0
10
333.7809383
20
-105.2053623
11
316.3156152
21
-109.5599564
0
LINE
8
0
10
316.3156152
20
-109.5599564
11
320.6702093
21
-127.0252795
0
LINE
8
0
10
308.8874426
20
-158.304928
11
326.3527657
21
-153.9503339
0
LINE
8
0
10
326.3527657
20
-153.9503339
11
321.9981716
21
-136.4850108
0
LINE
8
0
10
321.9981716
20
-136.4850108
11
304.5328485
21
-140.8396049
0
LINE
8
0
10
304.5328485
20
-140.8396049
11
308.8874426
21
-158.304928
0
LINE
8
0
10
304.2909266
20
-139.8693092
11
321.7562497
21
-135.5147151
0
LINE
8
0
10
321.7562497
20
-135.5147151
11
317.4016556
21
-118.049392
0
LINE
8
0
10
317.4016556
20
-118.049392
11
299.9363325
21
-122.4039861
0
LINE
8
0
10
299.9363325
20
-122.4039861
11
304.2909266
21
-139.8693092
0
LINE
8
0
10
299.6944106
20
-121.4336904
11
317.1597337
21
-117.0790963
0
LINE
8
0
10
317.1597337
20
-117.0790963
11
312.8051396
21
-99.6137732
0
LINE
8
0
10
312.8051396
20
-99.6137732
11
295.3398165
21
-103.9683673
0
LINE
8
0
10
295.3398165
20
-103.9683673
11
299.6944106
21
-121.4336904
0
LINE
8
0
10
289.7260581
20
-159.9905569
11
307.1913812
21
-155.6359628
0
LINE
8
0
10
307.1913812
20
-155.6359628
11
302.8367871
21
-138.1706397
0
LINE
8
0
10
302.8367871
20
-138.1706397
11
285.371464
21
-142.5252338
0
LINE
8
0
10
285.371464
20
-142.5252338
11
289.7260581
21
-159.9905569
0
LINE
8
0
10
285.1295421
20
-141.5549381
11
302.5948652
21
-137.200344
0
LINE
8
0
10
302.5948652
20
-137.200344
11
298.2402711
21
-119.7350209
0
LINE
8
0
10
298.2402711
20
-119.7350209
11
280.774948
21
-124.089615
0
LINE
8
0
10
280.774948
20
-124.089615
11
285.1295421
21
-141.5549381
0
LINE
8
0
10
280.5330261
20
-123.1193193
11
297.9983492
21
-118.7647252
0
LINE
8
0
10
297.9983492
20
-118.7647252
11
293.6437551
21
-101.2994021
0
LINE
8
0
10
293.6437551
20
-101.2994021
11
276.178432
21
-105.6539962
0
LINE
8
0
10
276.178432
20
-105.6539962
11
280.5330261
21
-123.1193193
0
LINE
8
0
10
272.5000488
20
-169.4385515
11
289.9653719
21
-165.0839574
0
LINE
8
0
10
289.9653719
20
-165.0839574
11
285.6107778
21
-147.6186343
0
LINE
8
0
10
285.6107778
20
-147.6186343
11
268.1454547
21
-151.9732284
0
LINE
8
0
10
268.1454547
20
-151.9732284
11
272.5000488
21
-169.4385515
0
LINE
8
0
10
267.9035328
20
-151.0029327
11
285.3688559
21
-146.6483386
0
LINE
8
0
10
285.3688559
20
-146.6483386
11
281.0142618
21
-129.1830155
0
LINE
8
0
10
281.0142618
20
-129.1830155
11
263.5489387
21
-133.5376096
0
LINE
8
0
10
263.5489387
20
-133.5376096
11
267.9035328
21
-151.0029327
0
LINE
8
0
10
263.3070168
20
-132.5673139
11
280.7723399
21
-128.2127198
0
LINE
8
0
10
280.7723399
20
-128.2127198
11
276.4177458
21
-110.7473967
0
LINE
8
0
10
276.4177458
20
-110.7473967
11
258.9524227
21
-115.1019908
0
LINE
8
0
10
258.9524227
20
-115.1019908
11
263.3070168
21
-132.5673139
0
LINE
8
0
10
254.9111566
20
-177.4311026
11
272.3764797
21
-173.0765085
0
LINE
8
0
10
272.3764797
20
-173.0765085
11
268.0218856
21
-155.6111854
0
LINE
8
0
10
268.0218856
20
-155.6111854
11
250.5565625
21
-159.9657795
0
LINE
8
0
10
250.5565625
20
-159.9657795
11
254.9111566
21
-177.4311026
0
LINE
8
0
10
250.3146406
20
-158.9954838
11
267.7799637
21
-154.6408897
0
LINE
8
0
10
267.7799637
20
-154.6408897
11
263.4253696
21
-137.1755666
0
LINE
8
0
10
263.4253696
20
-137.1755666
11
245.9600465
21
-141.5301607
0
LINE
8
0
10
245.9600465
20
-141.5301607
11
250.3146406
21
-158.9954838
0
LINE
8
0
10
245.7181246
20
-140.559865
11
263.1834477
21
-136.2052709
0
LINE
8
0
10
263.1834477
20
-136.2052709
11
258.8288536
21
-118.7399478
0
LINE
8
0
10
258.8288536
20
-118.7399478
11
241.3635305
21
-123.0945419
0
LINE
8
0
10
241.3635305
20
-123.0945419
11
245.7181246
21
-140.559865
0
LINE
8
0
10
277.9432915
20
-191.2702054
11
295.4086146
21
-186.9156113
0
LINE
8
0
10
295.4086146
20
-186.9156113
11
291.0540205
21
-169.4502882
0
LINE
8
0
10
291.0540205
20
-169.4502882
11
273.5886974
21
-173.8048823
0
LINE
8
0
10
273.5886974
20
-173.8048823
11
277.9432915
21
-191.2702054
0
LINE
8
0
10
261.3851958
20
-200.8349593
11
276.8945207
21
-191.6992688
0
LINE
8
0
10
276.8945207
20
-191.6992688
11
267.7588302
21
-176.1899439
0
LINE
8
0
10
267.7588302
20
-176.1899439
11
252.2495053
21
-185.3256344
0
LINE
8
0
10
252.2495053
20
-185.3256344
11
261.3851958
21
-200.8349593
0
LINE
8
0
10
248.225504
20
-214.7085873
11
260.5014745
21
-201.5442206
0
LINE
8
0
10
260.5014745
20
-201.5442206
11
247.3371078
21
-189.2682501
0
LINE
8
0
10
247.3371078
20
-189.2682501
11
235.0611373
21
-202.4326168
0
LINE
8
0
10
235.0611373
20
-202.4326168
11
248.225504
21
-214.7085873
0
ENDSEC
0
EOF