0
SECTION
2
HEADER
9
$INSUNITS
70
4
0
ENDSEC
0
SECTION
2
TABLES
0
TABLE
2
LTYPE
0
LTYPE
72
65
70
64
2
CONTINUOUS
3
______
73
0
40
0
0
ENDTAB
0
TABLE
2
LAYER
0
ENDTAB
0
ENDSEC
0
SECTION
2
ENTITIES
0
LINE
8
0
10
59.2662836
20
-138.4503797
11
76.7316067
21
-142.8049738
0
LINE
8
0
10
76.7316067
20
-142.8049738
11
81.0862008
21
-125.3396507
0
LINE
8
0
10
81.0862008
20
-125.3396507
11
63.6208777
21
-120.9850566
0
LINE
8
0
10
63.6208777
20
-120.9850566
11
59.2662836
21
-138.4503797
0
LINE
8
0
10
63.8627996
20
-120.0147609
11
81.3281227
21
-124.369355
0
LINE
8
0
10
81.3281227
20
-124.369355
11
85.6827168
21
-106.9040319
0
LINE
8
0
10
85.6827168
20
-106.9040319
11
68.2173937
21
-102.5494378
0
LINE
8
0
10
68.2173937
20
-102.5494378
11
63.8627996
21
-120.0147609
0
LINE
8
0
10
73.1053864
20
-161.4825145
11
90.5707095
21
-165.8371086
0
LINE
8
0
10
90.5707095
20
-165.8371086
11
94.9253036
21
-148.3717855
0
LINE
8
0
10
94.9253036
20
-148.3717855
11
77.4599805
21
-144.0171914
0
LINE
8
0
10
77.4599805
20
-144.0171914
11
73.1053864
21
-161.4825145
0
LINE
8
0
10
77.7019024
20
-143.0468957
11
95.1672255
21
-147.4014898
0
LINE
8
0
10
95.1672255
20
-147.4014898
11
99.5218196
21
-129.9361667
0
LINE
8
0
10
99.5218196
20
-129.9361667
11
82.0564965
21
-125.5815726
0
LINE
8
0
10
82.0564965
20
-125.5815726
11
77.7019024
21
-143.0468957
0
LINE
8
0
10
82.2984184
20
-124.6112769
11
99.7637415
21
-128.965871
0
LINE
8
0
10
99.7637415
20
-128.965871
11
104.1183356
21
-111.5005479
0
LINE
8
0
10
104.1183356
20
-111.5005479
11
86.6530125
21
-107.1459538
0
LINE
8
0
10
86.6530125
20
-107.1459538
11
82.2984184
21
-124.6112769
0
LINE
8
0
10
94.0811851
20
-155.8909254
11
111.5465082
21
-160.2455195
0
LINE
8
0
10
111.5465082
20
-160.2455195
11
115.9011023
21
-142.7801964
0
LINE
8
0
10
115.9011023
20
-142.7801964
11
98.4357792
21
-138.4256023
0
LINE
8
0
10
98.4357792
20
-138.4256023
11
94.0811851
21
-155.8909254
0
LINE
8
0
10
98.6777011
20
-137.4553066
11
116.1430242
21
-141.8099007
0
LINE
8
0
10
116.1430242
20
-141.8099007
11
120.4976183
21
-124.3445776
0
LINE
8
0
10
120.4976183
20
-124.3445776
11
103.0322952
21
-119.9899835
0
LINE
8
0
10
103.0322952
20
-119.9899835
11
98.6777011
21
-137.4553066
0
LINE
8
0
10
103.2742171
20
-119.0196878
11
120.7395402
21
-123.3742819
0
LINE
8
0
10
120.7395402
20
-123.3742819
11
125.0941343
21
-105.9089588
0
LINE
8
0
10
125.0941343
20
-105.9089588
11
107.6288112
21
-101.5543647
0
LINE
8
0
10
107.6288112
20
-101.5543647
11
103.2742171
21
-119.0196878
0
LINE
8
0
10
113.2425696
20
-157.5765542
11
130.7078927
21
-161.9311483
0
LINE
8
0
10
130.7078927
20
-161.9311483
11
135.0624868
21
-144.4658252
0
LINE
8
0
10
135.0624868
20
-144.4658252
11
117.5971637
21
-140.1112311
0
LINE
8
0
10
117.5971637
20
-140.1112311
11
113.2425696
21
-157.5765542
0
LINE
8
0
10
117.8390856
20
-139.1409354
11
135.3044087
21
-143.4955295
0
LINE
8
0
10
135.3044087
20
-143.4955295
11
139.6590028
21
-126.0302064
0
LINE
8
0
10
139.6590028
20
-126.0302064
11
122.1936797
21
-121.6756123
0
LINE
8
0
10
122.1936797
20
-121.6756123
11
117.8390856
21
-139.1409354
0
LINE
8
0
10
122.4356016
20
-120.7053166
11
139.9009247
21
-125.0599107
0
LINE
8
0
10
139.9009247
20
-125.0599107
11
144.2555188
21
-107.5945876
0
LINE
8
0
10
144.2555188
20
-107.5945876
11
126.7901957
21
-103.2399935
0
LINE
8
0
10
126.7901957
20
-103.2399935
11
122.4356016
21
-120.7053166
0
LINE
8
0
10
130.4685789
20
-167.0245489
11
147.933902
21
-171.379143
0
LINE
8
0
10
147.933902
20
-171.379143
11
152.2884961
21
-153.9138199
0
LINE
8
0
10
152.2884961
20
-153.9138199
11
134.823173
21
-149.5592258
0
LINE
8
0
10
134.823173
20
-149.5592258
11
130.4685789
21
-167.0245489
0
LINE
8
0
10
135.0650949
20
-148.5889301
11
152.530418
21
-152.9435242
0
LINE
8
0
10
152.530418
20
-152.9435242
11
156.8850121
21
-135.4782011
0
LINE
8
0
10
156.8850121
20
-135.4782011
11
139.419689
21
-131.123607
0
LINE
8
0
10
139.419689
20
-131.123607
11
135.0650949
21
-148.5889301
0
LINE
8
0
10
139.6616109
20
-130.1533113
11
157.126934
21
-134.5079054
0
LINE
8
0
10
157.126934
20
-134.5079054
11
161.4815281
21
-117.0425823
0
LINE
8
0
10
161.4815281
20
-117.0425823
11
144.016205
21
-112.6879882
0
LINE
8
0
10
144.016205
20
-112.6879882
11
139.6616109
21
-130.1533113
0
LINE
8
0
10
148.5413149
20
-173.0765085
11
166.006638
21
-177.4311026
0
LINE
8
0
10
166.006638
20
-177.4311026
11
170.3612321
21
-159.9657795
0
LINE
8
0
10
170.3612321
20
-159.9657795
11
152.895909
21
-155.6111854
0
LINE
8
0
10
152.895909
20
-155.6111854
11
148.5413149
21
-173.0765085
0
LINE
8
0
10
153.1378309
20
-154.6408897
11
170.603154
21
-158.9954838
0
LINE
8
0
10
170.603154
20
-158.9954838
11
174.9577481
21
-141.5301607
0
LINE
8
0
10
174.9577481
20
-141.5301607
11
157.492425
21
-137.1755666
0
LINE
8
0
10
157.492425
20
-137.1755666
11
153.1378309
21
-154.6408897
0
LINE
8
0
10
157.7343469
20
-136.2052709
11
175.19967
21
-140.559865
0
LINE
8
0
10
175.19967
20
-140.559865
11
179.5542641
21
-123.0945419
0
LINE
8
0
10
179.5542641
20
-123.0945419
11
162.088941
21
-118.7399478
0
LINE
8
0
10
162.088941
20
-118.7399478
11
157.7343469
21
-136.2052709
0
LINE
8
0
10
125.50918
20
-186.9156113
11
142.9745031
21
-191.2702054
0
LINE
8
0
10
142.9745031
20
-191.2702054
11
147.3290972
21
-173.8048823
0
LINE
8
0
10
147.3290972
20
-173.8048823
11
129.8637741
21
-169.4502882
0
LINE
8
0
10
129.8637741
20
-169.4502882
11
125.50918
21
-186.9156113
0
LINE
8
0
10
144.0232739
20
-191.6992688
11
159.5325988
21
-200.8349593
0
LINE
8
0
10
159.5325988
20
-200.8349593
11
168.6682893
21
-185.3256344
0
LINE
8
0
10
168.6682893
20
-185.3256344
11
153.1589644
21
-176.1899439
0
LINE
8
0
10
153.1589644
20
-176.1899439
11
144.0232739
21
-191.6992688
0
LINE
8
0
10
160.4163201
20
-201.5442206
11
172.6922906
21
-214.7085873
0
LINE
8
0
10
172.6922906
20
-214.7085873
11
185.8566573
21
-202.4326168
0
LINE
8
0
10
185.8566573
20
-202.4326168
11
173.5806868
21
-189.2682501
0
LINE
8
0
10
173.5806868
20
-189.2682501
11
160.4163201
21
-201.5442206
0
LINE
8
0
10
343.2185003
20
-142.8049738
11
360.6838234
21
-138.4503797
0
LINE
8
0
10
360.6838234
20
-138.4503797
11
356.3292293
21
-120.9850566
0
LINE
8
0
10
356.3292293
20
-120.9850566
11
338.8639062
21
-125.3396507
0
LINE
8
0
10
338.8639062
20
-125.3396507
11
343.2185003
21
-142.8049738
0
LINE
8
0
10
338.6219843
20
-124.369355
11
356.0873074
21
-120.0147609
0
LINE
8
0
10
356.0873074
20
-120.0147609
11
351.7327133
21
-102.5494378
0
LINE
8
0
10
351.7327133
20
-102.5494378
11
334.2673902
21
-106.9040319
0
LINE
8
0
10
334.2673902
20
-106.9040319
11
338.6219843
21
-124.369355
0
LINE
8
0
10
329.3793975
20
-165.8371086
11
346.8447206
21
-161.4825145
0
LINE
8
0
10
346.8447206
20
-161.4825145
11
342.4901265
21
-144.0171914
0
LINE
8
0
10
342.4901265
20
-144.0171914
11
325.0248034
21
-148.3717855
0
LINE
8
0
10
325.0248034
20
-148.3717855
11
329.3793975
21
-165.8371086
0
LINE
8
0
10
324.7828815
20
-147.4014898
11
342.2482046
21
-143.0468957
0
LINE
8
0
10
342.2482046
20
-143.0468957
11
337.8936105
21
-125.5815726
0
LINE
8
0
10
337.8936105
20
-125.5815726
11
320.4282874
21
-129.9361667
0
LINE
8
0
10
320.4282874
20
-129.9361667
11
324.7828815
21
-147.4014898
0
LINE
8
0
10
320.1863655
20
-128.965871
11
337.6516886
21
-124.6112769
0
LINE
8
0
10
337.6516886
20
-124.6112769
11
333.2970945
21
-107.1459538
0
LINE
8
0
10
333.2970945
20
-107.1459538
11
315.8317714
21
-111.5005479
0
LINE
8
0
10
315.8317714
20
-111.5005479
11
320.1863655
21
-128.965871
0
LINE
8
0
10
308.4035988
20
-160.2455195
11
325.8689219
21
-155.8909254
0
LINE
8
0
10
325.8689219
20
-155.8909254
11
321.5143278
21
-138.4256023
0
LINE
8
0
10
321.5143278
20
-138.4256023
11
304.0490047
21
-142.7801964
0
LINE
8
0
10
304.0490047
20
-142.7801964
11
308.4035988
21
-160.2455195
0
LINE
8
0
10
303.8070828
20
-141.8099007
11
321.2724059
21
-137.4553066
0
LINE
8
0
10
321.2724059
20
-137.4553066
11
316.9178118
21
-119.9899835
0
LINE
8
0
10
316.9178118
20
-119.9899835
11
299.4524887
21
-124.3445776
0
LINE
8
0
10
299.4524887
20
-124.3445776
11
303.8070828
21
-141.8099007
0
LINE
8
0
10
299.2105668
20
-123.3742819
11
316.6758899
21
-119.0196878
0
LINE
8
0
10
316.6758899
20
-119.0196878
11
312.3212958
21
-101.5543647
0
LINE
8
0
10
312.3212958
20
-101.5543647
11
294.8559727
21
-105.9089588
0
LINE
8
0
10
294.8559727
20
-105.9089588
11
299.2105668
21
-123.3742819
0
LINE
8
0
10
289.2422143
20
-161.9311483
11
306.7075374
21
-157.5765542
0
LINE
8
0
10
306.7075374
20
-157.5765542
11
302.3529433
21
-140.1112311
0
LINE
8
0
10
302.3529433
20
-140.1112311
11
284.8876202
21
-144.4658252
0
LINE
8
0
10
284.8876202
20
-144.4658252
11
289.2422143
21
-161.9311483
0
LINE
8
0
10
284.6456983
20
-143.4955295
11
302.1110214
21
-139.1409354
0
LINE
8
0
10
302.1110214
20
-139.1409354
11
297.7564273
21
-121.6756123
0
LINE
8
0
10
297.7564273
20
-121.6756123
11
280.2911042
21
-126.0302064
0
LINE
8
0
10
280.2911042
20
-126.0302064
11
284.6456983
21
-143.4955295
0
LINE
8
0
10
280.0491823
20
-125.0599107
11
297.5145054
21
-120.7053166
0
LINE
8
0
10
297.5145054
20
-120.7053166
11
293.1599113
21
-103.2399935
0
LINE
8
0
10
293.1599113
20
-103.2399935
11
275.6945882
21
-107.5945876
0
LINE
8
0
10
275.6945882
20
-107.5945876
11
280.0491823
21
-125.0599107
0
LINE
8
0
10
272.016205
20
-171.379143
11
289.4815281
21
-167.0245489
0
LINE
8
0
10
289.4815281
20
-167.0245489
11
285.126934
21
-149.5592258
0
LINE
8
0
10
285.126934
20
-149.5592258
11
267.6616109
21
-153.9138199
0
LINE
8
0
10
267.6616109
20
-153.9138199
11
272.016205
21
-171.379143
0
LINE
8
0
10
267.419689
20
-152.9435242
11
284.8850121
21
-148.5889301
0
LINE
8
0
10
284.8850121
20
-148.5889301
11
280.530418
21
-131.123607
0
LINE
8
0
10
280.530418
20
-131.123607
11
263.0650949
21
-135.4782011
0
LINE
8
0
10
263.0650949
20
-135.4782011
11
267.419689
21
-152.9435242
0
LINE
8
0
10
262.823173
20
-134.5079054
11
280.2884961
21
-130.1533113
0
LINE
8
0
10
280.2884961
20
-130.1533113
11
275.933902
21
-112.6879882
0
LINE
8
0
10
275.933902
20
-112.6879882
11
258.4685789
21
-117.0425823
0
LINE
8
0
10
258.4685789
20
-117.0425823
11
262.823173
21
-134.5079054
0
LINE
8
0
10
253.943469
20
-177.4311026
11
271.4087921
21
-173.0765085
0
LINE
8
0
10
271.4087921
20
-173.0765085
11
267.054198
21
-155.6111854
0
LINE
8
0
10
267.054198
20
-155.6111854
11
249.5888749
21
-159.9657795
0
LINE
8
0
10
249.5888749
20
-159.9657795
11
253.943469
21
-177.4311026
0
LINE
8
0
10
249.346953
20
-158.9954838
11
266.8122761
21
-154.6408897
0
LINE
8
0
10
266.8122761
20
-154.6408897
11
262.457682
21
-137.1755666
0
LINE
8
0
10
262.457682
20
-137.1755666
11
244.9923589
21
-141.5301607
0
LINE
8
0
10
244.9923589
20
-141.5301607
11
249.346953
21
-158.9954838
0
LINE
8
0
10
244.750437
20
-140.559865
11
262.2157601
21
-136.2052709
0
LINE
8
0
10
262.2157601
20
-136.2052709
11
257.861166
21
-118.7399478
0
LINE
8
0
10
257.861166
20
-118.7399478
11
240.3958429
21
-123.0945419
0
LINE
8
0
10
240.3958429
20
-123.0945419
11
244.750437
21
-140.559865
0
LINE
8
0
10
276.9756039
20
-191.2702054
11
294.440927
21
-186.9156113
0
LINE
8
0
10
294.440927
20
-186.9156113
11
290.0863329
21
-169.4502882
0
LINE
8
0
10
290.0863329
20
-169.4502882
11
272.6210098
21
-173.8048823
0
LINE
8
0
10
272.6210098
20
-173.8048823
11
276.9756039
21
-191.2702054
0
LINE
8
0
10
260.4175082
20
-200.8349593
11
275.9268331
21
-191.6992688
0
LINE
8
0
10
275.9268331
20
-191.6992688
11
266.7911426
21
-176.1899439
0
LINE
8
0
10
266.7911426
20
-176.1899439
11
251.2818177
21
-185.3256344
0
LINE
8
0
10
251.2818177
20
-185.3256344
11
260.4175082
21
-200.8349593
0
LINE
8
0
10
247.2578164
20
-214.7085873
11
259.5337869
21
-201.5442206
0
LINE
8
0
10
259.5337869
20
-201.5442206
11
246.3694202
21
-189.2682501
0
LINE
8
0
10
246.3694202
20
-189.2682501
11
234.0934497
21
-202.4326168
0
LINE
8
0
10
234.0934497
20
-202.4326168
11
247.2578164
21
-214.7085873
0
ENDSEC
0
EOF