0
SECTION
2
HEADER
9
$INSUNITS
70
4
0
ENDSEC
0
SECTION
2
TABLES
0
TABLE
2
LTYPE
0
LTYPE
72
65
70
64
2
CONTINUOUS
3
______
73
0
40
0
0
ENDTAB
0
TABLE
2
LAYER
0
ENDTAB
0
ENDSEC
0
SECTION
2
ENTITIES
0
LINE
8
0
10
55.6162199
20
-140.170739
11
73.9688107
21
-145.0883009
0
LINE
8
0
10
55.6162199
20
-140.170739
11
70.6277245
21
-84.1470411
0
LINE
8
0
10
70.6277245
20
-84.1470411
11
107.3329059
21
-93.9821649
0
LINE
8
0
10
69.0512488
20
-163.4408916
11
88.3697653
21
-168.6172725
0
LINE
8
0
10
88.3697653
20
-168.6172725
11
91.0873652
21
-158.4750513
0
LINE
8
0
10
73.9688107
20
-145.0883009
11
69.0512488
21
-163.4408916
0
LINE
8
0
10
91.0873652
20
-158.4750513
11
109.4399559
21
-163.3926132
0
LINE
8
0
10
109.4399559
20
-163.3926132
11
110.2164131
21
-160.4948356
0
LINE
8
0
10
128.4030965
20
-88.7575055
11
110.0505059
21
-83.8399437
0
LINE
8
0
10
110.0505059
20
-83.8399437
11
107.3329059
21
-93.9821649
0
LINE
8
0
10
110.2164131
20
-160.4948356
11
127.6030779
21
-165.1535784
0
LINE
8
0
10
147.203975
20
-95.865738
11
148.4980702
21
-91.0361089
0
LINE
8
0
10
148.4980702
20
-91.0361089
11
129.1795537
21
-85.859728
0
LINE
8
0
10
129.1795537
20
-85.859728
11
128.4030965
21
-88.7575055
0
LINE
8
0
10
121.0031923
20
-189.7846871
11
127.6030779
21
-165.1535784
0
LINE
8
0
10
165.1683371
20
-102.2321886
11
165.5565657
21
-100.7832999
0
LINE
8
0
10
165.5565657
20
-100.7832999
11
147.203975
21
-95.865738
0
LINE
8
0
10
159.1904733
20
-197.952243
11
183.5209278
21
-107.1497505
0
LINE
8
0
10
183.5209278
20
-107.1497505
11
165.1683371
21
-102.2321886
0
LINE
8
0
10
121.0031923
20
-189.7846871
11
158.0297394
21
-199.7059204
0
LINE
8
0
10
158.0297394
20
-199.7059204
11
169.9321395
21
-214.9402979
0
LINE
8
0
10
169.9321395
20
-214.9402979
11
185.6923546
21
-202.6270684
0
LINE
8
0
10
185.6923546
20
-202.6270684
11
173.3791251
21
-186.8668533
0
LINE
8
0
10
173.3791251
20
-186.8668533
11
159.1904733
21
-197.952243
0
LINE
8
0
10
340.9791759
20
-145.0883009
11
359.3317667
21
-140.170739
0
LINE
8
0
10
344.3202621
20
-84.1470411
11
359.3317667
21
-140.170739
0
LINE
8
0
10
307.6150807
20
-93.9821649
11
344.3202621
21
-84.1470411
0
LINE
8
0
10
326.5782213
20
-168.6172725
11
345.8967378
21
-163.4408916
0
LINE
8
0
10
345.8967378
20
-163.4408916
11
340.9791759
21
-145.0883009
0
LINE
8
0
10
323.8606214
20
-158.4750513
11
326.5782213
21
-168.6172725
0
LINE
8
0
10
305.5080307
20
-163.3926132
11
323.8606214
21
-158.4750513
0
LINE
8
0
10
304.7315735
20
-160.4948356
11
305.5080307
21
-163.3926132
0
LINE
8
0
10
307.6150807
20
-93.9821649
11
304.8974807
21
-83.8399437
0
LINE
8
0
10
304.8974807
20
-83.8399437
11
286.5448901
21
-88.7575055
0
LINE
8
0
10
287.3449087
20
-165.1535784
11
304.7315735
21
-160.4948356
0
LINE
8
0
10
286.5448901
20
-88.7575055
11
285.7684329
21
-85.859728
0
LINE
8
0
10
285.7684329
20
-85.859728
11
266.4499164
21
-91.0361089
0
LINE
8
0
10
266.4499164
20
-91.0361089
11
267.7440116
21
-95.865738
0
LINE
8
0
10
287.3449087
20
-165.1535784
11
293.9447943
21
-189.7846871
0
LINE
8
0
10
267.7440116
20
-95.865738
11
249.3914209
21
-100.7832999
0
LINE
8
0
10
249.3914209
20
-100.7832999
11
249.7796495
21
-102.2321886
0
LINE
8
0
10
231.4270588
20
-107.1497505
11
255.7575133
21
-197.952243
0
LINE
8
0
10
249.7796495
20
-102.2321886
11
231.4270588
21
-107.1497505
0
LINE
8
0
10
256.9182472
20
-199.7059204
11
293.9447943
21
-189.7846871
0
LINE
8
0
10
245.0158471
20
-214.9402979
11
256.9182472
21
-199.7059204
0
LINE
8
0
10
255.7575133
20
-197.952243
11
241.5688615
21
-186.8668533
0
LINE
8
0
10
241.5688615
20
-186.8668533
11
229.255632
21
-202.6270684
0
LINE
8
0
10
229.255632
20
-202.6270684
11
245.0158471
21
-214.9402979
0
ENDSEC
0
EOF