0
SECTION
2
HEADER
9
$INSUNITS
70
4
0
ENDSEC
0
SECTION
2
TABLES
0
TABLE
2
LTYPE
0
LTYPE
72
65
70
64
2
CONTINUOUS
3
______
73
0
40
0
0
ENDTAB
0
TABLE
2
LAYER
0
ENDTAB
0
ENDSEC
0
SECTION
2
ENTITIES
0
LINE
8
0
10
56.2285923
20
-139.8171856
11
74.581183
21
-144.7347475
0
LINE
8
0
10
56.2285923
20
-139.8171856
11
70.9812779
21
-84.7594135
0
LINE
8
0
10
70.9812779
20
-84.7594135
11
107.6864593
21
-94.5945373
0
LINE
8
0
10
69.6636212
20
-163.0873382
11
88.0162119
21
-168.0049001
0
LINE
8
0
10
88.0162119
20
-168.0049001
11
90.7338118
21
-157.8626789
0
LINE
8
0
10
74.5811831
20
-144.7347475
11
69.6636212
21
-163.0873382
0
LINE
8
0
10
90.7338118
20
-157.8626789
11
127.4389932
21
-167.6978027
0
LINE
8
0
10
128.75665
20
-89.369878
11
110.4040593
21
-84.4523161
0
LINE
8
0
10
110.4040593
20
-84.4523161
11
107.6864593
21
-94.5945373
0
LINE
8
0
10
146.5916026
20
-96.2192914
11
147.8856978
21
-91.3896623
0
LINE
8
0
10
147.8856978
20
-91.3896623
11
129.5331071
21
-86.4721004
0
LINE
8
0
10
129.5331071
20
-86.4721004
11
128.75665
21
-89.369878
0
LINE
8
0
10
126.9213551
20
-169.6296542
11
128.2977994
21
-169.9984714
0
LINE
8
0
10
127.4389932
20
-167.6978027
11
126.9213551
21
-169.6296542
0
LINE
8
0
10
164.5559647
20
-102.585742
11
164.9441933
21
-101.1368533
0
LINE
8
0
10
164.9441933
20
-101.1368533
11
146.5916026
21
-96.2192914
0
LINE
8
0
10
164.5324032
20
-176.0840376
11
182.9085554
21
-107.5033039
0
LINE
8
0
10
182.9085554
20
-107.5033039
11
164.5559647
21
-102.585742
0
LINE
8
0
10
340.3668036
20
-144.7347475
11
358.7193943
21
-139.8171856
0
LINE
8
0
10
343.9667087
20
-84.7594135
11
358.7193943
21
-139.8171856
0
LINE
8
0
10
307.2615273
20
-94.5945373
11
343.9667087
21
-84.7594135
0
LINE
8
0
10
326.9317747
20
-168.0049001
11
345.2843654
21
-163.0873382
0
LINE
8
0
10
345.2843654
20
-163.0873382
11
340.3668035
21
-144.7347475
0
LINE
8
0
10
324.2141748
20
-157.8626789
11
326.9317747
21
-168.0049001
0
LINE
8
0
10
287.5089934
20
-167.6978027
11
324.2141748
21
-157.8626789
0
LINE
8
0
10
307.2615273
20
-94.5945373
11
304.5439273
21
-84.4523161
0
LINE
8
0
10
304.5439273
20
-84.4523161
11
286.1913366
21
-89.369878
0
LINE
8
0
10
286.1913366
20
-89.369878
11
285.4148795
21
-86.4721004
0
LINE
8
0
10
285.4148795
20
-86.4721004
11
267.0622888
21
-91.3896623
0
LINE
8
0
10
267.0622888
20
-91.3896623
11
268.356384
21
-96.2192914
0
LINE
8
0
10
286.6501872
20
-169.9984714
11
288.0266315
21
-169.6296542
0
LINE
8
0
10
288.0266315
20
-169.6296542
11
287.5089934
21
-167.6978027
0
LINE
8
0
10
268.356384
20
-96.2192914
11
250.0037933
21
-101.1368533
0
LINE
8
0
10
250.0037933
20
-101.1368533
11
250.3920219
21
-102.585742
0
LINE
8
0
10
232.0394312
20
-107.5033039
11
250.4155834
21
-176.0840376
0
LINE
8
0
10
250.3920219
20
-102.585742
11
232.0394312
21
-107.5033039
0
LINE
8
0
10
158.320746
20
-199.2662574
11
171.4805101
21
-216.1099873
0
LINE
8
0
10
171.4805101
20
-216.1099873
11
186.4527145
21
-204.4124193
0
LINE
8
0
10
186.4527145
20
-204.4124193
11
166.3090684
21
-178.629728
0
LINE
8
0
10
243.4674765
20
-216.1099873
11
256.6272406
21
-199.2662574
0
LINE
8
0
10
248.6389182
20
-178.629728
11
228.4952721
21
-204.4124193
0
LINE
8
0
10
228.4952721
20
-204.4124193
11
243.4674765
21
-216.1099873
0
LINE
8
0
10
119.3214909
20
-188.8164385
11
158.320746
21
-199.2662574
0
LINE
8
0
10
166.3090684
20
-178.629728
11
166.826477
21
-176.6987328
0
LINE
8
0
10
166.826477
20
-176.6987328
11
164.5324032
21
-176.0840376
0
LINE
8
0
10
128.2977994
20
-169.9984714
11
127.9095709
21
-171.4473602
0
LINE
8
0
10
256.6272406
20
-199.2662574
11
295.6264957
21
-188.8164385
0
LINE
8
0
10
287.0384157
20
-171.4473602
11
286.6501872
21
-169.9984714
0
LINE
8
0
10
250.4155834
20
-176.0840376
11
248.1215096
21
-176.6987328
0
LINE
8
0
10
248.1215096
20
-176.6987328
11
248.6389182
21
-178.629728
0
LINE
8
0
10
127.9095709
20
-171.4473602
11
124.2390527
21
-170.4638478
0
LINE
8
0
10
124.2390527
20
-170.4638478
11
119.3214909
21
-188.8164385
0
LINE
8
0
10
295.6264957
20
-188.8164385
11
290.7089339
21
-170.4638478
0
LINE
8
0
10
290.7089339
20
-170.4638478
11
287.0384157
21
-171.4473602
0
ENDSEC
0
EOF