0
SECTION
2
HEADER
9
$INSUNITS
70
4
0
ENDSEC
0
SECTION
2
TABLES
0
TABLE
2
LTYPE
0
LTYPE
72
65
70
64
2
CONTINUOUS
3
______
73
0
40
0
0
ENDTAB
0
TABLE
2
LAYER
0
ENDTAB
0
ENDSEC
0
SECTION
2
ENTITIES
0
LINE
8
0
10
43.8287549
20
-144.1857837
11
61.6829147
21
-150.6841665
0
LINE
8
0
10
43.8287549
20
-144.1857837
11
63.3239031
21
-90.6233043
0
LINE
8
0
10
63.3239031
20
-90.6233043
11
99.0322227
21
-103.6200699
0
LINE
8
0
10
55.1845319
20
-168.5383263
11
73.0386917
21
-175.0367091
0
LINE
8
0
10
73.0386917
20
-175.0367091
11
76.6299032
21
-165.1699365
0
LINE
8
0
10
61.6829147
20
-150.6841665
11
55.1845319
21
-168.5383263
0
LINE
8
0
10
76.6299032
20
-165.1699365
11
103.5896574
21
-174.9824846
0
LINE
8
0
10
120.477594
20
-100.2516801
11
102.6234342
21
-93.7532973
0
LINE
8
0
10
102.6234342
20
-93.7532973
11
99.0322227
21
-103.6200699
0
LINE
8
0
10
137.6477135
20
-108.629448
11
139.3578142
21
-103.9309849
0
LINE
8
0
10
139.3578142
20
-103.9309849
11
121.5036544
21
-97.4326021
0
LINE
8
0
10
121.5036544
20
-97.4326021
11
120.477594
21
-100.2516801
0
LINE
8
0
10
154.9888431
20
-116.5373696
11
155.5018733
21
-115.1278308
0
LINE
8
0
10
155.5018733
20
-115.1278308
11
137.6477135
21
-108.629448
0
LINE
8
0
10
146.2159238
20
-196.1930506
11
172.8430029
21
-123.0357524
0
LINE
8
0
10
172.8430029
20
-123.0357524
11
154.9888431
21
-116.5373696
0
LINE
8
0
10
301.1570175
20
-150.6841665
11
319.0111773
21
-144.1857837
0
LINE
8
0
10
299.5160291
20
-90.6233043
11
319.0111773
21
-144.1857837
0
LINE
8
0
10
263.8077095
20
-103.6200699
11
299.5160291
21
-90.6233043
0
LINE
8
0
10
289.8012405
20
-175.0367091
11
307.6554003
21
-168.5383263
0
LINE
8
0
10
307.6554003
20
-168.5383263
11
301.1570175
21
-150.6841665
0
LINE
8
0
10
286.210029
20
-165.1699365
11
289.8012405
21
-175.0367091
0
LINE
8
0
10
259.2502748
20
-174.9824846
11
286.210029
21
-165.1699365
0
LINE
8
0
10
263.8077095
20
-103.6200699
11
260.216498
21
-93.7532973
0
LINE
8
0
10
260.216498
20
-93.7532973
11
242.3623382
21
-100.2516801
0
LINE
8
0
10
242.3623382
20
-100.2516801
11
241.3362778
21
-97.4326021
0
LINE
8
0
10
241.3362778
20
-97.4326021
11
223.482118
21
-103.9309849
0
LINE
8
0
10
223.482118
20
-103.9309849
11
225.1922187
21
-108.629448
0
LINE
8
0
10
225.1922187
20
-108.629448
11
207.3380589
21
-115.1278308
0
LINE
8
0
10
207.3380589
20
-115.1278308
11
207.8510891
21
-116.5373696
0
LINE
8
0
10
189.9969293
20
-123.0357524
11
216.6240084
21
-196.1930506
0
LINE
8
0
10
207.8510891
20
-116.5373696
11
189.9969293
21
-123.0357524
0
LINE
8
0
10
133.4921362
20
-210.3192636
11
154.0170328
21
-227.5416967
0
LINE
8
0
10
154.0170328
20
-227.5416967
11
166.2299974
21
-212.9868523
0
LINE
8
0
10
166.2299974
20
-212.9868523
11
146.2159238
21
-196.1930506
0
LINE
8
0
10
208.8228994
20
-227.5416967
11
229.347796
21
-210.3192636
0
LINE
8
0
10
216.6240084
20
-196.1930506
11
196.6099348
21
-212.9868523
0
LINE
8
0
10
196.6099348
20
-212.9868523
11
208.8228994
21
-227.5416967
0
LINE
8
0
10
99.1996445
20
-197.9937616
11
133.4420167
21
-210.4569657
0
LINE
8
0
10
133.4420167
20
-210.4569657
11
133.4921362
21
-210.3192636
0
LINE
8
0
10
229.3979155
20
-210.4569657
11
263.6402877
21
-197.9937616
0
LINE
8
0
10
229.347796
20
-210.3192636
11
229.3979155
21
-210.4569657
0
LINE
8
0
10
92.003587
20
-201.3493383
11
99.1996445
21
-197.9937616
0
LINE
8
0
10
103.5896574
20
-174.9824846
11
83.97384
21
-184.1294904
0
LINE
8
0
10
83.97384
20
-184.1294904
11
92.003587
21
-201.3493383
0
LINE
8
0
10
263.6402877
20
-197.9937616
11
270.8363452
21
-201.3493383
0
LINE
8
0
10
270.8363452
20
-201.3493383
11
278.8660922
21
-184.1294904
0
LINE
8
0
10
278.8660922
20
-184.1294904
11
259.2502748
21
-174.9824846
0
ENDSEC
0
EOF