0
SECTION
2
HEADER
9
$INSUNITS
70
4
0
ENDSEC
0
SECTION
2
TABLES
0
TABLE
2
LTYPE
0
LTYPE
72
65
70
64
2
CONTINUOUS
3
______
73
0
40
0
0
ENDTAB
0
TABLE
2
LAYER
0
ENDTAB
0
ENDSEC
0
SECTION
2
ENTITIES
0
LINE
8
0
10
55.0038475
20
-140.5242924
11
73.3564382
21
-145.4418542
0
LINE
8
0
10
55.0038475
20
-140.5242924
11
65.3566093
21
-101.8872594
0
LINE
8
0
10
65.3566093
20
-101.8872594
11
102.0617908
21
-111.7223831
0
LINE
8
0
10
68.4388764
20
-163.794445
11
88.7233187
21
-169.2296449
0
LINE
8
0
10
88.7233187
20
-169.2296449
11
91.4409186
21
-159.0874238
0
LINE
8
0
10
73.3564382
20
-145.4418542
11
68.4388764
21
-163.794445
0
LINE
8
0
10
91.4409186
20
-159.0874238
11
109.7935093
21
-164.0049856
0
LINE
8
0
10
109.7935093
20
-164.0049856
11
110.5699665
21
-161.1072081
0
LINE
8
0
10
123.1319814
20
-106.4977238
11
104.7793907
21
-101.580162
0
LINE
8
0
10
104.7793907
20
-101.580162
11
102.0617908
21
-111.7223831
0
LINE
8
0
10
110.5699665
20
-161.1072081
11
117.8144102
21
-163.0483509
0
LINE
8
0
10
142.8987856
20
-113.8647754
11
144.1928808
21
-109.0351462
0
LINE
8
0
10
144.1928808
20
-109.0351462
11
123.9084385
21
-103.5999463
0
LINE
8
0
10
123.9084385
20
-103.5999463
11
123.1319814
21
-106.4977238
0
LINE
8
0
10
136.8047573
20
-173.31318
11
144.0492011
21
-175.2543228
0
LINE
8
0
10
160.8631477
20
-120.231226
11
161.2513763
21
-118.7823372
0
LINE
8
0
10
161.2513763
20
-118.7823372
11
142.8987856
21
-113.8647754
0
LINE
8
0
10
144.7734766
20
-177.0013062
11
163.9454148
21
-182.1384115
0
LINE
8
0
10
163.9454148
20
-182.1384115
11
179.2157384
21
-125.1487878
0
LINE
8
0
10
144.0492011
20
-175.2543228
11
143.7492721
21
-176.3736729
0
LINE
8
0
10
179.2157384
20
-125.1487878
11
160.8631477
21
-120.231226
0
LINE
8
0
10
111.2145246
20
-187.6794595
11
130.3929883
21
-192.8183133
0
LINE
8
0
10
133.5428298
20
-185.4868593
11
136.8047573
21
-173.31318
0
LINE
8
0
10
111.2145246
20
-187.6794595
11
117.8144102
21
-163.0483509
0
LINE
8
0
10
130.3929883
20
-192.8183133
11
146.205105
21
-202.5079909
0
LINE
8
0
10
151.2043568
20
-196.8573646
11
158.2946348
21
-185.2870826
0
LINE
8
0
10
158.2946348
20
-185.2870826
11
144.7734766
21
-177.0013062
0
LINE
8
0
10
143.7492721
20
-176.3736729
11
140.3891913
21
-174.3146127
0
LINE
8
0
10
140.3891913
20
-174.3146127
11
133.5428298
21
-185.4868593
0
LINE
8
0
10
142.9679546
20
-206.1669239
11
158.6960248
21
-220.0819449
0
LINE
8
0
10
158.6960248
20
-220.0819449
11
172.6110458
21
-204.3538747
0
LINE
8
0
10
172.6110458
20
-204.3538747
11
156.8829756
21
-190.4388537
0
LINE
8
0
10
156.8829756
20
-190.4388537
11
151.2043568
21
-196.8573646
0
LINE
8
0
10
146.205105
20
-202.5079909
11
142.9679546
21
-206.1669239
0
LINE
8
0
10
341.5915484
20
-145.4418542
11
359.9441391
21
-140.5242924
0
LINE
8
0
10
349.5913773
20
-101.8872594
11
359.9441391
21
-140.5242924
0
LINE
8
0
10
312.8861958
20
-111.7223831
11
349.5913773
21
-101.8872594
0
LINE
8
0
10
326.2246679
20
-169.2296449
11
346.5091102
21
-163.794445
0
LINE
8
0
10
346.5091102
20
-163.794445
11
341.5915484
21
-145.4418542
0
LINE
8
0
10
323.507068
20
-159.0874238
11
326.2246679
21
-169.2296449
0
LINE
8
0
10
305.1544773
20
-164.0049856
11
323.507068
21
-159.0874238
0
LINE
8
0
10
304.3780201
20
-161.1072081
11
305.1544773
21
-164.0049856
0
LINE
8
0
10
312.8861958
20
-111.7223831
11
310.1685959
21
-101.580162
0
LINE
8
0
10
310.1685959
20
-101.580162
11
291.8160052
21
-106.4977238
0
LINE
8
0
10
297.1335764
20
-163.0483509
11
304.3780201
21
-161.1072081
0
LINE
8
0
10
291.8160052
20
-106.4977238
11
291.0395481
21
-103.5999463
0
LINE
8
0
10
291.0395481
20
-103.5999463
11
270.7551058
21
-109.0351462
0
LINE
8
0
10
270.7551058
20
-109.0351462
11
272.049201
21
-113.8647754
0
LINE
8
0
10
270.8987855
20
-175.2543228
11
278.1432293
21
-173.31318
0
LINE
8
0
10
272.049201
20
-113.8647754
11
253.6966103
21
-118.7823372
0
LINE
8
0
10
253.6966103
20
-118.7823372
11
254.0848389
21
-120.231226
0
LINE
8
0
10
251.0025718
20
-182.1384115
11
270.17451
21
-177.0013062
0
LINE
8
0
10
271.1987145
20
-176.3736729
11
270.8987855
21
-175.2543228
0
LINE
8
0
10
235.7322482
20
-125.1487878
11
251.0025718
21
-182.1384115
0
LINE
8
0
10
254.0848389
20
-120.231226
11
235.7322482
21
-125.1487878
0
LINE
8
0
10
284.5549983
20
-192.8183133
11
303.733462
21
-187.6794595
0
LINE
8
0
10
297.1335764
20
-163.0483509
11
303.733462
21
-187.6794595
0
LINE
8
0
10
278.1432293
20
-173.31318
11
281.4051568
21
-185.4868593
0
LINE
8
0
10
268.7428816
20
-202.5079909
11
284.5549983
21
-192.8183133
0
LINE
8
0
10
281.4051568
20
-185.4868593
11
274.5587953
21
-174.3146127
0
LINE
8
0
10
274.5587953
20
-174.3146127
11
271.1987145
21
-176.3736729
0
LINE
8
0
10
270.17451
20
-177.0013062
11
256.6533518
21
-185.2870826
0
LINE
8
0
10
256.6533518
20
-185.2870826
11
263.7436298
21
-196.8573646
0
LINE
8
0
10
256.2519618
20
-220.0819449
11
271.980032
21
-206.1669239
0
LINE
8
0
10
271.980032
20
-206.1669239
11
268.7428816
21
-202.5079909
0
LINE
8
0
10
263.7436298
20
-196.8573646
11
258.065011
21
-190.4388537
0
LINE
8
0
10
258.065011
20
-190.4388537
11
242.3369408
21
-204.3538747
0
LINE
8
0
10
242.3369408
20
-204.3538747
11
256.2519618
21
-220.0819449
0
ENDSEC
0
EOF