0
SECTION
2
HEADER
9
$INSUNITS
70
4
0
ENDSEC
0
SECTION
2
TABLES
0
TABLE
2
LTYPE
0
LTYPE
72
65
70
64
2
CONTINUOUS
3
______
73
0
40
0
0
ENDTAB
0
TABLE
2
LAYER
0
ENDTAB
0
ENDSEC
0
SECTION
2
ENTITIES
0
LINE
8
0
10
244.0380715
20
-217.905439
11
170.9099151
21
-217.905439
0
ARC
8
0
10
170.9099151
20
-211.905439
40
6
50
242.5957585
51
270
0
LINE
8
0
10
168.148322
20
-217.2321269
11
118.8482576
21
-191.6727732
0
ARC
8
0
10
117.0071956
20
-195.2238984
40
4
50
62.5957585
51
63.1113409
0
LINE
8
0
10
118.8162283
20
-191.6563501
11
68.2100072
21
-165.9949436
0
ARC
8
0
10
70.9235562
20
-160.6436212
40
6
50
210.0000001
51
243.1113409
0
LINE
8
0
10
65.7274038
20
-163.6436212
11
54.0713093
21
-143.454673
0
ARC
8
0
10
59.267238
20
-140.4542858
40
6
50
165.0000021
51
210.0000001
0
LINE
8
0
10
53.4717988
20
-138.9009398
11
67.686839
21
-85.849687
0
ARC
8
0
10
73.4823941
20
-87.402601
40
6
50
90.4463157
51
165.0000021
0
LINE
8
0
10
73.4356565
20
-81.402783
11
108.7700067
21
-81.1275339
0
ARC
8
0
10
108.8167443
20
-87.1273519
40
6
50
83.9726258
51
90.4463157
0
LINE
8
0
10
109.4472106
20
-81.1605679
11
127.9044699
21
-83.1094198
0
ARC
8
0
10
127.2744483
20
-89.0762508
40
6
50
75.0000021
51
83.9726258
0
LINE
8
0
10
128.8277943
20
-83.2808116
11
150.0614491
21
-88.9703521
0
ARC
8
0
10
148.508535
20
-94.7659071
40
6
50
65.2933463
51
75.0000021
0
LINE
8
0
10
151.0163705
20
-89.3151492
11
184.6587325
21
-104.7936396
0
ARC
8
0
10
186.3306228
20
-101.159801
40
4
50
245.2933463
51
270
0
LINE
8
0
10
186.3306228
20
-105.159801
11
228.6173638
21
-105.159801
0
ARC
8
0
10
228.6173638
20
-101.159801
40
4
50
270
51
294.7066537
0
LINE
8
0
10
230.2892541
20
-104.7936396
11
263.9316162
21
-89.3151493
0
ARC
8
0
10
266.4394516
20
-94.7659071
40
6
50
104.9999979
51
114.7019757
0
LINE
8
0
10
264.8869696
20
-88.9702364
11
286.1206242
21
-83.2806958
0
ARC
8
0
10
287.6735383
20
-89.0762508
40
6
50
96.0273742
51
104.9999979
0
LINE
8
0
10
287.0439615
20
-83.1093729
11
305.5012207
21
-81.1605208
0
ARC
8
0
10
306.1312423
20
-87.1273519
40
6
50
89.5536843
51
96.0273742
0
LINE
8
0
10
306.1779799
20
-81.1275339
11
341.5123301
21
-81.4027831
0
ARC
8
0
10
341.4655925
20
-87.402601
40
6
50
14.9999979
51
89.5536843
0
LINE
8
0
10
347.2612632
20
-85.850119
11
361.4761878
21
-138.9009398
0
ARC
8
0
10
355.6807486
20
-140.4542858
40
6
50
329.9999999
51
374.9999979
0
LINE
8
0
10
360.876901
20
-143.4542858
11
349.2205828
21
-163.6436212
0
ARC
8
0
10
344.0244304
20
-160.6436212
40
6
50
296.8886591
51
329.9999999
0
LINE
8
0
10
346.7379795
20
-165.9949436
11
296.1317583
21
-191.6563501
0
ARC
8
0
10
297.940791
20
-195.2238984
40
4
50
116.8886591
51
117.4042415
0
LINE
8
0
10
296.099729
20
-191.6727731
11
246.7996645
21
-217.2321269
0
ARC
8
0
10
244.0380715
20
-211.905439
40
6
50
270
51
297.4042415
0
LINE
8
0
10
59.2904545
20
-138.0494187
11
72.8134161
21
-141.6728853
0
LINE
8
0
10
72.8134161
20
-141.6728853
11
76.4368827
21
-128.1499237
0
LINE
8
0
10
76.4368827
20
-128.1499237
11
62.9139211
21
-124.5264571
0
LINE
8
0
10
62.9139211
20
-124.5264571
11
59.2904545
21
-138.0494187
0
LINE
8
0
10
64.2080164
20
-119.696828
11
77.730978
21
-123.3202946
0
LINE
8
0
10
77.730978
20
-123.3202946
11
81.3544446
21
-109.797333
0
LINE
8
0
10
81.3544446
20
-109.797333
11
67.831483
21
-106.1738664
0
LINE
8
0
10
67.831483
20
-106.1738664
11
64.2080164
21
-119.696828
0
LINE
8
0
10
69.1255782
20
-101.3442373
11
82.6485398
21
-104.9677039
0
LINE
8
0
10
82.6485398
20
-104.9677039
11
86.2720064
21
-91.4447423
0
LINE
8
0
10
86.2720064
20
-91.4447423
11
72.7490448
21
-87.8212757
0
LINE
8
0
10
72.7490448
20
-87.8212757
11
69.1255782
21
-101.3442373
0
LINE
8
0
10
72.7254834
20
-161.3195713
11
86.248445
21
-164.9430379
0
LINE
8
0
10
86.248445
20
-164.9430379
11
89.8719116
21
-151.4200763
0
LINE
8
0
10
89.8719116
20
-151.4200763
11
76.34895
21
-147.7966097
0
LINE
8
0
10
76.34895
20
-147.7966097
11
72.7254834
21
-161.3195713
0
LINE
8
0
10
77.6430452
20
-142.9669806
11
91.1660068
21
-146.5904472
0
LINE
8
0
10
91.1660068
20
-146.5904472
11
94.7894734
21
-133.0674856
0
LINE
8
0
10
94.7894734
20
-133.0674856
11
81.2665118
21
-129.444019
0
LINE
8
0
10
81.2665118
20
-129.444019
11
77.6430452
21
-142.9669806
0
LINE
8
0
10
82.5606071
20
-124.6143899
11
96.0835687
21
-128.2378565
0
LINE
8
0
10
96.0835687
20
-128.2378565
11
99.7070353
21
-114.7148949
0
LINE
8
0
10
99.7070353
20
-114.7148949
11
86.1840737
21
-111.0914283
0
LINE
8
0
10
86.1840737
20
-111.0914283
11
82.5606071
21
-124.6143899
0
LINE
8
0
10
87.4781689
20
-106.2617992
11
101.0011305
21
-109.8852658
0
LINE
8
0
10
101.0011305
20
-109.8852658
11
104.6245971
21
-96.3623042
0
LINE
8
0
10
104.6245971
20
-96.3623042
11
91.1016355
21
-92.7388376
0
LINE
8
0
10
91.1016355
20
-92.7388376
11
87.4781689
21
-106.2617992
0
LINE
8
0
10
93.795674
20
-156.094912
11
107.3186356
21
-159.7183786
0
LINE
8
0
10
107.3186356
20
-159.7183786
11
110.9421022
21
-146.195417
0
LINE
8
0
10
110.9421022
20
-146.195417
11
97.4191406
21
-142.5719504
0
LINE
8
0
10
97.4191406
20
-142.5719504
11
93.795674
21
-156.094912
0
LINE
8
0
10
98.7132359
20
-137.7423213
11
112.2361975
21
-141.3657879
0
LINE
8
0
10
112.2361975
20
-141.3657879
11
115.8596641
21
-127.8428263
0
LINE
8
0
10
115.8596641
20
-127.8428263
11
102.3367025
21
-124.2193597
0
LINE
8
0
10
102.3367025
20
-124.2193597
11
98.7132359
21
-137.7423213
0
LINE
8
0
10
103.6307978
20
-119.3897306
11
117.1537594
21
-123.0131972
0
LINE
8
0
10
117.1537594
20
-123.0131972
11
120.777226
21
-109.4902356
0
LINE
8
0
10
120.777226
20
-109.4902356
11
107.2542644
21
-105.866769
0
LINE
8
0
10
107.2542644
20
-105.866769
11
103.6307978
21
-119.3897306
0
LINE
8
0
10
108.5483596
20
-101.0371399
11
122.0713212
21
-104.6606065
0
LINE
8
0
10
122.0713212
20
-104.6606065
11
125.6947878
21
-91.1376449
0
LINE
8
0
10
125.6947878
20
-91.1376449
11
112.1718262
21
-87.5141783
0
LINE
8
0
10
112.1718262
20
-87.5141783
11
108.5483596
21
-101.0371399
0
LINE
8
0
10
112.9247219
20
-158.1146963
11
126.4476835
21
-161.7381629
0
LINE
8
0
10
126.4476835
20
-161.7381629
11
130.0711501
21
-148.2152013
0
LINE
8
0
10
130.0711501
20
-148.2152013
11
116.5481885
21
-144.5917347
0
LINE
8
0
10
116.5481885
20
-144.5917347
11
112.9247219
21
-158.1146963
0
LINE
8
0
10
117.8422837
20
-139.7621056
11
131.3652453
21
-143.3855722
0
LINE
8
0
10
131.3652453
20
-143.3855722
11
134.9887119
21
-129.8626106
0
LINE
8
0
10
134.9887119
20
-129.8626106
11
121.4657503
21
-126.239144
0
LINE
8
0
10
121.4657503
20
-126.239144
11
117.8422837
21
-139.7621056
0
LINE
8
0
10
122.7598456
20
-121.4095149
11
136.2828072
21
-125.0329815
0
LINE
8
0
10
136.2828072
20
-125.0329815
11
139.9062738
21
-111.5100199
0
LINE
8
0
10
139.9062738
20
-111.5100199
11
126.3833122
21
-107.8865533
0
LINE
8
0
10
126.3833122
20
-107.8865533
11
122.7598456
21
-121.4095149
0
LINE
8
0
10
127.6774074
20
-103.0569242
11
141.200369
21
-106.6803908
0
LINE
8
0
10
141.200369
20
-106.6803908
11
144.8238356
21
-93.1574292
0
LINE
8
0
10
144.8238356
20
-93.1574292
11
131.300874
21
-89.5339626
0
LINE
8
0
10
131.300874
20
-89.5339626
11
127.6774074
21
-103.0569242
0
LINE
8
0
10
129.9832173
20
-167.8618873
11
143.5061789
21
-171.4853539
0
LINE
8
0
10
143.5061789
20
-171.4853539
11
147.1296455
21
-157.9623923
0
LINE
8
0
10
147.1296455
20
-157.9623923
11
133.6066839
21
-154.3389257
0
LINE
8
0
10
133.6066839
20
-154.3389257
11
129.9832173
21
-167.8618873
0
LINE
8
0
10
134.9007792
20
-149.5092966
11
148.4237408
21
-153.1327632
0
LINE
8
0
10
148.4237408
20
-153.1327632
11
152.0472074
21
-139.6098016
0
LINE
8
0
10
152.0472074
20
-139.6098016
11
138.5242458
21
-135.986335
0
LINE
8
0
10
138.5242458
20
-135.986335
11
134.9007792
21
-149.5092966
0
LINE
8
0
10
139.8183411
20
-131.1567059
11
153.3413027
21
-134.7801725
0
LINE
8
0
10
153.3413027
20
-134.7801725
11
156.9647693
21
-121.2572109
0
LINE
8
0
10
156.9647693
20
-121.2572109
11
143.4418077
21
-117.6337443
0
LINE
8
0
10
143.4418077
20
-117.6337443
11
139.8183411
21
-131.1567059
0
LINE
8
0
10
144.7359029
20
-112.8041152
11
158.2588645
21
-116.4275818
0
LINE
8
0
10
158.2588645
20
-116.4275818
11
161.8823311
21
-102.9046202
0
LINE
8
0
10
161.8823311
20
-102.9046202
11
148.3593695
21
-99.2811536
0
LINE
8
0
10
148.3593695
20
-99.2811536
11
144.7359029
21
-112.8041152
0
LINE
8
0
10
147.9475795
20
-174.2283379
11
161.4705411
21
-177.8518045
0
LINE
8
0
10
161.4705411
20
-177.8518045
11
165.0940077
21
-164.3288429
0
LINE
8
0
10
165.0940077
20
-164.3288429
11
151.5710461
21
-160.7053763
0
LINE
8
0
10
151.5710461
20
-160.7053763
11
147.9475795
21
-174.2283379
0
LINE
8
0
10
152.8651413
20
-155.8757472
11
166.3881029
21
-159.4992138
0
LINE
8
0
10
166.3881029
20
-159.4992138
11
170.0115695
21
-145.9762522
0
LINE
8
0
10
170.0115695
20
-145.9762522
11
156.4886079
21
-142.3527856
0
LINE
8
0
10
156.4886079
20
-142.3527856
11
152.8651413
21
-155.8757472
0
LINE
8
0
10
157.7827032
20
-137.5231565
11
171.3056648
21
-141.1466231
0
LINE
8
0
10
171.3056648
20
-141.1466231
11
174.9291314
21
-127.6236615
0
LINE
8
0
10
174.9291314
20
-127.6236615
11
161.4061698
21
-124.0001949
0
LINE
8
0
10
161.4061698
20
-124.0001949
11
157.7827032
21
-137.5231565
0
LINE
8
0
10
162.700265
20
-119.1705658
11
176.2232266
21
-122.7940324
0
LINE
8
0
10
176.2232266
20
-122.7940324
11
179.8466932
21
-109.2710708
0
LINE
8
0
10
179.8466932
20
-109.2710708
11
166.3237316
21
-105.6476042
0
LINE
8
0
10
166.3237316
20
-105.6476042
11
162.700265
21
-119.1705658
0
LINE
8
0
10
124.6774269
20
-187.6633668
11
138.2003885
21
-191.2868334
0
LINE
8
0
10
138.2003885
20
-191.2868334
11
141.8238551
21
-177.7638718
0
LINE
8
0
10
141.8238551
20
-177.7638718
11
128.3008935
21
-174.1404052
0
LINE
8
0
10
128.3008935
20
-174.1404052
11
124.6774269
21
-187.6633668
0
LINE
8
0
10
143.0300176
20
-192.5809286
11
156.5529792
21
-196.2043952
0
LINE
8
0
10
156.5529792
20
-196.2043952
11
160.1764458
21
-182.6814336
0
LINE
8
0
10
160.1764458
20
-182.6814336
11
146.6534842
21
-179.057967
0
LINE
8
0
10
146.6534842
20
-179.057967
11
143.0300176
21
-192.5809286
0
LINE
8
0
10
161.8299267
20
-199.6971307
11
170.4491874
21
-210.7292812
0
LINE
8
0
10
170.4491874
20
-210.7292812
11
181.4813379
21
-202.1100205
0
LINE
8
0
10
181.4813379
20
-202.1100205
11
172.8620772
21
-191.07787
0
LINE
8
0
10
172.8620772
20
-191.07787
11
161.8299267
21
-199.6971307
0
LINE
8
0
10
342.1345705
20
-141.6728853
11
355.6575321
21
-138.0494187
0
LINE
8
0
10
355.6575321
20
-138.0494187
11
352.0340655
21
-124.5264571
0
LINE
8
0
10
352.0340655
20
-124.5264571
11
338.5111039
21
-128.1499237
0
LINE
8
0
10
338.5111039
20
-128.1499237
11
342.1345705
21
-141.6728853
0
LINE
8
0
10
337.2170086
20
-123.3202946
11
350.7399702
21
-119.696828
0
LINE
8
0
10
350.7399702
20
-119.696828
11
347.1165036
21
-106.1738664
0
LINE
8
0
10
347.1165036
20
-106.1738664
11
333.593542
21
-109.797333
0
LINE
8
0
10
333.593542
20
-109.797333
11
337.2170086
21
-123.3202946
0
LINE
8
0
10
332.2994468
20
-104.9677039
11
345.8224084
21
-101.3442373
0
LINE
8
0
10
345.8224084
20
-101.3442373
11
342.1989418
21
-87.8212757
0
LINE
8
0
10
342.1989418
20
-87.8212757
11
328.6759802
21
-91.4447423
0
LINE
8
0
10
328.6759802
20
-91.4447423
11
332.2994468
21
-104.9677039
0
LINE
8
0
10
328.6995416
20
-164.9430379
11
342.2225032
21
-161.3195713
0
LINE
8
0
10
342.2225032
20
-161.3195713
11
338.5990366
21
-147.7966097
0
LINE
8
0
10
338.5990366
20
-147.7966097
11
325.076075
21
-151.4200763
0
LINE
8
0
10
325.076075
20
-151.4200763
11
328.6995416
21
-164.9430379
0
LINE
8
0
10
323.7819798
20
-146.5904472
11
337.3049414
21
-142.9669806
0
LINE
8
0
10
337.3049414
20
-142.9669806
11
333.6814748
21
-129.444019
0
LINE
8
0
10
333.6814748
20
-129.444019
11
320.1585132
21
-133.0674856
0
LINE
8
0
10
320.1585132
20
-133.0674856
11
323.7819798
21
-146.5904472
0
LINE
8
0
10
318.8644179
20
-128.2378565
11
332.3873795
21
-124.6143899
0
LINE
8
0
10
332.3873795
20
-124.6143899
11
328.7639129
21
-111.0914283
0
LINE
8
0
10
328.7639129
20
-111.0914283
11
315.2409513
21
-114.7148949
0
LINE
8
0
10
315.2409513
20
-114.7148949
11
318.8644179
21
-128.2378565
0
LINE
8
0
10
313.9468561
20
-109.8852658
11
327.4698177
21
-106.2617992
0
LINE
8
0
10
327.4698177
20
-106.2617992
11
323.8463511
21
-92.7388376
0
LINE
8
0
10
323.8463511
20
-92.7388376
11
310.3233895
21
-96.3623042
0
LINE
8
0
10
310.3233895
20
-96.3623042
11
313.9468561
21
-109.8852658
0
LINE
8
0
10
307.629351
20
-159.7183786
11
321.1523126
21
-156.094912
0
LINE
8
0
10
321.1523126
20
-156.094912
11
317.528846
21
-142.5719504
0
LINE
8
0
10
317.528846
20
-142.5719504
11
304.0058844
21
-146.195417
0
LINE
8
0
10
304.0058844
20
-146.195417
11
307.629351
21
-159.7183786
0
LINE
8
0
10
302.7117891
20
-141.3657879
11
316.2347507
21
-137.7423213
0
LINE
8
0
10
316.2347507
20
-137.7423213
11
312.6112841
21
-124.2193597
0
LINE
8
0
10
312.6112841
20
-124.2193597
11
299.0883225
21
-127.8428263
0
LINE
8
0
10
299.0883225
20
-127.8428263
11
302.7117891
21
-141.3657879
0
LINE
8
0
10
297.7942272
20
-123.0131972
11
311.3171888
21
-119.3897306
0
LINE
8
0
10
311.3171888
20
-119.3897306
11
307.6937222
21
-105.866769
0
LINE
8
0
10
307.6937222
20
-105.866769
11
294.1707606
21
-109.4902356
0
LINE
8
0
10
294.1707606
20
-109.4902356
11
297.7942272
21
-123.0131972
0
LINE
8
0
10
292.8766654
20
-104.6606065
11
306.399627
21
-101.0371399
0
LINE
8
0
10
306.399627
20
-101.0371399
11
302.7761604
21
-87.5141783
0
LINE
8
0
10
302.7761604
20
-87.5141783
11
289.2531988
21
-91.1376449
0
LINE
8
0
10
289.2531988
20
-91.1376449
11
292.8766654
21
-104.6606065
0
LINE
8
0
10
288.5003031
20
-161.7381629
11
302.0232647
21
-158.1146963
0
LINE
8
0
10
302.0232647
20
-158.1146963
11
298.3997981
21
-144.5917347
0
LINE
8
0
10
298.3997981
20
-144.5917347
11
284.8768365
21
-148.2152013
0
LINE
8
0
10
284.8768365
20
-148.2152013
11
288.5003031
21
-161.7381629
0
LINE
8
0
10
283.5827413
20
-143.3855722
11
297.1057029
21
-139.7621056
0
LINE
8
0
10
297.1057029
20
-139.7621056
11
293.4822363
21
-126.239144
0
LINE
8
0
10
293.4822363
20
-126.239144
11
279.9592747
21
-129.8626106
0
LINE
8
0
10
279.9592747
20
-129.8626106
11
283.5827413
21
-143.3855722
0
LINE
8
0
10
278.6651794
20
-125.0329815
11
292.188141
21
-121.4095149
0
LINE
8
0
10
292.188141
20
-121.4095149
11
288.5646744
21
-107.8865533
0
LINE
8
0
10
288.5646744
20
-107.8865533
11
275.0417128
21
-111.5100199
0
LINE
8
0
10
275.0417128
20
-111.5100199
11
278.6651794
21
-125.0329815
0
LINE
8
0
10
273.7476176
20
-106.6803908
11
287.2705792
21
-103.0569242
0
LINE
8
0
10
287.2705792
20
-103.0569242
11
283.6471126
21
-89.5339626
0
LINE
8
0
10
283.6471126
20
-89.5339626
11
270.124151
21
-93.1574292
0
LINE
8
0
10
270.124151
20
-93.1574292
11
273.7476176
21
-106.6803908
0
LINE
8
0
10
271.4418077
20
-171.4853539
11
284.9647693
21
-167.8618873
0
LINE
8
0
10
284.9647693
20
-167.8618873
11
281.3413027
21
-154.3389257
0
LINE
8
0
10
281.3413027
20
-154.3389257
11
267.8183411
21
-157.9623923
0
LINE
8
0
10
267.8183411
20
-157.9623923
11
271.4418077
21
-171.4853539
0
LINE
8
0
10
266.5242458
20
-153.1327632
11
280.0472074
21
-149.5092966
0
LINE
8
0
10
280.0472074
20
-149.5092966
11
276.4237408
21
-135.986335
0
LINE
8
0
10
276.4237408
20
-135.986335
11
262.9007792
21
-139.6098016
0
LINE
8
0
10
262.9007792
20
-139.6098016
11
266.5242458
21
-153.1327632
0
LINE
8
0
10
261.6066839
20
-134.7801725
11
275.1296455
21
-131.1567059
0
LINE
8
0
10
275.1296455
20
-131.1567059
11
271.5061789
21
-117.6337443
0
LINE
8
0
10
271.5061789
20
-117.6337443
11
257.9832173
21
-121.2572109
0
LINE
8
0
10
257.9832173
20
-121.2572109
11
261.6066839
21
-134.7801725
0
LINE
8
0
10
256.6891221
20
-116.4275818
11
270.2120837
21
-112.8041152
0
LINE
8
0
10
270.2120837
20
-112.8041152
11
266.5886171
21
-99.2811536
0
LINE
8
0
10
266.5886171
20
-99.2811536
11
253.0656555
21
-102.9046202
0
LINE
8
0
10
253.0656555
20
-102.9046202
11
256.6891221
21
-116.4275818
0
LINE
8
0
10
253.4774455
20
-177.8518045
11
267.0004071
21
-174.2283379
0
LINE
8
0
10
267.0004071
20
-174.2283379
11
263.3769405
21
-160.7053763
0
LINE
8
0
10
263.3769405
20
-160.7053763
11
249.8539789
21
-164.3288429
0
LINE
8
0
10
249.8539789
20
-164.3288429
11
253.4774455
21
-177.8518045
0
LINE
8
0
10
248.5598837
20
-159.4992138
11
262.0828453
21
-155.8757472
0
LINE
8
0
10
262.0828453
20
-155.8757472
11
258.4593787
21
-142.3527856
0
LINE
8
0
10
258.4593787
20
-142.3527856
11
244.9364171
21
-145.9762522
0
LINE
8
0
10
244.9364171
20
-145.9762522
11
248.5598837
21
-159.4992138
0
LINE
8
0
10
243.6423218
20
-141.1466231
11
257.1652834
21
-137.5231565
0
LINE
8
0
10
257.1652834
20
-137.5231565
11
253.5418168
21
-124.0001949
0
LINE
8
0
10
253.5418168
20
-124.0001949
11
240.0188552
21
-127.6236615
0
LINE
8
0
10
240.0188552
20
-127.6236615
11
243.6423218
21
-141.1466231
0
LINE
8
0
10
238.72476
20
-122.7940324
11
252.2477216
21
-119.1705658
0
LINE
8
0
10
252.2477216
20
-119.1705658
11
248.624255
21
-105.6476042
0
LINE
8
0
10
248.624255
20
-105.6476042
11
235.1012934
21
-109.2710708
0
LINE
8
0
10
235.1012934
20
-109.2710708
11
238.72476
21
-122.7940324
0
LINE
8
0
10
276.7475981
20
-191.2868334
11
290.2705597
21
-187.6633668
0
LINE
8
0
10
290.2705597
20
-187.6633668
11
286.6470931
21
-174.1404052
0
LINE
8
0
10
286.6470931
20
-174.1404052
11
273.1241315
21
-177.7638718
0
LINE
8
0
10
273.1241315
20
-177.7638718
11
276.7475981
21
-191.2868334
0
LINE
8
0
10
258.3950074
20
-196.2043952
11
271.917969
21
-192.5809286
0
LINE
8
0
10
271.917969
20
-192.5809286
11
268.2945024
21
-179.057967
0
LINE
8
0
10
268.2945024
20
-179.057967
11
254.7715408
21
-182.6814336
0
LINE
8
0
10
254.7715408
20
-182.6814336
11
258.3950074
21
-196.2043952
0
LINE
8
0
10
244.4987992
20
-210.7292812
11
253.1180599
21
-199.6971307
0
LINE
8
0
10
253.1180599
20
-199.6971307
11
242.0859094
21
-191.07787
0
LINE
8
0
10
242.0859094
20
-191.07787
11
233.4666487
21
-202.1100205
0
LINE
8
0
10
233.4666487
20
-202.1100205
11
244.4987992
21
-210.7292812
0
ENDSEC
0
EOF