0
SECTION
2
HEADER
9
$INSUNITS
70
4
0
ENDSEC
0
SECTION
2
TABLES
0
TABLE
2
LTYPE
0
LTYPE
72
65
70
64
2
CONTINUOUS
3
______
73
0
40
0
0
ENDTAB
0
TABLE
2
LAYER
0
ENDTAB
0
ENDSEC
0
SECTION
2
ENTITIES
0
LINE
8
0
10
342.8162932
20
-146.148961
11
360.2029582
21
-141.4902182
0
ARC
8
0
10
359.9441391
20
-140.5242924
40
1
50
284.9999999
51
374.9999994
0
LINE
8
0
10
350.5574188
20
-101.6288724
11
360.9100649
21
-140.2654734
0
ARC
8
0
10
349.5913773
20
-101.8872594
40
1
50
15
51
104.9999999
0
LINE
8
0
10
313.5933026
20
-110.4976383
11
349.3325582
21
-100.9213335
0
LINE
8
0
10
313.5933026
20
-110.4976383
11
311.1345217
21
-101.3213429
0
ARC
8
0
10
310.1685959
20
-101.580162
40
1
50
14.9999999
51
104.9999999
0
LINE
8
0
10
309.9097769
20
-100.6142362
11
292.523112
21
-105.272979
0
LINE
8
0
10
292.523112
20
-105.272979
11
292.0054739
21
-103.3411272
0
ARC
8
0
10
291.0395481
20
-103.5999463
40
1
50
14.9999999
51
104.9999999
0
LINE
8
0
10
290.7807291
20
-102.6340205
11
270.4962868
21
-108.0692204
0
ARC
8
0
10
270.7551058
20
-109.0351462
40
1
50
104.9999999
51
194.9999979
0
LINE
8
0
10
269.78918
20
-109.2939652
11
270.8244562
21
-113.1576686
0
LINE
8
0
10
270.8244562
20
-113.1576686
11
253.4377912
21
-117.8164114
0
ARC
8
0
10
253.6966103
20
-118.7823372
40
1
50
104.9999999
51
194.9999994
0
LINE
8
0
10
252.7306845
20
-119.0411562
11
252.8600941
21
-119.5241192
0
LINE
8
0
10
252.8600941
20
-119.5241192
11
235.4734292
21
-124.182862
0
ARC
8
0
10
235.7322482
20
-125.1487878
40
1
50
104.9999986
51
195
0
LINE
8
0
10
234.7663224
20
-125.4076068
11
250.036646
21
-182.3972305
0
ARC
8
0
10
251.0025718
20
-182.1384115
40
1
50
194.9999979
51
284.9999999
0
LINE
8
0
10
251.2613908
20
-183.1043373
11
263.7714546
21
-179.7522759
0
LINE
8
0
10
263.7714546
20
-179.7522759
11
256.1308532
21
-184.4344425
0
ARC
8
0
10
256.6533518
20
-185.2870826
40
1
50
121.5
51
211.5000011
0
LINE
8
0
10
255.8007116
20
-185.8095812
11
258.0252181
21
-189.4396458
0
ARC
8
0
10
258.065011
20
-190.4388537
40
1
50
92.2805675
51
131.4999955
0
LINE
8
0
10
257.402391
20
-189.689898
11
241.6743208
21
-203.604919
0
ARC
8
0
10
242.3369408
20
-204.3538747
40
1
50
131.4999999
51
221.4999987
0
LINE
8
0
10
241.5879851
20
-205.0164947
11
255.5030061
21
-220.7445649
0
ARC
8
0
10
256.2519618
20
-220.0819449
40
1
50
221.4999987
51
311.4999999
0
LINE
8
0
10
256.9145818
20
-220.8309006
11
272.642652
21
-206.9158796
0
ARC
8
0
10
271.980032
20
-206.1669239
40
1
50
311.4999999
51
401.4999987
0
LINE
8
0
10
272.7289877
20
-205.5043039
11
270.2815171
21
-202.7379416
0
LINE
8
0
10
270.2815171
20
-202.7379416
11
284.9538702
21
-193.7467121
0
LINE
8
0
10
284.9538702
20
-193.7467121
11
303.9922811
21
-188.6453853
0
ARC
8
0
10
303.733462
20
-187.6794595
40
1
50
284.9999999
51
374.9999995
0
LINE
8
0
10
298.3583212
20
-163.7554577
11
304.6993878
21
-187.4206405
0
LINE
8
0
10
298.3583212
20
-163.7554577
11
303.6709134
21
-162.3319529
0
LINE
8
0
10
303.6709134
20
-162.3319529
11
304.1885514
21
-164.2638047
0
ARC
8
0
10
305.1544773
20
-164.0049856
40
1
50
195.0000004
51
284.9999999
0
LINE
8
0
10
305.4132963
20
-164.9709114
11
322.7999612
21
-160.3121686
0
LINE
8
0
10
322.7999612
20
-160.3121686
11
325.2587421
21
-169.488464
0
ARC
8
0
10
326.2246679
20
-169.2296449
40
1
50
195.0000019
51
284.9999999
0
LINE
8
0
10
326.4834869
20
-170.1955707
11
346.7679292
21
-164.7603708
0
ARC
8
0
10
346.5091102
20
-163.794445
40
1
50
284.9999999
51
374.9999979
0
LINE
8
0
10
347.475036
20
-163.535626
11
342.8162932
21
-146.148961
0
LINE
8
0
10
276.0895718
20
-174.898732
11
277.4361226
21
-174.5379249
0
LINE
8
0
10
277.4361226
20
-174.5379249
11
278.6541872
21
-179.0838039
0
LINE
8
0
10
278.6541872
20
-179.0838039
11
276.0895718
21
-174.898732
0
LINE
8
0
10
342.2052812
20
-141.5504108
11
355.5350576
21
-137.978708
0
LINE
8
0
10
355.5350576
20
-137.978708
11
351.9633548
21
-124.6489316
0
LINE
8
0
10
351.9633548
20
-124.6489316
11
338.6335784
21
-128.2206344
0
LINE
8
0
10
338.6335784
20
-128.2206344
11
342.2052812
21
-141.5504108
0
LINE
8
0
10
337.2877193
20
-123.1978201
11
350.6174957
21
-119.6261173
0
LINE
8
0
10
350.6174957
20
-119.6261173
11
347.0457929
21
-106.2963409
0
LINE
8
0
10
347.0457929
20
-106.2963409
11
333.7160165
21
-109.8680437
0
LINE
8
0
10
333.7160165
20
-109.8680437
11
337.2877193
21
-123.1978201
0
LINE
8
0
10
328.7702523
20
-164.8205634
11
342.1000287
21
-161.2488606
0
LINE
8
0
10
342.1000287
20
-161.2488606
11
338.5283259
21
-147.9190842
0
LINE
8
0
10
338.5283259
20
-147.9190842
11
325.1985495
21
-151.490787
0
LINE
8
0
10
325.1985495
20
-151.490787
11
328.7702523
21
-164.8205634
0
LINE
8
0
10
323.8526905
20
-146.4679727
11
337.1824669
21
-142.8962699
0
LINE
8
0
10
337.1824669
20
-142.8962699
11
333.6107641
21
-129.5664935
0
LINE
8
0
10
333.6107641
20
-129.5664935
11
320.2809877
21
-133.1381963
0
LINE
8
0
10
320.2809877
20
-133.1381963
11
323.8526905
21
-146.4679727
0
LINE
8
0
10
318.9351286
20
-128.115382
11
332.264905
21
-124.5436792
0
LINE
8
0
10
332.264905
20
-124.5436792
11
328.6932022
21
-111.2139028
0
LINE
8
0
10
328.6932022
20
-111.2139028
11
315.3634258
21
-114.7856056
0
LINE
8
0
10
315.3634258
20
-114.7856056
11
318.9351286
21
-128.115382
0
LINE
8
0
10
307.7000617
20
-159.5959041
11
321.0298381
21
-156.0242013
0
LINE
8
0
10
321.0298381
20
-156.0242013
11
317.4581353
21
-142.6944249
0
LINE
8
0
10
317.4581353
20
-142.6944249
11
304.1283589
21
-146.2661277
0
LINE
8
0
10
304.1283589
20
-146.2661277
11
307.7000617
21
-159.5959041
0
LINE
8
0
10
302.7824998
20
-141.2433134
11
316.1122762
21
-137.6716106
0
LINE
8
0
10
316.1122762
20
-137.6716106
11
312.5405734
21
-124.3418342
0
LINE
8
0
10
312.5405734
20
-124.3418342
11
299.210797
21
-127.913537
0
LINE
8
0
10
299.210797
20
-127.913537
11
302.7824998
21
-141.2433134
0
LINE
8
0
10
297.8649379
20
-122.8907227
11
311.1947143
21
-119.3190199
0
LINE
8
0
10
311.1947143
20
-119.3190199
11
307.6230115
21
-105.9892435
0
LINE
8
0
10
307.6230115
20
-105.9892435
11
294.2932351
21
-109.5609463
0
LINE
8
0
10
294.2932351
20
-109.5609463
11
297.8649379
21
-122.8907227
0
LINE
8
0
10
288.5710138
20
-161.6156884
11
301.9007902
21
-158.0439856
0
LINE
8
0
10
301.9007902
20
-158.0439856
11
298.3290874
21
-144.7142092
0
LINE
8
0
10
298.3290874
20
-144.7142092
11
284.999311
21
-148.285912
0
LINE
8
0
10
284.999311
20
-148.285912
11
288.5710138
21
-161.6156884
0
LINE
8
0
10
283.653452
20
-143.2630977
11
296.9832284
21
-139.6913949
0
LINE
8
0
10
296.9832284
20
-139.6913949
11
293.4115256
21
-126.3616185
0
LINE
8
0
10
293.4115256
20
-126.3616185
11
280.0817492
21
-129.9333213
0
LINE
8
0
10
280.0817492
20
-129.9333213
11
283.653452
21
-143.2630977
0
LINE
8
0
10
278.7358901
20
-124.910507
11
292.0656665
21
-121.3388042
0
LINE
8
0
10
292.0656665
20
-121.3388042
11
288.4939637
21
-108.0090278
0
LINE
8
0
10
288.4939637
20
-108.0090278
11
275.1641873
21
-111.5807306
0
LINE
8
0
10
275.1641873
20
-111.5807306
11
278.7358901
21
-124.910507
0
LINE
8
0
10
271.5125184
20
-171.3628794
11
284.8422948
21
-167.7911766
0
LINE
8
0
10
284.8422948
20
-167.7911766
11
281.270592
21
-154.4614002
0
LINE
8
0
10
281.270592
20
-154.4614002
11
267.9408156
21
-158.033103
0
LINE
8
0
10
267.9408156
20
-158.033103
11
271.5125184
21
-171.3628794
0
LINE
8
0
10
266.5949565
20
-153.0102887
11
279.9247329
21
-149.4385859
0
LINE
8
0
10
279.9247329
20
-149.4385859
11
276.3530301
21
-136.1088095
0
LINE
8
0
10
276.3530301
20
-136.1088095
11
263.0232537
21
-139.6805123
0
LINE
8
0
10
263.0232537
20
-139.6805123
11
266.5949565
21
-153.0102887
0
LINE
8
0
10
261.6773946
20
-134.657698
11
275.007171
21
-131.0859952
0
LINE
8
0
10
275.007171
20
-131.0859952
11
271.4354682
21
-117.7562188
0
LINE
8
0
10
271.4354682
20
-117.7562188
11
258.1056918
21
-121.3279216
0
LINE
8
0
10
258.1056918
20
-121.3279216
11
261.6773946
21
-134.657698
0
LINE
8
0
10
253.5481562
20
-177.72933
11
266.8779326
21
-174.1576272
0
LINE
8
0
10
266.8779326
20
-174.1576272
11
263.3062298
21
-160.8278508
0
LINE
8
0
10
263.3062298
20
-160.8278508
11
249.9764534
21
-164.3995536
0
LINE
8
0
10
249.9764534
20
-164.3995536
11
253.5481562
21
-177.72933
0
LINE
8
0
10
248.6305944
20
-159.3767393
11
261.9603708
21
-155.8050365
0
LINE
8
0
10
261.9603708
20
-155.8050365
11
258.388668
21
-142.4752601
0
LINE
8
0
10
258.388668
20
-142.4752601
11
245.0588916
21
-146.0469629
0
LINE
8
0
10
245.0588916
20
-146.0469629
11
248.6305944
21
-159.3767393
0
LINE
8
0
10
243.7130325
20
-141.0241486
11
257.0428089
21
-137.4524458
0
LINE
8
0
10
257.0428089
20
-137.4524458
11
253.4711061
21
-124.1226694
0
LINE
8
0
10
253.4711061
20
-124.1226694
11
240.1413297
21
-127.6943722
0
LINE
8
0
10
240.1413297
20
-127.6943722
11
243.7130325
21
-141.0241486
0
LINE
8
0
10
285.9946041
20
-188.7055779
11
299.3243805
21
-185.1338751
0
LINE
8
0
10
299.3243805
20
-185.1338751
11
295.7526777
21
-171.8040987
0
LINE
8
0
10
295.7526777
20
-171.8040987
11
282.4229013
21
-175.3758015
0
LINE
8
0
10
282.4229013
20
-175.3758015
11
285.9946041
21
-188.7055779
0
LINE
8
0
10
268.8143315
20
-198.2420266
11
280.5807657
21
-191.0315464
0
LINE
8
0
10
280.5807657
20
-191.0315464
11
273.3702855
21
-179.2651122
0
LINE
8
0
10
273.3702855
20
-179.2651122
11
261.6038513
21
-186.4755924
0
LINE
8
0
10
261.6038513
20
-186.4755924
11
268.8143315
21
-198.2420266
0
LINE
8
0
10
256.5627703
20
-215.0002721
11
266.8983592
21
-205.8561154
0
LINE
8
0
10
266.8983592
20
-205.8561154
11
257.7542025
21
-195.5205265
0
LINE
8
0
10
257.7542025
20
-195.5205265
11
247.4186136
21
-204.6646832
0
LINE
8
0
10
247.4186136
20
-204.6646832
11
256.5627703
21
-215.0002721
0
ENDSEC
0
EOF