0
SECTION
2
HEADER
9
$INSUNITS
70
4
0
ENDSEC
0
SECTION
2
TABLES
0
TABLE
2
LTYPE
0
LTYPE
72
65
70
64
2
CONTINUOUS
3
______
73
0
40
0
0
ENDTAB
0
TABLE
2
LAYER
0
ENDTAB
0
ENDSEC
0
SECTION
2
ENTITIES
0
LINE
8
0
10
299.9590143
20
-207.800212
11
114.9889723
21
-207.800212
0
ARC
8
0
10
114.9889723
20
-201.800212
40
6
50
227.1600906
51
270
0
LINE
8
0
10
110.909259
20
-206.1997505
11
67.2098207
21
-165.6770519
0
ARC
8
0
10
71.2895341
20
-161.2775134
40
6
50
210.0000001
51
227.1554125
0
LINE
8
0
10
66.0933817
20
-164.2775134
11
54.0710856
21
-143.4542859
0
ARC
8
0
10
59.267238
20
-140.4542858
40
6
50
165.0000021
51
210.0000001
0
LINE
8
0
10
53.4717988
20
-138.9009398
11
67.686839
21
-85.849687
0
ARC
8
0
10
73.4823941
20
-87.402601
40
6
50
90.4463157
51
165.0000021
0
LINE
8
0
10
73.4356565
20
-81.402783
11
108.7700067
21
-81.1275339
0
ARC
8
0
10
108.8167443
20
-87.1273519
40
6
50
83.9726258
51
90.4463157
0
LINE
8
0
10
109.4472106
20
-81.1605679
11
127.9044699
21
-83.1094198
0
ARC
8
0
10
127.2744483
20
-89.0762508
40
6
50
75.0000021
51
83.9726258
0
LINE
8
0
10
128.8277943
20
-83.2808116
11
150.0614491
21
-88.9703521
0
ARC
8
0
10
148.508535
20
-94.7659071
40
6
50
65.2933463
51
75.0000021
0
LINE
8
0
10
151.0163705
20
-89.3151492
11
184.6587325
21
-104.7936396
0
ARC
8
0
10
186.3306228
20
-101.159801
40
4
50
245.2933463
51
270
0
LINE
8
0
10
186.3306228
20
-105.159801
11
228.6173638
21
-105.159801
0
ARC
8
0
10
228.6173638
20
-101.159801
40
4
50
270
51
294.7066537
0
LINE
8
0
10
230.2892541
20
-104.7936396
11
263.9316162
21
-89.3151493
0
ARC
8
0
10
266.4394516
20
-94.7659071
40
6
50
104.9999979
51
114.7019757
0
LINE
8
0
10
264.8869696
20
-88.9702364
11
286.1206242
21
-83.2806958
0
ARC
8
0
10
287.6735383
20
-89.0762508
40
6
50
96.0273742
51
104.9999979
0
LINE
8
0
10
287.0439615
20
-83.1093729
11
305.5012207
21
-81.1605208
0
ARC
8
0
10
306.1312423
20
-87.1273519
40
6
50
89.5536843
51
96.0273742
0
LINE
8
0
10
306.1779799
20
-81.1275339
11
341.5123301
21
-81.4027831
0
ARC
8
0
10
341.4655925
20
-87.402601
40
6
50
14.9999979
51
89.5536843
0
LINE
8
0
10
347.2612632
20
-85.850119
11
361.4761878
21
-138.9009398
0
ARC
8
0
10
355.6807486
20
-140.4542858
40
6
50
329.9999999
51
374.9999979
0
LINE
8
0
10
360.876901
20
-143.4542858
11
348.8546049
21
-164.2775134
0
ARC
8
0
10
343.6584525
20
-161.2775134
40
6
50
312.8399094
51
329.9999999
0
LINE
8
0
10
347.7381658
20
-165.6770519
11
304.0387275
21
-206.1997506
0
ARC
8
0
10
299.9590143
20
-201.800212
40
6
50
270
51
312.8399094
0
ENDSEC
0
EOF