0
SECTION
2
HEADER
9
$INSUNITS
70
4
0
ENDSEC
0
SECTION
2
TABLES
0
TABLE
2
LTYPE
0
LTYPE
72
65
70
64
2
CONTINUOUS
3
______
73
0
40
0
0
ENDTAB
0
TABLE
2
LAYER
0
ENDTAB
0
ENDSEC
0
SECTION
2
ENTITIES
0
LINE
8
0
10
58.5152825
20
-139.8090545
11
74.8162507
21
-143.8733423
0
LINE
8
0
10
57.7140713
20
-138.4756151
11
66.8587189
21
-101.7984367
0
LINE
8
0
10
85.5604518
20
-105.3276274
11
68.1921583
21
-100.9972255
0
LINE
8
0
10
72.8382291
20
-160.9005978
11
91.0797887
21
-165.4487294
0
LINE
8
0
10
92.4132281
20
-164.6475182
11
94.4211798
21
-156.5940637
0
LINE
8
0
10
75.6174619
20
-145.2067817
11
72.0370179
21
-159.5671584
0
LINE
8
0
10
103.4125891
20
-107.7174378
11
87.1116209
21
-103.65315
0
LINE
8
0
10
85.7781815
20
-104.4543612
11
85.5604518
21
-105.3276274
0
LINE
8
0
10
95.7546192
20
-155.7928525
11
112.0555874
21
-159.8571403
0
LINE
8
0
10
113.3890268
20
-159.0559291
11
113.5825643
21
-158.2796926
0
LINE
8
0
10
124.3883878
20
-102.1258487
11
108.0874196
21
-98.0615609
0
LINE
8
0
10
106.7539802
20
-98.8627721
11
104.7460285
21
-106.9162266
0
LINE
8
0
10
114.9160037
20
-157.4784814
11
129.2763805
21
-161.0589254
0
LINE
8
0
10
127.2488041
20
-99.7471898
11
183.2978755
21
-113.7217928
0
LINE
8
0
10
125.9153647
20
-100.548401
11
125.7218272
21
-101.3246375
0
LINE
8
0
10
123.9569677
20
-186.9408467
11
130.0775917
21
-162.3923648
0
LINE
8
0
10
167.0727579
20
-179.3554771
11
173.3022179
21
-154.3704782
0
LINE
8
0
10
124.7581789
20
-188.2742861
11
142.8013272
21
-192.7729482
0
LINE
8
0
10
143.0935054
20
-192.8924814
11
158.9397524
21
-202.2266343
0
LINE
8
0
10
159.1859493
20
-202.4242281
11
171.8680594
21
-216.0241262
0
LINE
8
0
10
173.4227467
20
-216.0784171
11
187.1721962
21
-203.256848
0
LINE
8
0
10
167.3355942
20
-180.3717895
11
187.2264871
21
-201.7021607
0
LINE
8
0
10
346.1015439
20
-143.8733423
11
362.4025121
21
-139.8090545
0
LINE
8
0
10
354.0590757
20
-101.7984367
11
363.2037233
21
-138.4756151
0
LINE
8
0
10
352.7256363
20
-100.9972255
11
336.4246681
21
-105.0615133
0
LINE
8
0
10
329.8380059
20
-165.4487294
11
348.0795655
21
-160.9005978
0
LINE
8
0
10
348.8807767
20
-159.5671584
11
345.3003327
21
-145.2067817
0
LINE
8
0
10
326.4966148
20
-156.5940637
11
328.5045665
21
-164.6475182
0
LINE
8
0
10
335.0912287
20
-104.2603021
11
334.873499
21
-103.3870359
0
LINE
8
0
10
334.873499
20
-103.3870359
11
317.5052055
21
-107.7174378
0
LINE
8
0
10
308.8622072
20
-159.8571403
11
325.1631754
21
-155.7928525
0
LINE
8
0
10
307.3352303
20
-158.2796926
11
307.5287678
21
-159.0559291
0
LINE
8
0
10
316.1717661
20
-106.9162266
11
314.1638144
21
-98.8627721
0
LINE
8
0
10
312.830375
20
-98.0615609
11
296.5294068
21
-102.1258487
0
LINE
8
0
10
291.6414141
20
-161.0589254
11
306.0017909
21
-157.4784814
0
LINE
8
0
10
295.1959674
20
-101.3246375
11
295.0024299
21
-100.548401
0
LINE
8
0
10
237.6199191
20
-113.7217928
11
293.6689905
21
-99.7471898
0
LINE
8
0
10
290.8402029
20
-162.3923648
11
296.9608269
21
-186.9408467
0
LINE
8
0
10
247.6155767
20
-154.3704782
11
253.8450367
21
-179.3554771
0
LINE
8
0
10
278.1164674
20
-192.7729482
11
296.1596157
21
-188.2742861
0
LINE
8
0
10
261.9780422
20
-202.2266343
11
277.8242892
21
-192.8924814
0
LINE
8
0
10
249.0497352
20
-216.0241262
11
261.7318453
21
-202.4242281
0
LINE
8
0
10
233.6913075
20
-201.7021607
11
253.5822004
21
-180.3717895
0
LINE
8
0
10
233.7455984
20
-203.256848
11
247.4950479
21
-216.0784171
0
LINE
8
0
10
183.5639896
20
-113.7544675
11
237.353805
21
-113.7544675
0
LINE
8
0
10
246.5482514
20
-153.5365923
11
174.3695432
21
-153.5365923
0
ARC
8
0
10
74.5501366
20
-144.9406676
40
1.1
50
345.9999994
51
75.9999994
0
ARC
8
0
10
73.1043432
20
-159.8332725
40
1.1
50
165.9999994
51
255.9999994
0
ARC
8
0
10
91.3459028
20
-164.3814041
40
1.1
50
255.9999994
51
345.9999994
0
ARC
8
0
10
95.4885051
20
-156.8601778
40
1.1
50
75.9999994
51
165.9999994
0
ARC
8
0
10
112.3217015
20
-158.789815
40
1.1
50
255.9999994
51
345.9999994
0
ARC
8
0
10
114.6498896
20
-158.5458067
40
1.1
50
75.9999994
51
165.9999994
0
ARC
8
0
10
129.0102664
20
-162.1262507
40
1.1
50
345.9999994
51
75.9999994
0
ARC
8
0
10
125.024293
20
-187.2069608
40
1.1
50
165.9999994
51
255.9999994
0
ARC
8
0
10
142.5352131
20
-193.8402735
40
1.1
50
59.4999993
51
75.9999994
0
ARC
8
0
10
158.3814602
20
-203.1744264
40
1.1
50
43.0000017
51
59.4999993
0
ARC
8
0
10
172.6725485
20
-215.273928
40
1.1
50
223.0000017
51
313.0000017
0
ARC
8
0
10
186.421998
20
-202.4523589
40
1.1
50
313.0000017
51
43.0000017
0
ARC
8
0
10
168.1400832
20
-179.6215912
40
1.1
50
165.9999994
51
223.0000017
0
ARC
8
0
10
174.3695432
20
-154.6365923
40
1.1
50
90
51
165.9999994
0
ARC
8
0
10
246.5482514
20
-154.6365923
40
1.1
50
14.0000006
51
90
0
ARC
8
0
10
252.7777114
20
-179.6215912
40
1.1
50
316.9999983
51
14.0000006
0
ARC
8
0
10
234.4957966
20
-202.4523589
40
1.1
50
136.9999983
51
226.9999983
0
ARC
8
0
10
248.2452461
20
-215.273928
40
1.1
50
226.9999983
51
316.9999983
0
ARC
8
0
10
262.5363344
20
-203.1744264
40
1.1
50
120.5000007
51
136.9999983
0
ARC
8
0
10
278.3825815
20
-193.8402735
40
1.1
50
104.0000006
51
120.5000007
0
ARC
8
0
10
295.8935016
20
-187.2069608
40
1.1
50
284.0000006
51
14.0000006
0
ARC
8
0
10
291.9075282
20
-162.1262507
40
1.1
50
104.0000006
51
194.0000006
0
ARC
8
0
10
306.267905
20
-158.5458067
40
1.1
50
14.0000006
51
104.0000006
0
ARC
8
0
10
308.5960931
20
-158.789815
40
1.1
50
194.0000006
51
284.0000006
0
ARC
8
0
10
325.4292895
20
-156.8601778
40
1.1
50
14.0000006
51
104.0000006
0
ARC
8
0
10
329.5718918
20
-164.3814041
40
1.1
50
194.0000006
51
284.0000006
0
ARC
8
0
10
347.8134514
20
-159.8332725
40
1.1
50
284.0000006
51
14.0000006
0
ARC
8
0
10
346.367658
20
-144.9406676
40
1.1
50
104.0000006
51
194.0000006
0
ARC
8
0
10
362.136398
20
-138.7417292
40
1.1
50
284.0000006
51
14.0000006
0
ARC
8
0
10
352.9917504
20
-102.0645508
40
1.1
50
14.0000006
51
104.0000006
0
ARC
8
0
10
336.158554
20
-103.994188
40
1.1
50
194.0000006
51
284.0000006
0
ARC
8
0
10
317.2390914
20
-106.6501125
40
1.1
50
194.0000006
51
284.0000006
0
ARC
8
0
10
313.0964891
20
-99.1288862
40
1.1
50
14.0000006
51
104.0000006
0
ARC
8
0
10
296.2632927
20
-101.0585234
40
1.1
50
194.0000006
51
284.0000006
0
ARC
8
0
10
293.9351046
20
-100.8145151
40
1.1
50
14.0000006
51
104.0000006
0
ARC
8
0
10
237.353805
20
-112.6544675
40
1.1
50
270
51
284.0000006
0
ARC
8
0
10
183.5639896
20
-112.6544675
40
1.1
50
255.9999994
51
270
0
ARC
8
0
10
126.98269
20
-100.8145151
40
1.1
50
75.9999994
51
165.9999994
0
ARC
8
0
10
124.6545019
20
-101.0585234
40
1.1
50
255.9999994
51
345.9999994
0
ARC
8
0
10
107.8213055
20
-99.1288862
40
1.1
50
75.9999994
51
165.9999994
0
ARC
8
0
10
103.6787032
20
-106.6501125
40
1.1
50
255.9999994
51
345.9999994
0
ARC
8
0
10
86.8455068
20
-104.7204753
40
1.1
50
75.9999994
51
165.9999994
0
ARC
8
0
10
67.9260442
20
-102.0645508
40
1.1
50
75.9999994
51
165.9999994
0
ARC
8
0
10
58.7813966
20
-138.7417292
40
1.1
50
165.9999994
51
255.9999994
0
LINE
8
0
10
61.6907188
20
-136.993632
11
75.274859
21
-140.3805386
0
LINE
8
0
10
75.274859
20
-140.3805386
11
78.6617656
21
-126.7963984
0
LINE
8
0
10
78.6617656
20
-126.7963984
11
65.0776254
21
-123.4094918
0
LINE
8
0
10
65.0776254
20
-123.4094918
11
61.6907188
21
-136.993632
0
LINE
8
0
10
66.2872348
20
-118.5580132
11
79.871375
21
-121.9449198
0
LINE
8
0
10
79.871375
20
-121.9449198
11
83.2582816
21
-108.3607796
0
LINE
8
0
10
83.2582816
20
-108.3607796
11
69.6741414
21
-104.973873
0
LINE
8
0
10
69.6741414
20
-104.973873
11
66.2872348
21
-118.5580132
0
LINE
8
0
10
76.0136654
20
-158.0851753
11
89.5978056
21
-161.4720819
0
LINE
8
0
10
89.5978056
20
-161.4720819
11
92.9847122
21
-147.8879417
0
LINE
8
0
10
92.9847122
20
-147.8879417
11
79.400572
21
-144.5010351
0
LINE
8
0
10
79.400572
20
-144.5010351
11
76.0136654
21
-158.0851753
0
LINE
8
0
10
80.6101814
20
-139.6495565
11
94.1943216
21
-143.0364631
0
LINE
8
0
10
94.1943216
20
-143.0364631
11
97.5812282
21
-129.4523229
0
LINE
8
0
10
97.5812282
20
-129.4523229
11
83.997088
21
-126.0654163
0
LINE
8
0
10
83.997088
20
-126.0654163
11
80.6101814
21
-139.6495565
0
LINE
8
0
10
85.2066974
20
-121.2139377
11
98.7908376
21
-124.6008443
0
LINE
8
0
10
98.7908376
20
-124.6008443
11
102.1777442
21
-111.0167041
0
LINE
8
0
10
102.1777442
20
-111.0167041
11
88.593604
21
-107.6297975
0
LINE
8
0
10
88.593604
20
-107.6297975
11
85.2066974
21
-121.2139377
0
LINE
8
0
10
96.9894641
20
-152.4935862
11
110.5736043
21
-155.8804928
0
LINE
8
0
10
110.5736043
20
-155.8804928
11
113.9605109
21
-142.2963526
0
LINE
8
0
10
113.9605109
20
-142.2963526
11
100.3763707
21
-138.909446
0
LINE
8
0
10
100.3763707
20
-138.909446
11
96.9894641
21
-152.4935862
0
LINE
8
0
10
101.5859801
20
-134.0579674
11
115.1701203
21
-137.444874
0
LINE
8
0
10
115.1701203
20
-137.444874
11
118.5570269
21
-123.8607338
0
LINE
8
0
10
118.5570269
20
-123.8607338
11
104.9728867
21
-120.4738272
0
LINE
8
0
10
104.9728867
20
-120.4738272
11
101.5859801
21
-134.0579674
0
LINE
8
0
10
106.1824961
20
-115.6223486
11
119.7666363
21
-119.0092552
0
LINE
8
0
10
119.7666363
20
-119.0092552
11
123.1535429
21
-105.425115
0
LINE
8
0
10
123.1535429
20
-105.425115
11
109.5694027
21
-102.0382084
0
LINE
8
0
10
109.5694027
20
-102.0382084
11
106.1824961
21
-115.6223486
0
LINE
8
0
10
116.1508486
20
-154.1792151
11
129.7349888
21
-157.5661217
0
LINE
8
0
10
129.7349888
20
-157.5661217
11
133.1218954
21
-143.9819815
0
LINE
8
0
10
133.1218954
20
-143.9819815
11
119.5377552
21
-140.5950749
0
LINE
8
0
10
119.5377552
20
-140.5950749
11
116.1508486
21
-154.1792151
0
LINE
8
0
10
120.7473646
20
-135.7435963
11
134.3315048
21
-139.1305029
0
LINE
8
0
10
134.3315048
20
-139.1305029
11
137.7184114
21
-125.5463627
0
LINE
8
0
10
137.7184114
20
-125.5463627
11
124.1342712
21
-122.1594561
0
LINE
8
0
10
124.1342712
20
-122.1594561
11
120.7473646
21
-135.7435963
0
LINE
8
0
10
125.3438806
20
-117.3079775
11
138.9280208
21
-120.6948841
0
LINE
8
0
10
138.9280208
20
-120.6948841
11
142.3149274
21
-107.1107439
0
LINE
8
0
10
142.3149274
20
-107.1107439
11
128.7307872
21
-103.7238373
0
LINE
8
0
10
128.7307872
20
-103.7238373
11
125.3438806
21
-117.3079775
0
LINE
8
0
10
133.3768579
20
-163.6272097
11
146.9609981
21
-167.0141163
0
LINE
8
0
10
146.9609981
20
-167.0141163
11
150.3479047
21
-153.4299761
0
LINE
8
0
10
150.3479047
20
-153.4299761
11
136.7637645
21
-150.0430695
0
LINE
8
0
10
136.7637645
20
-150.0430695
11
133.3768579
21
-163.6272097
0
LINE
8
0
10
137.9733739
20
-145.1915909
11
151.5575141
21
-148.5784975
0
LINE
8
0
10
151.5575141
20
-148.5784975
11
154.9444207
21
-134.9943573
0
LINE
8
0
10
154.9444207
20
-134.9943573
11
141.3602805
21
-131.6074507
0
LINE
8
0
10
141.3602805
20
-131.6074507
11
137.9733739
21
-145.1915909
0
LINE
8
0
10
142.5698899
20
-126.7559721
11
156.1540301
21
-130.1428787
0
LINE
8
0
10
156.1540301
20
-130.1428787
11
159.5409367
21
-116.5587385
0
LINE
8
0
10
159.5409367
20
-116.5587385
11
145.9567965
21
-113.1718319
0
LINE
8
0
10
145.9567965
20
-113.1718319
11
142.5698899
21
-126.7559721
0
LINE
8
0
10
150.9657501
20
-171.6197608
11
164.5498903
21
-175.0066674
0
LINE
8
0
10
164.5498903
20
-175.0066674
11
167.9367969
21
-161.4225272
0
LINE
8
0
10
167.9367969
20
-161.4225272
11
154.3526567
21
-158.0356206
0
LINE
8
0
10
154.3526567
20
-158.0356206
11
150.9657501
21
-171.6197608
0
LINE
8
0
10
155.5622661
20
-153.184142
11
169.1464063
21
-156.5710486
0
LINE
8
0
10
169.1464063
20
-156.5710486
11
172.5333129
21
-142.9869084
0
LINE
8
0
10
172.5333129
20
-142.9869084
11
158.9491727
21
-139.6000018
0
LINE
8
0
10
158.9491727
20
-139.6000018
11
155.5622661
21
-153.184142
0
LINE
8
0
10
160.1587821
20
-134.7485232
11
173.7429223
21
-138.1354298
0
LINE
8
0
10
173.7429223
20
-138.1354298
11
177.1298289
21
-124.5512896
0
LINE
8
0
10
177.1298289
20
-124.5512896
11
163.5456887
21
-121.164383
0
LINE
8
0
10
163.5456887
20
-121.164383
11
160.1587821
21
-134.7485232
0
LINE
8
0
10
127.9336152
20
-185.4588636
11
141.5177554
21
-188.8457702
0
LINE
8
0
10
141.5177554
20
-188.8457702
11
144.904662
21
-175.26163
0
LINE
8
0
10
144.904662
20
-175.26163
11
131.3205218
21
-171.8747234
0
LINE
8
0
10
131.3205218
20
-171.8747234
11
127.9336152
21
-185.4588636
0
LINE
8
0
10
146.7616089
20
-190.9910872
11
158.8244172
21
-198.0966243
0
LINE
8
0
10
158.8244172
20
-198.0966243
11
165.9299543
21
-186.033816
0
LINE
8
0
10
165.9299543
20
-186.033816
11
153.867146
21
-178.9282789
0
LINE
8
0
10
153.867146
20
-178.9282789
11
146.7616089
21
-190.9910872
0
LINE
8
0
10
163.2430243
20
-201.6429313
11
172.7910013
21
-211.8818831
0
LINE
8
0
10
172.7910013
20
-211.8818831
11
183.0299531
21
-202.3339061
0
LINE
8
0
10
183.0299531
20
-202.3339061
11
173.4819761
21
-192.0949543
0
LINE
8
0
10
173.4819761
20
-192.0949543
11
163.2430243
21
-201.6429313
0
LINE
8
0
10
345.6429356
20
-140.3805386
11
359.2270758
21
-136.993632
0
LINE
8
0
10
359.2270758
20
-136.993632
11
355.8401692
21
-123.4094918
0
LINE
8
0
10
355.8401692
20
-123.4094918
11
342.256029
21
-126.7963984
0
LINE
8
0
10
342.256029
20
-126.7963984
11
345.6429356
21
-140.3805386
0
LINE
8
0
10
341.0464196
20
-121.9449198
11
354.6305598
21
-118.5580132
0
LINE
8
0
10
354.6305598
20
-118.5580132
11
351.2436532
21
-104.973873
0
LINE
8
0
10
351.2436532
20
-104.973873
11
337.659513
21
-108.3607796
0
LINE
8
0
10
337.659513
20
-108.3607796
11
341.0464196
21
-121.9449198
0
LINE
8
0
10
331.319989
20
-161.4720819
11
344.9041292
21
-158.0851753
0
LINE
8
0
10
344.9041292
20
-158.0851753
11
341.5172226
21
-144.5010351
0
LINE
8
0
10
341.5172226
20
-144.5010351
11
327.9330824
21
-147.8879417
0
LINE
8
0
10
327.9330824
20
-147.8879417
11
331.319989
21
-161.4720819
0
LINE
8
0
10
326.723473
20
-143.0364631
11
340.3076132
21
-139.6495565
0
LINE
8
0
10
340.3076132
20
-139.6495565
11
336.9207066
21
-126.0654163
0
LINE
8
0
10
336.9207066
20
-126.0654163
11
323.3365664
21
-129.4523229
0
LINE
8
0
10
323.3365664
20
-129.4523229
11
326.723473
21
-143.0364631
0
LINE
8
0
10
322.126957
20
-124.6008443
11
335.7110972
21
-121.2139377
0
LINE
8
0
10
335.7110972
20
-121.2139377
11
332.3241906
21
-107.6297975
0
LINE
8
0
10
332.3241906
20
-107.6297975
11
318.7400504
21
-111.0167041
0
LINE
8
0
10
318.7400504
20
-111.0167041
11
322.126957
21
-124.6008443
0
LINE
8
0
10
310.3441903
20
-155.8804928
11
323.9283305
21
-152.4935862
0
LINE
8
0
10
323.9283305
20
-152.4935862
11
320.5414239
21
-138.909446
0
LINE
8
0
10
320.5414239
20
-138.909446
11
306.9572837
21
-142.2963526
0
LINE
8
0
10
306.9572837
20
-142.2963526
11
310.3441903
21
-155.8804928
0
LINE
8
0
10
305.7476743
20
-137.444874
11
319.3318145
21
-134.0579674
0
LINE
8
0
10
319.3318145
20
-134.0579674
11
315.9449079
21
-120.4738272
0
LINE
8
0
10
315.9449079
20
-120.4738272
11
302.3607677
21
-123.8607338
0
LINE
8
0
10
302.3607677
20
-123.8607338
11
305.7476743
21
-137.444874
0
LINE
8
0
10
301.1511583
20
-119.0092552
11
314.7352985
21
-115.6223486
0
LINE
8
0
10
314.7352985
20
-115.6223486
11
311.3483919
21
-102.0382084
0
LINE
8
0
10
311.3483919
20
-102.0382084
11
297.7642517
21
-105.425115
0
LINE
8
0
10
297.7642517
20
-105.425115
11
301.1511583
21
-119.0092552
0
LINE
8
0
10
291.1828058
20
-157.5661217
11
304.766946
21
-154.1792151
0
LINE
8
0
10
304.766946
20
-154.1792151
11
301.3800394
21
-140.5950749
0
LINE
8
0
10
301.3800394
20
-140.5950749
11
287.7958992
21
-143.9819815
0
LINE
8
0
10
287.7958992
20
-143.9819815
11
291.1828058
21
-157.5661217
0
LINE
8
0
10
286.5862898
20
-139.1305029
11
300.17043
21
-135.7435963
0
LINE
8
0
10
300.17043
20
-135.7435963
11
296.7835234
21
-122.1594561
0
LINE
8
0
10
296.7835234
20
-122.1594561
11
283.1993832
21
-125.5463627
0
LINE
8
0
10
283.1993832
20
-125.5463627
11
286.5862898
21
-139.1305029
0
LINE
8
0
10
281.9897738
20
-120.6948841
11
295.573914
21
-117.3079775
0
LINE
8
0
10
295.573914
20
-117.3079775
11
292.1870074
21
-103.7238373
0
LINE
8
0
10
292.1870074
20
-103.7238373
11
278.6028672
21
-107.1107439
0
LINE
8
0
10
278.6028672
20
-107.1107439
11
281.9897738
21
-120.6948841
0
LINE
8
0
10
273.9567965
20
-167.0141163
11
287.5409367
21
-163.6272097
0
LINE
8
0
10
287.5409367
20
-163.6272097
11
284.1540301
21
-150.0430695
0
LINE
8
0
10
284.1540301
20
-150.0430695
11
270.5698899
21
-153.4299761
0
LINE
8
0
10
270.5698899
20
-153.4299761
11
273.9567965
21
-167.0141163
0
LINE
8
0
10
269.3602805
20
-148.5784975
11
282.9444207
21
-145.1915909
0
LINE
8
0
10
282.9444207
20
-145.1915909
11
279.5575141
21
-131.6074507
0
LINE
8
0
10
279.5575141
20
-131.6074507
11
265.9733739
21
-134.9943573
0
LINE
8
0
10
265.9733739
20
-134.9943573
11
269.3602805
21
-148.5784975
0
LINE
8
0
10
264.7637645
20
-130.1428787
11
278.3479047
21
-126.7559721
0
LINE
8
0
10
278.3479047
20
-126.7559721
11
274.9609981
21
-113.1718319
0
LINE
8
0
10
274.9609981
20
-113.1718319
11
261.3768579
21
-116.5587385
0
LINE
8
0
10
261.3768579
20
-116.5587385
11
264.7637645
21
-130.1428787
0
LINE
8
0
10
256.3679043
20
-175.0066674
11
269.9520445
21
-171.6197608
0
LINE
8
0
10
269.9520445
20
-171.6197608
11
266.5651379
21
-158.0356206
0
LINE
8
0
10
266.5651379
20
-158.0356206
11
252.9809977
21
-161.4225272
0
LINE
8
0
10
252.9809977
20
-161.4225272
11
256.3679043
21
-175.0066674
0
LINE
8
0
10
251.7713883
20
-156.5710486
11
265.3555285
21
-153.184142
0
LINE
8
0
10
265.3555285
20
-153.184142
11
261.9686219
21
-139.6000018
0
LINE
8
0
10
261.9686219
20
-139.6000018
11
248.3844817
21
-142.9869084
0
LINE
8
0
10
248.3844817
20
-142.9869084
11
251.7713883
21
-156.5710486
0
LINE
8
0
10
247.1748723
20
-138.1354298
11
260.7590125
21
-134.7485232
0
LINE
8
0
10
260.7590125
20
-134.7485232
11
257.3721059
21
-121.164383
0
LINE
8
0
10
257.3721059
20
-121.164383
11
243.7879657
21
-124.5512896
0
LINE
8
0
10
243.7879657
20
-124.5512896
11
247.1748723
21
-138.1354298
0
LINE
8
0
10
279.4000392
20
-188.8457702
11
292.9841794
21
-185.4588636
0
LINE
8
0
10
292.9841794
20
-185.4588636
11
289.5972728
21
-171.8747234
0
LINE
8
0
10
289.5972728
20
-171.8747234
11
276.0131326
21
-175.26163
0
LINE
8
0
10
276.0131326
20
-175.26163
11
279.4000392
21
-188.8457702
0
LINE
8
0
10
262.0933774
20
-198.0966243
11
274.1561857
21
-190.9910872
0
LINE
8
0
10
274.1561857
20
-190.9910872
11
267.0506486
21
-178.9282789
0
LINE
8
0
10
267.0506486
20
-178.9282789
11
254.9878403
21
-186.033816
0
LINE
8
0
10
254.9878403
20
-186.033816
11
262.0933774
21
-198.0966243
0
LINE
8
0
10
248.1267933
20
-211.8818831
11
257.6747703
21
-201.6429313
0
LINE
8
0
10
257.6747703
20
-201.6429313
11
247.4358185
21
-192.0949543
0
LINE
8
0
10
247.4358185
20
-192.0949543
11
237.8878415
21
-202.3339061
0
LINE
8
0
10
237.8878415
20
-202.3339061
11
248.1267933
21
-211.8818831
0
ENDSEC
0
EOF