0
SECTION
2
HEADER
9
$INSUNITS
70
4
0
ENDSEC
0
SECTION
2
TABLES
0
TABLE
2
LTYPE
0
LTYPE
72
65
70
64
2
CONTINUOUS
3
______
73
0
40
0
0
ENDTAB
0
TABLE
2
LAYER
0
ENDTAB
0
ENDSEC
0
SECTION
2
ENTITIES
0
LINE
8
0
10
342.8162932
20
-146.148961
11
360.2029582
21
-141.4902182
0
ARC
8
0
10
359.9441391
20
-140.5242924
40
1
50
284.9999999
51
374.9999994
0
LINE
8
0
10
350.5574188
20
-101.6288724
11
360.9100649
21
-140.2654734
0
ARC
8
0
10
349.5913773
20
-101.8872594
40
1
50
15
51
104.9999999
0
LINE
8
0
10
313.5933026
20
-110.4976383
11
349.3325582
21
-100.9213335
0
LINE
8
0
10
313.5933026
20
-110.4976383
11
311.1345217
21
-101.3213429
0
ARC
8
0
10
310.1685959
20
-101.580162
40
1
50
14.9999999
51
104.9999999
0
LINE
8
0
10
309.9097769
20
-100.6142362
11
292.523112
21
-105.272979
0
LINE
8
0
10
292.523112
20
-105.272979
11
292.0054739
21
-103.3411272
0
ARC
8
0
10
291.0395481
20
-103.5999463
40
1
50
14.9999999
51
104.9999999
0
LINE
8
0
10
290.7807291
20
-102.6340205
11
270.4962868
21
-108.0692204
0
ARC
8
0
10
270.7551058
20
-109.0351462
40
1
50
104.9999999
51
194.9999979
0
LINE
8
0
10
269.78918
20
-109.2939652
11
270.8244562
21
-113.1576686
0
LINE
8
0
10
270.8244562
20
-113.1576686
11
253.4377912
21
-117.8164114
0
ARC
8
0
10
253.6966103
20
-118.7823372
40
1
50
104.9999999
51
194.9999994
0
LINE
8
0
10
252.7306845
20
-119.0411562
11
252.8600941
21
-119.5241192
0
LINE
8
0
10
252.8600941
20
-119.5241192
11
235.4734292
21
-124.182862
0
ARC
8
0
10
235.7322482
20
-125.1487878
40
1
50
104.9999986
51
195
0
LINE
8
0
10
234.7663224
20
-125.4076068
11
250.036646
21
-182.3972305
0
ARC
8
0
10
251.0025718
20
-182.1384115
40
1
50
194.9999979
51
284.9999999
0
LINE
8
0
10
251.2613908
20
-183.1043373
11
263.7714546
21
-179.7522759
0
LINE
8
0
10
263.7714546
20
-179.7522759
11
256.1308532
21
-184.4344425
0
ARC
8
0
10
256.6533518
20
-185.2870826
40
1
50
121.5
51
211.5000011
0
LINE
8
0
10
255.8007116
20
-185.8095812
11
258.0252181
21
-189.4396458
0
ARC
8
0
10
258.065011
20
-190.4388537
40
1
50
92.2805675
51
131.4999955
0
LINE
8
0
10
257.402391
20
-189.689898
11
241.6743208
21
-203.604919
0
ARC
8
0
10
242.3369408
20
-204.3538747
40
1
50
131.4999999
51
221.4999987
0
LINE
8
0
10
241.5879851
20
-205.0164947
11
255.5030061
21
-220.7445649
0
ARC
8
0
10
256.2519618
20
-220.0819449
40
1
50
221.4999987
51
311.4999999
0
LINE
8
0
10
256.9145818
20
-220.8309006
11
272.642652
21
-206.9158796
0
ARC
8
0
10
271.980032
20
-206.1669239
40
1
50
311.4999999
51
401.4999987
0
LINE
8
0
10
272.7289877
20
-205.5043039
11
270.2815171
21
-202.7379416
0
LINE
8
0
10
270.2815171
20
-202.7379416
11
284.9538702
21
-193.7467121
0
LINE
8
0
10
284.9538702
20
-193.7467121
11
303.9922811
21
-188.6453853
0
ARC
8
0
10
303.733462
20
-187.6794595
40
1
50
284.9999999
51
374.9999995
0
LINE
8
0
10
298.3583212
20
-163.7554577
11
304.6993878
21
-187.4206405
0
LINE
8
0
10
298.3583212
20
-163.7554577
11
303.6709134
21
-162.3319529
0
LINE
8
0
10
303.6709134
20
-162.3319529
11
304.1885514
21
-164.2638047
0
ARC
8
0
10
305.1544773
20
-164.0049856
40
1
50
195.0000004
51
284.9999999
0
LINE
8
0
10
305.4132963
20
-164.9709114
11
322.7999612
21
-160.3121686
0
LINE
8
0
10
322.7999612
20
-160.3121686
11
325.2587421
21
-169.488464
0
ARC
8
0
10
326.2246679
20
-169.2296449
40
1
50
195.0000019
51
284.9999999
0
LINE
8
0
10
326.4834869
20
-170.1955707
11
346.7679292
21
-164.7603708
0
ARC
8
0
10
346.5091102
20
-163.794445
40
1
50
284.9999999
51
374.9999979
0
LINE
8
0
10
347.475036
20
-163.535626
11
342.8162932
21
-146.148961
0
LINE
8
0
10
276.0895718
20
-174.898732
11
277.4361226
21
-174.5379249
0
LINE
8
0
10
277.4361226
20
-174.5379249
11
278.6541872
21
-179.0838039
0
LINE
8
0
10
278.6541872
20
-179.0838039
11
276.0895718
21
-174.898732
0
ENDSEC
0
EOF