0
SECTION
2
HEADER
9
$INSUNITS
70
4
0
ENDSEC
0
SECTION
2
TABLES
0
TABLE
2
LTYPE
0
LTYPE
72
65
70
64
2
CONTINUOUS
3
______
73
0
40
0
0
ENDTAB
0
TABLE
2
LAYER
0
ENDTAB
0
ENDSEC
0
SECTION
2
ENTITIES
0
LINE
8
0
10
342.8162932
20
-146.148961
11
360.2029582
21
-141.4902182
0
ARC
8
0
10
359.9441391
20
-140.5242924
40
1
50
284.9999999
51
374.9999994
0
LINE
8
0
10
350.5574188
20
-101.6288724
11
360.9100649
21
-140.2654734
0
ARC
8
0
10
349.5913773
20
-101.8872594
40
1
50
15
51
104.9999999
0
LINE
8
0
10
313.5933026
20
-110.4976383
11
349.3325582
21
-100.9213335
0
LINE
8
0
10
313.5933026
20
-110.4976383
11
311.1345217
21
-101.3213429
0
ARC
8
0
10
310.1685959
20
-101.580162
40
1
50
14.9999999
51
104.9999999
0
LINE
8
0
10
309.9097769
20
-100.6142362
11
292.523112
21
-105.272979
0
LINE
8
0
10
292.523112
20
-105.272979
11
292.0054739
21
-103.3411272
0
ARC
8
0
10
291.0395481
20
-103.5999463
40
1
50
14.9999999
51
104.9999999
0
LINE
8
0
10
290.7807291
20
-102.6340205
11
270.4962868
21
-108.0692204
0
ARC
8
0
10
270.7551058
20
-109.0351462
40
1
50
104.9999999
51
194.9999979
0
LINE
8
0
10
269.78918
20
-109.2939652
11
270.8244562
21
-113.1576686
0
LINE
8
0
10
270.8244562
20
-113.1576686
11
253.4377912
21
-117.8164114
0
ARC
8
0
10
253.6966103
20
-118.7823372
40
1
50
104.9999999
51
194.9999994
0
LINE
8
0
10
252.7306845
20
-119.0411562
11
252.8600941
21
-119.5241192
0
LINE
8
0
10
252.8600941
20
-119.5241192
11
235.4734292
21
-124.182862
0
ARC
8
0
10
235.7322482
20
-125.1487878
40
1
50
104.9999986
51
195
0
LINE
8
0
10
234.7663224
20
-125.4076068
11
250.036646
21
-182.3972305
0
ARC
8
0
10
251.0025718
20
-182.1384115
40
1
50
194.9999979
51
284.9999999
0
LINE
8
0
10
251.2613908
20
-183.1043373
11
263.7714546
21
-179.7522759
0
LINE
8
0
10
263.7714546
20
-179.7522759
11
256.1308532
21
-184.4344425
0
ARC
8
0
10
256.6533518
20
-185.2870826
40
1
50
121.5
51
211.5000011
0
LINE
8
0
10
255.8007116
20
-185.8095812
11
258.0252181
21
-189.4396458
0
ARC
8
0
10
258.065011
20
-190.4388537
40
1
50
92.2805675
51
131.4999955
0
LINE
8
0
10
257.402391
20
-189.689898
11
241.6743208
21
-203.604919
0
ARC
8
0
10
242.3369408
20
-204.3538747
40
1
50
131.4999999
51
221.4999987
0
LINE
8
0
10
241.5879851
20
-205.0164947
11
255.5030061
21
-220.7445649
0
ARC
8
0
10
256.2519618
20
-220.0819449
40
1
50
221.4999987
51
311.4999999
0
LINE
8
0
10
256.9145818
20
-220.8309006
11
272.642652
21
-206.9158796
0
ARC
8
0
10
271.980032
20
-206.1669239
40
1
50
311.4999999
51
401.4999987
0
LINE
8
0
10
272.7289877
20
-205.5043039
11
270.2815171
21
-202.7379416
0
LINE
8
0
10
270.2815171
20
-202.7379416
11
284.9538702
21
-193.7467121
0
LINE
8
0
10
284.9538702
20
-193.7467121
11
303.9922811
21
-188.6453853
0
ARC
8
0
10
303.733462
20
-187.6794595
40
1
50
284.9999999
51
374.9999995
0
LINE
8
0
10
298.3583212
20
-163.7554577
11
304.6993878
21
-187.4206405
0
LINE
8
0
10
298.3583212
20
-163.7554577
11
303.6709134
21
-162.3319529
0
LINE
8
0
10
303.6709134
20
-162.3319529
11
304.1885514
21
-164.2638047
0
ARC
8
0
10
305.1544773
20
-164.0049856
40
1
50
195.0000004
51
284.9999999
0
LINE
8
0
10
305.4132963
20
-164.9709114
11
322.7999612
21
-160.3121686
0
LINE
8
0
10
322.7999612
20
-160.3121686
11
325.2587421
21
-169.488464
0
ARC
8
0
10
326.2246679
20
-169.2296449
40
1
50
195.0000019
51
284.9999999
0
LINE
8
0
10
326.4834869
20
-170.1955707
11
346.7679292
21
-164.7603708
0
ARC
8
0
10
346.5091102
20
-163.794445
40
1
50
284.9999999
51
374.9999979
0
LINE
8
0
10
347.475036
20
-163.535626
11
342.8162932
21
-146.148961
0
LINE
8
0
10
276.0895718
20
-174.898732
11
277.4361226
21
-174.5379249
0
LINE
8
0
10
277.4361226
20
-174.5379249
11
278.6541872
21
-179.0838039
0
LINE
8
0
10
278.6541872
20
-179.0838039
11
276.0895718
21
-174.898732
0
LINE
8
0
10
342.1345705
20
-141.6728853
11
355.6575321
21
-138.0494187
0
LINE
8
0
10
355.6575321
20
-138.0494187
11
352.0340655
21
-124.5264571
0
LINE
8
0
10
352.0340655
20
-124.5264571
11
338.5111039
21
-128.1499237
0
LINE
8
0
10
338.5111039
20
-128.1499237
11
342.1345705
21
-141.6728853
0
LINE
8
0
10
337.2170086
20
-123.3202946
11
350.7399702
21
-119.696828
0
LINE
8
0
10
350.7399702
20
-119.696828
11
347.1165036
21
-106.1738664
0
LINE
8
0
10
347.1165036
20
-106.1738664
11
333.593542
21
-109.797333
0
LINE
8
0
10
333.593542
20
-109.797333
11
337.2170086
21
-123.3202946
0
LINE
8
0
10
328.6995416
20
-164.9430379
11
342.2225032
21
-161.3195713
0
LINE
8
0
10
342.2225032
20
-161.3195713
11
338.5990366
21
-147.7966097
0
LINE
8
0
10
338.5990366
20
-147.7966097
11
325.076075
21
-151.4200763
0
LINE
8
0
10
325.076075
20
-151.4200763
11
328.6995416
21
-164.9430379
0
LINE
8
0
10
323.7819798
20
-146.5904472
11
337.3049414
21
-142.9669806
0
LINE
8
0
10
337.3049414
20
-142.9669806
11
333.6814748
21
-129.444019
0
LINE
8
0
10
333.6814748
20
-129.444019
11
320.1585132
21
-133.0674856
0
LINE
8
0
10
320.1585132
20
-133.0674856
11
323.7819798
21
-146.5904472
0
LINE
8
0
10
318.8644179
20
-128.2378565
11
332.3873795
21
-124.6143899
0
LINE
8
0
10
332.3873795
20
-124.6143899
11
328.7639129
21
-111.0914283
0
LINE
8
0
10
328.7639129
20
-111.0914283
11
315.2409513
21
-114.7148949
0
LINE
8
0
10
315.2409513
20
-114.7148949
11
318.8644179
21
-128.2378565
0
LINE
8
0
10
307.629351
20
-159.7183786
11
321.1523126
21
-156.094912
0
LINE
8
0
10
321.1523126
20
-156.094912
11
317.528846
21
-142.5719504
0
LINE
8
0
10
317.528846
20
-142.5719504
11
304.0058844
21
-146.195417
0
LINE
8
0
10
304.0058844
20
-146.195417
11
307.629351
21
-159.7183786
0
LINE
8
0
10
302.7117891
20
-141.3657879
11
316.2347507
21
-137.7423213
0
LINE
8
0
10
316.2347507
20
-137.7423213
11
312.6112841
21
-124.2193597
0
LINE
8
0
10
312.6112841
20
-124.2193597
11
299.0883225
21
-127.8428263
0
LINE
8
0
10
299.0883225
20
-127.8428263
11
302.7117891
21
-141.3657879
0
LINE
8
0
10
297.7942272
20
-123.0131972
11
311.3171888
21
-119.3897306
0
LINE
8
0
10
311.3171888
20
-119.3897306
11
307.6937222
21
-105.866769
0
LINE
8
0
10
307.6937222
20
-105.866769
11
294.1707606
21
-109.4902356
0
LINE
8
0
10
294.1707606
20
-109.4902356
11
297.7942272
21
-123.0131972
0
LINE
8
0
10
288.5003031
20
-161.7381629
11
302.0232647
21
-158.1146963
0
LINE
8
0
10
302.0232647
20
-158.1146963
11
298.3997981
21
-144.5917347
0
LINE
8
0
10
298.3997981
20
-144.5917347
11
284.8768365
21
-148.2152013
0
LINE
8
0
10
284.8768365
20
-148.2152013
11
288.5003031
21
-161.7381629
0
LINE
8
0
10
283.5827413
20
-143.3855722
11
297.1057029
21
-139.7621056
0
LINE
8
0
10
297.1057029
20
-139.7621056
11
293.4822363
21
-126.239144
0
LINE
8
0
10
293.4822363
20
-126.239144
11
279.9592747
21
-129.8626106
0
LINE
8
0
10
279.9592747
20
-129.8626106
11
283.5827413
21
-143.3855722
0
LINE
8
0
10
278.6651794
20
-125.0329815
11
292.188141
21
-121.4095149
0
LINE
8
0
10
292.188141
20
-121.4095149
11
288.5646744
21
-107.8865533
0
LINE
8
0
10
288.5646744
20
-107.8865533
11
275.0417128
21
-111.5100199
0
LINE
8
0
10
275.0417128
20
-111.5100199
11
278.6651794
21
-125.0329815
0
LINE
8
0
10
271.4418077
20
-171.4853539
11
284.9647693
21
-167.8618873
0
LINE
8
0
10
284.9647693
20
-167.8618873
11
281.3413027
21
-154.3389257
0
LINE
8
0
10
281.3413027
20
-154.3389257
11
267.8183411
21
-157.9623923
0
LINE
8
0
10
267.8183411
20
-157.9623923
11
271.4418077
21
-171.4853539
0
LINE
8
0
10
266.5242458
20
-153.1327632
11
280.0472074
21
-149.5092966
0
LINE
8
0
10
280.0472074
20
-149.5092966
11
276.4237408
21
-135.986335
0
LINE
8
0
10
276.4237408
20
-135.986335
11
262.9007792
21
-139.6098016
0
LINE
8
0
10
262.9007792
20
-139.6098016
11
266.5242458
21
-153.1327632
0
LINE
8
0
10
261.6066839
20
-134.7801725
11
275.1296455
21
-131.1567059
0
LINE
8
0
10
275.1296455
20
-131.1567059
11
271.5061789
21
-117.6337443
0
LINE
8
0
10
271.5061789
20
-117.6337443
11
257.9832173
21
-121.2572109
0
LINE
8
0
10
257.9832173
20
-121.2572109
11
261.6066839
21
-134.7801725
0
LINE
8
0
10
253.4774455
20
-177.8518045
11
267.0004071
21
-174.2283379
0
LINE
8
0
10
267.0004071
20
-174.2283379
11
263.3769405
21
-160.7053763
0
LINE
8
0
10
263.3769405
20
-160.7053763
11
249.8539789
21
-164.3288429
0
LINE
8
0
10
249.8539789
20
-164.3288429
11
253.4774455
21
-177.8518045
0
LINE
8
0
10
248.5598837
20
-159.4992138
11
262.0828453
21
-155.8757472
0
LINE
8
0
10
262.0828453
20
-155.8757472
11
258.4593787
21
-142.3527856
0
LINE
8
0
10
258.4593787
20
-142.3527856
11
244.9364171
21
-145.9762522
0
LINE
8
0
10
244.9364171
20
-145.9762522
11
248.5598837
21
-159.4992138
0
LINE
8
0
10
243.6423218
20
-141.1466231
11
257.1652834
21
-137.5231565
0
LINE
8
0
10
257.1652834
20
-137.5231565
11
253.5418168
21
-124.0001949
0
LINE
8
0
10
253.5418168
20
-124.0001949
11
240.0188552
21
-127.6236615
0
LINE
8
0
10
240.0188552
20
-127.6236615
11
243.6423218
21
-141.1466231
0
LINE
8
0
10
285.9238934
20
-188.8280524
11
299.446855
21
-185.2045858
0
LINE
8
0
10
299.446855
20
-185.2045858
11
295.8233884
21
-171.6816242
0
LINE
8
0
10
295.8233884
20
-171.6816242
11
282.3004268
21
-175.3050908
0
LINE
8
0
10
282.3004268
20
-175.3050908
11
285.9238934
21
-188.8280524
0
LINE
8
0
10
268.7813173
20
-198.3795405
11
280.7182796
21
-191.0645606
0
LINE
8
0
10
280.7182796
20
-191.0645606
11
273.4032997
21
-179.1275983
0
LINE
8
0
10
273.4032997
20
-179.1275983
11
261.4663374
21
-186.4425782
0
LINE
8
0
10
261.4663374
20
-186.4425782
11
268.7813173
21
-198.3795405
0
LINE
8
0
10
256.5541367
20
-215.1414297
11
267.0395168
21
-205.864749
0
LINE
8
0
10
267.0395168
20
-205.864749
11
257.7628361
21
-195.3793689
0
LINE
8
0
10
257.7628361
20
-195.3793689
11
247.277456
21
-204.6560496
0
LINE
8
0
10
247.277456
20
-204.6560496
11
256.5541367
21
-215.1414297
0
ENDSEC
0
EOF