0
SECTION
2
HEADER
9
$INSUNITS
70
4
0
ENDSEC
0
SECTION
2
TABLES
0
TABLE
2
LTYPE
0
LTYPE
72
65
70
64
2
CONTINUOUS
3
______
73
0
40
0
0
ENDTAB
0
TABLE
2
LAYER
0
ENDTAB
0
ENDSEC
0
SECTION
2
ENTITIES
0
LINE
8
0
10
57.2060353
20
-140.5132361
11
74.6713584
21
-144.8678303
0
LINE
8
0
10
74.6713584
20
-144.8678303
11
70.8006081
21
-160.3925618
0
ARC
8
0
10
71.7709038
20
-160.6344837
40
1
50
166.0000006
51
256
0
LINE
8
0
10
71.5289819
20
-161.6047794
11
91.9051921
21
-166.6851392
0
ARC
8
0
10
92.147114
20
-165.7148435
40
1
50
256
51
345.9999994
0
LINE
8
0
10
93.1174097
20
-165.9567654
11
95.4156677
21
-156.738956
0
LINE
8
0
10
95.4156677
20
-156.738956
11
112.8809908
21
-161.0935501
0
ARC
8
0
10
113.1229127
20
-160.1232544
40
1
50
256
51
345.9999982
0
LINE
8
0
10
114.0932084
20
-160.3651763
11
114.5770522
21
-158.4245849
0
LINE
8
0
10
114.5770522
20
-158.4245849
11
129.1314881
21
-162.0534134
0
LINE
8
0
10
122.7205579
20
-187.7662501
11
129.1314881
21
-162.0534134
0
ARC
8
0
10
123.6908536
20
-188.008172
40
1
50
165.9999999
51
255.9999994
0
LINE
8
0
10
123.4489317
20
-188.9784677
11
142.5734739
21
-193.7467517
0
LINE
8
0
10
142.5734739
20
-193.7467517
11
158.444707
21
-203.0956223
0
LINE
8
0
10
158.444707
20
-203.0956223
11
171.8869039
21
-217.5106137
0
ARC
8
0
10
172.6182576
20
-216.8286153
40
1
50
222.9999999
51
312.9999994
0
LINE
8
0
10
173.300256
20
-217.559969
11
188.6586837
21
-203.2380035
0
ARC
8
0
10
187.9766853
20
-202.5066498
40
1
50
312.9999999
51
403.0000017
0
LINE
8
0
10
188.708039
20
-201.8246514
11
174.3860735
21
-186.4662237
0
ARC
8
0
10
173.6547198
20
-187.1482221
40
1
50
42.9999999
51
133.0000017
0
LINE
8
0
10
172.9727214
20
-186.4168684
11
168.4337651
21
-190.6495136
0
LINE
8
0
10
168.4337651
20
-190.6495136
11
171.5836698
21
-185.3020365
0
ARC
8
0
10
170.7220406
20
-184.7944982
40
1
50
329.5000001
51
419.5000002
0
LINE
8
0
10
171.229579
20
-183.932869
11
163.5084262
21
-179.3847625
0
LINE
8
0
10
163.5084262
20
-179.3847625
11
166.8572768
21
-180.2197247
0
ARC
8
0
10
167.0991987
20
-179.249429
40
1
50
256
51
345.9999982
0
LINE
8
0
10
168.0694944
20
-179.4913509
11
172.9608441
21
-159.8732188
0
LINE
8
0
10
247.9569505
20
-159.8732188
11
172.9608441
21
-159.8732188
0
LINE
8
0
10
247.9569505
20
-159.8732188
11
252.8483002
21
-179.4913509
0
ARC
8
0
10
253.8185959
20
-179.249429
40
1
50
194.0000006
51
284
0
LINE
8
0
10
254.0605178
20
-180.2197247
11
257.4093684
21
-179.3847625
0
LINE
8
0
10
257.4093684
20
-179.3847625
11
249.6882156
21
-183.9328691
0
ARC
8
0
10
250.195754
20
-184.7944982
40
1
50
120.4999999
51
210.5000016
0
LINE
8
0
10
249.3341248
20
-185.3020366
11
252.4840295
21
-190.6495136
0
LINE
8
0
10
252.4840295
20
-190.6495136
11
247.9450732
21
-186.4168684
0
ARC
8
0
10
247.2630748
20
-187.1482221
40
1
50
47.0000001
51
136.9999969
0
LINE
8
0
10
246.5317211
20
-186.4662237
11
232.2097556
21
-201.8246514
0
ARC
8
0
10
232.9411093
20
-202.5066498
40
1
50
137.0000001
51
226.9999983
0
LINE
8
0
10
232.2591109
20
-203.2380035
11
247.6175386
21
-217.559969
0
ARC
8
0
10
248.299537
20
-216.8286153
40
1
50
226.9999983
51
317.0000001
0
LINE
8
0
10
249.0308907
20
-217.5106137
11
262.4730874
21
-203.0956225
0
LINE
8
0
10
262.4730874
20
-203.0956225
11
278.3443206
21
-193.7467516
0
LINE
8
0
10
278.3443206
20
-193.7467516
11
297.4688629
21
-188.9784677
0
ARC
8
0
10
297.226941
20
-188.008172
40
1
50
283.9999989
51
14.0000001
0
LINE
8
0
10
291.7863064
20
-162.0534133
11
298.1972367
21
-187.7662501
0
LINE
8
0
10
291.7863064
20
-162.0534133
11
306.3407424
21
-158.4245849
0
LINE
8
0
10
306.3407424
20
-158.4245849
11
306.8245861
21
-160.3651763
0
ARC
8
0
10
307.7948819
20
-160.1232544
40
1
50
193.999998
51
284
0
LINE
8
0
10
308.0368038
20
-161.0935501
11
325.5021269
21
-156.738956
0
LINE
8
0
10
325.5021269
20
-156.738956
11
327.8003849
21
-165.9567654
0
ARC
8
0
10
328.7706806
20
-165.7148435
40
1
50
193.9999994
51
284
0
LINE
8
0
10
329.0126025
20
-166.6851392
11
349.3888127
21
-161.6047794
0
ARC
8
0
10
349.1468908
20
-160.6344837
40
1
50
284
51
374.0000006
0
LINE
8
0
10
350.1171865
20
-160.3925618
11
346.2464362
21
-144.8678302
0
LINE
8
0
10
346.2464362
20
-144.8678302
11
363.7117593
21
-140.5132361
0
ARC
8
0
10
363.4698374
20
-139.5429404
40
1
50
284
51
374.0000018
0
LINE
8
0
10
351.0134679
20
-85.4496058
11
364.4401331
21
-139.3010185
0
ARC
8
0
10
350.0431722
20
-85.6915277
40
1
50
14
51
104.0000006
0
LINE
8
0
10
274.1181837
20
-103.5911398
11
349.8012503
21
-84.721232
0
ARC
8
0
10
274.3601056
20
-104.5614355
40
1
50
104
51
194.0000006
0
LINE
8
0
10
273.3898099
20
-104.8033574
11
274.3574974
21
-108.6845403
0
LINE
8
0
10
274.3574974
20
-108.6845403
11
256.8921744
21
-113.0391344
0
ARC
8
0
10
257.1340963
20
-114.0094301
40
1
50
104
51
194.0000018
0
LINE
8
0
10
256.1639089
20
-114.2517859
11
256.7686053
21
-116.6770914
0
LINE
8
0
10
256.7686053
20
-116.6770914
11
239.4224196
21
-121.0019812
0
LINE
8
0
10
181.495375
20
-121.0019812
11
239.4224196
21
-121.0019812
0
LINE
8
0
10
181.495375
20
-121.0019812
11
164.1491893
21
-116.6770913
0
LINE
8
0
10
164.1491893
20
-116.6770913
11
164.7539941
21
-114.251352
0
ARC
8
0
10
163.7836983
20
-114.0094301
40
1
50
346
51
435.9999968
0
LINE
8
0
10
164.0256202
20
-113.0391344
11
146.5602971
21
-108.6845403
0
LINE
8
0
10
146.5602971
20
-108.6845403
11
147.5279847
21
-104.8033574
0
ARC
8
0
10
146.557689
20
-104.5614355
40
1
50
346
51
436.0000013
0
LINE
8
0
10
71.1165443
20
-84.721232
11
146.7996109
21
-103.5911398
0
ARC
8
0
10
70.8746224
20
-85.6915277
40
1
50
435.9999994
51
166
0
LINE
8
0
10
56.4776615
20
-139.3010185
11
69.9043267
21
-85.4496058
0
ARC
8
0
10
57.4479572
20
-139.5429404
40
1
50
165.9999994
51
256
0
LINE
8
0
10
149.3919537
20
-175.8651306
11
150.3134743
21
-176.0948914
0
LINE
8
0
10
150.3134743
20
-176.0948914
11
148.6162939
21
-178.9761321
0
LINE
8
0
10
148.6162939
20
-178.9761321
11
149.3919537
21
-175.8651306
0
LINE
8
0
10
270.6043203
20
-176.0948915
11
271.525841
21
-175.8651306
0
LINE
8
0
10
271.525841
20
-175.8651306
11
272.3015007
21
-178.976132
0
LINE
8
0
10
272.3015007
20
-178.976132
11
270.6043203
21
-176.0948915
0
ENDSEC
0
EOF