0
SECTION
2
HEADER
9
$INSUNITS
70
4
0
ENDSEC
0
SECTION
2
TABLES
0
TABLE
2
LTYPE
0
LTYPE
72
65
70
64
2
CONTINUOUS
3
______
73
0
40
0
0
ENDTAB
0
TABLE
2
LAYER
0
ENDTAB
0
ENDSEC
0
SECTION
2
ENTITIES
0
LINE
8
0
10
261.9187263
20
-220.1714173
11
213.7171468
21
-220.1714173
0
LINE
8
0
10
149.1227854
20
-220.1714173
11
100.9212059
21
-220.1714173
0
LINE
8
0
10
209.0023613
20
-220.1714173
11
153.8375709
21
-220.1714173
0
ARC
8
0
10
100.9212059
20
-214.1714173
40
6
50
222.8979134
51
270
0
LINE
8
0
10
96.5257997
20
-218.2555825
11
52.5526591
21
-170.9313903
0
ARC
8
0
10
56.9480652
20
-166.8472251
40
6
50
205.0000017
51
222.8979134
0
LINE
8
0
10
51.5102186
20
-169.3829348
11
41.3626531
21
-147.6214099
0
ARC
8
0
10
46.8003107
20
-145.085295
40
6
50
160.0000019
51
205.0000017
0
LINE
8
0
10
41.1623079
20
-143.032754
11
59.946977
21
-91.4222996
0
ARC
8
0
10
65.5851328
20
-93.4744203
40
6
50
85.4463181
51
160.0000019
0
LINE
8
0
10
66.0614914
20
-87.49336
11
101.2853728
21
-90.2987498
0
ARC
8
0
10
100.8090142
20
-96.2798101
40
6
50
78.9726294
51
85.4463181
0
LINE
8
0
10
101.9566816
20
-90.3905945
11
120.1742915
21
-93.9407723
0
ARC
8
0
10
119.026624
20
-99.8299879
40
6
50
70.0000019
51
78.9679519
0
LINE
8
0
10
121.079165
20
-94.1919851
11
141.7361433
21
-101.7105104
0
ARC
8
0
10
139.6840226
20
-107.3486662
40
6
50
60.293349
51
70.0000019
0
LINE
8
0
10
142.6573796
20
-102.1372222
11
174.6220558
21
-120.3744707
0
ARC
8
0
10
176.6042937
20
-116.9001747
40
4
50
240.293349
51
270
0
LINE
8
0
10
176.6042937
20
-120.9001747
11
186.2356385
21
-120.9001747
0
ARC
8
0
10
186.2356385
20
-116.9001747
40
4
50
270
51
299.706651
0
LINE
8
0
10
188.2178764
20
-120.3744707
11
220.1825526
21
-102.1372222
0
ARC
8
0
10
223.1559096
20
-107.3486662
40
6
50
109.9999981
51
119.706651
0
LINE
8
0
10
221.1042091
20
-101.7103575
11
241.7611875
21
-94.1918321
0
ARC
8
0
10
243.8133082
20
-99.8299879
40
6
50
101.0273706
51
109.9999981
0
LINE
8
0
10
242.6656408
20
-93.9407724
11
260.8832506
21
-90.3905946
0
ARC
8
0
10
262.030918
20
-96.2798101
40
6
50
94.5536819
51
101.0273706
0
LINE
8
0
10
261.5545594
20
-90.2987497
11
296.7784407
21
-87.49336
0
ARC
8
0
10
297.2547994
20
-93.4744203
40
6
50
19.9999981
51
94.5536819
0
LINE
8
0
10
302.8931081
20
-91.4227198
11
321.6776243
21
-143.032754
0
ARC
8
0
10
316.0396215
20
-145.085295
40
6
50
334.9999983
51
379.9999981
0
LINE
8
0
10
321.4774682
20
-147.6210047
11
311.3299026
21
-169.3825294
0
ARC
8
0
10
305.891867
20
-166.8472251
40
6
50
317.1020866
51
334.9999983
0
LINE
8
0
10
310.2872731
20
-170.9313902
11
266.3141324
21
-218.2555824
0
ARC
8
0
10
261.9187263
20
-214.1714173
40
6
50
270
51
317.1020866
0
LINE
8
0
10
47.0330369
20
-142.6916025
11
60.1887335
21
-147.4798845
0
LINE
8
0
10
60.1887335
20
-147.4798845
11
64.9770155
21
-134.3241879
0
LINE
8
0
10
64.9770155
20
-134.3241879
11
51.8213189
21
-129.5359059
0
LINE
8
0
10
51.8213189
20
-129.5359059
11
47.0330369
21
-142.6916025
0
LINE
8
0
10
53.5314196
20
-124.8374427
11
66.6871162
21
-129.6257247
0
LINE
8
0
10
66.6871162
20
-129.6257247
11
71.4753982
21
-116.4700281
0
LINE
8
0
10
71.4753982
20
-116.4700281
11
58.3197016
21
-111.6817461
0
LINE
8
0
10
58.3197016
20
-111.6817461
11
53.5314196
21
-124.8374427
0
LINE
8
0
10
60.0298023
20
-106.9832829
11
73.1854989
21
-111.7715649
0
LINE
8
0
10
73.1854989
20
-111.7715649
11
77.9737809
21
-98.6158683
0
LINE
8
0
10
77.9737809
20
-98.6158683
11
64.8180843
21
-93.8275863
0
LINE
8
0
10
64.8180843
20
-93.8275863
11
60.0298023
21
-106.9832829
0
LINE
8
0
10
58.3888139
20
-167.0441451
11
71.5445105
21
-171.8324271
0
LINE
8
0
10
71.5445105
20
-171.8324271
11
76.3327925
21
-158.6767305
0
LINE
8
0
10
76.3327925
20
-158.6767305
11
63.1770959
21
-153.8884485
0
LINE
8
0
10
63.1770959
20
-153.8884485
11
58.3888139
21
-167.0441451
0
LINE
8
0
10
64.8871967
20
-149.1899853
11
78.0428933
21
-153.9782673
0
LINE
8
0
10
78.0428933
20
-153.9782673
11
82.8311753
21
-140.8225707
0
LINE
8
0
10
82.8311753
20
-140.8225707
11
69.6754787
21
-136.0342887
0
LINE
8
0
10
69.6754787
20
-136.0342887
11
64.8871967
21
-149.1899853
0
LINE
8
0
10
71.3855794
20
-131.3358255
11
84.541276
21
-136.1241075
0
LINE
8
0
10
84.541276
20
-136.1241075
11
89.329558
21
-122.9684109
0
LINE
8
0
10
89.329558
20
-122.9684109
11
76.1738614
21
-118.1801289
0
LINE
8
0
10
76.1738614
20
-118.1801289
11
71.3855794
21
-131.3358255
0
LINE
8
0
10
77.8839621
20
-113.4816657
11
91.0396587
21
-118.2699477
0
LINE
8
0
10
91.0396587
20
-118.2699477
11
95.8279407
21
-105.1142511
0
LINE
8
0
10
95.8279407
20
-105.1142511
11
82.6722441
21
-100.3259691
0
LINE
8
0
10
82.6722441
20
-100.3259691
11
77.8839621
21
-113.4816657
0
LINE
8
0
10
79.8341852
20
-163.6757553
11
92.9898818
21
-168.4640373
0
LINE
8
0
10
92.9898818
20
-168.4640373
11
97.7781638
21
-155.3083407
0
LINE
8
0
10
97.7781638
20
-155.3083407
11
84.6224672
21
-150.5200587
0
LINE
8
0
10
84.6224672
20
-150.5200587
11
79.8341852
21
-163.6757553
0
LINE
8
0
10
86.332568
20
-145.8215955
11
99.4882646
21
-150.6098775
0
LINE
8
0
10
99.4882646
20
-150.6098775
11
104.2765466
21
-137.4541809
0
LINE
8
0
10
104.2765466
20
-137.4541809
11
91.12085
21
-132.6658989
0
LINE
8
0
10
91.12085
20
-132.6658989
11
86.332568
21
-145.8215955
0
LINE
8
0
10
92.8309507
20
-127.9674357
11
105.9866473
21
-132.7557177
0
LINE
8
0
10
105.9866473
20
-132.7557177
11
110.7749293
21
-119.6000211
0
LINE
8
0
10
110.7749293
20
-119.6000211
11
97.6192327
21
-114.8117391
0
LINE
8
0
10
97.6192327
20
-114.8117391
11
92.8309507
21
-127.9674357
0
LINE
8
0
10
99.3293334
20
-110.1132759
11
112.48503
21
-114.9015579
0
LINE
8
0
10
112.48503
20
-114.9015579
11
117.273312
21
-101.7458613
0
LINE
8
0
10
117.273312
20
-101.7458613
11
104.1176154
21
-96.9575793
0
LINE
8
0
10
104.1176154
20
-96.9575793
11
99.3293334
21
-110.1132759
0
LINE
8
0
10
98.7144055
20
-167.3550601
11
111.8701021
21
-172.1433421
0
LINE
8
0
10
111.8701021
20
-172.1433421
11
116.6583841
21
-158.9876455
0
LINE
8
0
10
116.6583841
20
-158.9876455
11
103.5026875
21
-154.1993635
0
LINE
8
0
10
103.5026875
20
-154.1993635
11
98.7144055
21
-167.3550601
0
LINE
8
0
10
105.2127882
20
-149.5009003
11
118.3684848
21
-154.2891823
0
LINE
8
0
10
118.3684848
20
-154.2891823
11
123.1567668
21
-141.1334857
0
LINE
8
0
10
123.1567668
20
-141.1334857
11
110.0010702
21
-136.3452037
0
LINE
8
0
10
110.0010702
20
-136.3452037
11
105.2127882
21
-149.5009003
0
LINE
8
0
10
111.7111709
20
-131.6467405
11
124.8668675
21
-136.4350225
0
LINE
8
0
10
124.8668675
20
-136.4350225
11
129.6551495
21
-123.2793259
0
LINE
8
0
10
129.6551495
20
-123.2793259
11
116.4994529
21
-118.4910439
0
LINE
8
0
10
116.4994529
20
-118.4910439
11
111.7111709
21
-131.6467405
0
LINE
8
0
10
118.2095536
20
-113.7925807
11
131.3652502
21
-118.5808627
0
LINE
8
0
10
131.3652502
20
-118.5808627
11
136.1535322
21
-105.4251661
0
LINE
8
0
10
136.1535322
20
-105.4251661
11
122.9978356
21
-100.6368841
0
LINE
8
0
10
122.9978356
20
-100.6368841
11
118.2095536
21
-113.7925807
0
LINE
8
0
10
114.8584645
20
-178.551906
11
128.0141611
21
-183.340188
0
LINE
8
0
10
128.0141611
20
-183.340188
11
132.8024431
21
-170.1844914
0
LINE
8
0
10
132.8024431
20
-170.1844914
11
119.6467465
21
-165.3962094
0
LINE
8
0
10
119.6467465
20
-165.3962094
11
114.8584645
21
-178.551906
0
LINE
8
0
10
121.3568473
20
-160.6977462
11
134.5125439
21
-165.4860282
0
LINE
8
0
10
134.5125439
20
-165.4860282
11
139.3008259
21
-152.3303316
0
LINE
8
0
10
139.3008259
20
-152.3303316
11
126.1451293
21
-147.5420496
0
LINE
8
0
10
126.1451293
20
-147.5420496
11
121.3568473
21
-160.6977462
0
LINE
8
0
10
127.85523
20
-142.8435864
11
141.0109266
21
-147.6318684
0
LINE
8
0
10
141.0109266
20
-147.6318684
11
145.7992086
21
-134.4761718
0
LINE
8
0
10
145.7992086
20
-134.4761718
11
132.643512
21
-129.6878898
0
LINE
8
0
10
132.643512
20
-129.6878898
11
127.85523
21
-142.8435864
0
LINE
8
0
10
134.3536127
20
-124.9894266
11
147.5093093
21
-129.7777086
0
LINE
8
0
10
147.5093093
20
-129.7777086
11
152.2975913
21
-116.622012
0
LINE
8
0
10
152.2975913
20
-116.622012
11
139.1418947
21
-111.83373
0
LINE
8
0
10
139.1418947
20
-111.83373
11
134.3536127
21
-124.9894266
0
LINE
8
0
10
132.1995941
20
-186.4598276
11
145.3552907
21
-191.2481096
0
LINE
8
0
10
145.3552907
20
-191.2481096
11
150.1435727
21
-178.092413
0
LINE
8
0
10
150.1435727
20
-178.092413
11
136.9878761
21
-173.304131
0
LINE
8
0
10
136.9878761
20
-173.304131
11
132.1995941
21
-186.4598276
0
LINE
8
0
10
138.6979768
20
-168.6056678
11
151.8536734
21
-173.3939498
0
LINE
8
0
10
151.8536734
20
-173.3939498
11
156.6419554
21
-160.2382532
0
LINE
8
0
10
156.6419554
20
-160.2382532
11
143.4862588
21
-155.4499712
0
LINE
8
0
10
143.4862588
20
-155.4499712
11
138.6979768
21
-168.6056678
0
LINE
8
0
10
145.1963596
20
-150.751508
11
158.3520562
21
-155.53979
0
LINE
8
0
10
158.3520562
20
-155.53979
11
163.1403382
21
-142.3840934
0
LINE
8
0
10
163.1403382
20
-142.3840934
11
149.9846416
21
-137.5958114
0
LINE
8
0
10
149.9846416
20
-137.5958114
11
145.1963596
21
-150.751508
0
LINE
8
0
10
151.6947423
20
-132.8973482
11
164.8504389
21
-137.6856302
0
LINE
8
0
10
164.8504389
20
-137.6856302
11
169.6387209
21
-124.5299336
0
LINE
8
0
10
169.6387209
20
-124.5299336
11
156.4830243
21
-119.7416516
0
LINE
8
0
10
156.4830243
20
-119.7416516
11
151.6947423
21
-132.8973482
0
LINE
8
0
10
95.3652918
20
-197.0233048
11
108.0536008
21
-191.1066492
0
LINE
8
0
10
108.0536008
20
-191.1066492
11
102.1369452
21
-178.4183402
0
LINE
8
0
10
102.1369452
20
-178.4183402
11
89.4486362
21
-184.3349958
0
LINE
8
0
10
89.4486362
20
-184.3349958
11
95.3652918
21
-197.0233048
0
LINE
8
0
10
116.5603689
20
-201.6521039
11
129.7160655
21
-206.4403859
0
LINE
8
0
10
129.7160655
20
-206.4403859
11
134.5043475
21
-193.2846893
0
LINE
8
0
10
134.5043475
20
-193.2846893
11
121.3486509
21
-188.4964073
0
LINE
8
0
10
121.3486509
20
-188.4964073
11
116.5603689
21
-201.6521039
0
LINE
8
0
10
141.1649129
20
-213.4939694
11
149.1227854
21
-220.1714173
0
LINE
8
0
10
153.8375709
20
-220.1714173
11
160.8885617
21
-211.7683738
0
LINE
8
0
10
160.8885617
20
-211.7683738
11
150.1639395
21
-202.7693472
0
LINE
8
0
10
150.1639395
20
-202.7693472
11
141.1649129
21
-213.4939694
0
LINE
8
0
10
302.6511987
20
-147.4798845
11
315.8068953
21
-142.6916025
0
LINE
8
0
10
315.8068953
20
-142.6916025
11
311.0186133
21
-129.5359059
0
LINE
8
0
10
311.0186133
20
-129.5359059
11
297.8629167
21
-134.3241879
0
LINE
8
0
10
297.8629167
20
-134.3241879
11
302.6511987
21
-147.4798845
0
LINE
8
0
10
296.152816
20
-129.6257247
11
309.3085126
21
-124.8374427
0
LINE
8
0
10
309.3085126
20
-124.8374427
11
304.5202306
21
-111.6817461
0
LINE
8
0
10
304.5202306
20
-111.6817461
11
291.364534
21
-116.4700281
0
LINE
8
0
10
291.364534
20
-116.4700281
11
296.152816
21
-129.6257247
0
LINE
8
0
10
289.6544333
20
-111.7715649
11
302.8101299
21
-106.9832829
0
LINE
8
0
10
302.8101299
20
-106.9832829
11
298.0218479
21
-93.8275863
0
LINE
8
0
10
298.0218479
20
-93.8275863
11
284.8661513
21
-98.6158683
0
LINE
8
0
10
284.8661513
20
-98.6158683
11
289.6544333
21
-111.7715649
0
LINE
8
0
10
291.2954217
20
-171.8324271
11
304.4511183
21
-167.0441451
0
LINE
8
0
10
304.4511183
20
-167.0441451
11
299.6628363
21
-153.8884485
0
LINE
8
0
10
299.6628363
20
-153.8884485
11
286.5071397
21
-158.6767305
0
LINE
8
0
10
286.5071397
20
-158.6767305
11
291.2954217
21
-171.8324271
0
LINE
8
0
10
284.7970389
20
-153.9782673
11
297.9527355
21
-149.1899853
0
LINE
8
0
10
297.9527355
20
-149.1899853
11
293.1644535
21
-136.0342887
0
LINE
8
0
10
293.1644535
20
-136.0342887
11
280.0087569
21
-140.8225707
0
LINE
8
0
10
280.0087569
20
-140.8225707
11
284.7970389
21
-153.9782673
0
LINE
8
0
10
278.2986562
20
-136.1241075
11
291.4543528
21
-131.3358255
0
LINE
8
0
10
291.4543528
20
-131.3358255
11
286.6660708
21
-118.1801289
0
LINE
8
0
10
286.6660708
20
-118.1801289
11
273.5103742
21
-122.9684109
0
LINE
8
0
10
273.5103742
20
-122.9684109
11
278.2986562
21
-136.1241075
0
LINE
8
0
10
271.8002735
20
-118.2699477
11
284.9559701
21
-113.4816657
0
LINE
8
0
10
284.9559701
20
-113.4816657
11
280.1676881
21
-100.3259691
0
LINE
8
0
10
280.1676881
20
-100.3259691
11
267.0119915
21
-105.1142511
0
LINE
8
0
10
267.0119915
20
-105.1142511
11
271.8002735
21
-118.2699477
0
LINE
8
0
10
269.8500504
20
-168.4640373
11
283.005747
21
-163.6757553
0
LINE
8
0
10
283.005747
20
-163.6757553
11
278.217465
21
-150.5200587
0
LINE
8
0
10
278.217465
20
-150.5200587
11
265.0617684
21
-155.3083407
0
LINE
8
0
10
265.0617684
20
-155.3083407
11
269.8500504
21
-168.4640373
0
LINE
8
0
10
263.3516676
20
-150.6098775
11
276.5073642
21
-145.8215955
0
LINE
8
0
10
276.5073642
20
-145.8215955
11
271.7190822
21
-132.6658989
0
LINE
8
0
10
271.7190822
20
-132.6658989
11
258.5633856
21
-137.4541809
0
LINE
8
0
10
258.5633856
20
-137.4541809
11
263.3516676
21
-150.6098775
0
LINE
8
0
10
256.8532849
20
-132.7557177
11
270.0089815
21
-127.9674357
0
LINE
8
0
10
270.0089815
20
-127.9674357
11
265.2206995
21
-114.8117391
0
LINE
8
0
10
265.2206995
20
-114.8117391
11
252.0650029
21
-119.6000211
0
LINE
8
0
10
252.0650029
20
-119.6000211
11
256.8532849
21
-132.7557177
0
LINE
8
0
10
250.3549022
20
-114.9015579
11
263.5105988
21
-110.1132759
0
LINE
8
0
10
263.5105988
20
-110.1132759
11
258.7223168
21
-96.9575793
0
LINE
8
0
10
258.7223168
20
-96.9575793
11
245.5666202
21
-101.7458613
0
LINE
8
0
10
245.5666202
20
-101.7458613
11
250.3549022
21
-114.9015579
0
LINE
8
0
10
250.9698301
20
-172.1433421
11
264.1255267
21
-167.3550601
0
LINE
8
0
10
264.1255267
20
-167.3550601
11
259.3372447
21
-154.1993635
0
LINE
8
0
10
259.3372447
20
-154.1993635
11
246.1815481
21
-158.9876455
0
LINE
8
0
10
246.1815481
20
-158.9876455
11
250.9698301
21
-172.1433421
0
LINE
8
0
10
244.4714474
20
-154.2891823
11
257.627144
21
-149.5009003
0
LINE
8
0
10
257.627144
20
-149.5009003
11
252.838862
21
-136.3452037
0
LINE
8
0
10
252.838862
20
-136.3452037
11
239.6831654
21
-141.1334857
0
LINE
8
0
10
239.6831654
20
-141.1334857
11
244.4714474
21
-154.2891823
0
LINE
8
0
10
237.9730647
20
-136.4350225
11
251.1287613
21
-131.6467405
0
LINE
8
0
10
251.1287613
20
-131.6467405
11
246.3404793
21
-118.4910439
0
LINE
8
0
10
246.3404793
20
-118.4910439
11
233.1847827
21
-123.2793259
0
LINE
8
0
10
233.1847827
20
-123.2793259
11
237.9730647
21
-136.4350225
0
LINE
8
0
10
231.474682
20
-118.5808627
11
244.6303786
21
-113.7925807
0
LINE
8
0
10
244.6303786
20
-113.7925807
11
239.8420966
21
-100.6368841
0
LINE
8
0
10
239.8420966
20
-100.6368841
11
226.6864
21
-105.4251661
0
LINE
8
0
10
226.6864
20
-105.4251661
11
231.474682
21
-118.5808627
0
LINE
8
0
10
234.8257711
20
-183.340188
11
247.9814677
21
-178.551906
0
LINE
8
0
10
247.9814677
20
-178.551906
11
243.1931857
21
-165.3962094
0
LINE
8
0
10
243.1931857
20
-165.3962094
11
230.0374891
21
-170.1844914
0
LINE
8
0
10
230.0374891
20
-170.1844914
11
234.8257711
21
-183.340188
0
LINE
8
0
10
228.3273883
20
-165.4860282
11
241.4830849
21
-160.6977462
0
LINE
8
0
10
241.4830849
20
-160.6977462
11
236.6948029
21
-147.5420496
0
LINE
8
0
10
236.6948029
20
-147.5420496
11
223.5391063
21
-152.3303316
0
LINE
8
0
10
223.5391063
20
-152.3303316
11
228.3273883
21
-165.4860282
0
LINE
8
0
10
221.8290056
20
-147.6318684
11
234.9847022
21
-142.8435864
0
LINE
8
0
10
234.9847022
20
-142.8435864
11
230.1964202
21
-129.6878898
0
LINE
8
0
10
230.1964202
20
-129.6878898
11
217.0407236
21
-134.4761718
0
LINE
8
0
10
217.0407236
20
-134.4761718
11
221.8290056
21
-147.6318684
0
LINE
8
0
10
215.3306229
20
-129.7777086
11
228.4863195
21
-124.9894266
0
LINE
8
0
10
228.4863195
20
-124.9894266
11
223.6980375
21
-111.83373
0
LINE
8
0
10
223.6980375
20
-111.83373
11
210.5423409
21
-116.622012
0
LINE
8
0
10
210.5423409
20
-116.622012
11
215.3306229
21
-129.7777086
0
LINE
8
0
10
217.4846415
20
-191.2481096
11
230.6403381
21
-186.4598276
0
LINE
8
0
10
230.6403381
20
-186.4598276
11
225.8520561
21
-173.304131
0
LINE
8
0
10
225.8520561
20
-173.304131
11
212.6963595
21
-178.092413
0
LINE
8
0
10
212.6963595
20
-178.092413
11
217.4846415
21
-191.2481096
0
LINE
8
0
10
210.9862588
20
-173.3939498
11
224.1419554
21
-168.6056678
0
LINE
8
0
10
224.1419554
20
-168.6056678
11
219.3536734
21
-155.4499712
0
LINE
8
0
10
219.3536734
20
-155.4499712
11
206.1979768
21
-160.2382532
0
LINE
8
0
10
206.1979768
20
-160.2382532
11
210.9862588
21
-173.3939498
0
LINE
8
0
10
204.487876
20
-155.53979
11
217.6435726
21
-150.751508
0
LINE
8
0
10
217.6435726
20
-150.751508
11
212.8552906
21
-137.5958114
0
LINE
8
0
10
212.8552906
20
-137.5958114
11
199.699594
21
-142.3840934
0
LINE
8
0
10
199.699594
20
-142.3840934
11
204.487876
21
-155.53979
0
LINE
8
0
10
197.9894933
20
-137.6856302
11
211.1451899
21
-132.8973482
0
LINE
8
0
10
211.1451899
20
-132.8973482
11
206.3569079
21
-119.7416516
0
LINE
8
0
10
206.3569079
20
-119.7416516
11
193.2012113
21
-124.5299336
0
LINE
8
0
10
193.2012113
20
-124.5299336
11
197.9894933
21
-137.6856302
0
LINE
8
0
10
254.7863314
20
-191.1066492
11
267.4746404
21
-197.0233048
0
LINE
8
0
10
267.4746404
20
-197.0233048
11
273.391296
21
-184.3349958
0
LINE
8
0
10
273.391296
20
-184.3349958
11
260.702987
21
-178.4183402
0
LINE
8
0
10
260.702987
20
-178.4183402
11
254.7863314
21
-191.1066492
0
LINE
8
0
10
233.1238667
20
-206.4403859
11
246.2795633
21
-201.6521039
0
LINE
8
0
10
246.2795633
20
-201.6521039
11
241.4912813
21
-188.4964073
0
LINE
8
0
10
241.4912813
20
-188.4964073
11
228.3355847
21
-193.2846893
0
LINE
8
0
10
228.3355847
20
-193.2846893
11
233.1238667
21
-206.4403859
0
LINE
8
0
10
213.7171468
20
-220.1714173
11
221.6750193
21
-213.4939694
0
LINE
8
0
10
221.6750193
20
-213.4939694
11
212.6759927
21
-202.7693472
0
LINE
8
0
10
212.6759927
20
-202.7693472
11
201.9513705
21
-211.7683738
0
LINE
8
0
10
201.9513705
20
-211.7683738
11
209.0023613
21
-220.1714173
0
ENDSEC
0
EOF