0
SECTION
2
HEADER
9
$INSUNITS
70
4
0
ENDSEC
0
SECTION
2
TABLES
0
TABLE
2
LTYPE
0
LTYPE
72
65
70
64
2
CONTINUOUS
3
______
73
0
40
0
0
ENDTAB
0
TABLE
2
LAYER
0
ENDTAB
0
ENDSEC
0
SECTION
2
ENTITIES
0
LINE
8
0
10
261.9187263
20
-220.1714173
11
213.5615744
21
-220.1714173
0
LINE
8
0
10
149.2783578
20
-220.1714173
11
100.9212059
21
-220.1714173
0
LINE
8
0
10
209.1329019
20
-220.1714173
11
153.7070303
21
-220.1714173
0
ARC
8
0
10
100.9212059
20
-214.1714173
40
6
50
222.8979134
51
270
0
LINE
8
0
10
96.5257997
20
-218.2555825
11
52.5526591
21
-170.9313903
0
ARC
8
0
10
56.9480652
20
-166.8472251
40
6
50
205.0000017
51
222.8979134
0
LINE
8
0
10
51.5102186
20
-169.3829348
11
41.3626531
21
-147.6214099
0
ARC
8
0
10
46.8003107
20
-145.085295
40
6
50
160.0000019
51
205.0000017
0
LINE
8
0
10
41.1623079
20
-143.032754
11
59.946977
21
-91.4222996
0
ARC
8
0
10
65.5851328
20
-93.4744203
40
6
50
85.4463181
51
160.0000019
0
LINE
8
0
10
66.0614914
20
-87.49336
11
101.2853728
21
-90.2987498
0
ARC
8
0
10
100.8090142
20
-96.2798101
40
6
50
78.9726294
51
85.4463181
0
LINE
8
0
10
101.9566816
20
-90.3905945
11
120.1742915
21
-93.9407723
0
ARC
8
0
10
119.026624
20
-99.8299879
40
6
50
70.0000019
51
78.9679519
0
LINE
8
0
10
121.079165
20
-94.1919851
11
141.7361433
21
-101.7105104
0
ARC
8
0
10
139.6840226
20
-107.3486662
40
6
50
60.293349
51
70.0000019
0
LINE
8
0
10
142.6573796
20
-102.1372222
11
174.6220558
21
-120.3744707
0
ARC
8
0
10
176.6042937
20
-116.9001747
40
4
50
240.293349
51
270
0
LINE
8
0
10
176.6042937
20
-120.9001747
11
186.2356385
21
-120.9001747
0
ARC
8
0
10
186.2356385
20
-116.9001747
40
4
50
270
51
299.706651
0
LINE
8
0
10
188.2178764
20
-120.3744707
11
220.1825526
21
-102.1372222
0
ARC
8
0
10
223.1559096
20
-107.3486662
40
6
50
109.9999981
51
119.706651
0
LINE
8
0
10
221.1042091
20
-101.7103575
11
241.7611875
21
-94.1918321
0
ARC
8
0
10
243.8133082
20
-99.8299879
40
6
50
101.0273706
51
109.9999981
0
LINE
8
0
10
242.6656408
20
-93.9407724
11
260.8832506
21
-90.3905946
0
ARC
8
0
10
262.030918
20
-96.2798101
40
6
50
94.5536819
51
101.0273706
0
LINE
8
0
10
261.5545594
20
-90.2987497
11
296.7784407
21
-87.49336
0
ARC
8
0
10
297.2547994
20
-93.4744203
40
6
50
19.9999981
51
94.5536819
0
LINE
8
0
10
302.8931081
20
-91.4227198
11
321.6776243
21
-143.032754
0
ARC
8
0
10
316.0396215
20
-145.085295
40
6
50
334.9999983
51
379.9999981
0
LINE
8
0
10
321.4774682
20
-147.6210047
11
311.3299026
21
-169.3825294
0
ARC
8
0
10
305.891867
20
-166.8472251
40
6
50
317.1020866
51
334.9999983
0
LINE
8
0
10
310.2872731
20
-170.9313902
11
266.3141324
21
-218.2555824
0
ARC
8
0
10
261.9187263
20
-214.1714173
40
6
50
270
51
317.1020866
0
LINE
8
0
10
47.1612081
20
-142.6318353
11
60.1289663
21
-147.3517133
0
LINE
8
0
10
60.1289663
20
-147.3517133
11
64.8488443
21
-134.3839551
0
LINE
8
0
10
64.8488443
20
-134.3839551
11
51.8810861
21
-129.6640771
0
LINE
8
0
10
51.8810861
20
-129.6640771
11
47.1612081
21
-142.6318353
0
LINE
8
0
10
53.6595908
20
-124.7776755
11
66.627349
21
-129.4975535
0
LINE
8
0
10
66.627349
20
-129.4975535
11
71.347227
21
-116.5297953
0
LINE
8
0
10
71.347227
20
-116.5297953
11
58.3794688
21
-111.8099173
0
LINE
8
0
10
58.3794688
20
-111.8099173
11
53.6595908
21
-124.7776755
0
LINE
8
0
10
60.1579735
20
-106.9235157
11
73.1257317
21
-111.6433937
0
LINE
8
0
10
73.1257317
20
-111.6433937
11
77.8456097
21
-98.6756355
0
LINE
8
0
10
77.8456097
20
-98.6756355
11
64.8778515
21
-93.9557575
0
LINE
8
0
10
64.8778515
20
-93.9557575
11
60.1579735
21
-106.9235157
0
LINE
8
0
10
58.5169851
20
-166.9843779
11
71.4847433
21
-171.7042559
0
LINE
8
0
10
71.4847433
20
-171.7042559
11
76.2046213
21
-158.7364977
0
LINE
8
0
10
76.2046213
20
-158.7364977
11
63.2368631
21
-154.0166197
0
LINE
8
0
10
63.2368631
20
-154.0166197
11
58.5169851
21
-166.9843779
0
LINE
8
0
10
65.0153679
20
-149.1302181
11
77.9831261
21
-153.8500961
0
LINE
8
0
10
77.9831261
20
-153.8500961
11
82.7030041
21
-140.8823379
0
LINE
8
0
10
82.7030041
20
-140.8823379
11
69.7352459
21
-136.1624599
0
LINE
8
0
10
69.7352459
20
-136.1624599
11
65.0153679
21
-149.1302181
0
LINE
8
0
10
71.5137506
20
-131.2760583
11
84.4815088
21
-135.9959363
0
LINE
8
0
10
84.4815088
20
-135.9959363
11
89.2013868
21
-123.0281781
0
LINE
8
0
10
89.2013868
20
-123.0281781
11
76.2336286
21
-118.3083001
0
LINE
8
0
10
76.2336286
20
-118.3083001
11
71.5137506
21
-131.2760583
0
LINE
8
0
10
78.0121333
20
-113.4218985
11
90.9798915
21
-118.1417765
0
LINE
8
0
10
90.9798915
20
-118.1417765
11
95.6997695
21
-105.1740183
0
LINE
8
0
10
95.6997695
20
-105.1740183
11
82.7320113
21
-100.4541403
0
LINE
8
0
10
82.7320113
20
-100.4541403
11
78.0121333
21
-113.4218985
0
LINE
8
0
10
79.9623564
20
-163.6159881
11
92.9301146
21
-168.3358661
0
LINE
8
0
10
92.9301146
20
-168.3358661
11
97.6499926
21
-155.3681079
0
LINE
8
0
10
97.6499926
20
-155.3681079
11
84.6822344
21
-150.6482299
0
LINE
8
0
10
84.6822344
20
-150.6482299
11
79.9623564
21
-163.6159881
0
LINE
8
0
10
86.4607392
20
-145.7618283
11
99.4284974
21
-150.4817063
0
LINE
8
0
10
99.4284974
20
-150.4817063
11
104.1483754
21
-137.5139481
0
LINE
8
0
10
104.1483754
20
-137.5139481
11
91.1806172
21
-132.7940701
0
LINE
8
0
10
91.1806172
20
-132.7940701
11
86.4607392
21
-145.7618283
0
LINE
8
0
10
92.9591219
20
-127.9076685
11
105.9268801
21
-132.6275465
0
LINE
8
0
10
105.9268801
20
-132.6275465
11
110.6467581
21
-119.6597883
0
LINE
8
0
10
110.6467581
20
-119.6597883
11
97.6789999
21
-114.9399103
0
LINE
8
0
10
97.6789999
20
-114.9399103
11
92.9591219
21
-127.9076685
0
LINE
8
0
10
99.4575046
20
-110.0535087
11
112.4252628
21
-114.7733867
0
LINE
8
0
10
112.4252628
20
-114.7733867
11
117.1451408
21
-101.8056285
0
LINE
8
0
10
117.1451408
20
-101.8056285
11
104.1773826
21
-97.0857505
0
LINE
8
0
10
104.1773826
20
-97.0857505
11
99.4575046
21
-110.0535087
0
LINE
8
0
10
98.8425767
20
-167.2952929
11
111.8103349
21
-172.0151709
0
LINE
8
0
10
111.8103349
20
-172.0151709
11
116.5302129
21
-159.0474127
0
LINE
8
0
10
116.5302129
20
-159.0474127
11
103.5624547
21
-154.3275347
0
LINE
8
0
10
103.5624547
20
-154.3275347
11
98.8425767
21
-167.2952929
0
LINE
8
0
10
105.3409594
20
-149.4411331
11
118.3087176
21
-154.1610111
0
LINE
8
0
10
118.3087176
20
-154.1610111
11
123.0285956
21
-141.1932529
0
LINE
8
0
10
123.0285956
20
-141.1932529
11
110.0608374
21
-136.4733749
0
LINE
8
0
10
110.0608374
20
-136.4733749
11
105.3409594
21
-149.4411331
0
LINE
8
0
10
111.8393421
20
-131.5869733
11
124.8071003
21
-136.3068513
0
LINE
8
0
10
124.8071003
20
-136.3068513
11
129.5269783
21
-123.3390931
0
LINE
8
0
10
129.5269783
20
-123.3390931
11
116.5592201
21
-118.6192151
0
LINE
8
0
10
116.5592201
20
-118.6192151
11
111.8393421
21
-131.5869733
0
LINE
8
0
10
118.3377248
20
-113.7328135
11
131.305483
21
-118.4526915
0
LINE
8
0
10
131.305483
20
-118.4526915
11
136.025361
21
-105.4849333
0
LINE
8
0
10
136.025361
20
-105.4849333
11
123.0576028
21
-100.7650553
0
LINE
8
0
10
123.0576028
20
-100.7650553
11
118.3377248
21
-113.7328135
0
LINE
8
0
10
114.9866357
20
-178.4921388
11
127.9543939
21
-183.2120168
0
LINE
8
0
10
127.9543939
20
-183.2120168
11
132.6742719
21
-170.2442586
0
LINE
8
0
10
132.6742719
20
-170.2442586
11
119.7065137
21
-165.5243806
0
LINE
8
0
10
119.7065137
20
-165.5243806
11
114.9866357
21
-178.4921388
0
LINE
8
0
10
121.4850185
20
-160.637979
11
134.4527767
21
-165.357857
0
LINE
8
0
10
134.4527767
20
-165.357857
11
139.1726547
21
-152.3900988
0
LINE
8
0
10
139.1726547
20
-152.3900988
11
126.2048965
21
-147.6702208
0
LINE
8
0
10
126.2048965
20
-147.6702208
11
121.4850185
21
-160.637979
0
LINE
8
0
10
127.9834012
20
-142.7838192
11
140.9511594
21
-147.5036972
0
LINE
8
0
10
140.9511594
20
-147.5036972
11
145.6710374
21
-134.535939
0
LINE
8
0
10
145.6710374
20
-134.535939
11
132.7032792
21
-129.816061
0
LINE
8
0
10
132.7032792
20
-129.816061
11
127.9834012
21
-142.7838192
0
LINE
8
0
10
134.4817839
20
-124.9296594
11
147.4495421
21
-129.6495374
0
LINE
8
0
10
147.4495421
20
-129.6495374
11
152.1694201
21
-116.6817792
0
LINE
8
0
10
152.1694201
20
-116.6817792
11
139.2016619
21
-111.9619012
0
LINE
8
0
10
139.2016619
20
-111.9619012
11
134.4817839
21
-124.9296594
0
LINE
8
0
10
132.3277653
20
-186.4000604
11
145.2955235
21
-191.1199384
0
LINE
8
0
10
145.2955235
20
-191.1199384
11
150.0154015
21
-178.1521802
0
LINE
8
0
10
150.0154015
20
-178.1521802
11
137.0476433
21
-173.4323022
0
LINE
8
0
10
137.0476433
20
-173.4323022
11
132.3277653
21
-186.4000604
0
LINE
8
0
10
138.826148
20
-168.5459006
11
151.7939062
21
-173.2657786
0
LINE
8
0
10
151.7939062
20
-173.2657786
11
156.5137842
21
-160.2980204
0
LINE
8
0
10
156.5137842
20
-160.2980204
11
143.546026
21
-155.5781424
0
LINE
8
0
10
143.546026
20
-155.5781424
11
138.826148
21
-168.5459006
0
LINE
8
0
10
145.3245308
20
-150.6917408
11
158.292289
21
-155.4116188
0
LINE
8
0
10
158.292289
20
-155.4116188
11
163.012167
21
-142.4438606
0
LINE
8
0
10
163.012167
20
-142.4438606
11
150.0444088
21
-137.7239826
0
LINE
8
0
10
150.0444088
20
-137.7239826
11
145.3245308
21
-150.6917408
0
LINE
8
0
10
151.8229135
20
-132.837581
11
164.7906717
21
-137.557459
0
LINE
8
0
10
164.7906717
20
-137.557459
11
169.5105497
21
-124.5897008
0
LINE
8
0
10
169.5105497
20
-124.5897008
11
156.5427915
21
-119.8698228
0
LINE
8
0
10
156.5427915
20
-119.8698228
11
151.8229135
21
-132.837581
0
LINE
8
0
10
95.4136608
20
-196.8904122
11
107.9207082
21
-191.0582802
0
LINE
8
0
10
107.9207082
20
-191.0582802
11
102.0885762
21
-178.5512328
0
LINE
8
0
10
102.0885762
20
-178.5512328
11
89.5815288
21
-184.3833648
0
LINE
8
0
10
89.5815288
20
-184.3833648
11
95.4136608
21
-196.8904122
0
LINE
8
0
10
116.6885401
20
-201.5923367
11
129.6562983
21
-206.3122147
0
LINE
8
0
10
129.6562983
20
-206.3122147
11
134.3761763
21
-193.3444565
0
LINE
8
0
10
134.3761763
20
-193.3444565
11
121.4084181
21
-188.6245785
0
LINE
8
0
10
121.4084181
20
-188.6245785
11
116.6885401
21
-201.5923367
0
LINE
8
0
10
141.3057961
20
-213.4816438
11
149.2783578
21
-220.1714173
0
LINE
8
0
10
153.7070303
20
-220.1714173
11
160.7476785
21
-211.7806994
0
LINE
8
0
10
160.7476785
20
-211.7806994
11
150.1762651
21
-202.9102304
0
LINE
8
0
10
150.1762651
20
-202.9102304
11
141.3057961
21
-213.4816438
0
LINE
8
0
10
302.7109659
20
-147.3517133
11
315.6787241
21
-142.6318353
0
LINE
8
0
10
315.6787241
20
-142.6318353
11
310.9588461
21
-129.6640771
0
LINE
8
0
10
310.9588461
20
-129.6640771
11
297.9910879
21
-134.3839551
0
LINE
8
0
10
297.9910879
20
-134.3839551
11
302.7109659
21
-147.3517133
0
LINE
8
0
10
296.2125832
20
-129.4975535
11
309.1803414
21
-124.7776755
0
LINE
8
0
10
309.1803414
20
-124.7776755
11
304.4604634
21
-111.8099173
0
LINE
8
0
10
304.4604634
20
-111.8099173
11
291.4927052
21
-116.5297953
0
LINE
8
0
10
291.4927052
20
-116.5297953
11
296.2125832
21
-129.4975535
0
LINE
8
0
10
289.7142005
20
-111.6433937
11
302.6819587
21
-106.9235157
0
LINE
8
0
10
302.6819587
20
-106.9235157
11
297.9620807
21
-93.9557575
0
LINE
8
0
10
297.9620807
20
-93.9557575
11
284.9943225
21
-98.6756355
0
LINE
8
0
10
284.9943225
20
-98.6756355
11
289.7142005
21
-111.6433937
0
LINE
8
0
10
291.3551889
20
-171.7042559
11
304.3229471
21
-166.9843779
0
LINE
8
0
10
304.3229471
20
-166.9843779
11
299.6030691
21
-154.0166197
0
LINE
8
0
10
299.6030691
20
-154.0166197
11
286.6353109
21
-158.7364977
0
LINE
8
0
10
286.6353109
20
-158.7364977
11
291.3551889
21
-171.7042559
0
LINE
8
0
10
284.8568061
20
-153.8500961
11
297.8245643
21
-149.1302181
0
LINE
8
0
10
297.8245643
20
-149.1302181
11
293.1046863
21
-136.1624599
0
LINE
8
0
10
293.1046863
20
-136.1624599
11
280.1369281
21
-140.8823379
0
LINE
8
0
10
280.1369281
20
-140.8823379
11
284.8568061
21
-153.8500961
0
LINE
8
0
10
278.3584234
20
-135.9959363
11
291.3261816
21
-131.2760583
0
LINE
8
0
10
291.3261816
20
-131.2760583
11
286.6063036
21
-118.3083001
0
LINE
8
0
10
286.6063036
20
-118.3083001
11
273.6385454
21
-123.0281781
0
LINE
8
0
10
273.6385454
20
-123.0281781
11
278.3584234
21
-135.9959363
0
LINE
8
0
10
271.8600407
20
-118.1417765
11
284.8277989
21
-113.4218985
0
LINE
8
0
10
284.8277989
20
-113.4218985
11
280.1079209
21
-100.4541403
0
LINE
8
0
10
280.1079209
20
-100.4541403
11
267.1401627
21
-105.1740183
0
LINE
8
0
10
267.1401627
20
-105.1740183
11
271.8600407
21
-118.1417765
0
LINE
8
0
10
269.9098176
20
-168.3358661
11
282.8775758
21
-163.6159881
0
LINE
8
0
10
282.8775758
20
-163.6159881
11
278.1576978
21
-150.6482299
0
LINE
8
0
10
278.1576978
20
-150.6482299
11
265.1899396
21
-155.3681079
0
LINE
8
0
10
265.1899396
20
-155.3681079
11
269.9098176
21
-168.3358661
0
LINE
8
0
10
263.4114348
20
-150.4817063
11
276.379193
21
-145.7618283
0
LINE
8
0
10
276.379193
20
-145.7618283
11
271.659315
21
-132.7940701
0
LINE
8
0
10
271.659315
20
-132.7940701
11
258.6915568
21
-137.5139481
0
LINE
8
0
10
258.6915568
20
-137.5139481
11
263.4114348
21
-150.4817063
0
LINE
8
0
10
256.9130521
20
-132.6275465
11
269.8808103
21
-127.9076685
0
LINE
8
0
10
269.8808103
20
-127.9076685
11
265.1609323
21
-114.9399103
0
LINE
8
0
10
265.1609323
20
-114.9399103
11
252.1931741
21
-119.6597883
0
LINE
8
0
10
252.1931741
20
-119.6597883
11
256.9130521
21
-132.6275465
0
LINE
8
0
10
250.4146694
20
-114.7733867
11
263.3824276
21
-110.0535087
0
LINE
8
0
10
263.3824276
20
-110.0535087
11
258.6625496
21
-97.0857505
0
LINE
8
0
10
258.6625496
20
-97.0857505
11
245.6947914
21
-101.8056285
0
LINE
8
0
10
245.6947914
20
-101.8056285
11
250.4146694
21
-114.7733867
0
LINE
8
0
10
251.0295973
20
-172.0151709
11
263.9973555
21
-167.2952929
0
LINE
8
0
10
263.9973555
20
-167.2952929
11
259.2774775
21
-154.3275347
0
LINE
8
0
10
259.2774775
20
-154.3275347
11
246.3097193
21
-159.0474127
0
LINE
8
0
10
246.3097193
20
-159.0474127
11
251.0295973
21
-172.0151709
0
LINE
8
0
10
244.5312146
20
-154.1610111
11
257.4989728
21
-149.4411331
0
LINE
8
0
10
257.4989728
20
-149.4411331
11
252.7790948
21
-136.4733749
0
LINE
8
0
10
252.7790948
20
-136.4733749
11
239.8113366
21
-141.1932529
0
LINE
8
0
10
239.8113366
20
-141.1932529
11
244.5312146
21
-154.1610111
0
LINE
8
0
10
238.0328319
20
-136.3068513
11
251.0005901
21
-131.5869733
0
LINE
8
0
10
251.0005901
20
-131.5869733
11
246.2807121
21
-118.6192151
0
LINE
8
0
10
246.2807121
20
-118.6192151
11
233.3129539
21
-123.3390931
0
LINE
8
0
10
233.3129539
20
-123.3390931
11
238.0328319
21
-136.3068513
0
LINE
8
0
10
231.5344492
20
-118.4526915
11
244.5022074
21
-113.7328135
0
LINE
8
0
10
244.5022074
20
-113.7328135
11
239.7823294
21
-100.7650553
0
LINE
8
0
10
239.7823294
20
-100.7650553
11
226.8145712
21
-105.4849333
0
LINE
8
0
10
226.8145712
20
-105.4849333
11
231.5344492
21
-118.4526915
0
LINE
8
0
10
234.8855383
20
-183.2120168
11
247.8532965
21
-178.4921388
0
LINE
8
0
10
247.8532965
20
-178.4921388
11
243.1334185
21
-165.5243806
0
LINE
8
0
10
243.1334185
20
-165.5243806
11
230.1656603
21
-170.2442586
0
LINE
8
0
10
230.1656603
20
-170.2442586
11
234.8855383
21
-183.2120168
0
LINE
8
0
10
228.3871555
20
-165.357857
11
241.3549137
21
-160.637979
0
LINE
8
0
10
241.3549137
20
-160.637979
11
236.6350357
21
-147.6702208
0
LINE
8
0
10
236.6350357
20
-147.6702208
11
223.6672775
21
-152.3900988
0
LINE
8
0
10
223.6672775
20
-152.3900988
11
228.3871555
21
-165.357857
0
LINE
8
0
10
221.8887728
20
-147.5036972
11
234.856531
21
-142.7838192
0
LINE
8
0
10
234.856531
20
-142.7838192
11
230.136653
21
-129.816061
0
LINE
8
0
10
230.136653
20
-129.816061
11
217.1688948
21
-134.535939
0
LINE
8
0
10
217.1688948
20
-134.535939
11
221.8887728
21
-147.5036972
0
LINE
8
0
10
215.3903901
20
-129.6495374
11
228.3581483
21
-124.9296594
0
LINE
8
0
10
228.3581483
20
-124.9296594
11
223.6382703
21
-111.9619012
0
LINE
8
0
10
223.6382703
20
-111.9619012
11
210.6705121
21
-116.6817792
0
LINE
8
0
10
210.6705121
20
-116.6817792
11
215.3903901
21
-129.6495374
0
LINE
8
0
10
217.5444087
20
-191.1199384
11
230.5121669
21
-186.4000604
0
LINE
8
0
10
230.5121669
20
-186.4000604
11
225.7922889
21
-173.4323022
0
LINE
8
0
10
225.7922889
20
-173.4323022
11
212.8245307
21
-178.1521802
0
LINE
8
0
10
212.8245307
20
-178.1521802
11
217.5444087
21
-191.1199384
0
LINE
8
0
10
211.046026
20
-173.2657786
11
224.0137842
21
-168.5459006
0
LINE
8
0
10
224.0137842
20
-168.5459006
11
219.2939062
21
-155.5781424
0
LINE
8
0
10
219.2939062
20
-155.5781424
11
206.326148
21
-160.2980204
0
LINE
8
0
10
206.326148
20
-160.2980204
11
211.046026
21
-173.2657786
0
LINE
8
0
10
204.5476432
20
-155.4116188
11
217.5154014
21
-150.6917408
0
LINE
8
0
10
217.5154014
20
-150.6917408
11
212.7955234
21
-137.7239826
0
LINE
8
0
10
212.7955234
20
-137.7239826
11
199.8277652
21
-142.4438606
0
LINE
8
0
10
199.8277652
20
-142.4438606
11
204.5476432
21
-155.4116188
0
LINE
8
0
10
198.0492605
20
-137.557459
11
211.0170187
21
-132.837581
0
LINE
8
0
10
211.0170187
20
-132.837581
11
206.2971407
21
-119.8698228
0
LINE
8
0
10
206.2971407
20
-119.8698228
11
193.3293825
21
-124.5897008
0
LINE
8
0
10
193.3293825
20
-124.5897008
11
198.0492605
21
-137.557459
0
LINE
8
0
10
254.919224
20
-191.0582802
11
267.4262714
21
-196.8904122
0
LINE
8
0
10
267.4262714
20
-196.8904122
11
273.2584034
21
-184.3833648
0
LINE
8
0
10
273.2584034
20
-184.3833648
11
260.751356
21
-178.5512328
0
LINE
8
0
10
260.751356
20
-178.5512328
11
254.919224
21
-191.0582802
0
LINE
8
0
10
233.1836339
20
-206.3122147
11
246.1513921
21
-201.5923367
0
LINE
8
0
10
246.1513921
20
-201.5923367
11
241.4315141
21
-188.6245785
0
LINE
8
0
10
241.4315141
20
-188.6245785
11
228.4637559
21
-193.3444565
0
LINE
8
0
10
228.4637559
20
-193.3444565
11
233.1836339
21
-206.3122147
0
LINE
8
0
10
213.5615744
20
-220.1714173
11
221.5341361
21
-213.4816438
0
LINE
8
0
10
221.5341361
20
-213.4816438
11
212.6636671
21
-202.9102304
0
LINE
8
0
10
212.6636671
20
-202.9102304
11
202.0922537
21
-211.7806994
0
LINE
8
0
10
202.0922537
20
-211.7806994
11
209.1329019
21
-220.1714173
0
ENDSEC
0
EOF