0
SECTION
2
HEADER
9
$INSUNITS
70
4
0
ENDSEC
0
SECTION
2
TABLES
0
TABLE
2
LTYPE
0
LTYPE
72
65
70
64
2
CONTINUOUS
3
______
73
0
40
0
0
ENDTAB
0
TABLE
2
LAYER
0
ENDTAB
0
ENDSEC
0
SECTION
2
ENTITIES
0
LINE
8
0
10
261.9187263
20
-220.1714173
11
100.9212059
21
-220.1714173
0
ARC
8
0
10
100.9212059
20
-214.1714173
40
6
50
222.8979134
51
270
0
LINE
8
0
10
96.5257997
20
-218.2555825
11
52.5526591
21
-170.9313903
0
ARC
8
0
10
56.9480652
20
-166.8472251
40
6
50
205.0000017
51
222.8979134
0
LINE
8
0
10
51.5102186
20
-169.3829348
11
41.3626531
21
-147.6214099
0
ARC
8
0
10
46.8003107
20
-145.085295
40
6
50
160.0000019
51
205.0000017
0
LINE
8
0
10
41.1623079
20
-143.032754
11
59.946977
21
-91.4222996
0
ARC
8
0
10
65.5851328
20
-93.4744203
40
6
50
85.4463181
51
160.0000019
0
LINE
8
0
10
66.0614914
20
-87.49336
11
101.2853728
21
-90.2987498
0
ARC
8
0
10
100.8090142
20
-96.2798101
40
6
50
78.9726294
51
85.4463181
0
LINE
8
0
10
101.9566816
20
-90.3905945
11
120.1742915
21
-93.9407723
0
ARC
8
0
10
119.026624
20
-99.8299879
40
6
50
70.0000019
51
78.9679519
0
LINE
8
0
10
121.079165
20
-94.1919851
11
141.7361433
21
-101.7105104
0
ARC
8
0
10
139.6840226
20
-107.3486662
40
6
50
60.293349
51
70.0000019
0
LINE
8
0
10
142.6573796
20
-102.1372222
11
174.6220558
21
-120.3744707
0
ARC
8
0
10
176.6042937
20
-116.9001747
40
4
50
240.293349
51
270
0
LINE
8
0
10
176.6042937
20
-120.9001747
11
186.2356385
21
-120.9001747
0
ARC
8
0
10
186.2356385
20
-116.9001747
40
4
50
270
51
299.706651
0
LINE
8
0
10
188.2178764
20
-120.3744707
11
220.1825526
21
-102.1372222
0
ARC
8
0
10
223.1559096
20
-107.3486662
40
6
50
109.9999981
51
119.706651
0
LINE
8
0
10
221.1042091
20
-101.7103575
11
241.7611875
21
-94.1918321
0
ARC
8
0
10
243.8133082
20
-99.8299879
40
6
50
101.0273706
51
109.9999981
0
LINE
8
0
10
242.6656408
20
-93.9407724
11
260.8832506
21
-90.3905946
0
ARC
8
0
10
262.030918
20
-96.2798101
40
6
50
94.5536819
51
101.0273706
0
LINE
8
0
10
261.5545594
20
-90.2987497
11
296.7784407
21
-87.49336
0
ARC
8
0
10
297.2547994
20
-93.4744203
40
6
50
19.9999981
51
94.5536819
0
LINE
8
0
10
302.8931081
20
-91.4227198
11
321.6776243
21
-143.032754
0
ARC
8
0
10
316.0396215
20
-145.085295
40
6
50
334.9999983
51
379.9999981
0
LINE
8
0
10
321.4774682
20
-147.6210047
11
311.3299026
21
-169.3825294
0
ARC
8
0
10
305.891867
20
-166.8472251
40
6
50
317.1020866
51
334.9999983
0
LINE
8
0
10
310.2872731
20
-170.9313902
11
266.3141324
21
-218.2555824
0
ARC
8
0
10
261.9187263
20
-214.1714173
40
6
50
270
51
317.1020866
0
ENDSEC
0
EOF