0
SECTION
2
HEADER
9
$INSUNITS
70
4
0
ENDSEC
0
SECTION
2
TABLES
0
TABLE
2
LTYPE
0
LTYPE
72
65
70
64
2
CONTINUOUS
3
______
73
0
40
0
0
ENDTAB
0
TABLE
2
LAYER
0
ENDTAB
0
ENDSEC
0
SECTION
2
ENTITIES
0
LINE
8
0
10
57.2060353
20
-140.5132361
11
74.6713584
21
-144.8678303
0
LINE
8
0
10
74.6713584
20
-144.8678303
11
70.3167643
21
-162.3331533
0
ARC
8
0
10
71.28706
20
-162.5750752
40
1
50
166.0000006
51
256
0
LINE
8
0
10
71.0451381
20
-163.5453709
11
91.4213483
21
-168.6257307
0
ARC
8
0
10
91.6632702
20
-167.655435
40
1
50
256
51
345.9999994
0
LINE
8
0
10
92.6335659
20
-167.8973569
11
94.9318239
21
-158.6795475
0
LINE
8
0
10
94.9318239
20
-158.6795475
11
112.397147
21
-163.0341416
0
ARC
8
0
10
112.6390689
20
-162.0638459
40
1
50
256
51
345.9999982
0
LINE
8
0
10
113.6093646
20
-162.3057678
11
114.0932084
21
-160.3651763
0
LINE
8
0
10
114.0932084
20
-160.3651763
11
128.6476444
21
-163.9940048
0
LINE
8
0
10
122.7205579
20
-187.7662501
11
128.6476444
21
-163.9940048
0
ARC
8
0
10
123.6908536
20
-188.008172
40
1
50
165.9999999
51
255.9999994
0
LINE
8
0
10
123.4489317
20
-188.9784677
11
142.5734739
21
-193.7467517
0
LINE
8
0
10
142.5734739
20
-193.7467517
11
158.444707
21
-203.0956223
0
LINE
8
0
10
158.444707
20
-203.0956223
11
171.8869039
21
-217.5106137
0
ARC
8
0
10
172.6182576
20
-216.8286153
40
1
50
222.9999999
51
312.9999994
0
LINE
8
0
10
173.300256
20
-217.559969
11
188.6586837
21
-203.2380035
0
ARC
8
0
10
187.9766853
20
-202.5066498
40
1
50
312.9999999
51
403.0000017
0
LINE
8
0
10
188.708039
20
-201.8246514
11
174.3860735
21
-186.4662237
0
ARC
8
0
10
173.6547198
20
-187.1482221
40
1
50
42.9999999
51
133.0000017
0
LINE
8
0
10
172.9727214
20
-186.4168684
11
168.4337651
21
-190.6495136
0
LINE
8
0
10
168.4337651
20
-190.6495136
11
171.5836698
21
-185.3020365
0
ARC
8
0
10
170.7220406
20
-184.7944982
40
1
50
329.5000001
51
419.5000002
0
LINE
8
0
10
171.229579
20
-183.932869
11
163.5084262
21
-179.3847625
0
LINE
8
0
10
163.5084262
20
-179.3847625
11
166.8572768
21
-180.2197247
0
ARC
8
0
10
167.0991987
20
-179.249429
40
1
50
256
51
345.9999982
0
LINE
8
0
10
168.0694944
20
-179.4913509
11
172.9608441
21
-159.8732188
0
LINE
8
0
10
246.9892629
20
-159.8732188
11
172.9608441
21
-159.8732188
0
LINE
8
0
10
246.9892629
20
-159.8732188
11
251.8806126
21
-179.4913509
0
ARC
8
0
10
252.8509083
20
-179.249429
40
1
50
194.0000006
51
284
0
LINE
8
0
10
253.0928302
20
-180.2197247
11
256.4416808
21
-179.3847625
0
LINE
8
0
10
256.4416808
20
-179.3847625
11
248.720528
21
-183.9328691
0
ARC
8
0
10
249.2280664
20
-184.7944982
40
1
50
120.4999999
51
210.5000016
0
LINE
8
0
10
248.3664372
20
-185.3020366
11
251.5163419
21
-190.6495136
0
LINE
8
0
10
251.5163419
20
-190.6495136
11
246.9773856
21
-186.4168684
0
ARC
8
0
10
246.2953872
20
-187.1482221
40
1
50
47.0000001
51
136.9999969
0
LINE
8
0
10
245.5640335
20
-186.4662237
11
231.242068
21
-201.8246514
0
ARC
8
0
10
231.9734217
20
-202.5066498
40
1
50
137.0000001
51
226.9999983
0
LINE
8
0
10
231.2914233
20
-203.2380035
11
246.649851
21
-217.559969
0
ARC
8
0
10
247.3318494
20
-216.8286153
40
1
50
226.9999983
51
317.0000001
0
LINE
8
0
10
248.0632031
20
-217.5106137
11
261.5053998
21
-203.0956225
0
LINE
8
0
10
261.5053998
20
-203.0956225
11
277.376633
21
-193.7467516
0
LINE
8
0
10
277.376633
20
-193.7467516
11
296.5011753
21
-188.9784677
0
ARC
8
0
10
296.2592534
20
-188.008172
40
1
50
284.0000003
51
14.0000001
0
LINE
8
0
10
291.3024626
20
-163.9940047
11
297.2295491
21
-187.7662501
0
LINE
8
0
10
291.3024626
20
-163.9940047
11
305.8568986
21
-160.3651763
0
LINE
8
0
10
305.8568986
20
-160.3651763
11
306.3407424
21
-162.3057678
0
ARC
8
0
10
307.3110381
20
-162.0638459
40
1
50
193.9999994
51
284
0
LINE
8
0
10
307.55296
20
-163.0341416
11
325.0182831
21
-158.6795475
0
LINE
8
0
10
325.0182831
20
-158.6795475
11
327.3165411
21
-167.8973569
0
ARC
8
0
10
328.2868368
20
-167.655435
40
1
50
193.9999994
51
284
0
LINE
8
0
10
328.5287587
20
-168.6257307
11
348.9049689
21
-163.5453709
0
ARC
8
0
10
348.663047
20
-162.5750752
40
1
50
284
51
374.0000006
0
LINE
8
0
10
349.6333427
20
-162.3331533
11
345.2787486
21
-144.8678302
0
LINE
8
0
10
345.2787486
20
-144.8678302
11
362.7440717
21
-140.5132361
0
ARC
8
0
10
362.5021498
20
-139.5429404
40
1
50
284
51
374.0000018
0
LINE
8
0
10
350.5296241
20
-87.3901972
11
363.4724455
21
-139.3010185
0
ARC
8
0
10
349.5593284
20
-87.6321191
40
1
50
14
51
104.0000006
0
LINE
8
0
10
273.6343399
20
-105.5317312
11
349.3174065
21
-86.6618234
0
ARC
8
0
10
273.8762618
20
-106.5020269
40
1
50
104
51
194.0000006
0
LINE
8
0
10
272.9059661
20
-106.7439488
11
273.8736537
21
-110.6251318
0
LINE
8
0
10
273.8736537
20
-110.6251318
11
256.4083306
21
-114.9797259
0
ARC
8
0
10
256.6502525
20
-115.9500216
40
1
50
104
51
194.0000018
0
LINE
8
0
10
255.6799568
20
-116.1919435
11
255.8009177
21
-116.6770914
0
LINE
8
0
10
255.8009177
20
-116.6770914
11
238.454732
21
-121.0019812
0
LINE
8
0
10
181.495375
20
-121.0019812
11
238.454732
21
-121.0019812
0
LINE
8
0
10
181.495375
20
-121.0019812
11
164.1491893
21
-116.6770913
0
LINE
8
0
10
164.1491893
20
-116.6770913
11
164.2701503
21
-116.1919435
0
ARC
8
0
10
163.2998545
20
-115.9500216
40
1
50
346
51
435.9999969
0
LINE
8
0
10
163.5417764
20
-114.9797259
11
146.0764533
21
-110.6251318
0
LINE
8
0
10
146.0764533
20
-110.6251318
11
147.0441409
21
-106.7439488
0
ARC
8
0
10
146.0738452
20
-106.5020269
40
1
50
346
51
435.9999999
0
LINE
8
0
10
70.6327005
20
-86.6618234
11
146.3157671
21
-105.5317312
0
ARC
8
0
10
70.3907786
20
-87.6321191
40
1
50
435.9999994
51
166
0
LINE
8
0
10
56.4776615
20
-139.3010185
11
69.4204829
21
-87.3901972
0
ARC
8
0
10
57.4479572
20
-139.5429404
40
1
50
165.9999994
51
256
0
LINE
8
0
10
149.3919537
20
-175.8651306
11
150.3134743
21
-176.0948914
0
LINE
8
0
10
150.3134743
20
-176.0948914
11
148.6162939
21
-178.9761321
0
LINE
8
0
10
148.6162939
20
-178.9761321
11
149.3919537
21
-175.8651306
0
LINE
8
0
10
269.6366327
20
-176.0948915
11
270.5581534
21
-175.8651306
0
LINE
8
0
10
270.5581534
20
-175.8651306
11
271.3338131
21
-178.976132
0
LINE
8
0
10
271.3338131
20
-178.976132
11
269.6366327
21
-176.0948915
0
LINE
8
0
10
61.6907188
20
-136.993632
11
75.274859
21
-140.3805386
0
LINE
8
0
10
75.274859
20
-140.3805386
11
78.6617656
21
-126.7963984
0
LINE
8
0
10
78.6617656
20
-126.7963984
11
65.0776254
21
-123.4094918
0
LINE
8
0
10
65.0776254
20
-123.4094918
11
61.6907188
21
-136.993632
0
LINE
8
0
10
66.2872348
20
-118.5580132
11
79.871375
21
-121.9449198
0
LINE
8
0
10
79.871375
20
-121.9449198
11
83.2582816
21
-108.3607796
0
LINE
8
0
10
83.2582816
20
-108.3607796
11
69.6741414
21
-104.973873
0
LINE
8
0
10
69.6741414
20
-104.973873
11
66.2872348
21
-118.5580132
0
LINE
8
0
10
75.5298216
20
-160.0257668
11
89.1139618
21
-163.4126734
0
LINE
8
0
10
89.1139618
20
-163.4126734
11
92.5008684
21
-149.8285332
0
LINE
8
0
10
92.5008684
20
-149.8285332
11
78.9167282
21
-146.4416266
0
LINE
8
0
10
78.9167282
20
-146.4416266
11
75.5298216
21
-160.0257668
0
LINE
8
0
10
80.1263376
20
-141.590148
11
93.7104778
21
-144.9770546
0
LINE
8
0
10
93.7104778
20
-144.9770546
11
97.0973844
21
-131.3929144
0
LINE
8
0
10
97.0973844
20
-131.3929144
11
83.5132442
21
-128.0060078
0
LINE
8
0
10
83.5132442
20
-128.0060078
11
80.1263376
21
-141.590148
0
LINE
8
0
10
84.7228536
20
-123.1545292
11
98.3069938
21
-126.5414358
0
LINE
8
0
10
98.3069938
20
-126.5414358
11
101.6939004
21
-112.9572956
0
LINE
8
0
10
101.6939004
20
-112.9572956
11
88.1097602
21
-109.570389
0
LINE
8
0
10
88.1097602
20
-109.570389
11
84.7228536
21
-123.1545292
0
LINE
8
0
10
96.5056203
20
-154.4341777
11
110.0897605
21
-157.8210843
0
LINE
8
0
10
110.0897605
20
-157.8210843
11
113.4766671
21
-144.2369441
0
LINE
8
0
10
113.4766671
20
-144.2369441
11
99.8925269
21
-140.8500375
0
LINE
8
0
10
99.8925269
20
-140.8500375
11
96.5056203
21
-154.4341777
0
LINE
8
0
10
101.1021363
20
-135.9985589
11
114.6862765
21
-139.3854655
0
LINE
8
0
10
114.6862765
20
-139.3854655
11
118.0731831
21
-125.8013253
0
LINE
8
0
10
118.0731831
20
-125.8013253
11
104.4890429
21
-122.4144187
0
LINE
8
0
10
104.4890429
20
-122.4144187
11
101.1021363
21
-135.9985589
0
LINE
8
0
10
105.6986523
20
-117.5629401
11
119.2827925
21
-120.9498467
0
LINE
8
0
10
119.2827925
20
-120.9498467
11
122.6696991
21
-107.3657065
0
LINE
8
0
10
122.6696991
20
-107.3657065
11
109.0855589
21
-103.9787999
0
LINE
8
0
10
109.0855589
20
-103.9787999
11
105.6986523
21
-117.5629401
0
LINE
8
0
10
115.6670048
20
-156.1198065
11
129.251145
21
-159.5067131
0
LINE
8
0
10
129.251145
20
-159.5067131
11
132.6380516
21
-145.9225729
0
LINE
8
0
10
132.6380516
20
-145.9225729
11
119.0539114
21
-142.5356663
0
LINE
8
0
10
119.0539114
20
-142.5356663
11
115.6670048
21
-156.1198065
0
LINE
8
0
10
120.2635208
20
-137.6841877
11
133.847661
21
-141.0710943
0
LINE
8
0
10
133.847661
20
-141.0710943
11
137.2345676
21
-127.4869541
0
LINE
8
0
10
137.2345676
20
-127.4869541
11
123.6504274
21
-124.1000475
0
LINE
8
0
10
123.6504274
20
-124.1000475
11
120.2635208
21
-137.6841877
0
LINE
8
0
10
124.8600368
20
-119.2485689
11
138.444177
21
-122.6354755
0
LINE
8
0
10
138.444177
20
-122.6354755
11
141.8310836
21
-109.0513353
0
LINE
8
0
10
141.8310836
20
-109.0513353
11
128.2469434
21
-105.6644287
0
LINE
8
0
10
128.2469434
20
-105.6644287
11
124.8600368
21
-119.2485689
0
LINE
8
0
10
132.8930141
20
-165.5678012
11
146.4771543
21
-168.9547078
0
LINE
8
0
10
146.4771543
20
-168.9547078
11
149.8640609
21
-155.3705676
0
LINE
8
0
10
149.8640609
20
-155.3705676
11
136.2799207
21
-151.983661
0
LINE
8
0
10
136.2799207
20
-151.983661
11
132.8930141
21
-165.5678012
0
LINE
8
0
10
137.4895301
20
-147.1321824
11
151.0736703
21
-150.519089
0
LINE
8
0
10
151.0736703
20
-150.519089
11
154.4605769
21
-136.9349488
0
LINE
8
0
10
154.4605769
20
-136.9349488
11
140.8764367
21
-133.5480422
0
LINE
8
0
10
140.8764367
20
-133.5480422
11
137.4895301
21
-147.1321824
0
LINE
8
0
10
142.0860461
20
-128.6965636
11
155.6701863
21
-132.0834702
0
LINE
8
0
10
155.6701863
20
-132.0834702
11
159.0570929
21
-118.49933
0
LINE
8
0
10
159.0570929
20
-118.49933
11
145.4729527
21
-115.1124234
0
LINE
8
0
10
145.4729527
20
-115.1124234
11
142.0860461
21
-128.6965636
0
LINE
8
0
10
150.9657501
20
-171.6197608
11
164.5498903
21
-175.0066674
0
LINE
8
0
10
164.5498903
20
-175.0066674
11
167.9367969
21
-161.4225272
0
LINE
8
0
10
167.9367969
20
-161.4225272
11
154.3526567
21
-158.0356206
0
LINE
8
0
10
154.3526567
20
-158.0356206
11
150.9657501
21
-171.6197608
0
LINE
8
0
10
155.5622661
20
-153.184142
11
169.1464063
21
-156.5710486
0
LINE
8
0
10
169.1464063
20
-156.5710486
11
172.5333129
21
-142.9869084
0
LINE
8
0
10
172.5333129
20
-142.9869084
11
158.9491727
21
-139.6000018
0
LINE
8
0
10
158.9491727
20
-139.6000018
11
155.5622661
21
-153.184142
0
LINE
8
0
10
160.1587821
20
-134.7485232
11
173.7429223
21
-138.1354298
0
LINE
8
0
10
173.7429223
20
-138.1354298
11
177.1298289
21
-124.5512896
0
LINE
8
0
10
177.1298289
20
-124.5512896
11
163.5456887
21
-121.164383
0
LINE
8
0
10
163.5456887
20
-121.164383
11
160.1587821
21
-134.7485232
0
LINE
8
0
10
127.9336152
20
-185.4588636
11
141.5177554
21
-188.8457702
0
LINE
8
0
10
141.5177554
20
-188.8457702
11
144.904662
21
-175.26163
0
LINE
8
0
10
144.904662
20
-175.26163
11
131.3205218
21
-171.8747234
0
LINE
8
0
10
131.3205218
20
-171.8747234
11
127.9336152
21
-185.4588636
0
LINE
8
0
10
146.7616089
20
-190.9910872
11
158.8244172
21
-198.0966243
0
LINE
8
0
10
158.8244172
20
-198.0966243
11
165.9299543
21
-186.033816
0
LINE
8
0
10
165.9299543
20
-186.033816
11
153.867146
21
-178.9282789
0
LINE
8
0
10
153.867146
20
-178.9282789
11
146.7616089
21
-190.9910872
0
LINE
8
0
10
163.2430243
20
-201.6429313
11
172.7910013
21
-211.8818831
0
LINE
8
0
10
172.7910013
20
-211.8818831
11
183.0299531
21
-202.3339061
0
LINE
8
0
10
183.0299531
20
-202.3339061
11
173.4819761
21
-192.0949543
0
LINE
8
0
10
173.4819761
20
-192.0949543
11
163.2430243
21
-201.6429313
0
LINE
8
0
10
344.675248
20
-140.3805386
11
358.2593882
21
-136.993632
0
LINE
8
0
10
358.2593882
20
-136.993632
11
354.8724816
21
-123.4094918
0
LINE
8
0
10
354.8724816
20
-123.4094918
11
341.2883414
21
-126.7963984
0
LINE
8
0
10
341.2883414
20
-126.7963984
11
344.675248
21
-140.3805386
0
LINE
8
0
10
340.078732
20
-121.9449198
11
353.6628722
21
-118.5580132
0
LINE
8
0
10
353.6628722
20
-118.5580132
11
350.2759656
21
-104.973873
0
LINE
8
0
10
350.2759656
20
-104.973873
11
336.6918254
21
-108.3607796
0
LINE
8
0
10
336.6918254
20
-108.3607796
11
340.078732
21
-121.9449198
0
LINE
8
0
10
330.8361452
20
-163.4126734
11
344.4202854
21
-160.0257668
0
LINE
8
0
10
344.4202854
20
-160.0257668
11
341.0333788
21
-146.4416266
0
LINE
8
0
10
341.0333788
20
-146.4416266
11
327.4492386
21
-149.8285332
0
LINE
8
0
10
327.4492386
20
-149.8285332
11
330.8361452
21
-163.4126734
0
LINE
8
0
10
326.2396292
20
-144.9770546
11
339.8237694
21
-141.590148
0
LINE
8
0
10
339.8237694
20
-141.590148
11
336.4368628
21
-128.0060078
0
LINE
8
0
10
336.4368628
20
-128.0060078
11
322.8527226
21
-131.3929144
0
LINE
8
0
10
322.8527226
20
-131.3929144
11
326.2396292
21
-144.9770546
0
LINE
8
0
10
321.6431132
20
-126.5414358
11
335.2272534
21
-123.1545292
0
LINE
8
0
10
335.2272534
20
-123.1545292
11
331.8403468
21
-109.570389
0
LINE
8
0
10
331.8403468
20
-109.570389
11
318.2562066
21
-112.9572956
0
LINE
8
0
10
318.2562066
20
-112.9572956
11
321.6431132
21
-126.5414358
0
LINE
8
0
10
309.8603465
20
-157.8210843
11
323.4444867
21
-154.4341777
0
LINE
8
0
10
323.4444867
20
-154.4341777
11
320.0575801
21
-140.8500375
0
LINE
8
0
10
320.0575801
20
-140.8500375
11
306.4734399
21
-144.2369441
0
LINE
8
0
10
306.4734399
20
-144.2369441
11
309.8603465
21
-157.8210843
0
LINE
8
0
10
305.2638305
20
-139.3854655
11
318.8479707
21
-135.9985589
0
LINE
8
0
10
318.8479707
20
-135.9985589
11
315.4610641
21
-122.4144187
0
LINE
8
0
10
315.4610641
20
-122.4144187
11
301.8769239
21
-125.8013253
0
LINE
8
0
10
301.8769239
20
-125.8013253
11
305.2638305
21
-139.3854655
0
LINE
8
0
10
300.6673145
20
-120.9498467
11
314.2514547
21
-117.5629401
0
LINE
8
0
10
314.2514547
20
-117.5629401
11
310.8645481
21
-103.9787999
0
LINE
8
0
10
310.8645481
20
-103.9787999
11
297.2804079
21
-107.3657065
0
LINE
8
0
10
297.2804079
20
-107.3657065
11
300.6673145
21
-120.9498467
0
LINE
8
0
10
290.698962
20
-159.5067131
11
304.2831022
21
-156.1198065
0
LINE
8
0
10
304.2831022
20
-156.1198065
11
300.8961956
21
-142.5356663
0
LINE
8
0
10
300.8961956
20
-142.5356663
11
287.3120554
21
-145.9225729
0
LINE
8
0
10
287.3120554
20
-145.9225729
11
290.698962
21
-159.5067131
0
LINE
8
0
10
286.102446
20
-141.0710943
11
299.6865862
21
-137.6841877
0
LINE
8
0
10
299.6865862
20
-137.6841877
11
296.2996796
21
-124.1000475
0
LINE
8
0
10
296.2996796
20
-124.1000475
11
282.7155394
21
-127.4869541
0
LINE
8
0
10
282.7155394
20
-127.4869541
11
286.102446
21
-141.0710943
0
LINE
8
0
10
281.50593
20
-122.6354755
11
295.0900702
21
-119.2485689
0
LINE
8
0
10
295.0900702
20
-119.2485689
11
291.7031636
21
-105.6644287
0
LINE
8
0
10
291.7031636
20
-105.6644287
11
278.1190234
21
-109.0513353
0
LINE
8
0
10
278.1190234
20
-109.0513353
11
281.50593
21
-122.6354755
0
LINE
8
0
10
273.4729527
20
-168.9547078
11
287.0570929
21
-165.5678012
0
LINE
8
0
10
287.0570929
20
-165.5678012
11
283.6701863
21
-151.983661
0
LINE
8
0
10
283.6701863
20
-151.983661
11
270.0860461
21
-155.3705676
0
LINE
8
0
10
270.0860461
20
-155.3705676
11
273.4729527
21
-168.9547078
0
LINE
8
0
10
268.8764367
20
-150.519089
11
282.4605769
21
-147.1321824
0
LINE
8
0
10
282.4605769
20
-147.1321824
11
279.0736703
21
-133.5480422
0
LINE
8
0
10
279.0736703
20
-133.5480422
11
265.4895301
21
-136.9349488
0
LINE
8
0
10
265.4895301
20
-136.9349488
11
268.8764367
21
-150.519089
0
LINE
8
0
10
264.2799207
20
-132.0834702
11
277.8640609
21
-128.6965636
0
LINE
8
0
10
277.8640609
20
-128.6965636
11
274.4771543
21
-115.1124234
0
LINE
8
0
10
274.4771543
20
-115.1124234
11
260.8930141
21
-118.49933
0
LINE
8
0
10
260.8930141
20
-118.49933
11
264.2799207
21
-132.0834702
0
LINE
8
0
10
255.4002167
20
-175.0066674
11
268.9843569
21
-171.6197608
0
LINE
8
0
10
268.9843569
20
-171.6197608
11
265.5974503
21
-158.0356206
0
LINE
8
0
10
265.5974503
20
-158.0356206
11
252.0133101
21
-161.4225272
0
LINE
8
0
10
252.0133101
20
-161.4225272
11
255.4002167
21
-175.0066674
0
LINE
8
0
10
250.8037007
20
-156.5710486
11
264.3878409
21
-153.184142
0
LINE
8
0
10
264.3878409
20
-153.184142
11
261.0009343
21
-139.6000018
0
LINE
8
0
10
261.0009343
20
-139.6000018
11
247.4167941
21
-142.9869084
0
LINE
8
0
10
247.4167941
20
-142.9869084
11
250.8037007
21
-156.5710486
0
LINE
8
0
10
246.2071847
20
-138.1354298
11
259.7913249
21
-134.7485232
0
LINE
8
0
10
259.7913249
20
-134.7485232
11
256.4044183
21
-121.164383
0
LINE
8
0
10
256.4044183
20
-121.164383
11
242.8202781
21
-124.5512896
0
LINE
8
0
10
242.8202781
20
-124.5512896
11
246.2071847
21
-138.1354298
0
LINE
8
0
10
278.4323516
20
-188.8457702
11
292.0164918
21
-185.4588636
0
LINE
8
0
10
292.0164918
20
-185.4588636
11
288.6295852
21
-171.8747234
0
LINE
8
0
10
288.6295852
20
-171.8747234
11
275.045445
21
-175.26163
0
LINE
8
0
10
275.045445
20
-175.26163
11
278.4323516
21
-188.8457702
0
LINE
8
0
10
261.1256898
20
-198.0966243
11
273.1884981
21
-190.9910872
0
LINE
8
0
10
273.1884981
20
-190.9910872
11
266.082961
21
-178.9282789
0
LINE
8
0
10
266.082961
20
-178.9282789
11
254.0201527
21
-186.033816
0
LINE
8
0
10
254.0201527
20
-186.033816
11
261.1256898
21
-198.0966243
0
LINE
8
0
10
247.1591057
20
-211.8818831
11
256.7070827
21
-201.6429313
0
LINE
8
0
10
256.7070827
20
-201.6429313
11
246.4681309
21
-192.0949543
0
LINE
8
0
10
246.4681309
20
-192.0949543
11
236.9201539
21
-202.3339061
0
LINE
8
0
10
236.9201539
20
-202.3339061
11
247.1591057
21
-211.8818831
0
ENDSEC
0
EOF