0
SECTION
2
HEADER
9
$INSUNITS
70
4
0
ENDSEC
0
SECTION
2
TABLES
0
TABLE
2
LTYPE
0
LTYPE
72
65
70
64
2
CONTINUOUS
3
______
73
0
40
0
0
ENDTAB
0
TABLE
2
LAYER
0
ENDTAB
0
ENDSEC
0
SECTION
2
ENTITIES
0
LINE
8
0
10
58.1789392
20
-144.8782628
11
69.8224879
21
-147.7813256
0
LINE
8
0
10
69.8224879
20
-147.7813256
11
67.403269
21
-157.4842827
0
ARC
8
0
10
72.2547476
20
-158.6938921
40
5
50
166
51
166.0214363
0
ARC
8
0
10
74.1953391
20
-159.177736
40
7
50
166.0153117
51
255.9999994
0
LINE
8
0
10
72.5018858
20
-165.9698061
11
88.996913
21
-170.0824783
0
ARC
8
0
10
90.2065225
20
-165.2309997
40
5
50
256
51
256.0214374
0
ARC
8
0
10
90.6903663
20
-163.2904082
40
7
50
255.9999994
51
345.9999994
0
LINE
8
0
10
97.4824364
20
-164.9838615
11
98.329163
21
-161.5878265
0
LINE
8
0
10
98.329163
20
-161.5878265
11
123.5568519
21
-167.8777958
0
LINE
8
0
10
119.3232188
20
-184.857971
11
123.5568519
21
-167.8777958
0
ARC
8
0
10
126.1152889
20
-186.5514243
40
7
50
165.9999994
51
255.9999994
0
LINE
8
0
10
124.4218356
20
-193.3434944
11
141.0430416
21
-197.4876265
0
LINE
8
0
10
141.0430416
20
-197.4876265
11
155.9148325
21
-206.2477808
0
LINE
8
0
10
155.9148325
20
-206.2477808
11
167.5974924
21
-218.7758998
0
ARC
8
0
10
172.7169683
20
-214.0019112
40
7
50
223.0000017
51
313.0000017
0
LINE
8
0
10
177.4916882
20
-219.120705
11
189.9232384
21
-207.5280969
0
ARC
8
0
10
186.513978
20
-203.8706465
40
5
50
312.9885413
51
313.0000017
0
ARC
8
0
10
185.1499812
20
-202.4079391
40
7
50
313.0000017
51
403.0000017
0
LINE
8
0
10
172.4365127
20
-178.510459
11
190.268775
21
-197.6332192
0
LINE
8
0
10
172.4365127
20
-178.510459
11
177.4165571
21
-158.5365923
0
LINE
8
0
10
243.5012375
20
-158.5365923
11
177.4165571
21
-158.5365923
0
LINE
8
0
10
243.5012375
20
-158.5365923
11
248.4812819
21
-178.510459
0
LINE
8
0
10
230.6490196
20
-197.6332192
11
248.4812819
21
-178.510459
0
ARC
8
0
10
235.7678134
20
-202.4079391
40
7
50
136.9999983
51
226.9999983
0
ARC
8
0
10
234.4038166
20
-203.8706465
40
5
50
226.9999983
51
227.0114587
0
LINE
8
0
10
230.9945562
20
-207.5280969
11
243.4261064
21
-219.120705
0
ARC
8
0
10
248.2008263
20
-214.0019112
40
7
50
226.9999983
51
316.9999983
0
ARC
8
0
10
249.6635337
20
-215.365908
40
5
50
316.9999983
51
317.0114587
0
LINE
8
0
10
253.3209841
20
-218.7751684
11
265.0029621
21
-206.2477808
0
LINE
8
0
10
265.0029621
20
-206.2477808
11
279.8747531
21
-197.4876265
0
LINE
8
0
10
279.8747531
20
-197.4876265
11
296.495959
21
-193.3434944
0
ARC
8
0
10
295.2863495
20
-188.4920158
40
5
50
284
51
284.0214376
0
ARC
8
0
10
294.8025057
20
-186.5514243
40
7
50
284.0153123
51
373.9846891
0
ARC
8
0
10
296.7430972
20
-186.0675804
40
5
50
373.9785639
51
14.0000001
0
LINE
8
0
10
297.3609426
20
-167.8777958
11
301.5945758
21
-184.857971
0
LINE
8
0
10
297.3609426
20
-167.8777958
11
322.5886316
21
-161.5878265
0
LINE
8
0
10
322.5886316
20
-161.5878265
11
323.4353582
21
-164.9838615
0
ARC
8
0
10
328.2868368
20
-163.7742521
40
5
50
194
51
194.0214398
0
ARC
8
0
10
330.2274283
20
-163.2904082
40
7
50
194.0153149
51
284.0000006
0
LINE
8
0
10
331.9208816
20
-170.0824783
11
348.4159088
21
-165.9698061
0
ARC
8
0
10
346.7224555
20
-159.177736
40
7
50
284.0000006
51
374.0000006
0
LINE
8
0
10
353.5145256
20
-157.4842827
11
351.0953067
21
-147.7813256
0
LINE
8
0
10
351.0953067
20
-147.7813256
11
362.7388554
21
-144.8782628
0
ARC
8
0
10
361.529246
20
-140.0267842
40
5
50
284
51
284.0214398
0
ARC
8
0
10
361.0454021
20
-138.0861927
40
7
50
284.0153149
51
373.9846875
0
ARC
8
0
10
362.9859936
20
-137.6023489
40
5
50
373.9785626
51
14
0
LINE
8
0
10
355.3784946
20
-86.4225097
11
367.8374722
21
-136.3927394
0
ARC
8
0
10
348.5864245
20
-88.115963
40
7
50
14.0000006
51
103.9846867
0
LINE
8
0
10
236.8749453
20
-108.7544675
11
346.8929712
21
-81.3238929
0
LINE
8
0
10
184.0428493
20
-108.7544675
11
236.8749453
21
-108.7544675
0
LINE
8
0
10
74.0248234
20
-81.3238929
11
184.0428493
21
-108.7544675
0
ARC
8
0
10
72.3313701
20
-88.115963
40
7
50
75.9999994
51
165.9999994
0
LINE
8
0
10
53.0803224
20
-136.3927394
11
65.5393
21
-86.4225097
0
ARC
8
0
10
59.8723925
20
-138.0861927
40
7
50
165.9999994
51
255.9999994
0
LINE
8
0
10
59.3885487
20
-140.0267842
11
73.9429845
21
-143.6556126
0
LINE
8
0
10
57.931801
20
-137.6023489
11
70.3907786
21
-87.6321192
0
LINE
8
0
10
73.7114953
20
-161.1183275
11
90.2065225
21
-165.2309997
0
LINE
8
0
10
92.6309578
20
-163.774252
11
94.2034501
21
-157.4673299
0
LINE
8
0
10
75.3997322
20
-146.0800479
11
72.2547476
21
-158.6938922
0
LINE
8
0
10
96.6278854
20
-156.0105822
11
127.6773486
21
-163.7520828
0
LINE
8
0
10
72.8152139
20
-86.1753715
11
183.1906521
21
-113.695059
0
LINE
8
0
10
124.1746974
20
-186.0675805
11
129.1340963
21
-166.1765181
0
LINE
8
0
10
167.1909755
20
-178.8813323
11
173.1321088
21
-155.0527485
0
LINE
8
0
10
125.6314451
20
-188.4920158
11
142.67471
21
-192.741379
0
LINE
8
0
10
143.2059429
20
-192.9587122
11
158.8273152
21
-202.1604037
0
LINE
8
0
10
159.2749458
20
-202.5196652
11
171.2542609
21
-215.365908
0
LINE
8
0
10
174.080965
20
-215.4646185
11
186.513978
21
-203.8706465
0
LINE
8
0
10
167.6688596
20
-180.7291729
11
186.6126886
21
-201.0439424
0
LINE
8
0
10
346.9748101
20
-143.6556126
11
361.5292459
21
-140.0267842
0
LINE
8
0
10
350.527016
20
-87.6321192
11
362.9859936
21
-137.6023489
0
LINE
8
0
10
330.7112721
20
-165.2309997
11
347.2062993
21
-161.1183275
0
LINE
8
0
10
348.663047
20
-158.6938922
11
345.5180624
21
-146.0800479
0
LINE
8
0
10
326.7143445
20
-157.4673299
11
328.2868368
21
-163.774252
0
LINE
8
0
10
293.240446
20
-163.7520828
11
324.2899092
21
-156.0105822
0
LINE
8
0
10
237.7271425
20
-113.695059
11
348.1025807
21
-86.1753715
0
LINE
8
0
10
291.7836983
20
-166.1765181
11
296.7430972
21
-186.0675805
0
LINE
8
0
10
247.7856858
20
-155.0527485
11
253.7268191
21
-178.8813323
0
LINE
8
0
10
278.2430846
20
-192.741379
11
295.2863495
21
-188.4920158
0
LINE
8
0
10
262.0904794
20
-202.1604037
11
277.7118517
21
-192.9587122
0
LINE
8
0
10
249.6635337
20
-215.365908
11
261.6428488
21
-202.5196652
0
LINE
8
0
10
234.305106
20
-201.0439424
11
253.248935
21
-180.7291729
0
LINE
8
0
10
234.4038166
20
-203.8706465
11
246.8368296
21
-215.4646185
0
LINE
8
0
10
183.6744959
20
-113.7544675
11
237.2432987
21
-113.7544675
0
LINE
8
0
10
245.8450943
20
-153.5365923
11
175.0727003
21
-153.5365923
0
ARC
8
0
10
73.4591407
20
-145.5962041
40
2
50
345.9999994
51
75.9999994
0
ARC
8
0
10
74.1953391
20
-159.177736
40
2
50
165.9999994
51
255.9999994
0
ARC
8
0
10
90.6903663
20
-163.2904082
40
2
50
255.9999994
51
345.9999994
0
ARC
8
0
10
96.1440416
20
-157.9511737
40
2
50
75.9999994
51
165.9999994
0
ARC
8
0
10
127.1935048
20
-165.6926743
40
2
50
345.9999994
51
75.9999994
0
ARC
8
0
10
126.1152889
20
-186.5514243
40
2
50
165.9999994
51
255.9999994
0
ARC
8
0
10
142.1908662
20
-194.6819705
40
2
50
59.4999993
51
75.9999994
0
ARC
8
0
10
157.8122384
20
-203.8836619
40
2
50
43.0000017
51
59.4999993
0
ARC
8
0
10
172.7169683
20
-214.0019112
40
2
50
223.0000017
51
313.0000017
0
ARC
8
0
10
185.1499812
20
-202.4079391
40
2
50
313.0000017
51
43.0000017
0
ARC
8
0
10
169.131567
20
-179.3651762
40
2
50
165.9999994
51
223.0000017
0
ARC
8
0
10
175.0727003
20
-155.5365923
40
2
50
90
51
165.9999994
0
ARC
8
0
10
245.8450943
20
-155.5365923
40
2
50
14.0000006
51
90
0
ARC
8
0
10
251.7862276
20
-179.3651762
40
2
50
316.9999983
51
14.0000006
0
ARC
8
0
10
235.7678134
20
-202.4079391
40
2
50
136.9999983
51
226.9999983
0
ARC
8
0
10
248.2008263
20
-214.0019112
40
2
50
226.9999983
51
316.9999983
0
ARC
8
0
10
263.1055562
20
-203.8836619
40
2
50
120.5000007
51
136.9999983
0
ARC
8
0
10
278.7269284
20
-194.6819705
40
2
50
104.0000006
51
120.5000007
0
ARC
8
0
10
294.8025057
20
-186.5514243
40
2
50
284.0000006
51
14.0000006
0
ARC
8
0
10
293.7242898
20
-165.6926743
40
2
50
104.0000006
51
194.0000006
0
ARC
8
0
10
324.773753
20
-157.9511737
40
2
50
14.0000006
51
104.0000006
0
ARC
8
0
10
330.2274283
20
-163.2904082
40
2
50
194.0000006
51
284.0000006
0
ARC
8
0
10
346.7224555
20
-159.177736
40
2
50
284.0000006
51
14.0000006
0
ARC
8
0
10
347.4586539
20
-145.5962041
40
2
50
104.0000006
51
194.0000006
0
ARC
8
0
10
361.0454021
20
-138.0861927
40
2
50
284.0000006
51
14.0000006
0
ARC
8
0
10
348.5864245
20
-88.115963
40
2
50
14.0000006
51
104.0000006
0
ARC
8
0
10
237.2432987
20
-111.7544675
40
2
50
270
51
284.0000006
0
ARC
8
0
10
183.6744959
20
-111.7544675
40
2
50
255.9999994
51
270
0
ARC
8
0
10
72.3313701
20
-88.115963
40
2
50
75.9999994
51
165.9999994
0
ARC
8
0
10
59.8723925
20
-138.0861927
40
2
50
165.9999994
51
255.9999994
0
ENDSEC
0
EOF