0
SECTION
2
HEADER
9
$INSUNITS
70
4
0
ENDSEC
0
SECTION
2
TABLES
0
TABLE
2
LTYPE
0
LTYPE
72
65
70
64
2
CONTINUOUS
3
______
73
0
40
0
0
ENDTAB
0
TABLE
2
LAYER
0
ENDTAB
0
ENDSEC
0
SECTION
2
ENTITIES
0
LINE
8
0
10
57.305673
20
-144.6605331
11
69.8224879
21
-147.7813256
0
LINE
8
0
10
69.8224879
20
-147.7813256
11
67.1855392
21
-158.3575489
0
ARC
8
0
10
73.1043432
20
-159.8332725
40
6.1
50
165.9999994
51
255.9999994
0
LINE
8
0
10
71.6286196
20
-165.7520764
11
89.8701792
21
-170.3002081
0
ARC
8
0
10
91.3459028
20
-164.3814041
40
6.1
50
255.9999994
51
345.9999994
0
LINE
8
0
10
97.2647067
20
-165.8571277
11
98.3291631
21
-161.5878265
0
LINE
8
0
10
98.3291631
20
-161.5878265
11
110.8459779
21
-164.708619
0
ARC
8
0
10
112.3217015
20
-158.789815
40
6.1
50
255.9999994
51
315.456211
0
LINE
8
0
10
116.6692603
20
-163.0686854
11
124.2826177
21
-164.9669087
0
LINE
8
0
10
119.1054891
20
-185.7312372
11
124.2826177
21
-164.9669087
0
ARC
8
0
10
125.024293
20
-187.2069608
40
6.1
50
165.9999994
51
255.9999994
0
LINE
8
0
10
123.5485694
20
-193.1257647
11
141.0430418
21
-197.4876266
0
LINE
8
0
10
141.0430418
20
-197.4876266
11
155.9148324
21
-206.2477807
0
LINE
8
0
10
155.9148324
20
-206.2477807
11
168.2112909
21
-219.434118
0
ARC
8
0
10
172.6725485
20
-215.273928
40
6.1
50
223.0000017
51
313.0000017
0
LINE
8
0
10
176.8327385
20
-219.7351856
11
190.582188
21
-206.9136165
0
ARC
8
0
10
186.421998
20
-202.4523589
40
6.1
50
313.0000017
51
403.0000017
0
LINE
8
0
10
172.4365127
20
-178.510459
11
190.8832556
21
-198.2921689
0
LINE
8
0
10
172.4365127
20
-178.510459
11
177.4165571
21
-158.5365923
0
LINE
8
0
10
243.5012375
20
-158.5365923
11
177.4165571
21
-158.5365923
0
LINE
8
0
10
243.5012375
20
-158.5365923
11
248.4812818
21
-178.5104591
0
LINE
8
0
10
230.034539
20
-198.2921689
11
248.4812818
21
-178.5104591
0
ARC
8
0
10
234.4957966
20
-202.4523589
40
6.1
50
136.9999983
51
226.9999983
0
LINE
8
0
10
230.3356066
20
-206.9136165
11
244.0850561
21
-219.7351856
0
ARC
8
0
10
247.4950479
20
-216.0784171
40
5
50
227.0000001
51
227.0269829
0
ARC
8
0
10
248.2452461
20
-215.273928
40
6.1
50
227.0221166
51
316.9999983
0
LINE
8
0
10
252.7065037
20
-219.434118
11
265.002962
21
-206.2477808
0
LINE
8
0
10
265.002962
20
-206.2477808
11
279.8747531
21
-197.4876265
0
LINE
8
0
10
279.8747531
20
-197.4876265
11
297.3692252
21
-193.1257647
0
ARC
8
0
10
296.1596158
20
-188.2742861
40
5
50
284
51
284.0269877
0
ARC
8
0
10
295.8935016
20
-187.2069608
40
6.1
50
284.022121
51
374.0000006
0
LINE
8
0
10
296.6351769
20
-164.9669086
11
301.8123055
21
-185.7312372
0
LINE
8
0
10
296.6351769
20
-164.9669086
11
304.2485342
21
-163.0686854
0
ARC
8
0
10
308.5960931
20
-158.789815
40
6.1
50
224.5437883
51
284.0000006
0
LINE
8
0
10
310.0718167
20
-164.7086189
11
322.5886316
21
-161.5878265
0
LINE
8
0
10
322.5886316
20
-161.5878265
11
323.6530879
21
-165.8571277
0
ARC
8
0
10
329.5718918
20
-164.3814041
40
6.1
50
194.0000006
51
284.0000006
0
LINE
8
0
10
331.0476154
20
-170.300208
11
349.289175
21
-165.7520764
0
ARC
8
0
10
347.8134514
20
-159.8332725
40
6.1
50
284.0000006
51
374.0000006
0
LINE
8
0
10
353.7322553
20
-158.3575489
11
351.0953067
21
-147.7813256
0
LINE
8
0
10
351.0953067
20
-147.7813256
11
363.6121216
21
-144.6605331
0
ARC
8
0
10
362.136398
20
-138.7417292
40
6.1
50
284.0000006
51
374.0000006
0
LINE
8
0
10
358.9105543
20
-100.5888272
11
368.055202
21
-137.2660056
0
ARC
8
0
10
352.9917504
20
-102.0645508
40
6.1
50
14.0000006
51
104.0000006
0
LINE
8
0
10
351.5160268
20
-96.1457469
11
338.0289162
21
-99.5084611
0
ARC
8
0
10
334.873499
20
-103.3870359
40
5
50
50.8698981
51
104.0000005
0
LINE
8
0
10
333.6638895
20
-98.5355573
11
320.0797493
21
-101.9224638
0
LINE
8
0
10
320.0797493
20
-101.9224638
11
319.015293
21
-97.6531626
0
ARC
8
0
10
313.0964891
20
-99.1288862
40
6.1
50
14.0000006
51
104.0000006
0
LINE
8
0
10
311.6207655
20
-93.2100823
11
298.2826634
21
-96.5356446
0
ARC
8
0
10
293.9351046
20
-100.8145151
40
6.1
50
44.5437896
51
104.0000006
0
LINE
8
0
10
236.8749453
20
-108.7544675
11
292.459381
21
-94.8957112
0
LINE
8
0
10
184.0428493
20
-108.7544675
11
236.8749453
21
-108.7544675
0
LINE
8
0
10
128.4584136
20
-94.8957112
11
184.0428493
21
-108.7544675
0
ARC
8
0
10
126.98269
20
-100.8145151
40
6.1
50
75.9999994
51
135.4562117
0
LINE
8
0
10
122.6351311
20
-96.5356447
11
109.2970291
21
-93.2100822
0
ARC
8
0
10
107.8213055
20
-99.1288862
40
6.1
50
75.9999994
51
165.9999994
0
LINE
8
0
10
101.9025016
20
-97.6531626
11
100.8380452
21
-101.9224638
0
LINE
8
0
10
100.8380452
20
-101.9224638
11
88.3212304
21
-98.8016713
0
ARC
8
0
10
86.8455068
20
-104.7204753
40
6.1
50
75.9999994
51
123.7682387
0
LINE
8
0
10
83.454914
20
-99.6495897
11
69.4017678
21
-96.1457468
0
ARC
8
0
10
67.9260442
20
-102.0645508
40
6.1
50
75.9999994
51
165.9999994
0
LINE
8
0
10
52.8625927
20
-137.2660056
11
62.0072403
21
-100.5888272
0
ARC
8
0
10
58.7813966
20
-138.7417292
40
6.1
50
165.9999994
51
255.9999994
0
LINE
8
0
10
58.5152825
20
-139.8090545
11
74.8162507
21
-143.8733423
0
LINE
8
0
10
57.7140713
20
-138.4756151
11
66.8587189
21
-101.7984367
0
LINE
8
0
10
85.5604518
20
-105.3276274
11
68.1921583
21
-100.9972255
0
LINE
8
0
10
72.8382291
20
-160.9005978
11
91.0797887
21
-165.4487294
0
LINE
8
0
10
92.4132281
20
-164.6475182
11
94.4211798
21
-156.5940637
0
LINE
8
0
10
75.6174619
20
-145.2067817
11
72.0370179
21
-159.5671584
0
LINE
8
0
10
103.4125891
20
-107.7174378
11
87.1116209
21
-103.65315
0
LINE
8
0
10
85.7781815
20
-104.4543612
11
85.5604518
21
-105.3276274
0
LINE
8
0
10
95.7546192
20
-155.7928525
11
112.0555874
21
-159.8571403
0
LINE
8
0
10
113.3890268
20
-159.0559291
11
113.5825643
21
-158.2796926
0
LINE
8
0
10
124.3883878
20
-102.1258487
11
108.0874196
21
-98.0615609
0
LINE
8
0
10
106.7539802
20
-98.8627721
11
104.7460285
21
-106.9162266
0
LINE
8
0
10
114.9160037
20
-157.4784814
11
129.2763805
21
-161.0589254
0
LINE
8
0
10
127.2488041
20
-99.7471898
11
183.2978755
21
-113.7217928
0
LINE
8
0
10
125.9153647
20
-100.548401
11
125.7218272
21
-101.3246375
0
LINE
8
0
10
123.9569677
20
-186.9408467
11
130.0775917
21
-162.3923648
0
LINE
8
0
10
167.0727579
20
-179.3554771
11
173.3022179
21
-154.3704782
0
LINE
8
0
10
124.7581789
20
-188.2742861
11
142.8013272
21
-192.7729482
0
LINE
8
0
10
143.0935054
20
-192.8924814
11
158.9397524
21
-202.2266343
0
LINE
8
0
10
159.1859493
20
-202.4242281
11
171.8680594
21
-216.0241262
0
LINE
8
0
10
173.4227467
20
-216.0784171
11
187.1721962
21
-203.256848
0
LINE
8
0
10
167.3355942
20
-180.3717895
11
187.2264871
21
-201.7021607
0
LINE
8
0
10
346.1015439
20
-143.8733423
11
362.4025121
21
-139.8090545
0
LINE
8
0
10
354.0590757
20
-101.7984367
11
363.2037233
21
-138.4756151
0
LINE
8
0
10
352.7256363
20
-100.9972255
11
336.4246681
21
-105.0615133
0
LINE
8
0
10
329.8380059
20
-165.4487294
11
348.0795655
21
-160.9005978
0
LINE
8
0
10
348.8807767
20
-159.5671584
11
345.3003327
21
-145.2067817
0
LINE
8
0
10
326.4966148
20
-156.5940637
11
328.5045665
21
-164.6475182
0
LINE
8
0
10
335.0912287
20
-104.2603021
11
334.873499
21
-103.3870359
0
LINE
8
0
10
334.873499
20
-103.3870359
11
317.5052055
21
-107.7174378
0
LINE
8
0
10
308.8622072
20
-159.8571403
11
325.1631754
21
-155.7928525
0
LINE
8
0
10
307.3352303
20
-158.2796926
11
307.5287678
21
-159.0559291
0
LINE
8
0
10
316.1717661
20
-106.9162266
11
314.1638144
21
-98.8627721
0
LINE
8
0
10
312.830375
20
-98.0615609
11
296.5294068
21
-102.1258487
0
LINE
8
0
10
291.6414141
20
-161.0589254
11
306.0017909
21
-157.4784814
0
LINE
8
0
10
295.1959674
20
-101.3246375
11
295.0024299
21
-100.548401
0
LINE
8
0
10
237.6199191
20
-113.7217928
11
293.6689905
21
-99.7471898
0
LINE
8
0
10
290.8402029
20
-162.3923648
11
296.9608269
21
-186.9408467
0
LINE
8
0
10
247.6155767
20
-154.3704782
11
253.8450367
21
-179.3554771
0
LINE
8
0
10
278.1164674
20
-192.7729482
11
296.1596157
21
-188.2742861
0
LINE
8
0
10
261.9780422
20
-202.2266343
11
277.8242892
21
-192.8924814
0
LINE
8
0
10
249.0497352
20
-216.0241262
11
261.7318453
21
-202.4242281
0
LINE
8
0
10
233.6913075
20
-201.7021607
11
253.5822004
21
-180.3717895
0
LINE
8
0
10
233.7455984
20
-203.256848
11
247.4950479
21
-216.0784171
0
LINE
8
0
10
183.5639896
20
-113.7544675
11
237.353805
21
-113.7544675
0
LINE
8
0
10
246.5482514
20
-153.5365923
11
174.3695432
21
-153.5365923
0
ARC
8
0
10
74.5501366
20
-144.9406676
40
1.1
50
345.9999994
51
75.9999994
0
ARC
8
0
10
73.1043432
20
-159.8332725
40
1.1
50
165.9999994
51
255.9999994
0
ARC
8
0
10
91.3459028
20
-164.3814041
40
1.1
50
255.9999994
51
345.9999994
0
ARC
8
0
10
95.4885051
20
-156.8601778
40
1.1
50
75.9999994
51
165.9999994
0
ARC
8
0
10
112.3217015
20
-158.789815
40
1.1
50
255.9999994
51
345.9999994
0
ARC
8
0
10
114.6498896
20
-158.5458067
40
1.1
50
75.9999994
51
165.9999994
0
ARC
8
0
10
129.0102664
20
-162.1262507
40
1.1
50
345.9999994
51
75.9999994
0
ARC
8
0
10
125.024293
20
-187.2069608
40
1.1
50
165.9999994
51
255.9999994
0
ARC
8
0
10
142.5352131
20
-193.8402735
40
1.1
50
59.4999993
51
75.9999994
0
ARC
8
0
10
158.3814602
20
-203.1744264
40
1.1
50
43.0000017
51
59.4999993
0
ARC
8
0
10
172.6725485
20
-215.273928
40
1.1
50
223.0000017
51
313.0000017
0
ARC
8
0
10
186.421998
20
-202.4523589
40
1.1
50
313.0000017
51
43.0000017
0
ARC
8
0
10
168.1400832
20
-179.6215912
40
1.1
50
165.9999994
51
223.0000017
0
ARC
8
0
10
174.3695432
20
-154.6365923
40
1.1
50
90
51
165.9999994
0
ARC
8
0
10
246.5482514
20
-154.6365923
40
1.1
50
14.0000006
51
90
0
ARC
8
0
10
252.7777114
20
-179.6215912
40
1.1
50
316.9999983
51
14.0000006
0
ARC
8
0
10
234.4957966
20
-202.4523589
40
1.1
50
136.9999983
51
226.9999983
0
ARC
8
0
10
248.2452461
20
-215.273928
40
1.1
50
226.9999983
51
316.9999983
0
ARC
8
0
10
262.5363344
20
-203.1744264
40
1.1
50
120.5000007
51
136.9999983
0
ARC
8
0
10
278.3825815
20
-193.8402735
40
1.1
50
104.0000006
51
120.5000007
0
ARC
8
0
10
295.8935016
20
-187.2069608
40
1.1
50
284.0000006
51
14.0000006
0
ARC
8
0
10
291.9075282
20
-162.1262507
40
1.1
50
104.0000006
51
194.0000006
0
ARC
8
0
10
306.267905
20
-158.5458067
40
1.1
50
14.0000006
51
104.0000006
0
ARC
8
0
10
308.5960931
20
-158.789815
40
1.1
50
194.0000006
51
284.0000006
0
ARC
8
0
10
325.4292895
20
-156.8601778
40
1.1
50
14.0000006
51
104.0000006
0
ARC
8
0
10
329.5718918
20
-164.3814041
40
1.1
50
194.0000006
51
284.0000006
0
ARC
8
0
10
347.8134514
20
-159.8332725
40
1.1
50
284.0000006
51
14.0000006
0
ARC
8
0
10
346.367658
20
-144.9406676
40
1.1
50
104.0000006
51
194.0000006
0
ARC
8
0
10
362.136398
20
-138.7417292
40
1.1
50
284.0000006
51
14.0000006
0
ARC
8
0
10
352.9917504
20
-102.0645508
40
1.1
50
14.0000006
51
104.0000006
0
ARC
8
0
10
336.158554
20
-103.994188
40
1.1
50
194.0000006
51
284.0000006
0
ARC
8
0
10
317.2390914
20
-106.6501125
40
1.1
50
194.0000006
51
284.0000006
0
ARC
8
0
10
313.0964891
20
-99.1288862
40
1.1
50
14.0000006
51
104.0000006
0
ARC
8
0
10
296.2632927
20
-101.0585234
40
1.1
50
194.0000006
51
284.0000006
0
ARC
8
0
10
293.9351046
20
-100.8145151
40
1.1
50
14.0000006
51
104.0000006
0
ARC
8
0
10
237.353805
20
-112.6544675
40
1.1
50
270
51
284.0000006
0
ARC
8
0
10
183.5639896
20
-112.6544675
40
1.1
50
255.9999994
51
270
0
ARC
8
0
10
126.98269
20
-100.8145151
40
1.1
50
75.9999994
51
165.9999994
0
ARC
8
0
10
124.6545019
20
-101.0585234
40
1.1
50
255.9999994
51
345.9999994
0
ARC
8
0
10
107.8213055
20
-99.1288862
40
1.1
50
75.9999994
51
165.9999994
0
ARC
8
0
10
103.6787032
20
-106.6501125
40
1.1
50
255.9999994
51
345.9999994
0
ARC
8
0
10
86.8455068
20
-104.7204753
40
1.1
50
75.9999994
51
165.9999994
0
ARC
8
0
10
67.9260442
20
-102.0645508
40
1.1
50
75.9999994
51
165.9999994
0
ARC
8
0
10
58.7813966
20
-138.7417292
40
1.1
50
165.9999994
51
255.9999994
0
ENDSEC
0
EOF