0
SECTION
2
HEADER
9
$INSUNITS
70
4
0
ENDSEC
0
SECTION
2
TABLES
0
TABLE
2
LTYPE
0
LTYPE
72
65
70
64
2
CONTINUOUS
3
______
73
0
40
0
0
ENDTAB
0
TABLE
2
LAYER
0
ENDTAB
0
ENDSEC
0
SECTION
2
ENTITIES
0
LINE
8
0
10
56.2383477
20
-144.394419
11
69.8224879
21
-147.7813256
0
LINE
8
0
10
69.8224879
20
-147.7813256
11
66.4355814
21
-161.3654657
0
ARC
8
0
10
71.28706
20
-162.5750752
40
5
50
165.9999999
51
256
0
LINE
8
0
10
70.0774505
20
-167.4265538
11
90.4536607
21
-172.5069136
0
ARC
8
0
10
91.6632702
20
-167.655435
40
5
50
256
51
345.9999997
0
LINE
8
0
10
96.5147488
20
-168.8650445
11
97.8453192
21
-163.528418
0
LINE
8
0
10
97.8453192
20
-163.528418
11
111.4294594
21
-166.9153246
0
ARC
8
0
10
112.6390689
20
-162.0638459
40
5
50
256
51
322.4218209
0
LINE
8
0
10
116.6016787
20
-165.1130628
11
123.7987739
21
-166.9075001
0
LINE
8
0
10
118.839375
20
-186.7985625
11
123.7987739
21
-166.9075001
0
ARC
8
0
10
123.6908536
20
-188.008172
40
5
50
165.9999999
51
255.9999997
0
LINE
8
0
10
122.4812441
20
-192.8596506
11
141.0430418
21
-197.4876266
0
LINE
8
0
10
141.0430418
20
-197.4876266
11
155.9148325
21
-206.2477808
0
LINE
8
0
10
155.9148325
20
-206.2477808
11
168.961489
21
-220.2386071
0
ARC
8
0
10
172.6182576
20
-216.8286153
40
5
50
222.9999999
51
312.9999996
0
LINE
8
0
10
176.0282494
20
-220.4853838
11
191.3866771
21
-206.1634183
0
ARC
8
0
10
187.9766853
20
-202.5066498
40
5
50
312.9999999
51
403.0000001
0
LINE
8
0
10
191.6334538
20
-199.096658
11
177.3114883
21
-183.7382303
0
ARC
8
0
10
173.6547198
20
-187.1482221
40
5
50
42.9999999
51
73.3386186
0
ARC
8
0
10
170.7220406
20
-184.7944982
40
5
50
389.1613826
51
419.5000003
0
LINE
8
0
10
173.2597324
20
-180.4863524
11
172.1123744
21
-179.8105069
0
LINE
8
0
10
172.1123744
20
-179.8105069
11
176.0859866
21
-163.8732188
0
LINE
8
0
10
243.8641204
20
-163.8732188
11
176.0859866
21
-163.8732188
0
LINE
8
0
10
243.8641204
20
-163.8732188
11
247.8377326
21
-179.8105069
0
LINE
8
0
10
247.8377326
20
-179.8105069
11
246.6903746
21
-180.4863524
0
ARC
8
0
10
249.2280664
20
-184.7944982
40
5
50
120.4999999
51
150.83862
0
ARC
8
0
10
246.2953872
20
-187.1482221
40
5
50
106.6613814
51
136.9999997
0
LINE
8
0
10
242.6386187
20
-183.7382303
11
228.3166532
21
-199.096658
0
ARC
8
0
10
231.9734217
20
-202.5066498
40
5
50
137.0000001
51
226.9999999
0
LINE
8
0
10
228.5634299
20
-206.1634183
11
243.9218576
21
-220.4853838
0
ARC
8
0
10
247.3318494
20
-216.8286153
40
5
50
226.9999999
51
317.0000001
0
LINE
8
0
10
250.9886179
20
-220.2386071
11
264.0352746
21
-206.2477807
0
LINE
8
0
10
264.0352746
20
-206.2477807
11
278.9070655
21
-197.4876265
0
LINE
8
0
10
278.9070655
20
-197.4876265
11
297.4688629
21
-192.8596506
0
ARC
8
0
10
296.2592534
20
-188.008172
40
5
50
284.0000003
51
14.0000001
0
LINE
8
0
10
296.1513331
20
-166.9075001
11
301.110732
21
-186.7985625
0
LINE
8
0
10
296.1513331
20
-166.9075001
11
303.3484283
21
-165.1130627
0
ARC
8
0
10
307.3110381
20
-162.0638459
40
5
50
217.5781782
51
284
0
LINE
8
0
10
308.5206476
20
-166.9153245
11
322.1047878
21
-163.528418
0
LINE
8
0
10
322.1047878
20
-163.528418
11
323.4353582
21
-168.8650445
0
ARC
8
0
10
328.2868368
20
-167.655435
40
5
50
194.0000001
51
284
0
LINE
8
0
10
329.4964463
20
-172.5069136
11
349.8726565
21
-167.4265538
0
ARC
8
0
10
348.663047
20
-162.5750752
40
5
50
284
51
374.0000003
0
LINE
8
0
10
353.5145256
20
-161.3654657
11
350.1276191
21
-147.7813256
0
LINE
8
0
10
350.1276191
20
-147.7813256
11
363.7117593
21
-144.394419
0
ARC
8
0
10
362.5021498
20
-139.5429404
40
5
50
284
51
374.0000006
0
LINE
8
0
10
354.410807
20
-86.4225096
11
367.3536284
21
-138.3333309
0
ARC
8
0
10
349.5593284
20
-87.6321191
40
5
50
14
51
104.0000003
0
LINE
8
0
10
272.6666523
20
-101.6505483
11
348.3497189
21
-82.7806405
0
ARC
8
0
10
273.8762618
20
-106.5020269
40
5
50
104
51
194.0000003
0
LINE
8
0
10
269.0247832
20
-107.7116364
11
255.440643
21
-111.098543
0
ARC
8
0
10
256.6502525
20
-115.9500216
40
5
50
104
51
149.572996
0
LINE
8
0
10
252.3388771
20
-113.4178205
11
237.9635937
21
-117.0019812
0
LINE
8
0
10
181.9865132
20
-117.0019812
11
237.9635937
21
-117.0019812
0
LINE
8
0
10
181.9865132
20
-117.0019812
11
167.6112299
21
-113.4178205
0
ARC
8
0
10
163.2998545
20
-115.9500216
40
5
50
390.427004
51
435.9999992
0
LINE
8
0
10
164.509464
20
-111.098543
11
150.9253238
21
-107.7116364
0
ARC
8
0
10
146.0738452
20
-106.5020269
40
5
50
346
51
435.9999998
0
LINE
8
0
10
71.6003881
20
-82.7806405
11
147.2834547
21
-101.6505483
0
ARC
8
0
10
70.3907786
20
-87.6321191
40
5
50
435.9999997
51
166
0
LINE
8
0
10
52.5964786
20
-138.3333309
11
65.5393
21
-86.4225096
0
ARC
8
0
10
57.4479572
20
-139.5429404
40
5
50
165.9999997
51
256
0
LINE
8
0
10
57.2060353
20
-140.5132361
11
74.6713584
21
-144.8678303
0
LINE
8
0
10
74.6713584
20
-144.8678303
11
70.3167643
21
-162.3331533
0
ARC
8
0
10
71.28706
20
-162.5750752
40
1
50
166.0000006
51
256
0
LINE
8
0
10
71.0451381
20
-163.5453709
11
91.4213483
21
-168.6257307
0
ARC
8
0
10
91.6632702
20
-167.655435
40
1
50
256
51
345.9999994
0
LINE
8
0
10
92.6335659
20
-167.8973569
11
94.9318239
21
-158.6795475
0
LINE
8
0
10
94.9318239
20
-158.6795475
11
112.397147
21
-163.0341416
0
ARC
8
0
10
112.6390689
20
-162.0638459
40
1
50
256
51
345.9999982
0
LINE
8
0
10
113.6093646
20
-162.3057678
11
114.0932084
21
-160.3651763
0
LINE
8
0
10
114.0932084
20
-160.3651763
11
128.6476444
21
-163.9940048
0
LINE
8
0
10
122.7205579
20
-187.7662501
11
128.6476444
21
-163.9940048
0
ARC
8
0
10
123.6908536
20
-188.008172
40
1
50
165.9999999
51
255.9999994
0
LINE
8
0
10
123.4489317
20
-188.9784677
11
142.5734739
21
-193.7467517
0
LINE
8
0
10
142.5734739
20
-193.7467517
11
158.444707
21
-203.0956223
0
LINE
8
0
10
158.444707
20
-203.0956223
11
171.8869039
21
-217.5106137
0
ARC
8
0
10
172.6182576
20
-216.8286153
40
1
50
222.9999999
51
312.9999994
0
LINE
8
0
10
173.300256
20
-217.559969
11
188.6586837
21
-203.2380035
0
ARC
8
0
10
187.9766853
20
-202.5066498
40
1
50
312.9999999
51
403.0000017
0
LINE
8
0
10
188.708039
20
-201.8246514
11
174.3860735
21
-186.4662237
0
ARC
8
0
10
173.6547198
20
-187.1482221
40
1
50
42.9999999
51
133.0000017
0
LINE
8
0
10
172.9727214
20
-186.4168684
11
168.4337651
21
-190.6495136
0
LINE
8
0
10
168.4337651
20
-190.6495136
11
171.5836698
21
-185.3020365
0
ARC
8
0
10
170.7220406
20
-184.7944982
40
1
50
329.5000001
51
419.5000002
0
LINE
8
0
10
171.229579
20
-183.932869
11
163.5084262
21
-179.3847625
0
LINE
8
0
10
163.5084262
20
-179.3847625
11
166.8572768
21
-180.2197247
0
ARC
8
0
10
167.0991987
20
-179.249429
40
1
50
256
51
345.9999982
0
LINE
8
0
10
168.0694944
20
-179.4913509
11
172.9608441
21
-159.8732188
0
LINE
8
0
10
246.9892629
20
-159.8732188
11
172.9608441
21
-159.8732188
0
LINE
8
0
10
246.9892629
20
-159.8732188
11
251.8806126
21
-179.4913509
0
ARC
8
0
10
252.8509083
20
-179.249429
40
1
50
194.0000006
51
284
0
LINE
8
0
10
253.0928302
20
-180.2197247
11
256.4416808
21
-179.3847625
0
LINE
8
0
10
256.4416808
20
-179.3847625
11
248.720528
21
-183.9328691
0
ARC
8
0
10
249.2280664
20
-184.7944982
40
1
50
120.4999999
51
210.5000016
0
LINE
8
0
10
248.3664372
20
-185.3020366
11
251.5163419
21
-190.6495136
0
LINE
8
0
10
251.5163419
20
-190.6495136
11
246.9773856
21
-186.4168684
0
ARC
8
0
10
246.2953872
20
-187.1482221
40
1
50
47.0000001
51
136.9999969
0
LINE
8
0
10
245.5640335
20
-186.4662237
11
231.242068
21
-201.8246514
0
ARC
8
0
10
231.9734217
20
-202.5066498
40
1
50
137.0000001
51
226.9999983
0
LINE
8
0
10
231.2914233
20
-203.2380035
11
246.649851
21
-217.559969
0
ARC
8
0
10
247.3318494
20
-216.8286153
40
1
50
226.9999983
51
317.0000001
0
LINE
8
0
10
248.0632031
20
-217.5106137
11
261.5053998
21
-203.0956225
0
LINE
8
0
10
261.5053998
20
-203.0956225
11
277.376633
21
-193.7467516
0
LINE
8
0
10
277.376633
20
-193.7467516
11
296.5011753
21
-188.9784677
0
ARC
8
0
10
296.2592534
20
-188.008172
40
1
50
284.0000003
51
14.0000001
0
LINE
8
0
10
291.3024626
20
-163.9940047
11
297.2295491
21
-187.7662501
0
LINE
8
0
10
291.3024626
20
-163.9940047
11
305.8568986
21
-160.3651763
0
LINE
8
0
10
305.8568986
20
-160.3651763
11
306.3407424
21
-162.3057678
0
ARC
8
0
10
307.3110381
20
-162.0638459
40
1
50
193.9999994
51
284
0
LINE
8
0
10
307.55296
20
-163.0341416
11
325.0182831
21
-158.6795475
0
LINE
8
0
10
325.0182831
20
-158.6795475
11
327.3165411
21
-167.8973569
0
ARC
8
0
10
328.2868368
20
-167.655435
40
1
50
193.9999994
51
284
0
LINE
8
0
10
328.5287587
20
-168.6257307
11
348.9049689
21
-163.5453709
0
ARC
8
0
10
348.663047
20
-162.5750752
40
1
50
284
51
374.0000006
0
LINE
8
0
10
349.6333427
20
-162.3331533
11
345.2787486
21
-144.8678302
0
LINE
8
0
10
345.2787486
20
-144.8678302
11
362.7440717
21
-140.5132361
0
ARC
8
0
10
362.5021498
20
-139.5429404
40
1
50
284
51
374.0000018
0
LINE
8
0
10
350.5296241
20
-87.3901972
11
363.4724455
21
-139.3010185
0
ARC
8
0
10
349.5593284
20
-87.6321191
40
1
50
14
51
104.0000006
0
LINE
8
0
10
273.6343399
20
-105.5317312
11
349.3174065
21
-86.6618234
0
ARC
8
0
10
273.8762618
20
-106.5020269
40
1
50
104
51
194.0000006
0
LINE
8
0
10
272.9059661
20
-106.7439488
11
273.8736537
21
-110.6251318
0
LINE
8
0
10
273.8736537
20
-110.6251318
11
256.4083306
21
-114.9797259
0
ARC
8
0
10
256.6502525
20
-115.9500216
40
1
50
104
51
194.0000018
0
LINE
8
0
10
255.6799568
20
-116.1919435
11
255.8009177
21
-116.6770914
0
LINE
8
0
10
255.8009177
20
-116.6770914
11
238.454732
21
-121.0019812
0
LINE
8
0
10
181.495375
20
-121.0019812
11
238.454732
21
-121.0019812
0
LINE
8
0
10
181.495375
20
-121.0019812
11
164.1491893
21
-116.6770913
0
LINE
8
0
10
164.1491893
20
-116.6770913
11
164.2701503
21
-116.1919435
0
ARC
8
0
10
163.2998545
20
-115.9500216
40
1
50
346
51
435.9999969
0
LINE
8
0
10
163.5417764
20
-114.9797259
11
146.0764533
21
-110.6251318
0
LINE
8
0
10
146.0764533
20
-110.6251318
11
147.0441409
21
-106.7439488
0
ARC
8
0
10
146.0738452
20
-106.5020269
40
1
50
346
51
435.9999999
0
LINE
8
0
10
70.6327005
20
-86.6618234
11
146.3157671
21
-105.5317312
0
ARC
8
0
10
70.3907786
20
-87.6321191
40
1
50
435.9999994
51
166
0
LINE
8
0
10
56.4776615
20
-139.3010185
11
69.4204829
21
-87.3901972
0
ARC
8
0
10
57.4479572
20
-139.5429404
40
1
50
165.9999994
51
256
0
LINE
8
0
10
149.3919537
20
-175.8651306
11
150.3134743
21
-176.0948914
0
LINE
8
0
10
150.3134743
20
-176.0948914
11
148.6162939
21
-178.9761321
0
LINE
8
0
10
148.6162939
20
-178.9761321
11
149.3919537
21
-175.8651306
0
LINE
8
0
10
269.6366327
20
-176.0948915
11
270.5581534
21
-175.8651306
0
LINE
8
0
10
270.5581534
20
-175.8651306
11
271.3338131
21
-178.976132
0
LINE
8
0
10
271.3338131
20
-178.976132
11
269.6366327
21
-176.0948915
0
ENDSEC
0
EOF