0
SECTION
2
HEADER
9
$INSUNITS
70
4
0
ENDSEC
0
SECTION
2
TABLES
0
TABLE
2
LTYPE
0
LTYPE
72
65
70
64
2
CONTINUOUS
3
______
73
0
40
0
0
ENDTAB
0
TABLE
2
LAYER
0
ENDTAB
0
ENDSEC
0
SECTION
2
ENTITIES
0
LINE
8
0
10
299.9590143
20
-211.800212
11
114.9889723
21
-211.800212
0
ARC
8
0
10
114.9889723
20
-201.800212
40
10
50
227.1600906
51
270
0
LINE
8
0
10
108.1894502
20
-209.1327763
11
64.4900119
21
-168.6100776
0
ARC
8
0
10
67.8897729
20
-164.9437955
40
5
50
227.1438855
51
227.1600916
0
ARC
8
0
10
71.2895341
20
-161.2775134
40
10
50
210.0000001
51
227.1519876
0
LINE
8
0
10
62.6292801
20
-166.2775134
11
50.606984
21
-145.4542859
0
ARC
8
0
10
59.267238
20
-140.4542858
40
10
50
165.0000021
51
210.0000001
0
ARC
8
0
10
54.4376088
20
-139.1601908
40
5
50
524.9885411
51
165.0000021
0
LINE
8
0
10
49.6082386
20
-137.8651297
11
63.8231357
21
-84.8144108
0
ARC
8
0
10
73.4823941
20
-87.402601
40
10
50
90.4463157
51
165.0000021
0
LINE
8
0
10
73.4044981
20
-77.4029044
11
108.7388483
21
-77.1276552
0
ARC
8
0
10
108.8167443
20
-87.1273519
40
10
50
83.9726258
51
90.4463157
0
LINE
8
0
10
109.8667802
20
-77.1826335
11
128.3244843
21
-79.1315324
0
ARC
8
0
10
127.2744483
20
-89.0762508
40
10
50
75.0000021
51
83.9726258
0
ARC
8
0
10
128.5685433
20
-84.2466216
40
5
50
434.9885411
51
75.0000021
0
LINE
8
0
10
129.8636044
20
-79.4172514
11
151.0967253
21
-85.1066488
0
ARC
8
0
10
148.508535
20
-94.7659071
40
10
50
65.2933463
51
75.0000021
0
LINE
8
0
10
152.6882607
20
-85.6813106
11
186.3306227
21
-101.159801
0
LINE
8
0
10
186.3306228
20
-101.159801
11
228.6173638
21
-101.159801
0
LINE
8
0
10
228.6173639
20
-101.159801
11
262.2597259
21
-85.6813107
0
ARC
8
0
10
264.3495887
20
-90.2236089
40
5
50
474.6904478
51
114.7066524
0
ARC
8
0
10
266.4394516
20
-94.7659071
40
10
50
104.9999979
51
114.698551
0
LINE
8
0
10
263.8522273
20
-85.10639
11
285.085348
21
-79.4169925
0
ARC
8
0
10
287.6735383
20
-89.0762508
40
10
50
96.0273742
51
104.9999979
0
LINE
8
0
10
286.6235023
20
-79.1315324
11
305.0802119
21
-77.1827386
0
ARC
8
0
10
306.1312423
20
-87.1273519
40
10
50
89.5536843
51
96.0273742
0
LINE
8
0
10
306.2091383
20
-77.1276553
11
341.5434886
21
-77.4029044
0
ARC
8
0
10
341.4655925
20
-87.402601
40
10
50
14.9999979
51
89.5536843
0
LINE
8
0
10
351.1251096
20
-84.8153767
11
365.339748
21
-137.8651297
0
ARC
8
0
10
355.6807486
20
-140.4542858
40
10
50
329.9999999
51
374.9999979
0
LINE
8
0
10
364.3410026
20
-145.4542858
11
352.3187066
21
-166.2775134
0
ARC
8
0
10
343.6584525
20
-161.2775134
40
10
50
312.8399094
51
329.9999999
0
LINE
8
0
10
350.4579746
20
-168.6100777
11
306.7585364
21
-209.1327763
0
ARC
8
0
10
299.9590143
20
-201.800212
40
10
50
270
51
312.8399094
0
LINE
8
0
10
299.9590143
20
-207.800212
11
114.9889723
21
-207.800212
0
ARC
8
0
10
114.9889723
20
-201.800212
40
6
50
227.1600906
51
270
0
LINE
8
0
10
110.909259
20
-206.1997505
11
67.2098207
21
-165.6770519
0
ARC
8
0
10
71.2895341
20
-161.2775134
40
6
50
210.0000001
51
227.1554125
0
LINE
8
0
10
66.0933817
20
-164.2775134
11
54.0710856
21
-143.4542859
0
ARC
8
0
10
59.267238
20
-140.4542858
40
6
50
165.0000021
51
210.0000001
0
LINE
8
0
10
53.4717988
20
-138.9009398
11
67.686839
21
-85.849687
0
ARC
8
0
10
73.4823941
20
-87.402601
40
6
50
90.4463157
51
165.0000021
0
LINE
8
0
10
73.4356565
20
-81.402783
11
108.7700067
21
-81.1275339
0
ARC
8
0
10
108.8167443
20
-87.1273519
40
6
50
83.9726258
51
90.4463157
0
LINE
8
0
10
109.4472106
20
-81.1605679
11
127.9044699
21
-83.1094198
0
ARC
8
0
10
127.2744483
20
-89.0762508
40
6
50
75.0000021
51
83.9726258
0
LINE
8
0
10
128.8277943
20
-83.2808116
11
150.0614491
21
-88.9703521
0
ARC
8
0
10
148.508535
20
-94.7659071
40
6
50
65.2933463
51
75.0000021
0
LINE
8
0
10
151.0163705
20
-89.3151492
11
184.6587325
21
-104.7936396
0
ARC
8
0
10
186.3306228
20
-101.159801
40
4
50
245.2933463
51
270
0
LINE
8
0
10
186.3306228
20
-105.159801
11
228.6173638
21
-105.159801
0
ARC
8
0
10
228.6173638
20
-101.159801
40
4
50
270
51
294.7066537
0
LINE
8
0
10
230.2892541
20
-104.7936396
11
263.9316162
21
-89.3151493
0
ARC
8
0
10
266.4394516
20
-94.7659071
40
6
50
104.9999979
51
114.7019757
0
LINE
8
0
10
264.8869696
20
-88.9702364
11
286.1206242
21
-83.2806958
0
ARC
8
0
10
287.6735383
20
-89.0762508
40
6
50
96.0273742
51
104.9999979
0
LINE
8
0
10
287.0439615
20
-83.1093729
11
305.5012207
21
-81.1605208
0
ARC
8
0
10
306.1312423
20
-87.1273519
40
6
50
89.5536843
51
96.0273742
0
LINE
8
0
10
306.1779799
20
-81.1275339
11
341.5123301
21
-81.4027831
0
ARC
8
0
10
341.4655925
20
-87.402601
40
6
50
14.9999979
51
89.5536843
0
LINE
8
0
10
347.2612632
20
-85.850119
11
361.4761878
21
-138.9009398
0
ARC
8
0
10
355.6807486
20
-140.4542858
40
6
50
329.9999999
51
374.9999979
0
LINE
8
0
10
360.876901
20
-143.4542858
11
348.8546049
21
-164.2775134
0
ARC
8
0
10
343.6584525
20
-161.2775134
40
6
50
312.8399094
51
329.9999999
0
LINE
8
0
10
347.7381658
20
-165.6770519
11
304.0387275
21
-206.1997506
0
ARC
8
0
10
299.9590143
20
-201.800212
40
6
50
270
51
312.8399094
0
ENDSEC
0
EOF