0
SECTION
2
HEADER
9
$INSUNITS
70
4
0
ENDSEC
0
SECTION
2
TABLES
0
TABLE
2
LTYPE
0
LTYPE
72
65
70
64
2
CONTINUOUS
3
______
73
0
40
0
0
ENDTAB
0
TABLE
2
LAYER
0
ENDTAB
0
ENDSEC
0
SECTION
2
ENTITIES
0
LINE
8
0
10
58.1789392
20
-144.8782628
11
69.8224879
21
-147.7813256
0
LINE
8
0
10
69.8224879
20
-147.7813256
11
67.403269
21
-157.4842827
0
ARC
8
0
10
72.2547476
20
-158.6938921
40
5
50
166
51
166.0214363
0
ARC
8
0
10
74.1953391
20
-159.177736
40
7
50
166.0153117
51
255.9999994
0
LINE
8
0
10
72.5018858
20
-165.9698061
11
121.016672
21
-178.0659009
0
LINE
8
0
10
119.3232188
20
-184.857971
11
121.016672
21
-178.0659009
0
ARC
8
0
10
126.1152889
20
-186.5514243
40
7
50
165.9999994
51
255.9999994
0
LINE
8
0
10
124.4218356
20
-193.3434944
11
141.0430416
21
-197.4876265
0
LINE
8
0
10
141.0430416
20
-197.4876265
11
155.9148325
21
-206.2477808
0
LINE
8
0
10
155.9148325
20
-206.2477808
11
167.5974924
21
-218.7758998
0
ARC
8
0
10
172.7169683
20
-214.0019112
40
7
50
223.0000017
51
313.0000017
0
LINE
8
0
10
177.4916882
20
-219.120705
11
189.9232384
21
-207.5280969
0
ARC
8
0
10
186.513978
20
-203.8706465
40
5
50
312.9885413
51
313.0000017
0
ARC
8
0
10
185.1499812
20
-202.4079391
40
7
50
313.0000017
51
403.0000017
0
LINE
8
0
10
172.4365127
20
-178.510459
11
190.268775
21
-197.6332192
0
LINE
8
0
10
172.4365127
20
-178.510459
11
177.4165571
21
-158.5365923
0
LINE
8
0
10
243.5012375
20
-158.5365923
11
177.4165571
21
-158.5365923
0
LINE
8
0
10
243.5012375
20
-158.5365923
11
248.4812819
21
-178.510459
0
LINE
8
0
10
230.6490196
20
-197.6332192
11
248.4812819
21
-178.510459
0
ARC
8
0
10
235.7678134
20
-202.4079391
40
7
50
136.9999983
51
226.9999983
0
ARC
8
0
10
234.4038166
20
-203.8706465
40
5
50
226.9999983
51
227.0114587
0
LINE
8
0
10
230.9945562
20
-207.5280969
11
243.4261064
21
-219.120705
0
ARC
8
0
10
248.2008263
20
-214.0019112
40
7
50
226.9999983
51
316.9999983
0
ARC
8
0
10
249.6635337
20
-215.365908
40
5
50
316.9999983
51
317.0114587
0
LINE
8
0
10
253.3209841
20
-218.7751684
11
265.0029621
21
-206.2477808
0
LINE
8
0
10
265.0029621
20
-206.2477808
11
279.8747531
21
-197.4876265
0
LINE
8
0
10
279.8747531
20
-197.4876265
11
296.495959
21
-193.3434944
0
ARC
8
0
10
295.2863495
20
-188.4920158
40
5
50
284
51
284.0214376
0
ARC
8
0
10
294.8025057
20
-186.5514243
40
7
50
284.0153123
51
373.9846883
0
ARC
8
0
10
296.7430972
20
-186.0675804
40
5
50
373.9785637
51
14
0
LINE
8
0
10
299.9011225
20
-178.0659009
11
301.5945758
21
-184.857971
0
LINE
8
0
10
299.9011225
20
-178.0659009
11
348.4159088
21
-165.9698061
0
ARC
8
0
10
347.2062993
20
-161.1183275
40
5
50
284
51
284.0214387
0
ARC
8
0
10
346.7224555
20
-159.177736
40
7
50
284.0153133
51
374.0000006
0
LINE
8
0
10
353.5145256
20
-157.4842827
11
351.0953067
21
-147.7813256
0
LINE
8
0
10
351.0953067
20
-147.7813256
11
362.7388554
21
-144.8782628
0
ARC
8
0
10
361.529246
20
-140.0267842
40
5
50
284
51
284.0214398
0
ARC
8
0
10
361.0454021
20
-138.0861927
40
7
50
284.0153149
51
373.9846875
0
ARC
8
0
10
362.9859936
20
-137.6023489
40
5
50
373.9785626
51
14
0
LINE
8
0
10
355.3784946
20
-86.4225097
11
367.8374722
21
-136.3927394
0
ARC
8
0
10
348.5864245
20
-88.115963
40
7
50
14.0000006
51
103.9846867
0
LINE
8
0
10
236.8749453
20
-108.7544675
11
346.8929712
21
-81.3238929
0
LINE
8
0
10
184.0428493
20
-108.7544675
11
236.8749453
21
-108.7544675
0
LINE
8
0
10
74.0248234
20
-81.3238929
11
184.0428493
21
-108.7544675
0
ARC
8
0
10
72.3313701
20
-88.115963
40
7
50
75.9999994
51
165.9999994
0
LINE
8
0
10
53.0803224
20
-136.3927394
11
65.5393
21
-86.4225097
0
ARC
8
0
10
59.8723925
20
-138.0861927
40
7
50
165.9999994
51
255.9999994
0
LINE
8
0
10
59.1466268
20
-140.9970799
11
73.7006287
21
-144.6258001
0
ARC
8
0
10
73.4591407
20
-145.5962041
40
1
50
345.9999994
51
435.9999994
0
LINE
8
0
10
74.4293283
20
-145.83856
11
71.2844519
21
-158.4519702
0
ARC
8
0
10
74.1953391
20
-159.177736
40
3
50
166.0104591
51
255.9999994
0
LINE
8
0
10
73.4695734
20
-162.0886232
11
124.8948129
21
-174.9103754
0
ARC
8
0
10
124.6533249
20
-175.8807794
40
1
50
345.9999994
51
435.9999994
0
LINE
8
0
10
123.2044017
20
-185.8256586
11
125.6235125
21
-176.1231353
0
ARC
8
0
10
126.1152889
20
-186.5514243
40
3
50
165.9999994
51
255.9999994
0
LINE
8
0
10
125.3895232
20
-189.4623115
11
142.4323542
21
-193.7115665
0
ARC
8
0
10
142.1908662
20
-194.6819705
40
1
50
59.4999993
51
75.9999994
0
LINE
8
0
10
142.6984045
20
-193.8203414
11
158.3197768
21
-203.0220328
0
ARC
8
0
10
157.8122384
20
-203.8836619
40
1
50
43.0000017
51
59.4999993
0
LINE
8
0
10
158.5435921
20
-203.2016636
11
170.5226023
21
-216.0475792
0
ARC
8
0
10
172.7169683
20
-214.0019112
40
3
50
223.0000017
51
313.0000017
0
LINE
8
0
10
174.7629634
20
-216.1959722
11
187.1956492
21
-204.6023051
0
ARC
8
0
10
185.1499812
20
-202.4079391
40
3
50
313.0000017
51
403.0000017
0
LINE
8
0
10
168.4002133
20
-180.0471745
11
187.3437372
21
-200.3616169
0
ARC
8
0
10
169.131567
20
-179.3651762
40
1
50
165.9999994
51
223.0000017
0
LINE
8
0
10
168.1613794
20
-179.1228203
11
174.1022963
21
-155.2951043
0
ARC
8
0
10
175.0727003
20
-155.5365923
40
1
50
90
51
165.9999994
0
LINE
8
0
10
245.8450943
20
-154.5365923
11
175.0727003
21
-154.5365923
0
ARC
8
0
10
245.8450943
20
-155.5365923
40
1
50
14.0000006
51
90
0
LINE
8
0
10
246.8154983
20
-155.2951043
11
252.7564152
21
-179.1228203
0
ARC
8
0
10
251.7862276
20
-179.3651762
40
1
50
316.9999983
51
374.0000006
0
LINE
8
0
10
233.5737523
20
-200.361944
11
252.5175812
21
-180.0471746
0
ARC
8
0
10
235.7678134
20
-202.4079391
40
3
50
136.9999983
51
226.9999983
0
LINE
8
0
10
233.7218182
20
-204.6020002
11
246.1545041
21
-216.1956672
0
ARC
8
0
10
248.2008263
20
-214.0019112
40
3
50
226.9999983
51
316.9999983
0
LINE
8
0
10
250.3948874
20
-216.0479064
11
262.3742026
21
-203.2016636
0
ARC
8
0
10
263.1055562
20
-203.8836619
40
1
50
120.5000007
51
136.9999983
0
LINE
8
0
10
262.5980178
20
-203.0220329
11
278.21939
21
-193.8203414
0
ARC
8
0
10
278.7269284
20
-194.6819705
40
1
50
104.0000006
51
120.5000007
0
LINE
8
0
10
278.4854404
20
-193.7115665
11
295.5282714
21
-189.4623115
0
ARC
8
0
10
294.8025057
20
-186.5514243
40
3
50
284.0104603
51
373.9895409
0
LINE
8
0
10
295.2942821
20
-176.1231353
11
297.7133929
21
-185.8256585
0
ARC
8
0
10
296.2644697
20
-175.8807794
40
1
50
104.0000006
51
194.0000006
0
LINE
8
0
10
296.0229817
20
-174.9103754
11
347.4482212
21
-162.0886232
0
ARC
8
0
10
346.7224555
20
-159.177736
40
3
50
284.0104603
51
374.0000006
0
LINE
8
0
10
349.6333427
20
-158.4519703
11
346.4884663
21
-145.83856
0
ARC
8
0
10
347.4586539
20
-145.5962041
40
1
50
104.0000006
51
194.0000006
0
LINE
8
0
10
347.2171659
20
-144.6258001
11
361.7711678
21
-140.9970799
0
ARC
8
0
10
361.0454021
20
-138.0861927
40
3
50
284.0104622
51
373.9895409
0
LINE
8
0
10
351.4973117
20
-87.3901973
11
363.9562893
21
-137.360427
0
ARC
8
0
10
348.5864245
20
-88.115963
40
3
50
14.0000006
51
103.989539
0
LINE
8
0
10
237.4856546
20
-112.7246551
11
347.8606588
21
-85.2050758
0
ARC
8
0
10
237.2432987
20
-111.7544675
40
1
50
270
51
284.0000006
0
LINE
8
0
10
183.6744959
20
-112.7544675
11
237.2432987
21
-112.7544675
0
ARC
8
0
10
183.6744959
20
-111.7544675
40
1
50
255.9999994
51
270
0
LINE
8
0
10
73.0571358
20
-85.2050758
11
183.43214
21
-112.7246551
0
ARC
8
0
10
72.3313701
20
-88.115963
40
3
50
75.9999994
51
165.9999994
0
LINE
8
0
10
56.9615053
20
-137.360427
11
69.4204829
21
-87.3901973
0
ARC
8
0
10
59.8723925
20
-138.0861927
40
3
50
165.9999994
51
255.9999994
0
ENDSEC
0
EOF