0
SECTION
2
HEADER
9
$INSUNITS
70
4
0
ENDSEC
0
SECTION
2
TABLES
0
TABLE
2
LTYPE
0
LTYPE
72
65
70
64
2
CONTINUOUS
3
______
73
0
40
0
0
ENDTAB
0
TABLE
2
LAYER
0
ENDTAB
0
ENDSEC
0
SECTION
2
ENTITIES
0
LINE
8
0
10
57.2086434
20
-144.6363409
11
69.8224879
21
-147.7813256
0
LINE
8
0
10
69.8224879
20
-147.7813256
11
67.161347
21
-158.4545785
0
ARC
8
0
10
72.9831214
20
-159.9061099
40
6
50
165.9999994
51
255.9999994
0
LINE
8
0
10
71.53159
20
-165.7278842
11
89.9672088
21
-170.3244003
0
ARC
8
0
10
91.4187402
20
-164.5026259
40
6
50
255.9999994
51
345.9999994
0
LINE
8
0
10
97.2405145
20
-165.9541573
11
98.3291631
21
-161.5878265
0
LINE
8
0
10
98.3291631
20
-161.5878265
11
123.556852
21
-167.8777958
0
LINE
8
0
10
119.0812969
20
-185.8282668
11
123.556852
21
-167.8777958
0
ARC
8
0
10
124.9030712
20
-187.2797982
40
6
50
165.9999994
51
255.9999994
0
LINE
8
0
10
123.4515398
20
-193.1015725
11
141.0430416
21
-197.4876265
0
LINE
8
0
10
141.0430416
20
-197.4876265
11
155.9148325
21
-206.2477808
0
LINE
8
0
10
155.9148325
20
-206.2477808
11
168.2794907
21
-219.5072534
0
ARC
8
0
10
172.6676129
20
-215.4152632
40
6
50
223.0000017
51
313.0000017
0
LINE
8
0
10
176.7596031
20
-219.8033854
11
190.6553234
21
-206.8454167
0
ARC
8
0
10
187.2453316
20
-203.1886482
40
5
50
312.9999999
51
313.0280706
0
ARC
8
0
10
186.5633332
20
-202.4572945
40
6
50
313.0233925
51
402.9766092
0
ARC
8
0
10
187.294687
20
-201.7752961
40
5
50
402.9719306
51
42.9999999
0
LINE
8
0
10
172.4365127
20
-178.510459
11
190.9514555
21
-198.3653043
0
LINE
8
0
10
172.4365127
20
-178.510459
11
177.4165571
21
-158.5365923
0
LINE
8
0
10
243.5012375
20
-158.5365923
11
177.4165571
21
-158.5365923
0
LINE
8
0
10
243.5012375
20
-158.5365923
11
248.4812818
21
-178.510459
0
LINE
8
0
10
229.9663392
20
-198.3653043
11
248.4812818
21
-178.510459
0
ARC
8
0
10
234.3544614
20
-202.4572945
40
6
50
136.9999983
51
226.9999983
0
LINE
8
0
10
230.2624712
20
-206.8454167
11
244.1581915
21
-219.8033855
0
ARC
8
0
10
248.2501817
20
-215.4152632
40
6
50
226.9999983
51
316.9999983
0
LINE
8
0
10
252.6383039
20
-219.5072534
11
265.0029621
21
-206.2477807
0
LINE
8
0
10
265.0029621
20
-206.2477807
11
279.874753
21
-197.4876265
0
LINE
8
0
10
279.874753
20
-197.4876265
11
297.4662547
21
-193.1015725
0
ARC
8
0
10
296.0147234
20
-187.2797982
40
6
50
284.0000006
51
374.0000006
0
LINE
8
0
10
297.3609426
20
-167.8777958
11
301.8364977
21
-185.8282668
0
LINE
8
0
10
297.3609426
20
-167.8777958
11
322.5886316
21
-161.5878265
0
LINE
8
0
10
322.5886316
20
-161.5878265
11
323.6772801
21
-165.9541573
0
ARC
8
0
10
329.4990544
20
-164.5026259
40
6
50
194.0000006
51
284.0000006
0
LINE
8
0
10
330.9505858
20
-170.3244002
11
349.3862046
21
-165.7278842
0
ARC
8
0
10
347.9346732
20
-159.9061099
40
6
50
284.0000006
51
374.0000006
0
LINE
8
0
10
353.7564475
20
-158.4545785
11
351.0953067
21
-147.7813256
0
LINE
8
0
10
351.0953067
20
-147.7813256
11
363.7091512
21
-144.6363409
0
ARC
8
0
10
362.2576198
20
-138.8145666
40
6
50
284.0000006
51
374.0000006
0
LINE
8
0
10
358.8863621
20
-100.4917976
11
368.0793942
21
-137.3630352
0
ARC
8
0
10
353.0645878
20
-101.943329
40
6
50
14.0000006
51
104.0000006
0
LINE
8
0
10
351.6130564
20
-96.1215547
11
337.5167321
21
-99.6361631
0
ARC
8
0
10
334.1451252
20
-104.5992535
40
6
50
55.8103137
51
104.0000006
0
LINE
8
0
10
332.6935938
20
-98.7774792
11
320.0797493
21
-101.9224638
0
LINE
8
0
10
320.0797493
20
-101.9224638
11
318.9911008
21
-97.556133
0
ARC
8
0
10
313.1693265
20
-99.0076644
40
6
50
14.0000006
51
104.0000006
0
LINE
8
0
10
311.7177951
20
-93.1858901
11
298.3239808
21
-96.5253431
0
ARC
8
0
10
294.007942
20
-100.6932933
40
6
50
43.9999999
51
104.0000006
0
LINE
8
0
10
236.8749453
20
-108.7544675
11
292.5564106
21
-94.871519
0
LINE
8
0
10
184.0428493
20
-108.7544675
11
236.8749453
21
-108.7544675
0
LINE
8
0
10
128.361384
20
-94.871519
11
184.0428493
21
-108.7544675
0
ARC
8
0
10
126.9098526
20
-100.6932933
40
6
50
75.9999994
51
136.0000001
0
LINE
8
0
10
122.5938138
20
-96.5253431
11
109.1999995
21
-93.18589
0
ARC
8
0
10
107.7484681
20
-99.0076644
40
6
50
75.9999994
51
165.9999994
0
LINE
8
0
10
101.9266938
20
-97.556133
11
100.8380452
21
-101.9224638
0
LINE
8
0
10
100.8380452
20
-101.9224638
11
88.2242008
21
-98.7774791
0
ARC
8
0
10
86.7726694
20
-104.5992535
40
6
50
75.9999994
51
124.1896871
0
LINE
8
0
10
83.4010624
20
-99.6361631
11
69.3047382
21
-96.1215546
0
ARC
8
0
10
67.8532068
20
-101.943329
40
6
50
75.9999994
51
165.9999994
0
LINE
8
0
10
52.8384005
20
-137.3630352
11
62.0314325
21
-100.4917976
0
ARC
8
0
10
58.6601748
20
-138.8145666
40
6
50
165.9999994
51
255.9999994
0
LINE
8
0
10
58.4182529
20
-139.7848623
11
74.9132803
21
-143.8975345
0
LINE
8
0
10
57.6898791
20
-138.5726447
11
66.8829111
21
-101.7014071
0
LINE
8
0
10
84.5901561
20
-105.0857055
11
68.0951287
21
-100.9730333
0
LINE
8
0
10
72.7411995
20
-160.8764056
11
91.1768183
21
-165.4729216
0
LINE
8
0
10
92.3890359
20
-164.7445478
11
94.445372
21
-156.4970341
0
LINE
8
0
10
75.6416541
20
-145.1097521
11
72.0128257
21
-159.664188
0
LINE
8
0
10
103.5096187
20
-107.74163
11
87.0145913
21
-103.6289578
0
LINE
8
0
10
85.8023737
20
-104.3573316
11
85.8023737
21
-104.3573317
0
LINE
8
0
10
95.6575896
20
-155.7686603
11
128.6476444
21
-163.9940047
0
LINE
8
0
10
124.4854174
20
-102.1500409
11
107.99039
21
-98.0373687
0
LINE
8
0
10
106.7781724
20
-98.7657425
11
104.7218363
21
-107.0132562
0
LINE
8
0
10
127.1517745
20
-99.7229976
11
183.3097892
21
-113.7247632
0
LINE
8
0
10
125.9395569
20
-100.4513714
11
125.697635
21
-101.4216671
0
LINE
8
0
10
123.9327755
20
-187.0378763
11
129.3760182
21
-165.2062223
0
LINE
8
0
10
167.0596227
20
-179.4081599
11
173.3211189
21
-154.2946704
0
LINE
8
0
10
124.6611493
20
-188.2500939
11
142.8153957
21
-192.7764559
0
LINE
8
0
10
143.0810122
20
-192.8851224
11
158.9522455
21
-202.2339933
0
LINE
8
0
10
159.1760608
20
-202.4136241
11
171.9362592
21
-216.0972616
0
LINE
8
0
10
173.3496113
20
-216.1466169
11
187.2453316
21
-203.1886482
0
LINE
8
0
10
167.2985647
20
-180.3320802
11
187.2946869
21
-201.7752961
0
LINE
8
0
10
346.0045143
20
-143.8975345
11
362.4995417
21
-139.7848623
0
LINE
8
0
10
354.0348835
20
-101.7014071
11
363.2279155
21
-138.5726447
0
LINE
8
0
10
352.8226659
20
-100.9730333
11
336.3276385
21
-105.0857055
0
LINE
8
0
10
329.7409763
20
-165.4729216
11
348.1765951
21
-160.8764056
0
LINE
8
0
10
348.9049689
20
-159.664188
11
345.2761405
21
-145.1097521
0
LINE
8
0
10
326.4724226
20
-156.4970341
11
328.5287587
21
-164.7445478
0
LINE
8
0
10
335.1154209
20
-104.3573317
11
335.1154209
21
-104.3573316
0
LINE
8
0
10
333.9032033
20
-103.6289578
11
317.4081759
21
-107.74163
0
LINE
8
0
10
292.2701502
20
-163.9940047
11
325.260205
21
-155.7686603
0
LINE
8
0
10
316.1959583
20
-107.0132562
11
314.1396222
21
-98.7657425
0
LINE
8
0
10
312.9274046
20
-98.0373687
11
296.4323772
21
-102.1500409
0
LINE
8
0
10
295.2201596
20
-101.4216671
11
294.9782377
21
-100.4513714
0
LINE
8
0
10
237.6080054
20
-113.7247632
11
293.7660201
21
-99.7229976
0
LINE
8
0
10
291.5417764
20
-165.2062223
11
296.9850191
21
-187.0378763
0
LINE
8
0
10
247.5966757
20
-154.2946704
11
253.8581719
21
-179.4081599
0
LINE
8
0
10
278.1023989
20
-192.7764559
11
296.2566453
21
-188.2500939
0
LINE
8
0
10
261.9655491
20
-202.2339933
11
277.8367824
21
-192.8851224
0
LINE
8
0
10
248.9815354
20
-216.0972616
11
261.7417338
21
-202.4136241
0
LINE
8
0
10
233.6231077
20
-201.7752961
11
253.6192299
21
-180.3320802
0
LINE
8
0
10
233.672463
20
-203.1886482
11
247.5681833
21
-216.1466169
0
LINE
8
0
10
183.5517111
20
-113.7544675
11
237.3660835
21
-113.7544675
0
LINE
8
0
10
246.62638
20
-153.5365923
11
174.2914146
21
-153.5365923
0
ARC
8
0
10
74.6713584
20
-144.8678302
40
1
50
345.9999994
51
75.9999994
0
ARC
8
0
10
72.9831214
20
-159.9061099
40
1
50
165.9999994
51
255.9999994
0
ARC
8
0
10
91.4187402
20
-164.5026259
40
1
50
255.9999994
51
345.9999994
0
ARC
8
0
10
95.4156677
20
-156.738956
40
1
50
75.9999994
51
165.9999994
0
ARC
8
0
10
128.4057225
20
-164.9643004
40
1
50
345.9999994
51
75.9999994
0
ARC
8
0
10
124.9030712
20
-187.2797982
40
1
50
165.9999994
51
255.9999994
0
ARC
8
0
10
142.5734738
20
-193.7467516
40
1
50
59.4999993
51
75.9999994
0
ARC
8
0
10
158.4447071
20
-203.0956225
40
1
50
43.0000017
51
59.4999993
0
ARC
8
0
10
172.6676129
20
-215.4152632
40
1
50
223.0000017
51
313.0000017
0
ARC
8
0
10
186.5633332
20
-202.4572945
40
1
50
313.0000017
51
43.0000017
0
ARC
8
0
10
168.0299184
20
-179.6500818
40
1
50
165.9999994
51
223.0000017
0
ARC
8
0
10
174.2914146
20
-154.5365923
40
1
50
90
51
165.9999994
0
ARC
8
0
10
246.62638
20
-154.5365923
40
1
50
14.0000006
51
90
0
ARC
8
0
10
252.8878762
20
-179.6500818
40
1
50
316.9999983
51
14.0000006
0
ARC
8
0
10
234.3544614
20
-202.4572945
40
1
50
136.9999983
51
226.9999983
0
ARC
8
0
10
248.2501817
20
-215.4152632
40
1
50
226.9999983
51
316.9999983
0
ARC
8
0
10
262.4730875
20
-203.0956225
40
1
50
120.5000007
51
136.9999983
0
ARC
8
0
10
278.3443208
20
-193.7467516
40
1
50
104.0000006
51
120.5000007
0
ARC
8
0
10
296.0147234
20
-187.2797982
40
1
50
284.0000006
51
14.0000006
0
ARC
8
0
10
292.5120721
20
-164.9643004
40
1
50
104.0000006
51
194.0000006
0
ARC
8
0
10
325.5021269
20
-156.738956
40
1
50
14.0000006
51
104.0000006
0
ARC
8
0
10
329.4990544
20
-164.5026259
40
1
50
194.0000006
51
284.0000006
0
ARC
8
0
10
347.9346732
20
-159.9061099
40
1
50
284.0000006
51
14.0000006
0
ARC
8
0
10
346.2464362
20
-144.8678302
40
1
50
104.0000006
51
194.0000006
0
ARC
8
0
10
362.2576198
20
-138.8145666
40
1
50
284.0000006
51
14.0000006
0
ARC
8
0
10
353.0645878
20
-101.943329
40
1
50
14.0000006
51
104.0000006
0
ARC
8
0
10
336.0857166
20
-104.1154098
40
1
50
194.0000006
51
284.0000006
0
ARC
8
0
10
334.1451252
20
-104.5992535
40
1
50
14.0000006
51
104.0000006
0
ARC
8
0
10
317.166254
20
-106.7713343
40
1
50
194.0000006
51
284.0000006
0
ARC
8
0
10
313.1693265
20
-99.0076644
40
1
50
14.0000006
51
104.0000006
0
ARC
8
0
10
296.1904553
20
-101.1797452
40
1
50
194.0000006
51
284.0000006
0
ARC
8
0
10
294.007942
20
-100.6932933
40
1
50
14.0000006
51
104.0000006
0
ARC
8
0
10
237.3660835
20
-112.7544675
40
1
50
270
51
284.0000006
0
ARC
8
0
10
183.5517111
20
-112.7544675
40
1
50
255.9999994
51
270
0
ARC
8
0
10
126.9098526
20
-100.6932933
40
1
50
75.9999994
51
165.9999994
0
ARC
8
0
10
124.7273393
20
-101.1797452
40
1
50
255.9999994
51
345.9999994
0
ARC
8
0
10
107.7484681
20
-99.0076644
40
1
50
75.9999994
51
165.9999994
0
ARC
8
0
10
103.7515406
20
-106.7713343
40
1
50
255.9999994
51
345.9999994
0
ARC
8
0
10
86.7726694
20
-104.5992535
40
1
50
75.9999994
51
165.9999994
0
ARC
8
0
10
84.832078
20
-104.1154098
40
1
50
255.9999994
51
345.9999994
0
ARC
8
0
10
67.8532068
20
-101.943329
40
1
50
75.9999994
51
165.9999994
0
ARC
8
0
10
58.6601748
20
-138.8145666
40
1
50
165.9999994
51
255.9999994
0
ENDSEC
0
EOF