0
SECTION
2
HEADER
9
$INSUNITS
70
4
9
$ACADVER
1
AC1014
9
$HANDSEED
5
FFFF
0
ENDSEC
0
SECTION
2
TABLES
0
TABLE
2
VPORT
5
8
100
AcDbSymbolTable
0
ENDTAB
0
TABLE
2
LTYPE
5
5
100
AcDbSymbolTable
0
LTYPE
5
14
100
AcDbSymbolTableRecord
100
AcDbLinetypeTableRecord
2
BYBLOCK
70
0
0
LTYPE
5
15
100
AcDbSymbolTableRecord
100
AcDbLinetypeTableRecord
2
BYLAYER
70
0
0
ENDTAB
0
TABLE
2
LAYER
5
2
100
AcDbSymbolTable
70
2
0
LAYER
5
50
100
AcDbSymbolTableRecord
100
AcDbLayerTableRecord
2
0
70
0
6
CONTINUOUS
0
ENDTAB
0
TABLE
2
STYLE
5
3
100
AcDbSymbolTable
70
1
0
STYLE
5
11
100
AcDbSymbolTableRecord
100
AcDbTextStyleTableRecord
2
STANDARD
70
0
0
ENDTAB
0
TABLE
2
VIEW
5
6
100
AcDbSymbolTable
70
0
0
ENDTAB
0
TABLE
2
UCS
5
7
100
AcDbSymbolTable
70
0
0
ENDTAB
0
TABLE
2
APPID
5
9
100
AcDbSymbolTable
70
2
0
APPID
5
12
100
AcDbSymbolTableRecord
100
AcDbRegAppTableRecord
2
ACAD
70
0
0
ENDTAB
0
TABLE
2
DIMSTYLE
5
A
100
AcDbSymbolTable
70
1
0
ENDTAB
0
TABLE
2
BLOCK_RECORD
5
1
100
AcDbSymbolTable
70
1
0
BLOCK_RECORD
5
1F
100
AcDbSymbolTableRecord
100
AcDbBlockTableRecord
2
*MODEL_SPACE
0
BLOCK_RECORD
5
1B
100
AcDbSymbolTableRecord
100
AcDbBlockTableRecord
2
*PAPER_SPACE
0
ENDTAB
0
ENDSEC
0
SECTION
2
BLOCKS
0
BLOCK
5
20
100
AcDbEntity
100
AcDbBlockBegin
2
*MODEL_SPACE
0
ENDBLK
5
21
100
AcDbEntity
100
AcDbBlockEnd
0
BLOCK
5
1C
100
AcDbEntity
100
AcDbBlockBegin
2
*PAPER_SPACE
0
ENDBLK
5
1D
100
AcDbEntity
100
AcDbBlockEnd
0
ENDSEC
0
SECTION
2
ENTITIES
0
LINE
5
100
100
AcDbEntity
8
0
100
AcDbLine
10
-9.5249999999999719
20
-11.024999999999959
30
0
11
-28.574999999997711
21
-11.025000000004809
31
0
0
LINE
5
101
100
AcDbEntity
8
0
100
AcDbLine
10
-28.574999999997711
20
-11.025000000004809
30
0
11
-28.574999999997711
21
8.024999999997501
31
0
0
LINE
5
102
100
AcDbEntity
8
0
100
AcDbLine
10
-9.5249999999999719
20
8.0249999999999648
30
0
11
-9.5249999999999719
21
-11.024999999999959
31
0
0
LINE
5
103
100
AcDbEntity
8
0
100
AcDbLine
10
-28.574999999997711
20
8.0249999999975028
30
0
11
-9.5249999999999719
21
8.0249999999999648
31
0
0
LINE
5
104
100
AcDbEntity
8
0
100
AcDbLine
10
9.5249999999930708
20
-9.5250000000000021
30
0
11
-9.5250000000000004
21
-9.5250000000000004
31
0
0
LINE
5
105
100
AcDbEntity
8
0
100
AcDbLine
10
-9.5250000000000021
20
-9.5250000000000004
30
0
11
-9.5249999999999719
21
9.5249999999999808
31
0
0
LINE
5
106
100
AcDbEntity
8
0
100
AcDbLine
10
9.5249999999999684
20
9.5249999999999719
30
0
11
9.5249999999930708
21
-9.5250000000000039
31
0
0
LINE
5
107
100
AcDbEntity
8
0
100
AcDbLine
10
-9.5249999999999719
20
9.5249999999999808
30
0
11
9.5249999999999684
21
9.5249999999999719
31
0
0
LINE
5
108
100
AcDbEntity
8
0
100
AcDbLine
10
28.574999999984829
20
-3.525006274863105
30
0
11
9.5249999999991424
21
-3.5250062748630908
31
0
0
LINE
5
109
100
AcDbEntity
8
0
100
AcDbLine
10
9.5249999999991424
20
-3.5250062748630908
30
0
11
9.5249999999991459
21
15.525018824624004
31
0
0
LINE
5
110
100
AcDbEntity
8
0
100
AcDbLine
10
28.574999999984378
20
15.524993725120876
30
0
11
28.574999999984829
21
-3.525006274863105
31
0
0
LINE
5
111
100
AcDbEntity
8
0
100
AcDbLine
10
9.5249999999991459
20
15.525018824624004
30
0
11
28.574999999984378
21
15.524993725120876
31
0
0
LINE
5
112
100
AcDbEntity
8
0
100
AcDbLine
10
47.624999999981
20
-6.9250000000011704
30
0
11
28.57499999998101
21
-6.9250000000011722
31
0
0
LINE
5
113
100
AcDbEntity
8
0
100
AcDbLine
10
28.57499999998101
20
-6.9250000000011722
30
0
11
28.574999999981014
21
12.124999999998817
31
0
0
LINE
5
114
100
AcDbEntity
8
0
100
AcDbLine
10
47.624999999976403
20
12.12499999999882
30
0
11
47.624999999981
21
-6.9250000000011696
31
0
0
LINE
5
115
100
AcDbEntity
8
0
100
AcDbLine
10
28.574999999981014
20
12.124999999998815
30
0
11
47.624999999976403
21
12.12499999999882
31
0
0
LINE
5
116
100
AcDbEntity
8
0
100
AcDbLine
10
47.624999999980986
20
-17.424999999997585
30
0
11
66.674999999980955
21
-17.425000000007394
31
0
0
LINE
5
117
100
AcDbEntity
8
0
100
AcDbLine
10
66.674999999980955
20
-17.425000000007394
30
0
11
66.674999999980855
21
1.6250000000024012
31
0
0
LINE
5
118
100
AcDbEntity
8
0
100
AcDbLine
10
47.624999999980993
20
1.6250000000024025
30
0
11
47.624999999980986
21
-17.424999999997585
31
0
0
LINE
5
119
100
AcDbEntity
8
0
100
AcDbLine
10
66.674999999980855
20
1.6250000000024007
30
0
11
47.624999999980993
21
1.6250000000024025
31
0
0
LINE
5
120
100
AcDbEntity
8
0
100
AcDbLine
10
66.674999999980955
20
-17.425000000007394
30
0
11
85.7249999999907
21
-17.425000000007309
31
0
0
LINE
5
121
100
AcDbEntity
8
0
100
AcDbLine
10
85.7249999999907
20
-17.425000000007309
30
0
11
85.7249999999907
21
1.6250000000023346
31
0
0
LINE
5
122
100
AcDbEntity
8
0
100
AcDbLine
10
66.674999999980855
20
1.625000000002335
30
0
11
66.674999999980955
21
-17.425000000007394
31
0
0
LINE
5
123
100
AcDbEntity
8
0
100
AcDbLine
10
85.7249999999907
20
1.625000000002335
30
0
11
66.674999999980855
21
1.625000000002335
31
0
0
LINE
5
124
100
AcDbEntity
8
0
100
AcDbLine
10
28.574999999984378
20
34.574993725120876
30
0
11
28.574999999984829
21
15.524993725136898
31
0
0
LINE
5
125
100
AcDbEntity
8
0
100
AcDbLine
10
28.574999999981014
20
31.174999999998818
30
0
11
47.624999999976403
21
31.174999999998825
31
0
0
LINE
5
126
100
AcDbEntity
8
0
100
AcDbLine
10
9.5249999999991459
20
34.57501882462401
30
0
11
28.574999999984378
21
34.574993725120876
31
0
0
LINE
5
127
100
AcDbEntity
8
0
100
AcDbLine
10
28.574999999984829
20
15.524993725136898
30
0
11
9.5249999999991424
21
15.524993725136911
31
0
0
LINE
5
128
100
AcDbEntity
8
0
100
AcDbLine
10
47.624999999976403
20
31.174999999998825
30
0
11
47.624999999981
21
12.124999999998833
31
0
0
LINE
5
129
100
AcDbEntity
8
0
100
AcDbLine
10
85.7249999999907
20
20.675000000002338
30
0
11
66.674999999980855
21
20.675000000002338
31
0
0
LINE
5
130
100
AcDbEntity
8
0
100
AcDbLine
10
66.674999999980955
20
1.624999999992609
30
0
11
85.7249999999907
21
1.6249999999926956
31
0
0
LINE
5
131
100
AcDbEntity
8
0
100
AcDbLine
10
-9.5249999999999719
20
8.0250000000000412
30
0
11
-28.574999999997711
21
8.0249999999951918
31
0
0
LINE
5
132
100
AcDbEntity
8
0
100
AcDbLine
10
9.5249999999930708
20
9.5250000000000004
30
0
11
-9.5250000000000004
21
9.5250000000000021
31
0
0
LINE
5
133
100
AcDbEntity
8
0
100
AcDbLine
10
-9.5249999999999719
20
28.574999999999982
30
0
11
9.5249999999999684
21
28.574999999999974
31
0
0
LINE
5
134
100
AcDbEntity
8
0
100
AcDbLine
10
-28.574999999997711
20
27.074999999997505
30
0
11
-9.5249999999999719
21
27.074999999999967
31
0
0
LINE
5
135
100
AcDbEntity
8
0
100
AcDbLine
10
66.674999999980955
20
1.624999999992609
30
0
11
66.674999999980855
21
20.675000000002406
31
0
0
LINE
5
136
100
AcDbEntity
8
0
100
AcDbLine
10
66.674999999980855
20
20.675000000002402
30
0
11
47.624999999980993
21
20.675000000002406
31
0
0
LINE
5
137
100
AcDbEntity
8
0
100
AcDbLine
10
-28.574999999997711
20
8.0249999999951918
30
0
11
-28.574999999997711
21
27.074999999997505
31
0
0
LINE
5
138
100
AcDbEntity
8
0
100
AcDbLine
10
-9.5250000000000021
20
9.5250000000000021
30
0
11
-9.5249999999999719
21
28.574999999999982
31
0
0
LINE
5
139
100
AcDbEntity
8
0
100
AcDbLine
10
66.674999999980855
20
20.675000000002338
30
0
11
66.674999999980955
21
1.624999999992609
31
0
0
LINE
5
140
100
AcDbEntity
8
0
100
AcDbLine
10
85.7249999999907
20
1.6249999999926956
30
0
11
85.7249999999907
21
20.675000000002335
31
0
0
LINE
5
141
100
AcDbEntity
8
0
100
AcDbLine
10
-9.5249999999999719
20
27.074999999999967
30
0
11
-9.5249999999999719
21
8.0250000000000412
31
0
0
LINE
5
142
100
AcDbEntity
8
0
100
AcDbLine
10
47.624999999980986
20
1.6250000000024167
30
0
11
66.674999999980955
21
1.624999999992609
31
0
0
LINE
5
143
100
AcDbEntity
8
0
100
AcDbLine
10
47.624999999981
20
12.124999999998831
30
0
11
28.57499999998101
21
12.124999999998831
31
0
0
LINE
5
144
100
AcDbEntity
8
0
100
AcDbLine
10
9.5249999999999684
20
28.574999999999974
30
0
11
9.5249999999930708
21
9.5249999999999986
31
0
0
LINE
5
145
100
AcDbEntity
8
0
100
AcDbLine
10
28.57499999998101
20
12.124999999998831
30
0
11
28.574999999981014
21
31.174999999998821
31
0
0
LINE
5
146
100
AcDbEntity
8
0
100
AcDbLine
10
47.624999999980993
20
20.675000000002406
30
0
11
47.624999999980986
21
1.6250000000024167
31
0
0
LINE
5
147
100
AcDbEntity
8
0
100
AcDbLine
10
9.5249999999991424
20
15.524993725136911
30
0
11
9.5249999999991459
21
34.57501882462401
31
0
0
LINE
5
148
100
AcDbEntity
8
0
100
AcDbLine
10
28.574999999984378
20
53.624993725120888
30
0
11
28.574999999984829
21
34.574993725136899
31
0
0
LINE
5
149
100
AcDbEntity
8
0
100
AcDbLine
10
28.574999999981014
20
50.224999999998815
30
0
11
47.624999999976403
21
50.224999999998829
31
0
0
LINE
5
150
100
AcDbEntity
8
0
100
AcDbLine
10
9.5249999999991459
20
53.625018824624007
30
0
11
28.574999999984378
21
53.624993725120888
31
0
0
LINE
5
151
100
AcDbEntity
8
0
100
AcDbLine
10
28.574999999984829
20
34.574993725136899
30
0
11
9.5249999999991424
21
34.574993725136913
31
0
0
LINE
5
152
100
AcDbEntity
8
0
100
AcDbLine
10
47.624999999976403
20
50.224999999998829
30
0
11
47.624999999981
21
31.174999999998832
31
0
0
LINE
5
153
100
AcDbEntity
8
0
100
AcDbLine
10
85.7249999999907
20
39.725000000002339
30
0
11
66.674999999980855
21
39.725000000002339
31
0
0
LINE
5
154
100
AcDbEntity
8
0
100
AcDbLine
10
66.674999999980955
20
20.674999999992608
30
0
11
85.7249999999907
21
20.6749999999927
31
0
0
LINE
5
155
100
AcDbEntity
8
0
100
AcDbLine
10
-9.5249999999999719
20
27.075000000000045
30
0
11
-28.574999999997711
21
27.074999999995196
31
0
0
LINE
5
156
100
AcDbEntity
8
0
100
AcDbLine
10
9.5249999999930708
20
28.575000000000003
30
0
11
-9.5250000000000004
21
28.575000000000003
31
0
0
LINE
5
157
100
AcDbEntity
8
0
100
AcDbLine
10
-9.5249999999999719
20
47.624999999999986
30
0
11
9.5249999999999684
21
47.624999999999972
31
0
0
LINE
5
158
100
AcDbEntity
8
0
100
AcDbLine
10
-28.574999999997711
20
46.124999999997513
30
0
11
-9.5249999999999719
21
46.124999999999972
31
0
0
LINE
5
159
100
AcDbEntity
8
0
100
AcDbLine
10
66.674999999980955
20
20.674999999992608
30
0
11
66.674999999980855
21
39.72500000000241
31
0
0
LINE
5
160
100
AcDbEntity
8
0
100
AcDbLine
10
66.674999999980855
20
39.725000000002403
30
0
11
47.624999999980993
21
39.72500000000241
31
0
0
LINE
5
161
100
AcDbEntity
8
0
100
AcDbLine
10
-28.574999999997711
20
27.074999999995196
30
0
11
-28.574999999997711
21
46.124999999997499
31
0
0
LINE
5
162
100
AcDbEntity
8
0
100
AcDbLine
10
-9.5250000000000021
20
28.575000000000003
30
0
11
-9.5249999999999719
21
47.624999999999986
31
0
0
LINE
5
163
100
AcDbEntity
8
0
100
AcDbLine
10
66.674999999980855
20
39.725000000002339
30
0
11
66.674999999980955
21
20.674999999992608
31
0
0
LINE
5
164
100
AcDbEntity
8
0
100
AcDbLine
10
85.7249999999907
20
20.6749999999927
30
0
11
85.7249999999907
21
39.725000000002339
31
0
0
LINE
5
165
100
AcDbEntity
8
0
100
AcDbLine
10
-9.5249999999999719
20
46.124999999999972
30
0
11
-9.5249999999999719
21
27.075000000000045
31
0
0
LINE
5
166
100
AcDbEntity
8
0
100
AcDbLine
10
47.624999999980986
20
20.67500000000242
30
0
11
66.674999999980955
21
20.674999999992608
31
0
0
LINE
5
167
100
AcDbEntity
8
0
100
AcDbLine
10
47.624999999981
20
31.174999999998832
30
0
11
28.57499999998101
21
31.174999999998832
31
0
0
LINE
5
168
100
AcDbEntity
8
0
100
AcDbLine
10
9.5249999999999684
20
47.624999999999972
30
0
11
9.5249999999930708
21
28.574999999999999
31
0
0
LINE
5
169
100
AcDbEntity
8
0
100
AcDbLine
10
28.57499999998101
20
31.174999999998832
30
0
11
28.574999999981014
21
50.224999999998815
31
0
0
LINE
5
170
100
AcDbEntity
8
0
100
AcDbLine
10
47.624999999980993
20
39.72500000000241
30
0
11
47.624999999980986
21
20.67500000000242
31
0
0
LINE
5
171
100
AcDbEntity
8
0
100
AcDbLine
10
9.5249999999991424
20
34.574993725136913
30
0
11
9.5249999999991459
21
53.625018824624007
31
0
0
LINE
5
172
100
AcDbEntity
8
0
100
AcDbLine
10
85.7249999999907
20
-36.475000000007313
30
0
11
85.7249999999907
21
-17.424999999997667
31
0
0
LINE
5
173
100
AcDbEntity
8
0
100
AcDbLine
10
85.7249999999907
20
-17.424999999997667
30
0
11
66.674999999980855
21
-17.424999999997667
31
0
0
LINE
5
174
100
AcDbEntity
8
0
100
AcDbLine
10
-9.5249999999999719
20
-9.5250000000000217
30
0
11
9.5249999999999684
21
-9.5250000000000306
31
0
0
LINE
5
175
100
AcDbEntity
8
0
100
AcDbLine
10
9.5249999999991459
20
-3.5249811753759985
30
0
11
28.574999999984378
21
-3.5250062748791278
31
0
0
LINE
5
176
100
AcDbEntity
8
0
100
AcDbLine
10
47.624999999980993
20
-17.424999999997599
30
0
11
47.624999999980986
21
-36.474999999997586
31
0
0
LINE
5
177
100
AcDbEntity
8
0
100
AcDbLine
10
66.674999999980955
20
-17.425000000007394
30
0
11
85.7249999999907
21
-17.425000000007309
31
0
0
LINE
5
178
100
AcDbEntity
8
0
100
AcDbLine
10
66.674999999980855
20
-17.424999999997667
30
0
11
66.674999999980955
21
-36.475000000007398
31
0
0
LINE
5
179
100
AcDbEntity
8
0
100
AcDbLine
10
66.674999999980955
20
-36.475000000007398
30
0
11
85.7249999999907
21
-36.475000000007313
31
0
0
LINE
5
180
100
AcDbEntity
8
0
100
AcDbLine
10
-9.5249999999999719
20
-11.024999999999959
30
0
11
-28.574999999997711
21
-11.025000000004809
31
0
0
LINE
5
181
100
AcDbEntity
8
0
100
AcDbLine
10
-9.5249999999999719
20
-11.025000000000038
30
0
11
-9.5249999999999719
21
-30.074999999999964
31
0
0
LINE
5
182
100
AcDbEntity
8
0
100
AcDbLine
10
-9.5250000000000021
20
-28.575000000000003
30
0
11
-9.5249999999999719
21
-9.5250000000000217
31
0
0
LINE
5
183
100
AcDbEntity
8
0
100
AcDbLine
10
-9.5249999999999719
20
-30.074999999999964
30
0
11
-28.574999999997711
21
-30.075000000004813
31
0
0
LINE
5
184
100
AcDbEntity
8
0
100
AcDbLine
10
66.674999999980855
20
-17.424999999997603
30
0
11
47.624999999980993
21
-17.424999999997599
31
0
0
LINE
5
185
100
AcDbEntity
8
0
100
AcDbLine
10
47.624999999980986
20
-36.474999999997586
30
0
11
66.674999999980955
21
-36.475000000007398
31
0
0
LINE
5
186
100
AcDbEntity
8
0
100
AcDbLine
10
47.624999999980986
20
-17.424999999997585
30
0
11
66.674999999980955
21
-17.425000000007394
31
0
0
LINE
5
187
100
AcDbEntity
8
0
100
AcDbLine
10
28.57499999998101
20
-25.975000000001174
30
0
11
28.574999999981014
21
-6.9250000000011847
31
0
0
LINE
5
188
100
AcDbEntity
8
0
100
AcDbLine
10
9.5249999999930708
20
-9.5250000000000021
30
0
11
-9.5250000000000004
21
-9.5250000000000004
31
0
0
LINE
5
189
100
AcDbEntity
8
0
100
AcDbLine
10
47.624999999981
20
-6.9250000000011713
30
0
11
28.57499999998101
21
-6.9250000000011713
31
0
0
LINE
5
190
100
AcDbEntity
8
0
100
AcDbLine
10
47.624999999976403
20
-6.925000000001182
30
0
11
47.624999999981
21
-25.975000000001174
31
0
0
LINE
5
191
100
AcDbEntity
8
0
100
AcDbLine
10
28.574999999984829
20
-3.525006274863105
30
0
11
9.5249999999991424
21
-3.5250062748630917
31
0
0
LINE
5
192
100
AcDbEntity
8
0
100
AcDbLine
10
28.574999999984378
20
-3.5250062748791278
30
0
11
28.574999999984829
21
-22.575006274863107
31
0
0
LINE
5
193
100
AcDbEntity
8
0
100
AcDbLine
10
9.5249999999930708
20
-28.575000000000003
30
0
11
-9.5250000000000004
21
-28.575000000000003
31
0
0
LINE
5
194
100
AcDbEntity
8
0
100
AcDbLine
10
28.574999999981014
20
-6.9250000000011873
30
0
11
47.624999999976403
21
-6.925000000001182
31
0
0
LINE
5
195
100
AcDbEntity
8
0
100
AcDbLine
10
9.5249999999991424
20
-22.575006274863092
30
0
11
9.5249999999991459
21
-3.5249811753759985
31
0
0
LINE
5
196
100
AcDbEntity
8
0
100
AcDbLine
10
28.574999999984829
20
-22.575006274863107
30
0
11
9.5249999999991424
21
-22.575006274863092
31
0
0
LINE
5
197
100
AcDbEntity
8
0
100
AcDbLine
10
9.5249999999999684
20
-9.5250000000000306
30
0
11
9.5249999999930708
21
-28.57500000000001
31
0
0
LINE
5
198
100
AcDbEntity
8
0
100
AcDbLine
10
66.674999999980955
20
-36.475000000007398
30
0
11
66.674999999980855
21
-17.424999999997603
31
0
0
LINE
5
199
100
AcDbEntity
8
0
100
AcDbLine
10
47.624999999981
20
-25.975000000001174
30
0
11
28.57499999998101
21
-25.975000000001174
31
0
0
LINE
5
200
100
AcDbEntity
8
0
100
AcDbLine
10
-28.574999999997711
20
-30.075000000004813
30
0
11
-28.574999999997711
21
-11.0250000000025
31
0
0
LINE
5
201
100
AcDbEntity
8
0
100
AcDbLine
10
-28.574999999997711
20
-11.0250000000025
30
0
11
-9.5249999999999719
21
-11.025000000000038
31
0
0
LINE
5
202
100
AcDbEntity
8
0
100
AcDbLine
10
-57.242614117631312
20
-61.22791519601266
30
0
11
-44.99751015309247
21
-46.63476855460474
31
0
0
LINE
5
203
100
AcDbEntity
8
0
100
AcDbLine
10
-44.99751015309247
20
-46.63476855460474
30
0
11
-30.404363511675477
21
-58.879872519133272
31
0
0
LINE
5
204
100
AcDbEntity
8
0
100
AcDbLine
10
-42.649467476206588
20
-73.47301916054812
30
0
11
-57.242614117631312
21
-61.22791519601266
31
0
0
LINE
5
205
100
AcDbEntity
8
0
100
AcDbLine
10
-30.404363511675477
20
-58.879872519133272
30
0
11
-42.649467476206588
21
-73.47301916054812
31
0
0
LINE
5
206
100
AcDbEntity
8
0
100
AcDbLine
10
-37.249643271999261
20
-40.689621197553016
30
0
11
-19.984479928991785
21
-32.638743311401626
31
0
0
LINE
5
207
100
AcDbEntity
8
0
100
AcDbLine
10
-19.984479928991785
20
-32.638743311401626
30
0
11
-11.933602042837869
21
-49.903906654407464
31
0
0
LINE
5
208
100
AcDbEntity
8
0
100
AcDbLine
10
-29.198765385881043
20
-57.954784540554357
30
0
11
-37.249643271999261
21
-40.689621197553016
31
0
0
LINE
5
209
100
AcDbEntity
8
0
100
AcDbLine
10
-11.933602042837869
20
-49.903906654407464
30
0
11
-29.198765385881043
21
-57.954784540554357
31
0
0
LINE
5
210
100
AcDbEntity
8
0
100
AcDbLine
10
-10.450000000001324
20
-30.525000000000297
30
0
11
8.5999999999985093
21
-30.525000000000297
31
0
0
LINE
5
211
100
AcDbEntity
8
0
100
AcDbLine
10
8.5999999999985075
20
-30.525000000000297
30
0
11
8.5999999999897128
21
-49.574999999998674
31
0
0
LINE
5
212
100
AcDbEntity
8
0
100
AcDbLine
10
-10.45000000000147
20
-49.575000000002845
30
0
11
-10.450000000001324
21
-30.525000000000297
31
0
0
LINE
5
213
100
AcDbEntity
8
0
100
AcDbLine
10
8.5999999999897128
20
-49.574999999998674
30
0
11
-10.45000000000147
21
-49.575000000002845
31
0
0
LINE
5
214
100
AcDbEntity
8
0
100
AcDbLine
10
9.5249999999922501
20
-30.524999999998833
30
0
11
47.624999999992291
21
-30.524999999999185
31
0
0
LINE
5
215
100
AcDbEntity
8
0
100
AcDbLine
10
47.624999999992291
20
-30.524999999999185
30
0
11
47.624999999992276
21
-49.574999999999186
31
0
0
LINE
5
216
100
AcDbEntity
8
0
100
AcDbLine
10
9.5249999999922679
20
-49.574999999999221
30
0
11
9.5249999999922501
21
-30.524999999998833
31
0
0
LINE
5
217
100
AcDbEntity
8
0
100
AcDbLine
10
47.624999999992276
20
-49.574999999999186
30
0
11
9.5249999999922697
21
-49.574999999999221
31
0
0
ENDSEC
0
SECTION
2
OBJECTS
0
DICTIONARY
5
C
100
AcDbDictionary
3
ACAD_GROUP
350
D
3
ACAD_MLINESTYLE
350
17
0
DICTIONARY
5
D
100
AcDbDictionary
0
DICTIONARY
5
1A
330
C
100
AcDbDictionary
0
DICTIONARY
5
17
100
AcDbDictionary
0
ENDSEC
0
EOF
