<?xml version="1.0" encoding="UTF-8" standalone="no"?>
<!-- Created with Inkscape (http://www.inkscape.org/) -->

<svg
   width="540mm"
   height="440mm"
   viewBox="0 0 540 440"
   version="1.1"
   id="svg5"
   xml:space="preserve"
   inkscape:version="1.2.1 (9c6d41e410, 2022-07-14)"
   sodipodi:docname="54x44_2mm.svg"
   xmlns:inkscape="http://www.inkscape.org/namespaces/inkscape"
   xmlns:sodipodi="http://sodipodi.sourceforge.net/DTD/sodipodi-0.dtd"
   xmlns="http://www.w3.org/2000/svg"
   xmlns:svg="http://www.w3.org/2000/svg"><sodipodi:namedview
     id="namedview7"
     pagecolor="#505050"
     bordercolor="#eeeeee"
     borderopacity="1"
     inkscape:showpageshadow="0"
     inkscape:pageopacity="0"
     inkscape:pagecheckerboard="0"
     inkscape:deskcolor="#505050"
     inkscape:document-units="mm"
     showgrid="false"
     inkscape:zoom="0.5946522"
     inkscape:cx="677.70707"
     inkscape:cy="606.23672"
     inkscape:window-width="1920"
     inkscape:window-height="1144"
     inkscape:window-x="0"
     inkscape:window-y="56"
     inkscape:window-maximized="0"
     inkscape:current-layer="layer1" /><defs
     id="defs2" /><g
     inkscape:label="Layer 1"
     inkscape:groupmode="layer"
     id="layer1"><g
       id="g1355"
       transform="translate(1.6165982,150.54507)"><path
         d="M 292.972,6.226 291.387,5.296 289.691,5 H 19.236 L 17.54,5.296 15.955,6.226 14.814,7.666 14.284,9.304 5.379,72.666 5.078,75.61 5,78.635 l 0.16,3.08 0.41,3.108 0.667,3.107 0.926,3.072 1.182,3.007 1.431,2.909 1.665,2.782 1.882,2.626 2.077,2.446 2.246,2.247 2.387,2.033 2.499,1.808 2.582,1.577 2.636,1.347 38.352,17.805 8.179,3.531 8.394,3.097 8.576,2.644 8.72,2.177 8.826,1.698 8.892,1.212 8.918,0.726 8.905,0.241 h 37.903 l 8.905,-0.241 8.918,-0.726 8.892,-1.212 8.826,-1.698 8.72,-2.177 8.576,-2.644 8.394,-3.097 8.179,-3.531 38.352,-17.805 2.636,-1.347 2.582,-1.577 2.499,-1.808 2.387,-2.033 2.246,-2.247 2.077,-2.446 1.882,-2.626 1.665,-2.782 1.431,-2.909 1.182,-3.007 0.926,-3.072 0.667,-3.107 0.41,-3.108 0.16,-3.08 -0.078,-3.025 -0.301,-2.944 -8.905,-63.362 -0.53,-1.638 -1.141,-1.44"
         class="s5"
         id="path1324" /><path
         d="m 169.463,8.35 0.608,0.116 0.559,0.367 0.368,0.56 0.115,0.607 -0.115,0.607 -0.368,0.56 -0.559,0.367 -0.608,0.116 -0.607,-0.116 -0.559,-0.367 -0.368,-0.56 -0.116,-0.607 0.116,-0.607 0.368,-0.56 0.559,-0.367 0.607,-0.116"
         class="s5"
         id="path1326" /><path
         d="m 139.463,8.35 0.608,0.116 0.559,0.367 0.368,0.56 0.115,0.607 -0.115,0.607 -0.368,0.56 -0.559,0.367 -0.608,0.116 -0.607,-0.116 -0.559,-0.367 -0.368,-0.56 -0.116,-0.607 0.116,-0.607 0.368,-0.56 0.559,-0.367 0.607,-0.116"
         class="s5"
         id="path1328" /><path
         d="m 288.525,8.833 0.559,-0.367 0.607,-0.116 0.608,0.116 0.559,0.367 0.367,0.56 0.116,0.607 -0.116,0.607 -0.367,0.56 -0.559,0.367 -0.608,0.116 -0.607,-0.116 -0.559,-0.367 -0.368,-0.56 -0.116,-0.607 0.116,-0.607 0.368,-0.56"
         class="s5"
         id="path1330" /><path
         d="m 156.113,141.915 -0.115,0.607 -0.368,0.56 -0.559,0.367 -0.608,0.116 -0.607,-0.116 -0.559,-0.367 -0.368,-0.56 -0.116,-0.607 0.116,-0.607 0.368,-0.56 0.559,-0.367 0.607,-0.116 0.608,0.116 0.559,0.367 0.368,0.56 0.115,0.607"
         class="s5"
         id="path1332" /><path
         d="m 294.152,92.995 0.607,-0.116 0.608,0.116 0.559,0.367 0.367,0.559 0.116,0.608 -0.116,0.607 -0.367,0.559 -0.559,0.368 -0.608,0.116 -0.607,-0.116 -0.559,-0.368 -0.368,-0.559 -0.116,-0.607 0.116,-0.608 0.368,-0.559 0.559,-0.367"
         class="s5"
         id="path1334" /><path
         d="m 20.402,11.167 -0.559,0.367 -0.607,0.116 -0.608,-0.116 -0.559,-0.367 -0.368,-0.56 -0.115,-0.607 0.115,-0.607 0.368,-0.56 0.559,-0.367 0.608,-0.116 0.607,0.116 0.559,0.367 0.368,0.56 0.116,0.607 -0.116,0.607 -0.368,0.56"
         class="s5"
         id="path1336" /><path
         d="m 15.702,95.136 -0.368,0.559 -0.559,0.368 -0.607,0.116 -0.608,-0.116 -0.559,-0.368 -0.368,-0.559 -0.115,-0.607 0.115,-0.608 0.368,-0.559 0.559,-0.367 0.608,-0.116 0.607,0.116 0.559,0.367 0.368,0.559 0.116,0.608 -0.116,0.607"
         class="s5"
         id="path1338" /></g><g
       id="g1680"
       transform="translate(1.6165982,2.6860035)"><path
         d="m 277.16,108.303 -0.355,0.063 -0.277,0.234 -0.092,0.386 0.106,0.573 0.315,0.793 0.406,0.761 0.372,0.454 0.354,0.18 0.358,-0.06 0.277,-0.232 0.092,-0.384 -0.106,-0.576 -0.322,-0.807 -0.406,-0.761 -0.369,-0.449 -0.353,-0.175"
         class="s5"
         id="path1361" /><path
         d="m 269.231,113.446 -0.212,-0.086 -0.207,-0.044 -0.206,0.005 -0.209,0.065 -0.262,0.208 -0.127,0.323 0.027,0.442 0.198,0.564 0.308,0.542 0.306,0.309 0.305,0.106 0.308,-0.067 0.201,-0.128 0.146,-0.17 0.1,-0.216 0.061,-0.264 -0.737,-1.589"
         class="s5"
         id="path1363" /><path
         d="m 263.343,118.551 0.091,-0.205 0.045,-0.243 -0.326,-0.702 -0.348,0.161 -0.34,0.203 -0.202,0.23 -0.064,0.259 0.073,0.29 0.135,0.208 0.17,0.122 0.202,0.03 0.229,-0.064 0.194,-0.124 0.141,-0.165"
         class="s5"
         id="path1365" /><path
         d="m 259.398,118.373 -0.313,-0.306 -0.333,-0.109 -0.354,0.078 -0.292,0.223 -0.135,0.328 0.028,0.439 0.199,0.555 0.298,0.518 0.315,0.307 0.336,0.109 0.357,-0.08 0.291,-0.222 0.133,-0.328 -0.032,-0.44 -0.202,-0.558 -0.296,-0.514"
         class="s5"
         id="path1367" /><path
         d="m 255.511,120.126 -0.31,-0.305 -0.305,-0.097 -0.301,0.07 -0.195,0.134 -0.138,0.185 -0.089,0.224 -0.048,0.25 0.713,1.535 0.206,0.109 0.21,0.055 0.211,-0.001 0.202,-0.061 0.263,-0.202 0.13,-0.316 -0.026,-0.443 -0.205,-0.582 -0.318,-0.555"
         class="s5"
         id="path1369" /><path
         d="m 245.308,125.565 -0.296,-0.513 -0.314,-0.306 -0.333,-0.109 -0.353,0.078 -0.293,0.223 -0.135,0.328 0.029,0.439 0.199,0.555 0.298,0.517 0.315,0.308 0.335,0.109 0.357,-0.08 0.292,-0.222 0.132,-0.328 -0.032,-0.44 -0.201,-0.559"
         class="s5"
         id="path1371" /><path
         d="m 66.375,125.968 -0.276,0.406 1.365,0.634 0.019,-0.04 0.139,-0.401 0.011,-0.343 -0.127,-0.278 -0.276,-0.204 -0.291,-0.072 -0.285,0.069 -0.279,0.229"
         class="s5"
         id="path1373" /><path
         d="m 58.313,121.769 -0.14,-0.214 -0.257,-0.169 -0.277,-0.071 -0.252,0.046 -0.215,0.154 -0.167,0.254 -0.09,0.303 0.021,0.272 0.131,0.226 0.238,0.168 0.286,0.077 0.256,-0.044 0.218,-0.161 0.177,-0.275 0.094,-0.306 -0.023,-0.26"
         class="s5"
         id="path1375" /><path
         d="m 50.334,117.961 -0.284,0.07 -0.28,0.228 -0.275,0.406 1.365,0.634 0.018,-0.039 0.139,-0.402 0.012,-0.343 -0.127,-0.278 -0.276,-0.203 -0.292,-0.073"
         class="s5"
         id="path1377" /><path
         d="m 44.806,115.596 -0.279,0.229 -0.276,0.406 1.365,0.634 0.018,-0.04 0.139,-0.401 0.012,-0.344 -0.127,-0.277 -0.276,-0.204 -0.292,-0.072 -0.284,0.069"
         class="s5"
         id="path1379" /><path
         d="m 30.743,108.866 -0.284,0.07 -0.279,0.228 -0.276,0.406 1.365,0.634 0.018,-0.039 0.139,-0.402 0.012,-0.343 -0.127,-0.278 -0.276,-0.203 -0.292,-0.073"
         class="s5"
         id="path1381" /><path
         d="M 294.113,7.666 292.972,6.226 291.387,5.296 289.691,5 H 19.236 L 17.54,5.296 15.955,6.226 14.814,7.666 14.284,9.304 5.379,72.666 5.078,75.61 5,78.635 l 0.16,3.08 0.41,3.108 0.667,3.107 0.926,3.072 1.182,3.007 1.431,2.909 1.665,2.782 1.882,2.626 2.077,2.446 2.246,2.247 2.387,2.033 2.499,1.808 2.582,1.577 2.636,1.347 38.352,17.805 8.179,3.531 8.394,3.097 8.576,2.644 8.72,2.177 8.826,1.698 8.892,1.212 8.918,0.726 8.905,0.241 h 37.903 l 8.905,-0.241 8.918,-0.726 8.892,-1.212 8.826,-1.698 8.72,-2.177 8.576,-2.644 8.394,-3.097 8.179,-3.531 38.352,-17.805 2.636,-1.347 2.582,-1.577 2.499,-1.808 2.387,-2.033 2.246,-2.247 2.077,-2.446 1.882,-2.626 1.665,-2.782 1.431,-2.909 1.182,-3.007 0.926,-3.072 0.667,-3.107 0.41,-3.108 0.16,-3.08 -0.078,-3.025 -0.301,-2.944 -8.905,-63.362 -0.53,-1.638"
         class="s5"
         id="path1383" /><path
         d="m 239.249,96.572 11.181,8.426 -8.426,11.181 -11.18,-8.426 8.425,-11.181"
         class="s5"
         id="path1385" /><path
         d="M 62.138,31.666 64.086,17.802 77.95,19.751 76.002,33.614 62.138,31.666"
         class="s5"
         id="path1387" /><path
         d="M 75.386,73.921 89.25,75.869 87.301,89.733 73.437,87.785 75.386,73.921"
         class="s5"
         id="path1389" /><path
         d="m 58.168,120.809 0.55,0.23 0.459,0.114 0.404,0.033 0.388,-0.011 -0.101,0.767 -0.236,-0.04 -0.253,-0.074 -0.273,-0.103 -0.297,-0.131 0.202,0.286 0.106,0.288 0.006,0.297 -0.098,0.314 -0.313,0.423 -0.447,0.242 -0.553,0.039 -0.627,-0.185 -0.109,-0.054 -0.1,-0.057 -0.093,-0.063 -0.087,-0.071 -0.082,0.023 -0.074,0.04 -0.062,0.055 -0.046,0.071 -0.025,0.099 0.027,0.107 0.103,0.113 0.203,0.119 0.531,0.247 0.488,0.316 0.305,0.39 0.11,0.43 -0.093,0.437 -0.328,0.415 -0.491,0.196 -0.644,-0.034 -0.785,-0.273 -0.734,-0.428 -0.387,-0.437 -0.096,-0.461 0.141,-0.497 0.755,0.35 -0.07,0.241 0.055,0.214 0.215,0.209 0.409,0.225 0.437,0.162 0.311,0.032 0.209,-0.08 0.129,-0.168 0.042,-0.191 -0.052,-0.182 -0.146,-0.168 -0.243,-0.147 -0.525,-0.244 -0.423,-0.262 -0.241,-0.288 -0.078,-0.296 0.062,-0.283 0.111,-0.168 0.16,-0.136 0.201,-0.098 0.233,-0.053 -0.189,-0.312 -0.088,-0.309 0.013,-0.314 0.108,-0.326 0.345,-0.464 0.48,-0.255 0.571,-0.041 0.62,0.18"
         class="s5"
         id="path1391" /><path
         d="m 31.695,112.38 0.639,-0.277 0.147,0.237 0.179,0.214 0.213,0.184 0.248,0.145 0.267,0.089 0.233,0.008 0.186,-0.075 0.126,-0.156 0.054,-0.199 -0.055,-0.192 -0.186,-0.229 -0.339,-0.31 -0.381,-0.39 -0.213,-0.381 -0.052,-0.377 0.103,-0.38 0.282,-0.358 0.42,-0.194 0.521,-0.016 0.585,0.178 0.344,0.195 0.286,0.232 0.231,0.266 0.181,0.294 -0.556,0.34 -0.159,-0.222 -0.173,-0.188 -0.193,-0.155 -0.217,-0.123 -0.235,-0.079 -0.198,-0.006 -0.152,0.063 -0.102,0.126 -0.04,0.166 0.056,0.175 0.171,0.213 0.31,0.283 0.396,0.384 0.244,0.385 0.075,0.403 -0.115,0.439 -0.338,0.423 -0.477,0.198 -0.563,-0.007 -0.597,-0.191 -0.406,-0.232 -0.326,-0.275 -0.249,-0.305 -0.175,-0.323"
         class="s5"
         id="path1393" /><path
         d="m 31.83,111.127 -2.179,-1.012 -0.113,0.489 0.048,0.375 0.185,0.276 0.297,0.195 0.232,0.085 0.239,0.042 0.256,0.001 0.283,-0.035 0.125,0.641 -0.358,0.063 -0.372,0.007 -0.382,-0.061 -0.39,-0.14 -0.653,-0.46 -0.348,-0.606 -0.051,-0.718 0.239,-0.795 0.444,-0.689 0.573,-0.45 0.665,-0.166 0.722,0.163 0.594,0.421 0.319,0.569 0.043,0.689 -0.24,0.784 -0.043,0.086 -0.047,0.088 -0.047,0.084 -0.041,0.074"
         class="s5"
         id="path1395" /><path
         d="m 289.691,8.35 0.608,0.116 0.559,0.367 0.367,0.56 0.116,0.607 -0.116,0.607 -0.367,0.56 -0.559,0.367 -0.608,0.116 -0.607,-0.116 -0.559,-0.367 -0.368,-0.56 -0.116,-0.607 0.116,-0.607 0.368,-0.56 0.559,-0.367 0.607,-0.116"
         class="s5"
         id="path1397" /><path
         d="m 286.576,41.727 1.949,13.863 -13.864,1.949 -1.948,-13.864 13.863,-1.948"
         class="s5"
         id="path1399" /><path
         d="m 289.221,60.542 1.948,13.863 -13.864,1.949 -1.948,-13.864 13.864,-1.948"
         class="s5"
         id="path1401" /><path
         d="m 283.932,22.911 1.949,13.864 -13.864,1.949 -1.949,-13.864 13.864,-1.949"
         class="s5"
         id="path1403" /><path
         d="m 251.253,27.504 13.864,-1.948 1.949,13.863 -13.864,1.949 -1.949,-13.864"
         class="s5"
         id="path1405" /><path
         d="m 230.977,19.751 13.864,-1.949 1.948,13.864 -13.864,1.948 -1.948,-13.863"
         class="s5"
         id="path1407" /><path
         d="m 253.898,46.319 13.863,-1.948 1.949,13.864 -13.864,1.948 -1.948,-13.864"
         class="s5"
         id="path1409" /><path
         d="m 296.409,94.529 -0.116,0.607 -0.367,0.559 -0.559,0.368 -0.608,0.116 -0.607,-0.116 -0.559,-0.368 -0.368,-0.559 -0.116,-0.607 0.116,-0.608 0.368,-0.559 0.559,-0.367 0.607,-0.116 0.608,0.116 0.559,0.367 0.367,0.559 0.116,0.608"
         class="s5"
         id="path1411" /><path
         d="m 273.05,82.001 1.948,13.864 -13.863,1.948 -1.949,-13.864 13.864,-1.948"
         class="s5"
         id="path1413" /><path
         d="m 256.542,65.134 13.864,-1.948 1.948,13.864 -13.864,1.948 -1.948,-13.864"
         class="s5"
         id="path1415" /><path
         d="m 282.152,105.228 0.574,0.055 0.463,0.264 0.321,0.44 0.162,0.579 -0.04,0.689 -0.248,0.911 -0.462,1.246 1.89,-0.878 0.216,0.706 -2.75,1.276 -0.286,-0.617 0.483,-1.394 0.266,-0.933 0.061,-0.63 -0.127,-0.487 -0.173,-0.251 -0.223,-0.142 -0.259,-0.032 -0.281,0.077 -0.228,0.14 -0.173,0.183 -0.132,0.238 -0.104,0.302 -0.7,-0.17 0.145,-0.44 0.226,-0.381 0.315,-0.316 0.409,-0.249 0.655,-0.186"
         class="s5"
         id="path1417" /><path
         d="m 280.626,110.161 0.187,-0.137 0.231,-0.057 0.223,0.034 0.193,0.116 0.138,0.188 0.054,0.225 -0.036,0.222 -0.118,0.194 -0.191,0.141 -0.227,0.053 -0.22,-0.037 -0.189,-0.118 -0.136,-0.186 -0.056,-0.226 0.033,-0.221 0.114,-0.191"
         class="s5"
         id="path1419" /><path
         d="m 251.766,124.681 -0.84,0.39 -2.258,-4.863 0.798,-0.482 2.3,4.955"
         class="s5"
         id="path1421" /><path
         d="m 246.038,127.298 -0.625,0.453 -0.746,0.192 -0.683,-0.125 -0.59,-0.429 -0.468,-0.717 -0.235,-0.798 0.054,-0.728 0.342,-0.614 0.629,-0.453 0.745,-0.192 0.68,0.125 0.587,0.428 0.466,0.714 0.237,0.801 -0.053,0.73 -0.34,0.613"
         class="s5"
         id="path1423" /><path
         d="m 249.546,125.799 -0.307,0.175 -0.736,0.189 -0.68,-0.123 -0.588,-0.418 -0.461,-0.697 -0.24,-0.812 0.05,-0.739 0.334,-0.617 0.611,-0.449 0.333,-0.125 0.324,-0.061 0.325,0.003 0.336,0.066 -0.139,0.679 -0.221,-0.032 -0.206,0.001 -0.196,0.036 -0.195,0.072 -0.295,0.22 -0.147,0.327 0.017,0.441 0.195,0.562 0.303,0.506 0.32,0.278 0.336,0.079 0.349,-0.09 0.177,-0.101 0.148,-0.126 0.131,-0.156 0.131,-0.192 0.621,0.358 -0.167,0.284 -0.208,0.25 -0.255,0.212"
         class="s5"
         id="path1425" /><path
         d="m 279.154,109.286 0.356,1.03 0.037,0.861 -0.288,0.676 -0.617,0.471 -0.755,0.166 -0.702,-0.216 -0.636,-0.583 -0.558,-0.936 -0.353,-1.025 -0.033,-0.859 0.29,-0.672 0.614,-0.469 0.758,-0.168 0.7,0.213 0.633,0.58 0.554,0.931"
         class="s5"
         id="path1427" /><path
         d="m 268.125,111.064 0.883,-0.298 2.257,4.863 -0.741,0.344 -0.263,-0.412 -0.08,0.301 -0.148,0.275 -0.219,0.237 -0.295,0.185 -0.632,0.134 -0.585,-0.179 -0.519,-0.461 -0.433,-0.712 -0.245,-0.784 0.009,-0.711 0.263,-0.586 0.518,-0.406 0.274,-0.093 0.268,-0.03 0.259,0.024 0.245,0.068 -0.816,-1.759"
         class="s5"
         id="path1429" /><path
         d="m 242.978,128.761 -0.84,0.39 -1.106,-2.382 -0.156,-0.256 -0.166,-0.131 -0.177,-0.028 -0.186,0.055 -0.193,0.134 -0.141,0.192 -0.095,0.243 -0.059,0.288 1.124,2.421 -0.84,0.39 -2.255,-4.856 0.801,-0.476 0.874,1.884 0.111,-0.317 0.162,-0.27 0.219,-0.222 0.281,-0.172 0.448,-0.12 0.407,0.066 0.348,0.243 0.272,0.411 1.167,2.513"
         class="s5"
         id="path1431" /><path
         d="m 275.577,113.627 -1.004,0.466 -2.76,-2.938 0.912,-0.424 2.04,2.452 -0.537,-3.15 0.866,-0.402 0.483,3.996"
         class="s5"
         id="path1433" /><path
         d="m 265.74,115.945 0.859,1.85 -0.84,0.39 -1.612,-3.472 0.729,-0.338 0.395,0.646 v -0.402 l 0.095,-0.34 0.185,-0.267 0.266,-0.186 0.093,-0.04 0.091,-0.032 0.092,-0.025 0.094,-0.018 0.233,0.881 -0.084,0.018 -0.079,0.021 -0.079,0.028 -0.085,0.036 -0.252,0.187 -0.134,0.269 -0.03,0.354 0.063,0.44"
         class="s5"
         id="path1435" /><path
         d="m 263.324,115.807 0.315,0.475 0.676,1.457 0.1,0.171 0.109,0.102 0.121,0.046 0.14,0.005 0.082,0.64 -0.283,0.076 -0.257,0.005 -0.238,-0.072 -0.225,-0.158 -0.097,0.332 -0.173,0.276 -0.237,0.223 -0.289,0.169 -0.505,0.139 -0.456,-0.056 -0.38,-0.234 -0.278,-0.397 -0.127,-0.549 0.138,-0.507 0.393,-0.452 0.638,-0.388 0.434,-0.202 -0.092,-0.196 -0.171,-0.268 -0.205,-0.131 -0.25,-0.007 -0.304,0.103 -0.189,0.103 -0.206,0.139 -0.218,0.171 -0.221,0.198 -0.461,-0.48 0.271,-0.257 0.284,-0.227 0.293,-0.194 0.296,-0.156 0.635,-0.199 0.522,0.038 0.415,0.262"
         class="s5"
         id="path1437" /><path
         d="m 258.103,117.4 0.745,-0.192 0.68,0.126 0.587,0.427 0.465,0.714 0.237,0.802 -0.052,0.729 -0.34,0.614 -0.626,0.452 -0.746,0.192 -0.682,-0.125 -0.591,-0.429 -0.468,-0.717 -0.235,-0.798 0.054,-0.728 0.342,-0.613 0.63,-0.454"
         class="s5"
         id="path1439" /><path
         d="m 255.74,119.08 0.52,0.457 0.448,0.736 0.251,0.788 -0.002,0.707 -0.256,0.578 -0.511,0.401 -0.288,0.096 -0.287,0.025 -0.282,-0.042 -0.272,-0.105 0.112,0.379 -0.742,0.344 -2.258,-4.863 0.798,-0.482 0.871,1.877 0.091,-0.294 0.154,-0.259 0.213,-0.217 0.272,-0.167 0.598,-0.129 0.57,0.17"
         class="s5"
         id="path1441" /><path
         d="m 253.958,123.664 -0.964,0.448 -2.075,-1.343 0.43,-2.114 0.886,-0.411 -0.445,2.065 2.168,1.355"
         class="s5"
         id="path1443" /><path
         d="m 247.485,36.617 1.948,13.864 -13.863,1.948 -1.949,-13.863 13.864,-1.949"
         class="s5"
         id="path1445" /><path
         d="m 252.078,69.296 -13.864,1.949 -1.948,-13.864 13.863,-1.949 1.949,13.864"
         class="s5"
         id="path1447" /><path
         d="m 252.774,74.247 1.948,13.864 -13.864,1.949 -1.948,-13.864 13.864,-1.949"
         class="s5"
         id="path1449" /><path
         d="m 230.897,55.106 1.948,13.864 -13.864,1.948 -1.948,-13.864 13.864,-1.948"
         class="s5"
         id="path1451" /><path
         d="m 233.541,73.921 1.948,13.864 -13.863,1.948 -1.949,-13.864 13.864,-1.948"
         class="s5"
         id="path1453" /><path
         d="m 170.071,8.466 0.559,0.367 0.368,0.56 0.115,0.607 -0.115,0.607 -0.368,0.56 -0.559,0.367 -0.608,0.116 -0.607,-0.116 -0.559,-0.367 -0.368,-0.56 -0.116,-0.607 0.116,-0.607 0.368,-0.56 0.559,-0.367 0.607,-0.116 0.608,0.116"
         class="s5"
         id="path1455" /><path
         d="m 225.608,17.476 1.949,13.863 -13.864,1.949 -1.949,-13.864 13.864,-1.948"
         class="s5"
         id="path1457" /><path
         d="m 214.389,38.239 13.863,-1.948 1.949,13.864 -13.864,1.948 -1.948,-13.864"
         class="s5"
         id="path1459" /><path
         d="m 193.625,27.02 13.864,-1.949 1.948,13.864 -13.863,1.948 -1.949,-13.863"
         class="s5"
         id="path1461" /><path
         d="m 210.133,43.886 1.949,13.864 -13.864,1.949 -1.949,-13.864 13.864,-1.949"
         class="s5"
         id="path1463" /><path
         d="m 212.777,62.701 1.949,13.864 -13.864,1.949 -1.948,-13.864 13.863,-1.949"
         class="s5"
         id="path1465" /><path
         d="m 215.422,81.517 1.948,13.863 -13.864,1.949 -1.948,-13.864 13.864,-1.948"
         class="s5"
         id="path1467" /><path
         d="m 218.362,102.436 1.948,13.864 -13.864,1.948 -1.948,-13.864 13.864,-1.948"
         class="s5"
         id="path1469" /><path
         d="m 190.831,43.065 -13.864,1.948 -1.948,-13.864 13.864,-1.948 1.948,13.864"
         class="s5"
         id="path1471" /><path
         d="m 193.475,61.88 -13.864,1.948 -1.948,-13.863 13.864,-1.949 1.948,13.864"
         class="s5"
         id="path1473" /><path
         d="m 196.12,80.695 -13.864,1.948 -1.949,-13.863 13.864,-1.949 1.949,13.864"
         class="s5"
         id="path1475" /><path
         d="m 183.91,109.759 13.458,-3.859 3.858,13.458 -13.457,3.859 -3.859,-13.458"
         class="s5"
         id="path1477" /><path
         d="m 196.815,85.646 1.949,13.864 -13.864,1.948 -1.948,-13.863 13.863,-1.949"
         class="s5"
         id="path1479" /><path
         d="m 162.809,124.275 10.725,-8.999 8.999,10.725 -10.725,8.999 -8.999,-10.725"
         class="s5"
         id="path1481" /><path
         d="m 140.998,9.393 0.115,0.607 -0.115,0.607 -0.368,0.56 -0.559,0.367 -0.608,0.116 -0.607,-0.116 -0.559,-0.367 -0.368,-0.56 -0.116,-0.607 0.116,-0.607 0.368,-0.56 0.559,-0.367 0.607,-0.116 0.608,0.116 0.559,0.367 0.368,0.56"
         class="s5"
         id="path1483" /><path
         d="m 133.908,31.149 -1.948,13.864 -13.864,-1.948 1.948,-13.864 13.864,1.948"
         class="s5"
         id="path1485" /><path
         d="m 131.264,49.965 -1.949,13.863 -13.863,-1.948 1.948,-13.864 13.864,1.949"
         class="s5"
         id="path1487" /><path
         d="m 128.62,68.78 -1.949,13.863 -13.864,-1.948 1.949,-13.864 13.864,1.949"
         class="s5"
         id="path1489" /><path
         d="m 238.377,128.816 0.356,0.204 0.261,0.37 0.105,0.531 -0.157,0.493 -0.369,0.426 -0.53,0.332 -0.44,0.16 -0.42,0.072 -0.393,-0.007 -0.361,-0.074 0.201,-0.668 0.276,0.041 0.279,0.002 0.278,-0.044 0.27,-0.096 0.241,-0.147 0.156,-0.173 0.063,-0.19 -0.038,-0.197 -0.117,-0.169 -0.182,-0.082 -0.295,-0.007 -0.455,0.06 -0.544,0.039 -0.429,-0.083 -0.321,-0.204 -0.224,-0.324 -0.091,-0.446 0.122,-0.446 0.324,-0.408 0.514,-0.332 0.371,-0.138 0.362,-0.068 0.352,-0.005 0.341,0.051 -0.099,0.645 -0.272,-0.022 -0.255,0.011 -0.243,0.047 -0.234,0.087 -0.212,0.128 -0.132,0.147 -0.051,0.157 0.031,0.159 0.101,0.138 0.169,0.07 0.274,0.007 0.416,-0.054 0.549,-0.054 0.452,0.061"
         class="s5"
         id="path1491" /><path
         d="m 155.63,143.082 -0.559,0.367 -0.608,0.116 -0.607,-0.116 -0.559,-0.367 -0.368,-0.56 -0.116,-0.607 0.116,-0.607 0.368,-0.56 0.559,-0.367 0.607,-0.116 0.608,0.116 0.559,0.367 0.368,0.56 0.115,0.607 -0.115,0.607 -0.368,0.56"
         class="s5"
         id="path1493" /><path
         d="m 146.118,124.275 -8.999,10.725 -10.725,-8.999 8.999,-10.725 10.725,8.999"
         class="s5"
         id="path1495" /><path
         d="m 20.402,8.833 0.368,0.56 0.116,0.607 -0.116,0.607 -0.368,0.56 -0.559,0.367 -0.607,0.116 -0.608,-0.116 -0.559,-0.367 -0.368,-0.56 -0.115,-0.607 0.115,-0.607 0.368,-0.56 0.559,-0.367 0.608,-0.116 0.607,0.116 0.559,0.367"
         class="s5"
         id="path1497" /><path
         d="M 83.319,17.476 97.183,19.424 95.234,33.288 81.37,31.339 83.319,17.476"
         class="s5"
         id="path1499" /><path
         d="m 101.438,25.071 13.864,1.949 -1.949,13.863 -13.863,-1.948 1.948,-13.864"
         class="s5"
         id="path1501" /><path
         d="m 98.794,43.886 13.863,1.949 -1.948,13.864 -13.864,-1.949 1.949,-13.864"
         class="s5"
         id="path1503" /><path
         d="M 91.894,57.054 89.946,70.918 76.082,68.97 78.03,55.106 91.894,57.054"
         class="s5"
         id="path1505" /><path
         d="M 94.538,38.239 92.59,52.103 78.726,50.155 80.674,36.291 94.538,38.239"
         class="s5"
         id="path1507" /><path
         d="M 55.029,46.319 53.081,60.183 39.217,58.235 41.165,44.371 55.029,46.319"
         class="s5"
         id="path1509" /><path
         d="M 52.385,65.134 50.437,78.998 36.573,77.05 38.521,63.186 52.385,65.134"
         class="s5"
         id="path1511" /><path
         d="M 57.674,27.504 55.725,41.368 41.861,39.419 43.81,25.556 57.674,27.504"
         class="s5"
         id="path1513" /><path
         d="M 49.741,83.949 47.792,97.813 33.928,95.865 35.877,82.001 49.741,83.949"
         class="s5"
         id="path1515" /><path
         d="M 61.442,36.617 75.306,38.566 73.357,52.429 59.493,50.481 61.442,36.617"
         class="s5"
         id="path1517" /><path
         d="M 58.798,55.432 72.661,57.381 70.713,71.245 56.849,69.296 58.798,55.432"
         class="s5"
         id="path1519" /><path
         d="M 93.505,81.517 107.369,83.465 105.42,97.329 91.557,95.38 93.505,81.517"
         class="s5"
         id="path1521" /><path
         d="m 88.617,116.3 1.948,-13.864 13.864,1.948 -1.949,13.864 -13.863,-1.948"
         class="s5"
         id="path1523" /><path
         d="m 96.149,62.701 13.864,1.949 -1.948,13.864 -13.864,-1.949 1.948,-13.864"
         class="s5"
         id="path1525" /><path
         d="M 24.995,22.911 38.858,24.86 36.91,38.724 23.046,36.775 24.995,22.911"
         class="s5"
         id="path1527" /><path
         d="m 125.975,87.595 -1.948,13.863 -13.864,-1.948 1.948,-13.864 13.864,1.949"
         class="s5"
         id="path1529" /><path
         d="m 14.168,96.179 -0.608,-0.116 -0.559,-0.368 -0.368,-0.559 -0.115,-0.607 0.115,-0.608 0.368,-0.559 0.559,-0.367 0.608,-0.116 0.607,0.116 0.559,0.367 0.368,0.559 0.116,0.608 -0.116,0.607 -0.368,0.559 -0.559,0.368 -0.607,0.116"
         class="s5"
         id="path1531" /><path
         d="m 111.559,105.9 13.458,3.859 -3.859,13.458 -13.458,-3.859 3.859,-13.458"
         class="s5"
         id="path1533" /><path
         d="M 56.153,74.247 70.017,76.196 68.069,90.06 54.205,88.111 56.153,74.247"
         class="s5"
         id="path1535" /><path
         d="m 69.678,96.572 8.425,11.181 -11.181,8.426 -8.425,-11.181 11.181,-8.426"
         class="s5"
         id="path1537" /><path
         d="m 40.661,110.843 0.034,0.213 -0.055,0.22 -0.131,0.18 -0.183,0.11 -0.218,0.029 -0.234,-0.061 -0.194,-0.137 -0.116,-0.185 -0.034,-0.211 0.053,-0.216 0.133,-0.184 0.183,-0.112 0.216,-0.031 0.231,0.059 0.198,0.14 0.117,0.186"
         class="s5"
         id="path1539" /><path
         d="m 61.451,121.504 -0.234,-0.061 -0.194,-0.138 -0.116,-0.185 -0.034,-0.21 0.053,-0.216 0.133,-0.184 0.183,-0.112 0.217,-0.032 0.23,0.059 0.198,0.14 0.117,0.186 0.034,0.213 -0.055,0.22 -0.131,0.18 -0.183,0.11 -0.218,0.03"
         class="s5"
         id="path1541" /><path
         d="m 37.567,111.365 0.807,0.375 -0.365,0.564 -0.722,-0.335 -0.841,1.811 -0.08,0.229 -0.003,0.179 0.075,0.138 0.153,0.104 0.102,0.038 0.111,0.024 0.123,0.01 0.135,-0.005 0.046,0.675 -0.252,0.024 -0.254,-0.018 -0.25,-0.057 -0.239,-0.091 -0.416,-0.286 -0.226,-0.367 -0.035,-0.447 0.16,-0.52 0.851,-1.831 -0.545,-0.253 0.28,-0.604 0.545,0.253 0.356,-0.768 0.886,0.292 -0.402,0.866"
         class="s5"
         id="path1543" /><path
         d="m 40.474,112.715 0.913,0.423 -0.557,3.14 2.06,-2.442 0.866,0.402 -2.741,2.948 -1.004,-0.466 0.463,-4.005"
         class="s5"
         id="path1545" /><path
         d="m 39.116,112.084 0.84,0.39 -1.612,3.472 -0.84,-0.39 1.612,-3.472"
         class="s5"
         id="path1547" /><path
         d="m 60.459,121.992 0.84,0.39 -1.612,3.472 -0.84,-0.39 1.612,-3.472"
         class="s5"
         id="path1549" /><path
         d="m 45.639,114.993 0.593,0.421 0.32,0.568 0.042,0.689 -0.239,0.784 -0.043,0.087 -0.047,0.088 -0.047,0.084 -0.041,0.073 -2.179,-1.011 -0.113,0.489 0.048,0.374 0.185,0.276 0.297,0.195 0.232,0.085 0.239,0.042 0.256,0.002 0.283,-0.035 0.125,0.641 -0.359,0.063 -0.371,0.006 -0.382,-0.061 -0.39,-0.14 -0.653,-0.459 -0.348,-0.607 -0.051,-0.718 0.239,-0.795 0.444,-0.688 0.573,-0.45 0.665,-0.166 0.722,0.163"
         class="s5"
         id="path1551" /><path
         d="m 26.57,110.48 -0.84,-0.39 1.612,-3.472 0.728,0.338 -0.238,0.719 0.307,-0.26 0.321,-0.146 0.324,-0.032 0.313,0.084 0.09,0.045 0.084,0.049 0.079,0.054 0.074,0.06 -0.522,0.746 -0.068,-0.052 -0.068,-0.046 -0.072,-0.043 -0.083,-0.041 -0.305,-0.072 -0.292,0.071 -0.289,0.205 -0.296,0.332 -0.859,1.851"
         class="s5"
         id="path1553" /><path
         d="m 55.401,119.612 0.213,0.352 0.038,0.421 -0.14,0.476 -1.167,2.513 -0.84,-0.39 1.106,-2.382 0.095,-0.284 -0.005,-0.211 -0.093,-0.153 -0.165,-0.108 -0.229,-0.062 -0.238,0.018 -0.247,0.086 -0.258,0.145 -1.121,2.415 -0.84,-0.39 1.611,-3.472 0.729,0.338 -0.145,0.484 0.325,-0.133 0.328,-0.058 0.33,0.022 0.33,0.108 0.383,0.265"
         class="s5"
         id="path1555" /><path
         d="m 50.883,117.427 0.593,0.421 0.32,0.568 0.042,0.69 -0.239,0.784 -0.043,0.086 -0.047,0.088 -0.047,0.084 -0.041,0.074 -2.179,-1.012 -0.113,0.489 0.048,0.375 0.185,0.276 0.297,0.195 0.232,0.085 0.239,0.042 0.256,0.001 0.283,-0.035 0.125,0.641 -0.359,0.063 -0.371,0.007 -0.382,-0.061 -0.39,-0.14 -0.653,-0.46 -0.348,-0.606 -0.051,-0.718 0.239,-0.795 0.444,-0.689 0.573,-0.45 0.665,-0.166 0.722,0.163"
         class="s5"
         id="path1557" /><path
         d="m 62.31,122.852 0.728,0.338 -0.144,0.483 0.325,-0.132 0.328,-0.058 0.329,0.021 0.33,0.108 0.384,0.266 0.212,0.351 0.039,0.422 -0.141,0.475 -1.167,2.514 -0.84,-0.39 1.106,-2.383 0.096,-0.283 -0.006,-0.211 -0.092,-0.153 -0.165,-0.108 -0.23,-0.062 -0.238,0.017 -0.246,0.087 -0.259,0.144 -1.121,2.416 -0.84,-0.39 1.612,-3.472"
         class="s5"
         id="path1559" /><path
         d="m 67.488,125.136 0.593,0.421 0.32,0.568 0.042,0.689 -0.239,0.784 -0.043,0.087 -0.048,0.088 -0.046,0.084 -0.042,0.073 -2.179,-1.011 -0.113,0.489 0.049,0.374 0.185,0.276 0.297,0.195 0.232,0.085 0.239,0.042 0.256,0.002 0.282,-0.035 0.126,0.641 -0.359,0.063 -0.372,0.006 -0.381,-0.061 -0.391,-0.14 -0.652,-0.459 -0.349,-0.606 -0.051,-0.719 0.239,-0.795 0.444,-0.688 0.573,-0.45 0.666,-0.166 0.722,0.163"
         class="s5"
         id="path1561" /><path
         d="m 70.282,126.527 0.586,0.178 0.344,0.194 0.285,0.233 0.232,0.266 0.181,0.293 -0.557,0.34 -0.158,-0.221 -0.174,-0.188 -0.192,-0.155 -0.218,-0.123 -0.235,-0.079 -0.197,-0.006 -0.153,0.062 -0.101,0.127 -0.04,0.166 0.055,0.174 0.172,0.213 0.31,0.284 0.395,0.384 0.245,0.385 0.074,0.403 -0.114,0.439 -0.338,0.422 -0.478,0.198 -0.563,-0.006 -0.597,-0.191 -0.406,-0.233 -0.325,-0.274 -0.249,-0.305 -0.176,-0.323 0.64,-0.278 0.146,0.238 0.179,0.214 0.213,0.183 0.248,0.145 0.268,0.09 0.233,0.007 0.186,-0.074 0.125,-0.156 0.054,-0.199 -0.055,-0.193 -0.185,-0.229 -0.339,-0.309 -0.382,-0.39 -0.213,-0.381 -0.051,-0.377 0.103,-0.381 0.282,-0.357 0.42,-0.194 0.52,-0.016"
         class="s5"
         id="path1563" /><path
         d="M 22.35,41.727 36.214,43.675 34.266,57.539 20.402,55.59 22.35,41.727"
         class="s5"
         id="path1565" /><path
         d="M 19.706,60.542 33.57,62.49 31.621,76.354 17.758,74.405 19.706,60.542"
         class="s5"
         id="path1567" /></g></g><style
     id="style320"><![CDATA[
polygon {
shape-rendering:crispEdges;
stroke-width:0.308927;
}
.s0 {
stroke:#000000;
stroke-width:0.132933;
stroke-linecap:round;
stroke-linejoin:round;
fill:none;
}
.s1 {
stroke:#000000;
stroke-width:0.132933;
stroke-linecap:round;
stroke-linejoin:round;
fill:none;
}
.s2 {
stroke:#19b219;
stroke-width:0.132933;
stroke-linecap:round;
stroke-linejoin:round;
fill:none;
}
.s3 {
stroke:#7f4c00;
stroke-width:0.132933;
stroke-linecap:round;
stroke-linejoin:round;
fill:none;
}
.s4 {
stroke:#00cc00;
stroke-width:0.132933;
stroke-linecap:round;
stroke-linejoin:round;
fill:none;
}
.s5 {
stroke:#000000;
stroke-width:0.088622;
stroke-linecap:round;
stroke-linejoin:round;
fill:none;
}
.s6 {
stroke:#ff19ff;
stroke-width:0.088622;
stroke-linecap:round;
stroke-linejoin:round;
fill:none;
}
.s7 {
stroke:#ff0000;
stroke-width:0.132933;
stroke-linecap:round;
stroke-linejoin:round;
fill:none;
}
.s8 {
stroke:#ffff00;
stroke-width:0.132933;
stroke-linecap:round;
stroke-linejoin:round;
fill:none;
}
.s9 {
stroke:#001919;
stroke-width:0.088622;
stroke-linecap:round;
stroke-linejoin:round;
fill:none;
}
.sa {
stroke:#006666;
stroke-width:0.088622;
stroke-linecap:round;
stroke-linejoin:round;
fill:none;
}
.sb {
stroke:#00ffff;
stroke-width:0.265866;
stroke-linecap:round;
stroke-linejoin:round;
fill:none;
}
.sc {
stroke:#ff0000;
stroke-width:0.708976;
stroke-linecap:round;
stroke-linejoin:round;
fill:none;
}
.sd {
stroke:#191919;
stroke-width:0.088622;
stroke-linecap:round;
stroke-linejoin:round;
fill:none;
}
.se {
stroke:#000000;
stroke-width:0.088622;
stroke-linecap:round;
stroke-linejoin:round;
stroke-dasharray:1.329,1.329;
fill:none;
}
.sf {
stroke:#000000;
stroke-width:0.265866;
stroke-linecap:round;
stroke-linejoin:round;
fill:none;
}
.s100 {
stroke:#000000;
stroke-width:0.132933;
stroke-linecap:round;
stroke-linejoin:round;
fill:none;
}
]]></style><style
     id="style357"><![CDATA[
polygon {
shape-rendering:crispEdges;
stroke-width:0.293241;
}
.s0 {
stroke:#000000;
stroke-width:0.132933;
stroke-linecap:round;
stroke-linejoin:round;
fill:none;
}
.s1 {
stroke:#000000;
stroke-width:0.132933;
stroke-linecap:round;
stroke-linejoin:round;
fill:none;
}
.s2 {
stroke:#19b219;
stroke-width:0.132933;
stroke-linecap:round;
stroke-linejoin:round;
fill:none;
}
.s3 {
stroke:#7f4c00;
stroke-width:0.132933;
stroke-linecap:round;
stroke-linejoin:round;
fill:none;
}
.s4 {
stroke:#00cc00;
stroke-width:0.132933;
stroke-linecap:round;
stroke-linejoin:round;
fill:none;
}
.s5 {
stroke:#000000;
stroke-width:0.088622;
stroke-linecap:round;
stroke-linejoin:round;
fill:none;
}
.s6 {
stroke:#ff19ff;
stroke-width:0.088622;
stroke-linecap:round;
stroke-linejoin:round;
fill:none;
}
.s7 {
stroke:#ff0000;
stroke-width:0.132933;
stroke-linecap:round;
stroke-linejoin:round;
fill:none;
}
.s8 {
stroke:#ffff00;
stroke-width:0.132933;
stroke-linecap:round;
stroke-linejoin:round;
fill:none;
}
.s9 {
stroke:#001919;
stroke-width:0.088622;
stroke-linecap:round;
stroke-linejoin:round;
fill:none;
}
.sa {
stroke:#006666;
stroke-width:0.088622;
stroke-linecap:round;
stroke-linejoin:round;
fill:none;
}
.sb {
stroke:#00ffff;
stroke-width:0.265866;
stroke-linecap:round;
stroke-linejoin:round;
fill:none;
}
.sc {
stroke:#ff0000;
stroke-width:0.708976;
stroke-linecap:round;
stroke-linejoin:round;
fill:none;
}
.sd {
stroke:#191919;
stroke-width:0.088622;
stroke-linecap:round;
stroke-linejoin:round;
fill:none;
}
.se {
stroke:#000000;
stroke-width:0.088622;
stroke-linecap:round;
stroke-linejoin:round;
stroke-dasharray:1.329,1.329;
fill:none;
}
.sf {
stroke:#000000;
stroke-width:0.265866;
stroke-linecap:round;
stroke-linejoin:round;
fill:none;
}
.s100 {
stroke:#000000;
stroke-width:0.132933;
stroke-linecap:round;
stroke-linejoin:round;
fill:none;
}
]]></style><style
     id="style1322"><![CDATA[
polygon {
shape-rendering:crispEdges;
stroke-width:0.308927;
}
.s0 {
stroke:#000000;
stroke-width:0.132933;
stroke-linecap:round;
stroke-linejoin:round;
fill:none;
}
.s1 {
stroke:#000000;
stroke-width:0.132933;
stroke-linecap:round;
stroke-linejoin:round;
fill:none;
}
.s2 {
stroke:#19b219;
stroke-width:0.132933;
stroke-linecap:round;
stroke-linejoin:round;
fill:none;
}
.s3 {
stroke:#7f4c00;
stroke-width:0.132933;
stroke-linecap:round;
stroke-linejoin:round;
fill:none;
}
.s4 {
stroke:#00cc00;
stroke-width:0.132933;
stroke-linecap:round;
stroke-linejoin:round;
fill:none;
}
.s5 {
stroke:#000000;
stroke-width:0.088622;
stroke-linecap:round;
stroke-linejoin:round;
fill:none;
}
.s6 {
stroke:#ff19ff;
stroke-width:0.088622;
stroke-linecap:round;
stroke-linejoin:round;
fill:none;
}
.s7 {
stroke:#ff0000;
stroke-width:0.132933;
stroke-linecap:round;
stroke-linejoin:round;
fill:none;
}
.s8 {
stroke:#ffff00;
stroke-width:0.132933;
stroke-linecap:round;
stroke-linejoin:round;
fill:none;
}
.s9 {
stroke:#001919;
stroke-width:0.088622;
stroke-linecap:round;
stroke-linejoin:round;
fill:none;
}
.sa {
stroke:#006666;
stroke-width:0.088622;
stroke-linecap:round;
stroke-linejoin:round;
fill:none;
}
.sb {
stroke:#00ffff;
stroke-width:0.265866;
stroke-linecap:round;
stroke-linejoin:round;
fill:none;
}
.sc {
stroke:#ff0000;
stroke-width:0.708976;
stroke-linecap:round;
stroke-linejoin:round;
fill:none;
}
.sd {
stroke:#191919;
stroke-width:0.088622;
stroke-linecap:round;
stroke-linejoin:round;
fill:none;
}
.se {
stroke:#000000;
stroke-width:0.088622;
stroke-linecap:round;
stroke-linejoin:round;
stroke-dasharray:1.329,1.329;
fill:none;
}
.sf {
stroke:#000000;
stroke-width:0.265866;
stroke-linecap:round;
stroke-linejoin:round;
fill:none;
}
.s100 {
stroke:#000000;
stroke-width:0.132933;
stroke-linecap:round;
stroke-linejoin:round;
fill:none;
}
]]></style><style
     id="style1359"><![CDATA[
polygon {
shape-rendering:crispEdges;
stroke-width:0.308927;
}
.s0 {
stroke:#000000;
stroke-width:0.132933;
stroke-linecap:round;
stroke-linejoin:round;
fill:none;
}
.s1 {
stroke:#000000;
stroke-width:0.132933;
stroke-linecap:round;
stroke-linejoin:round;
fill:none;
}
.s2 {
stroke:#19b219;
stroke-width:0.132933;
stroke-linecap:round;
stroke-linejoin:round;
fill:none;
}
.s3 {
stroke:#7f4c00;
stroke-width:0.132933;
stroke-linecap:round;
stroke-linejoin:round;
fill:none;
}
.s4 {
stroke:#00cc00;
stroke-width:0.132933;
stroke-linecap:round;
stroke-linejoin:round;
fill:none;
}
.s5 {
stroke:#000000;
stroke-width:0.088622;
stroke-linecap:round;
stroke-linejoin:round;
fill:none;
}
.s6 {
stroke:#ff19ff;
stroke-width:0.088622;
stroke-linecap:round;
stroke-linejoin:round;
fill:none;
}
.s7 {
stroke:#ff0000;
stroke-width:0.132933;
stroke-linecap:round;
stroke-linejoin:round;
fill:none;
}
.s8 {
stroke:#ffff00;
stroke-width:0.132933;
stroke-linecap:round;
stroke-linejoin:round;
fill:none;
}
.s9 {
stroke:#001919;
stroke-width:0.088622;
stroke-linecap:round;
stroke-linejoin:round;
fill:none;
}
.sa {
stroke:#006666;
stroke-width:0.088622;
stroke-linecap:round;
stroke-linejoin:round;
fill:none;
}
.sb {
stroke:#00ffff;
stroke-width:0.265866;
stroke-linecap:round;
stroke-linejoin:round;
fill:none;
}
.sc {
stroke:#ff0000;
stroke-width:0.708976;
stroke-linecap:round;
stroke-linejoin:round;
fill:none;
}
.sd {
stroke:#191919;
stroke-width:0.088622;
stroke-linecap:round;
stroke-linejoin:round;
fill:none;
}
.se {
stroke:#000000;
stroke-width:0.088622;
stroke-linecap:round;
stroke-linejoin:round;
stroke-dasharray:1.329,1.329;
fill:none;
}
.sf {
stroke:#000000;
stroke-width:0.265866;
stroke-linecap:round;
stroke-linejoin:round;
fill:none;
}
.s100 {
stroke:#000000;
stroke-width:0.132933;
stroke-linecap:round;
stroke-linejoin:round;
fill:none;
}
]]></style></svg>
