%TF.GenerationSoftware,KiCad,Pcbnew,8.0.1*%
%TF.CreationDate,2024-04-17T22:25:28+02:00*%
%TF.ProjectId,shockboard,73686f63-6b62-46f6-9172-642e6b696361,v1.0.0*%
%TF.SameCoordinates,Original*%
%TF.FileFunction,Legend,Top*%
%TF.FilePolarity,Positive*%
%FSLAX46Y46*%
G04 Gerber Fmt 4.6, Leading zero omitted, Abs format (unit mm)*
G04 Created by KiCad (PCBNEW 8.0.1) date 2024-04-17 22:25:28*
%MOMM*%
%LPD*%
G01*
G04 APERTURE LIST*
G04 Aperture macros list*
%AMRotRect*
0 Rectangle, with rotation*
0 The origin of the aperture is its center*
0 $1 length*
0 $2 width*
0 $3 Rotation angle, in degrees counterclockwise*
0 Add horizontal line*
21,1,$1,$2,0,0,$3*%
G04 Aperture macros list end*
%ADD10C,0.200000*%
%ADD11C,0.300000*%
%ADD12C,0.150000*%
%ADD13C,0.100000*%
%ADD14R,1.752600X1.752600*%
%ADD15C,1.752600*%
%ADD16RotRect,0.900000X0.900000X352.500000*%
%ADD17C,1.000000*%
%ADD18RotRect,0.900000X1.250000X352.500000*%
%ADD19C,1.701800*%
%ADD20C,3.000000*%
%ADD21C,3.987800*%
%ADD22C,3.429000*%
%ADD23RotRect,1.778000X1.778000X352.000000*%
%ADD24RotRect,0.900000X1.200000X352.000000*%
%ADD25C,1.905000*%
%ADD26RotRect,1.778000X1.778000X8.000000*%
%ADD27RotRect,0.900000X1.200000X8.000000*%
%ADD28RotRect,1.778000X1.778000X323.000000*%
%ADD29RotRect,0.900000X1.200000X323.000000*%
%ADD30R,1.700000X1.700000*%
%ADD31O,1.700000X1.700000*%
%ADD32C,0.700000*%
%ADD33C,4.400000*%
%ADD34C,2.000000*%
%ADD35R,1.200000X1.700000*%
%ADD36O,1.200000X1.700000*%
%ADD37RotRect,1.778000X1.778000X28.000000*%
%ADD38RotRect,0.900000X1.200000X28.000000*%
%ADD39RotRect,1.778000X1.778000X37.000000*%
%ADD40RotRect,0.900000X1.200000X37.000000*%
%ADD41RotRect,1.778000X1.778000X332.000000*%
%ADD42RotRect,0.900000X1.200000X332.000000*%
G04 APERTURE END LIST*
D10*
X150917292Y-190106028D02*
X150917292Y-191177457D01*
X150917292Y-191177457D02*
X150845863Y-191391742D01*
X150845863Y-191391742D02*
X150703006Y-191534600D01*
X150703006Y-191534600D02*
X150488720Y-191606028D01*
X150488720Y-191606028D02*
X150345863Y-191606028D01*
X152345863Y-191606028D02*
X151631577Y-191606028D01*
X151631577Y-191606028D02*
X151631577Y-190106028D01*
X153703006Y-191463171D02*
X153631578Y-191534600D01*
X153631578Y-191534600D02*
X153417292Y-191606028D01*
X153417292Y-191606028D02*
X153274435Y-191606028D01*
X153274435Y-191606028D02*
X153060149Y-191534600D01*
X153060149Y-191534600D02*
X152917292Y-191391742D01*
X152917292Y-191391742D02*
X152845863Y-191248885D01*
X152845863Y-191248885D02*
X152774435Y-190963171D01*
X152774435Y-190963171D02*
X152774435Y-190748885D01*
X152774435Y-190748885D02*
X152845863Y-190463171D01*
X152845863Y-190463171D02*
X152917292Y-190320314D01*
X152917292Y-190320314D02*
X153060149Y-190177457D01*
X153060149Y-190177457D02*
X153274435Y-190106028D01*
X153274435Y-190106028D02*
X153417292Y-190106028D01*
X153417292Y-190106028D02*
X153631578Y-190177457D01*
X153631578Y-190177457D02*
X153703006Y-190248885D01*
X154774435Y-190106028D02*
X154774435Y-191177457D01*
X154774435Y-191177457D02*
X154703006Y-191391742D01*
X154703006Y-191391742D02*
X154560149Y-191534600D01*
X154560149Y-191534600D02*
X154345863Y-191606028D01*
X154345863Y-191606028D02*
X154203006Y-191606028D01*
X156203006Y-191606028D02*
X155488720Y-191606028D01*
X155488720Y-191606028D02*
X155488720Y-190106028D01*
X157560149Y-191463171D02*
X157488721Y-191534600D01*
X157488721Y-191534600D02*
X157274435Y-191606028D01*
X157274435Y-191606028D02*
X157131578Y-191606028D01*
X157131578Y-191606028D02*
X156917292Y-191534600D01*
X156917292Y-191534600D02*
X156774435Y-191391742D01*
X156774435Y-191391742D02*
X156703006Y-191248885D01*
X156703006Y-191248885D02*
X156631578Y-190963171D01*
X156631578Y-190963171D02*
X156631578Y-190748885D01*
X156631578Y-190748885D02*
X156703006Y-190463171D01*
X156703006Y-190463171D02*
X156774435Y-190320314D01*
X156774435Y-190320314D02*
X156917292Y-190177457D01*
X156917292Y-190177457D02*
X157131578Y-190106028D01*
X157131578Y-190106028D02*
X157274435Y-190106028D01*
X157274435Y-190106028D02*
X157488721Y-190177457D01*
X157488721Y-190177457D02*
X157560149Y-190248885D01*
X158631578Y-190106028D02*
X158631578Y-191177457D01*
X158631578Y-191177457D02*
X158560149Y-191391742D01*
X158560149Y-191391742D02*
X158417292Y-191534600D01*
X158417292Y-191534600D02*
X158203006Y-191606028D01*
X158203006Y-191606028D02*
X158060149Y-191606028D01*
X160060149Y-191606028D02*
X159345863Y-191606028D01*
X159345863Y-191606028D02*
X159345863Y-190106028D01*
X161417292Y-191463171D02*
X161345864Y-191534600D01*
X161345864Y-191534600D02*
X161131578Y-191606028D01*
X161131578Y-191606028D02*
X160988721Y-191606028D01*
X160988721Y-191606028D02*
X160774435Y-191534600D01*
X160774435Y-191534600D02*
X160631578Y-191391742D01*
X160631578Y-191391742D02*
X160560149Y-191248885D01*
X160560149Y-191248885D02*
X160488721Y-190963171D01*
X160488721Y-190963171D02*
X160488721Y-190748885D01*
X160488721Y-190748885D02*
X160560149Y-190463171D01*
X160560149Y-190463171D02*
X160631578Y-190320314D01*
X160631578Y-190320314D02*
X160774435Y-190177457D01*
X160774435Y-190177457D02*
X160988721Y-190106028D01*
X160988721Y-190106028D02*
X161131578Y-190106028D01*
X161131578Y-190106028D02*
X161345864Y-190177457D01*
X161345864Y-190177457D02*
X161417292Y-190248885D01*
X162488721Y-190106028D02*
X162488721Y-191177457D01*
X162488721Y-191177457D02*
X162417292Y-191391742D01*
X162417292Y-191391742D02*
X162274435Y-191534600D01*
X162274435Y-191534600D02*
X162060149Y-191606028D01*
X162060149Y-191606028D02*
X161917292Y-191606028D01*
X163917292Y-191606028D02*
X163203006Y-191606028D01*
X163203006Y-191606028D02*
X163203006Y-190106028D01*
X165274435Y-191463171D02*
X165203007Y-191534600D01*
X165203007Y-191534600D02*
X164988721Y-191606028D01*
X164988721Y-191606028D02*
X164845864Y-191606028D01*
X164845864Y-191606028D02*
X164631578Y-191534600D01*
X164631578Y-191534600D02*
X164488721Y-191391742D01*
X164488721Y-191391742D02*
X164417292Y-191248885D01*
X164417292Y-191248885D02*
X164345864Y-190963171D01*
X164345864Y-190963171D02*
X164345864Y-190748885D01*
X164345864Y-190748885D02*
X164417292Y-190463171D01*
X164417292Y-190463171D02*
X164488721Y-190320314D01*
X164488721Y-190320314D02*
X164631578Y-190177457D01*
X164631578Y-190177457D02*
X164845864Y-190106028D01*
X164845864Y-190106028D02*
X164988721Y-190106028D01*
X164988721Y-190106028D02*
X165203007Y-190177457D01*
X165203007Y-190177457D02*
X165274435Y-190248885D01*
D11*
G36*
X245678437Y-186422470D02*
G01*
X245835161Y-186411135D01*
X245984927Y-186369261D01*
X246038207Y-186341870D01*
X246146038Y-186231952D01*
X246171563Y-186119853D01*
X246139669Y-185975384D01*
X246132729Y-185963049D01*
X246018349Y-185864073D01*
X245977390Y-185842882D01*
X245831394Y-185785546D01*
X245682227Y-185741341D01*
X245624948Y-185726378D01*
X245477294Y-185684071D01*
X245331029Y-185632190D01*
X245231473Y-185589357D01*
X245098096Y-185510498D01*
X244987875Y-185406084D01*
X244969889Y-185382728D01*
X244903621Y-185247789D01*
X244878376Y-185092794D01*
X244877565Y-185055931D01*
X244896865Y-184900759D01*
X244954767Y-184763323D01*
X245051271Y-184643623D01*
X245121563Y-184584787D01*
X245254874Y-184506247D01*
X245410075Y-184450148D01*
X245563833Y-184419468D01*
X245734351Y-184405969D01*
X245786148Y-184405268D01*
X245941507Y-184411412D01*
X246100532Y-184432650D01*
X246245246Y-184469057D01*
X246285869Y-184482937D01*
X246425101Y-184540247D01*
X246560204Y-184612839D01*
X246650035Y-184674180D01*
X246447069Y-184982658D01*
X246316573Y-184906097D01*
X246175130Y-184844027D01*
X246155443Y-184836845D01*
X246009384Y-184797776D01*
X245860195Y-184781088D01*
X245799337Y-184779692D01*
X245644571Y-184789378D01*
X245502698Y-184828727D01*
X245468144Y-184848569D01*
X245376375Y-184969994D01*
X245368493Y-185030286D01*
X245419051Y-185171702D01*
X245543218Y-185255136D01*
X245594173Y-185277215D01*
X245734179Y-185326138D01*
X245878641Y-185369449D01*
X245947348Y-185388590D01*
X246093232Y-185432408D01*
X246236972Y-185485938D01*
X246334229Y-185530006D01*
X246464460Y-185611271D01*
X246572867Y-185720751D01*
X246590684Y-185745429D01*
X246653295Y-185878044D01*
X246680039Y-186028563D01*
X246682275Y-186093475D01*
X246665478Y-186251164D01*
X246608841Y-186399096D01*
X246540126Y-186493545D01*
X246421355Y-186598611D01*
X246291120Y-186674827D01*
X246169365Y-186722889D01*
X246023506Y-186761915D01*
X245870778Y-186786487D01*
X245711181Y-186796605D01*
X245678437Y-186796894D01*
X245525526Y-186791170D01*
X245366310Y-186771045D01*
X245220656Y-186736430D01*
X245131089Y-186705303D01*
X244994375Y-186643551D01*
X244860354Y-186565210D01*
X244743475Y-186475959D01*
X244999930Y-186181402D01*
X245124051Y-186267435D01*
X245263037Y-186338321D01*
X245305478Y-186355792D01*
X245450453Y-186398963D01*
X245604377Y-186420126D01*
X245678437Y-186422470D01*
G37*
G36*
X247916190Y-183500348D02*
G01*
X247916190Y-184749651D01*
X248016350Y-184641816D01*
X248138057Y-184547088D01*
X248237858Y-184491730D01*
X248377855Y-184439042D01*
X248521973Y-184410672D01*
X248620342Y-184405268D01*
X248770551Y-184416488D01*
X248915014Y-184455933D01*
X249045073Y-184533070D01*
X249098081Y-184584787D01*
X249181157Y-184710724D01*
X249233464Y-184864139D01*
X249254233Y-185025706D01*
X249255618Y-185084508D01*
X249255618Y-186750000D01*
X248773482Y-186750000D01*
X248773482Y-185163642D01*
X248760664Y-185016053D01*
X248700592Y-184874785D01*
X248695813Y-184869085D01*
X248561804Y-184792263D01*
X248445953Y-184779692D01*
X248299454Y-184804325D01*
X248163580Y-184878224D01*
X248146267Y-184891800D01*
X248034428Y-184994723D01*
X247939981Y-185108585D01*
X247916190Y-185143126D01*
X247916190Y-186750000D01*
X247433322Y-186750000D01*
X247433322Y-183551639D01*
X247916190Y-183500348D01*
G37*
G36*
X251077338Y-184413211D02*
G01*
X251242477Y-184443711D01*
X251390923Y-184497085D01*
X251522677Y-184573335D01*
X251637738Y-184672459D01*
X251689009Y-184730600D01*
X251778405Y-184860001D01*
X251849305Y-185004755D01*
X251901709Y-185164862D01*
X251931251Y-185310012D01*
X251947949Y-185465824D01*
X251952059Y-185598150D01*
X251946344Y-185751808D01*
X251925816Y-185916683D01*
X251890359Y-186070110D01*
X251839972Y-186212087D01*
X251832624Y-186229030D01*
X251756690Y-186370845D01*
X251663252Y-186493765D01*
X251552310Y-186597790D01*
X251483113Y-186647418D01*
X251346224Y-186719674D01*
X251193570Y-186768283D01*
X251044643Y-186791639D01*
X250924773Y-186796894D01*
X250774968Y-186789041D01*
X250610173Y-186758885D01*
X250461710Y-186706111D01*
X250329578Y-186630720D01*
X250213778Y-186532712D01*
X250162003Y-186475226D01*
X250072109Y-186346512D01*
X250000814Y-186201621D01*
X249948118Y-186040552D01*
X249918412Y-185893971D01*
X249901621Y-185736155D01*
X249897488Y-185601814D01*
X249897516Y-185601081D01*
X250403071Y-185601081D01*
X250407656Y-185752018D01*
X250424596Y-185908185D01*
X250459240Y-186060386D01*
X250517703Y-186198112D01*
X250533496Y-186223900D01*
X250638576Y-186336953D01*
X250774478Y-186403078D01*
X250924773Y-186422470D01*
X251074682Y-186402935D01*
X251210325Y-186336322D01*
X251315318Y-186222435D01*
X251384097Y-186075374D01*
X251420779Y-185925989D01*
X251439502Y-185772136D01*
X251445616Y-185623072D01*
X251445743Y-185596685D01*
X251441184Y-185447268D01*
X251424339Y-185292549D01*
X251389889Y-185141572D01*
X251331755Y-185004677D01*
X251316050Y-184978995D01*
X251211892Y-184865525D01*
X251076737Y-184799156D01*
X250926972Y-184779692D01*
X250776533Y-184799156D01*
X250640143Y-184865525D01*
X250534229Y-184978995D01*
X250465064Y-185125068D01*
X250428175Y-185273560D01*
X250409347Y-185426557D01*
X250403199Y-185574831D01*
X250403071Y-185601081D01*
X249897516Y-185601081D01*
X249903203Y-185451547D01*
X249923731Y-185289431D01*
X249959188Y-185137573D01*
X250009575Y-184995973D01*
X250016923Y-184978995D01*
X250092857Y-184836297D01*
X250186295Y-184712379D01*
X250297236Y-184607239D01*
X250366434Y-184556943D01*
X250504089Y-184483624D01*
X250657393Y-184434300D01*
X250806801Y-184410600D01*
X250926972Y-184405268D01*
X251077338Y-184413211D01*
G37*
G36*
X253693755Y-186422470D02*
G01*
X253847994Y-186408182D01*
X253991242Y-186365317D01*
X254125881Y-186300471D01*
X254254292Y-186220237D01*
X254477774Y-186530181D01*
X254346873Y-186619724D01*
X254207151Y-186689070D01*
X254117272Y-186723621D01*
X253969625Y-186765338D01*
X253818862Y-186789739D01*
X253679100Y-186796894D01*
X253531278Y-186789847D01*
X253374016Y-186764533D01*
X253229210Y-186720810D01*
X253081194Y-186649616D01*
X252950803Y-186557382D01*
X252839075Y-186446369D01*
X252746011Y-186316578D01*
X252702373Y-186236357D01*
X252645312Y-186097642D01*
X252604554Y-185947479D01*
X252580099Y-185785866D01*
X252572075Y-185635064D01*
X252571947Y-185612805D01*
X252578293Y-185464752D01*
X252601088Y-185304307D01*
X252640461Y-185153205D01*
X252696412Y-185011445D01*
X252704571Y-184994382D01*
X252778164Y-184865239D01*
X252878364Y-184737031D01*
X252996996Y-184626907D01*
X253086323Y-184563538D01*
X253217618Y-184494295D01*
X253361645Y-184444836D01*
X253518403Y-184415160D01*
X253666010Y-184405423D01*
X253687893Y-184405268D01*
X253854671Y-184414568D01*
X254012640Y-184442466D01*
X254161799Y-184488962D01*
X254302148Y-184554058D01*
X254433687Y-184637752D01*
X254475576Y-184669783D01*
X254254292Y-184974598D01*
X254127295Y-184895279D01*
X253988993Y-184832676D01*
X253980251Y-184829518D01*
X253830313Y-184790640D01*
X253695953Y-184779692D01*
X253536384Y-184799442D01*
X253396564Y-184858690D01*
X253276494Y-184957436D01*
X253254850Y-184981926D01*
X253172676Y-185113997D01*
X253122209Y-185262146D01*
X253095482Y-185415518D01*
X253085521Y-185564616D01*
X253084857Y-185617934D01*
X253090911Y-185772339D01*
X253113275Y-185930209D01*
X253159014Y-186081266D01*
X253236197Y-186213762D01*
X253257048Y-186237822D01*
X253373684Y-186335195D01*
X253508351Y-186396504D01*
X253661051Y-186421749D01*
X253693755Y-186422470D01*
G37*
G36*
X255677251Y-183480565D02*
G01*
X255677251Y-186750000D01*
X255195115Y-186750000D01*
X255195115Y-183534787D01*
X255677251Y-183480565D01*
G37*
G36*
X257183008Y-184452163D02*
G01*
X256263434Y-185486775D01*
X257279728Y-186750000D01*
X256689882Y-186750000D01*
X255711689Y-185499965D01*
X256621005Y-184452163D01*
X257183008Y-184452163D01*
G37*
G36*
X258244732Y-184738660D02*
G01*
X258345930Y-184622977D01*
X258461399Y-184529546D01*
X258519505Y-184493928D01*
X258665023Y-184433321D01*
X258810444Y-184407433D01*
X258869016Y-184405268D01*
X259028606Y-184416918D01*
X259184854Y-184457190D01*
X259318921Y-184526226D01*
X259354815Y-184552547D01*
X259461476Y-184656402D01*
X259548817Y-184783871D01*
X259610905Y-184918783D01*
X259628123Y-184968004D01*
X259670273Y-185126273D01*
X259696159Y-185279413D01*
X259711145Y-185444277D01*
X259715318Y-185598150D01*
X259710374Y-185746168D01*
X259692617Y-185906487D01*
X259661945Y-186057371D01*
X259618359Y-186198822D01*
X259612003Y-186215840D01*
X259546122Y-186359182D01*
X259464707Y-186484208D01*
X259356029Y-186601645D01*
X259307188Y-186642288D01*
X259172163Y-186723819D01*
X259018962Y-186775153D01*
X258865542Y-186795535D01*
X258811131Y-186796894D01*
X258652003Y-186783395D01*
X258508654Y-186742898D01*
X258364146Y-186663558D01*
X258254607Y-186565208D01*
X258212491Y-186514794D01*
X258186113Y-186750000D01*
X257761863Y-186750000D01*
X257761863Y-186162351D01*
X258244732Y-186162351D01*
X258338325Y-186276904D01*
X258436706Y-186353593D01*
X258572822Y-186409286D01*
X258690230Y-186422470D01*
X258845913Y-186398919D01*
X258975448Y-186328268D01*
X259070517Y-186223168D01*
X259141614Y-186076493D01*
X259179533Y-185927314D01*
X259198887Y-185773566D01*
X259205207Y-185624536D01*
X259205339Y-185598150D01*
X259201062Y-185443513D01*
X259185264Y-185284786D01*
X259152956Y-185131978D01*
X259091189Y-184983858D01*
X259083706Y-184971667D01*
X258978055Y-184854683D01*
X258843554Y-184791691D01*
X258737858Y-184779692D01*
X258585450Y-184804422D01*
X258452094Y-184878611D01*
X258338338Y-184985589D01*
X258244732Y-185110153D01*
X258244732Y-186162351D01*
X257761863Y-186162351D01*
X257761863Y-183547976D01*
X258244732Y-183493754D01*
X258244732Y-184738660D01*
G37*
G36*
X261405880Y-184413211D02*
G01*
X261571019Y-184443711D01*
X261719465Y-184497085D01*
X261851219Y-184573335D01*
X261966280Y-184672459D01*
X262017551Y-184730600D01*
X262106947Y-184860001D01*
X262177847Y-185004755D01*
X262230251Y-185164862D01*
X262259793Y-185310012D01*
X262276490Y-185465824D01*
X262280600Y-185598150D01*
X262274885Y-185751808D01*
X262254357Y-185916683D01*
X262218900Y-186070110D01*
X262168514Y-186212087D01*
X262161166Y-186229030D01*
X262085232Y-186370845D01*
X261991794Y-186493765D01*
X261880852Y-186597790D01*
X261811654Y-186647418D01*
X261674766Y-186719674D01*
X261522112Y-186768283D01*
X261373185Y-186791639D01*
X261253315Y-186796894D01*
X261103510Y-186789041D01*
X260938715Y-186758885D01*
X260790251Y-186706111D01*
X260658120Y-186630720D01*
X260542320Y-186532712D01*
X260490545Y-186475226D01*
X260400651Y-186346512D01*
X260329356Y-186201621D01*
X260276659Y-186040552D01*
X260246953Y-185893971D01*
X260230163Y-185736155D01*
X260226030Y-185601814D01*
X260226058Y-185601081D01*
X260731612Y-185601081D01*
X260736197Y-185752018D01*
X260753138Y-185908185D01*
X260787782Y-186060386D01*
X260846244Y-186198112D01*
X260862038Y-186223900D01*
X260967117Y-186336953D01*
X261103020Y-186403078D01*
X261253315Y-186422470D01*
X261403224Y-186402935D01*
X261538867Y-186336322D01*
X261643859Y-186222435D01*
X261712638Y-186075374D01*
X261749321Y-185925989D01*
X261768044Y-185772136D01*
X261774158Y-185623072D01*
X261774285Y-185596685D01*
X261769725Y-185447268D01*
X261752881Y-185292549D01*
X261718431Y-185141572D01*
X261660297Y-185004677D01*
X261644592Y-184978995D01*
X261540434Y-184865525D01*
X261405279Y-184799156D01*
X261255513Y-184779692D01*
X261105075Y-184799156D01*
X260968684Y-184865525D01*
X260862771Y-184978995D01*
X260793605Y-185125068D01*
X260756717Y-185273560D01*
X260737888Y-185426557D01*
X260731740Y-185574831D01*
X260731612Y-185601081D01*
X260226058Y-185601081D01*
X260231745Y-185451547D01*
X260252273Y-185289431D01*
X260287730Y-185137573D01*
X260338116Y-184995973D01*
X260345464Y-184978995D01*
X260421398Y-184836297D01*
X260514836Y-184712379D01*
X260625778Y-184607239D01*
X260694976Y-184556943D01*
X260832631Y-184483624D01*
X260985935Y-184434300D01*
X261135343Y-184410600D01*
X261255513Y-184405268D01*
X261405880Y-184413211D01*
G37*
G36*
X263920825Y-184412326D02*
G01*
X264067588Y-184433501D01*
X264218235Y-184476047D01*
X264363270Y-184548197D01*
X264439219Y-184606036D01*
X264537633Y-184716037D01*
X264607929Y-184845272D01*
X264650107Y-184993741D01*
X264664166Y-185161444D01*
X264664166Y-186168213D01*
X264683561Y-186318268D01*
X264705199Y-186363119D01*
X264825928Y-186448642D01*
X264837090Y-186452512D01*
X264729379Y-186795429D01*
X264581689Y-186763959D01*
X264446866Y-186703417D01*
X264439219Y-186698709D01*
X264327354Y-186594630D01*
X264257502Y-186465701D01*
X264154153Y-186579045D01*
X264032051Y-186668483D01*
X263940230Y-186714829D01*
X263793089Y-186764837D01*
X263638530Y-186791765D01*
X263531368Y-186796894D01*
X263367191Y-186784713D01*
X263221241Y-186748168D01*
X263078833Y-186677933D01*
X262984020Y-186601988D01*
X262887323Y-186482732D01*
X262822273Y-186344234D01*
X262788869Y-186186493D01*
X262783985Y-186090544D01*
X262787663Y-186049511D01*
X263290300Y-186049511D01*
X263314526Y-186212681D01*
X263399695Y-186340521D01*
X263546186Y-186409358D01*
X263677914Y-186422470D01*
X263831757Y-186400963D01*
X263964411Y-186346266D01*
X264083862Y-186260614D01*
X264179807Y-186147914D01*
X264190824Y-186130844D01*
X264190824Y-185624528D01*
X263923378Y-185624528D01*
X263765475Y-185631627D01*
X263616737Y-185656582D01*
X263476505Y-185711483D01*
X263436846Y-185738101D01*
X263336668Y-185853246D01*
X263292590Y-186001208D01*
X263290300Y-186049511D01*
X262787663Y-186049511D01*
X262797379Y-185941104D01*
X262845487Y-185789807D01*
X262928583Y-185659301D01*
X263046667Y-185549586D01*
X263063887Y-185537334D01*
X263197915Y-185461675D01*
X263355084Y-185404598D01*
X263508218Y-185370466D01*
X263678354Y-185349987D01*
X263833122Y-185343350D01*
X263865492Y-185343161D01*
X264190824Y-185343161D01*
X264190824Y-185194417D01*
X264171967Y-185045181D01*
X264102304Y-184916132D01*
X264056734Y-184875680D01*
X263919851Y-184810063D01*
X263770375Y-184783067D01*
X263684508Y-184779692D01*
X263534590Y-184790542D01*
X263412666Y-184810467D01*
X263260220Y-184846563D01*
X263111837Y-184893326D01*
X263079274Y-184904989D01*
X262960572Y-184559874D01*
X263106125Y-184510404D01*
X263249599Y-184470804D01*
X263378228Y-184443370D01*
X263527773Y-184420152D01*
X263680013Y-184407091D01*
X263757781Y-184405268D01*
X263920825Y-184412326D01*
G37*
G36*
X265530251Y-186750000D02*
G01*
X265530251Y-186375575D01*
X265863643Y-186375575D01*
X265863643Y-184826587D01*
X265530251Y-184826587D01*
X265530251Y-184452163D01*
X266232205Y-184452163D01*
X266320133Y-184978995D01*
X266387681Y-184847058D01*
X266472760Y-184718663D01*
X266578576Y-184600883D01*
X266635939Y-184551814D01*
X266764295Y-184474534D01*
X266913975Y-184425876D01*
X267066918Y-184406556D01*
X267121738Y-184405268D01*
X267272508Y-184413975D01*
X267303454Y-184418457D01*
X267449065Y-184448380D01*
X267463922Y-184452163D01*
X267382589Y-185285275D01*
X267037474Y-185285275D01*
X267037474Y-184827320D01*
X266879619Y-184849398D01*
X266737522Y-184915634D01*
X266622017Y-185014166D01*
X266529719Y-185131322D01*
X266449013Y-185272590D01*
X266387006Y-185418403D01*
X266346511Y-185540265D01*
X266346511Y-186375575D01*
X266805199Y-186375575D01*
X266805199Y-186750000D01*
X265530251Y-186750000D01*
G37*
G36*
X269908304Y-183547976D02*
G01*
X269908304Y-186750000D01*
X269484055Y-186750000D01*
X269449616Y-186460572D01*
X269347459Y-186578980D01*
X269230307Y-186673444D01*
X269171180Y-186708967D01*
X269033795Y-186765896D01*
X268883592Y-186793803D01*
X268809944Y-186796894D01*
X268653369Y-186785070D01*
X268498837Y-186744198D01*
X268364771Y-186674131D01*
X268328542Y-186647418D01*
X268220149Y-186542331D01*
X268130362Y-186413918D01*
X268065459Y-186278401D01*
X268047174Y-186229030D01*
X268002545Y-186070400D01*
X267975136Y-185917717D01*
X267959268Y-185754044D01*
X267954850Y-185601814D01*
X268465562Y-185601814D01*
X268469915Y-185755807D01*
X268485999Y-185914238D01*
X268518892Y-186067310D01*
X268574398Y-186203825D01*
X268589393Y-186229030D01*
X268686302Y-186339162D01*
X268818880Y-186407168D01*
X268936706Y-186422470D01*
X269089847Y-186399023D01*
X269221005Y-186328681D01*
X269332746Y-186225366D01*
X269426169Y-186103000D01*
X269426169Y-185037613D01*
X269328781Y-184922537D01*
X269229798Y-184847103D01*
X269087629Y-184790818D01*
X268979937Y-184779692D01*
X268825420Y-184803416D01*
X268696357Y-184874587D01*
X268601117Y-184980460D01*
X268529633Y-185127092D01*
X268491508Y-185275515D01*
X268472048Y-185428076D01*
X268465694Y-185575698D01*
X268465562Y-185601814D01*
X267954850Y-185601814D01*
X267960004Y-185453866D01*
X267978517Y-185293800D01*
X268010494Y-185143350D01*
X268055935Y-185002517D01*
X268062561Y-184985589D01*
X268130452Y-184842660D01*
X268212948Y-184718046D01*
X268321741Y-184601067D01*
X268370307Y-184560607D01*
X268503730Y-184478690D01*
X268653037Y-184427113D01*
X268800996Y-184406633D01*
X268853175Y-184405268D01*
X269000557Y-184417295D01*
X269153880Y-184460491D01*
X269291084Y-184535104D01*
X269412167Y-184641132D01*
X269426169Y-184656594D01*
X269426169Y-183493754D01*
X269908304Y-183547976D01*
G37*
G36*
X275246965Y-184452163D02*
G01*
X274446092Y-186750000D01*
X273881891Y-186750000D01*
X273080286Y-184452163D01*
X273597593Y-184452163D01*
X274174250Y-186347732D01*
X274753838Y-184452163D01*
X275246965Y-184452163D01*
G37*
G36*
X277736776Y-186375575D02*
G01*
X277736776Y-186750000D01*
X275937928Y-186750000D01*
X275937928Y-186375575D01*
X276664062Y-186375575D01*
X276664062Y-184268981D01*
X276009002Y-184672714D01*
X275802373Y-184333461D01*
X276716085Y-183748743D01*
X277142533Y-183748743D01*
X277142533Y-186375575D01*
X277736776Y-186375575D01*
G37*
G36*
X278909875Y-186374110D02*
G01*
X278936118Y-186221364D01*
X279014847Y-186091480D01*
X279029309Y-186075889D01*
X279154363Y-185987532D01*
X279304211Y-185953272D01*
X279326064Y-185952791D01*
X279479218Y-185979839D01*
X279607578Y-186060983D01*
X279622819Y-186075889D01*
X279709598Y-186202725D01*
X279743247Y-186352423D01*
X279743720Y-186374110D01*
X279717155Y-186526652D01*
X279637460Y-186657298D01*
X279622819Y-186673063D01*
X279497765Y-186761946D01*
X279347917Y-186796410D01*
X279326064Y-186796894D01*
X279172911Y-186769685D01*
X279044551Y-186688058D01*
X279029309Y-186673063D01*
X278943582Y-186545336D01*
X278910341Y-186395714D01*
X278909875Y-186374110D01*
G37*
G36*
X282060604Y-183711706D02*
G01*
X282225124Y-183749556D01*
X282372489Y-183815793D01*
X282502697Y-183910418D01*
X282615749Y-184033431D01*
X282665841Y-184105582D01*
X282739722Y-184239695D01*
X282801081Y-184390159D01*
X282849918Y-184556972D01*
X282879971Y-184702196D01*
X282902010Y-184857883D01*
X282916035Y-185024035D01*
X282922046Y-185200651D01*
X282922296Y-185246441D01*
X282918289Y-185426554D01*
X282906268Y-185596135D01*
X282886232Y-185755183D01*
X282858182Y-185903698D01*
X282811850Y-186074530D01*
X282752996Y-186228904D01*
X282681619Y-186366820D01*
X282665841Y-186392428D01*
X282561367Y-186529883D01*
X282439737Y-186638900D01*
X282300951Y-186719477D01*
X282145008Y-186771615D01*
X281971910Y-186795314D01*
X281910398Y-186796894D01*
X281760174Y-186787019D01*
X281595585Y-186749101D01*
X281448101Y-186682743D01*
X281317721Y-186587946D01*
X281204446Y-186464710D01*
X281154222Y-186392428D01*
X281092296Y-186279588D01*
X281567481Y-186279588D01*
X281690459Y-186377261D01*
X281842327Y-186418982D01*
X281910398Y-186422470D01*
X282059792Y-186396281D01*
X282185572Y-186317713D01*
X282278585Y-186202218D01*
X282305339Y-186154291D01*
X282365285Y-185997258D01*
X282399005Y-185849851D01*
X282423090Y-185677044D01*
X282435802Y-185513637D01*
X282441824Y-185332591D01*
X282442359Y-185255233D01*
X282440762Y-185108255D01*
X282434861Y-184951432D01*
X282422794Y-184791526D01*
X282402431Y-184636264D01*
X282396930Y-184605303D01*
X281567481Y-186279588D01*
X281092296Y-186279588D01*
X281080341Y-186257803D01*
X281018982Y-186106721D01*
X280970146Y-185939181D01*
X280940092Y-185793299D01*
X280918053Y-185636885D01*
X280904028Y-185469937D01*
X280898018Y-185292456D01*
X280897779Y-185248639D01*
X281378437Y-185248639D01*
X281380395Y-185413262D01*
X281386268Y-185563666D01*
X281398069Y-185721166D01*
X281418082Y-185877466D01*
X281434124Y-185962316D01*
X282273831Y-184267515D01*
X282174687Y-184154486D01*
X282120691Y-184120969D01*
X281975616Y-184079809D01*
X281910398Y-184076273D01*
X281761706Y-184102892D01*
X281636197Y-184182748D01*
X281543062Y-184300136D01*
X281516190Y-184348848D01*
X281455923Y-184507026D01*
X281422023Y-184654871D01*
X281397809Y-184827755D01*
X281385029Y-184990952D01*
X281378975Y-185171536D01*
X281378437Y-185248639D01*
X280897779Y-185248639D01*
X280897767Y-185246441D01*
X280901774Y-185067208D01*
X280913796Y-184898440D01*
X280933831Y-184740137D01*
X280961881Y-184592297D01*
X281008213Y-184422213D01*
X281067067Y-184268480D01*
X281138444Y-184131097D01*
X281154222Y-184105582D01*
X281258945Y-183968376D01*
X281380773Y-183859557D01*
X281519705Y-183779126D01*
X281675742Y-183727082D01*
X281848883Y-183703426D01*
X281910398Y-183701849D01*
X282060604Y-183711706D01*
G37*
G36*
X237587649Y-189778660D02*
G01*
X237688847Y-189662977D01*
X237804316Y-189569546D01*
X237862422Y-189533928D01*
X238007940Y-189473321D01*
X238153362Y-189447433D01*
X238211933Y-189445268D01*
X238371523Y-189456918D01*
X238527772Y-189497190D01*
X238661838Y-189566226D01*
X238697732Y-189592547D01*
X238804393Y-189696402D01*
X238891734Y-189823871D01*
X238953822Y-189958783D01*
X238971040Y-190008004D01*
X239013190Y-190166273D01*
X239039076Y-190319413D01*
X239054062Y-190484277D01*
X239058235Y-190638150D01*
X239053291Y-190786168D01*
X239035534Y-190946487D01*
X239004862Y-191097371D01*
X238961276Y-191238822D01*
X238954920Y-191255840D01*
X238889039Y-191399182D01*
X238807624Y-191524208D01*
X238698946Y-191641645D01*
X238650105Y-191682288D01*
X238515080Y-191763819D01*
X238361879Y-191815153D01*
X238208459Y-191835535D01*
X238154048Y-191836894D01*
X237994920Y-191823395D01*
X237851571Y-191782898D01*
X237707063Y-191703558D01*
X237597524Y-191605208D01*
X237555409Y-191554794D01*
X237529030Y-191790000D01*
X237104781Y-191790000D01*
X237104781Y-191202351D01*
X237587649Y-191202351D01*
X237681242Y-191316904D01*
X237779624Y-191393593D01*
X237915739Y-191449286D01*
X238033148Y-191462470D01*
X238188830Y-191438919D01*
X238318365Y-191368268D01*
X238413434Y-191263168D01*
X238484531Y-191116493D01*
X238522450Y-190967314D01*
X238541804Y-190813566D01*
X238548124Y-190664536D01*
X238548256Y-190638150D01*
X238543980Y-190483513D01*
X238528182Y-190324786D01*
X238495873Y-190171978D01*
X238434106Y-190023858D01*
X238426623Y-190011667D01*
X238320973Y-189894683D01*
X238186471Y-189831691D01*
X238080775Y-189819692D01*
X237928367Y-189844422D01*
X237795011Y-189918611D01*
X237681255Y-190025589D01*
X237587649Y-190150153D01*
X237587649Y-191202351D01*
X237104781Y-191202351D01*
X237104781Y-188587976D01*
X237587649Y-188533754D01*
X237587649Y-189778660D01*
G37*
G36*
X241677007Y-189492163D02*
G01*
X240892987Y-191794396D01*
X240839587Y-191936256D01*
X240771008Y-192082458D01*
X240692697Y-192216639D01*
X240667307Y-192254549D01*
X240573626Y-192371772D01*
X240464776Y-192473395D01*
X240340756Y-192559419D01*
X240314132Y-192574752D01*
X240169403Y-192641298D01*
X240021895Y-192685773D01*
X239877055Y-192713044D01*
X239779972Y-192724228D01*
X239716958Y-192360795D01*
X239864470Y-192331625D01*
X240010003Y-192286881D01*
X240084055Y-192253817D01*
X240206970Y-192172667D01*
X240301675Y-192069902D01*
X240378245Y-191943140D01*
X240441379Y-191800344D01*
X240445290Y-191790000D01*
X240281891Y-191790000D01*
X239514725Y-189492163D01*
X240027635Y-189492163D01*
X240600628Y-191452212D01*
X241181682Y-189492163D01*
X241677007Y-189492163D01*
G37*
G36*
X244873169Y-191790000D02*
G01*
X244873169Y-191415575D01*
X245206560Y-191415575D01*
X245206560Y-189866587D01*
X244873169Y-189866587D01*
X244873169Y-189492163D01*
X245575122Y-189492163D01*
X245663050Y-190018995D01*
X245730598Y-189887058D01*
X245815677Y-189758663D01*
X245921493Y-189640883D01*
X245978856Y-189591814D01*
X246107212Y-189514534D01*
X246256892Y-189465876D01*
X246409836Y-189446556D01*
X246464655Y-189445268D01*
X246615425Y-189453975D01*
X246646372Y-189458457D01*
X246791982Y-189488380D01*
X246806839Y-189492163D01*
X246725506Y-190325275D01*
X246380391Y-190325275D01*
X246380391Y-189867320D01*
X246222536Y-189889398D01*
X246080439Y-189955634D01*
X245964934Y-190054166D01*
X245872636Y-190171322D01*
X245791930Y-190312590D01*
X245729923Y-190458403D01*
X245689428Y-190580265D01*
X245689428Y-191415575D01*
X246148116Y-191415575D01*
X246148116Y-191790000D01*
X244873169Y-191790000D01*
G37*
G36*
X248535595Y-189456010D02*
G01*
X248685269Y-189488236D01*
X248821702Y-189541945D01*
X248964140Y-189631760D01*
X249071886Y-189732018D01*
X249088556Y-189750816D01*
X249178201Y-189873133D01*
X249249298Y-190011473D01*
X249301849Y-190165835D01*
X249335852Y-190336220D01*
X249350020Y-190490447D01*
X249352338Y-190588325D01*
X249348674Y-190704829D01*
X249342080Y-190805212D01*
X247834125Y-190805212D01*
X247854412Y-190966550D01*
X247900336Y-191119481D01*
X247980048Y-191253919D01*
X248031229Y-191307131D01*
X248160614Y-191395571D01*
X248306969Y-191447300D01*
X248454746Y-191462470D01*
X248605001Y-191451361D01*
X248754272Y-191415022D01*
X248763224Y-191411912D01*
X248907022Y-191350912D01*
X249042166Y-191274759D01*
X249051187Y-191269030D01*
X249260014Y-191552595D01*
X249132691Y-191642103D01*
X249002763Y-191711479D01*
X248887055Y-191759225D01*
X248736914Y-191803445D01*
X248579673Y-191829309D01*
X248430566Y-191836894D01*
X248280384Y-191829706D01*
X248121714Y-191803889D01*
X247976874Y-191759296D01*
X247830461Y-191686685D01*
X247702543Y-191592448D01*
X247593289Y-191479549D01*
X247502697Y-191347986D01*
X247460433Y-191266831D01*
X247405295Y-191126789D01*
X247365911Y-190976304D01*
X247342281Y-190815379D01*
X247334527Y-190666004D01*
X247334404Y-190644012D01*
X247342189Y-190477454D01*
X247342264Y-190476950D01*
X247831926Y-190476950D01*
X248884857Y-190476950D01*
X248874141Y-190327519D01*
X248843474Y-190181415D01*
X248786287Y-190046404D01*
X248748570Y-189989685D01*
X248635191Y-189886096D01*
X248490695Y-189830317D01*
X248377076Y-189819692D01*
X248230595Y-189838567D01*
X248091732Y-189902212D01*
X248001919Y-189979427D01*
X247914723Y-190109954D01*
X247865792Y-190248304D01*
X247839231Y-190395125D01*
X247831926Y-190476950D01*
X247342264Y-190476950D01*
X247365545Y-190319963D01*
X247404471Y-190171540D01*
X247458968Y-190032184D01*
X247537909Y-189888965D01*
X247633775Y-189763481D01*
X247746565Y-189655734D01*
X247816539Y-189603538D01*
X247954735Y-189527030D01*
X248107189Y-189475562D01*
X248254674Y-189450832D01*
X248372680Y-189445268D01*
X248535595Y-189456010D01*
G37*
G36*
X250842708Y-191462470D02*
G01*
X250999432Y-191451135D01*
X251149197Y-191409261D01*
X251202478Y-191381870D01*
X251310309Y-191271952D01*
X251335834Y-191159853D01*
X251303940Y-191015384D01*
X251297000Y-191003049D01*
X251182620Y-190904073D01*
X251141661Y-190882882D01*
X250995665Y-190825546D01*
X250846498Y-190781341D01*
X250789219Y-190766378D01*
X250641565Y-190724071D01*
X250495299Y-190672190D01*
X250395744Y-190629357D01*
X250262367Y-190550498D01*
X250152146Y-190446084D01*
X250134159Y-190422728D01*
X250067892Y-190287789D01*
X250042647Y-190132794D01*
X250041836Y-190095931D01*
X250061136Y-189940759D01*
X250119038Y-189803323D01*
X250215542Y-189683623D01*
X250285834Y-189624787D01*
X250419145Y-189546247D01*
X250574346Y-189490148D01*
X250728104Y-189459468D01*
X250898621Y-189445969D01*
X250950419Y-189445268D01*
X251105778Y-189451412D01*
X251264803Y-189472650D01*
X251409516Y-189509057D01*
X251450140Y-189522937D01*
X251589372Y-189580247D01*
X251724474Y-189652839D01*
X251814306Y-189714180D01*
X251611340Y-190022658D01*
X251480844Y-189946097D01*
X251339401Y-189884027D01*
X251319714Y-189876845D01*
X251173655Y-189837776D01*
X251024466Y-189821088D01*
X250963608Y-189819692D01*
X250808842Y-189829378D01*
X250666969Y-189868727D01*
X250632415Y-189888569D01*
X250540646Y-190009994D01*
X250532764Y-190070286D01*
X250583322Y-190211702D01*
X250707489Y-190295136D01*
X250758444Y-190317215D01*
X250898450Y-190366138D01*
X251042912Y-190409449D01*
X251111619Y-190428590D01*
X251257502Y-190472408D01*
X251401243Y-190525938D01*
X251498500Y-190570006D01*
X251628731Y-190651271D01*
X251737138Y-190760751D01*
X251754955Y-190785429D01*
X251817566Y-190918044D01*
X251844310Y-191068563D01*
X251846546Y-191133475D01*
X251829749Y-191291164D01*
X251773111Y-191439096D01*
X251704397Y-191533545D01*
X251585626Y-191638611D01*
X251455391Y-191714827D01*
X251333636Y-191762889D01*
X251187777Y-191801915D01*
X251035049Y-191826487D01*
X250875452Y-191836605D01*
X250842708Y-191836894D01*
X250689797Y-191831170D01*
X250530581Y-191811045D01*
X250384927Y-191776430D01*
X250295360Y-191745303D01*
X250158646Y-191683551D01*
X250024624Y-191605210D01*
X249907746Y-191515959D01*
X250164201Y-191221402D01*
X250288322Y-191307435D01*
X250427308Y-191378321D01*
X250469749Y-191395792D01*
X250614724Y-191438963D01*
X250768648Y-191460126D01*
X250842708Y-191462470D01*
G37*
G36*
X254497558Y-191663970D02*
G01*
X254359988Y-191733763D01*
X254219479Y-191783110D01*
X254197872Y-191789267D01*
X254053641Y-191820104D01*
X253904331Y-191835220D01*
X253833706Y-191836894D01*
X253669680Y-191827112D01*
X253523816Y-191797765D01*
X253379354Y-191740268D01*
X253245190Y-191645040D01*
X253232136Y-191632463D01*
X253132606Y-191507211D01*
X253065649Y-191361442D01*
X253033478Y-191214644D01*
X253026239Y-191093907D01*
X253026239Y-189866587D01*
X252519924Y-189866587D01*
X252519924Y-189492163D01*
X253026239Y-189492163D01*
X253026239Y-188981451D01*
X253509107Y-188923565D01*
X253509107Y-189492163D01*
X254275541Y-189492163D01*
X254222052Y-189866587D01*
X253509107Y-189866587D01*
X253509107Y-191099769D01*
X253529071Y-191251055D01*
X253599965Y-191373077D01*
X253730575Y-191442828D01*
X253888135Y-191462383D01*
X253901117Y-191462470D01*
X254048807Y-191450735D01*
X254129728Y-191432428D01*
X254272022Y-191380537D01*
X254323169Y-191355491D01*
X254497558Y-191663970D01*
G37*
G36*
X256086846Y-188366692D02*
G01*
X256236275Y-188397173D01*
X256316190Y-188453154D01*
X256393082Y-188585253D01*
X256403385Y-188669309D01*
X256369324Y-188815396D01*
X256316190Y-188887662D01*
X256185730Y-188963854D01*
X256086846Y-188976322D01*
X255940572Y-188945066D01*
X255860433Y-188887662D01*
X255784870Y-188760808D01*
X255772506Y-188669309D01*
X255806852Y-188524080D01*
X255860433Y-188453154D01*
X255990435Y-188378850D01*
X256086846Y-188366692D01*
G37*
G36*
X256422436Y-189492163D02*
G01*
X256422436Y-191415575D01*
X257040859Y-191415575D01*
X257040859Y-191790000D01*
X255259596Y-191790000D01*
X255259596Y-191415575D01*
X255940300Y-191415575D01*
X255940300Y-189866587D01*
X255280845Y-189866587D01*
X255280845Y-189492163D01*
X256422436Y-189492163D01*
G37*
G36*
X259754152Y-189492163D02*
G01*
X258953280Y-191790000D01*
X258389079Y-191790000D01*
X257587474Y-189492163D01*
X258104781Y-189492163D01*
X258681438Y-191387732D01*
X259261026Y-189492163D01*
X259754152Y-189492163D01*
G37*
G36*
X261446272Y-189456010D02*
G01*
X261595946Y-189488236D01*
X261732379Y-189541945D01*
X261874817Y-189631760D01*
X261982562Y-189732018D01*
X261999233Y-189750816D01*
X262088877Y-189873133D01*
X262159975Y-190011473D01*
X262212525Y-190165835D01*
X262246529Y-190336220D01*
X262260697Y-190490447D01*
X262263015Y-190588325D01*
X262259351Y-190704829D01*
X262252757Y-190805212D01*
X260744801Y-190805212D01*
X260765089Y-190966550D01*
X260811013Y-191119481D01*
X260890725Y-191253919D01*
X260941905Y-191307131D01*
X261071291Y-191395571D01*
X261217646Y-191447300D01*
X261365423Y-191462470D01*
X261515678Y-191451361D01*
X261664949Y-191415022D01*
X261673901Y-191411912D01*
X261817699Y-191350912D01*
X261952843Y-191274759D01*
X261961864Y-191269030D01*
X262170691Y-191552595D01*
X262043368Y-191642103D01*
X261913440Y-191711479D01*
X261797732Y-191759225D01*
X261647591Y-191803445D01*
X261490350Y-191829309D01*
X261341242Y-191836894D01*
X261191061Y-191829706D01*
X261032391Y-191803889D01*
X260887551Y-191759296D01*
X260741138Y-191686685D01*
X260613220Y-191592448D01*
X260503966Y-191479549D01*
X260413374Y-191347986D01*
X260371110Y-191266831D01*
X260315972Y-191126789D01*
X260276588Y-190976304D01*
X260252957Y-190815379D01*
X260245204Y-190666004D01*
X260245081Y-190644012D01*
X260252866Y-190477454D01*
X260252941Y-190476950D01*
X260742603Y-190476950D01*
X261795534Y-190476950D01*
X261784818Y-190327519D01*
X261754151Y-190181415D01*
X261696964Y-190046404D01*
X261659247Y-189989685D01*
X261545868Y-189886096D01*
X261401372Y-189830317D01*
X261287753Y-189819692D01*
X261141272Y-189838567D01*
X261002408Y-189902212D01*
X260912596Y-189979427D01*
X260825400Y-190109954D01*
X260776469Y-190248304D01*
X260749908Y-190395125D01*
X260742603Y-190476950D01*
X260252941Y-190476950D01*
X260276222Y-190319963D01*
X260315148Y-190171540D01*
X260369644Y-190032184D01*
X260448586Y-189888965D01*
X260544452Y-189763481D01*
X260657242Y-189655734D01*
X260727216Y-189603538D01*
X260865412Y-189527030D01*
X261017866Y-189475562D01*
X261165350Y-189450832D01*
X261283357Y-189445268D01*
X261446272Y-189456010D01*
G37*
G36*
X266610542Y-189456010D02*
G01*
X266760217Y-189488236D01*
X266896650Y-189541945D01*
X267039088Y-189631760D01*
X267146833Y-189732018D01*
X267163503Y-189750816D01*
X267253148Y-189873133D01*
X267324246Y-190011473D01*
X267376796Y-190165835D01*
X267410799Y-190336220D01*
X267424967Y-190490447D01*
X267427286Y-190588325D01*
X267423622Y-190704829D01*
X267417028Y-190805212D01*
X265909072Y-190805212D01*
X265929360Y-190966550D01*
X265975283Y-191119481D01*
X266054996Y-191253919D01*
X266106176Y-191307131D01*
X266235561Y-191395571D01*
X266381917Y-191447300D01*
X266529693Y-191462470D01*
X266679949Y-191451361D01*
X266829220Y-191415022D01*
X266838172Y-191411912D01*
X266981970Y-191350912D01*
X267117113Y-191274759D01*
X267126134Y-191269030D01*
X267334962Y-191552595D01*
X267207639Y-191642103D01*
X267077711Y-191711479D01*
X266962003Y-191759225D01*
X266811862Y-191803445D01*
X266654621Y-191829309D01*
X266505513Y-191836894D01*
X266355332Y-191829706D01*
X266196662Y-191803889D01*
X266051822Y-191759296D01*
X265905409Y-191686685D01*
X265777491Y-191592448D01*
X265668236Y-191479549D01*
X265577645Y-191347986D01*
X265535381Y-191266831D01*
X265480243Y-191126789D01*
X265440859Y-190976304D01*
X265417228Y-190815379D01*
X265409474Y-190666004D01*
X265409351Y-190644012D01*
X265417137Y-190477454D01*
X265417212Y-190476950D01*
X265906874Y-190476950D01*
X266959805Y-190476950D01*
X266949089Y-190327519D01*
X266918422Y-190181415D01*
X266861234Y-190046404D01*
X266823517Y-189989685D01*
X266710139Y-189886096D01*
X266565643Y-189830317D01*
X266452024Y-189819692D01*
X266305543Y-189838567D01*
X266166679Y-189902212D01*
X266076867Y-189979427D01*
X265989671Y-190109954D01*
X265940740Y-190248304D01*
X265914178Y-190395125D01*
X265906874Y-190476950D01*
X265417212Y-190476950D01*
X265440492Y-190319963D01*
X265479419Y-190171540D01*
X265533915Y-190032184D01*
X265612857Y-189888965D01*
X265708722Y-189763481D01*
X265821513Y-189655734D01*
X265891487Y-189603538D01*
X266029683Y-189527030D01*
X266182137Y-189475562D01*
X266329621Y-189450832D01*
X266447628Y-189445268D01*
X266610542Y-189456010D01*
G37*
G36*
X268090405Y-191790000D02*
G01*
X268090405Y-189492163D01*
X268506595Y-189492163D01*
X268543231Y-189806503D01*
X268647020Y-189695804D01*
X268762930Y-189604499D01*
X268878821Y-189538325D01*
X269025893Y-189481618D01*
X269175851Y-189451084D01*
X269277425Y-189445268D01*
X269426765Y-189456488D01*
X269570795Y-189495933D01*
X269701055Y-189573070D01*
X269754432Y-189624787D01*
X269837894Y-189750724D01*
X269890444Y-189904139D01*
X269911310Y-190065706D01*
X269912701Y-190124508D01*
X269912701Y-191790000D01*
X269430566Y-191790000D01*
X269430566Y-190367773D01*
X269425871Y-190215062D01*
X269407382Y-190064779D01*
X269371215Y-189946454D01*
X269257845Y-189843955D01*
X269105234Y-189819692D01*
X268955740Y-189843681D01*
X268819127Y-189915648D01*
X268801885Y-189928869D01*
X268691048Y-190030008D01*
X268590970Y-190150823D01*
X268573273Y-190176531D01*
X268573273Y-191790000D01*
X268090405Y-191790000D01*
G37*
G36*
X272716853Y-189613796D02*
G01*
X272574521Y-189650982D01*
X272428773Y-189672201D01*
X272418633Y-189673147D01*
X272269007Y-189683165D01*
X272117009Y-189687444D01*
X272055199Y-189687801D01*
X272194750Y-189763158D01*
X272313604Y-189861073D01*
X272363678Y-189920809D01*
X272434303Y-190056750D01*
X272464470Y-190204832D01*
X272466993Y-190267390D01*
X272454265Y-190414902D01*
X272411349Y-190562988D01*
X272359282Y-190665261D01*
X272265309Y-190785990D01*
X272144958Y-190885492D01*
X272050070Y-190940034D01*
X271902534Y-190996769D01*
X271752783Y-191027910D01*
X271605281Y-191039296D01*
X271570866Y-191039685D01*
X271422720Y-191033426D01*
X271399407Y-191030893D01*
X271258723Y-191001584D01*
X271167481Y-191122263D01*
X271157607Y-191194291D01*
X271214027Y-191316657D01*
X271354856Y-191364565D01*
X271441905Y-191368681D01*
X271837579Y-191368681D01*
X271984425Y-191376838D01*
X272132898Y-191404654D01*
X272267691Y-191452212D01*
X272396044Y-191523412D01*
X272509745Y-191619848D01*
X272560049Y-191680090D01*
X272633179Y-191813687D01*
X272665356Y-191961870D01*
X272667028Y-192006887D01*
X272648709Y-192168729D01*
X272593755Y-192311336D01*
X272502164Y-192434709D01*
X272373936Y-192538848D01*
X272233617Y-192612509D01*
X272093586Y-192661247D01*
X271935317Y-192696692D01*
X271789494Y-192716077D01*
X271631005Y-192726231D01*
X271529833Y-192727892D01*
X271366533Y-192723965D01*
X271219643Y-192712184D01*
X271071860Y-192689103D01*
X270917272Y-192645826D01*
X270780968Y-192580473D01*
X270667229Y-192487651D01*
X270605862Y-192403293D01*
X270547509Y-192260225D01*
X270520049Y-192106696D01*
X270515737Y-192007620D01*
X270948046Y-192007620D01*
X270971894Y-192156299D01*
X270994208Y-192202526D01*
X271109476Y-192295262D01*
X271167865Y-192316099D01*
X271323203Y-192344125D01*
X271476252Y-192352884D01*
X271534229Y-192353468D01*
X271698864Y-192348110D01*
X271852877Y-192329273D01*
X271996249Y-192287831D01*
X272036148Y-192267739D01*
X272146058Y-192164790D01*
X272182694Y-192027404D01*
X272140072Y-191886554D01*
X272061794Y-191816378D01*
X271920927Y-191761423D01*
X271763708Y-191743391D01*
X271738660Y-191743105D01*
X271348849Y-191743105D01*
X271198136Y-191734816D01*
X271040270Y-191701142D01*
X270905792Y-191634182D01*
X270876239Y-191610481D01*
X270779459Y-191494994D01*
X270730412Y-191354665D01*
X270726762Y-191300537D01*
X270751592Y-191152775D01*
X270826081Y-191020898D01*
X270935581Y-190915791D01*
X270981019Y-190883614D01*
X270853129Y-190804195D01*
X270743632Y-190705311D01*
X270682066Y-190622763D01*
X270621815Y-190486858D01*
X270593462Y-190342086D01*
X270589009Y-190249071D01*
X270589864Y-190239546D01*
X271079938Y-190239546D01*
X271096527Y-190387717D01*
X271157816Y-190530891D01*
X271197907Y-190582463D01*
X271323650Y-190670619D01*
X271466257Y-190706889D01*
X271549617Y-190711423D01*
X271695418Y-190694009D01*
X271829837Y-190629675D01*
X271875681Y-190587592D01*
X271952818Y-190459184D01*
X271985766Y-190304032D01*
X271988521Y-190235150D01*
X271972859Y-190078271D01*
X271914996Y-189936269D01*
X271796661Y-189828077D01*
X271647436Y-189780743D01*
X271543022Y-189773531D01*
X271385989Y-189791769D01*
X271252149Y-189852689D01*
X271195709Y-189903224D01*
X271116568Y-190031070D01*
X271082764Y-190176659D01*
X271079938Y-190239546D01*
X270589864Y-190239546D01*
X270603209Y-190090941D01*
X270645807Y-189947010D01*
X270709177Y-189828485D01*
X270803292Y-189713496D01*
X270919398Y-189617382D01*
X271044034Y-189546385D01*
X271184583Y-189493062D01*
X271337869Y-189459488D01*
X271486717Y-189446157D01*
X271538626Y-189445268D01*
X271685232Y-189442892D01*
X271845055Y-189433533D01*
X271995115Y-189415226D01*
X272146424Y-189384592D01*
X272288619Y-189342120D01*
X272314585Y-189332428D01*
X272451239Y-189276191D01*
X272587160Y-189212993D01*
X272716853Y-189613796D01*
G37*
G36*
X274161794Y-188366692D02*
G01*
X274311222Y-188397173D01*
X274391138Y-188453154D01*
X274468029Y-188585253D01*
X274478333Y-188669309D01*
X274444272Y-188815396D01*
X274391138Y-188887662D01*
X274260678Y-188963854D01*
X274161794Y-188976322D01*
X274015519Y-188945066D01*
X273935381Y-188887662D01*
X273859818Y-188760808D01*
X273847453Y-188669309D01*
X273881800Y-188524080D01*
X273935381Y-188453154D01*
X274065383Y-188378850D01*
X274161794Y-188366692D01*
G37*
G36*
X274497383Y-189492163D02*
G01*
X274497383Y-191415575D01*
X275115806Y-191415575D01*
X275115806Y-191790000D01*
X273334543Y-191790000D01*
X273334543Y-191415575D01*
X274015248Y-191415575D01*
X274015248Y-189866587D01*
X273355792Y-189866587D01*
X273355792Y-189492163D01*
X274497383Y-189492163D01*
G37*
G36*
X275836811Y-191790000D02*
G01*
X275836811Y-189492163D01*
X276253001Y-189492163D01*
X276289637Y-189806503D01*
X276393426Y-189695804D01*
X276509336Y-189604499D01*
X276625227Y-189538325D01*
X276772299Y-189481618D01*
X276922257Y-189451084D01*
X277023831Y-189445268D01*
X277173171Y-189456488D01*
X277317201Y-189495933D01*
X277447461Y-189573070D01*
X277500838Y-189624787D01*
X277584300Y-189750724D01*
X277636850Y-189904139D01*
X277657716Y-190065706D01*
X277659107Y-190124508D01*
X277659107Y-191790000D01*
X277176972Y-191790000D01*
X277176972Y-190367773D01*
X277172277Y-190215062D01*
X277153788Y-190064779D01*
X277117621Y-189946454D01*
X277004251Y-189843955D01*
X276851640Y-189819692D01*
X276702146Y-189843681D01*
X276565533Y-189915648D01*
X276548291Y-189928869D01*
X276437454Y-190030008D01*
X276337376Y-190150823D01*
X276319679Y-190176531D01*
X276319679Y-191790000D01*
X275836811Y-191790000D01*
G37*
G36*
X279521219Y-189456010D02*
G01*
X279670893Y-189488236D01*
X279807327Y-189541945D01*
X279949765Y-189631760D01*
X280057510Y-189732018D01*
X280074180Y-189750816D01*
X280163825Y-189873133D01*
X280234923Y-190011473D01*
X280287473Y-190165835D01*
X280321476Y-190336220D01*
X280335644Y-190490447D01*
X280337963Y-190588325D01*
X280334299Y-190704829D01*
X280327704Y-190805212D01*
X278819749Y-190805212D01*
X278840037Y-190966550D01*
X278885960Y-191119481D01*
X278965673Y-191253919D01*
X279016853Y-191307131D01*
X279146238Y-191395571D01*
X279292594Y-191447300D01*
X279440370Y-191462470D01*
X279590626Y-191451361D01*
X279739897Y-191415022D01*
X279748849Y-191411912D01*
X279892647Y-191350912D01*
X280027790Y-191274759D01*
X280036811Y-191269030D01*
X280245639Y-191552595D01*
X280118316Y-191642103D01*
X279988387Y-191711479D01*
X279872680Y-191759225D01*
X279722539Y-191803445D01*
X279565298Y-191829309D01*
X279416190Y-191836894D01*
X279266009Y-191829706D01*
X279107339Y-191803889D01*
X278962499Y-191759296D01*
X278816085Y-191686685D01*
X278688168Y-191592448D01*
X278578913Y-191479549D01*
X278488322Y-191347986D01*
X278446058Y-191266831D01*
X278390920Y-191126789D01*
X278351536Y-190976304D01*
X278327905Y-190815379D01*
X278320151Y-190666004D01*
X278320028Y-190644012D01*
X278327814Y-190477454D01*
X278327889Y-190476950D01*
X278817551Y-190476950D01*
X279870482Y-190476950D01*
X279859766Y-190327519D01*
X279829098Y-190181415D01*
X279771911Y-190046404D01*
X279734194Y-189989685D01*
X279620816Y-189886096D01*
X279476320Y-189830317D01*
X279362701Y-189819692D01*
X279216220Y-189838567D01*
X279077356Y-189902212D01*
X278987544Y-189979427D01*
X278900348Y-190109954D01*
X278851417Y-190248304D01*
X278824855Y-190395125D01*
X278817551Y-190476950D01*
X278327889Y-190476950D01*
X278351169Y-190319963D01*
X278390095Y-190171540D01*
X278444592Y-190032184D01*
X278523534Y-189888965D01*
X278619399Y-189763481D01*
X278732189Y-189655734D01*
X278802164Y-189603538D01*
X278940360Y-189527030D01*
X279092814Y-189475562D01*
X279240298Y-189450832D01*
X279358305Y-189445268D01*
X279521219Y-189456010D01*
G37*
G36*
X281828333Y-191462470D02*
G01*
X281985056Y-191451135D01*
X282134822Y-191409261D01*
X282188102Y-191381870D01*
X282295934Y-191271952D01*
X282321459Y-191159853D01*
X282289564Y-191015384D01*
X282282624Y-191003049D01*
X282168244Y-190904073D01*
X282127286Y-190882882D01*
X281981290Y-190825546D01*
X281832122Y-190781341D01*
X281774843Y-190766378D01*
X281627189Y-190724071D01*
X281480924Y-190672190D01*
X281381368Y-190629357D01*
X281247991Y-190550498D01*
X281137771Y-190446084D01*
X281119784Y-190422728D01*
X281053516Y-190287789D01*
X281028272Y-190132794D01*
X281027460Y-190095931D01*
X281046761Y-189940759D01*
X281104663Y-189803323D01*
X281201166Y-189683623D01*
X281271459Y-189624787D01*
X281404770Y-189546247D01*
X281559971Y-189490148D01*
X281713728Y-189459468D01*
X281884246Y-189445969D01*
X281936044Y-189445268D01*
X282091402Y-189451412D01*
X282250427Y-189472650D01*
X282395141Y-189509057D01*
X282435764Y-189522937D01*
X282574996Y-189580247D01*
X282710099Y-189652839D01*
X282799931Y-189714180D01*
X282596965Y-190022658D01*
X282466469Y-189946097D01*
X282325025Y-189884027D01*
X282305339Y-189876845D01*
X282159280Y-189837776D01*
X282010091Y-189821088D01*
X281949233Y-189819692D01*
X281794467Y-189829378D01*
X281652594Y-189868727D01*
X281618039Y-189888569D01*
X281526271Y-190009994D01*
X281518388Y-190070286D01*
X281568947Y-190211702D01*
X281693113Y-190295136D01*
X281744069Y-190317215D01*
X281884074Y-190366138D01*
X282028536Y-190409449D01*
X282097244Y-190428590D01*
X282243127Y-190472408D01*
X282386868Y-190525938D01*
X282484125Y-190570006D01*
X282614356Y-190651271D01*
X282722762Y-190760751D01*
X282740580Y-190785429D01*
X282803191Y-190918044D01*
X282829935Y-191068563D01*
X282832171Y-191133475D01*
X282815374Y-191291164D01*
X282758736Y-191439096D01*
X282690021Y-191533545D01*
X282571251Y-191638611D01*
X282441015Y-191714827D01*
X282319261Y-191762889D01*
X282173402Y-191801915D01*
X282020674Y-191826487D01*
X281861076Y-191836605D01*
X281828333Y-191836894D01*
X281675421Y-191831170D01*
X281516205Y-191811045D01*
X281370552Y-191776430D01*
X281280984Y-191745303D01*
X281144270Y-191683551D01*
X281010249Y-191605210D01*
X280893371Y-191515959D01*
X281149826Y-191221402D01*
X281273946Y-191307435D01*
X281412933Y-191378321D01*
X281455374Y-191395792D01*
X281600349Y-191438963D01*
X281754273Y-191460126D01*
X281828333Y-191462470D01*
G37*
D12*
X215976668Y-118223030D02*
X215976668Y-117423030D01*
X215976668Y-117423030D02*
X216281430Y-117423030D01*
X216281430Y-117423030D02*
X216357620Y-117461125D01*
X216357620Y-117461125D02*
X216395715Y-117499220D01*
X216395715Y-117499220D02*
X216433811Y-117575411D01*
X216433811Y-117575411D02*
X216433811Y-117689696D01*
X216433811Y-117689696D02*
X216395715Y-117765887D01*
X216395715Y-117765887D02*
X216357620Y-117803982D01*
X216357620Y-117803982D02*
X216281430Y-117842077D01*
X216281430Y-117842077D02*
X215976668Y-117842077D01*
X216929049Y-117423030D02*
X217005239Y-117423030D01*
X217005239Y-117423030D02*
X217081430Y-117461125D01*
X217081430Y-117461125D02*
X217119525Y-117499220D01*
X217119525Y-117499220D02*
X217157620Y-117575411D01*
X217157620Y-117575411D02*
X217195715Y-117727792D01*
X217195715Y-117727792D02*
X217195715Y-117918268D01*
X217195715Y-117918268D02*
X217157620Y-118070649D01*
X217157620Y-118070649D02*
X217119525Y-118146839D01*
X217119525Y-118146839D02*
X217081430Y-118184935D01*
X217081430Y-118184935D02*
X217005239Y-118223030D01*
X217005239Y-118223030D02*
X216929049Y-118223030D01*
X216929049Y-118223030D02*
X216852858Y-118184935D01*
X216852858Y-118184935D02*
X216814763Y-118146839D01*
X216814763Y-118146839D02*
X216776668Y-118070649D01*
X216776668Y-118070649D02*
X216738572Y-117918268D01*
X216738572Y-117918268D02*
X216738572Y-117727792D01*
X216738572Y-117727792D02*
X216776668Y-117575411D01*
X216776668Y-117575411D02*
X216814763Y-117499220D01*
X216814763Y-117499220D02*
X216852858Y-117461125D01*
X216852858Y-117461125D02*
X216929049Y-117423030D01*
X217576668Y-118223030D02*
X217729049Y-118223030D01*
X217729049Y-118223030D02*
X217805239Y-118184935D01*
X217805239Y-118184935D02*
X217843335Y-118146839D01*
X217843335Y-118146839D02*
X217919525Y-118032554D01*
X217919525Y-118032554D02*
X217957620Y-117880173D01*
X217957620Y-117880173D02*
X217957620Y-117575411D01*
X217957620Y-117575411D02*
X217919525Y-117499220D01*
X217919525Y-117499220D02*
X217881430Y-117461125D01*
X217881430Y-117461125D02*
X217805239Y-117423030D01*
X217805239Y-117423030D02*
X217652858Y-117423030D01*
X217652858Y-117423030D02*
X217576668Y-117461125D01*
X217576668Y-117461125D02*
X217538573Y-117499220D01*
X217538573Y-117499220D02*
X217500477Y-117575411D01*
X217500477Y-117575411D02*
X217500477Y-117765887D01*
X217500477Y-117765887D02*
X217538573Y-117842077D01*
X217538573Y-117842077D02*
X217576668Y-117880173D01*
X217576668Y-117880173D02*
X217652858Y-117918268D01*
X217652858Y-117918268D02*
X217805239Y-117918268D01*
X217805239Y-117918268D02*
X217881430Y-117880173D01*
X217881430Y-117880173D02*
X217919525Y-117842077D01*
X217919525Y-117842077D02*
X217957620Y-117765887D01*
X206376667Y-108063030D02*
X206376667Y-107263030D01*
X206376667Y-107263030D02*
X206681429Y-107263030D01*
X206681429Y-107263030D02*
X206757619Y-107301125D01*
X206757619Y-107301125D02*
X206795714Y-107339220D01*
X206795714Y-107339220D02*
X206833810Y-107415411D01*
X206833810Y-107415411D02*
X206833810Y-107529696D01*
X206833810Y-107529696D02*
X206795714Y-107605887D01*
X206795714Y-107605887D02*
X206757619Y-107643982D01*
X206757619Y-107643982D02*
X206681429Y-107682077D01*
X206681429Y-107682077D02*
X206376667Y-107682077D01*
X207595714Y-108063030D02*
X207138571Y-108063030D01*
X207367143Y-108063030D02*
X207367143Y-107263030D01*
X207367143Y-107263030D02*
X207290952Y-107377315D01*
X207290952Y-107377315D02*
X207214762Y-107453506D01*
X207214762Y-107453506D02*
X207138571Y-107491601D01*
X208052857Y-107605887D02*
X207976667Y-107567792D01*
X207976667Y-107567792D02*
X207938572Y-107529696D01*
X207938572Y-107529696D02*
X207900476Y-107453506D01*
X207900476Y-107453506D02*
X207900476Y-107415411D01*
X207900476Y-107415411D02*
X207938572Y-107339220D01*
X207938572Y-107339220D02*
X207976667Y-107301125D01*
X207976667Y-107301125D02*
X208052857Y-107263030D01*
X208052857Y-107263030D02*
X208205238Y-107263030D01*
X208205238Y-107263030D02*
X208281429Y-107301125D01*
X208281429Y-107301125D02*
X208319524Y-107339220D01*
X208319524Y-107339220D02*
X208357619Y-107415411D01*
X208357619Y-107415411D02*
X208357619Y-107453506D01*
X208357619Y-107453506D02*
X208319524Y-107529696D01*
X208319524Y-107529696D02*
X208281429Y-107567792D01*
X208281429Y-107567792D02*
X208205238Y-107605887D01*
X208205238Y-107605887D02*
X208052857Y-107605887D01*
X208052857Y-107605887D02*
X207976667Y-107643982D01*
X207976667Y-107643982D02*
X207938572Y-107682077D01*
X207938572Y-107682077D02*
X207900476Y-107758268D01*
X207900476Y-107758268D02*
X207900476Y-107910649D01*
X207900476Y-107910649D02*
X207938572Y-107986839D01*
X207938572Y-107986839D02*
X207976667Y-108024935D01*
X207976667Y-108024935D02*
X208052857Y-108063030D01*
X208052857Y-108063030D02*
X208205238Y-108063030D01*
X208205238Y-108063030D02*
X208281429Y-108024935D01*
X208281429Y-108024935D02*
X208319524Y-107986839D01*
X208319524Y-107986839D02*
X208357619Y-107910649D01*
X208357619Y-107910649D02*
X208357619Y-107758268D01*
X208357619Y-107758268D02*
X208319524Y-107682077D01*
X208319524Y-107682077D02*
X208281429Y-107643982D01*
X208281429Y-107643982D02*
X208205238Y-107605887D01*
X206376667Y-115683030D02*
X206376667Y-114883030D01*
X206376667Y-114883030D02*
X206681429Y-114883030D01*
X206681429Y-114883030D02*
X206757619Y-114921125D01*
X206757619Y-114921125D02*
X206795714Y-114959220D01*
X206795714Y-114959220D02*
X206833810Y-115035411D01*
X206833810Y-115035411D02*
X206833810Y-115149696D01*
X206833810Y-115149696D02*
X206795714Y-115225887D01*
X206795714Y-115225887D02*
X206757619Y-115263982D01*
X206757619Y-115263982D02*
X206681429Y-115302077D01*
X206681429Y-115302077D02*
X206376667Y-115302077D01*
X207595714Y-115683030D02*
X207138571Y-115683030D01*
X207367143Y-115683030D02*
X207367143Y-114883030D01*
X207367143Y-114883030D02*
X207290952Y-114997315D01*
X207290952Y-114997315D02*
X207214762Y-115073506D01*
X207214762Y-115073506D02*
X207138571Y-115111601D01*
X208281429Y-114883030D02*
X208129048Y-114883030D01*
X208129048Y-114883030D02*
X208052857Y-114921125D01*
X208052857Y-114921125D02*
X208014762Y-114959220D01*
X208014762Y-114959220D02*
X207938572Y-115073506D01*
X207938572Y-115073506D02*
X207900476Y-115225887D01*
X207900476Y-115225887D02*
X207900476Y-115530649D01*
X207900476Y-115530649D02*
X207938572Y-115606839D01*
X207938572Y-115606839D02*
X207976667Y-115644935D01*
X207976667Y-115644935D02*
X208052857Y-115683030D01*
X208052857Y-115683030D02*
X208205238Y-115683030D01*
X208205238Y-115683030D02*
X208281429Y-115644935D01*
X208281429Y-115644935D02*
X208319524Y-115606839D01*
X208319524Y-115606839D02*
X208357619Y-115530649D01*
X208357619Y-115530649D02*
X208357619Y-115340173D01*
X208357619Y-115340173D02*
X208319524Y-115263982D01*
X208319524Y-115263982D02*
X208281429Y-115225887D01*
X208281429Y-115225887D02*
X208205238Y-115187792D01*
X208205238Y-115187792D02*
X208052857Y-115187792D01*
X208052857Y-115187792D02*
X207976667Y-115225887D01*
X207976667Y-115225887D02*
X207938572Y-115263982D01*
X207938572Y-115263982D02*
X207900476Y-115340173D01*
X206738572Y-92061125D02*
X206662382Y-92023030D01*
X206662382Y-92023030D02*
X206548096Y-92023030D01*
X206548096Y-92023030D02*
X206433810Y-92061125D01*
X206433810Y-92061125D02*
X206357620Y-92137315D01*
X206357620Y-92137315D02*
X206319525Y-92213506D01*
X206319525Y-92213506D02*
X206281429Y-92365887D01*
X206281429Y-92365887D02*
X206281429Y-92480173D01*
X206281429Y-92480173D02*
X206319525Y-92632554D01*
X206319525Y-92632554D02*
X206357620Y-92708744D01*
X206357620Y-92708744D02*
X206433810Y-92784935D01*
X206433810Y-92784935D02*
X206548096Y-92823030D01*
X206548096Y-92823030D02*
X206624287Y-92823030D01*
X206624287Y-92823030D02*
X206738572Y-92784935D01*
X206738572Y-92784935D02*
X206776668Y-92746839D01*
X206776668Y-92746839D02*
X206776668Y-92480173D01*
X206776668Y-92480173D02*
X206624287Y-92480173D01*
X207119525Y-92823030D02*
X207119525Y-92023030D01*
X207119525Y-92023030D02*
X207576668Y-92823030D01*
X207576668Y-92823030D02*
X207576668Y-92023030D01*
X207957620Y-92823030D02*
X207957620Y-92023030D01*
X207957620Y-92023030D02*
X208148096Y-92023030D01*
X208148096Y-92023030D02*
X208262382Y-92061125D01*
X208262382Y-92061125D02*
X208338572Y-92137315D01*
X208338572Y-92137315D02*
X208376667Y-92213506D01*
X208376667Y-92213506D02*
X208414763Y-92365887D01*
X208414763Y-92365887D02*
X208414763Y-92480173D01*
X208414763Y-92480173D02*
X208376667Y-92632554D01*
X208376667Y-92632554D02*
X208338572Y-92708744D01*
X208338572Y-92708744D02*
X208262382Y-92784935D01*
X208262382Y-92784935D02*
X208148096Y-92823030D01*
X208148096Y-92823030D02*
X207957620Y-92823030D01*
X215976667Y-108063030D02*
X215976667Y-107263030D01*
X215976667Y-107263030D02*
X216281429Y-107263030D01*
X216281429Y-107263030D02*
X216357619Y-107301125D01*
X216357619Y-107301125D02*
X216395714Y-107339220D01*
X216395714Y-107339220D02*
X216433810Y-107415411D01*
X216433810Y-107415411D02*
X216433810Y-107529696D01*
X216433810Y-107529696D02*
X216395714Y-107605887D01*
X216395714Y-107605887D02*
X216357619Y-107643982D01*
X216357619Y-107643982D02*
X216281429Y-107682077D01*
X216281429Y-107682077D02*
X215976667Y-107682077D01*
X216929048Y-107263030D02*
X217005238Y-107263030D01*
X217005238Y-107263030D02*
X217081429Y-107301125D01*
X217081429Y-107301125D02*
X217119524Y-107339220D01*
X217119524Y-107339220D02*
X217157619Y-107415411D01*
X217157619Y-107415411D02*
X217195714Y-107567792D01*
X217195714Y-107567792D02*
X217195714Y-107758268D01*
X217195714Y-107758268D02*
X217157619Y-107910649D01*
X217157619Y-107910649D02*
X217119524Y-107986839D01*
X217119524Y-107986839D02*
X217081429Y-108024935D01*
X217081429Y-108024935D02*
X217005238Y-108063030D01*
X217005238Y-108063030D02*
X216929048Y-108063030D01*
X216929048Y-108063030D02*
X216852857Y-108024935D01*
X216852857Y-108024935D02*
X216814762Y-107986839D01*
X216814762Y-107986839D02*
X216776667Y-107910649D01*
X216776667Y-107910649D02*
X216738571Y-107758268D01*
X216738571Y-107758268D02*
X216738571Y-107567792D01*
X216738571Y-107567792D02*
X216776667Y-107415411D01*
X216776667Y-107415411D02*
X216814762Y-107339220D01*
X216814762Y-107339220D02*
X216852857Y-107301125D01*
X216852857Y-107301125D02*
X216929048Y-107263030D01*
X217919524Y-107263030D02*
X217538572Y-107263030D01*
X217538572Y-107263030D02*
X217500476Y-107643982D01*
X217500476Y-107643982D02*
X217538572Y-107605887D01*
X217538572Y-107605887D02*
X217614762Y-107567792D01*
X217614762Y-107567792D02*
X217805238Y-107567792D01*
X217805238Y-107567792D02*
X217881429Y-107605887D01*
X217881429Y-107605887D02*
X217919524Y-107643982D01*
X217919524Y-107643982D02*
X217957619Y-107720173D01*
X217957619Y-107720173D02*
X217957619Y-107910649D01*
X217957619Y-107910649D02*
X217919524Y-107986839D01*
X217919524Y-107986839D02*
X217881429Y-108024935D01*
X217881429Y-108024935D02*
X217805238Y-108063030D01*
X217805238Y-108063030D02*
X217614762Y-108063030D01*
X217614762Y-108063030D02*
X217538572Y-108024935D01*
X217538572Y-108024935D02*
X217500476Y-107986839D01*
X215976667Y-92823030D02*
X215976667Y-92023030D01*
X215976667Y-92023030D02*
X216281429Y-92023030D01*
X216281429Y-92023030D02*
X216357619Y-92061125D01*
X216357619Y-92061125D02*
X216395714Y-92099220D01*
X216395714Y-92099220D02*
X216433810Y-92175411D01*
X216433810Y-92175411D02*
X216433810Y-92289696D01*
X216433810Y-92289696D02*
X216395714Y-92365887D01*
X216395714Y-92365887D02*
X216357619Y-92403982D01*
X216357619Y-92403982D02*
X216281429Y-92442077D01*
X216281429Y-92442077D02*
X215976667Y-92442077D01*
X216929048Y-92023030D02*
X217005238Y-92023030D01*
X217005238Y-92023030D02*
X217081429Y-92061125D01*
X217081429Y-92061125D02*
X217119524Y-92099220D01*
X217119524Y-92099220D02*
X217157619Y-92175411D01*
X217157619Y-92175411D02*
X217195714Y-92327792D01*
X217195714Y-92327792D02*
X217195714Y-92518268D01*
X217195714Y-92518268D02*
X217157619Y-92670649D01*
X217157619Y-92670649D02*
X217119524Y-92746839D01*
X217119524Y-92746839D02*
X217081429Y-92784935D01*
X217081429Y-92784935D02*
X217005238Y-92823030D01*
X217005238Y-92823030D02*
X216929048Y-92823030D01*
X216929048Y-92823030D02*
X216852857Y-92784935D01*
X216852857Y-92784935D02*
X216814762Y-92746839D01*
X216814762Y-92746839D02*
X216776667Y-92670649D01*
X216776667Y-92670649D02*
X216738571Y-92518268D01*
X216738571Y-92518268D02*
X216738571Y-92327792D01*
X216738571Y-92327792D02*
X216776667Y-92175411D01*
X216776667Y-92175411D02*
X216814762Y-92099220D01*
X216814762Y-92099220D02*
X216852857Y-92061125D01*
X216852857Y-92061125D02*
X216929048Y-92023030D01*
X217690953Y-92023030D02*
X217767143Y-92023030D01*
X217767143Y-92023030D02*
X217843334Y-92061125D01*
X217843334Y-92061125D02*
X217881429Y-92099220D01*
X217881429Y-92099220D02*
X217919524Y-92175411D01*
X217919524Y-92175411D02*
X217957619Y-92327792D01*
X217957619Y-92327792D02*
X217957619Y-92518268D01*
X217957619Y-92518268D02*
X217919524Y-92670649D01*
X217919524Y-92670649D02*
X217881429Y-92746839D01*
X217881429Y-92746839D02*
X217843334Y-92784935D01*
X217843334Y-92784935D02*
X217767143Y-92823030D01*
X217767143Y-92823030D02*
X217690953Y-92823030D01*
X217690953Y-92823030D02*
X217614762Y-92784935D01*
X217614762Y-92784935D02*
X217576667Y-92746839D01*
X217576667Y-92746839D02*
X217538572Y-92670649D01*
X217538572Y-92670649D02*
X217500476Y-92518268D01*
X217500476Y-92518268D02*
X217500476Y-92327792D01*
X217500476Y-92327792D02*
X217538572Y-92175411D01*
X217538572Y-92175411D02*
X217576667Y-92099220D01*
X217576667Y-92099220D02*
X217614762Y-92061125D01*
X217614762Y-92061125D02*
X217690953Y-92023030D01*
X206376667Y-113143030D02*
X206376667Y-112343030D01*
X206376667Y-112343030D02*
X206681429Y-112343030D01*
X206681429Y-112343030D02*
X206757619Y-112381125D01*
X206757619Y-112381125D02*
X206795714Y-112419220D01*
X206795714Y-112419220D02*
X206833810Y-112495411D01*
X206833810Y-112495411D02*
X206833810Y-112609696D01*
X206833810Y-112609696D02*
X206795714Y-112685887D01*
X206795714Y-112685887D02*
X206757619Y-112723982D01*
X206757619Y-112723982D02*
X206681429Y-112762077D01*
X206681429Y-112762077D02*
X206376667Y-112762077D01*
X207595714Y-113143030D02*
X207138571Y-113143030D01*
X207367143Y-113143030D02*
X207367143Y-112343030D01*
X207367143Y-112343030D02*
X207290952Y-112457315D01*
X207290952Y-112457315D02*
X207214762Y-112533506D01*
X207214762Y-112533506D02*
X207138571Y-112571601D01*
X208281429Y-112609696D02*
X208281429Y-113143030D01*
X208090953Y-112304935D02*
X207900476Y-112876363D01*
X207900476Y-112876363D02*
X208395715Y-112876363D01*
X206281429Y-97103030D02*
X206548096Y-97903030D01*
X206548096Y-97903030D02*
X206814762Y-97103030D01*
X207538572Y-97826839D02*
X207500476Y-97864935D01*
X207500476Y-97864935D02*
X207386191Y-97903030D01*
X207386191Y-97903030D02*
X207310000Y-97903030D01*
X207310000Y-97903030D02*
X207195714Y-97864935D01*
X207195714Y-97864935D02*
X207119524Y-97788744D01*
X207119524Y-97788744D02*
X207081429Y-97712554D01*
X207081429Y-97712554D02*
X207043333Y-97560173D01*
X207043333Y-97560173D02*
X207043333Y-97445887D01*
X207043333Y-97445887D02*
X207081429Y-97293506D01*
X207081429Y-97293506D02*
X207119524Y-97217315D01*
X207119524Y-97217315D02*
X207195714Y-97141125D01*
X207195714Y-97141125D02*
X207310000Y-97103030D01*
X207310000Y-97103030D02*
X207386191Y-97103030D01*
X207386191Y-97103030D02*
X207500476Y-97141125D01*
X207500476Y-97141125D02*
X207538572Y-97179220D01*
X208338572Y-97826839D02*
X208300476Y-97864935D01*
X208300476Y-97864935D02*
X208186191Y-97903030D01*
X208186191Y-97903030D02*
X208110000Y-97903030D01*
X208110000Y-97903030D02*
X207995714Y-97864935D01*
X207995714Y-97864935D02*
X207919524Y-97788744D01*
X207919524Y-97788744D02*
X207881429Y-97712554D01*
X207881429Y-97712554D02*
X207843333Y-97560173D01*
X207843333Y-97560173D02*
X207843333Y-97445887D01*
X207843333Y-97445887D02*
X207881429Y-97293506D01*
X207881429Y-97293506D02*
X207919524Y-97217315D01*
X207919524Y-97217315D02*
X207995714Y-97141125D01*
X207995714Y-97141125D02*
X208110000Y-97103030D01*
X208110000Y-97103030D02*
X208186191Y-97103030D01*
X208186191Y-97103030D02*
X208300476Y-97141125D01*
X208300476Y-97141125D02*
X208338572Y-97179220D01*
X215976667Y-105523030D02*
X215976667Y-104723030D01*
X215976667Y-104723030D02*
X216281429Y-104723030D01*
X216281429Y-104723030D02*
X216357619Y-104761125D01*
X216357619Y-104761125D02*
X216395714Y-104799220D01*
X216395714Y-104799220D02*
X216433810Y-104875411D01*
X216433810Y-104875411D02*
X216433810Y-104989696D01*
X216433810Y-104989696D02*
X216395714Y-105065887D01*
X216395714Y-105065887D02*
X216357619Y-105103982D01*
X216357619Y-105103982D02*
X216281429Y-105142077D01*
X216281429Y-105142077D02*
X215976667Y-105142077D01*
X216929048Y-104723030D02*
X217005238Y-104723030D01*
X217005238Y-104723030D02*
X217081429Y-104761125D01*
X217081429Y-104761125D02*
X217119524Y-104799220D01*
X217119524Y-104799220D02*
X217157619Y-104875411D01*
X217157619Y-104875411D02*
X217195714Y-105027792D01*
X217195714Y-105027792D02*
X217195714Y-105218268D01*
X217195714Y-105218268D02*
X217157619Y-105370649D01*
X217157619Y-105370649D02*
X217119524Y-105446839D01*
X217119524Y-105446839D02*
X217081429Y-105484935D01*
X217081429Y-105484935D02*
X217005238Y-105523030D01*
X217005238Y-105523030D02*
X216929048Y-105523030D01*
X216929048Y-105523030D02*
X216852857Y-105484935D01*
X216852857Y-105484935D02*
X216814762Y-105446839D01*
X216814762Y-105446839D02*
X216776667Y-105370649D01*
X216776667Y-105370649D02*
X216738571Y-105218268D01*
X216738571Y-105218268D02*
X216738571Y-105027792D01*
X216738571Y-105027792D02*
X216776667Y-104875411D01*
X216776667Y-104875411D02*
X216814762Y-104799220D01*
X216814762Y-104799220D02*
X216852857Y-104761125D01*
X216852857Y-104761125D02*
X216929048Y-104723030D01*
X217881429Y-104989696D02*
X217881429Y-105523030D01*
X217690953Y-104684935D02*
X217500476Y-105256363D01*
X217500476Y-105256363D02*
X217995715Y-105256363D01*
X215976667Y-100443030D02*
X215976667Y-99643030D01*
X215976667Y-99643030D02*
X216281429Y-99643030D01*
X216281429Y-99643030D02*
X216357619Y-99681125D01*
X216357619Y-99681125D02*
X216395714Y-99719220D01*
X216395714Y-99719220D02*
X216433810Y-99795411D01*
X216433810Y-99795411D02*
X216433810Y-99909696D01*
X216433810Y-99909696D02*
X216395714Y-99985887D01*
X216395714Y-99985887D02*
X216357619Y-100023982D01*
X216357619Y-100023982D02*
X216281429Y-100062077D01*
X216281429Y-100062077D02*
X215976667Y-100062077D01*
X216929048Y-99643030D02*
X217005238Y-99643030D01*
X217005238Y-99643030D02*
X217081429Y-99681125D01*
X217081429Y-99681125D02*
X217119524Y-99719220D01*
X217119524Y-99719220D02*
X217157619Y-99795411D01*
X217157619Y-99795411D02*
X217195714Y-99947792D01*
X217195714Y-99947792D02*
X217195714Y-100138268D01*
X217195714Y-100138268D02*
X217157619Y-100290649D01*
X217157619Y-100290649D02*
X217119524Y-100366839D01*
X217119524Y-100366839D02*
X217081429Y-100404935D01*
X217081429Y-100404935D02*
X217005238Y-100443030D01*
X217005238Y-100443030D02*
X216929048Y-100443030D01*
X216929048Y-100443030D02*
X216852857Y-100404935D01*
X216852857Y-100404935D02*
X216814762Y-100366839D01*
X216814762Y-100366839D02*
X216776667Y-100290649D01*
X216776667Y-100290649D02*
X216738571Y-100138268D01*
X216738571Y-100138268D02*
X216738571Y-99947792D01*
X216738571Y-99947792D02*
X216776667Y-99795411D01*
X216776667Y-99795411D02*
X216814762Y-99719220D01*
X216814762Y-99719220D02*
X216852857Y-99681125D01*
X216852857Y-99681125D02*
X216929048Y-99643030D01*
X217500476Y-99719220D02*
X217538572Y-99681125D01*
X217538572Y-99681125D02*
X217614762Y-99643030D01*
X217614762Y-99643030D02*
X217805238Y-99643030D01*
X217805238Y-99643030D02*
X217881429Y-99681125D01*
X217881429Y-99681125D02*
X217919524Y-99719220D01*
X217919524Y-99719220D02*
X217957619Y-99795411D01*
X217957619Y-99795411D02*
X217957619Y-99871601D01*
X217957619Y-99871601D02*
X217919524Y-99985887D01*
X217919524Y-99985887D02*
X217462381Y-100443030D01*
X217462381Y-100443030D02*
X217957619Y-100443030D01*
X206376667Y-100443030D02*
X206376667Y-99643030D01*
X206376667Y-99643030D02*
X206681429Y-99643030D01*
X206681429Y-99643030D02*
X206757619Y-99681125D01*
X206757619Y-99681125D02*
X206795714Y-99719220D01*
X206795714Y-99719220D02*
X206833810Y-99795411D01*
X206833810Y-99795411D02*
X206833810Y-99909696D01*
X206833810Y-99909696D02*
X206795714Y-99985887D01*
X206795714Y-99985887D02*
X206757619Y-100023982D01*
X206757619Y-100023982D02*
X206681429Y-100062077D01*
X206681429Y-100062077D02*
X206376667Y-100062077D01*
X207138571Y-99719220D02*
X207176667Y-99681125D01*
X207176667Y-99681125D02*
X207252857Y-99643030D01*
X207252857Y-99643030D02*
X207443333Y-99643030D01*
X207443333Y-99643030D02*
X207519524Y-99681125D01*
X207519524Y-99681125D02*
X207557619Y-99719220D01*
X207557619Y-99719220D02*
X207595714Y-99795411D01*
X207595714Y-99795411D02*
X207595714Y-99871601D01*
X207595714Y-99871601D02*
X207557619Y-99985887D01*
X207557619Y-99985887D02*
X207100476Y-100443030D01*
X207100476Y-100443030D02*
X207595714Y-100443030D01*
X208357619Y-100443030D02*
X207900476Y-100443030D01*
X208129048Y-100443030D02*
X208129048Y-99643030D01*
X208129048Y-99643030D02*
X208052857Y-99757315D01*
X208052857Y-99757315D02*
X207976667Y-99833506D01*
X207976667Y-99833506D02*
X207900476Y-99871601D01*
X216338572Y-97141125D02*
X216262382Y-97103030D01*
X216262382Y-97103030D02*
X216148096Y-97103030D01*
X216148096Y-97103030D02*
X216033810Y-97141125D01*
X216033810Y-97141125D02*
X215957620Y-97217315D01*
X215957620Y-97217315D02*
X215919525Y-97293506D01*
X215919525Y-97293506D02*
X215881429Y-97445887D01*
X215881429Y-97445887D02*
X215881429Y-97560173D01*
X215881429Y-97560173D02*
X215919525Y-97712554D01*
X215919525Y-97712554D02*
X215957620Y-97788744D01*
X215957620Y-97788744D02*
X216033810Y-97864935D01*
X216033810Y-97864935D02*
X216148096Y-97903030D01*
X216148096Y-97903030D02*
X216224287Y-97903030D01*
X216224287Y-97903030D02*
X216338572Y-97864935D01*
X216338572Y-97864935D02*
X216376668Y-97826839D01*
X216376668Y-97826839D02*
X216376668Y-97560173D01*
X216376668Y-97560173D02*
X216224287Y-97560173D01*
X216719525Y-97903030D02*
X216719525Y-97103030D01*
X216719525Y-97103030D02*
X217176668Y-97903030D01*
X217176668Y-97903030D02*
X217176668Y-97103030D01*
X217557620Y-97903030D02*
X217557620Y-97103030D01*
X217557620Y-97103030D02*
X217748096Y-97103030D01*
X217748096Y-97103030D02*
X217862382Y-97141125D01*
X217862382Y-97141125D02*
X217938572Y-97217315D01*
X217938572Y-97217315D02*
X217976667Y-97293506D01*
X217976667Y-97293506D02*
X218014763Y-97445887D01*
X218014763Y-97445887D02*
X218014763Y-97560173D01*
X218014763Y-97560173D02*
X217976667Y-97712554D01*
X217976667Y-97712554D02*
X217938572Y-97788744D01*
X217938572Y-97788744D02*
X217862382Y-97864935D01*
X217862382Y-97864935D02*
X217748096Y-97903030D01*
X217748096Y-97903030D02*
X217557620Y-97903030D01*
X215976667Y-102983030D02*
X215976667Y-102183030D01*
X215976667Y-102183030D02*
X216281429Y-102183030D01*
X216281429Y-102183030D02*
X216357619Y-102221125D01*
X216357619Y-102221125D02*
X216395714Y-102259220D01*
X216395714Y-102259220D02*
X216433810Y-102335411D01*
X216433810Y-102335411D02*
X216433810Y-102449696D01*
X216433810Y-102449696D02*
X216395714Y-102525887D01*
X216395714Y-102525887D02*
X216357619Y-102563982D01*
X216357619Y-102563982D02*
X216281429Y-102602077D01*
X216281429Y-102602077D02*
X215976667Y-102602077D01*
X216929048Y-102183030D02*
X217005238Y-102183030D01*
X217005238Y-102183030D02*
X217081429Y-102221125D01*
X217081429Y-102221125D02*
X217119524Y-102259220D01*
X217119524Y-102259220D02*
X217157619Y-102335411D01*
X217157619Y-102335411D02*
X217195714Y-102487792D01*
X217195714Y-102487792D02*
X217195714Y-102678268D01*
X217195714Y-102678268D02*
X217157619Y-102830649D01*
X217157619Y-102830649D02*
X217119524Y-102906839D01*
X217119524Y-102906839D02*
X217081429Y-102944935D01*
X217081429Y-102944935D02*
X217005238Y-102983030D01*
X217005238Y-102983030D02*
X216929048Y-102983030D01*
X216929048Y-102983030D02*
X216852857Y-102944935D01*
X216852857Y-102944935D02*
X216814762Y-102906839D01*
X216814762Y-102906839D02*
X216776667Y-102830649D01*
X216776667Y-102830649D02*
X216738571Y-102678268D01*
X216738571Y-102678268D02*
X216738571Y-102487792D01*
X216738571Y-102487792D02*
X216776667Y-102335411D01*
X216776667Y-102335411D02*
X216814762Y-102259220D01*
X216814762Y-102259220D02*
X216852857Y-102221125D01*
X216852857Y-102221125D02*
X216929048Y-102183030D01*
X217462381Y-102183030D02*
X217957619Y-102183030D01*
X217957619Y-102183030D02*
X217690953Y-102487792D01*
X217690953Y-102487792D02*
X217805238Y-102487792D01*
X217805238Y-102487792D02*
X217881429Y-102525887D01*
X217881429Y-102525887D02*
X217919524Y-102563982D01*
X217919524Y-102563982D02*
X217957619Y-102640173D01*
X217957619Y-102640173D02*
X217957619Y-102830649D01*
X217957619Y-102830649D02*
X217919524Y-102906839D01*
X217919524Y-102906839D02*
X217881429Y-102944935D01*
X217881429Y-102944935D02*
X217805238Y-102983030D01*
X217805238Y-102983030D02*
X217576667Y-102983030D01*
X217576667Y-102983030D02*
X217500476Y-102944935D01*
X217500476Y-102944935D02*
X217462381Y-102906839D01*
X206376666Y-118223030D02*
X206376666Y-117423030D01*
X206376666Y-117423030D02*
X206681428Y-117423030D01*
X206681428Y-117423030D02*
X206757618Y-117461125D01*
X206757618Y-117461125D02*
X206795713Y-117499220D01*
X206795713Y-117499220D02*
X206833809Y-117575411D01*
X206833809Y-117575411D02*
X206833809Y-117689696D01*
X206833809Y-117689696D02*
X206795713Y-117765887D01*
X206795713Y-117765887D02*
X206757618Y-117803982D01*
X206757618Y-117803982D02*
X206681428Y-117842077D01*
X206681428Y-117842077D02*
X206376666Y-117842077D01*
X207595713Y-118223030D02*
X207138570Y-118223030D01*
X207367142Y-118223030D02*
X207367142Y-117423030D01*
X207367142Y-117423030D02*
X207290951Y-117537315D01*
X207290951Y-117537315D02*
X207214761Y-117613506D01*
X207214761Y-117613506D02*
X207138570Y-117651601D01*
X208090952Y-117423030D02*
X208167142Y-117423030D01*
X208167142Y-117423030D02*
X208243333Y-117461125D01*
X208243333Y-117461125D02*
X208281428Y-117499220D01*
X208281428Y-117499220D02*
X208319523Y-117575411D01*
X208319523Y-117575411D02*
X208357618Y-117727792D01*
X208357618Y-117727792D02*
X208357618Y-117918268D01*
X208357618Y-117918268D02*
X208319523Y-118070649D01*
X208319523Y-118070649D02*
X208281428Y-118146839D01*
X208281428Y-118146839D02*
X208243333Y-118184935D01*
X208243333Y-118184935D02*
X208167142Y-118223030D01*
X208167142Y-118223030D02*
X208090952Y-118223030D01*
X208090952Y-118223030D02*
X208014761Y-118184935D01*
X208014761Y-118184935D02*
X207976666Y-118146839D01*
X207976666Y-118146839D02*
X207938571Y-118070649D01*
X207938571Y-118070649D02*
X207900475Y-117918268D01*
X207900475Y-117918268D02*
X207900475Y-117727792D01*
X207900475Y-117727792D02*
X207938571Y-117575411D01*
X207938571Y-117575411D02*
X207976666Y-117499220D01*
X207976666Y-117499220D02*
X208014761Y-117461125D01*
X208014761Y-117461125D02*
X208090952Y-117423030D01*
X206376667Y-110603030D02*
X206376667Y-109803030D01*
X206376667Y-109803030D02*
X206681429Y-109803030D01*
X206681429Y-109803030D02*
X206757619Y-109841125D01*
X206757619Y-109841125D02*
X206795714Y-109879220D01*
X206795714Y-109879220D02*
X206833810Y-109955411D01*
X206833810Y-109955411D02*
X206833810Y-110069696D01*
X206833810Y-110069696D02*
X206795714Y-110145887D01*
X206795714Y-110145887D02*
X206757619Y-110183982D01*
X206757619Y-110183982D02*
X206681429Y-110222077D01*
X206681429Y-110222077D02*
X206376667Y-110222077D01*
X207595714Y-110603030D02*
X207138571Y-110603030D01*
X207367143Y-110603030D02*
X207367143Y-109803030D01*
X207367143Y-109803030D02*
X207290952Y-109917315D01*
X207290952Y-109917315D02*
X207214762Y-109993506D01*
X207214762Y-109993506D02*
X207138571Y-110031601D01*
X208319524Y-109803030D02*
X207938572Y-109803030D01*
X207938572Y-109803030D02*
X207900476Y-110183982D01*
X207900476Y-110183982D02*
X207938572Y-110145887D01*
X207938572Y-110145887D02*
X208014762Y-110107792D01*
X208014762Y-110107792D02*
X208205238Y-110107792D01*
X208205238Y-110107792D02*
X208281429Y-110145887D01*
X208281429Y-110145887D02*
X208319524Y-110183982D01*
X208319524Y-110183982D02*
X208357619Y-110260173D01*
X208357619Y-110260173D02*
X208357619Y-110450649D01*
X208357619Y-110450649D02*
X208319524Y-110526839D01*
X208319524Y-110526839D02*
X208281429Y-110564935D01*
X208281429Y-110564935D02*
X208205238Y-110603030D01*
X208205238Y-110603030D02*
X208014762Y-110603030D01*
X208014762Y-110603030D02*
X207938572Y-110564935D01*
X207938572Y-110564935D02*
X207900476Y-110526839D01*
X215976667Y-113143030D02*
X215976667Y-112343030D01*
X215976667Y-112343030D02*
X216281429Y-112343030D01*
X216281429Y-112343030D02*
X216357619Y-112381125D01*
X216357619Y-112381125D02*
X216395714Y-112419220D01*
X216395714Y-112419220D02*
X216433810Y-112495411D01*
X216433810Y-112495411D02*
X216433810Y-112609696D01*
X216433810Y-112609696D02*
X216395714Y-112685887D01*
X216395714Y-112685887D02*
X216357619Y-112723982D01*
X216357619Y-112723982D02*
X216281429Y-112762077D01*
X216281429Y-112762077D02*
X215976667Y-112762077D01*
X216929048Y-112343030D02*
X217005238Y-112343030D01*
X217005238Y-112343030D02*
X217081429Y-112381125D01*
X217081429Y-112381125D02*
X217119524Y-112419220D01*
X217119524Y-112419220D02*
X217157619Y-112495411D01*
X217157619Y-112495411D02*
X217195714Y-112647792D01*
X217195714Y-112647792D02*
X217195714Y-112838268D01*
X217195714Y-112838268D02*
X217157619Y-112990649D01*
X217157619Y-112990649D02*
X217119524Y-113066839D01*
X217119524Y-113066839D02*
X217081429Y-113104935D01*
X217081429Y-113104935D02*
X217005238Y-113143030D01*
X217005238Y-113143030D02*
X216929048Y-113143030D01*
X216929048Y-113143030D02*
X216852857Y-113104935D01*
X216852857Y-113104935D02*
X216814762Y-113066839D01*
X216814762Y-113066839D02*
X216776667Y-112990649D01*
X216776667Y-112990649D02*
X216738571Y-112838268D01*
X216738571Y-112838268D02*
X216738571Y-112647792D01*
X216738571Y-112647792D02*
X216776667Y-112495411D01*
X216776667Y-112495411D02*
X216814762Y-112419220D01*
X216814762Y-112419220D02*
X216852857Y-112381125D01*
X216852857Y-112381125D02*
X216929048Y-112343030D01*
X217462381Y-112343030D02*
X217995715Y-112343030D01*
X217995715Y-112343030D02*
X217652857Y-113143030D01*
X206795714Y-90283030D02*
X206529047Y-89902077D01*
X206338571Y-90283030D02*
X206338571Y-89483030D01*
X206338571Y-89483030D02*
X206643333Y-89483030D01*
X206643333Y-89483030D02*
X206719523Y-89521125D01*
X206719523Y-89521125D02*
X206757618Y-89559220D01*
X206757618Y-89559220D02*
X206795714Y-89635411D01*
X206795714Y-89635411D02*
X206795714Y-89749696D01*
X206795714Y-89749696D02*
X206757618Y-89825887D01*
X206757618Y-89825887D02*
X206719523Y-89863982D01*
X206719523Y-89863982D02*
X206643333Y-89902077D01*
X206643333Y-89902077D02*
X206338571Y-89902077D01*
X207100475Y-90054458D02*
X207481428Y-90054458D01*
X207024285Y-90283030D02*
X207290952Y-89483030D01*
X207290952Y-89483030D02*
X207557618Y-90283030D01*
X207748094Y-89483030D02*
X207938570Y-90283030D01*
X207938570Y-90283030D02*
X208090951Y-89711601D01*
X208090951Y-89711601D02*
X208243332Y-90283030D01*
X208243332Y-90283030D02*
X208433809Y-89483030D01*
X206910001Y-95363030D02*
X206643334Y-94982077D01*
X206452858Y-95363030D02*
X206452858Y-94563030D01*
X206452858Y-94563030D02*
X206757620Y-94563030D01*
X206757620Y-94563030D02*
X206833810Y-94601125D01*
X206833810Y-94601125D02*
X206871905Y-94639220D01*
X206871905Y-94639220D02*
X206910001Y-94715411D01*
X206910001Y-94715411D02*
X206910001Y-94829696D01*
X206910001Y-94829696D02*
X206871905Y-94905887D01*
X206871905Y-94905887D02*
X206833810Y-94943982D01*
X206833810Y-94943982D02*
X206757620Y-94982077D01*
X206757620Y-94982077D02*
X206452858Y-94982077D01*
X207214762Y-95324935D02*
X207329048Y-95363030D01*
X207329048Y-95363030D02*
X207519524Y-95363030D01*
X207519524Y-95363030D02*
X207595715Y-95324935D01*
X207595715Y-95324935D02*
X207633810Y-95286839D01*
X207633810Y-95286839D02*
X207671905Y-95210649D01*
X207671905Y-95210649D02*
X207671905Y-95134458D01*
X207671905Y-95134458D02*
X207633810Y-95058268D01*
X207633810Y-95058268D02*
X207595715Y-95020173D01*
X207595715Y-95020173D02*
X207519524Y-94982077D01*
X207519524Y-94982077D02*
X207367143Y-94943982D01*
X207367143Y-94943982D02*
X207290953Y-94905887D01*
X207290953Y-94905887D02*
X207252858Y-94867792D01*
X207252858Y-94867792D02*
X207214762Y-94791601D01*
X207214762Y-94791601D02*
X207214762Y-94715411D01*
X207214762Y-94715411D02*
X207252858Y-94639220D01*
X207252858Y-94639220D02*
X207290953Y-94601125D01*
X207290953Y-94601125D02*
X207367143Y-94563030D01*
X207367143Y-94563030D02*
X207557620Y-94563030D01*
X207557620Y-94563030D02*
X207671905Y-94601125D01*
X207900477Y-94563030D02*
X208357620Y-94563030D01*
X208129048Y-95363030D02*
X208129048Y-94563030D01*
X215976667Y-115683030D02*
X215976667Y-114883030D01*
X215976667Y-114883030D02*
X216281429Y-114883030D01*
X216281429Y-114883030D02*
X216357619Y-114921125D01*
X216357619Y-114921125D02*
X216395714Y-114959220D01*
X216395714Y-114959220D02*
X216433810Y-115035411D01*
X216433810Y-115035411D02*
X216433810Y-115149696D01*
X216433810Y-115149696D02*
X216395714Y-115225887D01*
X216395714Y-115225887D02*
X216357619Y-115263982D01*
X216357619Y-115263982D02*
X216281429Y-115302077D01*
X216281429Y-115302077D02*
X215976667Y-115302077D01*
X216929048Y-114883030D02*
X217005238Y-114883030D01*
X217005238Y-114883030D02*
X217081429Y-114921125D01*
X217081429Y-114921125D02*
X217119524Y-114959220D01*
X217119524Y-114959220D02*
X217157619Y-115035411D01*
X217157619Y-115035411D02*
X217195714Y-115187792D01*
X217195714Y-115187792D02*
X217195714Y-115378268D01*
X217195714Y-115378268D02*
X217157619Y-115530649D01*
X217157619Y-115530649D02*
X217119524Y-115606839D01*
X217119524Y-115606839D02*
X217081429Y-115644935D01*
X217081429Y-115644935D02*
X217005238Y-115683030D01*
X217005238Y-115683030D02*
X216929048Y-115683030D01*
X216929048Y-115683030D02*
X216852857Y-115644935D01*
X216852857Y-115644935D02*
X216814762Y-115606839D01*
X216814762Y-115606839D02*
X216776667Y-115530649D01*
X216776667Y-115530649D02*
X216738571Y-115378268D01*
X216738571Y-115378268D02*
X216738571Y-115187792D01*
X216738571Y-115187792D02*
X216776667Y-115035411D01*
X216776667Y-115035411D02*
X216814762Y-114959220D01*
X216814762Y-114959220D02*
X216852857Y-114921125D01*
X216852857Y-114921125D02*
X216929048Y-114883030D01*
X217652857Y-115225887D02*
X217576667Y-115187792D01*
X217576667Y-115187792D02*
X217538572Y-115149696D01*
X217538572Y-115149696D02*
X217500476Y-115073506D01*
X217500476Y-115073506D02*
X217500476Y-115035411D01*
X217500476Y-115035411D02*
X217538572Y-114959220D01*
X217538572Y-114959220D02*
X217576667Y-114921125D01*
X217576667Y-114921125D02*
X217652857Y-114883030D01*
X217652857Y-114883030D02*
X217805238Y-114883030D01*
X217805238Y-114883030D02*
X217881429Y-114921125D01*
X217881429Y-114921125D02*
X217919524Y-114959220D01*
X217919524Y-114959220D02*
X217957619Y-115035411D01*
X217957619Y-115035411D02*
X217957619Y-115073506D01*
X217957619Y-115073506D02*
X217919524Y-115149696D01*
X217919524Y-115149696D02*
X217881429Y-115187792D01*
X217881429Y-115187792D02*
X217805238Y-115225887D01*
X217805238Y-115225887D02*
X217652857Y-115225887D01*
X217652857Y-115225887D02*
X217576667Y-115263982D01*
X217576667Y-115263982D02*
X217538572Y-115302077D01*
X217538572Y-115302077D02*
X217500476Y-115378268D01*
X217500476Y-115378268D02*
X217500476Y-115530649D01*
X217500476Y-115530649D02*
X217538572Y-115606839D01*
X217538572Y-115606839D02*
X217576667Y-115644935D01*
X217576667Y-115644935D02*
X217652857Y-115683030D01*
X217652857Y-115683030D02*
X217805238Y-115683030D01*
X217805238Y-115683030D02*
X217881429Y-115644935D01*
X217881429Y-115644935D02*
X217919524Y-115606839D01*
X217919524Y-115606839D02*
X217957619Y-115530649D01*
X217957619Y-115530649D02*
X217957619Y-115378268D01*
X217957619Y-115378268D02*
X217919524Y-115302077D01*
X217919524Y-115302077D02*
X217881429Y-115263982D01*
X217881429Y-115263982D02*
X217805238Y-115225887D01*
X215976667Y-110603030D02*
X215976667Y-109803030D01*
X215976667Y-109803030D02*
X216281429Y-109803030D01*
X216281429Y-109803030D02*
X216357619Y-109841125D01*
X216357619Y-109841125D02*
X216395714Y-109879220D01*
X216395714Y-109879220D02*
X216433810Y-109955411D01*
X216433810Y-109955411D02*
X216433810Y-110069696D01*
X216433810Y-110069696D02*
X216395714Y-110145887D01*
X216395714Y-110145887D02*
X216357619Y-110183982D01*
X216357619Y-110183982D02*
X216281429Y-110222077D01*
X216281429Y-110222077D02*
X215976667Y-110222077D01*
X216929048Y-109803030D02*
X217005238Y-109803030D01*
X217005238Y-109803030D02*
X217081429Y-109841125D01*
X217081429Y-109841125D02*
X217119524Y-109879220D01*
X217119524Y-109879220D02*
X217157619Y-109955411D01*
X217157619Y-109955411D02*
X217195714Y-110107792D01*
X217195714Y-110107792D02*
X217195714Y-110298268D01*
X217195714Y-110298268D02*
X217157619Y-110450649D01*
X217157619Y-110450649D02*
X217119524Y-110526839D01*
X217119524Y-110526839D02*
X217081429Y-110564935D01*
X217081429Y-110564935D02*
X217005238Y-110603030D01*
X217005238Y-110603030D02*
X216929048Y-110603030D01*
X216929048Y-110603030D02*
X216852857Y-110564935D01*
X216852857Y-110564935D02*
X216814762Y-110526839D01*
X216814762Y-110526839D02*
X216776667Y-110450649D01*
X216776667Y-110450649D02*
X216738571Y-110298268D01*
X216738571Y-110298268D02*
X216738571Y-110107792D01*
X216738571Y-110107792D02*
X216776667Y-109955411D01*
X216776667Y-109955411D02*
X216814762Y-109879220D01*
X216814762Y-109879220D02*
X216852857Y-109841125D01*
X216852857Y-109841125D02*
X216929048Y-109803030D01*
X217881429Y-109803030D02*
X217729048Y-109803030D01*
X217729048Y-109803030D02*
X217652857Y-109841125D01*
X217652857Y-109841125D02*
X217614762Y-109879220D01*
X217614762Y-109879220D02*
X217538572Y-109993506D01*
X217538572Y-109993506D02*
X217500476Y-110145887D01*
X217500476Y-110145887D02*
X217500476Y-110450649D01*
X217500476Y-110450649D02*
X217538572Y-110526839D01*
X217538572Y-110526839D02*
X217576667Y-110564935D01*
X217576667Y-110564935D02*
X217652857Y-110603030D01*
X217652857Y-110603030D02*
X217805238Y-110603030D01*
X217805238Y-110603030D02*
X217881429Y-110564935D01*
X217881429Y-110564935D02*
X217919524Y-110526839D01*
X217919524Y-110526839D02*
X217957619Y-110450649D01*
X217957619Y-110450649D02*
X217957619Y-110260173D01*
X217957619Y-110260173D02*
X217919524Y-110183982D01*
X217919524Y-110183982D02*
X217881429Y-110145887D01*
X217881429Y-110145887D02*
X217805238Y-110107792D01*
X217805238Y-110107792D02*
X217652857Y-110107792D01*
X217652857Y-110107792D02*
X217576667Y-110145887D01*
X217576667Y-110145887D02*
X217538572Y-110183982D01*
X217538572Y-110183982D02*
X217500476Y-110260173D01*
X206376667Y-105523030D02*
X206376667Y-104723030D01*
X206376667Y-104723030D02*
X206681429Y-104723030D01*
X206681429Y-104723030D02*
X206757619Y-104761125D01*
X206757619Y-104761125D02*
X206795714Y-104799220D01*
X206795714Y-104799220D02*
X206833810Y-104875411D01*
X206833810Y-104875411D02*
X206833810Y-104989696D01*
X206833810Y-104989696D02*
X206795714Y-105065887D01*
X206795714Y-105065887D02*
X206757619Y-105103982D01*
X206757619Y-105103982D02*
X206681429Y-105142077D01*
X206681429Y-105142077D02*
X206376667Y-105142077D01*
X207595714Y-105523030D02*
X207138571Y-105523030D01*
X207367143Y-105523030D02*
X207367143Y-104723030D01*
X207367143Y-104723030D02*
X207290952Y-104837315D01*
X207290952Y-104837315D02*
X207214762Y-104913506D01*
X207214762Y-104913506D02*
X207138571Y-104951601D01*
X207976667Y-105523030D02*
X208129048Y-105523030D01*
X208129048Y-105523030D02*
X208205238Y-105484935D01*
X208205238Y-105484935D02*
X208243334Y-105446839D01*
X208243334Y-105446839D02*
X208319524Y-105332554D01*
X208319524Y-105332554D02*
X208357619Y-105180173D01*
X208357619Y-105180173D02*
X208357619Y-104875411D01*
X208357619Y-104875411D02*
X208319524Y-104799220D01*
X208319524Y-104799220D02*
X208281429Y-104761125D01*
X208281429Y-104761125D02*
X208205238Y-104723030D01*
X208205238Y-104723030D02*
X208052857Y-104723030D01*
X208052857Y-104723030D02*
X207976667Y-104761125D01*
X207976667Y-104761125D02*
X207938572Y-104799220D01*
X207938572Y-104799220D02*
X207900476Y-104875411D01*
X207900476Y-104875411D02*
X207900476Y-105065887D01*
X207900476Y-105065887D02*
X207938572Y-105142077D01*
X207938572Y-105142077D02*
X207976667Y-105180173D01*
X207976667Y-105180173D02*
X208052857Y-105218268D01*
X208052857Y-105218268D02*
X208205238Y-105218268D01*
X208205238Y-105218268D02*
X208281429Y-105180173D01*
X208281429Y-105180173D02*
X208319524Y-105142077D01*
X208319524Y-105142077D02*
X208357619Y-105065887D01*
X215976668Y-90283030D02*
X215976668Y-89483030D01*
X215976668Y-89483030D02*
X216281430Y-89483030D01*
X216281430Y-89483030D02*
X216357620Y-89521125D01*
X216357620Y-89521125D02*
X216395715Y-89559220D01*
X216395715Y-89559220D02*
X216433811Y-89635411D01*
X216433811Y-89635411D02*
X216433811Y-89749696D01*
X216433811Y-89749696D02*
X216395715Y-89825887D01*
X216395715Y-89825887D02*
X216357620Y-89863982D01*
X216357620Y-89863982D02*
X216281430Y-89902077D01*
X216281430Y-89902077D02*
X215976668Y-89902077D01*
X216929049Y-89483030D02*
X217005239Y-89483030D01*
X217005239Y-89483030D02*
X217081430Y-89521125D01*
X217081430Y-89521125D02*
X217119525Y-89559220D01*
X217119525Y-89559220D02*
X217157620Y-89635411D01*
X217157620Y-89635411D02*
X217195715Y-89787792D01*
X217195715Y-89787792D02*
X217195715Y-89978268D01*
X217195715Y-89978268D02*
X217157620Y-90130649D01*
X217157620Y-90130649D02*
X217119525Y-90206839D01*
X217119525Y-90206839D02*
X217081430Y-90244935D01*
X217081430Y-90244935D02*
X217005239Y-90283030D01*
X217005239Y-90283030D02*
X216929049Y-90283030D01*
X216929049Y-90283030D02*
X216852858Y-90244935D01*
X216852858Y-90244935D02*
X216814763Y-90206839D01*
X216814763Y-90206839D02*
X216776668Y-90130649D01*
X216776668Y-90130649D02*
X216738572Y-89978268D01*
X216738572Y-89978268D02*
X216738572Y-89787792D01*
X216738572Y-89787792D02*
X216776668Y-89635411D01*
X216776668Y-89635411D02*
X216814763Y-89559220D01*
X216814763Y-89559220D02*
X216852858Y-89521125D01*
X216852858Y-89521125D02*
X216929049Y-89483030D01*
X217957620Y-90283030D02*
X217500477Y-90283030D01*
X217729049Y-90283030D02*
X217729049Y-89483030D01*
X217729049Y-89483030D02*
X217652858Y-89597315D01*
X217652858Y-89597315D02*
X217576668Y-89673506D01*
X217576668Y-89673506D02*
X217500477Y-89711601D01*
X206376667Y-102983030D02*
X206376667Y-102183030D01*
X206376667Y-102183030D02*
X206681429Y-102183030D01*
X206681429Y-102183030D02*
X206757619Y-102221125D01*
X206757619Y-102221125D02*
X206795714Y-102259220D01*
X206795714Y-102259220D02*
X206833810Y-102335411D01*
X206833810Y-102335411D02*
X206833810Y-102449696D01*
X206833810Y-102449696D02*
X206795714Y-102525887D01*
X206795714Y-102525887D02*
X206757619Y-102563982D01*
X206757619Y-102563982D02*
X206681429Y-102602077D01*
X206681429Y-102602077D02*
X206376667Y-102602077D01*
X207138571Y-102259220D02*
X207176667Y-102221125D01*
X207176667Y-102221125D02*
X207252857Y-102183030D01*
X207252857Y-102183030D02*
X207443333Y-102183030D01*
X207443333Y-102183030D02*
X207519524Y-102221125D01*
X207519524Y-102221125D02*
X207557619Y-102259220D01*
X207557619Y-102259220D02*
X207595714Y-102335411D01*
X207595714Y-102335411D02*
X207595714Y-102411601D01*
X207595714Y-102411601D02*
X207557619Y-102525887D01*
X207557619Y-102525887D02*
X207100476Y-102983030D01*
X207100476Y-102983030D02*
X207595714Y-102983030D01*
X208090953Y-102183030D02*
X208167143Y-102183030D01*
X208167143Y-102183030D02*
X208243334Y-102221125D01*
X208243334Y-102221125D02*
X208281429Y-102259220D01*
X208281429Y-102259220D02*
X208319524Y-102335411D01*
X208319524Y-102335411D02*
X208357619Y-102487792D01*
X208357619Y-102487792D02*
X208357619Y-102678268D01*
X208357619Y-102678268D02*
X208319524Y-102830649D01*
X208319524Y-102830649D02*
X208281429Y-102906839D01*
X208281429Y-102906839D02*
X208243334Y-102944935D01*
X208243334Y-102944935D02*
X208167143Y-102983030D01*
X208167143Y-102983030D02*
X208090953Y-102983030D01*
X208090953Y-102983030D02*
X208014762Y-102944935D01*
X208014762Y-102944935D02*
X207976667Y-102906839D01*
X207976667Y-102906839D02*
X207938572Y-102830649D01*
X207938572Y-102830649D02*
X207900476Y-102678268D01*
X207900476Y-102678268D02*
X207900476Y-102487792D01*
X207900476Y-102487792D02*
X207938572Y-102335411D01*
X207938572Y-102335411D02*
X207976667Y-102259220D01*
X207976667Y-102259220D02*
X208014762Y-102221125D01*
X208014762Y-102221125D02*
X208090953Y-102183030D01*
X216338572Y-94601125D02*
X216262382Y-94563030D01*
X216262382Y-94563030D02*
X216148096Y-94563030D01*
X216148096Y-94563030D02*
X216033810Y-94601125D01*
X216033810Y-94601125D02*
X215957620Y-94677315D01*
X215957620Y-94677315D02*
X215919525Y-94753506D01*
X215919525Y-94753506D02*
X215881429Y-94905887D01*
X215881429Y-94905887D02*
X215881429Y-95020173D01*
X215881429Y-95020173D02*
X215919525Y-95172554D01*
X215919525Y-95172554D02*
X215957620Y-95248744D01*
X215957620Y-95248744D02*
X216033810Y-95324935D01*
X216033810Y-95324935D02*
X216148096Y-95363030D01*
X216148096Y-95363030D02*
X216224287Y-95363030D01*
X216224287Y-95363030D02*
X216338572Y-95324935D01*
X216338572Y-95324935D02*
X216376668Y-95286839D01*
X216376668Y-95286839D02*
X216376668Y-95020173D01*
X216376668Y-95020173D02*
X216224287Y-95020173D01*
X216719525Y-95363030D02*
X216719525Y-94563030D01*
X216719525Y-94563030D02*
X217176668Y-95363030D01*
X217176668Y-95363030D02*
X217176668Y-94563030D01*
X217557620Y-95363030D02*
X217557620Y-94563030D01*
X217557620Y-94563030D02*
X217748096Y-94563030D01*
X217748096Y-94563030D02*
X217862382Y-94601125D01*
X217862382Y-94601125D02*
X217938572Y-94677315D01*
X217938572Y-94677315D02*
X217976667Y-94753506D01*
X217976667Y-94753506D02*
X218014763Y-94905887D01*
X218014763Y-94905887D02*
X218014763Y-95020173D01*
X218014763Y-95020173D02*
X217976667Y-95172554D01*
X217976667Y-95172554D02*
X217938572Y-95248744D01*
X217938572Y-95248744D02*
X217862382Y-95324935D01*
X217862382Y-95324935D02*
X217748096Y-95363030D01*
X217748096Y-95363030D02*
X217557620Y-95363030D01*
X199102917Y-94521662D02*
X198626726Y-94854995D01*
X199102917Y-95093090D02*
X198102917Y-95093090D01*
X198102917Y-95093090D02*
X198102917Y-94712138D01*
X198102917Y-94712138D02*
X198150536Y-94616900D01*
X198150536Y-94616900D02*
X198198155Y-94569281D01*
X198198155Y-94569281D02*
X198293393Y-94521662D01*
X198293393Y-94521662D02*
X198436250Y-94521662D01*
X198436250Y-94521662D02*
X198531488Y-94569281D01*
X198531488Y-94569281D02*
X198579107Y-94616900D01*
X198579107Y-94616900D02*
X198626726Y-94712138D01*
X198626726Y-94712138D02*
X198626726Y-95093090D01*
X199055298Y-94140709D02*
X199102917Y-93997852D01*
X199102917Y-93997852D02*
X199102917Y-93759757D01*
X199102917Y-93759757D02*
X199055298Y-93664519D01*
X199055298Y-93664519D02*
X199007678Y-93616900D01*
X199007678Y-93616900D02*
X198912440Y-93569281D01*
X198912440Y-93569281D02*
X198817202Y-93569281D01*
X198817202Y-93569281D02*
X198721964Y-93616900D01*
X198721964Y-93616900D02*
X198674345Y-93664519D01*
X198674345Y-93664519D02*
X198626726Y-93759757D01*
X198626726Y-93759757D02*
X198579107Y-93950233D01*
X198579107Y-93950233D02*
X198531488Y-94045471D01*
X198531488Y-94045471D02*
X198483869Y-94093090D01*
X198483869Y-94093090D02*
X198388631Y-94140709D01*
X198388631Y-94140709D02*
X198293393Y-94140709D01*
X198293393Y-94140709D02*
X198198155Y-94093090D01*
X198198155Y-94093090D02*
X198150536Y-94045471D01*
X198150536Y-94045471D02*
X198102917Y-93950233D01*
X198102917Y-93950233D02*
X198102917Y-93712138D01*
X198102917Y-93712138D02*
X198150536Y-93569281D01*
X198102917Y-93283566D02*
X198102917Y-92712138D01*
X199102917Y-92997852D02*
X198102917Y-92997852D01*
X315853549Y-75194433D02*
X322397085Y-76055906D01*
X316225548Y-72368815D02*
X315853549Y-75194433D01*
X319497316Y-72799551D02*
X316225548Y-72368815D01*
X319497316Y-72799551D02*
X322769084Y-73230288D01*
X321430634Y-73054078D02*
X317563998Y-72545025D01*
X322397085Y-76055906D02*
X322769084Y-73230288D01*
D13*
X81951606Y-130179142D02*
X82347713Y-130234811D01*
X82347713Y-130234811D02*
X82271168Y-130779459D01*
X82347713Y-130234811D02*
X82424258Y-129690164D01*
X82347713Y-130234811D02*
X82997543Y-129922208D01*
X82886205Y-130714423D02*
X82347713Y-130234811D01*
X82941874Y-130318315D02*
X83437008Y-130387902D01*
X82997543Y-129922208D02*
X82886205Y-130714423D01*
X158394950Y-132339019D02*
X158791057Y-132394688D01*
X158791057Y-132394688D02*
X158714512Y-132939336D01*
X158791057Y-132394688D02*
X158867602Y-131850041D01*
X158791057Y-132394688D02*
X159440887Y-132082085D01*
X159329549Y-132874300D02*
X158791057Y-132394688D01*
X159385218Y-132478192D02*
X159880352Y-132547779D01*
X159440887Y-132082085D02*
X159329549Y-132874300D01*
X316755517Y-95402004D02*
X317151624Y-95346335D01*
X317151624Y-95346335D02*
X317075079Y-94801687D01*
X317151624Y-95346335D02*
X317228169Y-95890982D01*
X317151624Y-95346335D02*
X317690116Y-94866723D01*
X317690116Y-94866723D02*
X317801454Y-95658938D01*
X317745785Y-95262831D02*
X318240919Y-95193244D01*
X317801454Y-95658938D02*
X317151624Y-95346335D01*
X285476336Y-168181580D02*
X285795791Y-168422306D01*
X285795791Y-168422306D02*
X285464792Y-168861555D01*
X285795791Y-168422306D02*
X286126789Y-167983056D01*
X285795791Y-168422306D02*
X286515696Y-168463944D01*
X286034246Y-169102847D02*
X285795791Y-168422306D01*
X286274972Y-168783395D02*
X286674290Y-169084302D01*
X286515696Y-168463944D02*
X286034246Y-169102847D01*
X248453796Y-155492561D02*
X248849903Y-155436892D01*
X248849903Y-155436892D02*
X248773358Y-154892244D01*
X248849903Y-155436892D02*
X248926448Y-155981539D01*
X248849903Y-155436892D02*
X249388395Y-154957280D01*
X249388395Y-154957280D02*
X249499733Y-155749495D01*
X249444064Y-155353388D02*
X249939198Y-155283801D01*
X249499733Y-155749495D02*
X248849903Y-155436892D01*
X177001280Y-136468710D02*
X177397387Y-136524379D01*
X177397387Y-136524379D02*
X177320842Y-137069027D01*
X177397387Y-136524379D02*
X177473932Y-135979732D01*
X177397387Y-136524379D02*
X178047217Y-136211776D01*
X177935879Y-137003991D02*
X177397387Y-136524379D01*
X177991548Y-136607883D02*
X178486682Y-136677470D01*
X178047217Y-136211776D02*
X177935879Y-137003991D01*
X118398821Y-143884996D02*
X118794928Y-143940665D01*
X118794928Y-143940665D02*
X118718383Y-144485313D01*
X118794928Y-143940665D02*
X118871473Y-143396018D01*
X118794928Y-143940665D02*
X119444758Y-143628062D01*
X119333420Y-144420277D02*
X118794928Y-143940665D01*
X119389089Y-144024169D02*
X119884223Y-144093756D01*
X119444758Y-143628062D02*
X119333420Y-144420277D01*
X279890785Y-106137056D02*
X280286892Y-106081387D01*
X280286892Y-106081387D02*
X280210347Y-105536739D01*
X280286892Y-106081387D02*
X280363437Y-106626034D01*
X280286892Y-106081387D02*
X280825384Y-105601775D01*
X280825384Y-105601775D02*
X280936722Y-106393990D01*
X280881053Y-105997883D02*
X281376187Y-105928296D01*
X280936722Y-106393990D02*
X280286892Y-106081387D01*
D12*
X203258096Y-86110735D02*
X203258096Y-119130735D01*
X203258096Y-119130735D02*
X221038096Y-119130735D01*
X205798096Y-88650735D02*
X203258096Y-88650735D01*
X205798096Y-88650735D02*
X205798096Y-91190735D01*
X205798096Y-91190735D02*
X203258096Y-91190735D01*
X221038096Y-86110735D02*
X203258096Y-86110735D01*
X221038096Y-119130735D02*
X221038096Y-86110735D01*
D13*
X103410989Y-114008338D02*
X103807096Y-114064007D01*
X103807096Y-114064007D02*
X103730551Y-114608655D01*
X103807096Y-114064007D02*
X103883641Y-113519360D01*
X103807096Y-114064007D02*
X104456926Y-113751404D01*
X104345588Y-114543619D02*
X103807096Y-114064007D01*
X104401257Y-114147511D02*
X104896391Y-114217098D01*
X104456926Y-113751404D02*
X104345588Y-114543619D01*
X126331685Y-87439716D02*
X126727792Y-87495385D01*
X126727792Y-87495385D02*
X126651247Y-88040033D01*
X126727792Y-87495385D02*
X126804337Y-86950738D01*
X126727792Y-87495385D02*
X127377622Y-87182782D01*
X127266284Y-87974997D02*
X126727792Y-87495385D01*
X127321953Y-87578889D02*
X127817087Y-87648476D01*
X127377622Y-87182782D02*
X127266284Y-87974997D01*
X137631430Y-143558482D02*
X138027537Y-143614151D01*
X138027537Y-143614151D02*
X137950992Y-144158799D01*
X138027537Y-143614151D02*
X138104082Y-143069504D01*
X138027537Y-143614151D02*
X138677367Y-143301548D01*
X138566029Y-144093763D02*
X138027537Y-143614151D01*
X138621698Y-143697655D02*
X139116832Y-143767242D01*
X138677367Y-143301548D02*
X138566029Y-144093763D01*
X162218175Y-173395672D02*
X162614282Y-173451341D01*
X162614282Y-173451341D02*
X162537737Y-173995989D01*
X162614282Y-173451341D02*
X162690827Y-172906694D01*
X162614282Y-173451341D02*
X163264112Y-173138738D01*
X163152774Y-173930953D02*
X162614282Y-173451341D01*
X163208443Y-173534845D02*
X163703577Y-173604432D01*
X163264112Y-173138738D02*
X163152774Y-173930953D01*
X277246493Y-87321963D02*
X277642600Y-87266294D01*
X277642600Y-87266294D02*
X277566055Y-86721646D01*
X277642600Y-87266294D02*
X277719145Y-87810941D01*
X277642600Y-87266294D02*
X278181092Y-86786682D01*
X278181092Y-86786682D02*
X278292430Y-87578897D01*
X278236761Y-87182790D02*
X278731895Y-87113203D01*
X278292430Y-87578897D02*
X277642600Y-87266294D01*
X285179360Y-143767244D02*
X285575467Y-143711575D01*
X285575467Y-143711575D02*
X285498922Y-143166927D01*
X285575467Y-143711575D02*
X285652012Y-144256222D01*
X285575467Y-143711575D02*
X286113959Y-143231963D01*
X286113959Y-143231963D02*
X286225297Y-144024178D01*
X286169628Y-143628071D02*
X286664762Y-143558484D01*
X286225297Y-144024178D02*
X285575467Y-143711575D01*
D12*
X196898098Y-90974043D02*
X197148098Y-90974043D01*
X196898098Y-96974043D02*
X196898098Y-90974043D01*
X196898098Y-96974043D02*
X197148098Y-96974043D01*
X200398098Y-90974043D02*
X200148098Y-90974043D01*
X200398098Y-96974043D02*
X200148098Y-96974043D01*
X200398098Y-96974043D02*
X200398098Y-90974043D01*
D13*
X260592620Y-173604428D02*
X260988727Y-173548759D01*
X260988727Y-173548759D02*
X260912182Y-173004111D01*
X260988727Y-173548759D02*
X261065272Y-174093406D01*
X260988727Y-173548759D02*
X261527219Y-173069147D01*
X261527219Y-173069147D02*
X261638557Y-173861362D01*
X261582888Y-173465255D02*
X262078022Y-173395668D01*
X261638557Y-173861362D02*
X260988727Y-173548759D01*
X338214900Y-111572806D02*
X338611007Y-111517137D01*
X338611007Y-111517137D02*
X338534462Y-110972489D01*
X338611007Y-111517137D02*
X338687552Y-112061784D01*
X338611007Y-111517137D02*
X339149499Y-111037525D01*
X339149499Y-111037525D02*
X339260837Y-111829740D01*
X339205168Y-111433633D02*
X339700302Y-111364046D01*
X339260837Y-111829740D02*
X338611007Y-111517137D01*
X304411974Y-144093759D02*
X304808081Y-144038090D01*
X304808081Y-144038090D02*
X304731536Y-143493442D01*
X304808081Y-144038090D02*
X304884626Y-144582737D01*
X304808081Y-144038090D02*
X305346573Y-143558478D01*
X305346573Y-143558478D02*
X305457911Y-144350693D01*
X305402242Y-143954586D02*
X305897376Y-143884999D01*
X305457911Y-144350693D02*
X304808081Y-144038090D01*
X243165220Y-117862377D02*
X243561327Y-117806708D01*
X243561327Y-117806708D02*
X243484782Y-117262060D01*
X243561327Y-117806708D02*
X243637872Y-118351355D01*
X243561327Y-117806708D02*
X244099819Y-117327096D01*
X244099819Y-117327096D02*
X244211157Y-118119311D01*
X244155488Y-117723204D02*
X244650622Y-117653617D01*
X244211157Y-118119311D02*
X243561327Y-117806708D01*
X259127265Y-94917590D02*
X259523372Y-94861921D01*
X259523372Y-94861921D02*
X259446827Y-94317273D01*
X259523372Y-94861921D02*
X259599917Y-95406568D01*
X259523372Y-94861921D02*
X260061864Y-94382309D01*
X260061864Y-94382309D02*
X260173202Y-95174524D01*
X260117533Y-94778417D02*
X260612667Y-94708830D01*
X260173202Y-95174524D02*
X259523372Y-94861921D01*
X145564297Y-87113203D02*
X145960404Y-87168872D01*
X145960404Y-87168872D02*
X145883859Y-87713520D01*
X145960404Y-87168872D02*
X146036949Y-86624225D01*
X145960404Y-87168872D02*
X146610234Y-86856269D01*
X146498896Y-87648484D02*
X145960404Y-87168872D01*
X146554565Y-87252376D02*
X147049699Y-87321963D01*
X146610234Y-86856269D02*
X146498896Y-87648484D01*
X84595893Y-111364048D02*
X84992000Y-111419717D01*
X84992000Y-111419717D02*
X84915455Y-111964365D01*
X84992000Y-111419717D02*
X85068545Y-110875070D01*
X84992000Y-111419717D02*
X85641830Y-111107114D01*
X85530492Y-111899329D02*
X84992000Y-111419717D01*
X85586161Y-111503221D02*
X86081295Y-111572808D01*
X85641830Y-111107114D02*
X85530492Y-111899329D01*
X174356993Y-155283801D02*
X174753100Y-155339470D01*
X174753100Y-155339470D02*
X174676555Y-155884118D01*
X174753100Y-155339470D02*
X174829645Y-154794823D01*
X174753100Y-155339470D02*
X175402930Y-155026867D01*
X175291592Y-155819082D02*
X174753100Y-155339470D01*
X175347261Y-155422974D02*
X175842395Y-155492561D01*
X175402930Y-155026867D02*
X175291592Y-155819082D01*
D12*
X224198094Y-107624045D02*
X224198094Y-115224045D01*
X224198094Y-115224045D02*
X230098094Y-115224045D01*
X224898094Y-109224044D02*
X224898096Y-107624045D01*
X224898096Y-107624045D02*
X224198094Y-107624045D01*
X225898094Y-110724048D02*
X226398094Y-110724045D01*
X226148094Y-110474045D02*
X226148094Y-110974045D01*
X229398093Y-107624045D02*
X229398094Y-109224044D01*
X229398094Y-109224044D02*
X224898094Y-109224044D01*
X230098094Y-107624045D02*
X229398093Y-107624045D01*
X230098094Y-115224045D02*
X230098094Y-107624045D01*
D13*
X121043106Y-125069909D02*
X121439213Y-125125578D01*
X121439213Y-125125578D02*
X121362668Y-125670226D01*
X121439213Y-125125578D02*
X121515758Y-124580931D01*
X121439213Y-125125578D02*
X122089043Y-124812975D01*
X121977705Y-125605190D02*
X121439213Y-125125578D01*
X122033374Y-125209082D02*
X122528508Y-125278669D01*
X122089043Y-124812975D02*
X121977705Y-125605190D01*
X155750662Y-151154108D02*
X156146769Y-151209777D01*
X156146769Y-151209777D02*
X156070224Y-151754425D01*
X156146769Y-151209777D02*
X156223314Y-150665130D01*
X156146769Y-151209777D02*
X156796599Y-150897174D01*
X156685261Y-151689389D02*
X156146769Y-151209777D01*
X156740930Y-151293281D02*
X157236064Y-151362868D01*
X156796599Y-150897174D02*
X156685261Y-151689389D01*
X87240180Y-92548955D02*
X87636287Y-92604624D01*
X87636287Y-92604624D02*
X87559742Y-93149272D01*
X87636287Y-92604624D02*
X87712832Y-92059977D01*
X87636287Y-92604624D02*
X88286117Y-92292021D01*
X88174779Y-93084236D02*
X87636287Y-92604624D01*
X88230448Y-92688128D02*
X88725582Y-92757715D01*
X88286117Y-92292021D02*
X88174779Y-93084236D01*
X98122409Y-151638522D02*
X98518516Y-151694191D01*
X98518516Y-151694191D02*
X98441971Y-152238839D01*
X98518516Y-151694191D02*
X98595061Y-151149544D01*
X98518516Y-151694191D02*
X99168346Y-151381588D01*
X99057008Y-152173803D02*
X98518516Y-151694191D01*
X99112677Y-151777695D02*
X99607811Y-151847282D01*
X99168346Y-151381588D02*
X99057008Y-152173803D01*
X296479105Y-87648474D02*
X296875212Y-87592805D01*
X296875212Y-87592805D02*
X296798667Y-87048157D01*
X296875212Y-87592805D02*
X296951757Y-88137452D01*
X296875212Y-87592805D02*
X297413704Y-87113193D01*
X297413704Y-87113193D02*
X297525042Y-87905408D01*
X297469373Y-87509301D02*
X297964507Y-87439714D01*
X297525042Y-87905408D02*
X296875212Y-87592805D01*
X179645573Y-117653616D02*
X180041680Y-117709285D01*
X180041680Y-117709285D02*
X179965135Y-118253933D01*
X180041680Y-117709285D02*
X180118225Y-117164638D01*
X180041680Y-117709285D02*
X180691510Y-117396682D01*
X180580172Y-118188897D02*
X180041680Y-117709285D01*
X180635841Y-117792789D02*
X181130975Y-117862376D01*
X180691510Y-117396682D02*
X180580172Y-118188897D01*
X123687394Y-106254809D02*
X124083501Y-106310478D01*
X124083501Y-106310478D02*
X124006956Y-106855126D01*
X124083501Y-106310478D02*
X124160046Y-105765831D01*
X124083501Y-106310478D02*
X124733331Y-105997875D01*
X124621993Y-106790090D02*
X124083501Y-106310478D01*
X124677662Y-106393982D02*
X125172796Y-106463569D01*
X124733331Y-105997875D02*
X124621993Y-106790090D01*
X264415845Y-132547777D02*
X264811952Y-132492108D01*
X264811952Y-132492108D02*
X264735407Y-131947460D01*
X264811952Y-132492108D02*
X264888497Y-133036755D01*
X264811952Y-132492108D02*
X265350444Y-132012496D01*
X265350444Y-132012496D02*
X265461782Y-132804711D01*
X265406113Y-132408604D02*
X265901247Y-132339017D01*
X265461782Y-132804711D02*
X264811952Y-132492108D01*
X335570611Y-92757717D02*
X335966718Y-92702048D01*
X335966718Y-92702048D02*
X335890173Y-92157400D01*
X335966718Y-92702048D02*
X336043263Y-93246695D01*
X335966718Y-92702048D02*
X336505210Y-92222436D01*
X336505210Y-92222436D02*
X336616548Y-93014651D01*
X336560879Y-92618544D02*
X337056013Y-92548957D01*
X336616548Y-93014651D02*
X335966718Y-92702048D01*
X240520935Y-99047283D02*
X240917042Y-98991614D01*
X240917042Y-98991614D02*
X240840497Y-98446966D01*
X240917042Y-98991614D02*
X240993587Y-99536261D01*
X240917042Y-98991614D02*
X241455534Y-98512002D01*
X241455534Y-98512002D02*
X241566872Y-99304217D01*
X241511203Y-98908110D02*
X242006337Y-98838523D01*
X241566872Y-99304217D02*
X240917042Y-98991614D01*
X182289859Y-98838521D02*
X182685966Y-98894190D01*
X182685966Y-98894190D02*
X182609421Y-99438838D01*
X182685966Y-98894190D02*
X182762511Y-98349543D01*
X182685966Y-98894190D02*
X183335796Y-98581587D01*
X183224458Y-99373802D02*
X182685966Y-98894190D01*
X183280127Y-98977694D02*
X183775261Y-99047281D01*
X183335796Y-98581587D02*
X183224458Y-99373802D01*
X140275722Y-124743387D02*
X140671829Y-124799056D01*
X140671829Y-124799056D02*
X140595284Y-125343704D01*
X140671829Y-124799056D02*
X140748374Y-124254409D01*
X140671829Y-124799056D02*
X141321659Y-124486453D01*
X141210321Y-125278668D02*
X140671829Y-124799056D01*
X141265990Y-124882560D02*
X141761124Y-124952147D01*
X141321659Y-124486453D02*
X141210321Y-125278668D01*
X261771555Y-113732683D02*
X262167662Y-113677014D01*
X262167662Y-113677014D02*
X262091117Y-113132366D01*
X262167662Y-113677014D02*
X262244207Y-114221661D01*
X262167662Y-113677014D02*
X262706154Y-113197402D01*
X262706154Y-113197402D02*
X262817492Y-113989617D01*
X262761823Y-113593510D02*
X263256957Y-113523923D01*
X262817492Y-113989617D02*
X262167662Y-113677014D01*
X100766696Y-132823429D02*
X101162803Y-132879098D01*
X101162803Y-132879098D02*
X101086258Y-133423746D01*
X101162803Y-132879098D02*
X101239348Y-132334451D01*
X101162803Y-132879098D02*
X101812633Y-132566495D01*
X101701295Y-133358710D02*
X101162803Y-132879098D01*
X101756964Y-132962602D02*
X102252098Y-133032189D01*
X101812633Y-132566495D02*
X101701295Y-133358710D01*
X163683528Y-94708833D02*
X164079635Y-94764502D01*
X164079635Y-94764502D02*
X164003090Y-95309150D01*
X164079635Y-94764502D02*
X164156180Y-94219855D01*
X164079635Y-94764502D02*
X164729465Y-94451899D01*
X164618127Y-95244114D02*
X164079635Y-94764502D01*
X164673796Y-94848006D02*
X165168930Y-94917593D01*
X164729465Y-94451899D02*
X164618127Y-95244114D01*
X322044094Y-133032189D02*
X322440201Y-132976520D01*
X322440201Y-132976520D02*
X322363656Y-132431872D01*
X322440201Y-132976520D02*
X322516746Y-133521167D01*
X322440201Y-132976520D02*
X322978693Y-132496908D01*
X322978693Y-132496908D02*
X323090031Y-133289123D01*
X323034362Y-132893016D02*
X323529496Y-132823429D01*
X323090031Y-133289123D02*
X322440201Y-132976520D01*
X299123395Y-106463569D02*
X299519502Y-106407900D01*
X299519502Y-106407900D02*
X299442957Y-105863252D01*
X299519502Y-106407900D02*
X299596047Y-106952547D01*
X299519502Y-106407900D02*
X300057994Y-105928288D01*
X300057994Y-105928288D02*
X300169332Y-106720503D01*
X300113663Y-106324396D02*
X300608797Y-106254809D01*
X300169332Y-106720503D02*
X299519502Y-106407900D01*
X340859190Y-130387900D02*
X341255297Y-130332231D01*
X341255297Y-130332231D02*
X341178752Y-129787583D01*
X341255297Y-130332231D02*
X341331842Y-130876878D01*
X341255297Y-130332231D02*
X341793789Y-129852619D01*
X341793789Y-129852619D02*
X341905127Y-130644834D01*
X341849458Y-130248727D02*
X342344592Y-130179140D01*
X341905127Y-130644834D02*
X341255297Y-130332231D01*
X282535069Y-124952148D02*
X282931176Y-124896479D01*
X282931176Y-124896479D02*
X282854631Y-124351831D01*
X282931176Y-124896479D02*
X283007721Y-125441126D01*
X282931176Y-124896479D02*
X283469668Y-124416867D01*
X283469668Y-124416867D02*
X283581006Y-125209082D01*
X283525337Y-124812975D02*
X284020471Y-124743388D01*
X283581006Y-125209082D02*
X282931176Y-124896479D01*
X319399806Y-114217096D02*
X319795913Y-114161427D01*
X319795913Y-114161427D02*
X319719368Y-113616779D01*
X319795913Y-114161427D02*
X319872458Y-114706074D01*
X319795913Y-114161427D02*
X320334405Y-113681815D01*
X320334405Y-113681815D02*
X320445743Y-114474030D01*
X320390074Y-114077923D02*
X320885208Y-114008336D01*
X320445743Y-114474030D02*
X319795913Y-114161427D01*
X161039237Y-113523923D02*
X161435344Y-113579592D01*
X161435344Y-113579592D02*
X161358799Y-114124240D01*
X161435344Y-113579592D02*
X161511889Y-113034945D01*
X161435344Y-113579592D02*
X162085174Y-113266989D01*
X161973836Y-114059204D02*
X161435344Y-113579592D01*
X162029505Y-113663096D02*
X162524639Y-113732683D01*
X162085174Y-113266989D02*
X161973836Y-114059204D01*
X245809507Y-136677468D02*
X246205614Y-136621799D01*
X246205614Y-136621799D02*
X246129069Y-136077151D01*
X246205614Y-136621799D02*
X246282159Y-137166446D01*
X246205614Y-136621799D02*
X246744106Y-136142187D01*
X246744106Y-136142187D02*
X246855444Y-136934402D01*
X246799775Y-136538295D02*
X247294909Y-136468708D01*
X246855444Y-136934402D02*
X246205614Y-136621799D01*
X301767686Y-125278666D02*
X302163793Y-125222997D01*
X302163793Y-125222997D02*
X302087248Y-124678349D01*
X302163793Y-125222997D02*
X302240338Y-125767644D01*
X302163793Y-125222997D02*
X302702285Y-124743385D01*
X302702285Y-124743385D02*
X302813623Y-125535600D01*
X302757954Y-125139493D02*
X303253088Y-125069906D01*
X302813623Y-125535600D02*
X302163793Y-125222997D01*
X324688381Y-151847283D02*
X325084488Y-151791614D01*
X325084488Y-151791614D02*
X325007943Y-151246966D01*
X325084488Y-151791614D02*
X325161033Y-152336261D01*
X325084488Y-151791614D02*
X325622980Y-151312002D01*
X325622980Y-151312002D02*
X325734318Y-152104217D01*
X325678649Y-151708110D02*
X326173783Y-151638523D01*
X325734318Y-152104217D02*
X325084488Y-151791614D01*
X234135727Y-182878598D02*
X234488906Y-182690809D01*
X234488906Y-182690809D02*
X234230697Y-182205188D01*
X234488906Y-182690809D02*
X234747116Y-183176430D01*
X234488906Y-182690809D02*
X234830884Y-182055947D01*
X234830884Y-182055947D02*
X235206464Y-182762305D01*
X235018675Y-182409126D02*
X235460149Y-182174390D01*
X235206464Y-182762305D02*
X234488906Y-182690809D01*
X142920009Y-105928294D02*
X143316116Y-105983963D01*
X143316116Y-105983963D02*
X143239571Y-106528611D01*
X143316116Y-105983963D02*
X143392661Y-105439316D01*
X143316116Y-105983963D02*
X143965946Y-105671360D01*
X143854608Y-106463575D02*
X143316116Y-105983963D01*
X143910277Y-106067467D02*
X144405411Y-106137054D01*
X143965946Y-105671360D02*
X143854608Y-106463575D01*
X267060131Y-151362871D02*
X267456238Y-151307202D01*
X267456238Y-151307202D02*
X267379693Y-150762554D01*
X267456238Y-151307202D02*
X267532783Y-151851849D01*
X267456238Y-151307202D02*
X267994730Y-150827590D01*
X267994730Y-150827590D02*
X268106068Y-151619805D01*
X268050399Y-151223698D02*
X268545533Y-151154111D01*
X268106068Y-151619805D02*
X267456238Y-151307202D01*
X137621903Y-169084302D02*
X137941358Y-168843576D01*
X137941358Y-168843576D02*
X137610359Y-168404327D01*
X137941358Y-168843576D02*
X138179813Y-168163035D01*
X137941358Y-168843576D02*
X138272356Y-169282826D01*
X138179813Y-168163035D02*
X138661263Y-168801939D01*
X138420539Y-168482487D02*
X138819857Y-168181580D01*
X138661263Y-168801939D02*
X137941358Y-168843576D01*
X188836045Y-182174392D02*
X189189224Y-182362181D01*
X189189224Y-182362181D02*
X188931015Y-182847802D01*
X189189224Y-182362181D02*
X189447434Y-181876560D01*
X189189224Y-182362181D02*
X189906782Y-182290685D01*
X189531201Y-182997043D02*
X189189224Y-182362181D01*
X189718993Y-182643864D02*
X190160467Y-182878600D01*
X189906782Y-182290685D02*
X189531201Y-182997043D01*
X106055273Y-95193243D02*
X106451380Y-95248912D01*
X106451380Y-95248912D02*
X106374835Y-95793560D01*
X106451380Y-95248912D02*
X106527925Y-94704265D01*
X106451380Y-95248912D02*
X107101210Y-94936309D01*
X106989872Y-95728524D02*
X106451380Y-95248912D01*
X107045541Y-95332416D02*
X107540675Y-95402003D01*
X107101210Y-94936309D02*
X106989872Y-95728524D01*
D14*
X204528096Y-89920735D03*
D15*
X204528096Y-92460735D03*
X204528096Y-95000735D03*
X204528097Y-97540735D03*
X204528096Y-100080735D03*
X204528093Y-102620735D03*
X204528093Y-105160735D03*
X204528096Y-107700735D03*
X204528097Y-110240735D03*
X204528096Y-112780735D03*
X204528096Y-115320735D03*
X204528096Y-117860735D03*
X219768096Y-89920735D03*
X219768096Y-92460735D03*
X219768096Y-95000735D03*
X219768095Y-97540735D03*
X219768096Y-100080735D03*
X219768099Y-102620735D03*
X219768099Y-105160735D03*
X219768096Y-107700735D03*
X219768095Y-110240735D03*
X219768096Y-112780735D03*
X219768096Y-115320735D03*
X219768096Y-117860735D03*
%LPC*%
D16*
X315796339Y-72564466D03*
X315509181Y-74745644D03*
D17*
X317833939Y-73942213D03*
X320808273Y-74333791D03*
D16*
X323133031Y-73530360D03*
X322845873Y-75711538D03*
D18*
X321281015Y-76488934D03*
X318306682Y-76097355D03*
X316819513Y-75901566D03*
D19*
X317102121Y-128980547D03*
D20*
X318006262Y-126288519D03*
D21*
X322132683Y-128273550D03*
D20*
X323940965Y-122889492D03*
D19*
X327163245Y-127566553D03*
X158168515Y-168080338D03*
D20*
X164443069Y-162953695D03*
D22*
X163614989Y-168845790D03*
D20*
X169088227Y-165828150D03*
D19*
X169061463Y-169611242D03*
X335917213Y-126336259D03*
D20*
X336821354Y-123644231D03*
D21*
X340947775Y-125629262D03*
D20*
X342756057Y-120245204D03*
D19*
X345978337Y-124922265D03*
D23*
X78921384Y-129753271D03*
D24*
X81060365Y-130053886D03*
X84328249Y-130513158D03*
D25*
X86467230Y-130813773D03*
D19*
X138870351Y-100612962D03*
D20*
X145144905Y-95486319D03*
D22*
X144316825Y-101378414D03*
D20*
X149790063Y-98360774D03*
D19*
X149763299Y-102143866D03*
X99777241Y-108751458D03*
D20*
X101388381Y-106412925D03*
D21*
X104807803Y-109458455D03*
D20*
X108030083Y-104781395D03*
D19*
X109838365Y-110165452D03*
X254185292Y-90865947D03*
D20*
X255089433Y-88173919D03*
D21*
X259215854Y-90158950D03*
D20*
X261024136Y-84774892D03*
D19*
X264246416Y-89451953D03*
D23*
X155364728Y-131913148D03*
D24*
X157503709Y-132213763D03*
X160771593Y-132673035D03*
D25*
X162910574Y-132973650D03*
D26*
X313725295Y-95827875D03*
D27*
X315864276Y-95527260D03*
X319132160Y-95067988D03*
D25*
X321271141Y-94767373D03*
D19*
X299054086Y-140100571D03*
D20*
X303672480Y-133443024D03*
D22*
X304500560Y-139335119D03*
D20*
X308930001Y-134925750D03*
D19*
X309947034Y-138569667D03*
X160049778Y-89451953D03*
D20*
X161660918Y-87113420D03*
D21*
X165080340Y-90158950D03*
D20*
X168302620Y-85481890D03*
D19*
X170110902Y-90865947D03*
X316686209Y-129039002D03*
D20*
X321304603Y-122381455D03*
D22*
X322132683Y-128273550D03*
D20*
X326562124Y-123864181D03*
D19*
X327579157Y-127508098D03*
X335501301Y-126394714D03*
D20*
X340119695Y-119737167D03*
D22*
X340947775Y-125629262D03*
D20*
X345377216Y-121219893D03*
D19*
X346394249Y-124863810D03*
X117409360Y-119813030D03*
D20*
X119020500Y-117474497D03*
D21*
X122439922Y-120520027D03*
D20*
X125662202Y-115842967D03*
D19*
X127470484Y-121227024D03*
D28*
X283032512Y-166340026D03*
D29*
X284757564Y-167639948D03*
X287393062Y-169625934D03*
D25*
X289118114Y-170925856D03*
D26*
X245423574Y-155918432D03*
D27*
X247562555Y-155617817D03*
X250830439Y-155158545D03*
D25*
X252969420Y-154857930D03*
D19*
X116993448Y-119754575D03*
D20*
X123268002Y-114627932D03*
D22*
X122439922Y-120520027D03*
D20*
X127913160Y-117502387D03*
D19*
X127886396Y-121285479D03*
D23*
X173971058Y-136042839D03*
D24*
X176110039Y-136343454D03*
X179377923Y-136802726D03*
D25*
X181516904Y-137103341D03*
D23*
X115368599Y-143459125D03*
D24*
X117507580Y-143759740D03*
X120775464Y-144219012D03*
D25*
X122914445Y-144519627D03*
D19*
X119637736Y-100939482D03*
D20*
X125912290Y-95812839D03*
D22*
X125084210Y-101704934D03*
D20*
X130557448Y-98687294D03*
D19*
X130530684Y-102470386D03*
X99361329Y-108693003D03*
D20*
X105635883Y-103566360D03*
D22*
X104807803Y-109458455D03*
D20*
X110281041Y-106440815D03*
D19*
X110254277Y-110223907D03*
X170723246Y-150026922D03*
D20*
X172334386Y-147688389D03*
D21*
X175753808Y-150733919D03*
D20*
X178976088Y-146056859D03*
D19*
X180784370Y-151440916D03*
D26*
X276860563Y-106562927D03*
D27*
X278999544Y-106262312D03*
X282267428Y-105803040D03*
D25*
X284406409Y-105502425D03*
D19*
X271888608Y-83328774D03*
D20*
X276507002Y-76671227D03*
D22*
X277335082Y-82563322D03*
D20*
X281764523Y-78153953D03*
D19*
X282781556Y-81797870D03*
X136226062Y-119428057D03*
D20*
X142500616Y-114301414D03*
D22*
X141672536Y-120193509D03*
D20*
X147145774Y-117175869D03*
D19*
X147119010Y-120958961D03*
D14*
X204528096Y-89920735D03*
D15*
X204528096Y-92460735D03*
X204528096Y-95000735D03*
X204528097Y-97540735D03*
X204528096Y-100080735D03*
X204528093Y-102620735D03*
X204528093Y-105160735D03*
X204528096Y-107700735D03*
X204528097Y-110240735D03*
X204528096Y-112780735D03*
X204528096Y-115320735D03*
X204528096Y-117860735D03*
X219768096Y-89920735D03*
X219768096Y-92460735D03*
X219768096Y-95000735D03*
X219768095Y-97540735D03*
X219768096Y-100080735D03*
X219768099Y-102620735D03*
X219768099Y-105160735D03*
X219768096Y-107700735D03*
X219768095Y-110240735D03*
X219768096Y-112780735D03*
X219768096Y-115320735D03*
X219768096Y-117860735D03*
D30*
X215948096Y-121716737D03*
D31*
X213408098Y-121716735D03*
X210868096Y-121716735D03*
X208328096Y-121716735D03*
D19*
X291121219Y-83655288D03*
D20*
X295739613Y-76997741D03*
D22*
X296567693Y-82889836D03*
D20*
X300997134Y-78480467D03*
D19*
X302014167Y-82124384D03*
D23*
X100380767Y-113582467D03*
D24*
X102519748Y-113883082D03*
X105787632Y-114342354D03*
D25*
X107926613Y-114642969D03*
D19*
X141930553Y-81856328D03*
D20*
X143541693Y-79517795D03*
D21*
X146961115Y-82563325D03*
D20*
X150183395Y-77886265D03*
D19*
X151991677Y-83270322D03*
X296409796Y-121285479D03*
D20*
X301028190Y-114627932D03*
D22*
X301856270Y-120520027D03*
D20*
X306285711Y-116110658D03*
D19*
X307302744Y-119754575D03*
X178656113Y-93581643D03*
D20*
X180267253Y-91243110D03*
D21*
X183686675Y-94288640D03*
D20*
X186908955Y-89611580D03*
D19*
X188717237Y-94995637D03*
X158584427Y-168138793D03*
D20*
X160195567Y-165800260D03*
D21*
X163614989Y-168845790D03*
D20*
X166837269Y-164168730D03*
D19*
X168645551Y-169552787D03*
D32*
X314294847Y-138968449D03*
X314611041Y-137745818D03*
X314935794Y-140056561D03*
X315699153Y-137104871D03*
D33*
X315928789Y-138738813D03*
D32*
X316158425Y-140372755D03*
X316921784Y-137421065D03*
X317246537Y-139731808D03*
X317562731Y-138509177D03*
D23*
X123301463Y-87013845D03*
D24*
X125440444Y-87314460D03*
X128708328Y-87773732D03*
D25*
X130847309Y-88074347D03*
D23*
X134601208Y-143132611D03*
D24*
X136740189Y-143433226D03*
X140008073Y-143892498D03*
D25*
X142147054Y-144193113D03*
D19*
X333272922Y-107521166D03*
D20*
X334177063Y-104829138D03*
D21*
X338303484Y-106814169D03*
D20*
X340111766Y-101430111D03*
D19*
X343334046Y-106107172D03*
X240451623Y-132684279D03*
D20*
X245070017Y-126026732D03*
D22*
X245898097Y-131918827D03*
D20*
X250327538Y-127509458D03*
D19*
X251344571Y-131153375D03*
D23*
X159187953Y-172969801D03*
D24*
X161326934Y-173270416D03*
X164594818Y-173729688D03*
D25*
X166733799Y-174030303D03*
D26*
X274216271Y-87747834D03*
D27*
X276355252Y-87447219D03*
X279623136Y-86987947D03*
D25*
X281762117Y-86687332D03*
D19*
X187219401Y-175991724D03*
D20*
X189533202Y-174345267D03*
D21*
X191704775Y-178376640D03*
D20*
X196332377Y-175083724D03*
D19*
X196190149Y-180761556D03*
D26*
X282149138Y-144193115D03*
D27*
X284288119Y-143892500D03*
X287556003Y-143433228D03*
D25*
X289694984Y-143132613D03*
D32*
X164051247Y-153885913D03*
X164692194Y-152797801D03*
X164367441Y-155108544D03*
X165914825Y-152481607D03*
D33*
X165685189Y-154115549D03*
D32*
X165455553Y-155749491D03*
X167002937Y-153122554D03*
X166678184Y-155433297D03*
X167319131Y-154345185D03*
D19*
X102421529Y-89936367D03*
D20*
X104032669Y-87597834D03*
D21*
X107452091Y-90643364D03*
D20*
X110674371Y-85966304D03*
D19*
X112482653Y-91350361D03*
D34*
X198648098Y-90724043D03*
X198648098Y-97224043D03*
D19*
X293765509Y-102470383D03*
D20*
X298383903Y-95812836D03*
D22*
X299211983Y-101704931D03*
D20*
X303641424Y-97295562D03*
D19*
X304658457Y-100939479D03*
X262118159Y-147311228D03*
D20*
X263022300Y-144619200D03*
D21*
X267148721Y-146604231D03*
D20*
X268957003Y-141220173D03*
D19*
X272179283Y-145897234D03*
X274948806Y-102085412D03*
D20*
X275852947Y-99393384D03*
D21*
X279979368Y-101378415D03*
D20*
X281787650Y-95994357D03*
D19*
X285009930Y-100671418D03*
X272304520Y-83270319D03*
D20*
X273208661Y-80578291D03*
D21*
X277335082Y-82563322D03*
D20*
X279143364Y-77179264D03*
D19*
X282365644Y-81856325D03*
X274532894Y-102143867D03*
D20*
X279151288Y-95486320D03*
D22*
X279979368Y-101378415D03*
D20*
X284408809Y-96969046D03*
D19*
X285425842Y-100612963D03*
X314041919Y-110223907D03*
D20*
X318660313Y-103566360D03*
D22*
X319488393Y-109458455D03*
D20*
X323917834Y-105049086D03*
D19*
X324934867Y-108693003D03*
X170307334Y-149968467D03*
D20*
X176581888Y-144841824D03*
D22*
X175753808Y-150733919D03*
D20*
X181227046Y-147716279D03*
D19*
X181200282Y-151499371D03*
D26*
X257562398Y-174030299D03*
D27*
X259701379Y-173729684D03*
X262969263Y-173270412D03*
D25*
X265108244Y-172969797D03*
D19*
X259057957Y-128554590D03*
D20*
X263676351Y-121897043D03*
D22*
X264504431Y-127789138D03*
D20*
X268933872Y-123379769D03*
D19*
X269950905Y-127023686D03*
X186848563Y-175794546D03*
D20*
X194498131Y-173123102D03*
D22*
X191704775Y-178376640D03*
D20*
X197880031Y-177412944D03*
D19*
X196560987Y-180958734D03*
D26*
X335184678Y-111998677D03*
D27*
X337323659Y-111698062D03*
X340591543Y-111238790D03*
D25*
X342730524Y-110938175D03*
D26*
X301381752Y-144519630D03*
D27*
X303520733Y-144219015D03*
X306788617Y-143759743D03*
D25*
X308927598Y-143459128D03*
D19*
X159633866Y-89393498D03*
D20*
X165908420Y-84266855D03*
D22*
X165080340Y-90158950D03*
D20*
X170553578Y-87141310D03*
D19*
X170526814Y-90924402D03*
D26*
X240134998Y-118288248D03*
D27*
X242273979Y-117987633D03*
X245541863Y-117528361D03*
D25*
X247680844Y-117227746D03*
D19*
X80546233Y-106048715D03*
D20*
X86820787Y-100922072D03*
D22*
X85992707Y-106814167D03*
D20*
X91465945Y-103796527D03*
D19*
X91439181Y-107579619D03*
X228106044Y-180761560D03*
D20*
X228034930Y-177922644D03*
D21*
X232591418Y-178376644D03*
D20*
X232449189Y-172698812D03*
D19*
X237076792Y-175991728D03*
X296825708Y-121227024D03*
D20*
X297729849Y-118534996D03*
D21*
X301856270Y-120520027D03*
D20*
X303664552Y-115135969D03*
D19*
X306886832Y-119813030D03*
X277177185Y-120958962D03*
D20*
X281795579Y-114301415D03*
D22*
X282623659Y-120193510D03*
D20*
X287053100Y-115784141D03*
D19*
X288070133Y-119428058D03*
X311397632Y-91408816D03*
D20*
X316016026Y-84751269D03*
D22*
X316844106Y-90643364D03*
D20*
X321273547Y-86233995D03*
D19*
X322290580Y-89877912D03*
D26*
X256097043Y-95343461D03*
D27*
X258236024Y-95042846D03*
X261503908Y-94583574D03*
D25*
X263642889Y-94282959D03*
D19*
X256413668Y-109739498D03*
D20*
X261032062Y-103081951D03*
D22*
X261860142Y-108974046D03*
D20*
X266289583Y-104564677D03*
D19*
X267306616Y-108208594D03*
X243095914Y-151499376D03*
D20*
X247714308Y-144841829D03*
D22*
X248542388Y-150733924D03*
D20*
X252971829Y-146324555D03*
D19*
X253988862Y-149968472D03*
X154761202Y-127082138D03*
D20*
X156372342Y-124743605D03*
D21*
X159791764Y-127789135D03*
D20*
X163014044Y-123112075D03*
D19*
X164822326Y-128496132D03*
X284846774Y-161822136D03*
D20*
X287389649Y-160557907D03*
D21*
X288903842Y-164879356D03*
D20*
X293989597Y-162350896D03*
D19*
X292960910Y-167936576D03*
X130999853Y-168189337D03*
D20*
X131811549Y-160127473D03*
D22*
X135392348Y-164879354D03*
D20*
X137128718Y-158875398D03*
D19*
X139784843Y-161569371D03*
X156989577Y-108208593D03*
D20*
X163264131Y-103081950D03*
D22*
X162436051Y-108974045D03*
D20*
X167909289Y-105956405D03*
D19*
X167882525Y-109739497D03*
X314457831Y-110165452D03*
D20*
X315361972Y-107473424D03*
D21*
X319488393Y-109458455D03*
D20*
X321296675Y-104074397D03*
D19*
X324518955Y-108751458D03*
X97132953Y-127566554D03*
D20*
X98744093Y-125228021D03*
D21*
X102163515Y-128273551D03*
D20*
X105385795Y-123596491D03*
D19*
X107194077Y-128980548D03*
X256829580Y-109681043D03*
D20*
X257733721Y-106989015D03*
D21*
X261860142Y-108974046D03*
D20*
X263668424Y-103589988D03*
D19*
X266890704Y-108267049D03*
X255650641Y-169552787D03*
D20*
X256554782Y-166860759D03*
D21*
X260681203Y-168845790D03*
D20*
X262489485Y-163461732D03*
D19*
X265711765Y-168138793D03*
X141514641Y-81797873D03*
D20*
X147789195Y-76671230D03*
D22*
X146961115Y-82563325D03*
D20*
X152434353Y-79545685D03*
D19*
X152407589Y-83328777D03*
X173367534Y-131211835D03*
D20*
X174978674Y-128873302D03*
D21*
X178398096Y-131918832D03*
D20*
X181620376Y-127241772D03*
D19*
X183428658Y-132625829D03*
X94072748Y-146323193D03*
D20*
X100347302Y-141196550D03*
D22*
X99519222Y-147088645D03*
D20*
X104992460Y-144071005D03*
D19*
X104965696Y-147854097D03*
X122697940Y-82182840D03*
D20*
X124309080Y-79844307D03*
D21*
X127728502Y-82889837D03*
D20*
X130950782Y-78212777D03*
D19*
X132759064Y-83596834D03*
D23*
X142534075Y-86687332D03*
D24*
X144673056Y-86987947D03*
X147940940Y-87447219D03*
D25*
X150079921Y-87747834D03*
D32*
X106733459Y-138509177D03*
X107374406Y-137421065D03*
X107049653Y-139731808D03*
X108597037Y-137104871D03*
D33*
X108367401Y-138738813D03*
D32*
X108137765Y-140372755D03*
X109685149Y-137745818D03*
X109360396Y-140056561D03*
X110001343Y-138968449D03*
D23*
X81565671Y-110938177D03*
D24*
X83704652Y-111238792D03*
X86972536Y-111698064D03*
D25*
X89111517Y-111998679D03*
D19*
X131335280Y-167936574D03*
D20*
X130820936Y-165143736D03*
D21*
X135392348Y-164879354D03*
D20*
X134363662Y-159293675D03*
D19*
X139449416Y-161822134D03*
D23*
X171326771Y-154857930D03*
D24*
X173465752Y-155158545D03*
X176733636Y-155617817D03*
D25*
X178872617Y-155918432D03*
D19*
X152116911Y-145897232D03*
D20*
X153728051Y-143558699D03*
D21*
X157147473Y-146604229D03*
D20*
X160369753Y-141927169D03*
D19*
X162178035Y-147311226D03*
D35*
X226148094Y-108974045D03*
D36*
X228148094Y-108974045D03*
D23*
X118012884Y-124644038D03*
D24*
X120151865Y-124944653D03*
X123419749Y-125403925D03*
D25*
X125558730Y-125704540D03*
D23*
X152720440Y-150728237D03*
D24*
X154859421Y-151028852D03*
X158127305Y-151488124D03*
D25*
X160266286Y-151788739D03*
D23*
X84209958Y-92123084D03*
D24*
X86348939Y-92423699D03*
X89616823Y-92882971D03*
D25*
X91755804Y-93183586D03*
D19*
X237807336Y-113869187D03*
D20*
X242425730Y-107211640D03*
D22*
X243253810Y-113103735D03*
D20*
X247683251Y-108694366D03*
D19*
X248700284Y-112338283D03*
X261702247Y-147369683D03*
D20*
X266320641Y-140712136D03*
D22*
X267148721Y-146604231D03*
D20*
X271578162Y-142194862D03*
D19*
X272595195Y-145838779D03*
X136641974Y-119486512D03*
D20*
X138253114Y-117147979D03*
D21*
X141672536Y-120193509D03*
D20*
X144894816Y-115516449D03*
D19*
X146703098Y-120900506D03*
D23*
X95092187Y-151212651D03*
D24*
X97231168Y-151513266D03*
X100499052Y-151972538D03*
D25*
X102638033Y-152273153D03*
D26*
X293448883Y-88074345D03*
D27*
X295587864Y-87773730D03*
X298855748Y-87314458D03*
D25*
X300994729Y-87013843D03*
D23*
X176615351Y-117227745D03*
D24*
X178754332Y-117528360D03*
X182022216Y-117987632D03*
D25*
X184161197Y-118288247D03*
D19*
X114349156Y-138569667D03*
D20*
X120623710Y-133443024D03*
D22*
X119795630Y-139335119D03*
D20*
X125268868Y-136317479D03*
D19*
X125242104Y-140100571D03*
D23*
X120657172Y-105828938D03*
D24*
X122796153Y-106129553D03*
X126064037Y-106588825D03*
D25*
X128203018Y-106889440D03*
D19*
X238223248Y-113810732D03*
D20*
X239127389Y-111118704D03*
D21*
X243253810Y-113103735D03*
D20*
X245062092Y-107719677D03*
D19*
X248284372Y-112396738D03*
D26*
X261385623Y-132973648D03*
D27*
X263524604Y-132673033D03*
X266792488Y-132213761D03*
D25*
X268931469Y-131913146D03*
D19*
X151700999Y-145838777D03*
D20*
X157975553Y-140712134D03*
D22*
X157147473Y-146604229D03*
D20*
X162620711Y-143586589D03*
D19*
X162593947Y-147369681D03*
X299469998Y-140042116D03*
D20*
X300374139Y-137350088D03*
D21*
X304500560Y-139335119D03*
D20*
X306308842Y-133951061D03*
D19*
X309531122Y-138628122D03*
X279821472Y-139774056D03*
D20*
X284439866Y-133116509D03*
D22*
X285267946Y-139008604D03*
D20*
X289697387Y-134599235D03*
D19*
X290714420Y-138243152D03*
D26*
X332540389Y-93183588D03*
D27*
X334679370Y-92882973D03*
X337947254Y-92423701D03*
D25*
X340086235Y-92123086D03*
D26*
X237490713Y-99473154D03*
D27*
X239629694Y-99172539D03*
X242897578Y-98713267D03*
D25*
X245036559Y-98412652D03*
D23*
X179259637Y-98412650D03*
D24*
X181398618Y-98713265D03*
X184666502Y-99172537D03*
D25*
X186805483Y-99473152D03*
D19*
X122282028Y-82124385D03*
D20*
X128556582Y-76997742D03*
D22*
X127728502Y-82889837D03*
D20*
X133201740Y-79872197D03*
D19*
X133174976Y-83655289D03*
X243511826Y-151440921D03*
D20*
X244415967Y-148748893D03*
D21*
X248542388Y-150733924D03*
D20*
X250350670Y-145349866D03*
D19*
X253572950Y-150026927D03*
D32*
X256977063Y-154345186D03*
X257293257Y-153122555D03*
X257618010Y-155433298D03*
X258381369Y-152481608D03*
D33*
X258611005Y-154115550D03*
D32*
X258840641Y-155749492D03*
X259604000Y-152797802D03*
X259928753Y-155108545D03*
X260244947Y-153885914D03*
D19*
X330628633Y-88706073D03*
D20*
X331532774Y-86014045D03*
D21*
X335659195Y-87999076D03*
D20*
X337467477Y-82615018D03*
D19*
X340689757Y-87292079D03*
X77901944Y-124863811D03*
D20*
X84176498Y-119737168D03*
D22*
X83348418Y-125629263D03*
D20*
X88821656Y-122611623D03*
D19*
X88794892Y-126394715D03*
X319746408Y-147795639D03*
D20*
X320650549Y-145103611D03*
D21*
X324776970Y-147088642D03*
D20*
X326585252Y-141704584D03*
D19*
X329807532Y-146381645D03*
D23*
X137245500Y-124317516D03*
D24*
X139384481Y-124618131D03*
X142652365Y-125077403D03*
D25*
X144791346Y-125378018D03*
D26*
X258741333Y-114158554D03*
D27*
X260880314Y-113857939D03*
X264148198Y-113398667D03*
D25*
X266287179Y-113098052D03*
D19*
X114765068Y-138628122D03*
D20*
X116376208Y-136289589D03*
D21*
X119795630Y-139335119D03*
D20*
X123017910Y-134658059D03*
D19*
X124826192Y-140042116D03*
D23*
X97736474Y-132397558D03*
D24*
X99875455Y-132698173D03*
X103143339Y-133157445D03*
D25*
X105282320Y-133458060D03*
D19*
X120053648Y-100997937D03*
D20*
X121664788Y-98659404D03*
D21*
X125084210Y-101704934D03*
D20*
X128306490Y-97027874D03*
D19*
X130114772Y-102411931D03*
X172951622Y-131153380D03*
D20*
X179226176Y-126026737D03*
D22*
X178398096Y-131918832D03*
D20*
X183871334Y-128901192D03*
D19*
X183844570Y-132684284D03*
D23*
X160653306Y-94282962D03*
D24*
X162792287Y-94583577D03*
X166060171Y-95042849D03*
D25*
X168199152Y-95343464D03*
D19*
X291537131Y-83596833D03*
D20*
X292441272Y-80904805D03*
D21*
X296567693Y-82889836D03*
D20*
X298375975Y-77505778D03*
D19*
X301598255Y-82182839D03*
D26*
X319013872Y-133458060D03*
D27*
X321152853Y-133157445D03*
X324420737Y-132698173D03*
D25*
X326559718Y-132397558D03*
D32*
X95617316Y-94736110D03*
X96258263Y-93647998D03*
X95933510Y-95958741D03*
X97480894Y-93331804D03*
D33*
X97251258Y-94965746D03*
D32*
X97021622Y-96599688D03*
X98569006Y-93972751D03*
X98244253Y-96283494D03*
X98885200Y-95195382D03*
D19*
X83606439Y-87292074D03*
D20*
X85217579Y-84953541D03*
D21*
X88637001Y-87999071D03*
D20*
X91859281Y-83322011D03*
D19*
X93667563Y-88706068D03*
X133997686Y-138301605D03*
D20*
X135608826Y-135963072D03*
D21*
X139028248Y-139008602D03*
D20*
X142250528Y-134331542D03*
D19*
X144058810Y-139715599D03*
X255234729Y-169611242D03*
D20*
X259853123Y-162953695D03*
D22*
X260681203Y-168845790D03*
D20*
X265110644Y-164436421D03*
D19*
X266127677Y-168080338D03*
X240867535Y-132625824D03*
D20*
X241771676Y-129933796D03*
D21*
X245898097Y-131918827D03*
D20*
X247706379Y-126534769D03*
D19*
X250928659Y-131211830D03*
X235163046Y-95054095D03*
D20*
X239781440Y-88396548D03*
D22*
X240609520Y-94288643D03*
D20*
X245038961Y-89879274D03*
D19*
X246055994Y-93523191D03*
D26*
X296093173Y-106889440D03*
D27*
X298232154Y-106588825D03*
X301500038Y-106129553D03*
D25*
X303639019Y-105828938D03*
D19*
X94488660Y-146381648D03*
D20*
X96099800Y-144043115D03*
D21*
X99519222Y-147088645D03*
D20*
X102741502Y-142411585D03*
D19*
X104549784Y-147795642D03*
X284511347Y-161569373D03*
D20*
X292484641Y-160127475D03*
D22*
X288903842Y-164879356D03*
D20*
X295153825Y-164893550D03*
D19*
X293296337Y-168189339D03*
D32*
X171851903Y-98381391D03*
X172492850Y-97293279D03*
X172168097Y-99604022D03*
X173715481Y-96977085D03*
D33*
X173485845Y-98611027D03*
D32*
X173256209Y-100244969D03*
X174803593Y-97618032D03*
X174478840Y-99928775D03*
X175119787Y-98840663D03*
D26*
X337828968Y-130813771D03*
D27*
X339967949Y-130513156D03*
X343235833Y-130053884D03*
D25*
X345374814Y-129753269D03*
D19*
X176011822Y-112396739D03*
D20*
X177622962Y-110058206D03*
D21*
X181042384Y-113103736D03*
D20*
X184264664Y-108426676D03*
D19*
X186072946Y-113810733D03*
X253769380Y-90924402D03*
D20*
X258387774Y-84266855D03*
D22*
X259215854Y-90158950D03*
D20*
X263645295Y-85749581D03*
D19*
X264662328Y-89393498D03*
D32*
X325410993Y-95195384D03*
X325727187Y-93972753D03*
X326051940Y-96283496D03*
X326815299Y-93331806D03*
D33*
X327044935Y-94965748D03*
D32*
X327274571Y-96599690D03*
X328037930Y-93648000D03*
X328362683Y-95958743D03*
X328678877Y-94736112D03*
D26*
X279504847Y-125378019D03*
D27*
X281643828Y-125077404D03*
X284911712Y-124618132D03*
D25*
X287050693Y-124317517D03*
D26*
X316369584Y-114642967D03*
D27*
X318508565Y-114342352D03*
X321776449Y-113883080D03*
D25*
X323915430Y-113582465D03*
D23*
X158009015Y-113098052D03*
D24*
X160147996Y-113398667D03*
X163415880Y-113857939D03*
D25*
X165554861Y-114158554D03*
D26*
X242779285Y-137103339D03*
D27*
X244918266Y-136802724D03*
X248186150Y-136343452D03*
D25*
X250325131Y-136042837D03*
D19*
X96717041Y-127508099D03*
D20*
X102991595Y-122381456D03*
D22*
X102163515Y-128273551D03*
D20*
X107636753Y-125255911D03*
D19*
X107609989Y-129039003D03*
D26*
X298737464Y-125704537D03*
D27*
X300876445Y-125403922D03*
X304144329Y-124944650D03*
D25*
X306283310Y-124644035D03*
D19*
X175595910Y-112338284D03*
D20*
X181870464Y-107211641D03*
D22*
X181042384Y-113103736D03*
D20*
X186515622Y-110086096D03*
D19*
X186488858Y-113869188D03*
X280237384Y-139715601D03*
D20*
X281141525Y-137023573D03*
D21*
X285267946Y-139008604D03*
D20*
X287076228Y-133624546D03*
D19*
X290298508Y-138301607D03*
X319330496Y-147854094D03*
D20*
X323948890Y-141196547D03*
D22*
X324776970Y-147088642D03*
D20*
X329206411Y-142679273D03*
D19*
X330223444Y-146323190D03*
X330212721Y-88764528D03*
D20*
X334831115Y-82106981D03*
D22*
X335659195Y-87999076D03*
D20*
X340088636Y-83589707D03*
D19*
X341105669Y-87233624D03*
D26*
X321658159Y-152273154D03*
D27*
X323797140Y-151972539D03*
X327065024Y-151513267D03*
D25*
X329204005Y-151212652D03*
D19*
X139286263Y-100671417D03*
D20*
X140897403Y-98332884D03*
D21*
X144316825Y-101378414D03*
D20*
X147539105Y-96701354D03*
D19*
X149347387Y-102085411D03*
D37*
X231433908Y-184315181D03*
D38*
X233341072Y-183301122D03*
X236254804Y-181751866D03*
D25*
X238161968Y-180737807D03*
D19*
X157405489Y-108267048D03*
D20*
X159016629Y-105928515D03*
D21*
X162436051Y-108974045D03*
D20*
X165658331Y-104296985D03*
D19*
X167466613Y-109681042D03*
X235578958Y-94995640D03*
D20*
X236483099Y-92303612D03*
D21*
X240609520Y-94288643D03*
D20*
X242417802Y-88904585D03*
D19*
X245640082Y-93581646D03*
X259473869Y-128496135D03*
D20*
X260378010Y-125804107D03*
D21*
X264504431Y-127789138D03*
D20*
X266312713Y-122405080D03*
D19*
X269534993Y-127082141D03*
D32*
X249176410Y-98840664D03*
X249492604Y-97618033D03*
X249817357Y-99928776D03*
X250580716Y-96977086D03*
D33*
X250810352Y-98611028D03*
D32*
X251039988Y-100244970D03*
X251803347Y-97293280D03*
X252128100Y-99604023D03*
X252444294Y-98381392D03*
D19*
X294181421Y-102411928D03*
D20*
X295085562Y-99719900D03*
D21*
X299211983Y-101704931D03*
D20*
X301020265Y-96320873D03*
D19*
X304242545Y-100997934D03*
X154345290Y-127023683D03*
D20*
X160619844Y-121897040D03*
D22*
X159791764Y-127789135D03*
D20*
X165265002Y-124771495D03*
D19*
X165238238Y-128554587D03*
X78317856Y-124922266D03*
D20*
X79928996Y-122583733D03*
D21*
X83348418Y-125629263D03*
D20*
X86570698Y-120952203D03*
D19*
X88378980Y-126336260D03*
X102005617Y-89877912D03*
D20*
X108280171Y-84751269D03*
D22*
X107452091Y-90643364D03*
D20*
X112925329Y-87625724D03*
D19*
X112898565Y-91408816D03*
X133581774Y-138243150D03*
D20*
X139856328Y-133116507D03*
D22*
X139028248Y-139008602D03*
D20*
X144501486Y-135990962D03*
D19*
X144474722Y-139774054D03*
X311813544Y-91350361D03*
D20*
X312717685Y-88658333D03*
D21*
X316844106Y-90643364D03*
D20*
X318652388Y-85259306D03*
D19*
X321874668Y-89936367D03*
X227735206Y-180958738D03*
D20*
X229798062Y-173123106D03*
D22*
X232591418Y-178376644D03*
D20*
X235245638Y-172718233D03*
D19*
X237447630Y-175794550D03*
X178240201Y-93523188D03*
D20*
X184514755Y-88396545D03*
D22*
X183686675Y-94288640D03*
D20*
X189159913Y-91271000D03*
D19*
X189133149Y-95054092D03*
X83190527Y-87233619D03*
D20*
X89465081Y-82106976D03*
D22*
X88637001Y-87999071D03*
D20*
X94110239Y-84981431D03*
D19*
X94083475Y-88764523D03*
X80962145Y-106107170D03*
D20*
X82573285Y-103768637D03*
D21*
X85992707Y-106814167D03*
D20*
X89214987Y-102137107D03*
D19*
X91023269Y-107521164D03*
D23*
X139889787Y-105502423D03*
D24*
X142028768Y-105803038D03*
X145296652Y-106262310D03*
D25*
X147435633Y-106562925D03*
D19*
X277593097Y-120900507D03*
D20*
X278497238Y-118208479D03*
D21*
X282623659Y-120193510D03*
D20*
X284431941Y-114809452D03*
D19*
X287654221Y-119486513D03*
D26*
X264029909Y-151788742D03*
D27*
X266168890Y-151488127D03*
X269436774Y-151028855D03*
D25*
X271575755Y-150728240D03*
D19*
X332857010Y-107579621D03*
D20*
X337475404Y-100922074D03*
D22*
X338303484Y-106814169D03*
D20*
X342732925Y-102404800D03*
D19*
X343749958Y-106048717D03*
D39*
X135178079Y-170925856D03*
D40*
X136903131Y-169625934D03*
X139538629Y-167639948D03*
D25*
X141263681Y-166340026D03*
D41*
X186134226Y-180737809D03*
D42*
X188041390Y-181751868D03*
X190955122Y-183301124D03*
D25*
X192862286Y-184315183D03*
D23*
X103025051Y-94767372D03*
D24*
X105164032Y-95067987D03*
X108431916Y-95527259D03*
D25*
X110570897Y-95827874D03*
%LPD*%
M02*
