%TF.GenerationSoftware,KiCad,Pcbnew,8.0.1*%
%TF.CreationDate,2024-04-17T22:25:28+02:00*%
%TF.ProjectId,shockboard,73686f63-6b62-46f6-9172-642e6b696361,v1.0.0*%
%TF.SameCoordinates,Original*%
%TF.FileFunction,Paste,Top*%
%TF.FilePolarity,Positive*%
%FSLAX46Y46*%
G04 Gerber Fmt 4.6, Leading zero omitted, Abs format (unit mm)*
G04 Created by KiCad (PCBNEW 8.0.1) date 2024-04-17 22:25:28*
%MOMM*%
%LPD*%
G01*
G04 APERTURE LIST*
G04 Aperture macros list*
%AMRotRect*
0 Rectangle, with rotation*
0 The origin of the aperture is its center*
0 $1 length*
0 $2 width*
0 $3 Rotation angle, in degrees counterclockwise*
0 Add horizontal line*
21,1,$1,$2,0,0,$3*%
G04 Aperture macros list end*
%ADD10RotRect,0.900000X0.900000X352.500000*%
%ADD11RotRect,0.900000X1.250000X352.500000*%
%ADD12RotRect,0.900000X1.200000X352.000000*%
%ADD13RotRect,0.900000X1.200000X8.000000*%
%ADD14RotRect,0.900000X1.200000X323.000000*%
%ADD15RotRect,0.900000X1.200000X28.000000*%
%ADD16RotRect,0.900000X1.200000X37.000000*%
%ADD17RotRect,0.900000X1.200000X332.000000*%
G04 APERTURE END LIST*
D10*
X315796339Y-72564466D03*
X315509181Y-74745644D03*
X323133031Y-73530360D03*
X322845873Y-75711538D03*
D11*
X321281015Y-76488934D03*
X318306682Y-76097355D03*
X316819513Y-75901566D03*
D12*
X81060365Y-130053886D03*
X84328249Y-130513158D03*
X157503709Y-132213763D03*
X160771593Y-132673035D03*
D13*
X315864276Y-95527260D03*
X319132160Y-95067988D03*
D14*
X284757564Y-167639948D03*
X287393062Y-169625934D03*
D13*
X247562555Y-155617817D03*
X250830439Y-155158545D03*
D12*
X176110039Y-136343454D03*
X179377923Y-136802726D03*
X117507580Y-143759740D03*
X120775464Y-144219012D03*
D13*
X278999544Y-106262312D03*
X282267428Y-105803040D03*
D12*
X102519748Y-113883082D03*
X105787632Y-114342354D03*
X125440444Y-87314460D03*
X128708328Y-87773732D03*
X136740189Y-143433226D03*
X140008073Y-143892498D03*
X161326934Y-173270416D03*
X164594818Y-173729688D03*
D13*
X276355252Y-87447219D03*
X279623136Y-86987947D03*
X284288119Y-143892500D03*
X287556003Y-143433228D03*
X259701379Y-173729684D03*
X262969263Y-173270412D03*
X337323659Y-111698062D03*
X340591543Y-111238790D03*
X303520733Y-144219015D03*
X306788617Y-143759743D03*
X242273979Y-117987633D03*
X245541863Y-117528361D03*
X258236024Y-95042846D03*
X261503908Y-94583574D03*
D12*
X144673056Y-86987947D03*
X147940940Y-87447219D03*
X83704652Y-111238792D03*
X86972536Y-111698064D03*
X173465752Y-155158545D03*
X176733636Y-155617817D03*
X120151865Y-124944653D03*
X123419749Y-125403925D03*
X154859421Y-151028852D03*
X158127305Y-151488124D03*
X86348939Y-92423699D03*
X89616823Y-92882971D03*
X97231168Y-151513266D03*
X100499052Y-151972538D03*
D13*
X295587864Y-87773730D03*
X298855748Y-87314458D03*
D12*
X178754332Y-117528360D03*
X182022216Y-117987632D03*
X122796153Y-106129553D03*
X126064037Y-106588825D03*
D13*
X263524604Y-132673033D03*
X266792488Y-132213761D03*
X334679370Y-92882973D03*
X337947254Y-92423701D03*
X239629694Y-99172539D03*
X242897578Y-98713267D03*
D12*
X181398618Y-98713265D03*
X184666502Y-99172537D03*
X139384481Y-124618131D03*
X142652365Y-125077403D03*
D13*
X260880314Y-113857939D03*
X264148198Y-113398667D03*
D12*
X99875455Y-132698173D03*
X103143339Y-133157445D03*
X162792287Y-94583577D03*
X166060171Y-95042849D03*
D13*
X321152853Y-133157445D03*
X324420737Y-132698173D03*
X298232154Y-106588825D03*
X301500038Y-106129553D03*
X339967949Y-130513156D03*
X343235833Y-130053884D03*
X281643828Y-125077404D03*
X284911712Y-124618132D03*
X318508565Y-114342352D03*
X321776449Y-113883080D03*
D12*
X160147996Y-113398667D03*
X163415880Y-113857939D03*
D13*
X244918266Y-136802724D03*
X248186150Y-136343452D03*
X300876445Y-125403922D03*
X304144329Y-124944650D03*
X323797140Y-151972539D03*
X327065024Y-151513267D03*
D15*
X233341072Y-183301122D03*
X236254804Y-181751866D03*
D12*
X142028768Y-105803038D03*
X145296652Y-106262310D03*
D13*
X266168890Y-151488127D03*
X269436774Y-151028855D03*
D16*
X136903131Y-169625934D03*
X139538629Y-167639948D03*
D17*
X188041390Y-181751868D03*
X190955122Y-183301124D03*
D12*
X105164032Y-95067987D03*
X108431916Y-95527259D03*
M02*
