M48
; DRILL file {KiCad 8.0.4} date 2024-10-20T10:13:52+0200
; FORMAT={-:-/ absolute / metric / decimal}
; #@! TF.CreationDate,2024-10-20T10:13:52+02:00
; #@! TF.GenerationSoftware,Kicad,Pcbnew,8.0.4
; #@! TF.FileFunction,NonPlated,1,2,NPTH
FMAT,2
METRIC
; #@! TA.AperFunction,NonPlated,NPTH,ComponentDrill
T1C0.900
; #@! TA.AperFunction,NonPlated,NPTH,ComponentDrill
T2C1.100
; #@! TA.AperFunction,NonPlated,NPTH,ComponentDrill
T3C1.702
; #@! TA.AperFunction,NonPlated,NPTH,ComponentDrill
T4C3.000
; #@! TA.AperFunction,NonPlated,NPTH,ComponentDrill
T5C3.200
; #@! TA.AperFunction,NonPlated,NPTH,ComponentDrill
T6C3.988
; #@! TA.AperFunction,NonPlated,NPTH,ComponentDrill
T7C5.000
%
G90
G05
T1
X228.232Y-117.125
X231.232Y-117.125
T2
X180.572Y-153.751
X183.112Y-153.751
X185.652Y-153.751
X188.192Y-153.751
X190.732Y-153.751
X193.272Y-153.751
X195.812Y-153.751
X198.352Y-153.751
X225.172Y-153.751
X227.712Y-153.751
X230.252Y-153.751
X232.792Y-153.751
X235.332Y-153.751
T3
X66.113Y-132.032
X66.52Y-132.134
X70.709Y-113.596
X71.117Y-113.698
X76.378Y-134.591
X76.786Y-134.693
X80.436Y-153.123
X80.843Y-153.225
X80.975Y-116.156
X81.382Y-116.257
X85.032Y-134.688
X85.44Y-134.789
X89.629Y-116.252
X90.036Y-116.354
X90.701Y-155.683
X91.109Y-155.785
X95.298Y-137.247
X95.705Y-137.349
X99.894Y-118.812
X100.302Y-118.913
X101.411Y-147.532
X101.819Y-147.633
X106.008Y-129.096
X106.415Y-129.198
X110.604Y-110.661
X111.012Y-110.762
X111.677Y-150.091
X112.085Y-150.193
X116.274Y-131.656
X116.681Y-131.757
X120.573Y-149.217
X120.87Y-113.22
X120.98Y-149.319
X121.278Y-113.322
X125.169Y-130.782
X125.577Y-130.883
X129.766Y-112.346
X130.173Y-112.448
X130.839Y-151.777
X131.246Y-151.879
X132.356Y-180.497
X132.763Y-180.599
X135.435Y-133.341
X135.843Y-133.443
X137.799Y-158.665
X138.206Y-158.767
X140.032Y-114.906
X140.439Y-115.007
X142.395Y-140.23
X142.621Y-183.057
X142.803Y-140.331
X143.029Y-183.158
X146.992Y-121.794
X147.399Y-121.896
X148.065Y-161.225
X148.472Y-161.327
X152.661Y-142.789
X152.88Y-187.188
X153.069Y-142.891
X153.242Y-187.402
X155.388Y-166.658
X155.795Y-166.76
X157.258Y-124.354
X157.665Y-124.455
X159.984Y-148.222
X160.392Y-148.324
X161.996Y-192.558
X162.358Y-192.771
X164.581Y-129.787
X164.988Y-129.888
X165.653Y-169.218
X166.061Y-169.319
X170.25Y-150.782
X170.657Y-150.884
X170.659Y-199.433
X170.945Y-199.741
X174.846Y-132.346
X175.254Y-132.448
X177.874Y-207.171
X178.161Y-207.478
X245.303Y-207.478
X245.59Y-207.171
X248.21Y-132.448
X248.617Y-132.346
X252.519Y-199.741
X252.805Y-199.433
X252.806Y-150.884
X253.214Y-150.782
X257.403Y-169.319
X257.811Y-169.218
X258.476Y-129.888
X258.883Y-129.787
X261.106Y-192.771
X261.468Y-192.558
X263.072Y-148.324
X263.48Y-148.222
X265.799Y-124.455
X266.206Y-124.354
X267.669Y-166.76
X268.076Y-166.658
X270.222Y-187.402
X270.395Y-142.891
X270.584Y-187.188
X270.803Y-142.789
X274.992Y-161.327
X275.399Y-161.225
X276.065Y-121.896
X276.472Y-121.794
X280.435Y-183.158
X280.661Y-140.331
X280.843Y-183.057
X281.069Y-140.23
X283.025Y-115.007
X283.432Y-114.906
X285.258Y-158.767
X285.665Y-158.665
X287.621Y-133.443
X288.029Y-133.341
X290.701Y-180.599
X291.108Y-180.497
X292.218Y-151.879
X292.625Y-151.777
X293.291Y-112.448
X293.698Y-112.346
X297.887Y-130.883
X298.295Y-130.782
X302.186Y-113.322
X302.484Y-149.319
X302.594Y-113.22
X302.891Y-149.218
X306.783Y-131.757
X307.19Y-131.656
X311.379Y-150.193
X311.787Y-150.091
X312.452Y-110.762
X312.859Y-110.661
X317.048Y-129.198
X317.456Y-129.096
X321.645Y-147.633
X322.053Y-147.532
X323.162Y-118.913
X323.57Y-118.812
X327.759Y-137.349
X328.166Y-137.247
X332.355Y-155.785
X332.763Y-155.683
X333.428Y-116.354
X333.835Y-116.252
X338.024Y-134.789
X338.432Y-134.688
X342.082Y-116.257
X342.489Y-116.156
X342.621Y-153.225
X343.028Y-153.123
X346.678Y-134.693
X347.086Y-134.591
X352.347Y-113.698
X352.755Y-113.596
X356.944Y-132.134
X357.351Y-132.032
T4
X65.691Y-135.791
X68.367Y-129.976
X70.01Y-139.136
X70.287Y-117.356
X72.963Y-111.541
X74.606Y-120.7
X75.143Y-129.048
X79.739Y-110.612
X80.014Y-156.883
X82.69Y-151.068
X84.333Y-160.227
X84.61Y-138.447
X87.286Y-132.632
X88.929Y-141.792
X89.207Y-120.012
X89.466Y-150.139
X91.883Y-114.197
X93.526Y-123.356
X94.062Y-131.704
X98.659Y-113.268
X100.989Y-151.291
X103.666Y-145.476
X105.309Y-154.636
X105.586Y-132.856
X108.262Y-127.041
X109.905Y-136.2
X110.182Y-114.42
X110.442Y-144.548
X112.859Y-108.605
X114.502Y-117.764
X115.038Y-126.112
X119.635Y-107.677
X120.151Y-152.977
X122.827Y-147.162
X124.47Y-156.321
X124.747Y-134.541
X127.424Y-128.726
X129.067Y-137.886
X129.344Y-116.106
X129.603Y-146.233
X131.934Y-184.257
X132.02Y-110.291
X133.663Y-119.45
X134.199Y-127.798
X134.61Y-178.441
X136.253Y-187.601
X137.377Y-162.425
X138.796Y-109.362
X140.053Y-156.61
X141.386Y-177.513
X141.696Y-165.769
X141.973Y-143.989
X144.65Y-138.174
X146.293Y-147.334
X146.57Y-125.554
X146.829Y-155.681
X149.246Y-119.739
X150.889Y-128.898
X151.407Y-190.673
X151.425Y-137.246
X154.599Y-195.107
X154.966Y-170.418
X155.625Y-185.858
X156.022Y-118.81
X157.642Y-164.602
X159.285Y-173.762
X159.562Y-151.982
X162.239Y-146.167
X162.386Y-186.892
X163.881Y-155.326
X164.159Y-133.546
X164.418Y-163.674
X166.835Y-127.731
X168.257Y-202.357
X168.478Y-136.891
X169.014Y-145.238
X170.058Y-207.514
X173.611Y-126.803
X173.669Y-198.937
X179.857Y-201.849
X244.598Y-204.51
X247.071Y-198.134
X248.387Y-209.67
X249.235Y-129.575
X249.602Y-135.966
X253.406Y-207.514
X253.832Y-148.01
X254.199Y-154.401
X254.782Y-125.574
X254.986Y-136.891
X258.428Y-166.446
X258.795Y-172.837
X259.379Y-144.009
X259.583Y-155.326
X261.273Y-189.725
X263.44Y-195.749
X263.975Y-162.445
X264.179Y-173.762
X265.455Y-184.314
X266.824Y-121.582
X267.191Y-127.973
X268.865Y-195.107
X271.421Y-140.018
X271.788Y-146.409
X272.371Y-117.581
X272.575Y-128.898
X276.017Y-158.453
X276.384Y-164.844
X276.968Y-136.017
X277.171Y-147.334
X281.46Y-180.285
X281.564Y-154.452
X281.768Y-165.769
X281.827Y-186.676
X284.05Y-112.134
X284.417Y-118.525
X287.007Y-176.284
X287.211Y-187.601
X288.647Y-130.57
X289.014Y-136.961
X289.597Y-108.133
X289.801Y-119.45
X293.243Y-149.005
X293.61Y-155.396
X294.194Y-126.569
X294.397Y-137.886
X298.79Y-145.004
X298.994Y-156.321
X303.212Y-110.448
X303.579Y-116.839
X307.808Y-128.884
X308.175Y-135.275
X308.758Y-106.448
X308.962Y-117.764
X312.405Y-147.32
X312.772Y-153.711
X313.355Y-124.883
X313.559Y-136.2
X317.951Y-143.319
X318.155Y-154.636
X324.187Y-116.04
X324.554Y-122.431
X328.784Y-134.476
X329.151Y-140.867
X329.734Y-112.039
X329.938Y-123.356
X333.38Y-152.911
X333.747Y-159.302
X334.331Y-130.475
X334.535Y-141.792
X338.927Y-148.91
X339.131Y-160.227
X343.107Y-113.384
X343.474Y-119.775
X347.703Y-131.82
X348.07Y-138.211
X348.654Y-109.383
X348.858Y-120.7
X353.25Y-127.819
X353.454Y-139.136
T5
X83.207Y-125.473
X95.517Y-146.784
X123.103Y-122.537
X149.632Y-173.21
X158.825Y-136.339
X167.078Y-195.392
X256.386Y-195.392
X264.639Y-136.339
X273.832Y-173.21
X300.361Y-122.537
X327.947Y-146.784
X340.257Y-125.473
T6
X71.449Y-133.362
X76.046Y-114.927
X85.772Y-154.454
X90.369Y-136.018
X94.965Y-117.583
X106.748Y-148.862
X111.345Y-130.427
X115.941Y-111.991
X125.909Y-150.548
X130.506Y-132.112
X135.102Y-113.677
X137.692Y-181.828
X143.135Y-159.996
X147.732Y-141.56
X152.328Y-123.125
X157.619Y-189.98
X160.724Y-167.989
X165.321Y-149.553
X169.917Y-131.117
X174.41Y-203.456
X249.054Y-203.456
X253.547Y-131.117
X258.143Y-149.553
X262.74Y-167.989
X265.845Y-189.98
X271.135Y-123.125
X275.732Y-141.56
X280.329Y-159.996
X285.772Y-181.828
X288.361Y-113.677
X292.958Y-132.112
X297.555Y-150.548
X307.523Y-111.991
X312.119Y-130.427
X316.716Y-148.862
X328.499Y-117.583
X333.095Y-136.018
X337.692Y-154.454
X347.418Y-114.927
X352.015Y-133.362
T7
X71.449Y-133.362
X76.046Y-114.927
X85.772Y-154.454
X90.369Y-136.018
X94.965Y-117.583
X106.748Y-148.862
X111.345Y-130.427
X115.941Y-111.991
X125.909Y-150.548
X130.506Y-132.112
X135.102Y-113.677
X137.692Y-181.828
X143.135Y-159.996
X147.732Y-141.56
X152.328Y-123.125
X157.619Y-189.98
X160.724Y-167.989
X165.321Y-149.553
X169.917Y-131.117
X174.41Y-203.456
X249.054Y-203.456
X253.547Y-131.117
X258.143Y-149.553
X262.74Y-167.989
X265.845Y-189.98
X271.135Y-123.125
X275.732Y-141.56
X280.329Y-159.996
X285.772Y-181.828
X288.361Y-113.677
X292.958Y-132.112
X297.555Y-150.548
X307.523Y-111.991
X312.119Y-130.427
X316.716Y-148.862
X328.499Y-117.583
X333.095Y-136.018
X337.692Y-154.454
X347.418Y-114.927
X352.015Y-133.362
M30
