G04 #@! TF.GenerationSoftware,KiCad,Pcbnew,8.0.4*
G04 #@! TF.CreationDate,2024-10-20T10:13:08+02:00*
G04 #@! TF.ProjectId,fairyboard,66616972-7962-46f6-9172-642e6b696361,1*
G04 #@! TF.SameCoordinates,Original*
G04 #@! TF.FileFunction,Soldermask,Top*
G04 #@! TF.FilePolarity,Negative*
%FSLAX46Y46*%
G04 Gerber Fmt 4.6, Leading zero omitted, Abs format (unit mm)*
G04 Created by KiCad (PCBNEW 8.0.4) date 2024-10-20 10:13:08*
%MOMM*%
%LPD*%
G01*
G04 APERTURE LIST*
%ADD10R,0.900000X1.250000*%
%ADD11R,0.900000X0.900000*%
%ADD12C,1.000000*%
%ADD13C,1.700000*%
%ADD14C,2.000000*%
%ADD15C,1.701800*%
%ADD16C,3.000000*%
%ADD17C,3.987800*%
%ADD18C,3.200000*%
%ADD19C,5.000000*%
%ADD20O,1.700000X1.700000*%
%ADD21C,1.800000*%
%ADD22C,1.100000*%
%ADD23C,0.700000*%
%ADD24C,4.400000*%
%ADD25O,1.752600X1.752600*%
%ADD26O,1.200000X1.700000*%
%ADD27R,1.200000X1.700000*%
G04 APERTURE END LIST*
D10*
X227481985Y-119199838D03*
X228981985Y-119199838D03*
X231981985Y-119199838D03*
D11*
X233431986Y-116024839D03*
X233431981Y-118224843D03*
D12*
X231231985Y-117124838D03*
X228231985Y-117124838D03*
D11*
X226031989Y-116024833D03*
X226031984Y-118224837D03*
D13*
X191231963Y-117374830D03*
X196231963Y-117374830D03*
D14*
X197231963Y-119874830D03*
X190231963Y-119874830D03*
D15*
X177874121Y-207171163D03*
D16*
X179857123Y-201848973D03*
D17*
X174409569Y-203455892D03*
D16*
X173668796Y-198937160D03*
D15*
X170945017Y-199740621D03*
D18*
X340256642Y-125472639D03*
D15*
X101411446Y-147531870D03*
D16*
X100989386Y-151291439D03*
D19*
X106748072Y-148862440D03*
D16*
X105308637Y-154635700D03*
D15*
X112084698Y-150193010D03*
X263072193Y-148324028D03*
D16*
X259378679Y-144009407D03*
D17*
X258143091Y-149552991D03*
D16*
X253831783Y-148010169D03*
D15*
X253213989Y-150781954D03*
D13*
X216811994Y-151211382D03*
D20*
X214271990Y-151211386D03*
X211731989Y-151211387D03*
X209191988Y-151211386D03*
X206651989Y-151211386D03*
D15*
X130838569Y-151777024D03*
D16*
X129602980Y-146233438D03*
D17*
X125909467Y-150548061D03*
D16*
X122827117Y-147161787D03*
D15*
X120980365Y-149319098D03*
X332355065Y-155784591D03*
D16*
X333747419Y-159302238D03*
D19*
X337691691Y-154454021D03*
D16*
X339131126Y-160227281D03*
D15*
X343028317Y-153123451D03*
X252806465Y-150883561D03*
D16*
X254198819Y-154401208D03*
D19*
X258143091Y-149552991D03*
D16*
X259582526Y-155326251D03*
D15*
X263479717Y-148222421D03*
X342081500Y-116257432D03*
D16*
X343473854Y-119775079D03*
D19*
X347418126Y-114926862D03*
D16*
X348857561Y-120700122D03*
D15*
X352754752Y-113596292D03*
X292217885Y-151878652D03*
D16*
X293610239Y-155396299D03*
D19*
X297554511Y-150548082D03*
D16*
X298993946Y-156321342D03*
D15*
X302891137Y-149217512D03*
X338024283Y-134789444D03*
D16*
X334330769Y-130474823D03*
D17*
X333095181Y-136018407D03*
D16*
X328783873Y-134475585D03*
D15*
X328166079Y-137247370D03*
X276064567Y-121895851D03*
D16*
X272371053Y-117581230D03*
D17*
X271135465Y-123124814D03*
D16*
X266824157Y-121581992D03*
D15*
X266206363Y-124353777D03*
X129765866Y-112346271D03*
D16*
X129343806Y-116105840D03*
D19*
X135102492Y-113676841D03*
D16*
X133663057Y-119450101D03*
D15*
X140439118Y-115007411D03*
D18*
X264639284Y-136338901D03*
D15*
X274991878Y-161326624D03*
D16*
X276384232Y-164844271D03*
D19*
X280328504Y-159996054D03*
D16*
X281767939Y-165769314D03*
D15*
X285665130Y-158665484D03*
X252518943Y-199740611D03*
D16*
X247071383Y-198133692D03*
D17*
X249054390Y-203455883D03*
D16*
X244598338Y-204510065D03*
D15*
X245589837Y-207171155D03*
X142395353Y-140229869D03*
D16*
X141973293Y-143989438D03*
D19*
X147731979Y-141560439D03*
D16*
X146292544Y-147333699D03*
D15*
X153068605Y-142891009D03*
D18*
X149631657Y-173210152D03*
D15*
X333427763Y-116353828D03*
D16*
X329734249Y-112039207D03*
D17*
X328498661Y-117582791D03*
D16*
X324187353Y-116039969D03*
D15*
X323569559Y-118811754D03*
X283024869Y-115007410D03*
D16*
X284417223Y-118525057D03*
D19*
X288361495Y-113676840D03*
D16*
X289800930Y-119450100D03*
D15*
X293698121Y-112346270D03*
X327758555Y-137348977D03*
D16*
X329150909Y-140866624D03*
D19*
X333095181Y-136018407D03*
D16*
X334534616Y-141791667D03*
D15*
X338431807Y-134687837D03*
X261106133Y-192771377D03*
D16*
X263440206Y-195748717D03*
D19*
X265845093Y-189979916D03*
D16*
X268864946Y-195106610D03*
D15*
X270584053Y-187188455D03*
X306782752Y-131757391D03*
D16*
X308175106Y-135275038D03*
D19*
X312119378Y-130426821D03*
D16*
X313558813Y-136200081D03*
D15*
X317456004Y-129096251D03*
X132355597Y-180497139D03*
D16*
X131933537Y-184256708D03*
D19*
X137692223Y-181827709D03*
D16*
X136252788Y-187600969D03*
D15*
X143028849Y-183158279D03*
X164580768Y-129786807D03*
D16*
X164158708Y-133546376D03*
D19*
X169917394Y-131117377D03*
D16*
X168477959Y-136890637D03*
D15*
X175254020Y-132447947D03*
X137798819Y-158665490D03*
D16*
X137376759Y-162425059D03*
D19*
X143135445Y-159996060D03*
D16*
X141696010Y-165769320D03*
D15*
X148472071Y-161326630D03*
D21*
X198351981Y-151211382D03*
X195811986Y-151211377D03*
X193271982Y-151211381D03*
X190731981Y-151211382D03*
X188191980Y-151211381D03*
X185651981Y-151211381D03*
X183111981Y-151211382D03*
X180571981Y-151211382D03*
D22*
X198351982Y-153751382D03*
X195811981Y-153751382D03*
X193271981Y-153751382D03*
X190731981Y-153751382D03*
X188191981Y-153751382D03*
X185651981Y-153751382D03*
X183111980Y-153751382D03*
X180571981Y-153751382D03*
D15*
X321644988Y-147633492D03*
D16*
X317951474Y-143318871D03*
D17*
X316715886Y-148862455D03*
D16*
X312404578Y-147319633D03*
D15*
X311786784Y-150091418D03*
D23*
X236354285Y-125613068D03*
X236167623Y-126862052D03*
X235603110Y-124597913D03*
X235152468Y-127613227D03*
D24*
X234753297Y-126012239D03*
D23*
X234354126Y-124411251D03*
X233903484Y-127426565D03*
X233338971Y-125162426D03*
X233152309Y-126411410D03*
D15*
X270395357Y-142891015D03*
D16*
X271787711Y-146408662D03*
D19*
X275731983Y-141560445D03*
D16*
X277171418Y-147333705D03*
D15*
X281068609Y-140229875D03*
X120870210Y-113220165D03*
D16*
X119634621Y-107676579D03*
D17*
X115941108Y-111991202D03*
D16*
X112858758Y-108604928D03*
D15*
X111012006Y-110762239D03*
X170249971Y-150781953D03*
D16*
X169014382Y-145238367D03*
D17*
X165320869Y-149552990D03*
D16*
X162238519Y-146166716D03*
D15*
X160391767Y-148324027D03*
X159984243Y-148222420D03*
D16*
X159562183Y-151981989D03*
D19*
X165320869Y-149552990D03*
D16*
X163881434Y-155326250D03*
D15*
X170657495Y-150883560D03*
X125169341Y-130781884D03*
D16*
X124747281Y-134541453D03*
D19*
X130505967Y-132112454D03*
D16*
X129066532Y-137885714D03*
D15*
X135842593Y-133443024D03*
X248209959Y-132447946D03*
D16*
X249602313Y-135965593D03*
D19*
X253546585Y-131117376D03*
D16*
X254986020Y-136890636D03*
D15*
X258883211Y-129786806D03*
X85032173Y-134687850D03*
D16*
X84610113Y-138447419D03*
D19*
X90368799Y-136018420D03*
D16*
X88929364Y-141791680D03*
D15*
X95705425Y-137348990D03*
X120572841Y-149217491D03*
D16*
X120150781Y-152977060D03*
D19*
X125909467Y-150548061D03*
D16*
X124470032Y-156321321D03*
D15*
X131246093Y-151878631D03*
X346678012Y-134693055D03*
D16*
X348070366Y-138210702D03*
D19*
X352014638Y-133362485D03*
D16*
X353454073Y-139135745D03*
D15*
X357351264Y-132031915D03*
D18*
X123102580Y-122536975D03*
D15*
X170658578Y-199433447D03*
D16*
X168257001Y-202356617D03*
D19*
X174409569Y-203455892D03*
D16*
X170058013Y-207513784D03*
D15*
X178160560Y-207478337D03*
X140031594Y-114905804D03*
D16*
X138796005Y-109362218D03*
D17*
X135102492Y-113676841D03*
D16*
X132020142Y-110290567D03*
D15*
X130173390Y-112447878D03*
X293290597Y-112447877D03*
D16*
X289597083Y-108133256D03*
D17*
X288361495Y-113676840D03*
D16*
X284050187Y-112134018D03*
D15*
X283432393Y-114905803D03*
X152879908Y-187188467D03*
D16*
X151407453Y-190673340D03*
D19*
X157618868Y-189979928D03*
D16*
X154599015Y-195106622D03*
D15*
X162357828Y-192771389D03*
X285257606Y-158767091D03*
D16*
X281564092Y-154452470D03*
D17*
X280328504Y-159996054D03*
D16*
X276017196Y-158453232D03*
D15*
X275399402Y-161225017D03*
X135435069Y-133341417D03*
D16*
X134199480Y-127797831D03*
D17*
X130505967Y-132112454D03*
D16*
X127423617Y-128726180D03*
D15*
X125576865Y-130883491D03*
X312451976Y-110762241D03*
D16*
X308758462Y-106447620D03*
D17*
X307522874Y-111991204D03*
D16*
X303211566Y-110448382D03*
D15*
X302593772Y-113220167D03*
D23*
X186634454Y-141159902D03*
X185883279Y-142175057D03*
X186447792Y-139910918D03*
X184634295Y-142361719D03*
D24*
X185033466Y-140760731D03*
D23*
X185432637Y-139159743D03*
X183619140Y-141610544D03*
X184183653Y-139346405D03*
X183432478Y-140361560D03*
D15*
X297887089Y-130883481D03*
D16*
X294193575Y-126568860D03*
D17*
X292957987Y-132112444D03*
D16*
X288646679Y-130569622D03*
D15*
X288028885Y-133341407D03*
X146991867Y-121794254D03*
D16*
X146569807Y-125553823D03*
D19*
X152328493Y-123124824D03*
D16*
X150889058Y-128898084D03*
D15*
X157665119Y-124455394D03*
X142621325Y-183056672D03*
D16*
X141385736Y-177513086D03*
D17*
X137692223Y-181827709D03*
D16*
X134609873Y-178441435D03*
D15*
X132763121Y-180598746D03*
X280661085Y-140331482D03*
D16*
X276967571Y-136016861D03*
D17*
X275731983Y-141560445D03*
D16*
X271420675Y-140017623D03*
D15*
X270802881Y-142789408D03*
D18*
X256385688Y-195392121D03*
D15*
X116273704Y-131655787D03*
D16*
X115038115Y-126112201D03*
D17*
X111344602Y-130426824D03*
D16*
X108262252Y-127040550D03*
D15*
X106415500Y-129197861D03*
X287621361Y-133443014D03*
D16*
X289013715Y-136960661D03*
D19*
X292957987Y-132112444D03*
D16*
X294397422Y-137885704D03*
D15*
X298294613Y-130781874D03*
D25*
X206651980Y-146972382D03*
X209191980Y-146972382D03*
X211731980Y-146972382D03*
X214271980Y-146972382D03*
X216811980Y-146972382D03*
D20*
X211731980Y-141892382D03*
X214271980Y-141892382D03*
X216811981Y-141892383D03*
X219351980Y-119032382D03*
X219351980Y-121572382D03*
X219351980Y-124112382D03*
X219351976Y-126652385D03*
X219351980Y-129192382D03*
X219351980Y-131732382D03*
X219351980Y-134272382D03*
X219351973Y-136812382D03*
X219351980Y-139352382D03*
X219351980Y-141892382D03*
X219351980Y-144432382D03*
X219351978Y-146972381D03*
X204111982Y-146972382D03*
X204111980Y-144432382D03*
X204111980Y-141892382D03*
X204111980Y-139352382D03*
X204111984Y-136812379D03*
X204111980Y-134272382D03*
X204111980Y-131732382D03*
X204111980Y-129192382D03*
X204111987Y-126652382D03*
X204111980Y-124112382D03*
X204111980Y-121572382D03*
X204111980Y-119032382D03*
D23*
X190311658Y-126411416D03*
X189560483Y-127426571D03*
X190124996Y-125162432D03*
X188311499Y-127613233D03*
D24*
X188710670Y-126012245D03*
D23*
X189109841Y-124411257D03*
X187296344Y-126862058D03*
X187860857Y-124597919D03*
X187109682Y-125613074D03*
D26*
X227731986Y-131593382D03*
D27*
X225731986Y-131593382D03*
D15*
X280435111Y-183158296D03*
D16*
X281827465Y-186675943D03*
D19*
X285771737Y-181827726D03*
D16*
X287211172Y-187600986D03*
D15*
X291108363Y-180497156D03*
X89628685Y-116252235D03*
D16*
X89206625Y-120011804D03*
D19*
X94965311Y-117582805D03*
D16*
X93525876Y-123356065D03*
D15*
X100301937Y-118913375D03*
D18*
X167078276Y-195392110D03*
D15*
X99894413Y-118811768D03*
D16*
X98658824Y-113268182D03*
D17*
X94965311Y-117582805D03*
D16*
X91882961Y-114196531D03*
D15*
X90036209Y-116353842D03*
D18*
X300361397Y-122536979D03*
D15*
X257402991Y-169319192D03*
D16*
X258795345Y-172836839D03*
D19*
X262739617Y-167988622D03*
D16*
X264179052Y-173761882D03*
D15*
X268076243Y-166658052D03*
D18*
X95517362Y-146783741D03*
D15*
X302186248Y-113321774D03*
D16*
X303578602Y-116839421D03*
D19*
X307522874Y-111991204D03*
D16*
X308962309Y-117764464D03*
D15*
X312859500Y-110660634D03*
X157257595Y-124353787D03*
D16*
X156022006Y-118810201D03*
D17*
X152328493Y-123124824D03*
D16*
X149246143Y-119738550D03*
D15*
X147399391Y-121895861D03*
X323162035Y-118913361D03*
D16*
X324554389Y-122431008D03*
D19*
X328498661Y-117582791D03*
D16*
X329938096Y-123356051D03*
D15*
X333835287Y-116252221D03*
X174846496Y-132346340D03*
D16*
X173610907Y-126802754D03*
D17*
X169917394Y-131117377D03*
D16*
X166835044Y-127731103D03*
D15*
X164988292Y-129888414D03*
X302483613Y-149319119D03*
D16*
X298790099Y-145004498D03*
D17*
X297554511Y-150548082D03*
D16*
X293243203Y-149005260D03*
D15*
X292625409Y-151777045D03*
X258475687Y-129888413D03*
D16*
X254782173Y-125573792D03*
D17*
X253546585Y-131117376D03*
D16*
X249235277Y-129574554D03*
D15*
X248617483Y-132346339D03*
X352347228Y-113697899D03*
D16*
X348653714Y-109383278D03*
D17*
X347418126Y-114926862D03*
D16*
X343106818Y-113384040D03*
D15*
X342489024Y-116155825D03*
X106007976Y-129096254D03*
D16*
X105585916Y-132855823D03*
D19*
X111344602Y-130426824D03*
D16*
X109905167Y-136200084D03*
D15*
X116681228Y-131757394D03*
X267668719Y-166759659D03*
D16*
X263975205Y-162445038D03*
D17*
X262739617Y-167988622D03*
D16*
X258428309Y-166445800D03*
D15*
X257810515Y-169217585D03*
X342620793Y-153225058D03*
D16*
X338927279Y-148910437D03*
D17*
X337691691Y-154454021D03*
D16*
X333380383Y-152911199D03*
D15*
X332762589Y-155682984D03*
D23*
X240031499Y-140361559D03*
X239844837Y-141610543D03*
X239280324Y-139346404D03*
X238829682Y-142361718D03*
D24*
X238430511Y-140760730D03*
D23*
X238031340Y-139159742D03*
X237580698Y-142175056D03*
X237016185Y-139910917D03*
X236829523Y-141159901D03*
D21*
X235331990Y-151211389D03*
X232791990Y-151211389D03*
X230251990Y-151211389D03*
X227711990Y-151211389D03*
X225171989Y-151211388D03*
D22*
X235331990Y-153751389D03*
X232791991Y-153751391D03*
X230251991Y-153751390D03*
X227711990Y-153751389D03*
X225171989Y-153751390D03*
D15*
X161995944Y-192558223D03*
D16*
X162385701Y-186891999D03*
D17*
X157618868Y-189979928D03*
D16*
X155625208Y-185857669D03*
D15*
X153241792Y-187401633D03*
X80974945Y-116155809D03*
D16*
X79739356Y-110612223D03*
D17*
X76045843Y-114926846D03*
D16*
X72963493Y-111540572D03*
D15*
X71116741Y-113697883D03*
X245303394Y-207478326D03*
D16*
X248386975Y-209670145D03*
D19*
X249054390Y-203455883D03*
D16*
X253405946Y-207513775D03*
D15*
X252805386Y-199433440D03*
X110604482Y-110660632D03*
D16*
X110182422Y-114420201D03*
D19*
X115941108Y-111991202D03*
D16*
X114501673Y-117764462D03*
D15*
X121277734Y-113321772D03*
X95297901Y-137247383D03*
D16*
X94062312Y-131703797D03*
D17*
X90368799Y-136018420D03*
D16*
X87286449Y-132632146D03*
D15*
X85439697Y-134789457D03*
X80435645Y-153123462D03*
D16*
X80013585Y-156883031D03*
D19*
X85772271Y-154454032D03*
D16*
X84332836Y-160227292D03*
D15*
X91108897Y-155784602D03*
X76378422Y-134591462D03*
D16*
X75142833Y-129047876D03*
D17*
X71449320Y-133362499D03*
D16*
X68366970Y-129976225D03*
D15*
X66520218Y-132133536D03*
X90701373Y-155682995D03*
D16*
X89465784Y-150139409D03*
D17*
X85772271Y-154454032D03*
D16*
X82689921Y-151067758D03*
D15*
X80843169Y-153225069D03*
X265798839Y-124455384D03*
D16*
X267191193Y-127973031D03*
D19*
X271135465Y-123124814D03*
D16*
X272574900Y-128898074D03*
D15*
X276472091Y-121794244D03*
D18*
X158824686Y-136338908D03*
X83207322Y-125472623D03*
D15*
X148064547Y-161225023D03*
D16*
X146828958Y-155681437D03*
D17*
X143135445Y-159996060D03*
D16*
X140053095Y-156609786D03*
D15*
X138206343Y-158767097D03*
D18*
X327946609Y-146783727D03*
D15*
X66112694Y-132031929D03*
D16*
X65690634Y-135791498D03*
D19*
X71449320Y-133362499D03*
D16*
X70009885Y-139135759D03*
D15*
X76785946Y-134693069D03*
X290700839Y-180598763D03*
D16*
X287007325Y-176284142D03*
D17*
X285771737Y-181827726D03*
D16*
X281460429Y-180284904D03*
D15*
X280842635Y-183056689D03*
X317048480Y-129197858D03*
D16*
X313354966Y-124883237D03*
D17*
X312119378Y-130426821D03*
D16*
X307808070Y-128883999D03*
D15*
X307190276Y-131655784D03*
X165653464Y-169217580D03*
D16*
X164417875Y-163673994D03*
D17*
X160724362Y-167988617D03*
D16*
X157642012Y-164602343D03*
D15*
X155795260Y-166759654D03*
X111677174Y-150091403D03*
D16*
X110441585Y-144547817D03*
D17*
X106748072Y-148862440D03*
D16*
X103665722Y-145476166D03*
D15*
X101818970Y-147633477D03*
X152661081Y-142789402D03*
D16*
X151425492Y-137245816D03*
D17*
X147731979Y-141560439D03*
D16*
X144649629Y-138174165D03*
D15*
X142802877Y-140331476D03*
X311379260Y-150193025D03*
D16*
X312771614Y-153710672D03*
D19*
X316715886Y-148862455D03*
D16*
X318155321Y-154635715D03*
D15*
X322052512Y-147531885D03*
X356943740Y-132133522D03*
D16*
X353250226Y-127818901D03*
D17*
X352014638Y-133362485D03*
D16*
X347703330Y-131819663D03*
D15*
X347085536Y-134591448D03*
D18*
X273832318Y-173210152D03*
D15*
X270222169Y-187401621D03*
D16*
X265455336Y-184313692D03*
D17*
X265845093Y-189979916D03*
D16*
X261273138Y-189725099D03*
D15*
X261468017Y-192558211D03*
X155387736Y-166658047D03*
D16*
X154965676Y-170417616D03*
D19*
X160724362Y-167988617D03*
D16*
X159284927Y-173761877D03*
D15*
X166060988Y-169319187D03*
X70709217Y-113596276D03*
D16*
X70287157Y-117355845D03*
D19*
X76045843Y-114926846D03*
D16*
X74606408Y-120700106D03*
D15*
X81382469Y-116257416D03*
M02*
