%TF.GenerationSoftware,KiCad,Pcbnew,8.0.4*%
%TF.CreationDate,2024-10-20T10:14:10+02:00*%
%TF.ProjectId,fairyboard,66616972-7962-46f6-9172-642e6b696361,1*%
%TF.SameCoordinates,Original*%
%TF.FileFunction,Drillmap*%
%TF.FilePolarity,Positive*%
%FSLAX45Y45*%
G04 Gerber Fmt 4.5, Leading zero omitted, Abs format (unit mm)*
G04 Created by KiCad (PCBNEW 8.0.4) date 2024-10-20 10:14:10*
%MOMM*%
%LPD*%
G01*
G04 APERTURE LIST*
%ADD10C,0.150000*%
%ADD11C,0.200000*%
%ADD12C,0.100000*%
%ADD13C,0.110000*%
%ADD14C,0.170180*%
%ADD15C,0.300000*%
%ADD16C,0.320000*%
%ADD17C,0.398780*%
%ADD18C,0.500000*%
G04 APERTURE END LIST*
D10*
X7689054Y-14667426D02*
X7331010Y-16103463D01*
X12566147Y-10359332D02*
X10936051Y-9952903D01*
X6813181Y-10326592D02*
G75*
G02*
X6946525Y-10246468I106739J-26619D01*
G01*
X31744485Y-10838369D02*
X31543689Y-10033025D01*
X29494209Y-10121467D02*
G75*
G02*
X29627553Y-10201589I26611J-106733D01*
G01*
X25032282Y-21749160D02*
G75*
G02*
X24876809Y-21754592I-80452J75010D01*
G01*
X16860868Y-18183926D02*
G75*
G02*
X16834584Y-18082295I80432J75016D01*
G01*
X31877828Y-10918492D02*
G75*
G02*
X31744481Y-10838370I-26608J106742D01*
G01*
X17457530Y-15583795D02*
G75*
G02*
X17564262Y-15500409I106740J-26625D01*
G01*
X10601910Y-10838369D02*
G75*
G02*
X10468565Y-10918499I-106750J26629D01*
G01*
X24782135Y-15500406D02*
G75*
G02*
X24888862Y-15583795I15J-109974D01*
G01*
X16860868Y-18183926D02*
X18849958Y-20316963D01*
X10802706Y-10033024D02*
G75*
G02*
X10936051Y-9952905I106734J-26616D01*
G01*
X33769776Y-10652899D02*
G75*
G02*
X33641267Y-10592184I-28706J105599D01*
G01*
X27938956Y-19424042D02*
X29743270Y-18974175D01*
X12603127Y-18974177D02*
G75*
G02*
X12523003Y-18840831I26613J106737D01*
G01*
X12852188Y-10121466D02*
X18457098Y-11518929D01*
X7411130Y-16236807D02*
G75*
G02*
X7331014Y-16103464I26610J106727D01*
G01*
X29646906Y-10279211D02*
X29627553Y-10201589D01*
X18483706Y-11522194D02*
G75*
G02*
X18457098Y-11518929I-6J109995D01*
G01*
X29211329Y-16385984D02*
G75*
G02*
X29291450Y-16252643I106741J26604D01*
G01*
X14407442Y-19424042D02*
G75*
G02*
X14436659Y-19435995I-26622J-106758D01*
G01*
X9569426Y-15806153D02*
G75*
G02*
X9702772Y-15726034I106734J-26617D01*
G01*
X16045903Y-20389168D02*
X17314113Y-21749160D01*
X7608934Y-14534083D02*
G75*
G02*
X7689052Y-14667426I-26624J-106737D01*
G01*
X18849958Y-20316963D02*
G75*
G02*
X18844526Y-20472429I-80448J-75017D01*
G01*
X24782135Y-15500406D02*
X17564262Y-15500406D01*
X26325114Y-20369411D02*
X27909736Y-19435996D01*
X23496439Y-20316962D02*
X25485529Y-18183926D01*
X35399872Y-10246471D02*
X33769776Y-10652899D01*
X33507925Y-10512061D02*
G75*
G02*
X33641264Y-10592185I26615J-106719D01*
G01*
X36447681Y-13994308D02*
G75*
G02*
X36367559Y-14127652I-106731J-26612D01*
G01*
X23501869Y-20472433D02*
X24876813Y-21754588D01*
X29823391Y-18840832D02*
G75*
G02*
X29743270Y-18974176I-106721J-26618D01*
G01*
X8705127Y-10592183D02*
G75*
G02*
X8838470Y-10512061I106743J-26627D01*
G01*
X9368631Y-16611499D02*
G75*
G02*
X9235287Y-16691620I-106731J26609D01*
G01*
X16834585Y-18082295D02*
X17457530Y-15583795D01*
X35015386Y-16103462D02*
G75*
G02*
X34935266Y-16236808I-106726J-26618D01*
G01*
X32776972Y-15806154D02*
X32977765Y-16611498D01*
X11466213Y-16052340D02*
X11485563Y-15974716D01*
X9702772Y-15726034D02*
X11332867Y-16132461D01*
X34737462Y-14534081D02*
X36367559Y-14127652D01*
X30727488Y-15894595D02*
G75*
G02*
X30860827Y-15974718I26612J-106725D01*
G01*
X31013530Y-16132462D02*
X32643626Y-15726032D01*
X13054947Y-16252639D02*
G75*
G02*
X13135069Y-16385985I-26607J-106731D01*
G01*
X12699491Y-10279211D02*
G75*
G02*
X12566148Y-10359328I-106741J26631D01*
G01*
X29780249Y-10359332D02*
G75*
G02*
X29646901Y-10279212I-26609J106742D01*
G01*
X9368631Y-16611499D02*
X9569426Y-15806153D01*
X10802706Y-10033025D02*
X10601910Y-10838369D01*
X12523006Y-18840832D02*
X13135069Y-16385985D01*
X5978836Y-14127653D02*
X7608934Y-14534081D01*
X12603127Y-18974177D02*
X14407442Y-19424042D01*
X26300493Y-20389170D02*
G75*
G02*
X26325114Y-20369411I80427J-75000D01*
G01*
X8705127Y-10592183D02*
G75*
G02*
X8576621Y-10652898I-99797J44873D01*
G01*
X27909736Y-19435996D02*
G75*
G02*
X27938956Y-19424042I55824J-94764D01*
G01*
X23889301Y-11518925D02*
G75*
G02*
X23862689Y-11522195I-26651J106975D01*
G01*
X34657341Y-14667424D02*
G75*
G02*
X34737461Y-14534077I106749J26604D01*
G01*
X30860831Y-15974717D02*
X30880185Y-16052340D01*
X18483706Y-11522194D02*
X23862689Y-11522196D01*
X33507925Y-10512061D02*
X31877829Y-10918492D01*
X11485563Y-15974716D02*
G75*
G02*
X11618905Y-15894601I106717J-26594D01*
G01*
X31410344Y-9952905D02*
X29780249Y-10359332D01*
X8576621Y-10652898D02*
X6946593Y-10246470D01*
X11618907Y-15894595D02*
X13054947Y-16252639D01*
X23501868Y-20472433D02*
G75*
G02*
X23496436Y-20316959I75022J80453D01*
G01*
X31013530Y-16132462D02*
G75*
G02*
X30880181Y-16052341I-26610J106742D01*
G01*
X33111110Y-16691621D02*
X34935266Y-16236807D01*
X12718845Y-10201587D02*
G75*
G02*
X12852189Y-10121461I106725J-26593D01*
G01*
X25032282Y-21749160D02*
X26300493Y-20389170D01*
X14436659Y-19435995D02*
X16021284Y-20369410D01*
X16021284Y-20369410D02*
G75*
G02*
X16045902Y-20389169I-55784J-94720D01*
G01*
X35015385Y-16103462D02*
X34657341Y-14667424D01*
X35399872Y-10246471D02*
G75*
G02*
X35533210Y-10326592I26608J-106730D01*
G01*
X7411131Y-16236807D02*
X9235287Y-16691620D01*
X29211329Y-16385984D02*
X29823391Y-18840832D01*
X29291450Y-16252641D02*
X30727487Y-15894595D01*
X24888865Y-15583795D02*
X25511812Y-18082295D01*
X10468567Y-10918492D02*
X8838470Y-10512061D01*
X23889301Y-11518926D02*
X29494209Y-10121467D01*
X5898715Y-13994308D02*
X6813181Y-10326591D01*
X11466212Y-16052340D02*
G75*
G02*
X11332867Y-16132462I-106732J26610D01*
G01*
X32643626Y-15726032D02*
G75*
G02*
X32776970Y-15806155I26614J-106728D01*
G01*
X5978836Y-14127653D02*
G75*
G02*
X5898724Y-13994310I26624J106733D01*
G01*
X25511812Y-18082296D02*
G75*
G02*
X25485527Y-18183925I-106712J-26614D01*
G01*
X35533215Y-10326591D02*
X36447681Y-13994308D01*
X31410344Y-9952905D02*
G75*
G02*
X31543688Y-10033025I26616J-106725D01*
G01*
X17469583Y-21754589D02*
X18844528Y-20472432D01*
X17469583Y-21754589D02*
G75*
G02*
X17314112Y-21749162I-75023J80429D01*
G01*
X33111110Y-16691621D02*
G75*
G02*
X32977762Y-16611499I-26610J106741D01*
G01*
X12718845Y-10201587D02*
X12699491Y-10279211D01*
D11*
D12*
X22778198Y-11667484D02*
X22868198Y-11757484D01*
X22868198Y-11667484D02*
X22778198Y-11757484D01*
X23078198Y-11667484D02*
X23168198Y-11757484D01*
X23168198Y-11667484D02*
X23078198Y-11757484D01*
D13*
X18112198Y-15375138D02*
G75*
G02*
X18002198Y-15375138I-55000J0D01*
G01*
X18002198Y-15375138D02*
G75*
G02*
X18112198Y-15375138I55000J0D01*
G01*
X18366198Y-15375138D02*
G75*
G02*
X18256198Y-15375138I-55000J0D01*
G01*
X18256198Y-15375138D02*
G75*
G02*
X18366198Y-15375138I55000J0D01*
G01*
X18620198Y-15375138D02*
G75*
G02*
X18510198Y-15375138I-55000J0D01*
G01*
X18510198Y-15375138D02*
G75*
G02*
X18620198Y-15375138I55000J0D01*
G01*
X18874198Y-15375138D02*
G75*
G02*
X18764198Y-15375138I-55000J0D01*
G01*
X18764198Y-15375138D02*
G75*
G02*
X18874198Y-15375138I55000J0D01*
G01*
X19128198Y-15375138D02*
G75*
G02*
X19018198Y-15375138I-55000J0D01*
G01*
X19018198Y-15375138D02*
G75*
G02*
X19128198Y-15375138I55000J0D01*
G01*
X19382198Y-15375138D02*
G75*
G02*
X19272198Y-15375138I-55000J0D01*
G01*
X19272198Y-15375138D02*
G75*
G02*
X19382198Y-15375138I55000J0D01*
G01*
X19636198Y-15375138D02*
G75*
G02*
X19526198Y-15375138I-55000J0D01*
G01*
X19526198Y-15375138D02*
G75*
G02*
X19636198Y-15375138I55000J0D01*
G01*
X19890198Y-15375138D02*
G75*
G02*
X19780198Y-15375138I-55000J0D01*
G01*
X19780198Y-15375138D02*
G75*
G02*
X19890198Y-15375138I55000J0D01*
G01*
X22572199Y-15375139D02*
G75*
G02*
X22462199Y-15375139I-55000J0D01*
G01*
X22462199Y-15375139D02*
G75*
G02*
X22572199Y-15375139I55000J0D01*
G01*
X22826199Y-15375139D02*
G75*
G02*
X22716199Y-15375139I-55000J0D01*
G01*
X22716199Y-15375139D02*
G75*
G02*
X22826199Y-15375139I55000J0D01*
G01*
X23080199Y-15375139D02*
G75*
G02*
X22970199Y-15375139I-55000J0D01*
G01*
X22970199Y-15375139D02*
G75*
G02*
X23080199Y-15375139I55000J0D01*
G01*
X23334199Y-15375139D02*
G75*
G02*
X23224199Y-15375139I-55000J0D01*
G01*
X23224199Y-15375139D02*
G75*
G02*
X23334199Y-15375139I55000J0D01*
G01*
X23588199Y-15375139D02*
G75*
G02*
X23478199Y-15375139I-55000J0D01*
G01*
X23478199Y-15375139D02*
G75*
G02*
X23588199Y-15375139I55000J0D01*
G01*
D14*
X6611269Y-13118103D02*
X6611269Y-13288283D01*
X6526179Y-13203193D02*
X6696359Y-13203193D01*
X6652022Y-13128264D02*
X6652022Y-13298444D01*
X6566932Y-13213354D02*
X6737112Y-13213354D01*
X7070922Y-11274538D02*
X7070922Y-11444718D01*
X6985832Y-11359628D02*
X7156012Y-11359628D01*
X7111674Y-11284698D02*
X7111674Y-11454878D01*
X7026584Y-11369788D02*
X7196764Y-11369788D01*
X7637842Y-13374056D02*
X7637842Y-13544236D01*
X7552752Y-13459146D02*
X7722932Y-13459146D01*
X7678595Y-13384217D02*
X7678595Y-13554397D01*
X7593505Y-13469307D02*
X7763685Y-13469307D01*
X8043564Y-15227256D02*
X8043564Y-15397436D01*
X7958474Y-15312346D02*
X8128654Y-15312346D01*
X8084317Y-15237417D02*
X8084317Y-15407597D01*
X7999227Y-15322507D02*
X8169407Y-15322507D01*
X8097494Y-11530491D02*
X8097494Y-11700671D01*
X8012404Y-11615581D02*
X8182584Y-11615581D01*
X8138247Y-11540652D02*
X8138247Y-11710832D01*
X8053157Y-11625742D02*
X8223337Y-11625742D01*
X8503217Y-13383695D02*
X8503217Y-13553875D01*
X8418127Y-13468785D02*
X8588307Y-13468785D01*
X8543970Y-13393856D02*
X8543970Y-13564036D01*
X8458880Y-13478946D02*
X8629060Y-13478946D01*
X8962869Y-11540133D02*
X8962869Y-11710313D01*
X8877779Y-11625223D02*
X9047959Y-11625223D01*
X9003621Y-11550294D02*
X9003621Y-11720474D01*
X8918531Y-11635384D02*
X9088711Y-11635384D01*
X9070137Y-15483209D02*
X9070137Y-15653389D01*
X8985047Y-15568299D02*
X9155227Y-15568299D01*
X9110890Y-15493370D02*
X9110890Y-15663550D01*
X9025800Y-15578460D02*
X9195980Y-15578460D01*
X9529790Y-13639648D02*
X9529790Y-13809828D01*
X9444700Y-13724738D02*
X9614880Y-13724738D01*
X9570543Y-13649809D02*
X9570543Y-13819989D01*
X9485453Y-13734899D02*
X9655633Y-13734899D01*
X9989441Y-11796087D02*
X9989441Y-11966267D01*
X9904351Y-11881177D02*
X10074531Y-11881177D01*
X10030194Y-11806247D02*
X10030194Y-11976427D01*
X9945104Y-11891337D02*
X10115284Y-11891337D01*
X10141145Y-14668097D02*
X10141145Y-14838277D01*
X10056055Y-14753187D02*
X10226235Y-14753187D01*
X10181897Y-14678258D02*
X10181897Y-14848438D01*
X10096807Y-14763348D02*
X10266987Y-14763348D01*
X10600798Y-12824535D02*
X10600798Y-12994715D01*
X10515708Y-12909625D02*
X10685888Y-12909625D01*
X10641550Y-12834696D02*
X10641550Y-13004876D01*
X10556460Y-12919786D02*
X10726640Y-12919786D01*
X11060448Y-10980973D02*
X11060448Y-11151153D01*
X10975358Y-11066063D02*
X11145538Y-11066063D01*
X11101201Y-10991134D02*
X11101201Y-11161314D01*
X11016111Y-11076224D02*
X11186291Y-11076224D01*
X11167717Y-14924050D02*
X11167717Y-15094230D01*
X11082627Y-15009140D02*
X11252807Y-15009140D01*
X11208470Y-14934211D02*
X11208470Y-15104391D01*
X11123380Y-15019301D02*
X11293560Y-15019301D01*
X11627370Y-13080489D02*
X11627370Y-13250669D01*
X11542280Y-13165579D02*
X11712460Y-13165579D01*
X11668123Y-13090649D02*
X11668123Y-13260829D01*
X11583033Y-13175739D02*
X11753213Y-13175739D01*
X12057284Y-14836659D02*
X12057284Y-15006839D01*
X11972194Y-14921749D02*
X12142374Y-14921749D01*
X12087021Y-11236926D02*
X12087021Y-11407106D01*
X12001931Y-11322016D02*
X12172111Y-11322016D01*
X12098036Y-14846820D02*
X12098036Y-15017000D01*
X12012946Y-14931910D02*
X12183126Y-14931910D01*
X12127773Y-11247087D02*
X12127773Y-11417267D01*
X12042683Y-11332177D02*
X12212863Y-11332177D01*
X12516934Y-12993098D02*
X12516934Y-13163278D01*
X12431844Y-13078188D02*
X12602024Y-13078188D01*
X12557686Y-13003259D02*
X12557686Y-13173439D01*
X12472596Y-13088349D02*
X12642776Y-13088349D01*
X12976587Y-11149537D02*
X12976587Y-11319717D01*
X12891497Y-11234627D02*
X13061677Y-11234627D01*
X13017339Y-11159698D02*
X13017339Y-11329878D01*
X12932249Y-11244788D02*
X13102429Y-11244788D01*
X13083857Y-15092612D02*
X13083857Y-15262792D01*
X12998767Y-15177702D02*
X13168947Y-15177702D01*
X13124609Y-15102773D02*
X13124609Y-15272953D01*
X13039519Y-15187863D02*
X13209699Y-15187863D01*
X13235560Y-17964624D02*
X13235560Y-18134804D01*
X13150470Y-18049714D02*
X13320650Y-18049714D01*
X13276312Y-17974785D02*
X13276312Y-18144965D01*
X13191222Y-18059875D02*
X13361402Y-18059875D01*
X13543507Y-13249052D02*
X13543507Y-13419232D01*
X13458417Y-13334142D02*
X13628597Y-13334142D01*
X13584259Y-13259212D02*
X13584259Y-13429392D01*
X13499169Y-13344302D02*
X13669349Y-13344302D01*
X13779882Y-15781459D02*
X13779882Y-15951639D01*
X13694792Y-15866549D02*
X13864972Y-15866549D01*
X13820634Y-15791620D02*
X13820634Y-15961800D01*
X13735544Y-15876710D02*
X13905724Y-15876710D01*
X14003159Y-11405490D02*
X14003159Y-11575670D01*
X13918069Y-11490580D02*
X14088249Y-11490580D01*
X14043912Y-11415651D02*
X14043912Y-11585831D01*
X13958822Y-11500741D02*
X14129002Y-11500741D01*
X14239535Y-13937897D02*
X14239535Y-14108077D01*
X14154445Y-14022987D02*
X14324625Y-14022987D01*
X14262132Y-18220577D02*
X14262132Y-18390757D01*
X14177042Y-18305667D02*
X14347222Y-18305667D01*
X14280288Y-13948058D02*
X14280288Y-14118238D01*
X14195198Y-14033148D02*
X14365378Y-14033148D01*
X14302885Y-18230738D02*
X14302885Y-18400918D01*
X14217795Y-18315828D02*
X14387975Y-18315828D01*
X14699187Y-12094335D02*
X14699187Y-12264515D01*
X14614097Y-12179425D02*
X14784277Y-12179425D01*
X14739939Y-12104496D02*
X14739939Y-12274676D01*
X14654849Y-12189586D02*
X14825029Y-12189586D01*
X14806455Y-16037412D02*
X14806455Y-16207592D01*
X14721365Y-16122502D02*
X14891545Y-16122502D01*
X14847207Y-16047573D02*
X14847207Y-16217753D01*
X14762117Y-16132663D02*
X14932297Y-16132663D01*
X15266108Y-14193850D02*
X15266108Y-14364030D01*
X15181018Y-14278940D02*
X15351198Y-14278940D01*
X15287991Y-18633757D02*
X15287991Y-18803937D01*
X15202901Y-18718847D02*
X15373081Y-18718847D01*
X15306860Y-14204011D02*
X15306860Y-14374191D01*
X15221770Y-14289101D02*
X15391950Y-14289101D01*
X15324179Y-18655073D02*
X15324179Y-18825253D01*
X15239089Y-18740163D02*
X15409269Y-18740163D01*
X15538774Y-16580715D02*
X15538774Y-16750895D01*
X15453684Y-16665805D02*
X15623864Y-16665805D01*
X15579526Y-16590875D02*
X15579526Y-16761055D01*
X15494436Y-16675965D02*
X15664616Y-16675965D01*
X15725759Y-12350289D02*
X15725759Y-12520469D01*
X15640669Y-12435379D02*
X15810849Y-12435379D01*
X15766512Y-12360449D02*
X15766512Y-12530629D01*
X15681422Y-12445539D02*
X15851602Y-12445539D01*
X15998424Y-14737152D02*
X15998424Y-14907332D01*
X15913334Y-14822242D02*
X16083514Y-14822242D01*
X16039177Y-14747313D02*
X16039177Y-14917493D01*
X15954087Y-14832403D02*
X16124267Y-14832403D01*
X16199594Y-19170732D02*
X16199594Y-19340912D01*
X16114504Y-19255822D02*
X16284684Y-19255822D01*
X16235783Y-19192049D02*
X16235783Y-19362229D01*
X16150693Y-19277139D02*
X16320873Y-19277139D01*
X16458077Y-12893591D02*
X16458077Y-13063771D01*
X16372987Y-12978681D02*
X16543167Y-12978681D01*
X16498829Y-12903751D02*
X16498829Y-13073931D01*
X16413739Y-12988841D02*
X16583919Y-12988841D01*
X16565346Y-16836668D02*
X16565346Y-17006848D01*
X16480256Y-16921758D02*
X16650436Y-16921758D01*
X16606099Y-16846829D02*
X16606099Y-17017009D01*
X16521009Y-16931919D02*
X16691189Y-16931919D01*
X17024997Y-14993105D02*
X17024997Y-15163285D01*
X16939907Y-15078195D02*
X17110087Y-15078195D01*
X17065750Y-15003266D02*
X17065750Y-15173446D01*
X16980660Y-15088356D02*
X17150840Y-15088356D01*
X17065858Y-19858255D02*
X17065858Y-20028435D01*
X16980768Y-19943345D02*
X17150948Y-19943345D01*
X17094502Y-19888972D02*
X17094502Y-20059152D01*
X17009412Y-19974062D02*
X17179592Y-19974062D01*
X17484650Y-13149544D02*
X17484650Y-13319724D01*
X17399560Y-13234634D02*
X17569740Y-13234634D01*
X17525402Y-13159705D02*
X17525402Y-13329885D01*
X17440312Y-13244795D02*
X17610492Y-13244795D01*
X17787412Y-20632026D02*
X17787412Y-20802206D01*
X17702322Y-20717116D02*
X17872502Y-20717116D01*
X17816056Y-20662744D02*
X17816056Y-20832924D01*
X17730966Y-20747834D02*
X17901146Y-20747834D01*
X24530339Y-20662743D02*
X24530339Y-20832923D01*
X24445249Y-20747833D02*
X24615429Y-20747833D01*
X24558984Y-20632026D02*
X24558984Y-20802206D01*
X24473894Y-20717116D02*
X24644074Y-20717116D01*
X24820996Y-13159705D02*
X24820996Y-13329885D01*
X24735906Y-13244795D02*
X24906086Y-13244795D01*
X24861748Y-13149544D02*
X24861748Y-13319724D01*
X24776658Y-13234634D02*
X24946838Y-13234634D01*
X25251894Y-19888971D02*
X25251894Y-20059151D01*
X25166804Y-19974061D02*
X25336984Y-19974061D01*
X25280539Y-19858254D02*
X25280539Y-20028434D01*
X25195449Y-19943344D02*
X25365629Y-19943344D01*
X25280646Y-15003266D02*
X25280646Y-15173446D01*
X25195556Y-15088356D02*
X25365736Y-15088356D01*
X25321399Y-14993105D02*
X25321399Y-15163285D01*
X25236309Y-15078195D02*
X25406489Y-15078195D01*
X25740299Y-16846829D02*
X25740299Y-17017009D01*
X25655209Y-16931919D02*
X25825389Y-16931919D01*
X25781051Y-16836669D02*
X25781051Y-17006849D01*
X25695961Y-16921759D02*
X25866141Y-16921759D01*
X25847569Y-12903751D02*
X25847569Y-13073931D01*
X25762479Y-12988841D02*
X25932659Y-12988841D01*
X25888321Y-12893591D02*
X25888321Y-13063771D01*
X25803231Y-12978681D02*
X25973411Y-12978681D01*
X26110613Y-19192048D02*
X26110613Y-19362228D01*
X26025523Y-19277138D02*
X26195703Y-19277138D01*
X26146802Y-19170731D02*
X26146802Y-19340911D01*
X26061712Y-19255821D02*
X26231892Y-19255821D01*
X26307219Y-14747313D02*
X26307219Y-14917493D01*
X26222129Y-14832403D02*
X26392309Y-14832403D01*
X26347972Y-14737152D02*
X26347972Y-14907332D01*
X26262882Y-14822242D02*
X26433062Y-14822242D01*
X26579884Y-12360448D02*
X26579884Y-12530628D01*
X26494794Y-12445538D02*
X26664974Y-12445538D01*
X26620636Y-12350288D02*
X26620636Y-12520468D01*
X26535546Y-12435378D02*
X26705726Y-12435378D01*
X26766872Y-16590876D02*
X26766872Y-16761056D01*
X26681782Y-16675966D02*
X26851962Y-16675966D01*
X26807624Y-16580715D02*
X26807624Y-16750895D01*
X26722534Y-16665805D02*
X26892714Y-16665805D01*
X27022217Y-18655072D02*
X27022217Y-18825252D01*
X26937127Y-18740162D02*
X27107307Y-18740162D01*
X27039536Y-14204011D02*
X27039536Y-14374191D01*
X26954446Y-14289101D02*
X27124626Y-14289101D01*
X27058405Y-18633756D02*
X27058405Y-18803936D01*
X26973315Y-18718846D02*
X27143495Y-18718846D01*
X27080288Y-14193851D02*
X27080288Y-14364031D01*
X26995198Y-14278941D02*
X27165378Y-14278941D01*
X27499188Y-16047572D02*
X27499188Y-16217752D01*
X27414098Y-16132662D02*
X27584278Y-16132662D01*
X27539940Y-16037412D02*
X27539940Y-16207592D01*
X27454850Y-16122502D02*
X27625030Y-16122502D01*
X27606457Y-12104495D02*
X27606457Y-12274675D01*
X27521367Y-12189585D02*
X27691547Y-12189585D01*
X27647209Y-12094334D02*
X27647209Y-12264514D01*
X27562119Y-12179424D02*
X27732299Y-12179424D01*
X28043511Y-18230740D02*
X28043511Y-18400920D01*
X27958421Y-18315830D02*
X28128601Y-18315830D01*
X28066108Y-13948058D02*
X28066108Y-14118238D01*
X27981018Y-14033148D02*
X28151198Y-14033148D01*
X28084263Y-18220579D02*
X28084263Y-18390759D01*
X27999173Y-18305669D02*
X28169353Y-18305669D01*
X28106861Y-13937897D02*
X28106861Y-14108077D01*
X28021771Y-14022987D02*
X28191951Y-14022987D01*
X28302487Y-11415651D02*
X28302487Y-11585831D01*
X28217397Y-11500741D02*
X28387577Y-11500741D01*
X28343239Y-11405490D02*
X28343239Y-11575670D01*
X28258149Y-11490580D02*
X28428329Y-11490580D01*
X28525761Y-15791619D02*
X28525761Y-15961799D01*
X28440671Y-15876709D02*
X28610851Y-15876709D01*
X28566513Y-15781458D02*
X28566513Y-15951638D01*
X28481423Y-15866548D02*
X28651603Y-15866548D01*
X28762136Y-13259211D02*
X28762136Y-13429391D01*
X28677046Y-13344301D02*
X28847226Y-13344301D01*
X28802888Y-13249051D02*
X28802888Y-13419231D01*
X28717798Y-13334141D02*
X28887978Y-13334141D01*
X29070084Y-17974786D02*
X29070084Y-18144966D01*
X28984994Y-18059876D02*
X29155174Y-18059876D01*
X29110836Y-17964626D02*
X29110836Y-18134806D01*
X29025746Y-18049716D02*
X29195926Y-18049716D01*
X29221788Y-15102775D02*
X29221788Y-15272955D01*
X29136698Y-15187865D02*
X29306878Y-15187865D01*
X29262541Y-15092614D02*
X29262541Y-15262794D01*
X29177451Y-15177704D02*
X29347631Y-15177704D01*
X29329060Y-11159698D02*
X29329060Y-11329878D01*
X29243970Y-11244788D02*
X29414150Y-11244788D01*
X29369812Y-11149537D02*
X29369812Y-11319717D01*
X29284722Y-11234627D02*
X29454902Y-11234627D01*
X29788709Y-13003258D02*
X29788709Y-13173438D01*
X29703619Y-13088348D02*
X29873799Y-13088348D01*
X29829461Y-12993097D02*
X29829461Y-13163277D01*
X29744371Y-13078187D02*
X29914551Y-13078187D01*
X30218625Y-11247087D02*
X30218625Y-11417267D01*
X30133535Y-11332177D02*
X30303715Y-11332177D01*
X30248361Y-14846822D02*
X30248361Y-15017002D01*
X30163271Y-14931912D02*
X30333451Y-14931912D01*
X30259377Y-11236927D02*
X30259377Y-11407107D01*
X30174287Y-11322017D02*
X30344467Y-11322017D01*
X30289114Y-14836661D02*
X30289114Y-15006841D01*
X30204024Y-14921751D02*
X30374204Y-14921751D01*
X30678275Y-13090649D02*
X30678275Y-13260829D01*
X30593185Y-13175739D02*
X30763365Y-13175739D01*
X30719028Y-13080488D02*
X30719028Y-13250668D01*
X30633938Y-13165578D02*
X30804118Y-13165578D01*
X31137926Y-14934212D02*
X31137926Y-15104392D01*
X31052836Y-15019302D02*
X31223016Y-15019302D01*
X31178678Y-14924052D02*
X31178678Y-15094232D01*
X31093588Y-15009142D02*
X31263768Y-15009142D01*
X31245198Y-10991134D02*
X31245198Y-11161314D01*
X31160108Y-11076224D02*
X31330288Y-11076224D01*
X31285950Y-10980973D02*
X31285950Y-11151153D01*
X31200860Y-11066063D02*
X31371040Y-11066063D01*
X31704848Y-12834696D02*
X31704848Y-13004876D01*
X31619758Y-12919786D02*
X31789938Y-12919786D01*
X31745600Y-12824535D02*
X31745600Y-12994715D01*
X31660510Y-12909625D02*
X31830690Y-12909625D01*
X32164499Y-14678259D02*
X32164499Y-14848439D01*
X32079409Y-14763349D02*
X32249589Y-14763349D01*
X32205251Y-14668098D02*
X32205251Y-14838278D01*
X32120161Y-14753188D02*
X32290341Y-14753188D01*
X32316203Y-11806246D02*
X32316203Y-11976426D01*
X32231113Y-11891336D02*
X32401293Y-11891336D01*
X32356956Y-11796085D02*
X32356956Y-11966265D01*
X32271866Y-11881175D02*
X32442046Y-11881175D01*
X32775855Y-13649808D02*
X32775855Y-13819988D01*
X32690765Y-13734898D02*
X32860945Y-13734898D01*
X32816608Y-13639647D02*
X32816608Y-13809827D01*
X32731518Y-13724737D02*
X32901698Y-13724737D01*
X33235506Y-15493369D02*
X33235506Y-15663549D01*
X33150416Y-15578459D02*
X33320596Y-15578459D01*
X33276259Y-15483208D02*
X33276259Y-15653388D01*
X33191169Y-15568298D02*
X33361349Y-15568298D01*
X33342776Y-11550293D02*
X33342776Y-11720473D01*
X33257686Y-11635383D02*
X33427866Y-11635383D01*
X33383529Y-11540132D02*
X33383529Y-11710312D01*
X33298439Y-11625222D02*
X33468619Y-11625222D01*
X33802428Y-13393854D02*
X33802428Y-13564034D01*
X33717338Y-13478944D02*
X33887518Y-13478944D01*
X33843181Y-13383694D02*
X33843181Y-13553874D01*
X33758091Y-13468784D02*
X33928271Y-13468784D01*
X34208150Y-11540653D02*
X34208150Y-11710833D01*
X34123060Y-11625743D02*
X34293240Y-11625743D01*
X34248902Y-11530492D02*
X34248902Y-11700672D01*
X34163812Y-11615582D02*
X34333992Y-11615582D01*
X34262079Y-15237416D02*
X34262079Y-15407596D01*
X34176989Y-15322506D02*
X34347169Y-15322506D01*
X34302832Y-15227255D02*
X34302832Y-15397435D01*
X34217742Y-15312345D02*
X34387922Y-15312345D01*
X34667801Y-13384215D02*
X34667801Y-13554395D01*
X34582711Y-13469305D02*
X34752891Y-13469305D01*
X34708554Y-13374055D02*
X34708554Y-13544235D01*
X34623464Y-13459145D02*
X34793644Y-13459145D01*
X35234723Y-11284700D02*
X35234723Y-11454880D01*
X35149633Y-11369790D02*
X35319813Y-11369790D01*
X35275475Y-11274539D02*
X35275475Y-11444719D01*
X35190385Y-11359629D02*
X35360565Y-11359629D01*
X35694374Y-13128262D02*
X35694374Y-13298442D01*
X35609284Y-13213352D02*
X35779464Y-13213352D01*
X35735126Y-13118101D02*
X35735126Y-13288281D01*
X35650036Y-13203191D02*
X35820216Y-13203191D01*
D15*
X6675130Y-13685217D02*
X6675130Y-13473083D01*
X6462996Y-13473083D01*
X6462996Y-13685217D01*
X6675130Y-13685217D01*
X6942764Y-13103689D02*
X6942764Y-12891555D01*
X6730630Y-12891555D01*
X6730630Y-13103689D01*
X6942764Y-13103689D01*
X7107055Y-14019643D02*
X7107055Y-13807509D01*
X6894921Y-13807509D01*
X6894921Y-14019643D01*
X7107055Y-14019643D01*
X7134783Y-11841651D02*
X7134783Y-11629517D01*
X6922649Y-11629517D01*
X6922649Y-11841651D01*
X7134783Y-11841651D01*
X7402416Y-11260124D02*
X7402416Y-11047990D01*
X7190282Y-11047990D01*
X7190282Y-11260124D01*
X7402416Y-11260124D01*
X7566708Y-12176078D02*
X7566708Y-11963944D01*
X7354574Y-11963944D01*
X7354574Y-12176078D01*
X7566708Y-12176078D01*
X7620350Y-13010855D02*
X7620350Y-12798721D01*
X7408216Y-12798721D01*
X7408216Y-13010855D01*
X7620350Y-13010855D01*
X8080003Y-11167289D02*
X8080003Y-10955155D01*
X7867869Y-10955155D01*
X7867869Y-11167289D01*
X8080003Y-11167289D01*
X8107425Y-15794370D02*
X8107425Y-15582236D01*
X7895291Y-15582236D01*
X7895291Y-15794370D01*
X8107425Y-15794370D01*
X8375059Y-15212843D02*
X8375059Y-15000709D01*
X8162925Y-15000709D01*
X8162925Y-15212843D01*
X8375059Y-15212843D01*
X8539351Y-16128796D02*
X8539351Y-15916662D01*
X8327217Y-15916662D01*
X8327217Y-16128796D01*
X8539351Y-16128796D01*
X8567078Y-13950809D02*
X8567078Y-13738675D01*
X8354944Y-13738675D01*
X8354944Y-13950809D01*
X8567078Y-13950809D01*
X8834712Y-13369282D02*
X8834712Y-13157148D01*
X8622578Y-13157148D01*
X8622578Y-13369282D01*
X8834712Y-13369282D01*
X8999003Y-14285235D02*
X8999003Y-14073101D01*
X8786869Y-14073101D01*
X8786869Y-14285235D01*
X8999003Y-14285235D01*
X9026730Y-12107247D02*
X9026730Y-11895113D01*
X8814596Y-11895113D01*
X8814596Y-12107247D01*
X9026730Y-12107247D01*
X9052645Y-15120008D02*
X9052645Y-14907874D01*
X8840511Y-14907874D01*
X8840511Y-15120008D01*
X9052645Y-15120008D01*
X9294363Y-11525720D02*
X9294363Y-11313586D01*
X9082229Y-11313586D01*
X9082229Y-11525720D01*
X9294363Y-11525720D01*
X9458655Y-12441673D02*
X9458655Y-12229539D01*
X9246521Y-12229539D01*
X9246521Y-12441673D01*
X9458655Y-12441673D01*
X9512298Y-13276447D02*
X9512298Y-13064313D01*
X9300164Y-13064313D01*
X9300164Y-13276447D01*
X9512298Y-13276447D01*
X9971949Y-11432885D02*
X9971949Y-11220751D01*
X9759815Y-11220751D01*
X9759815Y-11432885D01*
X9971949Y-11432885D01*
X10205006Y-15235211D02*
X10205006Y-15023077D01*
X9992872Y-15023077D01*
X9992872Y-15235211D01*
X10205006Y-15235211D01*
X10472639Y-14653684D02*
X10472639Y-14441550D01*
X10260505Y-14441550D01*
X10260505Y-14653684D01*
X10472639Y-14653684D01*
X10636931Y-15569637D02*
X10636931Y-15357503D01*
X10424797Y-15357503D01*
X10424797Y-15569637D01*
X10636931Y-15569637D01*
X10664659Y-13391649D02*
X10664659Y-13179515D01*
X10452525Y-13179515D01*
X10452525Y-13391649D01*
X10664659Y-13391649D01*
X10932292Y-12810122D02*
X10932292Y-12597988D01*
X10720158Y-12597988D01*
X10720158Y-12810122D01*
X10932292Y-12810122D01*
X11096584Y-13726075D02*
X11096584Y-13513941D01*
X10884450Y-13513941D01*
X10884450Y-13726075D01*
X11096584Y-13726075D01*
X11124309Y-11548087D02*
X11124309Y-11335953D01*
X10912175Y-11335953D01*
X10912175Y-11548087D01*
X11124309Y-11548087D01*
X11150226Y-14560849D02*
X11150226Y-14348715D01*
X10938092Y-14348715D01*
X10938092Y-14560849D01*
X11150226Y-14560849D01*
X11391943Y-10966560D02*
X11391943Y-10754426D01*
X11179809Y-10754426D01*
X11179809Y-10966560D01*
X11391943Y-10966560D01*
X11556234Y-11882513D02*
X11556234Y-11670379D01*
X11344100Y-11670379D01*
X11344100Y-11882513D01*
X11556234Y-11882513D01*
X11609878Y-12717287D02*
X11609878Y-12505153D01*
X11397744Y-12505153D01*
X11397744Y-12717287D01*
X11609878Y-12717287D01*
X12069529Y-10873725D02*
X12069529Y-10661591D01*
X11857395Y-10661591D01*
X11857395Y-10873725D01*
X12069529Y-10873725D01*
X12121145Y-15403773D02*
X12121145Y-15191639D01*
X11909011Y-15191639D01*
X11909011Y-15403773D01*
X12121145Y-15403773D01*
X12388779Y-14822246D02*
X12388779Y-14610112D01*
X12176645Y-14610112D01*
X12176645Y-14822246D01*
X12388779Y-14822246D01*
X12553070Y-15738199D02*
X12553070Y-15526065D01*
X12340936Y-15526065D01*
X12340936Y-15738199D01*
X12553070Y-15738199D01*
X12580795Y-13560212D02*
X12580795Y-13348078D01*
X12368661Y-13348078D01*
X12368661Y-13560212D01*
X12580795Y-13560212D01*
X12848429Y-12978685D02*
X12848429Y-12766551D01*
X12636295Y-12766551D01*
X12636295Y-12978685D01*
X12848429Y-12978685D01*
X13012720Y-13894638D02*
X13012720Y-13682504D01*
X12800586Y-13682504D01*
X12800586Y-13894638D01*
X13012720Y-13894638D01*
X13040448Y-11716651D02*
X13040448Y-11504517D01*
X12828314Y-11504517D01*
X12828314Y-11716651D01*
X13040448Y-11716651D01*
X13066365Y-14729411D02*
X13066365Y-14517277D01*
X12854231Y-14517277D01*
X12854231Y-14729411D01*
X13066365Y-14729411D01*
X13299421Y-18531738D02*
X13299421Y-18319604D01*
X13087287Y-18319604D01*
X13087287Y-18531738D01*
X13299421Y-18531738D01*
X13308081Y-11135124D02*
X13308081Y-10922990D01*
X13095947Y-10922990D01*
X13095947Y-11135124D01*
X13308081Y-11135124D01*
X13472373Y-12051077D02*
X13472373Y-11838943D01*
X13260239Y-11838943D01*
X13260239Y-12051077D01*
X13472373Y-12051077D01*
X13526015Y-12885850D02*
X13526015Y-12673716D01*
X13313881Y-12673716D01*
X13313881Y-12885850D01*
X13526015Y-12885850D01*
X13567054Y-17950211D02*
X13567054Y-17738077D01*
X13354920Y-17738077D01*
X13354920Y-17950211D01*
X13567054Y-17950211D01*
X13731346Y-18866164D02*
X13731346Y-18654030D01*
X13519212Y-18654030D01*
X13519212Y-18866164D01*
X13731346Y-18866164D01*
X13843743Y-16348573D02*
X13843743Y-16136439D01*
X13631609Y-16136439D01*
X13631609Y-16348573D01*
X13843743Y-16348573D01*
X13985667Y-11042289D02*
X13985667Y-10830155D01*
X13773533Y-10830155D01*
X13773533Y-11042289D01*
X13985667Y-11042289D01*
X14111376Y-15767046D02*
X14111376Y-15554912D01*
X13899242Y-15554912D01*
X13899242Y-15767046D01*
X14111376Y-15767046D01*
X14244641Y-17857376D02*
X14244641Y-17645242D01*
X14032507Y-17645242D01*
X14032507Y-17857376D01*
X14244641Y-17857376D01*
X14275668Y-16682999D02*
X14275668Y-16470865D01*
X14063534Y-16470865D01*
X14063534Y-16682999D01*
X14275668Y-16682999D01*
X14303396Y-14505011D02*
X14303396Y-14292877D01*
X14091262Y-14292877D01*
X14091262Y-14505011D01*
X14303396Y-14505011D01*
X14571030Y-13923483D02*
X14571030Y-13711349D01*
X14358896Y-13711349D01*
X14358896Y-13923483D01*
X14571030Y-13923483D01*
X14735321Y-14839437D02*
X14735321Y-14627303D01*
X14523187Y-14627303D01*
X14523187Y-14839437D01*
X14735321Y-14839437D01*
X14763048Y-12661449D02*
X14763048Y-12449315D01*
X14550914Y-12449315D01*
X14550914Y-12661449D01*
X14763048Y-12661449D01*
X14788963Y-15674211D02*
X14788963Y-15462077D01*
X14576829Y-15462077D01*
X14576829Y-15674211D01*
X14788963Y-15674211D01*
X15030681Y-12079922D02*
X15030681Y-11867788D01*
X14818547Y-11867788D01*
X14818547Y-12079922D01*
X15030681Y-12079922D01*
X15194973Y-12995875D02*
X15194973Y-12783741D01*
X14982839Y-12783741D01*
X14982839Y-12995875D01*
X15194973Y-12995875D01*
X15246812Y-19173401D02*
X15246812Y-18961267D01*
X15034678Y-18961267D01*
X15034678Y-19173401D01*
X15246812Y-19173401D01*
X15248616Y-13830649D02*
X15248616Y-13618515D01*
X15036482Y-13618515D01*
X15036482Y-13830649D01*
X15248616Y-13830649D01*
X15565968Y-19616729D02*
X15565968Y-19404595D01*
X15353834Y-19404595D01*
X15353834Y-19616729D01*
X15565968Y-19616729D01*
X15602635Y-17147829D02*
X15602635Y-16935695D01*
X15390501Y-16935695D01*
X15390501Y-17147829D01*
X15602635Y-17147829D01*
X15668588Y-18691834D02*
X15668588Y-18479700D01*
X15456454Y-18479700D01*
X15456454Y-18691834D01*
X15668588Y-18691834D01*
X15708268Y-11987087D02*
X15708268Y-11774953D01*
X15496134Y-11774953D01*
X15496134Y-11987087D01*
X15708268Y-11987087D01*
X15870268Y-16566301D02*
X15870268Y-16354167D01*
X15658134Y-16354167D01*
X15658134Y-16566301D01*
X15870268Y-16566301D01*
X16034560Y-17482255D02*
X16034560Y-17270121D01*
X15822426Y-17270121D01*
X15822426Y-17482255D01*
X16034560Y-17482255D01*
X16062285Y-15304266D02*
X16062285Y-15092132D01*
X15850151Y-15092132D01*
X15850151Y-15304266D01*
X16062285Y-15304266D01*
X16329919Y-14722739D02*
X16329919Y-14510605D01*
X16117785Y-14510605D01*
X16117785Y-14722739D01*
X16329919Y-14722739D01*
X16344637Y-18795267D02*
X16344637Y-18583133D01*
X16132503Y-18583133D01*
X16132503Y-18795267D01*
X16344637Y-18795267D01*
X16494210Y-15638692D02*
X16494210Y-15426558D01*
X16282076Y-15426558D01*
X16282076Y-15638692D01*
X16494210Y-15638692D01*
X16521938Y-13460705D02*
X16521938Y-13248571D01*
X16309804Y-13248571D01*
X16309804Y-13460705D01*
X16521938Y-13460705D01*
X16547854Y-16473466D02*
X16547854Y-16261332D01*
X16335720Y-16261332D01*
X16335720Y-16473466D01*
X16547854Y-16473466D01*
X16789571Y-12879177D02*
X16789571Y-12667043D01*
X16577437Y-12667043D01*
X16577437Y-12879177D01*
X16789571Y-12879177D01*
X16931767Y-20341729D02*
X16931767Y-20129595D01*
X16719633Y-20129595D01*
X16719633Y-20341729D01*
X16931767Y-20341729D01*
X16953863Y-13795131D02*
X16953863Y-13582997D01*
X16741729Y-13582997D01*
X16741729Y-13795131D01*
X16953863Y-13795131D01*
X17007505Y-14629904D02*
X17007505Y-14417770D01*
X16795371Y-14417770D01*
X16795371Y-14629904D01*
X17007505Y-14629904D01*
X17111868Y-20857445D02*
X17111868Y-20645311D01*
X16899734Y-20645311D01*
X16899734Y-20857445D01*
X17111868Y-20857445D01*
X17467158Y-12786342D02*
X17467158Y-12574208D01*
X17255024Y-12574208D01*
X17255024Y-12786342D01*
X17467158Y-12786342D01*
X17472947Y-19999783D02*
X17472947Y-19787649D01*
X17260813Y-19787649D01*
X17260813Y-19999783D01*
X17472947Y-19999783D01*
X18091779Y-20290964D02*
X18091779Y-20078830D01*
X17879645Y-20078830D01*
X17879645Y-20290964D01*
X18091779Y-20290964D01*
X24565901Y-20557074D02*
X24565901Y-20344940D01*
X24353767Y-20344940D01*
X24353767Y-20557074D01*
X24565901Y-20557074D01*
X24813205Y-19919436D02*
X24813205Y-19707302D01*
X24601071Y-19707302D01*
X24601071Y-19919436D01*
X24813205Y-19919436D01*
X24944764Y-21073082D02*
X24944764Y-20860948D01*
X24732630Y-20860948D01*
X24732630Y-21073082D01*
X24944764Y-21073082D01*
X25029595Y-13063522D02*
X25029595Y-12851388D01*
X24817461Y-12851388D01*
X24817461Y-13063522D01*
X25029595Y-13063522D01*
X25066298Y-13702626D02*
X25066298Y-13490492D01*
X24854164Y-13490492D01*
X24854164Y-13702626D01*
X25066298Y-13702626D01*
X25446662Y-20857445D02*
X25446662Y-20645311D01*
X25234528Y-20645311D01*
X25234528Y-20857445D01*
X25446662Y-20857445D01*
X25489245Y-14907084D02*
X25489245Y-14694950D01*
X25277111Y-14694950D01*
X25277111Y-14907084D01*
X25489245Y-14907084D01*
X25525949Y-15546188D02*
X25525949Y-15334054D01*
X25313815Y-15334054D01*
X25313815Y-15546188D01*
X25525949Y-15546188D01*
X25584284Y-12663446D02*
X25584284Y-12451312D01*
X25372150Y-12451312D01*
X25372150Y-12663446D01*
X25584284Y-12663446D01*
X25604669Y-13795131D02*
X25604669Y-13582997D01*
X25392535Y-13582997D01*
X25392535Y-13795131D01*
X25604669Y-13795131D01*
X25948898Y-16750647D02*
X25948898Y-16538513D01*
X25736764Y-16538513D01*
X25736764Y-16750647D01*
X25948898Y-16750647D01*
X25985601Y-17389751D02*
X25985601Y-17177617D01*
X25773467Y-17177617D01*
X25773467Y-17389751D01*
X25985601Y-17389751D01*
X26043935Y-14507008D02*
X26043935Y-14294874D01*
X25831801Y-14294874D01*
X25831801Y-14507008D01*
X26043935Y-14507008D01*
X26064320Y-15638692D02*
X26064320Y-15426558D01*
X25852186Y-15426558D01*
X25852186Y-15638692D01*
X26064320Y-15638692D01*
X26233381Y-19078577D02*
X26233381Y-18866443D01*
X26021247Y-18866443D01*
X26021247Y-19078577D01*
X26233381Y-19078577D01*
X26450088Y-19680939D02*
X26450088Y-19468805D01*
X26237954Y-19468805D01*
X26237954Y-19680939D01*
X26450088Y-19680939D01*
X26503587Y-16350571D02*
X26503587Y-16138437D01*
X26291453Y-16138437D01*
X26291453Y-16350571D01*
X26503587Y-16350571D01*
X26523972Y-17482255D02*
X26523972Y-17270121D01*
X26311838Y-17270121D01*
X26311838Y-17482255D01*
X26523972Y-17482255D01*
X26651601Y-18537436D02*
X26651601Y-18325302D01*
X26439467Y-18325302D01*
X26439467Y-18537436D01*
X26651601Y-18537436D01*
X26788483Y-12264266D02*
X26788483Y-12052132D01*
X26576349Y-12052132D01*
X26576349Y-12264266D01*
X26788483Y-12264266D01*
X26825186Y-12903370D02*
X26825186Y-12691236D01*
X26613052Y-12691236D01*
X26613052Y-12903370D01*
X26825186Y-12903370D01*
X26992562Y-19616728D02*
X26992562Y-19404594D01*
X26780428Y-19404594D01*
X26780428Y-19616728D01*
X26992562Y-19616728D01*
X27248134Y-14107829D02*
X27248134Y-13895695D01*
X27036000Y-13895695D01*
X27036000Y-14107829D01*
X27248134Y-14107829D01*
X27284838Y-14746933D02*
X27284838Y-14534799D01*
X27072704Y-14534799D01*
X27072704Y-14746933D01*
X27284838Y-14746933D01*
X27343172Y-11864190D02*
X27343172Y-11652056D01*
X27131038Y-11652056D01*
X27131038Y-11864190D01*
X27343172Y-11864190D01*
X27363557Y-12995874D02*
X27363557Y-12783740D01*
X27151423Y-12783740D01*
X27151423Y-12995874D01*
X27363557Y-12995874D01*
X27707787Y-15951390D02*
X27707787Y-15739256D01*
X27495653Y-15739256D01*
X27495653Y-15951390D01*
X27707787Y-15951390D01*
X27744490Y-16590494D02*
X27744490Y-16378360D01*
X27532356Y-16378360D01*
X27532356Y-16590494D01*
X27744490Y-16590494D01*
X27802824Y-13707753D02*
X27802824Y-13495619D01*
X27590690Y-13495619D01*
X27590690Y-13707753D01*
X27802824Y-13707753D01*
X27823209Y-14839437D02*
X27823209Y-14627303D01*
X27611075Y-14627303D01*
X27611075Y-14839437D01*
X27823209Y-14839437D01*
X28252110Y-18134557D02*
X28252110Y-17922423D01*
X28039976Y-17922423D01*
X28039976Y-18134557D01*
X28252110Y-18134557D01*
X28262476Y-15551314D02*
X28262476Y-15339180D01*
X28050342Y-15339180D01*
X28050342Y-15551314D01*
X28262476Y-15551314D01*
X28282861Y-16682998D02*
X28282861Y-16470864D01*
X28070727Y-16470864D01*
X28070727Y-16682998D01*
X28282861Y-16682998D01*
X28288813Y-18773661D02*
X28288813Y-18561527D01*
X28076679Y-18561527D01*
X28076679Y-18773661D01*
X28288813Y-18773661D01*
X28511086Y-11319469D02*
X28511086Y-11107335D01*
X28298952Y-11107335D01*
X28298952Y-11319469D01*
X28511086Y-11319469D01*
X28547789Y-11958573D02*
X28547789Y-11746439D01*
X28335655Y-11746439D01*
X28335655Y-11958573D01*
X28547789Y-11958573D01*
X28806799Y-17734481D02*
X28806799Y-17522347D01*
X28594665Y-17522347D01*
X28594665Y-17734481D01*
X28806799Y-17734481D01*
X28827184Y-18866166D02*
X28827184Y-18654032D01*
X28615050Y-18654032D01*
X28615050Y-18866166D01*
X28827184Y-18866166D01*
X28970735Y-13163029D02*
X28970735Y-12950895D01*
X28758601Y-12950895D01*
X28758601Y-13163029D01*
X28970735Y-13163029D01*
X29007438Y-13802133D02*
X29007438Y-13589999D01*
X28795304Y-13589999D01*
X28795304Y-13802133D01*
X29007438Y-13802133D01*
X29065775Y-10919393D02*
X29065775Y-10707259D01*
X28853641Y-10707259D01*
X28853641Y-10919393D01*
X29065775Y-10919393D01*
X29086160Y-12051077D02*
X29086160Y-11838943D01*
X28874026Y-11838943D01*
X28874026Y-12051077D01*
X29086160Y-12051077D01*
X29430387Y-15006593D02*
X29430387Y-14794459D01*
X29218253Y-14794459D01*
X29218253Y-15006593D01*
X29430387Y-15006593D01*
X29467091Y-15645697D02*
X29467091Y-15433563D01*
X29254957Y-15433563D01*
X29254957Y-15645697D01*
X29467091Y-15645697D01*
X29525424Y-12762953D02*
X29525424Y-12550819D01*
X29313290Y-12550819D01*
X29313290Y-12762953D01*
X29525424Y-12762953D01*
X29545809Y-13894637D02*
X29545809Y-13682503D01*
X29333675Y-13682503D01*
X29333675Y-13894637D01*
X29545809Y-13894637D01*
X29985077Y-14606517D02*
X29985077Y-14394383D01*
X29772943Y-14394383D01*
X29772943Y-14606517D01*
X29985077Y-14606517D01*
X30005462Y-15738201D02*
X30005462Y-15526067D01*
X29793328Y-15526067D01*
X29793328Y-15738201D01*
X30005462Y-15738201D01*
X30427224Y-11150905D02*
X30427224Y-10938771D01*
X30215090Y-10938771D01*
X30215090Y-11150905D01*
X30427224Y-11150905D01*
X30463927Y-11790009D02*
X30463927Y-11577875D01*
X30251793Y-11577875D01*
X30251793Y-11790009D01*
X30463927Y-11790009D01*
X30886874Y-12994467D02*
X30886874Y-12782333D01*
X30674740Y-12782333D01*
X30674740Y-12994467D01*
X30886874Y-12994467D01*
X30923578Y-13633571D02*
X30923578Y-13421437D01*
X30711444Y-13421437D01*
X30711444Y-13633571D01*
X30923578Y-13633571D01*
X30981913Y-10750829D02*
X30981913Y-10538695D01*
X30769779Y-10538695D01*
X30769779Y-10750829D01*
X30981913Y-10750829D01*
X31002298Y-11882513D02*
X31002298Y-11670379D01*
X30790164Y-11670379D01*
X30790164Y-11882513D01*
X31002298Y-11882513D01*
X31346525Y-14838030D02*
X31346525Y-14625896D01*
X31134391Y-14625896D01*
X31134391Y-14838030D01*
X31346525Y-14838030D01*
X31383228Y-15477134D02*
X31383228Y-15265000D01*
X31171094Y-15265000D01*
X31171094Y-15477134D01*
X31383228Y-15477134D01*
X31441564Y-12594391D02*
X31441564Y-12382257D01*
X31229430Y-12382257D01*
X31229430Y-12594391D01*
X31441564Y-12594391D01*
X31461948Y-13726075D02*
X31461948Y-13513941D01*
X31249814Y-13513941D01*
X31249814Y-13726075D01*
X31461948Y-13726075D01*
X31901214Y-14437954D02*
X31901214Y-14225820D01*
X31689080Y-14225820D01*
X31689080Y-14437954D01*
X31901214Y-14437954D01*
X31921599Y-15569638D02*
X31921599Y-15357504D01*
X31709465Y-15357504D01*
X31709465Y-15569638D01*
X31921599Y-15569638D01*
X32524802Y-11710064D02*
X32524802Y-11497930D01*
X32312668Y-11497930D01*
X32312668Y-11710064D01*
X32524802Y-11710064D01*
X32561506Y-12349168D02*
X32561506Y-12137034D01*
X32349372Y-12137034D01*
X32349372Y-12349168D01*
X32561506Y-12349168D01*
X32984454Y-13553625D02*
X32984454Y-13341491D01*
X32772320Y-13341491D01*
X32772320Y-13553625D01*
X32984454Y-13553625D01*
X33021158Y-14192729D02*
X33021158Y-13980595D01*
X32809024Y-13980595D01*
X32809024Y-14192729D01*
X33021158Y-14192729D01*
X33079492Y-11309988D02*
X33079492Y-11097854D01*
X32867358Y-11097854D01*
X32867358Y-11309988D01*
X33079492Y-11309988D01*
X33099877Y-12441672D02*
X33099877Y-12229538D01*
X32887743Y-12229538D01*
X32887743Y-12441672D01*
X33099877Y-12441672D01*
X33444105Y-15397187D02*
X33444105Y-15185053D01*
X33231971Y-15185053D01*
X33231971Y-15397187D01*
X33444105Y-15397187D01*
X33480809Y-16036291D02*
X33480809Y-15824157D01*
X33268675Y-15824157D01*
X33268675Y-16036291D01*
X33480809Y-16036291D01*
X33539144Y-13153549D02*
X33539144Y-12941415D01*
X33327010Y-12941415D01*
X33327010Y-13153549D01*
X33539144Y-13153549D01*
X33559529Y-14285234D02*
X33559529Y-14073100D01*
X33347395Y-14073100D01*
X33347395Y-14285234D01*
X33559529Y-14285234D01*
X33998795Y-14997111D02*
X33998795Y-14784977D01*
X33786661Y-14784977D01*
X33786661Y-14997111D01*
X33998795Y-14997111D01*
X34019180Y-16128795D02*
X34019180Y-15916661D01*
X33807046Y-15916661D01*
X33807046Y-16128795D01*
X34019180Y-16128795D01*
X34416749Y-11444471D02*
X34416749Y-11232337D01*
X34204615Y-11232337D01*
X34204615Y-11444471D01*
X34416749Y-11444471D01*
X34453452Y-12083575D02*
X34453452Y-11871441D01*
X34241318Y-11871441D01*
X34241318Y-12083575D01*
X34453452Y-12083575D01*
X34876400Y-13288033D02*
X34876400Y-13075899D01*
X34664266Y-13075899D01*
X34664266Y-13288033D01*
X34876400Y-13288033D01*
X34913104Y-13927137D02*
X34913104Y-13715003D01*
X34700970Y-13715003D01*
X34700970Y-13927137D01*
X34913104Y-13927137D01*
X34971438Y-11044395D02*
X34971438Y-10832261D01*
X34759304Y-10832261D01*
X34759304Y-11044395D01*
X34971438Y-11044395D01*
X34991823Y-12176079D02*
X34991823Y-11963945D01*
X34779689Y-11963945D01*
X34779689Y-12176079D01*
X34991823Y-12176079D01*
X35431090Y-12887957D02*
X35431090Y-12675823D01*
X35218956Y-12675823D01*
X35218956Y-12887957D01*
X35431090Y-12887957D01*
X35451474Y-14019641D02*
X35451474Y-13807507D01*
X35239340Y-13807507D01*
X35239340Y-14019641D01*
X35451474Y-14019641D01*
D16*
X8320732Y-12707262D02*
X8480732Y-12547262D01*
X8320732Y-12387262D01*
X8160732Y-12547262D01*
X8320732Y-12707262D01*
X9551736Y-14838374D02*
X9711736Y-14678374D01*
X9551736Y-14518374D01*
X9391736Y-14678374D01*
X9551736Y-14838374D01*
X12310258Y-12413697D02*
X12470258Y-12253697D01*
X12310258Y-12093697D01*
X12150258Y-12253697D01*
X12310258Y-12413697D01*
X14963166Y-17481015D02*
X15123166Y-17321015D01*
X14963166Y-17161015D01*
X14803166Y-17321015D01*
X14963166Y-17481015D01*
X15882469Y-13793891D02*
X16042469Y-13633891D01*
X15882469Y-13473891D01*
X15722469Y-13633891D01*
X15882469Y-13793891D01*
X16707828Y-19699211D02*
X16867828Y-19539211D01*
X16707828Y-19379211D01*
X16547828Y-19539211D01*
X16707828Y-19699211D01*
X25638569Y-19699212D02*
X25798569Y-19539212D01*
X25638569Y-19379212D01*
X25478569Y-19539212D01*
X25638569Y-19699212D01*
X26463928Y-13793890D02*
X26623928Y-13633890D01*
X26463928Y-13473890D01*
X26303928Y-13633890D01*
X26463928Y-13793890D01*
X27383232Y-17481015D02*
X27543232Y-17321015D01*
X27383232Y-17161015D01*
X27223232Y-17321015D01*
X27383232Y-17481015D01*
X30036140Y-12413698D02*
X30196140Y-12253698D01*
X30036140Y-12093698D01*
X29876140Y-12253698D01*
X30036140Y-12413698D01*
X32794661Y-14838373D02*
X32954661Y-14678373D01*
X32794661Y-14518373D01*
X32634661Y-14678373D01*
X32794661Y-14838373D01*
X34025664Y-12707264D02*
X34185664Y-12547264D01*
X34025664Y-12387264D01*
X33865664Y-12547264D01*
X34025664Y-12707264D01*
D17*
X6945542Y-13136860D02*
X7344322Y-13535640D01*
X7344322Y-13136860D02*
X6945542Y-13535640D01*
X7344322Y-13336250D02*
G75*
G02*
X6945542Y-13336250I-199390J0D01*
G01*
X6945542Y-13336250D02*
G75*
G02*
X7344322Y-13336250I199390J0D01*
G01*
X7405194Y-11293295D02*
X7803974Y-11692075D01*
X7803974Y-11293295D02*
X7405194Y-11692075D01*
X7803974Y-11492685D02*
G75*
G02*
X7405194Y-11492685I-199390J0D01*
G01*
X7405194Y-11492685D02*
G75*
G02*
X7803974Y-11492685I199390J0D01*
G01*
X8377837Y-15246013D02*
X8776617Y-15644793D01*
X8776617Y-15246013D02*
X8377837Y-15644793D01*
X8776617Y-15445403D02*
G75*
G02*
X8377837Y-15445403I-199390J0D01*
G01*
X8377837Y-15445403D02*
G75*
G02*
X8776617Y-15445403I199390J0D01*
G01*
X8837490Y-13402452D02*
X9236270Y-13801232D01*
X9236270Y-13402452D02*
X8837490Y-13801232D01*
X9236270Y-13601842D02*
G75*
G02*
X8837490Y-13601842I-199390J0D01*
G01*
X8837490Y-13601842D02*
G75*
G02*
X9236270Y-13601842I199390J0D01*
G01*
X9297141Y-11558890D02*
X9695921Y-11957670D01*
X9695921Y-11558890D02*
X9297141Y-11957670D01*
X9695921Y-11758280D02*
G75*
G02*
X9297141Y-11758280I-199390J0D01*
G01*
X9297141Y-11758280D02*
G75*
G02*
X9695921Y-11758280I199390J0D01*
G01*
X10475417Y-14686854D02*
X10874197Y-15085634D01*
X10874197Y-14686854D02*
X10475417Y-15085634D01*
X10874197Y-14886244D02*
G75*
G02*
X10475417Y-14886244I-199390J0D01*
G01*
X10475417Y-14886244D02*
G75*
G02*
X10874197Y-14886244I199390J0D01*
G01*
X10935070Y-12843292D02*
X11333850Y-13242072D01*
X11333850Y-12843292D02*
X10935070Y-13242072D01*
X11333850Y-13042682D02*
G75*
G02*
X10935070Y-13042682I-199390J0D01*
G01*
X10935070Y-13042682D02*
G75*
G02*
X11333850Y-13042682I199390J0D01*
G01*
X11394721Y-10999730D02*
X11793501Y-11398510D01*
X11793501Y-10999730D02*
X11394721Y-11398510D01*
X11793501Y-11199120D02*
G75*
G02*
X11394721Y-11199120I-199390J0D01*
G01*
X11394721Y-11199120D02*
G75*
G02*
X11793501Y-11199120I199390J0D01*
G01*
X12391557Y-14855416D02*
X12790337Y-15254196D01*
X12790337Y-14855416D02*
X12391557Y-15254196D01*
X12790337Y-15054806D02*
G75*
G02*
X12391557Y-15054806I-199390J0D01*
G01*
X12391557Y-15054806D02*
G75*
G02*
X12790337Y-15054806I199390J0D01*
G01*
X12851207Y-13011855D02*
X13249987Y-13410635D01*
X13249987Y-13011855D02*
X12851207Y-13410635D01*
X13249987Y-13211245D02*
G75*
G02*
X12851207Y-13211245I-199390J0D01*
G01*
X12851207Y-13211245D02*
G75*
G02*
X13249987Y-13211245I199390J0D01*
G01*
X13310859Y-11168294D02*
X13709639Y-11567074D01*
X13709639Y-11168294D02*
X13310859Y-11567074D01*
X13709639Y-11367684D02*
G75*
G02*
X13310859Y-11367684I-199390J0D01*
G01*
X13310859Y-11367684D02*
G75*
G02*
X13709639Y-11367684I199390J0D01*
G01*
X13569832Y-17983381D02*
X13968612Y-18382161D01*
X13968612Y-17983381D02*
X13569832Y-18382161D01*
X13968612Y-18182771D02*
G75*
G02*
X13569832Y-18182771I-199390J0D01*
G01*
X13569832Y-18182771D02*
G75*
G02*
X13968612Y-18182771I199390J0D01*
G01*
X14114154Y-15800216D02*
X14512934Y-16198996D01*
X14512934Y-15800216D02*
X14114154Y-16198996D01*
X14512934Y-15999606D02*
G75*
G02*
X14114154Y-15999606I-199390J0D01*
G01*
X14114154Y-15999606D02*
G75*
G02*
X14512934Y-15999606I199390J0D01*
G01*
X14573808Y-13956654D02*
X14972588Y-14355434D01*
X14972588Y-13956654D02*
X14573808Y-14355434D01*
X14972588Y-14156044D02*
G75*
G02*
X14573808Y-14156044I-199390J0D01*
G01*
X14573808Y-14156044D02*
G75*
G02*
X14972588Y-14156044I199390J0D01*
G01*
X15033459Y-12113092D02*
X15432239Y-12511872D01*
X15432239Y-12113092D02*
X15033459Y-12511872D01*
X15432239Y-12312482D02*
G75*
G02*
X15033459Y-12312482I-199390J0D01*
G01*
X15033459Y-12312482D02*
G75*
G02*
X15432239Y-12312482I199390J0D01*
G01*
X15562497Y-18798603D02*
X15961277Y-19197383D01*
X15961277Y-18798603D02*
X15562497Y-19197383D01*
X15961277Y-18997993D02*
G75*
G02*
X15562497Y-18997993I-199390J0D01*
G01*
X15562497Y-18997993D02*
G75*
G02*
X15961277Y-18997993I199390J0D01*
G01*
X15873046Y-16599472D02*
X16271826Y-16998252D01*
X16271826Y-16599472D02*
X15873046Y-16998252D01*
X16271826Y-16798862D02*
G75*
G02*
X15873046Y-16798862I-199390J0D01*
G01*
X15873046Y-16798862D02*
G75*
G02*
X16271826Y-16798862I199390J0D01*
G01*
X16332697Y-14755909D02*
X16731477Y-15154689D01*
X16731477Y-14755909D02*
X16332697Y-15154689D01*
X16731477Y-14955299D02*
G75*
G02*
X16332697Y-14955299I-199390J0D01*
G01*
X16332697Y-14955299D02*
G75*
G02*
X16731477Y-14955299I199390J0D01*
G01*
X16792349Y-12912348D02*
X17191129Y-13311128D01*
X17191129Y-12912348D02*
X16792349Y-13311128D01*
X17191129Y-13111738D02*
G75*
G02*
X16792349Y-13111738I-199390J0D01*
G01*
X16792349Y-13111738D02*
G75*
G02*
X17191129Y-13111738I199390J0D01*
G01*
X17241567Y-20146199D02*
X17640347Y-20544979D01*
X17640347Y-20146199D02*
X17241567Y-20544979D01*
X17640347Y-20345589D02*
G75*
G02*
X17241567Y-20345589I-199390J0D01*
G01*
X17241567Y-20345589D02*
G75*
G02*
X17640347Y-20345589I199390J0D01*
G01*
X24706049Y-20146198D02*
X25104829Y-20544978D01*
X25104829Y-20146198D02*
X24706049Y-20544978D01*
X25104829Y-20345588D02*
G75*
G02*
X24706049Y-20345588I-199390J0D01*
G01*
X24706049Y-20345588D02*
G75*
G02*
X25104829Y-20345588I199390J0D01*
G01*
X25155268Y-12912348D02*
X25554048Y-13311128D01*
X25554048Y-12912348D02*
X25155268Y-13311128D01*
X25554048Y-13111738D02*
G75*
G02*
X25155268Y-13111738I-199390J0D01*
G01*
X25155268Y-13111738D02*
G75*
G02*
X25554048Y-13111738I199390J0D01*
G01*
X25614919Y-14755909D02*
X26013699Y-15154689D01*
X26013699Y-14755909D02*
X25614919Y-15154689D01*
X26013699Y-14955299D02*
G75*
G02*
X25614919Y-14955299I-199390J0D01*
G01*
X25614919Y-14955299D02*
G75*
G02*
X26013699Y-14955299I199390J0D01*
G01*
X26074572Y-16599472D02*
X26473352Y-16998252D01*
X26473352Y-16599472D02*
X26074572Y-16998252D01*
X26473352Y-16798862D02*
G75*
G02*
X26074572Y-16798862I-199390J0D01*
G01*
X26074572Y-16798862D02*
G75*
G02*
X26473352Y-16798862I199390J0D01*
G01*
X26385119Y-18798602D02*
X26783899Y-19197382D01*
X26783899Y-18798602D02*
X26385119Y-19197382D01*
X26783899Y-18997992D02*
G75*
G02*
X26385119Y-18997992I-199390J0D01*
G01*
X26385119Y-18997992D02*
G75*
G02*
X26783899Y-18997992I199390J0D01*
G01*
X26914156Y-12113091D02*
X27312936Y-12511871D01*
X27312936Y-12113091D02*
X26914156Y-12511871D01*
X27312936Y-12312481D02*
G75*
G02*
X26914156Y-12312481I-199390J0D01*
G01*
X26914156Y-12312481D02*
G75*
G02*
X27312936Y-12312481I199390J0D01*
G01*
X27373808Y-13956654D02*
X27772588Y-14355434D01*
X27772588Y-13956654D02*
X27373808Y-14355434D01*
X27772588Y-14156044D02*
G75*
G02*
X27373808Y-14156044I-199390J0D01*
G01*
X27373808Y-14156044D02*
G75*
G02*
X27772588Y-14156044I199390J0D01*
G01*
X27833460Y-15800215D02*
X28232240Y-16198995D01*
X28232240Y-15800215D02*
X27833460Y-16198995D01*
X28232240Y-15999605D02*
G75*
G02*
X27833460Y-15999605I-199390J0D01*
G01*
X27833460Y-15999605D02*
G75*
G02*
X28232240Y-15999605I199390J0D01*
G01*
X28377784Y-17983383D02*
X28776564Y-18382163D01*
X28776564Y-17983383D02*
X28377784Y-18382163D01*
X28776564Y-18182773D02*
G75*
G02*
X28377784Y-18182773I-199390J0D01*
G01*
X28377784Y-18182773D02*
G75*
G02*
X28776564Y-18182773I199390J0D01*
G01*
X28636759Y-11168294D02*
X29035539Y-11567074D01*
X29035539Y-11168294D02*
X28636759Y-11567074D01*
X29035539Y-11367684D02*
G75*
G02*
X28636759Y-11367684I-199390J0D01*
G01*
X28636759Y-11367684D02*
G75*
G02*
X29035539Y-11367684I199390J0D01*
G01*
X29096409Y-13011854D02*
X29495189Y-13410634D01*
X29495189Y-13011854D02*
X29096409Y-13410634D01*
X29495189Y-13211244D02*
G75*
G02*
X29096409Y-13211244I-199390J0D01*
G01*
X29096409Y-13211244D02*
G75*
G02*
X29495189Y-13211244I199390J0D01*
G01*
X29556061Y-14855418D02*
X29954841Y-15254198D01*
X29954841Y-14855418D02*
X29556061Y-15254198D01*
X29954841Y-15054808D02*
G75*
G02*
X29556061Y-15054808I-199390J0D01*
G01*
X29556061Y-15054808D02*
G75*
G02*
X29954841Y-15054808I199390J0D01*
G01*
X30552897Y-10999730D02*
X30951677Y-11398510D01*
X30951677Y-10999730D02*
X30552897Y-11398510D01*
X30951677Y-11199120D02*
G75*
G02*
X30552897Y-11199120I-199390J0D01*
G01*
X30552897Y-11199120D02*
G75*
G02*
X30951677Y-11199120I199390J0D01*
G01*
X31012548Y-12843292D02*
X31411328Y-13242072D01*
X31411328Y-12843292D02*
X31012548Y-13242072D01*
X31411328Y-13042682D02*
G75*
G02*
X31012548Y-13042682I-199390J0D01*
G01*
X31012548Y-13042682D02*
G75*
G02*
X31411328Y-13042682I199390J0D01*
G01*
X31472199Y-14686855D02*
X31870979Y-15085635D01*
X31870979Y-14686855D02*
X31472199Y-15085635D01*
X31870979Y-14886245D02*
G75*
G02*
X31472199Y-14886245I-199390J0D01*
G01*
X31472199Y-14886245D02*
G75*
G02*
X31870979Y-14886245I199390J0D01*
G01*
X32650476Y-11558889D02*
X33049256Y-11957669D01*
X33049256Y-11558889D02*
X32650476Y-11957669D01*
X33049256Y-11758279D02*
G75*
G02*
X32650476Y-11758279I-199390J0D01*
G01*
X32650476Y-11758279D02*
G75*
G02*
X33049256Y-11758279I199390J0D01*
G01*
X33110128Y-13402451D02*
X33508908Y-13801231D01*
X33508908Y-13402451D02*
X33110128Y-13801231D01*
X33508908Y-13601841D02*
G75*
G02*
X33110128Y-13601841I-199390J0D01*
G01*
X33110128Y-13601841D02*
G75*
G02*
X33508908Y-13601841I199390J0D01*
G01*
X33569779Y-15246012D02*
X33968559Y-15644792D01*
X33968559Y-15246012D02*
X33569779Y-15644792D01*
X33968559Y-15445402D02*
G75*
G02*
X33569779Y-15445402I-199390J0D01*
G01*
X33569779Y-15445402D02*
G75*
G02*
X33968559Y-15445402I199390J0D01*
G01*
X34542423Y-11293296D02*
X34941203Y-11692076D01*
X34941203Y-11293296D02*
X34542423Y-11692076D01*
X34941203Y-11492686D02*
G75*
G02*
X34542423Y-11492686I-199390J0D01*
G01*
X34542423Y-11492686D02*
G75*
G02*
X34941203Y-11492686I199390J0D01*
G01*
X35002074Y-13136858D02*
X35400854Y-13535638D01*
X35400854Y-13136858D02*
X35002074Y-13535638D01*
X35400854Y-13336248D02*
G75*
G02*
X35002074Y-13336248I-199390J0D01*
G01*
X35002074Y-13336248D02*
G75*
G02*
X35400854Y-13336248I199390J0D01*
G01*
D18*
X6894932Y-13086250D02*
X7394932Y-13586250D01*
X7394932Y-13086250D02*
X6894932Y-13586250D01*
X7144932Y-13086250D02*
X7144932Y-13586250D01*
X6894932Y-13336250D02*
X7394932Y-13336250D01*
X7354584Y-11242685D02*
X7854584Y-11742685D01*
X7854584Y-11242685D02*
X7354584Y-11742685D01*
X7604584Y-11242685D02*
X7604584Y-11742685D01*
X7354584Y-11492685D02*
X7854584Y-11492685D01*
X8327227Y-15195403D02*
X8827227Y-15695403D01*
X8827227Y-15195403D02*
X8327227Y-15695403D01*
X8577227Y-15195403D02*
X8577227Y-15695403D01*
X8327227Y-15445403D02*
X8827227Y-15445403D01*
X8786880Y-13351842D02*
X9286880Y-13851842D01*
X9286880Y-13351842D02*
X8786880Y-13851842D01*
X9036880Y-13351842D02*
X9036880Y-13851842D01*
X8786880Y-13601842D02*
X9286880Y-13601842D01*
X9246531Y-11508280D02*
X9746531Y-12008280D01*
X9746531Y-11508280D02*
X9246531Y-12008280D01*
X9496531Y-11508280D02*
X9496531Y-12008280D01*
X9246531Y-11758280D02*
X9746531Y-11758280D01*
X10424807Y-14636244D02*
X10924807Y-15136244D01*
X10924807Y-14636244D02*
X10424807Y-15136244D01*
X10674807Y-14636244D02*
X10674807Y-15136244D01*
X10424807Y-14886244D02*
X10924807Y-14886244D01*
X10884460Y-12792682D02*
X11384460Y-13292682D01*
X11384460Y-12792682D02*
X10884460Y-13292682D01*
X11134460Y-12792682D02*
X11134460Y-13292682D01*
X10884460Y-13042682D02*
X11384460Y-13042682D01*
X11344111Y-10949120D02*
X11844111Y-11449120D01*
X11844111Y-10949120D02*
X11344111Y-11449120D01*
X11594111Y-10949120D02*
X11594111Y-11449120D01*
X11344111Y-11199120D02*
X11844111Y-11199120D01*
X12340947Y-14804806D02*
X12840947Y-15304806D01*
X12840947Y-14804806D02*
X12340947Y-15304806D01*
X12590947Y-14804806D02*
X12590947Y-15304806D01*
X12340947Y-15054806D02*
X12840947Y-15054806D01*
X12800597Y-12961245D02*
X13300597Y-13461245D01*
X13300597Y-12961245D02*
X12800597Y-13461245D01*
X13050597Y-12961245D02*
X13050597Y-13461245D01*
X12800597Y-13211245D02*
X13300597Y-13211245D01*
X13260249Y-11117684D02*
X13760249Y-11617684D01*
X13760249Y-11117684D02*
X13260249Y-11617684D01*
X13510249Y-11117684D02*
X13510249Y-11617684D01*
X13260249Y-11367684D02*
X13760249Y-11367684D01*
X13519222Y-17932771D02*
X14019222Y-18432771D01*
X14019222Y-17932771D02*
X13519222Y-18432771D01*
X13769222Y-17932771D02*
X13769222Y-18432771D01*
X13519222Y-18182771D02*
X14019222Y-18182771D01*
X14063544Y-15749606D02*
X14563544Y-16249606D01*
X14563544Y-15749606D02*
X14063544Y-16249606D01*
X14313544Y-15749606D02*
X14313544Y-16249606D01*
X14063544Y-15999606D02*
X14563544Y-15999606D01*
X14523198Y-13906044D02*
X15023198Y-14406044D01*
X15023198Y-13906044D02*
X14523198Y-14406044D01*
X14773198Y-13906044D02*
X14773198Y-14406044D01*
X14523198Y-14156044D02*
X15023198Y-14156044D01*
X14982849Y-12062482D02*
X15482849Y-12562482D01*
X15482849Y-12062482D02*
X14982849Y-12562482D01*
X15232849Y-12062482D02*
X15232849Y-12562482D01*
X14982849Y-12312482D02*
X15482849Y-12312482D01*
X15511887Y-18747993D02*
X16011887Y-19247993D01*
X16011887Y-18747993D02*
X15511887Y-19247993D01*
X15761887Y-18747993D02*
X15761887Y-19247993D01*
X15511887Y-18997993D02*
X16011887Y-18997993D01*
X15822436Y-16548862D02*
X16322436Y-17048862D01*
X16322436Y-16548862D02*
X15822436Y-17048862D01*
X16072436Y-16548862D02*
X16072436Y-17048862D01*
X15822436Y-16798862D02*
X16322436Y-16798862D01*
X16282087Y-14705299D02*
X16782087Y-15205299D01*
X16782087Y-14705299D02*
X16282087Y-15205299D01*
X16532087Y-14705299D02*
X16532087Y-15205299D01*
X16282087Y-14955299D02*
X16782087Y-14955299D01*
X16741739Y-12861738D02*
X17241739Y-13361738D01*
X17241739Y-12861738D02*
X16741739Y-13361738D01*
X16991739Y-12861738D02*
X16991739Y-13361738D01*
X16741739Y-13111738D02*
X17241739Y-13111738D01*
X17190957Y-20095589D02*
X17690957Y-20595589D01*
X17690957Y-20095589D02*
X17190957Y-20595589D01*
X17440957Y-20095589D02*
X17440957Y-20595589D01*
X17190957Y-20345589D02*
X17690957Y-20345589D01*
X24655439Y-20095588D02*
X25155439Y-20595588D01*
X25155439Y-20095588D02*
X24655439Y-20595588D01*
X24905439Y-20095588D02*
X24905439Y-20595588D01*
X24655439Y-20345588D02*
X25155439Y-20345588D01*
X25104658Y-12861738D02*
X25604658Y-13361738D01*
X25604658Y-12861738D02*
X25104658Y-13361738D01*
X25354658Y-12861738D02*
X25354658Y-13361738D01*
X25104658Y-13111738D02*
X25604658Y-13111738D01*
X25564309Y-14705299D02*
X26064309Y-15205299D01*
X26064309Y-14705299D02*
X25564309Y-15205299D01*
X25814309Y-14705299D02*
X25814309Y-15205299D01*
X25564309Y-14955299D02*
X26064309Y-14955299D01*
X26023962Y-16548862D02*
X26523962Y-17048862D01*
X26523962Y-16548862D02*
X26023962Y-17048862D01*
X26273962Y-16548862D02*
X26273962Y-17048862D01*
X26023962Y-16798862D02*
X26523962Y-16798862D01*
X26334509Y-18747992D02*
X26834509Y-19247992D01*
X26834509Y-18747992D02*
X26334509Y-19247992D01*
X26584509Y-18747992D02*
X26584509Y-19247992D01*
X26334509Y-18997992D02*
X26834509Y-18997992D01*
X26863546Y-12062481D02*
X27363546Y-12562481D01*
X27363546Y-12062481D02*
X26863546Y-12562481D01*
X27113546Y-12062481D02*
X27113546Y-12562481D01*
X26863546Y-12312481D02*
X27363546Y-12312481D01*
X27323198Y-13906044D02*
X27823198Y-14406044D01*
X27823198Y-13906044D02*
X27323198Y-14406044D01*
X27573198Y-13906044D02*
X27573198Y-14406044D01*
X27323198Y-14156044D02*
X27823198Y-14156044D01*
X27782850Y-15749605D02*
X28282850Y-16249605D01*
X28282850Y-15749605D02*
X27782850Y-16249605D01*
X28032850Y-15749605D02*
X28032850Y-16249605D01*
X27782850Y-15999605D02*
X28282850Y-15999605D01*
X28327174Y-17932773D02*
X28827174Y-18432773D01*
X28827174Y-17932773D02*
X28327174Y-18432773D01*
X28577174Y-17932773D02*
X28577174Y-18432773D01*
X28327174Y-18182773D02*
X28827174Y-18182773D01*
X28586149Y-11117684D02*
X29086149Y-11617684D01*
X29086149Y-11117684D02*
X28586149Y-11617684D01*
X28836149Y-11117684D02*
X28836149Y-11617684D01*
X28586149Y-11367684D02*
X29086149Y-11367684D01*
X29045799Y-12961244D02*
X29545799Y-13461244D01*
X29545799Y-12961244D02*
X29045799Y-13461244D01*
X29295799Y-12961244D02*
X29295799Y-13461244D01*
X29045799Y-13211244D02*
X29545799Y-13211244D01*
X29505451Y-14804808D02*
X30005451Y-15304808D01*
X30005451Y-14804808D02*
X29505451Y-15304808D01*
X29755451Y-14804808D02*
X29755451Y-15304808D01*
X29505451Y-15054808D02*
X30005451Y-15054808D01*
X30502287Y-10949120D02*
X31002287Y-11449120D01*
X31002287Y-10949120D02*
X30502287Y-11449120D01*
X30752287Y-10949120D02*
X30752287Y-11449120D01*
X30502287Y-11199120D02*
X31002287Y-11199120D01*
X30961938Y-12792682D02*
X31461938Y-13292682D01*
X31461938Y-12792682D02*
X30961938Y-13292682D01*
X31211938Y-12792682D02*
X31211938Y-13292682D01*
X30961938Y-13042682D02*
X31461938Y-13042682D01*
X31421589Y-14636245D02*
X31921589Y-15136245D01*
X31921589Y-14636245D02*
X31421589Y-15136245D01*
X31671589Y-14636245D02*
X31671589Y-15136245D01*
X31421589Y-14886245D02*
X31921589Y-14886245D01*
X32599866Y-11508279D02*
X33099866Y-12008279D01*
X33099866Y-11508279D02*
X32599866Y-12008279D01*
X32849866Y-11508279D02*
X32849866Y-12008279D01*
X32599866Y-11758279D02*
X33099866Y-11758279D01*
X33059518Y-13351841D02*
X33559518Y-13851841D01*
X33559518Y-13351841D02*
X33059518Y-13851841D01*
X33309518Y-13351841D02*
X33309518Y-13851841D01*
X33059518Y-13601841D02*
X33559518Y-13601841D01*
X33519169Y-15195402D02*
X34019169Y-15695402D01*
X34019169Y-15195402D02*
X33519169Y-15695402D01*
X33769169Y-15195402D02*
X33769169Y-15695402D01*
X33519169Y-15445402D02*
X34019169Y-15445402D01*
X34491813Y-11242686D02*
X34991813Y-11742686D01*
X34991813Y-11242686D02*
X34491813Y-11742686D01*
X34741813Y-11242686D02*
X34741813Y-11742686D01*
X34491813Y-11492686D02*
X34991813Y-11492686D01*
X34951464Y-13086248D02*
X35451464Y-13586248D01*
X35451464Y-13086248D02*
X34951464Y-13586248D01*
X35201464Y-13086248D02*
X35201464Y-13586248D01*
X34951464Y-13336248D02*
X35451464Y-13336248D01*
D11*
X6148733Y-22103131D02*
X6148733Y-21903131D01*
X6148733Y-21903131D02*
X6196352Y-21903131D01*
X6196352Y-21903131D02*
X6224924Y-21912655D01*
X6224924Y-21912655D02*
X6243972Y-21931703D01*
X6243972Y-21931703D02*
X6253495Y-21950750D01*
X6253495Y-21950750D02*
X6263019Y-21988845D01*
X6263019Y-21988845D02*
X6263019Y-22017417D01*
X6263019Y-22017417D02*
X6253495Y-22055512D01*
X6253495Y-22055512D02*
X6243972Y-22074560D01*
X6243972Y-22074560D02*
X6224924Y-22093607D01*
X6224924Y-22093607D02*
X6196352Y-22103131D01*
X6196352Y-22103131D02*
X6148733Y-22103131D01*
X6348733Y-22103131D02*
X6348733Y-21969798D01*
X6348733Y-22007893D02*
X6358257Y-21988845D01*
X6358257Y-21988845D02*
X6367781Y-21979322D01*
X6367781Y-21979322D02*
X6386829Y-21969798D01*
X6386829Y-21969798D02*
X6405876Y-21969798D01*
X6472543Y-22103131D02*
X6472543Y-21969798D01*
X6472543Y-21903131D02*
X6463019Y-21912655D01*
X6463019Y-21912655D02*
X6472543Y-21922179D01*
X6472543Y-21922179D02*
X6482067Y-21912655D01*
X6482067Y-21912655D02*
X6472543Y-21903131D01*
X6472543Y-21903131D02*
X6472543Y-21922179D01*
X6596352Y-22103131D02*
X6577305Y-22093607D01*
X6577305Y-22093607D02*
X6567781Y-22074560D01*
X6567781Y-22074560D02*
X6567781Y-21903131D01*
X6701114Y-22103131D02*
X6682067Y-22093607D01*
X6682067Y-22093607D02*
X6672543Y-22074560D01*
X6672543Y-22074560D02*
X6672543Y-21903131D01*
X6929686Y-22103131D02*
X6929686Y-21903131D01*
X6929686Y-21903131D02*
X6996353Y-22045988D01*
X6996353Y-22045988D02*
X7063019Y-21903131D01*
X7063019Y-21903131D02*
X7063019Y-22103131D01*
X7243972Y-22103131D02*
X7243972Y-21998369D01*
X7243972Y-21998369D02*
X7234448Y-21979322D01*
X7234448Y-21979322D02*
X7215400Y-21969798D01*
X7215400Y-21969798D02*
X7177305Y-21969798D01*
X7177305Y-21969798D02*
X7158257Y-21979322D01*
X7243972Y-22093607D02*
X7224924Y-22103131D01*
X7224924Y-22103131D02*
X7177305Y-22103131D01*
X7177305Y-22103131D02*
X7158257Y-22093607D01*
X7158257Y-22093607D02*
X7148733Y-22074560D01*
X7148733Y-22074560D02*
X7148733Y-22055512D01*
X7148733Y-22055512D02*
X7158257Y-22036464D01*
X7158257Y-22036464D02*
X7177305Y-22026941D01*
X7177305Y-22026941D02*
X7224924Y-22026941D01*
X7224924Y-22026941D02*
X7243972Y-22017417D01*
X7339210Y-21969798D02*
X7339210Y-22169798D01*
X7339210Y-21979322D02*
X7358257Y-21969798D01*
X7358257Y-21969798D02*
X7396353Y-21969798D01*
X7396353Y-21969798D02*
X7415400Y-21979322D01*
X7415400Y-21979322D02*
X7424924Y-21988845D01*
X7424924Y-21988845D02*
X7434448Y-22007893D01*
X7434448Y-22007893D02*
X7434448Y-22065036D01*
X7434448Y-22065036D02*
X7424924Y-22084083D01*
X7424924Y-22084083D02*
X7415400Y-22093607D01*
X7415400Y-22093607D02*
X7396353Y-22103131D01*
X7396353Y-22103131D02*
X7358257Y-22103131D01*
X7358257Y-22103131D02*
X7339210Y-22093607D01*
X7520162Y-22084083D02*
X7529686Y-22093607D01*
X7529686Y-22093607D02*
X7520162Y-22103131D01*
X7520162Y-22103131D02*
X7510638Y-22093607D01*
X7510638Y-22093607D02*
X7520162Y-22084083D01*
X7520162Y-22084083D02*
X7520162Y-22103131D01*
X7520162Y-21979322D02*
X7529686Y-21988845D01*
X7529686Y-21988845D02*
X7520162Y-21998369D01*
X7520162Y-21998369D02*
X7510638Y-21988845D01*
X7510638Y-21988845D02*
X7520162Y-21979322D01*
X7520162Y-21979322D02*
X7520162Y-21998369D01*
D12*
X5797957Y-22386647D02*
X5887957Y-22476647D01*
X5887957Y-22386647D02*
X5797957Y-22476647D01*
D11*
X6186829Y-22323131D02*
X6205876Y-22323131D01*
X6205876Y-22323131D02*
X6224924Y-22332655D01*
X6224924Y-22332655D02*
X6234448Y-22342179D01*
X6234448Y-22342179D02*
X6243972Y-22361226D01*
X6243972Y-22361226D02*
X6253495Y-22399321D01*
X6253495Y-22399321D02*
X6253495Y-22446941D01*
X6253495Y-22446941D02*
X6243972Y-22485036D01*
X6243972Y-22485036D02*
X6234448Y-22504083D01*
X6234448Y-22504083D02*
X6224924Y-22513607D01*
X6224924Y-22513607D02*
X6205876Y-22523131D01*
X6205876Y-22523131D02*
X6186829Y-22523131D01*
X6186829Y-22523131D02*
X6167781Y-22513607D01*
X6167781Y-22513607D02*
X6158257Y-22504083D01*
X6158257Y-22504083D02*
X6148733Y-22485036D01*
X6148733Y-22485036D02*
X6139210Y-22446941D01*
X6139210Y-22446941D02*
X6139210Y-22399321D01*
X6139210Y-22399321D02*
X6148733Y-22361226D01*
X6148733Y-22361226D02*
X6158257Y-22342179D01*
X6158257Y-22342179D02*
X6167781Y-22332655D01*
X6167781Y-22332655D02*
X6186829Y-22323131D01*
X6339210Y-22504083D02*
X6348733Y-22513607D01*
X6348733Y-22513607D02*
X6339210Y-22523131D01*
X6339210Y-22523131D02*
X6329686Y-22513607D01*
X6329686Y-22513607D02*
X6339210Y-22504083D01*
X6339210Y-22504083D02*
X6339210Y-22523131D01*
X6443972Y-22523131D02*
X6482067Y-22523131D01*
X6482067Y-22523131D02*
X6501114Y-22513607D01*
X6501114Y-22513607D02*
X6510638Y-22504083D01*
X6510638Y-22504083D02*
X6529686Y-22475512D01*
X6529686Y-22475512D02*
X6539210Y-22437417D01*
X6539210Y-22437417D02*
X6539210Y-22361226D01*
X6539210Y-22361226D02*
X6529686Y-22342179D01*
X6529686Y-22342179D02*
X6520162Y-22332655D01*
X6520162Y-22332655D02*
X6501114Y-22323131D01*
X6501114Y-22323131D02*
X6463019Y-22323131D01*
X6463019Y-22323131D02*
X6443972Y-22332655D01*
X6443972Y-22332655D02*
X6434448Y-22342179D01*
X6434448Y-22342179D02*
X6424924Y-22361226D01*
X6424924Y-22361226D02*
X6424924Y-22408845D01*
X6424924Y-22408845D02*
X6434448Y-22427893D01*
X6434448Y-22427893D02*
X6443972Y-22437417D01*
X6443972Y-22437417D02*
X6463019Y-22446941D01*
X6463019Y-22446941D02*
X6501114Y-22446941D01*
X6501114Y-22446941D02*
X6520162Y-22437417D01*
X6520162Y-22437417D02*
X6529686Y-22427893D01*
X6529686Y-22427893D02*
X6539210Y-22408845D01*
X6663019Y-22323131D02*
X6682067Y-22323131D01*
X6682067Y-22323131D02*
X6701114Y-22332655D01*
X6701114Y-22332655D02*
X6710638Y-22342179D01*
X6710638Y-22342179D02*
X6720162Y-22361226D01*
X6720162Y-22361226D02*
X6729686Y-22399321D01*
X6729686Y-22399321D02*
X6729686Y-22446941D01*
X6729686Y-22446941D02*
X6720162Y-22485036D01*
X6720162Y-22485036D02*
X6710638Y-22504083D01*
X6710638Y-22504083D02*
X6701114Y-22513607D01*
X6701114Y-22513607D02*
X6682067Y-22523131D01*
X6682067Y-22523131D02*
X6663019Y-22523131D01*
X6663019Y-22523131D02*
X6643972Y-22513607D01*
X6643972Y-22513607D02*
X6634448Y-22504083D01*
X6634448Y-22504083D02*
X6624924Y-22485036D01*
X6624924Y-22485036D02*
X6615400Y-22446941D01*
X6615400Y-22446941D02*
X6615400Y-22399321D01*
X6615400Y-22399321D02*
X6624924Y-22361226D01*
X6624924Y-22361226D02*
X6634448Y-22342179D01*
X6634448Y-22342179D02*
X6643972Y-22332655D01*
X6643972Y-22332655D02*
X6663019Y-22323131D01*
X6853495Y-22323131D02*
X6872543Y-22323131D01*
X6872543Y-22323131D02*
X6891591Y-22332655D01*
X6891591Y-22332655D02*
X6901114Y-22342179D01*
X6901114Y-22342179D02*
X6910638Y-22361226D01*
X6910638Y-22361226D02*
X6920162Y-22399321D01*
X6920162Y-22399321D02*
X6920162Y-22446941D01*
X6920162Y-22446941D02*
X6910638Y-22485036D01*
X6910638Y-22485036D02*
X6901114Y-22504083D01*
X6901114Y-22504083D02*
X6891591Y-22513607D01*
X6891591Y-22513607D02*
X6872543Y-22523131D01*
X6872543Y-22523131D02*
X6853495Y-22523131D01*
X6853495Y-22523131D02*
X6834448Y-22513607D01*
X6834448Y-22513607D02*
X6824924Y-22504083D01*
X6824924Y-22504083D02*
X6815400Y-22485036D01*
X6815400Y-22485036D02*
X6805876Y-22446941D01*
X6805876Y-22446941D02*
X6805876Y-22399321D01*
X6805876Y-22399321D02*
X6815400Y-22361226D01*
X6815400Y-22361226D02*
X6824924Y-22342179D01*
X6824924Y-22342179D02*
X6834448Y-22332655D01*
X6834448Y-22332655D02*
X6853495Y-22323131D01*
X7005876Y-22523131D02*
X7005876Y-22389798D01*
X7005876Y-22408845D02*
X7015400Y-22399321D01*
X7015400Y-22399321D02*
X7034448Y-22389798D01*
X7034448Y-22389798D02*
X7063019Y-22389798D01*
X7063019Y-22389798D02*
X7082067Y-22399321D01*
X7082067Y-22399321D02*
X7091591Y-22418369D01*
X7091591Y-22418369D02*
X7091591Y-22523131D01*
X7091591Y-22418369D02*
X7101114Y-22399321D01*
X7101114Y-22399321D02*
X7120162Y-22389798D01*
X7120162Y-22389798D02*
X7148733Y-22389798D01*
X7148733Y-22389798D02*
X7167781Y-22399321D01*
X7167781Y-22399321D02*
X7177305Y-22418369D01*
X7177305Y-22418369D02*
X7177305Y-22523131D01*
X7272543Y-22523131D02*
X7272543Y-22389798D01*
X7272543Y-22408845D02*
X7282067Y-22399321D01*
X7282067Y-22399321D02*
X7301114Y-22389798D01*
X7301114Y-22389798D02*
X7329686Y-22389798D01*
X7329686Y-22389798D02*
X7348734Y-22399321D01*
X7348734Y-22399321D02*
X7358257Y-22418369D01*
X7358257Y-22418369D02*
X7358257Y-22523131D01*
X7358257Y-22418369D02*
X7367781Y-22399321D01*
X7367781Y-22399321D02*
X7386829Y-22389798D01*
X7386829Y-22389798D02*
X7415400Y-22389798D01*
X7415400Y-22389798D02*
X7434448Y-22399321D01*
X7434448Y-22399321D02*
X7443972Y-22418369D01*
X7443972Y-22418369D02*
X7443972Y-22523131D01*
X7834448Y-22313607D02*
X7663019Y-22570750D01*
X8091591Y-22323131D02*
X8110638Y-22323131D01*
X8110638Y-22323131D02*
X8129686Y-22332655D01*
X8129686Y-22332655D02*
X8139210Y-22342179D01*
X8139210Y-22342179D02*
X8148734Y-22361226D01*
X8148734Y-22361226D02*
X8158257Y-22399321D01*
X8158257Y-22399321D02*
X8158257Y-22446941D01*
X8158257Y-22446941D02*
X8148734Y-22485036D01*
X8148734Y-22485036D02*
X8139210Y-22504083D01*
X8139210Y-22504083D02*
X8129686Y-22513607D01*
X8129686Y-22513607D02*
X8110638Y-22523131D01*
X8110638Y-22523131D02*
X8091591Y-22523131D01*
X8091591Y-22523131D02*
X8072543Y-22513607D01*
X8072543Y-22513607D02*
X8063019Y-22504083D01*
X8063019Y-22504083D02*
X8053496Y-22485036D01*
X8053496Y-22485036D02*
X8043972Y-22446941D01*
X8043972Y-22446941D02*
X8043972Y-22399321D01*
X8043972Y-22399321D02*
X8053496Y-22361226D01*
X8053496Y-22361226D02*
X8063019Y-22342179D01*
X8063019Y-22342179D02*
X8072543Y-22332655D01*
X8072543Y-22332655D02*
X8091591Y-22323131D01*
X8243972Y-22504083D02*
X8253496Y-22513607D01*
X8253496Y-22513607D02*
X8243972Y-22523131D01*
X8243972Y-22523131D02*
X8234448Y-22513607D01*
X8234448Y-22513607D02*
X8243972Y-22504083D01*
X8243972Y-22504083D02*
X8243972Y-22523131D01*
X8377305Y-22323131D02*
X8396353Y-22323131D01*
X8396353Y-22323131D02*
X8415400Y-22332655D01*
X8415400Y-22332655D02*
X8424924Y-22342179D01*
X8424924Y-22342179D02*
X8434448Y-22361226D01*
X8434448Y-22361226D02*
X8443972Y-22399321D01*
X8443972Y-22399321D02*
X8443972Y-22446941D01*
X8443972Y-22446941D02*
X8434448Y-22485036D01*
X8434448Y-22485036D02*
X8424924Y-22504083D01*
X8424924Y-22504083D02*
X8415400Y-22513607D01*
X8415400Y-22513607D02*
X8396353Y-22523131D01*
X8396353Y-22523131D02*
X8377305Y-22523131D01*
X8377305Y-22523131D02*
X8358257Y-22513607D01*
X8358257Y-22513607D02*
X8348734Y-22504083D01*
X8348734Y-22504083D02*
X8339210Y-22485036D01*
X8339210Y-22485036D02*
X8329686Y-22446941D01*
X8329686Y-22446941D02*
X8329686Y-22399321D01*
X8329686Y-22399321D02*
X8339210Y-22361226D01*
X8339210Y-22361226D02*
X8348734Y-22342179D01*
X8348734Y-22342179D02*
X8358257Y-22332655D01*
X8358257Y-22332655D02*
X8377305Y-22323131D01*
X8510639Y-22323131D02*
X8634448Y-22323131D01*
X8634448Y-22323131D02*
X8567781Y-22399321D01*
X8567781Y-22399321D02*
X8596353Y-22399321D01*
X8596353Y-22399321D02*
X8615400Y-22408845D01*
X8615400Y-22408845D02*
X8624924Y-22418369D01*
X8624924Y-22418369D02*
X8634448Y-22437417D01*
X8634448Y-22437417D02*
X8634448Y-22485036D01*
X8634448Y-22485036D02*
X8624924Y-22504083D01*
X8624924Y-22504083D02*
X8615400Y-22513607D01*
X8615400Y-22513607D02*
X8596353Y-22523131D01*
X8596353Y-22523131D02*
X8539210Y-22523131D01*
X8539210Y-22523131D02*
X8520162Y-22513607D01*
X8520162Y-22513607D02*
X8510639Y-22504083D01*
X8815400Y-22323131D02*
X8720162Y-22323131D01*
X8720162Y-22323131D02*
X8710639Y-22418369D01*
X8710639Y-22418369D02*
X8720162Y-22408845D01*
X8720162Y-22408845D02*
X8739210Y-22399321D01*
X8739210Y-22399321D02*
X8786829Y-22399321D01*
X8786829Y-22399321D02*
X8805877Y-22408845D01*
X8805877Y-22408845D02*
X8815400Y-22418369D01*
X8815400Y-22418369D02*
X8824924Y-22437417D01*
X8824924Y-22437417D02*
X8824924Y-22485036D01*
X8824924Y-22485036D02*
X8815400Y-22504083D01*
X8815400Y-22504083D02*
X8805877Y-22513607D01*
X8805877Y-22513607D02*
X8786829Y-22523131D01*
X8786829Y-22523131D02*
X8739210Y-22523131D01*
X8739210Y-22523131D02*
X8720162Y-22513607D01*
X8720162Y-22513607D02*
X8710639Y-22504083D01*
X8996353Y-22389798D02*
X8996353Y-22523131D01*
X8948734Y-22313607D02*
X8901115Y-22456464D01*
X8901115Y-22456464D02*
X9024924Y-22456464D01*
X9091591Y-22323131D02*
X9091591Y-22361226D01*
X9167781Y-22323131D02*
X9167781Y-22361226D01*
X9463020Y-22599321D02*
X9453496Y-22589798D01*
X9453496Y-22589798D02*
X9434448Y-22561226D01*
X9434448Y-22561226D02*
X9424924Y-22542179D01*
X9424924Y-22542179D02*
X9415401Y-22513607D01*
X9415401Y-22513607D02*
X9405877Y-22465988D01*
X9405877Y-22465988D02*
X9405877Y-22427893D01*
X9405877Y-22427893D02*
X9415401Y-22380274D01*
X9415401Y-22380274D02*
X9424924Y-22351703D01*
X9424924Y-22351703D02*
X9434448Y-22332655D01*
X9434448Y-22332655D02*
X9453496Y-22304083D01*
X9453496Y-22304083D02*
X9463020Y-22294560D01*
X9529686Y-22342179D02*
X9539210Y-22332655D01*
X9539210Y-22332655D02*
X9558258Y-22323131D01*
X9558258Y-22323131D02*
X9605877Y-22323131D01*
X9605877Y-22323131D02*
X9624924Y-22332655D01*
X9624924Y-22332655D02*
X9634448Y-22342179D01*
X9634448Y-22342179D02*
X9643972Y-22361226D01*
X9643972Y-22361226D02*
X9643972Y-22380274D01*
X9643972Y-22380274D02*
X9634448Y-22408845D01*
X9634448Y-22408845D02*
X9520162Y-22523131D01*
X9520162Y-22523131D02*
X9643972Y-22523131D01*
X9882067Y-22523131D02*
X9882067Y-22323131D01*
X9967782Y-22523131D02*
X9967782Y-22418369D01*
X9967782Y-22418369D02*
X9958258Y-22399321D01*
X9958258Y-22399321D02*
X9939210Y-22389798D01*
X9939210Y-22389798D02*
X9910639Y-22389798D01*
X9910639Y-22389798D02*
X9891591Y-22399321D01*
X9891591Y-22399321D02*
X9882067Y-22408845D01*
X10091591Y-22523131D02*
X10072543Y-22513607D01*
X10072543Y-22513607D02*
X10063020Y-22504083D01*
X10063020Y-22504083D02*
X10053496Y-22485036D01*
X10053496Y-22485036D02*
X10053496Y-22427893D01*
X10053496Y-22427893D02*
X10063020Y-22408845D01*
X10063020Y-22408845D02*
X10072543Y-22399321D01*
X10072543Y-22399321D02*
X10091591Y-22389798D01*
X10091591Y-22389798D02*
X10120163Y-22389798D01*
X10120163Y-22389798D02*
X10139210Y-22399321D01*
X10139210Y-22399321D02*
X10148734Y-22408845D01*
X10148734Y-22408845D02*
X10158258Y-22427893D01*
X10158258Y-22427893D02*
X10158258Y-22485036D01*
X10158258Y-22485036D02*
X10148734Y-22504083D01*
X10148734Y-22504083D02*
X10139210Y-22513607D01*
X10139210Y-22513607D02*
X10120163Y-22523131D01*
X10120163Y-22523131D02*
X10091591Y-22523131D01*
X10272543Y-22523131D02*
X10253496Y-22513607D01*
X10253496Y-22513607D02*
X10243972Y-22494560D01*
X10243972Y-22494560D02*
X10243972Y-22323131D01*
X10424924Y-22513607D02*
X10405877Y-22523131D01*
X10405877Y-22523131D02*
X10367782Y-22523131D01*
X10367782Y-22523131D02*
X10348734Y-22513607D01*
X10348734Y-22513607D02*
X10339210Y-22494560D01*
X10339210Y-22494560D02*
X10339210Y-22418369D01*
X10339210Y-22418369D02*
X10348734Y-22399321D01*
X10348734Y-22399321D02*
X10367782Y-22389798D01*
X10367782Y-22389798D02*
X10405877Y-22389798D01*
X10405877Y-22389798D02*
X10424924Y-22399321D01*
X10424924Y-22399321D02*
X10434448Y-22418369D01*
X10434448Y-22418369D02*
X10434448Y-22437417D01*
X10434448Y-22437417D02*
X10339210Y-22456464D01*
X10510639Y-22513607D02*
X10529686Y-22523131D01*
X10529686Y-22523131D02*
X10567782Y-22523131D01*
X10567782Y-22523131D02*
X10586829Y-22513607D01*
X10586829Y-22513607D02*
X10596353Y-22494560D01*
X10596353Y-22494560D02*
X10596353Y-22485036D01*
X10596353Y-22485036D02*
X10586829Y-22465988D01*
X10586829Y-22465988D02*
X10567782Y-22456464D01*
X10567782Y-22456464D02*
X10539210Y-22456464D01*
X10539210Y-22456464D02*
X10520163Y-22446941D01*
X10520163Y-22446941D02*
X10510639Y-22427893D01*
X10510639Y-22427893D02*
X10510639Y-22418369D01*
X10510639Y-22418369D02*
X10520163Y-22399321D01*
X10520163Y-22399321D02*
X10539210Y-22389798D01*
X10539210Y-22389798D02*
X10567782Y-22389798D01*
X10567782Y-22389798D02*
X10586829Y-22399321D01*
X10663020Y-22599321D02*
X10672544Y-22589798D01*
X10672544Y-22589798D02*
X10691591Y-22561226D01*
X10691591Y-22561226D02*
X10701115Y-22542179D01*
X10701115Y-22542179D02*
X10710639Y-22513607D01*
X10710639Y-22513607D02*
X10720163Y-22465988D01*
X10720163Y-22465988D02*
X10720163Y-22427893D01*
X10720163Y-22427893D02*
X10710639Y-22380274D01*
X10710639Y-22380274D02*
X10701115Y-22351703D01*
X10701115Y-22351703D02*
X10691591Y-22332655D01*
X10691591Y-22332655D02*
X10672544Y-22304083D01*
X10672544Y-22304083D02*
X10663020Y-22294560D01*
X11024925Y-22599321D02*
X11015401Y-22589798D01*
X11015401Y-22589798D02*
X10996353Y-22561226D01*
X10996353Y-22561226D02*
X10986829Y-22542179D01*
X10986829Y-22542179D02*
X10977305Y-22513607D01*
X10977305Y-22513607D02*
X10967782Y-22465988D01*
X10967782Y-22465988D02*
X10967782Y-22427893D01*
X10967782Y-22427893D02*
X10977305Y-22380274D01*
X10977305Y-22380274D02*
X10986829Y-22351703D01*
X10986829Y-22351703D02*
X10996353Y-22332655D01*
X10996353Y-22332655D02*
X11015401Y-22304083D01*
X11015401Y-22304083D02*
X11024925Y-22294560D01*
X11101115Y-22389798D02*
X11101115Y-22523131D01*
X11101115Y-22408845D02*
X11110639Y-22399321D01*
X11110639Y-22399321D02*
X11129686Y-22389798D01*
X11129686Y-22389798D02*
X11158258Y-22389798D01*
X11158258Y-22389798D02*
X11177305Y-22399321D01*
X11177305Y-22399321D02*
X11186829Y-22418369D01*
X11186829Y-22418369D02*
X11186829Y-22523131D01*
X11310639Y-22523131D02*
X11291591Y-22513607D01*
X11291591Y-22513607D02*
X11282067Y-22504083D01*
X11282067Y-22504083D02*
X11272543Y-22485036D01*
X11272543Y-22485036D02*
X11272543Y-22427893D01*
X11272543Y-22427893D02*
X11282067Y-22408845D01*
X11282067Y-22408845D02*
X11291591Y-22399321D01*
X11291591Y-22399321D02*
X11310639Y-22389798D01*
X11310639Y-22389798D02*
X11339210Y-22389798D01*
X11339210Y-22389798D02*
X11358258Y-22399321D01*
X11358258Y-22399321D02*
X11367782Y-22408845D01*
X11367782Y-22408845D02*
X11377305Y-22427893D01*
X11377305Y-22427893D02*
X11377305Y-22485036D01*
X11377305Y-22485036D02*
X11367782Y-22504083D01*
X11367782Y-22504083D02*
X11358258Y-22513607D01*
X11358258Y-22513607D02*
X11339210Y-22523131D01*
X11339210Y-22523131D02*
X11310639Y-22523131D01*
X11434448Y-22389798D02*
X11510639Y-22389798D01*
X11463020Y-22323131D02*
X11463020Y-22494560D01*
X11463020Y-22494560D02*
X11472543Y-22513607D01*
X11472543Y-22513607D02*
X11491591Y-22523131D01*
X11491591Y-22523131D02*
X11510639Y-22523131D01*
X11729686Y-22389798D02*
X11729686Y-22589798D01*
X11729686Y-22399321D02*
X11748734Y-22389798D01*
X11748734Y-22389798D02*
X11786829Y-22389798D01*
X11786829Y-22389798D02*
X11805877Y-22399321D01*
X11805877Y-22399321D02*
X11815401Y-22408845D01*
X11815401Y-22408845D02*
X11824924Y-22427893D01*
X11824924Y-22427893D02*
X11824924Y-22485036D01*
X11824924Y-22485036D02*
X11815401Y-22504083D01*
X11815401Y-22504083D02*
X11805877Y-22513607D01*
X11805877Y-22513607D02*
X11786829Y-22523131D01*
X11786829Y-22523131D02*
X11748734Y-22523131D01*
X11748734Y-22523131D02*
X11729686Y-22513607D01*
X11939210Y-22523131D02*
X11920163Y-22513607D01*
X11920163Y-22513607D02*
X11910639Y-22494560D01*
X11910639Y-22494560D02*
X11910639Y-22323131D01*
X12101115Y-22523131D02*
X12101115Y-22418369D01*
X12101115Y-22418369D02*
X12091591Y-22399321D01*
X12091591Y-22399321D02*
X12072544Y-22389798D01*
X12072544Y-22389798D02*
X12034448Y-22389798D01*
X12034448Y-22389798D02*
X12015401Y-22399321D01*
X12101115Y-22513607D02*
X12082067Y-22523131D01*
X12082067Y-22523131D02*
X12034448Y-22523131D01*
X12034448Y-22523131D02*
X12015401Y-22513607D01*
X12015401Y-22513607D02*
X12005877Y-22494560D01*
X12005877Y-22494560D02*
X12005877Y-22475512D01*
X12005877Y-22475512D02*
X12015401Y-22456464D01*
X12015401Y-22456464D02*
X12034448Y-22446941D01*
X12034448Y-22446941D02*
X12082067Y-22446941D01*
X12082067Y-22446941D02*
X12101115Y-22437417D01*
X12167782Y-22389798D02*
X12243972Y-22389798D01*
X12196353Y-22323131D02*
X12196353Y-22494560D01*
X12196353Y-22494560D02*
X12205877Y-22513607D01*
X12205877Y-22513607D02*
X12224924Y-22523131D01*
X12224924Y-22523131D02*
X12243972Y-22523131D01*
X12386829Y-22513607D02*
X12367782Y-22523131D01*
X12367782Y-22523131D02*
X12329686Y-22523131D01*
X12329686Y-22523131D02*
X12310639Y-22513607D01*
X12310639Y-22513607D02*
X12301115Y-22494560D01*
X12301115Y-22494560D02*
X12301115Y-22418369D01*
X12301115Y-22418369D02*
X12310639Y-22399321D01*
X12310639Y-22399321D02*
X12329686Y-22389798D01*
X12329686Y-22389798D02*
X12367782Y-22389798D01*
X12367782Y-22389798D02*
X12386829Y-22399321D01*
X12386829Y-22399321D02*
X12396353Y-22418369D01*
X12396353Y-22418369D02*
X12396353Y-22437417D01*
X12396353Y-22437417D02*
X12301115Y-22456464D01*
X12567782Y-22523131D02*
X12567782Y-22323131D01*
X12567782Y-22513607D02*
X12548734Y-22523131D01*
X12548734Y-22523131D02*
X12510639Y-22523131D01*
X12510639Y-22523131D02*
X12491591Y-22513607D01*
X12491591Y-22513607D02*
X12482067Y-22504083D01*
X12482067Y-22504083D02*
X12472544Y-22485036D01*
X12472544Y-22485036D02*
X12472544Y-22427893D01*
X12472544Y-22427893D02*
X12482067Y-22408845D01*
X12482067Y-22408845D02*
X12491591Y-22399321D01*
X12491591Y-22399321D02*
X12510639Y-22389798D01*
X12510639Y-22389798D02*
X12548734Y-22389798D01*
X12548734Y-22389798D02*
X12567782Y-22399321D01*
X12643972Y-22599321D02*
X12653496Y-22589798D01*
X12653496Y-22589798D02*
X12672544Y-22561226D01*
X12672544Y-22561226D02*
X12682067Y-22542179D01*
X12682067Y-22542179D02*
X12691591Y-22513607D01*
X12691591Y-22513607D02*
X12701115Y-22465988D01*
X12701115Y-22465988D02*
X12701115Y-22427893D01*
X12701115Y-22427893D02*
X12691591Y-22380274D01*
X12691591Y-22380274D02*
X12682067Y-22351703D01*
X12682067Y-22351703D02*
X12672544Y-22332655D01*
X12672544Y-22332655D02*
X12653496Y-22304083D01*
X12653496Y-22304083D02*
X12643972Y-22294560D01*
D13*
X5887957Y-22695647D02*
G75*
G02*
X5777957Y-22695647I-55000J0D01*
G01*
X5777957Y-22695647D02*
G75*
G02*
X5887957Y-22695647I55000J0D01*
G01*
D11*
X6253495Y-22787131D02*
X6139210Y-22787131D01*
X6196352Y-22787131D02*
X6196352Y-22587131D01*
X6196352Y-22587131D02*
X6177305Y-22615702D01*
X6177305Y-22615702D02*
X6158257Y-22634750D01*
X6158257Y-22634750D02*
X6139210Y-22644274D01*
X6339210Y-22768083D02*
X6348733Y-22777607D01*
X6348733Y-22777607D02*
X6339210Y-22787131D01*
X6339210Y-22787131D02*
X6329686Y-22777607D01*
X6329686Y-22777607D02*
X6339210Y-22768083D01*
X6339210Y-22768083D02*
X6339210Y-22787131D01*
X6539210Y-22787131D02*
X6424924Y-22787131D01*
X6482067Y-22787131D02*
X6482067Y-22587131D01*
X6482067Y-22587131D02*
X6463019Y-22615702D01*
X6463019Y-22615702D02*
X6443972Y-22634750D01*
X6443972Y-22634750D02*
X6424924Y-22644274D01*
X6663019Y-22587131D02*
X6682067Y-22587131D01*
X6682067Y-22587131D02*
X6701114Y-22596655D01*
X6701114Y-22596655D02*
X6710638Y-22606179D01*
X6710638Y-22606179D02*
X6720162Y-22625226D01*
X6720162Y-22625226D02*
X6729686Y-22663321D01*
X6729686Y-22663321D02*
X6729686Y-22710941D01*
X6729686Y-22710941D02*
X6720162Y-22749036D01*
X6720162Y-22749036D02*
X6710638Y-22768083D01*
X6710638Y-22768083D02*
X6701114Y-22777607D01*
X6701114Y-22777607D02*
X6682067Y-22787131D01*
X6682067Y-22787131D02*
X6663019Y-22787131D01*
X6663019Y-22787131D02*
X6643972Y-22777607D01*
X6643972Y-22777607D02*
X6634448Y-22768083D01*
X6634448Y-22768083D02*
X6624924Y-22749036D01*
X6624924Y-22749036D02*
X6615400Y-22710941D01*
X6615400Y-22710941D02*
X6615400Y-22663321D01*
X6615400Y-22663321D02*
X6624924Y-22625226D01*
X6624924Y-22625226D02*
X6634448Y-22606179D01*
X6634448Y-22606179D02*
X6643972Y-22596655D01*
X6643972Y-22596655D02*
X6663019Y-22587131D01*
X6853495Y-22587131D02*
X6872543Y-22587131D01*
X6872543Y-22587131D02*
X6891591Y-22596655D01*
X6891591Y-22596655D02*
X6901114Y-22606179D01*
X6901114Y-22606179D02*
X6910638Y-22625226D01*
X6910638Y-22625226D02*
X6920162Y-22663321D01*
X6920162Y-22663321D02*
X6920162Y-22710941D01*
X6920162Y-22710941D02*
X6910638Y-22749036D01*
X6910638Y-22749036D02*
X6901114Y-22768083D01*
X6901114Y-22768083D02*
X6891591Y-22777607D01*
X6891591Y-22777607D02*
X6872543Y-22787131D01*
X6872543Y-22787131D02*
X6853495Y-22787131D01*
X6853495Y-22787131D02*
X6834448Y-22777607D01*
X6834448Y-22777607D02*
X6824924Y-22768083D01*
X6824924Y-22768083D02*
X6815400Y-22749036D01*
X6815400Y-22749036D02*
X6805876Y-22710941D01*
X6805876Y-22710941D02*
X6805876Y-22663321D01*
X6805876Y-22663321D02*
X6815400Y-22625226D01*
X6815400Y-22625226D02*
X6824924Y-22606179D01*
X6824924Y-22606179D02*
X6834448Y-22596655D01*
X6834448Y-22596655D02*
X6853495Y-22587131D01*
X7005876Y-22787131D02*
X7005876Y-22653798D01*
X7005876Y-22672845D02*
X7015400Y-22663321D01*
X7015400Y-22663321D02*
X7034448Y-22653798D01*
X7034448Y-22653798D02*
X7063019Y-22653798D01*
X7063019Y-22653798D02*
X7082067Y-22663321D01*
X7082067Y-22663321D02*
X7091591Y-22682369D01*
X7091591Y-22682369D02*
X7091591Y-22787131D01*
X7091591Y-22682369D02*
X7101114Y-22663321D01*
X7101114Y-22663321D02*
X7120162Y-22653798D01*
X7120162Y-22653798D02*
X7148733Y-22653798D01*
X7148733Y-22653798D02*
X7167781Y-22663321D01*
X7167781Y-22663321D02*
X7177305Y-22682369D01*
X7177305Y-22682369D02*
X7177305Y-22787131D01*
X7272543Y-22787131D02*
X7272543Y-22653798D01*
X7272543Y-22672845D02*
X7282067Y-22663321D01*
X7282067Y-22663321D02*
X7301114Y-22653798D01*
X7301114Y-22653798D02*
X7329686Y-22653798D01*
X7329686Y-22653798D02*
X7348734Y-22663321D01*
X7348734Y-22663321D02*
X7358257Y-22682369D01*
X7358257Y-22682369D02*
X7358257Y-22787131D01*
X7358257Y-22682369D02*
X7367781Y-22663321D01*
X7367781Y-22663321D02*
X7386829Y-22653798D01*
X7386829Y-22653798D02*
X7415400Y-22653798D01*
X7415400Y-22653798D02*
X7434448Y-22663321D01*
X7434448Y-22663321D02*
X7443972Y-22682369D01*
X7443972Y-22682369D02*
X7443972Y-22787131D01*
X7834448Y-22577607D02*
X7663019Y-22834750D01*
X8091591Y-22587131D02*
X8110638Y-22587131D01*
X8110638Y-22587131D02*
X8129686Y-22596655D01*
X8129686Y-22596655D02*
X8139210Y-22606179D01*
X8139210Y-22606179D02*
X8148734Y-22625226D01*
X8148734Y-22625226D02*
X8158257Y-22663321D01*
X8158257Y-22663321D02*
X8158257Y-22710941D01*
X8158257Y-22710941D02*
X8148734Y-22749036D01*
X8148734Y-22749036D02*
X8139210Y-22768083D01*
X8139210Y-22768083D02*
X8129686Y-22777607D01*
X8129686Y-22777607D02*
X8110638Y-22787131D01*
X8110638Y-22787131D02*
X8091591Y-22787131D01*
X8091591Y-22787131D02*
X8072543Y-22777607D01*
X8072543Y-22777607D02*
X8063019Y-22768083D01*
X8063019Y-22768083D02*
X8053496Y-22749036D01*
X8053496Y-22749036D02*
X8043972Y-22710941D01*
X8043972Y-22710941D02*
X8043972Y-22663321D01*
X8043972Y-22663321D02*
X8053496Y-22625226D01*
X8053496Y-22625226D02*
X8063019Y-22606179D01*
X8063019Y-22606179D02*
X8072543Y-22596655D01*
X8072543Y-22596655D02*
X8091591Y-22587131D01*
X8243972Y-22768083D02*
X8253496Y-22777607D01*
X8253496Y-22777607D02*
X8243972Y-22787131D01*
X8243972Y-22787131D02*
X8234448Y-22777607D01*
X8234448Y-22777607D02*
X8243972Y-22768083D01*
X8243972Y-22768083D02*
X8243972Y-22787131D01*
X8377305Y-22587131D02*
X8396353Y-22587131D01*
X8396353Y-22587131D02*
X8415400Y-22596655D01*
X8415400Y-22596655D02*
X8424924Y-22606179D01*
X8424924Y-22606179D02*
X8434448Y-22625226D01*
X8434448Y-22625226D02*
X8443972Y-22663321D01*
X8443972Y-22663321D02*
X8443972Y-22710941D01*
X8443972Y-22710941D02*
X8434448Y-22749036D01*
X8434448Y-22749036D02*
X8424924Y-22768083D01*
X8424924Y-22768083D02*
X8415400Y-22777607D01*
X8415400Y-22777607D02*
X8396353Y-22787131D01*
X8396353Y-22787131D02*
X8377305Y-22787131D01*
X8377305Y-22787131D02*
X8358257Y-22777607D01*
X8358257Y-22777607D02*
X8348734Y-22768083D01*
X8348734Y-22768083D02*
X8339210Y-22749036D01*
X8339210Y-22749036D02*
X8329686Y-22710941D01*
X8329686Y-22710941D02*
X8329686Y-22663321D01*
X8329686Y-22663321D02*
X8339210Y-22625226D01*
X8339210Y-22625226D02*
X8348734Y-22606179D01*
X8348734Y-22606179D02*
X8358257Y-22596655D01*
X8358257Y-22596655D02*
X8377305Y-22587131D01*
X8615400Y-22653798D02*
X8615400Y-22787131D01*
X8567781Y-22577607D02*
X8520162Y-22720464D01*
X8520162Y-22720464D02*
X8643972Y-22720464D01*
X8701115Y-22587131D02*
X8824924Y-22587131D01*
X8824924Y-22587131D02*
X8758258Y-22663321D01*
X8758258Y-22663321D02*
X8786829Y-22663321D01*
X8786829Y-22663321D02*
X8805877Y-22672845D01*
X8805877Y-22672845D02*
X8815400Y-22682369D01*
X8815400Y-22682369D02*
X8824924Y-22701417D01*
X8824924Y-22701417D02*
X8824924Y-22749036D01*
X8824924Y-22749036D02*
X8815400Y-22768083D01*
X8815400Y-22768083D02*
X8805877Y-22777607D01*
X8805877Y-22777607D02*
X8786829Y-22787131D01*
X8786829Y-22787131D02*
X8729686Y-22787131D01*
X8729686Y-22787131D02*
X8710639Y-22777607D01*
X8710639Y-22777607D02*
X8701115Y-22768083D01*
X8891591Y-22587131D02*
X9015400Y-22587131D01*
X9015400Y-22587131D02*
X8948734Y-22663321D01*
X8948734Y-22663321D02*
X8977305Y-22663321D01*
X8977305Y-22663321D02*
X8996353Y-22672845D01*
X8996353Y-22672845D02*
X9005877Y-22682369D01*
X9005877Y-22682369D02*
X9015400Y-22701417D01*
X9015400Y-22701417D02*
X9015400Y-22749036D01*
X9015400Y-22749036D02*
X9005877Y-22768083D01*
X9005877Y-22768083D02*
X8996353Y-22777607D01*
X8996353Y-22777607D02*
X8977305Y-22787131D01*
X8977305Y-22787131D02*
X8920162Y-22787131D01*
X8920162Y-22787131D02*
X8901115Y-22777607D01*
X8901115Y-22777607D02*
X8891591Y-22768083D01*
X9091591Y-22587131D02*
X9091591Y-22625226D01*
X9167781Y-22587131D02*
X9167781Y-22625226D01*
X9463020Y-22863321D02*
X9453496Y-22853798D01*
X9453496Y-22853798D02*
X9434448Y-22825226D01*
X9434448Y-22825226D02*
X9424924Y-22806179D01*
X9424924Y-22806179D02*
X9415401Y-22777607D01*
X9415401Y-22777607D02*
X9405877Y-22729988D01*
X9405877Y-22729988D02*
X9405877Y-22691893D01*
X9405877Y-22691893D02*
X9415401Y-22644274D01*
X9415401Y-22644274D02*
X9424924Y-22615702D01*
X9424924Y-22615702D02*
X9434448Y-22596655D01*
X9434448Y-22596655D02*
X9453496Y-22568083D01*
X9453496Y-22568083D02*
X9463020Y-22558560D01*
X9643972Y-22787131D02*
X9529686Y-22787131D01*
X9586829Y-22787131D02*
X9586829Y-22587131D01*
X9586829Y-22587131D02*
X9567781Y-22615702D01*
X9567781Y-22615702D02*
X9548734Y-22634750D01*
X9548734Y-22634750D02*
X9529686Y-22644274D01*
X9710639Y-22587131D02*
X9834448Y-22587131D01*
X9834448Y-22587131D02*
X9767781Y-22663321D01*
X9767781Y-22663321D02*
X9796353Y-22663321D01*
X9796353Y-22663321D02*
X9815401Y-22672845D01*
X9815401Y-22672845D02*
X9824924Y-22682369D01*
X9824924Y-22682369D02*
X9834448Y-22701417D01*
X9834448Y-22701417D02*
X9834448Y-22749036D01*
X9834448Y-22749036D02*
X9824924Y-22768083D01*
X9824924Y-22768083D02*
X9815401Y-22777607D01*
X9815401Y-22777607D02*
X9796353Y-22787131D01*
X9796353Y-22787131D02*
X9739210Y-22787131D01*
X9739210Y-22787131D02*
X9720162Y-22777607D01*
X9720162Y-22777607D02*
X9710639Y-22768083D01*
X10072543Y-22787131D02*
X10072543Y-22587131D01*
X10158258Y-22787131D02*
X10158258Y-22682369D01*
X10158258Y-22682369D02*
X10148734Y-22663321D01*
X10148734Y-22663321D02*
X10129686Y-22653798D01*
X10129686Y-22653798D02*
X10101115Y-22653798D01*
X10101115Y-22653798D02*
X10082067Y-22663321D01*
X10082067Y-22663321D02*
X10072543Y-22672845D01*
X10282067Y-22787131D02*
X10263020Y-22777607D01*
X10263020Y-22777607D02*
X10253496Y-22768083D01*
X10253496Y-22768083D02*
X10243972Y-22749036D01*
X10243972Y-22749036D02*
X10243972Y-22691893D01*
X10243972Y-22691893D02*
X10253496Y-22672845D01*
X10253496Y-22672845D02*
X10263020Y-22663321D01*
X10263020Y-22663321D02*
X10282067Y-22653798D01*
X10282067Y-22653798D02*
X10310639Y-22653798D01*
X10310639Y-22653798D02*
X10329686Y-22663321D01*
X10329686Y-22663321D02*
X10339210Y-22672845D01*
X10339210Y-22672845D02*
X10348734Y-22691893D01*
X10348734Y-22691893D02*
X10348734Y-22749036D01*
X10348734Y-22749036D02*
X10339210Y-22768083D01*
X10339210Y-22768083D02*
X10329686Y-22777607D01*
X10329686Y-22777607D02*
X10310639Y-22787131D01*
X10310639Y-22787131D02*
X10282067Y-22787131D01*
X10463020Y-22787131D02*
X10443972Y-22777607D01*
X10443972Y-22777607D02*
X10434448Y-22758560D01*
X10434448Y-22758560D02*
X10434448Y-22587131D01*
X10615401Y-22777607D02*
X10596353Y-22787131D01*
X10596353Y-22787131D02*
X10558258Y-22787131D01*
X10558258Y-22787131D02*
X10539210Y-22777607D01*
X10539210Y-22777607D02*
X10529686Y-22758560D01*
X10529686Y-22758560D02*
X10529686Y-22682369D01*
X10529686Y-22682369D02*
X10539210Y-22663321D01*
X10539210Y-22663321D02*
X10558258Y-22653798D01*
X10558258Y-22653798D02*
X10596353Y-22653798D01*
X10596353Y-22653798D02*
X10615401Y-22663321D01*
X10615401Y-22663321D02*
X10624924Y-22682369D01*
X10624924Y-22682369D02*
X10624924Y-22701417D01*
X10624924Y-22701417D02*
X10529686Y-22720464D01*
X10701115Y-22777607D02*
X10720163Y-22787131D01*
X10720163Y-22787131D02*
X10758258Y-22787131D01*
X10758258Y-22787131D02*
X10777305Y-22777607D01*
X10777305Y-22777607D02*
X10786829Y-22758560D01*
X10786829Y-22758560D02*
X10786829Y-22749036D01*
X10786829Y-22749036D02*
X10777305Y-22729988D01*
X10777305Y-22729988D02*
X10758258Y-22720464D01*
X10758258Y-22720464D02*
X10729686Y-22720464D01*
X10729686Y-22720464D02*
X10710639Y-22710941D01*
X10710639Y-22710941D02*
X10701115Y-22691893D01*
X10701115Y-22691893D02*
X10701115Y-22682369D01*
X10701115Y-22682369D02*
X10710639Y-22663321D01*
X10710639Y-22663321D02*
X10729686Y-22653798D01*
X10729686Y-22653798D02*
X10758258Y-22653798D01*
X10758258Y-22653798D02*
X10777305Y-22663321D01*
X10853496Y-22863321D02*
X10863020Y-22853798D01*
X10863020Y-22853798D02*
X10882067Y-22825226D01*
X10882067Y-22825226D02*
X10891591Y-22806179D01*
X10891591Y-22806179D02*
X10901115Y-22777607D01*
X10901115Y-22777607D02*
X10910639Y-22729988D01*
X10910639Y-22729988D02*
X10910639Y-22691893D01*
X10910639Y-22691893D02*
X10901115Y-22644274D01*
X10901115Y-22644274D02*
X10891591Y-22615702D01*
X10891591Y-22615702D02*
X10882067Y-22596655D01*
X10882067Y-22596655D02*
X10863020Y-22568083D01*
X10863020Y-22568083D02*
X10853496Y-22558560D01*
X11215401Y-22863321D02*
X11205877Y-22853798D01*
X11205877Y-22853798D02*
X11186829Y-22825226D01*
X11186829Y-22825226D02*
X11177305Y-22806179D01*
X11177305Y-22806179D02*
X11167782Y-22777607D01*
X11167782Y-22777607D02*
X11158258Y-22729988D01*
X11158258Y-22729988D02*
X11158258Y-22691893D01*
X11158258Y-22691893D02*
X11167782Y-22644274D01*
X11167782Y-22644274D02*
X11177305Y-22615702D01*
X11177305Y-22615702D02*
X11186829Y-22596655D01*
X11186829Y-22596655D02*
X11205877Y-22568083D01*
X11205877Y-22568083D02*
X11215401Y-22558560D01*
X11291591Y-22653798D02*
X11291591Y-22787131D01*
X11291591Y-22672845D02*
X11301115Y-22663321D01*
X11301115Y-22663321D02*
X11320162Y-22653798D01*
X11320162Y-22653798D02*
X11348734Y-22653798D01*
X11348734Y-22653798D02*
X11367782Y-22663321D01*
X11367782Y-22663321D02*
X11377305Y-22682369D01*
X11377305Y-22682369D02*
X11377305Y-22787131D01*
X11501115Y-22787131D02*
X11482067Y-22777607D01*
X11482067Y-22777607D02*
X11472543Y-22768083D01*
X11472543Y-22768083D02*
X11463020Y-22749036D01*
X11463020Y-22749036D02*
X11463020Y-22691893D01*
X11463020Y-22691893D02*
X11472543Y-22672845D01*
X11472543Y-22672845D02*
X11482067Y-22663321D01*
X11482067Y-22663321D02*
X11501115Y-22653798D01*
X11501115Y-22653798D02*
X11529686Y-22653798D01*
X11529686Y-22653798D02*
X11548734Y-22663321D01*
X11548734Y-22663321D02*
X11558258Y-22672845D01*
X11558258Y-22672845D02*
X11567782Y-22691893D01*
X11567782Y-22691893D02*
X11567782Y-22749036D01*
X11567782Y-22749036D02*
X11558258Y-22768083D01*
X11558258Y-22768083D02*
X11548734Y-22777607D01*
X11548734Y-22777607D02*
X11529686Y-22787131D01*
X11529686Y-22787131D02*
X11501115Y-22787131D01*
X11624924Y-22653798D02*
X11701115Y-22653798D01*
X11653496Y-22587131D02*
X11653496Y-22758560D01*
X11653496Y-22758560D02*
X11663020Y-22777607D01*
X11663020Y-22777607D02*
X11682067Y-22787131D01*
X11682067Y-22787131D02*
X11701115Y-22787131D01*
X11920163Y-22653798D02*
X11920163Y-22853798D01*
X11920163Y-22663321D02*
X11939210Y-22653798D01*
X11939210Y-22653798D02*
X11977305Y-22653798D01*
X11977305Y-22653798D02*
X11996353Y-22663321D01*
X11996353Y-22663321D02*
X12005877Y-22672845D01*
X12005877Y-22672845D02*
X12015401Y-22691893D01*
X12015401Y-22691893D02*
X12015401Y-22749036D01*
X12015401Y-22749036D02*
X12005877Y-22768083D01*
X12005877Y-22768083D02*
X11996353Y-22777607D01*
X11996353Y-22777607D02*
X11977305Y-22787131D01*
X11977305Y-22787131D02*
X11939210Y-22787131D01*
X11939210Y-22787131D02*
X11920163Y-22777607D01*
X12129686Y-22787131D02*
X12110639Y-22777607D01*
X12110639Y-22777607D02*
X12101115Y-22758560D01*
X12101115Y-22758560D02*
X12101115Y-22587131D01*
X12291591Y-22787131D02*
X12291591Y-22682369D01*
X12291591Y-22682369D02*
X12282067Y-22663321D01*
X12282067Y-22663321D02*
X12263020Y-22653798D01*
X12263020Y-22653798D02*
X12224924Y-22653798D01*
X12224924Y-22653798D02*
X12205877Y-22663321D01*
X12291591Y-22777607D02*
X12272544Y-22787131D01*
X12272544Y-22787131D02*
X12224924Y-22787131D01*
X12224924Y-22787131D02*
X12205877Y-22777607D01*
X12205877Y-22777607D02*
X12196353Y-22758560D01*
X12196353Y-22758560D02*
X12196353Y-22739512D01*
X12196353Y-22739512D02*
X12205877Y-22720464D01*
X12205877Y-22720464D02*
X12224924Y-22710941D01*
X12224924Y-22710941D02*
X12272544Y-22710941D01*
X12272544Y-22710941D02*
X12291591Y-22701417D01*
X12358258Y-22653798D02*
X12434448Y-22653798D01*
X12386829Y-22587131D02*
X12386829Y-22758560D01*
X12386829Y-22758560D02*
X12396353Y-22777607D01*
X12396353Y-22777607D02*
X12415401Y-22787131D01*
X12415401Y-22787131D02*
X12434448Y-22787131D01*
X12577305Y-22777607D02*
X12558258Y-22787131D01*
X12558258Y-22787131D02*
X12520163Y-22787131D01*
X12520163Y-22787131D02*
X12501115Y-22777607D01*
X12501115Y-22777607D02*
X12491591Y-22758560D01*
X12491591Y-22758560D02*
X12491591Y-22682369D01*
X12491591Y-22682369D02*
X12501115Y-22663321D01*
X12501115Y-22663321D02*
X12520163Y-22653798D01*
X12520163Y-22653798D02*
X12558258Y-22653798D01*
X12558258Y-22653798D02*
X12577305Y-22663321D01*
X12577305Y-22663321D02*
X12586829Y-22682369D01*
X12586829Y-22682369D02*
X12586829Y-22701417D01*
X12586829Y-22701417D02*
X12491591Y-22720464D01*
X12758258Y-22787131D02*
X12758258Y-22587131D01*
X12758258Y-22777607D02*
X12739210Y-22787131D01*
X12739210Y-22787131D02*
X12701115Y-22787131D01*
X12701115Y-22787131D02*
X12682067Y-22777607D01*
X12682067Y-22777607D02*
X12672544Y-22768083D01*
X12672544Y-22768083D02*
X12663020Y-22749036D01*
X12663020Y-22749036D02*
X12663020Y-22691893D01*
X12663020Y-22691893D02*
X12672544Y-22672845D01*
X12672544Y-22672845D02*
X12682067Y-22663321D01*
X12682067Y-22663321D02*
X12701115Y-22653798D01*
X12701115Y-22653798D02*
X12739210Y-22653798D01*
X12739210Y-22653798D02*
X12758258Y-22663321D01*
X12834448Y-22863321D02*
X12843972Y-22853798D01*
X12843972Y-22853798D02*
X12863020Y-22825226D01*
X12863020Y-22825226D02*
X12872544Y-22806179D01*
X12872544Y-22806179D02*
X12882067Y-22777607D01*
X12882067Y-22777607D02*
X12891591Y-22729988D01*
X12891591Y-22729988D02*
X12891591Y-22691893D01*
X12891591Y-22691893D02*
X12882067Y-22644274D01*
X12882067Y-22644274D02*
X12872544Y-22615702D01*
X12872544Y-22615702D02*
X12863020Y-22596655D01*
X12863020Y-22596655D02*
X12843972Y-22568083D01*
X12843972Y-22568083D02*
X12834448Y-22558560D01*
D14*
X5802867Y-22874557D02*
X5802867Y-23044737D01*
X5717777Y-22959647D02*
X5887957Y-22959647D01*
D11*
X6253495Y-23051131D02*
X6139210Y-23051131D01*
X6196352Y-23051131D02*
X6196352Y-22851131D01*
X6196352Y-22851131D02*
X6177305Y-22879702D01*
X6177305Y-22879702D02*
X6158257Y-22898750D01*
X6158257Y-22898750D02*
X6139210Y-22908274D01*
X6339210Y-23032083D02*
X6348733Y-23041607D01*
X6348733Y-23041607D02*
X6339210Y-23051131D01*
X6339210Y-23051131D02*
X6329686Y-23041607D01*
X6329686Y-23041607D02*
X6339210Y-23032083D01*
X6339210Y-23032083D02*
X6339210Y-23051131D01*
X6415400Y-22851131D02*
X6548733Y-22851131D01*
X6548733Y-22851131D02*
X6463019Y-23051131D01*
X6663019Y-22851131D02*
X6682067Y-22851131D01*
X6682067Y-22851131D02*
X6701114Y-22860655D01*
X6701114Y-22860655D02*
X6710638Y-22870179D01*
X6710638Y-22870179D02*
X6720162Y-22889226D01*
X6720162Y-22889226D02*
X6729686Y-22927321D01*
X6729686Y-22927321D02*
X6729686Y-22974941D01*
X6729686Y-22974941D02*
X6720162Y-23013036D01*
X6720162Y-23013036D02*
X6710638Y-23032083D01*
X6710638Y-23032083D02*
X6701114Y-23041607D01*
X6701114Y-23041607D02*
X6682067Y-23051131D01*
X6682067Y-23051131D02*
X6663019Y-23051131D01*
X6663019Y-23051131D02*
X6643972Y-23041607D01*
X6643972Y-23041607D02*
X6634448Y-23032083D01*
X6634448Y-23032083D02*
X6624924Y-23013036D01*
X6624924Y-23013036D02*
X6615400Y-22974941D01*
X6615400Y-22974941D02*
X6615400Y-22927321D01*
X6615400Y-22927321D02*
X6624924Y-22889226D01*
X6624924Y-22889226D02*
X6634448Y-22870179D01*
X6634448Y-22870179D02*
X6643972Y-22860655D01*
X6643972Y-22860655D02*
X6663019Y-22851131D01*
X6805876Y-22870179D02*
X6815400Y-22860655D01*
X6815400Y-22860655D02*
X6834448Y-22851131D01*
X6834448Y-22851131D02*
X6882067Y-22851131D01*
X6882067Y-22851131D02*
X6901114Y-22860655D01*
X6901114Y-22860655D02*
X6910638Y-22870179D01*
X6910638Y-22870179D02*
X6920162Y-22889226D01*
X6920162Y-22889226D02*
X6920162Y-22908274D01*
X6920162Y-22908274D02*
X6910638Y-22936845D01*
X6910638Y-22936845D02*
X6796353Y-23051131D01*
X6796353Y-23051131D02*
X6920162Y-23051131D01*
X7005876Y-23051131D02*
X7005876Y-22917798D01*
X7005876Y-22936845D02*
X7015400Y-22927321D01*
X7015400Y-22927321D02*
X7034448Y-22917798D01*
X7034448Y-22917798D02*
X7063019Y-22917798D01*
X7063019Y-22917798D02*
X7082067Y-22927321D01*
X7082067Y-22927321D02*
X7091591Y-22946369D01*
X7091591Y-22946369D02*
X7091591Y-23051131D01*
X7091591Y-22946369D02*
X7101114Y-22927321D01*
X7101114Y-22927321D02*
X7120162Y-22917798D01*
X7120162Y-22917798D02*
X7148733Y-22917798D01*
X7148733Y-22917798D02*
X7167781Y-22927321D01*
X7167781Y-22927321D02*
X7177305Y-22946369D01*
X7177305Y-22946369D02*
X7177305Y-23051131D01*
X7272543Y-23051131D02*
X7272543Y-22917798D01*
X7272543Y-22936845D02*
X7282067Y-22927321D01*
X7282067Y-22927321D02*
X7301114Y-22917798D01*
X7301114Y-22917798D02*
X7329686Y-22917798D01*
X7329686Y-22917798D02*
X7348734Y-22927321D01*
X7348734Y-22927321D02*
X7358257Y-22946369D01*
X7358257Y-22946369D02*
X7358257Y-23051131D01*
X7358257Y-22946369D02*
X7367781Y-22927321D01*
X7367781Y-22927321D02*
X7386829Y-22917798D01*
X7386829Y-22917798D02*
X7415400Y-22917798D01*
X7415400Y-22917798D02*
X7434448Y-22927321D01*
X7434448Y-22927321D02*
X7443972Y-22946369D01*
X7443972Y-22946369D02*
X7443972Y-23051131D01*
X7834448Y-22841607D02*
X7663019Y-23098750D01*
X8091591Y-22851131D02*
X8110638Y-22851131D01*
X8110638Y-22851131D02*
X8129686Y-22860655D01*
X8129686Y-22860655D02*
X8139210Y-22870179D01*
X8139210Y-22870179D02*
X8148734Y-22889226D01*
X8148734Y-22889226D02*
X8158257Y-22927321D01*
X8158257Y-22927321D02*
X8158257Y-22974941D01*
X8158257Y-22974941D02*
X8148734Y-23013036D01*
X8148734Y-23013036D02*
X8139210Y-23032083D01*
X8139210Y-23032083D02*
X8129686Y-23041607D01*
X8129686Y-23041607D02*
X8110638Y-23051131D01*
X8110638Y-23051131D02*
X8091591Y-23051131D01*
X8091591Y-23051131D02*
X8072543Y-23041607D01*
X8072543Y-23041607D02*
X8063019Y-23032083D01*
X8063019Y-23032083D02*
X8053496Y-23013036D01*
X8053496Y-23013036D02*
X8043972Y-22974941D01*
X8043972Y-22974941D02*
X8043972Y-22927321D01*
X8043972Y-22927321D02*
X8053496Y-22889226D01*
X8053496Y-22889226D02*
X8063019Y-22870179D01*
X8063019Y-22870179D02*
X8072543Y-22860655D01*
X8072543Y-22860655D02*
X8091591Y-22851131D01*
X8243972Y-23032083D02*
X8253496Y-23041607D01*
X8253496Y-23041607D02*
X8243972Y-23051131D01*
X8243972Y-23051131D02*
X8234448Y-23041607D01*
X8234448Y-23041607D02*
X8243972Y-23032083D01*
X8243972Y-23032083D02*
X8243972Y-23051131D01*
X8377305Y-22851131D02*
X8396353Y-22851131D01*
X8396353Y-22851131D02*
X8415400Y-22860655D01*
X8415400Y-22860655D02*
X8424924Y-22870179D01*
X8424924Y-22870179D02*
X8434448Y-22889226D01*
X8434448Y-22889226D02*
X8443972Y-22927321D01*
X8443972Y-22927321D02*
X8443972Y-22974941D01*
X8443972Y-22974941D02*
X8434448Y-23013036D01*
X8434448Y-23013036D02*
X8424924Y-23032083D01*
X8424924Y-23032083D02*
X8415400Y-23041607D01*
X8415400Y-23041607D02*
X8396353Y-23051131D01*
X8396353Y-23051131D02*
X8377305Y-23051131D01*
X8377305Y-23051131D02*
X8358257Y-23041607D01*
X8358257Y-23041607D02*
X8348734Y-23032083D01*
X8348734Y-23032083D02*
X8339210Y-23013036D01*
X8339210Y-23013036D02*
X8329686Y-22974941D01*
X8329686Y-22974941D02*
X8329686Y-22927321D01*
X8329686Y-22927321D02*
X8339210Y-22889226D01*
X8339210Y-22889226D02*
X8348734Y-22870179D01*
X8348734Y-22870179D02*
X8358257Y-22860655D01*
X8358257Y-22860655D02*
X8377305Y-22851131D01*
X8615400Y-22851131D02*
X8577305Y-22851131D01*
X8577305Y-22851131D02*
X8558258Y-22860655D01*
X8558258Y-22860655D02*
X8548734Y-22870179D01*
X8548734Y-22870179D02*
X8529686Y-22898750D01*
X8529686Y-22898750D02*
X8520162Y-22936845D01*
X8520162Y-22936845D02*
X8520162Y-23013036D01*
X8520162Y-23013036D02*
X8529686Y-23032083D01*
X8529686Y-23032083D02*
X8539210Y-23041607D01*
X8539210Y-23041607D02*
X8558258Y-23051131D01*
X8558258Y-23051131D02*
X8596353Y-23051131D01*
X8596353Y-23051131D02*
X8615400Y-23041607D01*
X8615400Y-23041607D02*
X8624924Y-23032083D01*
X8624924Y-23032083D02*
X8634448Y-23013036D01*
X8634448Y-23013036D02*
X8634448Y-22965417D01*
X8634448Y-22965417D02*
X8624924Y-22946369D01*
X8624924Y-22946369D02*
X8615400Y-22936845D01*
X8615400Y-22936845D02*
X8596353Y-22927321D01*
X8596353Y-22927321D02*
X8558258Y-22927321D01*
X8558258Y-22927321D02*
X8539210Y-22936845D01*
X8539210Y-22936845D02*
X8529686Y-22946369D01*
X8529686Y-22946369D02*
X8520162Y-22965417D01*
X8701115Y-22851131D02*
X8834448Y-22851131D01*
X8834448Y-22851131D02*
X8748734Y-23051131D01*
X8948734Y-22851131D02*
X8967781Y-22851131D01*
X8967781Y-22851131D02*
X8986829Y-22860655D01*
X8986829Y-22860655D02*
X8996353Y-22870179D01*
X8996353Y-22870179D02*
X9005877Y-22889226D01*
X9005877Y-22889226D02*
X9015400Y-22927321D01*
X9015400Y-22927321D02*
X9015400Y-22974941D01*
X9015400Y-22974941D02*
X9005877Y-23013036D01*
X9005877Y-23013036D02*
X8996353Y-23032083D01*
X8996353Y-23032083D02*
X8986829Y-23041607D01*
X8986829Y-23041607D02*
X8967781Y-23051131D01*
X8967781Y-23051131D02*
X8948734Y-23051131D01*
X8948734Y-23051131D02*
X8929686Y-23041607D01*
X8929686Y-23041607D02*
X8920162Y-23032083D01*
X8920162Y-23032083D02*
X8910639Y-23013036D01*
X8910639Y-23013036D02*
X8901115Y-22974941D01*
X8901115Y-22974941D02*
X8901115Y-22927321D01*
X8901115Y-22927321D02*
X8910639Y-22889226D01*
X8910639Y-22889226D02*
X8920162Y-22870179D01*
X8920162Y-22870179D02*
X8929686Y-22860655D01*
X8929686Y-22860655D02*
X8948734Y-22851131D01*
X9091591Y-22851131D02*
X9091591Y-22889226D01*
X9167781Y-22851131D02*
X9167781Y-22889226D01*
X9463020Y-23127321D02*
X9453496Y-23117798D01*
X9453496Y-23117798D02*
X9434448Y-23089226D01*
X9434448Y-23089226D02*
X9424924Y-23070179D01*
X9424924Y-23070179D02*
X9415401Y-23041607D01*
X9415401Y-23041607D02*
X9405877Y-22993988D01*
X9405877Y-22993988D02*
X9405877Y-22955893D01*
X9405877Y-22955893D02*
X9415401Y-22908274D01*
X9415401Y-22908274D02*
X9424924Y-22879702D01*
X9424924Y-22879702D02*
X9434448Y-22860655D01*
X9434448Y-22860655D02*
X9453496Y-22832083D01*
X9453496Y-22832083D02*
X9463020Y-22822560D01*
X9643972Y-23051131D02*
X9529686Y-23051131D01*
X9586829Y-23051131D02*
X9586829Y-22851131D01*
X9586829Y-22851131D02*
X9567781Y-22879702D01*
X9567781Y-22879702D02*
X9548734Y-22898750D01*
X9548734Y-22898750D02*
X9529686Y-22908274D01*
X9815401Y-22851131D02*
X9777305Y-22851131D01*
X9777305Y-22851131D02*
X9758258Y-22860655D01*
X9758258Y-22860655D02*
X9748734Y-22870179D01*
X9748734Y-22870179D02*
X9729686Y-22898750D01*
X9729686Y-22898750D02*
X9720162Y-22936845D01*
X9720162Y-22936845D02*
X9720162Y-23013036D01*
X9720162Y-23013036D02*
X9729686Y-23032083D01*
X9729686Y-23032083D02*
X9739210Y-23041607D01*
X9739210Y-23041607D02*
X9758258Y-23051131D01*
X9758258Y-23051131D02*
X9796353Y-23051131D01*
X9796353Y-23051131D02*
X9815401Y-23041607D01*
X9815401Y-23041607D02*
X9824924Y-23032083D01*
X9824924Y-23032083D02*
X9834448Y-23013036D01*
X9834448Y-23013036D02*
X9834448Y-22965417D01*
X9834448Y-22965417D02*
X9824924Y-22946369D01*
X9824924Y-22946369D02*
X9815401Y-22936845D01*
X9815401Y-22936845D02*
X9796353Y-22927321D01*
X9796353Y-22927321D02*
X9758258Y-22927321D01*
X9758258Y-22927321D02*
X9739210Y-22936845D01*
X9739210Y-22936845D02*
X9729686Y-22946369D01*
X9729686Y-22946369D02*
X9720162Y-22965417D01*
X9958258Y-22851131D02*
X9977305Y-22851131D01*
X9977305Y-22851131D02*
X9996353Y-22860655D01*
X9996353Y-22860655D02*
X10005877Y-22870179D01*
X10005877Y-22870179D02*
X10015401Y-22889226D01*
X10015401Y-22889226D02*
X10024924Y-22927321D01*
X10024924Y-22927321D02*
X10024924Y-22974941D01*
X10024924Y-22974941D02*
X10015401Y-23013036D01*
X10015401Y-23013036D02*
X10005877Y-23032083D01*
X10005877Y-23032083D02*
X9996353Y-23041607D01*
X9996353Y-23041607D02*
X9977305Y-23051131D01*
X9977305Y-23051131D02*
X9958258Y-23051131D01*
X9958258Y-23051131D02*
X9939210Y-23041607D01*
X9939210Y-23041607D02*
X9929686Y-23032083D01*
X9929686Y-23032083D02*
X9920162Y-23013036D01*
X9920162Y-23013036D02*
X9910639Y-22974941D01*
X9910639Y-22974941D02*
X9910639Y-22927321D01*
X9910639Y-22927321D02*
X9920162Y-22889226D01*
X9920162Y-22889226D02*
X9929686Y-22870179D01*
X9929686Y-22870179D02*
X9939210Y-22860655D01*
X9939210Y-22860655D02*
X9958258Y-22851131D01*
X10263020Y-23051131D02*
X10263020Y-22851131D01*
X10348734Y-23051131D02*
X10348734Y-22946369D01*
X10348734Y-22946369D02*
X10339210Y-22927321D01*
X10339210Y-22927321D02*
X10320163Y-22917798D01*
X10320163Y-22917798D02*
X10291591Y-22917798D01*
X10291591Y-22917798D02*
X10272543Y-22927321D01*
X10272543Y-22927321D02*
X10263020Y-22936845D01*
X10472543Y-23051131D02*
X10453496Y-23041607D01*
X10453496Y-23041607D02*
X10443972Y-23032083D01*
X10443972Y-23032083D02*
X10434448Y-23013036D01*
X10434448Y-23013036D02*
X10434448Y-22955893D01*
X10434448Y-22955893D02*
X10443972Y-22936845D01*
X10443972Y-22936845D02*
X10453496Y-22927321D01*
X10453496Y-22927321D02*
X10472543Y-22917798D01*
X10472543Y-22917798D02*
X10501115Y-22917798D01*
X10501115Y-22917798D02*
X10520163Y-22927321D01*
X10520163Y-22927321D02*
X10529686Y-22936845D01*
X10529686Y-22936845D02*
X10539210Y-22955893D01*
X10539210Y-22955893D02*
X10539210Y-23013036D01*
X10539210Y-23013036D02*
X10529686Y-23032083D01*
X10529686Y-23032083D02*
X10520163Y-23041607D01*
X10520163Y-23041607D02*
X10501115Y-23051131D01*
X10501115Y-23051131D02*
X10472543Y-23051131D01*
X10653496Y-23051131D02*
X10634448Y-23041607D01*
X10634448Y-23041607D02*
X10624924Y-23022560D01*
X10624924Y-23022560D02*
X10624924Y-22851131D01*
X10805877Y-23041607D02*
X10786829Y-23051131D01*
X10786829Y-23051131D02*
X10748734Y-23051131D01*
X10748734Y-23051131D02*
X10729686Y-23041607D01*
X10729686Y-23041607D02*
X10720163Y-23022560D01*
X10720163Y-23022560D02*
X10720163Y-22946369D01*
X10720163Y-22946369D02*
X10729686Y-22927321D01*
X10729686Y-22927321D02*
X10748734Y-22917798D01*
X10748734Y-22917798D02*
X10786829Y-22917798D01*
X10786829Y-22917798D02*
X10805877Y-22927321D01*
X10805877Y-22927321D02*
X10815401Y-22946369D01*
X10815401Y-22946369D02*
X10815401Y-22965417D01*
X10815401Y-22965417D02*
X10720163Y-22984464D01*
X10891591Y-23041607D02*
X10910639Y-23051131D01*
X10910639Y-23051131D02*
X10948734Y-23051131D01*
X10948734Y-23051131D02*
X10967782Y-23041607D01*
X10967782Y-23041607D02*
X10977305Y-23022560D01*
X10977305Y-23022560D02*
X10977305Y-23013036D01*
X10977305Y-23013036D02*
X10967782Y-22993988D01*
X10967782Y-22993988D02*
X10948734Y-22984464D01*
X10948734Y-22984464D02*
X10920163Y-22984464D01*
X10920163Y-22984464D02*
X10901115Y-22974941D01*
X10901115Y-22974941D02*
X10891591Y-22955893D01*
X10891591Y-22955893D02*
X10891591Y-22946369D01*
X10891591Y-22946369D02*
X10901115Y-22927321D01*
X10901115Y-22927321D02*
X10920163Y-22917798D01*
X10920163Y-22917798D02*
X10948734Y-22917798D01*
X10948734Y-22917798D02*
X10967782Y-22927321D01*
X11043972Y-23127321D02*
X11053496Y-23117798D01*
X11053496Y-23117798D02*
X11072544Y-23089226D01*
X11072544Y-23089226D02*
X11082067Y-23070179D01*
X11082067Y-23070179D02*
X11091591Y-23041607D01*
X11091591Y-23041607D02*
X11101115Y-22993988D01*
X11101115Y-22993988D02*
X11101115Y-22955893D01*
X11101115Y-22955893D02*
X11091591Y-22908274D01*
X11091591Y-22908274D02*
X11082067Y-22879702D01*
X11082067Y-22879702D02*
X11072544Y-22860655D01*
X11072544Y-22860655D02*
X11053496Y-22832083D01*
X11053496Y-22832083D02*
X11043972Y-22822560D01*
X11405877Y-23127321D02*
X11396353Y-23117798D01*
X11396353Y-23117798D02*
X11377305Y-23089226D01*
X11377305Y-23089226D02*
X11367782Y-23070179D01*
X11367782Y-23070179D02*
X11358258Y-23041607D01*
X11358258Y-23041607D02*
X11348734Y-22993988D01*
X11348734Y-22993988D02*
X11348734Y-22955893D01*
X11348734Y-22955893D02*
X11358258Y-22908274D01*
X11358258Y-22908274D02*
X11367782Y-22879702D01*
X11367782Y-22879702D02*
X11377305Y-22860655D01*
X11377305Y-22860655D02*
X11396353Y-22832083D01*
X11396353Y-22832083D02*
X11405877Y-22822560D01*
X11482067Y-22917798D02*
X11482067Y-23051131D01*
X11482067Y-22936845D02*
X11491591Y-22927321D01*
X11491591Y-22927321D02*
X11510639Y-22917798D01*
X11510639Y-22917798D02*
X11539210Y-22917798D01*
X11539210Y-22917798D02*
X11558258Y-22927321D01*
X11558258Y-22927321D02*
X11567782Y-22946369D01*
X11567782Y-22946369D02*
X11567782Y-23051131D01*
X11691591Y-23051131D02*
X11672543Y-23041607D01*
X11672543Y-23041607D02*
X11663020Y-23032083D01*
X11663020Y-23032083D02*
X11653496Y-23013036D01*
X11653496Y-23013036D02*
X11653496Y-22955893D01*
X11653496Y-22955893D02*
X11663020Y-22936845D01*
X11663020Y-22936845D02*
X11672543Y-22927321D01*
X11672543Y-22927321D02*
X11691591Y-22917798D01*
X11691591Y-22917798D02*
X11720163Y-22917798D01*
X11720163Y-22917798D02*
X11739210Y-22927321D01*
X11739210Y-22927321D02*
X11748734Y-22936845D01*
X11748734Y-22936845D02*
X11758258Y-22955893D01*
X11758258Y-22955893D02*
X11758258Y-23013036D01*
X11758258Y-23013036D02*
X11748734Y-23032083D01*
X11748734Y-23032083D02*
X11739210Y-23041607D01*
X11739210Y-23041607D02*
X11720163Y-23051131D01*
X11720163Y-23051131D02*
X11691591Y-23051131D01*
X11815401Y-22917798D02*
X11891591Y-22917798D01*
X11843972Y-22851131D02*
X11843972Y-23022560D01*
X11843972Y-23022560D02*
X11853496Y-23041607D01*
X11853496Y-23041607D02*
X11872543Y-23051131D01*
X11872543Y-23051131D02*
X11891591Y-23051131D01*
X12110639Y-22917798D02*
X12110639Y-23117798D01*
X12110639Y-22927321D02*
X12129686Y-22917798D01*
X12129686Y-22917798D02*
X12167782Y-22917798D01*
X12167782Y-22917798D02*
X12186829Y-22927321D01*
X12186829Y-22927321D02*
X12196353Y-22936845D01*
X12196353Y-22936845D02*
X12205877Y-22955893D01*
X12205877Y-22955893D02*
X12205877Y-23013036D01*
X12205877Y-23013036D02*
X12196353Y-23032083D01*
X12196353Y-23032083D02*
X12186829Y-23041607D01*
X12186829Y-23041607D02*
X12167782Y-23051131D01*
X12167782Y-23051131D02*
X12129686Y-23051131D01*
X12129686Y-23051131D02*
X12110639Y-23041607D01*
X12320163Y-23051131D02*
X12301115Y-23041607D01*
X12301115Y-23041607D02*
X12291591Y-23022560D01*
X12291591Y-23022560D02*
X12291591Y-22851131D01*
X12482067Y-23051131D02*
X12482067Y-22946369D01*
X12482067Y-22946369D02*
X12472544Y-22927321D01*
X12472544Y-22927321D02*
X12453496Y-22917798D01*
X12453496Y-22917798D02*
X12415401Y-22917798D01*
X12415401Y-22917798D02*
X12396353Y-22927321D01*
X12482067Y-23041607D02*
X12463020Y-23051131D01*
X12463020Y-23051131D02*
X12415401Y-23051131D01*
X12415401Y-23051131D02*
X12396353Y-23041607D01*
X12396353Y-23041607D02*
X12386829Y-23022560D01*
X12386829Y-23022560D02*
X12386829Y-23003512D01*
X12386829Y-23003512D02*
X12396353Y-22984464D01*
X12396353Y-22984464D02*
X12415401Y-22974941D01*
X12415401Y-22974941D02*
X12463020Y-22974941D01*
X12463020Y-22974941D02*
X12482067Y-22965417D01*
X12548734Y-22917798D02*
X12624924Y-22917798D01*
X12577305Y-22851131D02*
X12577305Y-23022560D01*
X12577305Y-23022560D02*
X12586829Y-23041607D01*
X12586829Y-23041607D02*
X12605877Y-23051131D01*
X12605877Y-23051131D02*
X12624924Y-23051131D01*
X12767782Y-23041607D02*
X12748734Y-23051131D01*
X12748734Y-23051131D02*
X12710639Y-23051131D01*
X12710639Y-23051131D02*
X12691591Y-23041607D01*
X12691591Y-23041607D02*
X12682067Y-23022560D01*
X12682067Y-23022560D02*
X12682067Y-22946369D01*
X12682067Y-22946369D02*
X12691591Y-22927321D01*
X12691591Y-22927321D02*
X12710639Y-22917798D01*
X12710639Y-22917798D02*
X12748734Y-22917798D01*
X12748734Y-22917798D02*
X12767782Y-22927321D01*
X12767782Y-22927321D02*
X12777305Y-22946369D01*
X12777305Y-22946369D02*
X12777305Y-22965417D01*
X12777305Y-22965417D02*
X12682067Y-22984464D01*
X12948734Y-23051131D02*
X12948734Y-22851131D01*
X12948734Y-23041607D02*
X12929686Y-23051131D01*
X12929686Y-23051131D02*
X12891591Y-23051131D01*
X12891591Y-23051131D02*
X12872544Y-23041607D01*
X12872544Y-23041607D02*
X12863020Y-23032083D01*
X12863020Y-23032083D02*
X12853496Y-23013036D01*
X12853496Y-23013036D02*
X12853496Y-22955893D01*
X12853496Y-22955893D02*
X12863020Y-22936845D01*
X12863020Y-22936845D02*
X12872544Y-22927321D01*
X12872544Y-22927321D02*
X12891591Y-22917798D01*
X12891591Y-22917798D02*
X12929686Y-22917798D01*
X12929686Y-22917798D02*
X12948734Y-22927321D01*
X13024925Y-23127321D02*
X13034448Y-23117798D01*
X13034448Y-23117798D02*
X13053496Y-23089226D01*
X13053496Y-23089226D02*
X13063020Y-23070179D01*
X13063020Y-23070179D02*
X13072544Y-23041607D01*
X13072544Y-23041607D02*
X13082067Y-22993988D01*
X13082067Y-22993988D02*
X13082067Y-22955893D01*
X13082067Y-22955893D02*
X13072544Y-22908274D01*
X13072544Y-22908274D02*
X13063020Y-22879702D01*
X13063020Y-22879702D02*
X13053496Y-22860655D01*
X13053496Y-22860655D02*
X13034448Y-22832083D01*
X13034448Y-22832083D02*
X13024925Y-22822560D01*
X5858668Y-23320539D02*
X5858668Y-23179116D01*
X5717245Y-23179116D01*
X5717245Y-23320539D01*
X5858668Y-23320539D01*
X6129686Y-23141311D02*
X6253495Y-23141311D01*
X6253495Y-23141311D02*
X6186829Y-23217501D01*
X6186829Y-23217501D02*
X6215400Y-23217501D01*
X6215400Y-23217501D02*
X6234448Y-23227025D01*
X6234448Y-23227025D02*
X6243972Y-23236549D01*
X6243972Y-23236549D02*
X6253495Y-23255597D01*
X6253495Y-23255597D02*
X6253495Y-23303216D01*
X6253495Y-23303216D02*
X6243972Y-23322263D01*
X6243972Y-23322263D02*
X6234448Y-23331787D01*
X6234448Y-23331787D02*
X6215400Y-23341311D01*
X6215400Y-23341311D02*
X6158257Y-23341311D01*
X6158257Y-23341311D02*
X6139210Y-23331787D01*
X6139210Y-23331787D02*
X6129686Y-23322263D01*
X6339210Y-23322263D02*
X6348733Y-23331787D01*
X6348733Y-23331787D02*
X6339210Y-23341311D01*
X6339210Y-23341311D02*
X6329686Y-23331787D01*
X6329686Y-23331787D02*
X6339210Y-23322263D01*
X6339210Y-23322263D02*
X6339210Y-23341311D01*
X6472543Y-23141311D02*
X6491591Y-23141311D01*
X6491591Y-23141311D02*
X6510638Y-23150835D01*
X6510638Y-23150835D02*
X6520162Y-23160359D01*
X6520162Y-23160359D02*
X6529686Y-23179406D01*
X6529686Y-23179406D02*
X6539210Y-23217501D01*
X6539210Y-23217501D02*
X6539210Y-23265121D01*
X6539210Y-23265121D02*
X6529686Y-23303216D01*
X6529686Y-23303216D02*
X6520162Y-23322263D01*
X6520162Y-23322263D02*
X6510638Y-23331787D01*
X6510638Y-23331787D02*
X6491591Y-23341311D01*
X6491591Y-23341311D02*
X6472543Y-23341311D01*
X6472543Y-23341311D02*
X6453495Y-23331787D01*
X6453495Y-23331787D02*
X6443972Y-23322263D01*
X6443972Y-23322263D02*
X6434448Y-23303216D01*
X6434448Y-23303216D02*
X6424924Y-23265121D01*
X6424924Y-23265121D02*
X6424924Y-23217501D01*
X6424924Y-23217501D02*
X6434448Y-23179406D01*
X6434448Y-23179406D02*
X6443972Y-23160359D01*
X6443972Y-23160359D02*
X6453495Y-23150835D01*
X6453495Y-23150835D02*
X6472543Y-23141311D01*
X6663019Y-23141311D02*
X6682067Y-23141311D01*
X6682067Y-23141311D02*
X6701114Y-23150835D01*
X6701114Y-23150835D02*
X6710638Y-23160359D01*
X6710638Y-23160359D02*
X6720162Y-23179406D01*
X6720162Y-23179406D02*
X6729686Y-23217501D01*
X6729686Y-23217501D02*
X6729686Y-23265121D01*
X6729686Y-23265121D02*
X6720162Y-23303216D01*
X6720162Y-23303216D02*
X6710638Y-23322263D01*
X6710638Y-23322263D02*
X6701114Y-23331787D01*
X6701114Y-23331787D02*
X6682067Y-23341311D01*
X6682067Y-23341311D02*
X6663019Y-23341311D01*
X6663019Y-23341311D02*
X6643972Y-23331787D01*
X6643972Y-23331787D02*
X6634448Y-23322263D01*
X6634448Y-23322263D02*
X6624924Y-23303216D01*
X6624924Y-23303216D02*
X6615400Y-23265121D01*
X6615400Y-23265121D02*
X6615400Y-23217501D01*
X6615400Y-23217501D02*
X6624924Y-23179406D01*
X6624924Y-23179406D02*
X6634448Y-23160359D01*
X6634448Y-23160359D02*
X6643972Y-23150835D01*
X6643972Y-23150835D02*
X6663019Y-23141311D01*
X6853495Y-23141311D02*
X6872543Y-23141311D01*
X6872543Y-23141311D02*
X6891591Y-23150835D01*
X6891591Y-23150835D02*
X6901114Y-23160359D01*
X6901114Y-23160359D02*
X6910638Y-23179406D01*
X6910638Y-23179406D02*
X6920162Y-23217501D01*
X6920162Y-23217501D02*
X6920162Y-23265121D01*
X6920162Y-23265121D02*
X6910638Y-23303216D01*
X6910638Y-23303216D02*
X6901114Y-23322263D01*
X6901114Y-23322263D02*
X6891591Y-23331787D01*
X6891591Y-23331787D02*
X6872543Y-23341311D01*
X6872543Y-23341311D02*
X6853495Y-23341311D01*
X6853495Y-23341311D02*
X6834448Y-23331787D01*
X6834448Y-23331787D02*
X6824924Y-23322263D01*
X6824924Y-23322263D02*
X6815400Y-23303216D01*
X6815400Y-23303216D02*
X6805876Y-23265121D01*
X6805876Y-23265121D02*
X6805876Y-23217501D01*
X6805876Y-23217501D02*
X6815400Y-23179406D01*
X6815400Y-23179406D02*
X6824924Y-23160359D01*
X6824924Y-23160359D02*
X6834448Y-23150835D01*
X6834448Y-23150835D02*
X6853495Y-23141311D01*
X7005876Y-23341311D02*
X7005876Y-23207978D01*
X7005876Y-23227025D02*
X7015400Y-23217501D01*
X7015400Y-23217501D02*
X7034448Y-23207978D01*
X7034448Y-23207978D02*
X7063019Y-23207978D01*
X7063019Y-23207978D02*
X7082067Y-23217501D01*
X7082067Y-23217501D02*
X7091591Y-23236549D01*
X7091591Y-23236549D02*
X7091591Y-23341311D01*
X7091591Y-23236549D02*
X7101114Y-23217501D01*
X7101114Y-23217501D02*
X7120162Y-23207978D01*
X7120162Y-23207978D02*
X7148733Y-23207978D01*
X7148733Y-23207978D02*
X7167781Y-23217501D01*
X7167781Y-23217501D02*
X7177305Y-23236549D01*
X7177305Y-23236549D02*
X7177305Y-23341311D01*
X7272543Y-23341311D02*
X7272543Y-23207978D01*
X7272543Y-23227025D02*
X7282067Y-23217501D01*
X7282067Y-23217501D02*
X7301114Y-23207978D01*
X7301114Y-23207978D02*
X7329686Y-23207978D01*
X7329686Y-23207978D02*
X7348734Y-23217501D01*
X7348734Y-23217501D02*
X7358257Y-23236549D01*
X7358257Y-23236549D02*
X7358257Y-23341311D01*
X7358257Y-23236549D02*
X7367781Y-23217501D01*
X7367781Y-23217501D02*
X7386829Y-23207978D01*
X7386829Y-23207978D02*
X7415400Y-23207978D01*
X7415400Y-23207978D02*
X7434448Y-23217501D01*
X7434448Y-23217501D02*
X7443972Y-23236549D01*
X7443972Y-23236549D02*
X7443972Y-23341311D01*
X7834448Y-23131787D02*
X7663019Y-23388930D01*
X8091591Y-23141311D02*
X8110638Y-23141311D01*
X8110638Y-23141311D02*
X8129686Y-23150835D01*
X8129686Y-23150835D02*
X8139210Y-23160359D01*
X8139210Y-23160359D02*
X8148734Y-23179406D01*
X8148734Y-23179406D02*
X8158257Y-23217501D01*
X8158257Y-23217501D02*
X8158257Y-23265121D01*
X8158257Y-23265121D02*
X8148734Y-23303216D01*
X8148734Y-23303216D02*
X8139210Y-23322263D01*
X8139210Y-23322263D02*
X8129686Y-23331787D01*
X8129686Y-23331787D02*
X8110638Y-23341311D01*
X8110638Y-23341311D02*
X8091591Y-23341311D01*
X8091591Y-23341311D02*
X8072543Y-23331787D01*
X8072543Y-23331787D02*
X8063019Y-23322263D01*
X8063019Y-23322263D02*
X8053496Y-23303216D01*
X8053496Y-23303216D02*
X8043972Y-23265121D01*
X8043972Y-23265121D02*
X8043972Y-23217501D01*
X8043972Y-23217501D02*
X8053496Y-23179406D01*
X8053496Y-23179406D02*
X8063019Y-23160359D01*
X8063019Y-23160359D02*
X8072543Y-23150835D01*
X8072543Y-23150835D02*
X8091591Y-23141311D01*
X8243972Y-23322263D02*
X8253496Y-23331787D01*
X8253496Y-23331787D02*
X8243972Y-23341311D01*
X8243972Y-23341311D02*
X8234448Y-23331787D01*
X8234448Y-23331787D02*
X8243972Y-23322263D01*
X8243972Y-23322263D02*
X8243972Y-23341311D01*
X8443972Y-23341311D02*
X8329686Y-23341311D01*
X8386829Y-23341311D02*
X8386829Y-23141311D01*
X8386829Y-23141311D02*
X8367781Y-23169882D01*
X8367781Y-23169882D02*
X8348734Y-23188930D01*
X8348734Y-23188930D02*
X8329686Y-23198454D01*
X8634448Y-23341311D02*
X8520162Y-23341311D01*
X8577305Y-23341311D02*
X8577305Y-23141311D01*
X8577305Y-23141311D02*
X8558258Y-23169882D01*
X8558258Y-23169882D02*
X8539210Y-23188930D01*
X8539210Y-23188930D02*
X8520162Y-23198454D01*
X8748734Y-23227025D02*
X8729686Y-23217501D01*
X8729686Y-23217501D02*
X8720162Y-23207978D01*
X8720162Y-23207978D02*
X8710639Y-23188930D01*
X8710639Y-23188930D02*
X8710639Y-23179406D01*
X8710639Y-23179406D02*
X8720162Y-23160359D01*
X8720162Y-23160359D02*
X8729686Y-23150835D01*
X8729686Y-23150835D02*
X8748734Y-23141311D01*
X8748734Y-23141311D02*
X8786829Y-23141311D01*
X8786829Y-23141311D02*
X8805877Y-23150835D01*
X8805877Y-23150835D02*
X8815400Y-23160359D01*
X8815400Y-23160359D02*
X8824924Y-23179406D01*
X8824924Y-23179406D02*
X8824924Y-23188930D01*
X8824924Y-23188930D02*
X8815400Y-23207978D01*
X8815400Y-23207978D02*
X8805877Y-23217501D01*
X8805877Y-23217501D02*
X8786829Y-23227025D01*
X8786829Y-23227025D02*
X8748734Y-23227025D01*
X8748734Y-23227025D02*
X8729686Y-23236549D01*
X8729686Y-23236549D02*
X8720162Y-23246073D01*
X8720162Y-23246073D02*
X8710639Y-23265121D01*
X8710639Y-23265121D02*
X8710639Y-23303216D01*
X8710639Y-23303216D02*
X8720162Y-23322263D01*
X8720162Y-23322263D02*
X8729686Y-23331787D01*
X8729686Y-23331787D02*
X8748734Y-23341311D01*
X8748734Y-23341311D02*
X8786829Y-23341311D01*
X8786829Y-23341311D02*
X8805877Y-23331787D01*
X8805877Y-23331787D02*
X8815400Y-23322263D01*
X8815400Y-23322263D02*
X8824924Y-23303216D01*
X8824924Y-23303216D02*
X8824924Y-23265121D01*
X8824924Y-23265121D02*
X8815400Y-23246073D01*
X8815400Y-23246073D02*
X8805877Y-23236549D01*
X8805877Y-23236549D02*
X8786829Y-23227025D01*
X9015400Y-23341311D02*
X8901115Y-23341311D01*
X8958258Y-23341311D02*
X8958258Y-23141311D01*
X8958258Y-23141311D02*
X8939210Y-23169882D01*
X8939210Y-23169882D02*
X8920162Y-23188930D01*
X8920162Y-23188930D02*
X8901115Y-23198454D01*
X9091591Y-23141311D02*
X9091591Y-23179406D01*
X9167781Y-23141311D02*
X9167781Y-23179406D01*
X9463020Y-23417501D02*
X9453496Y-23407978D01*
X9453496Y-23407978D02*
X9434448Y-23379406D01*
X9434448Y-23379406D02*
X9424924Y-23360359D01*
X9424924Y-23360359D02*
X9415401Y-23331787D01*
X9415401Y-23331787D02*
X9405877Y-23284168D01*
X9405877Y-23284168D02*
X9405877Y-23246073D01*
X9405877Y-23246073D02*
X9415401Y-23198454D01*
X9415401Y-23198454D02*
X9424924Y-23169882D01*
X9424924Y-23169882D02*
X9434448Y-23150835D01*
X9434448Y-23150835D02*
X9453496Y-23122263D01*
X9453496Y-23122263D02*
X9463020Y-23112740D01*
X9643972Y-23341311D02*
X9529686Y-23341311D01*
X9586829Y-23341311D02*
X9586829Y-23141311D01*
X9586829Y-23141311D02*
X9567781Y-23169882D01*
X9567781Y-23169882D02*
X9548734Y-23188930D01*
X9548734Y-23188930D02*
X9529686Y-23198454D01*
X9815401Y-23141311D02*
X9777305Y-23141311D01*
X9777305Y-23141311D02*
X9758258Y-23150835D01*
X9758258Y-23150835D02*
X9748734Y-23160359D01*
X9748734Y-23160359D02*
X9729686Y-23188930D01*
X9729686Y-23188930D02*
X9720162Y-23227025D01*
X9720162Y-23227025D02*
X9720162Y-23303216D01*
X9720162Y-23303216D02*
X9729686Y-23322263D01*
X9729686Y-23322263D02*
X9739210Y-23331787D01*
X9739210Y-23331787D02*
X9758258Y-23341311D01*
X9758258Y-23341311D02*
X9796353Y-23341311D01*
X9796353Y-23341311D02*
X9815401Y-23331787D01*
X9815401Y-23331787D02*
X9824924Y-23322263D01*
X9824924Y-23322263D02*
X9834448Y-23303216D01*
X9834448Y-23303216D02*
X9834448Y-23255597D01*
X9834448Y-23255597D02*
X9824924Y-23236549D01*
X9824924Y-23236549D02*
X9815401Y-23227025D01*
X9815401Y-23227025D02*
X9796353Y-23217501D01*
X9796353Y-23217501D02*
X9758258Y-23217501D01*
X9758258Y-23217501D02*
X9739210Y-23227025D01*
X9739210Y-23227025D02*
X9729686Y-23236549D01*
X9729686Y-23236549D02*
X9720162Y-23255597D01*
X9958258Y-23141311D02*
X9977305Y-23141311D01*
X9977305Y-23141311D02*
X9996353Y-23150835D01*
X9996353Y-23150835D02*
X10005877Y-23160359D01*
X10005877Y-23160359D02*
X10015401Y-23179406D01*
X10015401Y-23179406D02*
X10024924Y-23217501D01*
X10024924Y-23217501D02*
X10024924Y-23265121D01*
X10024924Y-23265121D02*
X10015401Y-23303216D01*
X10015401Y-23303216D02*
X10005877Y-23322263D01*
X10005877Y-23322263D02*
X9996353Y-23331787D01*
X9996353Y-23331787D02*
X9977305Y-23341311D01*
X9977305Y-23341311D02*
X9958258Y-23341311D01*
X9958258Y-23341311D02*
X9939210Y-23331787D01*
X9939210Y-23331787D02*
X9929686Y-23322263D01*
X9929686Y-23322263D02*
X9920162Y-23303216D01*
X9920162Y-23303216D02*
X9910639Y-23265121D01*
X9910639Y-23265121D02*
X9910639Y-23217501D01*
X9910639Y-23217501D02*
X9920162Y-23179406D01*
X9920162Y-23179406D02*
X9929686Y-23160359D01*
X9929686Y-23160359D02*
X9939210Y-23150835D01*
X9939210Y-23150835D02*
X9958258Y-23141311D01*
X10263020Y-23341311D02*
X10263020Y-23141311D01*
X10348734Y-23341311D02*
X10348734Y-23236549D01*
X10348734Y-23236549D02*
X10339210Y-23217501D01*
X10339210Y-23217501D02*
X10320163Y-23207978D01*
X10320163Y-23207978D02*
X10291591Y-23207978D01*
X10291591Y-23207978D02*
X10272543Y-23217501D01*
X10272543Y-23217501D02*
X10263020Y-23227025D01*
X10472543Y-23341311D02*
X10453496Y-23331787D01*
X10453496Y-23331787D02*
X10443972Y-23322263D01*
X10443972Y-23322263D02*
X10434448Y-23303216D01*
X10434448Y-23303216D02*
X10434448Y-23246073D01*
X10434448Y-23246073D02*
X10443972Y-23227025D01*
X10443972Y-23227025D02*
X10453496Y-23217501D01*
X10453496Y-23217501D02*
X10472543Y-23207978D01*
X10472543Y-23207978D02*
X10501115Y-23207978D01*
X10501115Y-23207978D02*
X10520163Y-23217501D01*
X10520163Y-23217501D02*
X10529686Y-23227025D01*
X10529686Y-23227025D02*
X10539210Y-23246073D01*
X10539210Y-23246073D02*
X10539210Y-23303216D01*
X10539210Y-23303216D02*
X10529686Y-23322263D01*
X10529686Y-23322263D02*
X10520163Y-23331787D01*
X10520163Y-23331787D02*
X10501115Y-23341311D01*
X10501115Y-23341311D02*
X10472543Y-23341311D01*
X10653496Y-23341311D02*
X10634448Y-23331787D01*
X10634448Y-23331787D02*
X10624924Y-23312740D01*
X10624924Y-23312740D02*
X10624924Y-23141311D01*
X10805877Y-23331787D02*
X10786829Y-23341311D01*
X10786829Y-23341311D02*
X10748734Y-23341311D01*
X10748734Y-23341311D02*
X10729686Y-23331787D01*
X10729686Y-23331787D02*
X10720163Y-23312740D01*
X10720163Y-23312740D02*
X10720163Y-23236549D01*
X10720163Y-23236549D02*
X10729686Y-23217501D01*
X10729686Y-23217501D02*
X10748734Y-23207978D01*
X10748734Y-23207978D02*
X10786829Y-23207978D01*
X10786829Y-23207978D02*
X10805877Y-23217501D01*
X10805877Y-23217501D02*
X10815401Y-23236549D01*
X10815401Y-23236549D02*
X10815401Y-23255597D01*
X10815401Y-23255597D02*
X10720163Y-23274644D01*
X10891591Y-23331787D02*
X10910639Y-23341311D01*
X10910639Y-23341311D02*
X10948734Y-23341311D01*
X10948734Y-23341311D02*
X10967782Y-23331787D01*
X10967782Y-23331787D02*
X10977305Y-23312740D01*
X10977305Y-23312740D02*
X10977305Y-23303216D01*
X10977305Y-23303216D02*
X10967782Y-23284168D01*
X10967782Y-23284168D02*
X10948734Y-23274644D01*
X10948734Y-23274644D02*
X10920163Y-23274644D01*
X10920163Y-23274644D02*
X10901115Y-23265121D01*
X10901115Y-23265121D02*
X10891591Y-23246073D01*
X10891591Y-23246073D02*
X10891591Y-23236549D01*
X10891591Y-23236549D02*
X10901115Y-23217501D01*
X10901115Y-23217501D02*
X10920163Y-23207978D01*
X10920163Y-23207978D02*
X10948734Y-23207978D01*
X10948734Y-23207978D02*
X10967782Y-23217501D01*
X11043972Y-23417501D02*
X11053496Y-23407978D01*
X11053496Y-23407978D02*
X11072544Y-23379406D01*
X11072544Y-23379406D02*
X11082067Y-23360359D01*
X11082067Y-23360359D02*
X11091591Y-23331787D01*
X11091591Y-23331787D02*
X11101115Y-23284168D01*
X11101115Y-23284168D02*
X11101115Y-23246073D01*
X11101115Y-23246073D02*
X11091591Y-23198454D01*
X11091591Y-23198454D02*
X11082067Y-23169882D01*
X11082067Y-23169882D02*
X11072544Y-23150835D01*
X11072544Y-23150835D02*
X11053496Y-23122263D01*
X11053496Y-23122263D02*
X11043972Y-23112740D01*
X11405877Y-23417501D02*
X11396353Y-23407978D01*
X11396353Y-23407978D02*
X11377305Y-23379406D01*
X11377305Y-23379406D02*
X11367782Y-23360359D01*
X11367782Y-23360359D02*
X11358258Y-23331787D01*
X11358258Y-23331787D02*
X11348734Y-23284168D01*
X11348734Y-23284168D02*
X11348734Y-23246073D01*
X11348734Y-23246073D02*
X11358258Y-23198454D01*
X11358258Y-23198454D02*
X11367782Y-23169882D01*
X11367782Y-23169882D02*
X11377305Y-23150835D01*
X11377305Y-23150835D02*
X11396353Y-23122263D01*
X11396353Y-23122263D02*
X11405877Y-23112740D01*
X11482067Y-23207978D02*
X11482067Y-23341311D01*
X11482067Y-23227025D02*
X11491591Y-23217501D01*
X11491591Y-23217501D02*
X11510639Y-23207978D01*
X11510639Y-23207978D02*
X11539210Y-23207978D01*
X11539210Y-23207978D02*
X11558258Y-23217501D01*
X11558258Y-23217501D02*
X11567782Y-23236549D01*
X11567782Y-23236549D02*
X11567782Y-23341311D01*
X11691591Y-23341311D02*
X11672543Y-23331787D01*
X11672543Y-23331787D02*
X11663020Y-23322263D01*
X11663020Y-23322263D02*
X11653496Y-23303216D01*
X11653496Y-23303216D02*
X11653496Y-23246073D01*
X11653496Y-23246073D02*
X11663020Y-23227025D01*
X11663020Y-23227025D02*
X11672543Y-23217501D01*
X11672543Y-23217501D02*
X11691591Y-23207978D01*
X11691591Y-23207978D02*
X11720163Y-23207978D01*
X11720163Y-23207978D02*
X11739210Y-23217501D01*
X11739210Y-23217501D02*
X11748734Y-23227025D01*
X11748734Y-23227025D02*
X11758258Y-23246073D01*
X11758258Y-23246073D02*
X11758258Y-23303216D01*
X11758258Y-23303216D02*
X11748734Y-23322263D01*
X11748734Y-23322263D02*
X11739210Y-23331787D01*
X11739210Y-23331787D02*
X11720163Y-23341311D01*
X11720163Y-23341311D02*
X11691591Y-23341311D01*
X11815401Y-23207978D02*
X11891591Y-23207978D01*
X11843972Y-23141311D02*
X11843972Y-23312740D01*
X11843972Y-23312740D02*
X11853496Y-23331787D01*
X11853496Y-23331787D02*
X11872543Y-23341311D01*
X11872543Y-23341311D02*
X11891591Y-23341311D01*
X12110639Y-23207978D02*
X12110639Y-23407978D01*
X12110639Y-23217501D02*
X12129686Y-23207978D01*
X12129686Y-23207978D02*
X12167782Y-23207978D01*
X12167782Y-23207978D02*
X12186829Y-23217501D01*
X12186829Y-23217501D02*
X12196353Y-23227025D01*
X12196353Y-23227025D02*
X12205877Y-23246073D01*
X12205877Y-23246073D02*
X12205877Y-23303216D01*
X12205877Y-23303216D02*
X12196353Y-23322263D01*
X12196353Y-23322263D02*
X12186829Y-23331787D01*
X12186829Y-23331787D02*
X12167782Y-23341311D01*
X12167782Y-23341311D02*
X12129686Y-23341311D01*
X12129686Y-23341311D02*
X12110639Y-23331787D01*
X12320163Y-23341311D02*
X12301115Y-23331787D01*
X12301115Y-23331787D02*
X12291591Y-23312740D01*
X12291591Y-23312740D02*
X12291591Y-23141311D01*
X12482067Y-23341311D02*
X12482067Y-23236549D01*
X12482067Y-23236549D02*
X12472544Y-23217501D01*
X12472544Y-23217501D02*
X12453496Y-23207978D01*
X12453496Y-23207978D02*
X12415401Y-23207978D01*
X12415401Y-23207978D02*
X12396353Y-23217501D01*
X12482067Y-23331787D02*
X12463020Y-23341311D01*
X12463020Y-23341311D02*
X12415401Y-23341311D01*
X12415401Y-23341311D02*
X12396353Y-23331787D01*
X12396353Y-23331787D02*
X12386829Y-23312740D01*
X12386829Y-23312740D02*
X12386829Y-23293692D01*
X12386829Y-23293692D02*
X12396353Y-23274644D01*
X12396353Y-23274644D02*
X12415401Y-23265121D01*
X12415401Y-23265121D02*
X12463020Y-23265121D01*
X12463020Y-23265121D02*
X12482067Y-23255597D01*
X12548734Y-23207978D02*
X12624924Y-23207978D01*
X12577305Y-23141311D02*
X12577305Y-23312740D01*
X12577305Y-23312740D02*
X12586829Y-23331787D01*
X12586829Y-23331787D02*
X12605877Y-23341311D01*
X12605877Y-23341311D02*
X12624924Y-23341311D01*
X12767782Y-23331787D02*
X12748734Y-23341311D01*
X12748734Y-23341311D02*
X12710639Y-23341311D01*
X12710639Y-23341311D02*
X12691591Y-23331787D01*
X12691591Y-23331787D02*
X12682067Y-23312740D01*
X12682067Y-23312740D02*
X12682067Y-23236549D01*
X12682067Y-23236549D02*
X12691591Y-23217501D01*
X12691591Y-23217501D02*
X12710639Y-23207978D01*
X12710639Y-23207978D02*
X12748734Y-23207978D01*
X12748734Y-23207978D02*
X12767782Y-23217501D01*
X12767782Y-23217501D02*
X12777305Y-23236549D01*
X12777305Y-23236549D02*
X12777305Y-23255597D01*
X12777305Y-23255597D02*
X12682067Y-23274644D01*
X12948734Y-23341311D02*
X12948734Y-23141311D01*
X12948734Y-23331787D02*
X12929686Y-23341311D01*
X12929686Y-23341311D02*
X12891591Y-23341311D01*
X12891591Y-23341311D02*
X12872544Y-23331787D01*
X12872544Y-23331787D02*
X12863020Y-23322263D01*
X12863020Y-23322263D02*
X12853496Y-23303216D01*
X12853496Y-23303216D02*
X12853496Y-23246073D01*
X12853496Y-23246073D02*
X12863020Y-23227025D01*
X12863020Y-23227025D02*
X12872544Y-23217501D01*
X12872544Y-23217501D02*
X12891591Y-23207978D01*
X12891591Y-23207978D02*
X12929686Y-23207978D01*
X12929686Y-23207978D02*
X12948734Y-23217501D01*
X13024925Y-23417501D02*
X13034448Y-23407978D01*
X13034448Y-23407978D02*
X13053496Y-23379406D01*
X13053496Y-23379406D02*
X13063020Y-23360359D01*
X13063020Y-23360359D02*
X13072544Y-23331787D01*
X13072544Y-23331787D02*
X13082067Y-23284168D01*
X13082067Y-23284168D02*
X13082067Y-23246073D01*
X13082067Y-23246073D02*
X13072544Y-23198454D01*
X13072544Y-23198454D02*
X13063020Y-23169882D01*
X13063020Y-23169882D02*
X13053496Y-23150835D01*
X13053496Y-23150835D02*
X13034448Y-23122263D01*
X13034448Y-23122263D02*
X13024925Y-23112740D01*
X5787957Y-23669827D02*
X5887957Y-23569827D01*
X5787957Y-23469827D01*
X5687957Y-23569827D01*
X5787957Y-23669827D01*
X6129686Y-23461311D02*
X6253495Y-23461311D01*
X6253495Y-23461311D02*
X6186829Y-23537501D01*
X6186829Y-23537501D02*
X6215400Y-23537501D01*
X6215400Y-23537501D02*
X6234448Y-23547025D01*
X6234448Y-23547025D02*
X6243972Y-23556549D01*
X6243972Y-23556549D02*
X6253495Y-23575597D01*
X6253495Y-23575597D02*
X6253495Y-23623216D01*
X6253495Y-23623216D02*
X6243972Y-23642263D01*
X6243972Y-23642263D02*
X6234448Y-23651787D01*
X6234448Y-23651787D02*
X6215400Y-23661311D01*
X6215400Y-23661311D02*
X6158257Y-23661311D01*
X6158257Y-23661311D02*
X6139210Y-23651787D01*
X6139210Y-23651787D02*
X6129686Y-23642263D01*
X6339210Y-23642263D02*
X6348733Y-23651787D01*
X6348733Y-23651787D02*
X6339210Y-23661311D01*
X6339210Y-23661311D02*
X6329686Y-23651787D01*
X6329686Y-23651787D02*
X6339210Y-23642263D01*
X6339210Y-23642263D02*
X6339210Y-23661311D01*
X6424924Y-23480359D02*
X6434448Y-23470835D01*
X6434448Y-23470835D02*
X6453495Y-23461311D01*
X6453495Y-23461311D02*
X6501114Y-23461311D01*
X6501114Y-23461311D02*
X6520162Y-23470835D01*
X6520162Y-23470835D02*
X6529686Y-23480359D01*
X6529686Y-23480359D02*
X6539210Y-23499406D01*
X6539210Y-23499406D02*
X6539210Y-23518454D01*
X6539210Y-23518454D02*
X6529686Y-23547025D01*
X6529686Y-23547025D02*
X6415400Y-23661311D01*
X6415400Y-23661311D02*
X6539210Y-23661311D01*
X6663019Y-23461311D02*
X6682067Y-23461311D01*
X6682067Y-23461311D02*
X6701114Y-23470835D01*
X6701114Y-23470835D02*
X6710638Y-23480359D01*
X6710638Y-23480359D02*
X6720162Y-23499406D01*
X6720162Y-23499406D02*
X6729686Y-23537501D01*
X6729686Y-23537501D02*
X6729686Y-23585121D01*
X6729686Y-23585121D02*
X6720162Y-23623216D01*
X6720162Y-23623216D02*
X6710638Y-23642263D01*
X6710638Y-23642263D02*
X6701114Y-23651787D01*
X6701114Y-23651787D02*
X6682067Y-23661311D01*
X6682067Y-23661311D02*
X6663019Y-23661311D01*
X6663019Y-23661311D02*
X6643972Y-23651787D01*
X6643972Y-23651787D02*
X6634448Y-23642263D01*
X6634448Y-23642263D02*
X6624924Y-23623216D01*
X6624924Y-23623216D02*
X6615400Y-23585121D01*
X6615400Y-23585121D02*
X6615400Y-23537501D01*
X6615400Y-23537501D02*
X6624924Y-23499406D01*
X6624924Y-23499406D02*
X6634448Y-23480359D01*
X6634448Y-23480359D02*
X6643972Y-23470835D01*
X6643972Y-23470835D02*
X6663019Y-23461311D01*
X6853495Y-23461311D02*
X6872543Y-23461311D01*
X6872543Y-23461311D02*
X6891591Y-23470835D01*
X6891591Y-23470835D02*
X6901114Y-23480359D01*
X6901114Y-23480359D02*
X6910638Y-23499406D01*
X6910638Y-23499406D02*
X6920162Y-23537501D01*
X6920162Y-23537501D02*
X6920162Y-23585121D01*
X6920162Y-23585121D02*
X6910638Y-23623216D01*
X6910638Y-23623216D02*
X6901114Y-23642263D01*
X6901114Y-23642263D02*
X6891591Y-23651787D01*
X6891591Y-23651787D02*
X6872543Y-23661311D01*
X6872543Y-23661311D02*
X6853495Y-23661311D01*
X6853495Y-23661311D02*
X6834448Y-23651787D01*
X6834448Y-23651787D02*
X6824924Y-23642263D01*
X6824924Y-23642263D02*
X6815400Y-23623216D01*
X6815400Y-23623216D02*
X6805876Y-23585121D01*
X6805876Y-23585121D02*
X6805876Y-23537501D01*
X6805876Y-23537501D02*
X6815400Y-23499406D01*
X6815400Y-23499406D02*
X6824924Y-23480359D01*
X6824924Y-23480359D02*
X6834448Y-23470835D01*
X6834448Y-23470835D02*
X6853495Y-23461311D01*
X7005876Y-23661311D02*
X7005876Y-23527978D01*
X7005876Y-23547025D02*
X7015400Y-23537501D01*
X7015400Y-23537501D02*
X7034448Y-23527978D01*
X7034448Y-23527978D02*
X7063019Y-23527978D01*
X7063019Y-23527978D02*
X7082067Y-23537501D01*
X7082067Y-23537501D02*
X7091591Y-23556549D01*
X7091591Y-23556549D02*
X7091591Y-23661311D01*
X7091591Y-23556549D02*
X7101114Y-23537501D01*
X7101114Y-23537501D02*
X7120162Y-23527978D01*
X7120162Y-23527978D02*
X7148733Y-23527978D01*
X7148733Y-23527978D02*
X7167781Y-23537501D01*
X7167781Y-23537501D02*
X7177305Y-23556549D01*
X7177305Y-23556549D02*
X7177305Y-23661311D01*
X7272543Y-23661311D02*
X7272543Y-23527978D01*
X7272543Y-23547025D02*
X7282067Y-23537501D01*
X7282067Y-23537501D02*
X7301114Y-23527978D01*
X7301114Y-23527978D02*
X7329686Y-23527978D01*
X7329686Y-23527978D02*
X7348734Y-23537501D01*
X7348734Y-23537501D02*
X7358257Y-23556549D01*
X7358257Y-23556549D02*
X7358257Y-23661311D01*
X7358257Y-23556549D02*
X7367781Y-23537501D01*
X7367781Y-23537501D02*
X7386829Y-23527978D01*
X7386829Y-23527978D02*
X7415400Y-23527978D01*
X7415400Y-23527978D02*
X7434448Y-23537501D01*
X7434448Y-23537501D02*
X7443972Y-23556549D01*
X7443972Y-23556549D02*
X7443972Y-23661311D01*
X7834448Y-23451787D02*
X7663019Y-23708930D01*
X8091591Y-23461311D02*
X8110638Y-23461311D01*
X8110638Y-23461311D02*
X8129686Y-23470835D01*
X8129686Y-23470835D02*
X8139210Y-23480359D01*
X8139210Y-23480359D02*
X8148734Y-23499406D01*
X8148734Y-23499406D02*
X8158257Y-23537501D01*
X8158257Y-23537501D02*
X8158257Y-23585121D01*
X8158257Y-23585121D02*
X8148734Y-23623216D01*
X8148734Y-23623216D02*
X8139210Y-23642263D01*
X8139210Y-23642263D02*
X8129686Y-23651787D01*
X8129686Y-23651787D02*
X8110638Y-23661311D01*
X8110638Y-23661311D02*
X8091591Y-23661311D01*
X8091591Y-23661311D02*
X8072543Y-23651787D01*
X8072543Y-23651787D02*
X8063019Y-23642263D01*
X8063019Y-23642263D02*
X8053496Y-23623216D01*
X8053496Y-23623216D02*
X8043972Y-23585121D01*
X8043972Y-23585121D02*
X8043972Y-23537501D01*
X8043972Y-23537501D02*
X8053496Y-23499406D01*
X8053496Y-23499406D02*
X8063019Y-23480359D01*
X8063019Y-23480359D02*
X8072543Y-23470835D01*
X8072543Y-23470835D02*
X8091591Y-23461311D01*
X8243972Y-23642263D02*
X8253496Y-23651787D01*
X8253496Y-23651787D02*
X8243972Y-23661311D01*
X8243972Y-23661311D02*
X8234448Y-23651787D01*
X8234448Y-23651787D02*
X8243972Y-23642263D01*
X8243972Y-23642263D02*
X8243972Y-23661311D01*
X8443972Y-23661311D02*
X8329686Y-23661311D01*
X8386829Y-23661311D02*
X8386829Y-23461311D01*
X8386829Y-23461311D02*
X8367781Y-23489882D01*
X8367781Y-23489882D02*
X8348734Y-23508930D01*
X8348734Y-23508930D02*
X8329686Y-23518454D01*
X8520162Y-23480359D02*
X8529686Y-23470835D01*
X8529686Y-23470835D02*
X8548734Y-23461311D01*
X8548734Y-23461311D02*
X8596353Y-23461311D01*
X8596353Y-23461311D02*
X8615400Y-23470835D01*
X8615400Y-23470835D02*
X8624924Y-23480359D01*
X8624924Y-23480359D02*
X8634448Y-23499406D01*
X8634448Y-23499406D02*
X8634448Y-23518454D01*
X8634448Y-23518454D02*
X8624924Y-23547025D01*
X8624924Y-23547025D02*
X8510639Y-23661311D01*
X8510639Y-23661311D02*
X8634448Y-23661311D01*
X8805877Y-23461311D02*
X8767781Y-23461311D01*
X8767781Y-23461311D02*
X8748734Y-23470835D01*
X8748734Y-23470835D02*
X8739210Y-23480359D01*
X8739210Y-23480359D02*
X8720162Y-23508930D01*
X8720162Y-23508930D02*
X8710639Y-23547025D01*
X8710639Y-23547025D02*
X8710639Y-23623216D01*
X8710639Y-23623216D02*
X8720162Y-23642263D01*
X8720162Y-23642263D02*
X8729686Y-23651787D01*
X8729686Y-23651787D02*
X8748734Y-23661311D01*
X8748734Y-23661311D02*
X8786829Y-23661311D01*
X8786829Y-23661311D02*
X8805877Y-23651787D01*
X8805877Y-23651787D02*
X8815400Y-23642263D01*
X8815400Y-23642263D02*
X8824924Y-23623216D01*
X8824924Y-23623216D02*
X8824924Y-23575597D01*
X8824924Y-23575597D02*
X8815400Y-23556549D01*
X8815400Y-23556549D02*
X8805877Y-23547025D01*
X8805877Y-23547025D02*
X8786829Y-23537501D01*
X8786829Y-23537501D02*
X8748734Y-23537501D01*
X8748734Y-23537501D02*
X8729686Y-23547025D01*
X8729686Y-23547025D02*
X8720162Y-23556549D01*
X8720162Y-23556549D02*
X8710639Y-23575597D01*
X8948734Y-23461311D02*
X8967781Y-23461311D01*
X8967781Y-23461311D02*
X8986829Y-23470835D01*
X8986829Y-23470835D02*
X8996353Y-23480359D01*
X8996353Y-23480359D02*
X9005877Y-23499406D01*
X9005877Y-23499406D02*
X9015400Y-23537501D01*
X9015400Y-23537501D02*
X9015400Y-23585121D01*
X9015400Y-23585121D02*
X9005877Y-23623216D01*
X9005877Y-23623216D02*
X8996353Y-23642263D01*
X8996353Y-23642263D02*
X8986829Y-23651787D01*
X8986829Y-23651787D02*
X8967781Y-23661311D01*
X8967781Y-23661311D02*
X8948734Y-23661311D01*
X8948734Y-23661311D02*
X8929686Y-23651787D01*
X8929686Y-23651787D02*
X8920162Y-23642263D01*
X8920162Y-23642263D02*
X8910639Y-23623216D01*
X8910639Y-23623216D02*
X8901115Y-23585121D01*
X8901115Y-23585121D02*
X8901115Y-23537501D01*
X8901115Y-23537501D02*
X8910639Y-23499406D01*
X8910639Y-23499406D02*
X8920162Y-23480359D01*
X8920162Y-23480359D02*
X8929686Y-23470835D01*
X8929686Y-23470835D02*
X8948734Y-23461311D01*
X9091591Y-23461311D02*
X9091591Y-23499406D01*
X9167781Y-23461311D02*
X9167781Y-23499406D01*
X9463020Y-23737501D02*
X9453496Y-23727978D01*
X9453496Y-23727978D02*
X9434448Y-23699406D01*
X9434448Y-23699406D02*
X9424924Y-23680359D01*
X9424924Y-23680359D02*
X9415401Y-23651787D01*
X9415401Y-23651787D02*
X9405877Y-23604168D01*
X9405877Y-23604168D02*
X9405877Y-23566073D01*
X9405877Y-23566073D02*
X9415401Y-23518454D01*
X9415401Y-23518454D02*
X9424924Y-23489882D01*
X9424924Y-23489882D02*
X9434448Y-23470835D01*
X9434448Y-23470835D02*
X9453496Y-23442263D01*
X9453496Y-23442263D02*
X9463020Y-23432740D01*
X9643972Y-23661311D02*
X9529686Y-23661311D01*
X9586829Y-23661311D02*
X9586829Y-23461311D01*
X9586829Y-23461311D02*
X9567781Y-23489882D01*
X9567781Y-23489882D02*
X9548734Y-23508930D01*
X9548734Y-23508930D02*
X9529686Y-23518454D01*
X9720162Y-23480359D02*
X9729686Y-23470835D01*
X9729686Y-23470835D02*
X9748734Y-23461311D01*
X9748734Y-23461311D02*
X9796353Y-23461311D01*
X9796353Y-23461311D02*
X9815401Y-23470835D01*
X9815401Y-23470835D02*
X9824924Y-23480359D01*
X9824924Y-23480359D02*
X9834448Y-23499406D01*
X9834448Y-23499406D02*
X9834448Y-23518454D01*
X9834448Y-23518454D02*
X9824924Y-23547025D01*
X9824924Y-23547025D02*
X9710639Y-23661311D01*
X9710639Y-23661311D02*
X9834448Y-23661311D01*
X10072543Y-23661311D02*
X10072543Y-23461311D01*
X10158258Y-23661311D02*
X10158258Y-23556549D01*
X10158258Y-23556549D02*
X10148734Y-23537501D01*
X10148734Y-23537501D02*
X10129686Y-23527978D01*
X10129686Y-23527978D02*
X10101115Y-23527978D01*
X10101115Y-23527978D02*
X10082067Y-23537501D01*
X10082067Y-23537501D02*
X10072543Y-23547025D01*
X10282067Y-23661311D02*
X10263020Y-23651787D01*
X10263020Y-23651787D02*
X10253496Y-23642263D01*
X10253496Y-23642263D02*
X10243972Y-23623216D01*
X10243972Y-23623216D02*
X10243972Y-23566073D01*
X10243972Y-23566073D02*
X10253496Y-23547025D01*
X10253496Y-23547025D02*
X10263020Y-23537501D01*
X10263020Y-23537501D02*
X10282067Y-23527978D01*
X10282067Y-23527978D02*
X10310639Y-23527978D01*
X10310639Y-23527978D02*
X10329686Y-23537501D01*
X10329686Y-23537501D02*
X10339210Y-23547025D01*
X10339210Y-23547025D02*
X10348734Y-23566073D01*
X10348734Y-23566073D02*
X10348734Y-23623216D01*
X10348734Y-23623216D02*
X10339210Y-23642263D01*
X10339210Y-23642263D02*
X10329686Y-23651787D01*
X10329686Y-23651787D02*
X10310639Y-23661311D01*
X10310639Y-23661311D02*
X10282067Y-23661311D01*
X10463020Y-23661311D02*
X10443972Y-23651787D01*
X10443972Y-23651787D02*
X10434448Y-23632740D01*
X10434448Y-23632740D02*
X10434448Y-23461311D01*
X10615401Y-23651787D02*
X10596353Y-23661311D01*
X10596353Y-23661311D02*
X10558258Y-23661311D01*
X10558258Y-23661311D02*
X10539210Y-23651787D01*
X10539210Y-23651787D02*
X10529686Y-23632740D01*
X10529686Y-23632740D02*
X10529686Y-23556549D01*
X10529686Y-23556549D02*
X10539210Y-23537501D01*
X10539210Y-23537501D02*
X10558258Y-23527978D01*
X10558258Y-23527978D02*
X10596353Y-23527978D01*
X10596353Y-23527978D02*
X10615401Y-23537501D01*
X10615401Y-23537501D02*
X10624924Y-23556549D01*
X10624924Y-23556549D02*
X10624924Y-23575597D01*
X10624924Y-23575597D02*
X10529686Y-23594644D01*
X10701115Y-23651787D02*
X10720163Y-23661311D01*
X10720163Y-23661311D02*
X10758258Y-23661311D01*
X10758258Y-23661311D02*
X10777305Y-23651787D01*
X10777305Y-23651787D02*
X10786829Y-23632740D01*
X10786829Y-23632740D02*
X10786829Y-23623216D01*
X10786829Y-23623216D02*
X10777305Y-23604168D01*
X10777305Y-23604168D02*
X10758258Y-23594644D01*
X10758258Y-23594644D02*
X10729686Y-23594644D01*
X10729686Y-23594644D02*
X10710639Y-23585121D01*
X10710639Y-23585121D02*
X10701115Y-23566073D01*
X10701115Y-23566073D02*
X10701115Y-23556549D01*
X10701115Y-23556549D02*
X10710639Y-23537501D01*
X10710639Y-23537501D02*
X10729686Y-23527978D01*
X10729686Y-23527978D02*
X10758258Y-23527978D01*
X10758258Y-23527978D02*
X10777305Y-23537501D01*
X10853496Y-23737501D02*
X10863020Y-23727978D01*
X10863020Y-23727978D02*
X10882067Y-23699406D01*
X10882067Y-23699406D02*
X10891591Y-23680359D01*
X10891591Y-23680359D02*
X10901115Y-23651787D01*
X10901115Y-23651787D02*
X10910639Y-23604168D01*
X10910639Y-23604168D02*
X10910639Y-23566073D01*
X10910639Y-23566073D02*
X10901115Y-23518454D01*
X10901115Y-23518454D02*
X10891591Y-23489882D01*
X10891591Y-23489882D02*
X10882067Y-23470835D01*
X10882067Y-23470835D02*
X10863020Y-23442263D01*
X10863020Y-23442263D02*
X10853496Y-23432740D01*
X11215401Y-23737501D02*
X11205877Y-23727978D01*
X11205877Y-23727978D02*
X11186829Y-23699406D01*
X11186829Y-23699406D02*
X11177305Y-23680359D01*
X11177305Y-23680359D02*
X11167782Y-23651787D01*
X11167782Y-23651787D02*
X11158258Y-23604168D01*
X11158258Y-23604168D02*
X11158258Y-23566073D01*
X11158258Y-23566073D02*
X11167782Y-23518454D01*
X11167782Y-23518454D02*
X11177305Y-23489882D01*
X11177305Y-23489882D02*
X11186829Y-23470835D01*
X11186829Y-23470835D02*
X11205877Y-23442263D01*
X11205877Y-23442263D02*
X11215401Y-23432740D01*
X11291591Y-23527978D02*
X11291591Y-23661311D01*
X11291591Y-23547025D02*
X11301115Y-23537501D01*
X11301115Y-23537501D02*
X11320162Y-23527978D01*
X11320162Y-23527978D02*
X11348734Y-23527978D01*
X11348734Y-23527978D02*
X11367782Y-23537501D01*
X11367782Y-23537501D02*
X11377305Y-23556549D01*
X11377305Y-23556549D02*
X11377305Y-23661311D01*
X11501115Y-23661311D02*
X11482067Y-23651787D01*
X11482067Y-23651787D02*
X11472543Y-23642263D01*
X11472543Y-23642263D02*
X11463020Y-23623216D01*
X11463020Y-23623216D02*
X11463020Y-23566073D01*
X11463020Y-23566073D02*
X11472543Y-23547025D01*
X11472543Y-23547025D02*
X11482067Y-23537501D01*
X11482067Y-23537501D02*
X11501115Y-23527978D01*
X11501115Y-23527978D02*
X11529686Y-23527978D01*
X11529686Y-23527978D02*
X11548734Y-23537501D01*
X11548734Y-23537501D02*
X11558258Y-23547025D01*
X11558258Y-23547025D02*
X11567782Y-23566073D01*
X11567782Y-23566073D02*
X11567782Y-23623216D01*
X11567782Y-23623216D02*
X11558258Y-23642263D01*
X11558258Y-23642263D02*
X11548734Y-23651787D01*
X11548734Y-23651787D02*
X11529686Y-23661311D01*
X11529686Y-23661311D02*
X11501115Y-23661311D01*
X11624924Y-23527978D02*
X11701115Y-23527978D01*
X11653496Y-23461311D02*
X11653496Y-23632740D01*
X11653496Y-23632740D02*
X11663020Y-23651787D01*
X11663020Y-23651787D02*
X11682067Y-23661311D01*
X11682067Y-23661311D02*
X11701115Y-23661311D01*
X11920163Y-23527978D02*
X11920163Y-23727978D01*
X11920163Y-23537501D02*
X11939210Y-23527978D01*
X11939210Y-23527978D02*
X11977305Y-23527978D01*
X11977305Y-23527978D02*
X11996353Y-23537501D01*
X11996353Y-23537501D02*
X12005877Y-23547025D01*
X12005877Y-23547025D02*
X12015401Y-23566073D01*
X12015401Y-23566073D02*
X12015401Y-23623216D01*
X12015401Y-23623216D02*
X12005877Y-23642263D01*
X12005877Y-23642263D02*
X11996353Y-23651787D01*
X11996353Y-23651787D02*
X11977305Y-23661311D01*
X11977305Y-23661311D02*
X11939210Y-23661311D01*
X11939210Y-23661311D02*
X11920163Y-23651787D01*
X12129686Y-23661311D02*
X12110639Y-23651787D01*
X12110639Y-23651787D02*
X12101115Y-23632740D01*
X12101115Y-23632740D02*
X12101115Y-23461311D01*
X12291591Y-23661311D02*
X12291591Y-23556549D01*
X12291591Y-23556549D02*
X12282067Y-23537501D01*
X12282067Y-23537501D02*
X12263020Y-23527978D01*
X12263020Y-23527978D02*
X12224924Y-23527978D01*
X12224924Y-23527978D02*
X12205877Y-23537501D01*
X12291591Y-23651787D02*
X12272544Y-23661311D01*
X12272544Y-23661311D02*
X12224924Y-23661311D01*
X12224924Y-23661311D02*
X12205877Y-23651787D01*
X12205877Y-23651787D02*
X12196353Y-23632740D01*
X12196353Y-23632740D02*
X12196353Y-23613692D01*
X12196353Y-23613692D02*
X12205877Y-23594644D01*
X12205877Y-23594644D02*
X12224924Y-23585121D01*
X12224924Y-23585121D02*
X12272544Y-23585121D01*
X12272544Y-23585121D02*
X12291591Y-23575597D01*
X12358258Y-23527978D02*
X12434448Y-23527978D01*
X12386829Y-23461311D02*
X12386829Y-23632740D01*
X12386829Y-23632740D02*
X12396353Y-23651787D01*
X12396353Y-23651787D02*
X12415401Y-23661311D01*
X12415401Y-23661311D02*
X12434448Y-23661311D01*
X12577305Y-23651787D02*
X12558258Y-23661311D01*
X12558258Y-23661311D02*
X12520163Y-23661311D01*
X12520163Y-23661311D02*
X12501115Y-23651787D01*
X12501115Y-23651787D02*
X12491591Y-23632740D01*
X12491591Y-23632740D02*
X12491591Y-23556549D01*
X12491591Y-23556549D02*
X12501115Y-23537501D01*
X12501115Y-23537501D02*
X12520163Y-23527978D01*
X12520163Y-23527978D02*
X12558258Y-23527978D01*
X12558258Y-23527978D02*
X12577305Y-23537501D01*
X12577305Y-23537501D02*
X12586829Y-23556549D01*
X12586829Y-23556549D02*
X12586829Y-23575597D01*
X12586829Y-23575597D02*
X12491591Y-23594644D01*
X12758258Y-23661311D02*
X12758258Y-23461311D01*
X12758258Y-23651787D02*
X12739210Y-23661311D01*
X12739210Y-23661311D02*
X12701115Y-23661311D01*
X12701115Y-23661311D02*
X12682067Y-23651787D01*
X12682067Y-23651787D02*
X12672544Y-23642263D01*
X12672544Y-23642263D02*
X12663020Y-23623216D01*
X12663020Y-23623216D02*
X12663020Y-23566073D01*
X12663020Y-23566073D02*
X12672544Y-23547025D01*
X12672544Y-23547025D02*
X12682067Y-23537501D01*
X12682067Y-23537501D02*
X12701115Y-23527978D01*
X12701115Y-23527978D02*
X12739210Y-23527978D01*
X12739210Y-23527978D02*
X12758258Y-23537501D01*
X12834448Y-23737501D02*
X12843972Y-23727978D01*
X12843972Y-23727978D02*
X12863020Y-23699406D01*
X12863020Y-23699406D02*
X12872544Y-23680359D01*
X12872544Y-23680359D02*
X12882067Y-23651787D01*
X12882067Y-23651787D02*
X12891591Y-23604168D01*
X12891591Y-23604168D02*
X12891591Y-23566073D01*
X12891591Y-23566073D02*
X12882067Y-23518454D01*
X12882067Y-23518454D02*
X12872544Y-23489882D01*
X12872544Y-23489882D02*
X12863020Y-23470835D01*
X12863020Y-23470835D02*
X12843972Y-23442263D01*
X12843972Y-23442263D02*
X12834448Y-23432740D01*
X5687957Y-23789827D02*
X5887957Y-23989827D01*
X5887957Y-23789827D02*
X5687957Y-23989827D01*
X5887957Y-23889827D02*
G75*
G02*
X5687957Y-23889827I-100000J0D01*
G01*
X5687957Y-23889827D02*
G75*
G02*
X5887957Y-23889827I100000J0D01*
G01*
X6129686Y-23781311D02*
X6253495Y-23781311D01*
X6253495Y-23781311D02*
X6186829Y-23857501D01*
X6186829Y-23857501D02*
X6215400Y-23857501D01*
X6215400Y-23857501D02*
X6234448Y-23867025D01*
X6234448Y-23867025D02*
X6243972Y-23876549D01*
X6243972Y-23876549D02*
X6253495Y-23895597D01*
X6253495Y-23895597D02*
X6253495Y-23943216D01*
X6253495Y-23943216D02*
X6243972Y-23962263D01*
X6243972Y-23962263D02*
X6234448Y-23971787D01*
X6234448Y-23971787D02*
X6215400Y-23981311D01*
X6215400Y-23981311D02*
X6158257Y-23981311D01*
X6158257Y-23981311D02*
X6139210Y-23971787D01*
X6139210Y-23971787D02*
X6129686Y-23962263D01*
X6339210Y-23962263D02*
X6348733Y-23971787D01*
X6348733Y-23971787D02*
X6339210Y-23981311D01*
X6339210Y-23981311D02*
X6329686Y-23971787D01*
X6329686Y-23971787D02*
X6339210Y-23962263D01*
X6339210Y-23962263D02*
X6339210Y-23981311D01*
X6443972Y-23981311D02*
X6482067Y-23981311D01*
X6482067Y-23981311D02*
X6501114Y-23971787D01*
X6501114Y-23971787D02*
X6510638Y-23962263D01*
X6510638Y-23962263D02*
X6529686Y-23933692D01*
X6529686Y-23933692D02*
X6539210Y-23895597D01*
X6539210Y-23895597D02*
X6539210Y-23819406D01*
X6539210Y-23819406D02*
X6529686Y-23800359D01*
X6529686Y-23800359D02*
X6520162Y-23790835D01*
X6520162Y-23790835D02*
X6501114Y-23781311D01*
X6501114Y-23781311D02*
X6463019Y-23781311D01*
X6463019Y-23781311D02*
X6443972Y-23790835D01*
X6443972Y-23790835D02*
X6434448Y-23800359D01*
X6434448Y-23800359D02*
X6424924Y-23819406D01*
X6424924Y-23819406D02*
X6424924Y-23867025D01*
X6424924Y-23867025D02*
X6434448Y-23886073D01*
X6434448Y-23886073D02*
X6443972Y-23895597D01*
X6443972Y-23895597D02*
X6463019Y-23905121D01*
X6463019Y-23905121D02*
X6501114Y-23905121D01*
X6501114Y-23905121D02*
X6520162Y-23895597D01*
X6520162Y-23895597D02*
X6529686Y-23886073D01*
X6529686Y-23886073D02*
X6539210Y-23867025D01*
X6653495Y-23867025D02*
X6634448Y-23857501D01*
X6634448Y-23857501D02*
X6624924Y-23847978D01*
X6624924Y-23847978D02*
X6615400Y-23828930D01*
X6615400Y-23828930D02*
X6615400Y-23819406D01*
X6615400Y-23819406D02*
X6624924Y-23800359D01*
X6624924Y-23800359D02*
X6634448Y-23790835D01*
X6634448Y-23790835D02*
X6653495Y-23781311D01*
X6653495Y-23781311D02*
X6691591Y-23781311D01*
X6691591Y-23781311D02*
X6710638Y-23790835D01*
X6710638Y-23790835D02*
X6720162Y-23800359D01*
X6720162Y-23800359D02*
X6729686Y-23819406D01*
X6729686Y-23819406D02*
X6729686Y-23828930D01*
X6729686Y-23828930D02*
X6720162Y-23847978D01*
X6720162Y-23847978D02*
X6710638Y-23857501D01*
X6710638Y-23857501D02*
X6691591Y-23867025D01*
X6691591Y-23867025D02*
X6653495Y-23867025D01*
X6653495Y-23867025D02*
X6634448Y-23876549D01*
X6634448Y-23876549D02*
X6624924Y-23886073D01*
X6624924Y-23886073D02*
X6615400Y-23905121D01*
X6615400Y-23905121D02*
X6615400Y-23943216D01*
X6615400Y-23943216D02*
X6624924Y-23962263D01*
X6624924Y-23962263D02*
X6634448Y-23971787D01*
X6634448Y-23971787D02*
X6653495Y-23981311D01*
X6653495Y-23981311D02*
X6691591Y-23981311D01*
X6691591Y-23981311D02*
X6710638Y-23971787D01*
X6710638Y-23971787D02*
X6720162Y-23962263D01*
X6720162Y-23962263D02*
X6729686Y-23943216D01*
X6729686Y-23943216D02*
X6729686Y-23905121D01*
X6729686Y-23905121D02*
X6720162Y-23886073D01*
X6720162Y-23886073D02*
X6710638Y-23876549D01*
X6710638Y-23876549D02*
X6691591Y-23867025D01*
X6843972Y-23867025D02*
X6824924Y-23857501D01*
X6824924Y-23857501D02*
X6815400Y-23847978D01*
X6815400Y-23847978D02*
X6805876Y-23828930D01*
X6805876Y-23828930D02*
X6805876Y-23819406D01*
X6805876Y-23819406D02*
X6815400Y-23800359D01*
X6815400Y-23800359D02*
X6824924Y-23790835D01*
X6824924Y-23790835D02*
X6843972Y-23781311D01*
X6843972Y-23781311D02*
X6882067Y-23781311D01*
X6882067Y-23781311D02*
X6901114Y-23790835D01*
X6901114Y-23790835D02*
X6910638Y-23800359D01*
X6910638Y-23800359D02*
X6920162Y-23819406D01*
X6920162Y-23819406D02*
X6920162Y-23828930D01*
X6920162Y-23828930D02*
X6910638Y-23847978D01*
X6910638Y-23847978D02*
X6901114Y-23857501D01*
X6901114Y-23857501D02*
X6882067Y-23867025D01*
X6882067Y-23867025D02*
X6843972Y-23867025D01*
X6843972Y-23867025D02*
X6824924Y-23876549D01*
X6824924Y-23876549D02*
X6815400Y-23886073D01*
X6815400Y-23886073D02*
X6805876Y-23905121D01*
X6805876Y-23905121D02*
X6805876Y-23943216D01*
X6805876Y-23943216D02*
X6815400Y-23962263D01*
X6815400Y-23962263D02*
X6824924Y-23971787D01*
X6824924Y-23971787D02*
X6843972Y-23981311D01*
X6843972Y-23981311D02*
X6882067Y-23981311D01*
X6882067Y-23981311D02*
X6901114Y-23971787D01*
X6901114Y-23971787D02*
X6910638Y-23962263D01*
X6910638Y-23962263D02*
X6920162Y-23943216D01*
X6920162Y-23943216D02*
X6920162Y-23905121D01*
X6920162Y-23905121D02*
X6910638Y-23886073D01*
X6910638Y-23886073D02*
X6901114Y-23876549D01*
X6901114Y-23876549D02*
X6882067Y-23867025D01*
X7005876Y-23981311D02*
X7005876Y-23847978D01*
X7005876Y-23867025D02*
X7015400Y-23857501D01*
X7015400Y-23857501D02*
X7034448Y-23847978D01*
X7034448Y-23847978D02*
X7063019Y-23847978D01*
X7063019Y-23847978D02*
X7082067Y-23857501D01*
X7082067Y-23857501D02*
X7091591Y-23876549D01*
X7091591Y-23876549D02*
X7091591Y-23981311D01*
X7091591Y-23876549D02*
X7101114Y-23857501D01*
X7101114Y-23857501D02*
X7120162Y-23847978D01*
X7120162Y-23847978D02*
X7148733Y-23847978D01*
X7148733Y-23847978D02*
X7167781Y-23857501D01*
X7167781Y-23857501D02*
X7177305Y-23876549D01*
X7177305Y-23876549D02*
X7177305Y-23981311D01*
X7272543Y-23981311D02*
X7272543Y-23847978D01*
X7272543Y-23867025D02*
X7282067Y-23857501D01*
X7282067Y-23857501D02*
X7301114Y-23847978D01*
X7301114Y-23847978D02*
X7329686Y-23847978D01*
X7329686Y-23847978D02*
X7348734Y-23857501D01*
X7348734Y-23857501D02*
X7358257Y-23876549D01*
X7358257Y-23876549D02*
X7358257Y-23981311D01*
X7358257Y-23876549D02*
X7367781Y-23857501D01*
X7367781Y-23857501D02*
X7386829Y-23847978D01*
X7386829Y-23847978D02*
X7415400Y-23847978D01*
X7415400Y-23847978D02*
X7434448Y-23857501D01*
X7434448Y-23857501D02*
X7443972Y-23876549D01*
X7443972Y-23876549D02*
X7443972Y-23981311D01*
X7834448Y-23771787D02*
X7663019Y-24028930D01*
X8091591Y-23781311D02*
X8110638Y-23781311D01*
X8110638Y-23781311D02*
X8129686Y-23790835D01*
X8129686Y-23790835D02*
X8139210Y-23800359D01*
X8139210Y-23800359D02*
X8148734Y-23819406D01*
X8148734Y-23819406D02*
X8158257Y-23857501D01*
X8158257Y-23857501D02*
X8158257Y-23905121D01*
X8158257Y-23905121D02*
X8148734Y-23943216D01*
X8148734Y-23943216D02*
X8139210Y-23962263D01*
X8139210Y-23962263D02*
X8129686Y-23971787D01*
X8129686Y-23971787D02*
X8110638Y-23981311D01*
X8110638Y-23981311D02*
X8091591Y-23981311D01*
X8091591Y-23981311D02*
X8072543Y-23971787D01*
X8072543Y-23971787D02*
X8063019Y-23962263D01*
X8063019Y-23962263D02*
X8053496Y-23943216D01*
X8053496Y-23943216D02*
X8043972Y-23905121D01*
X8043972Y-23905121D02*
X8043972Y-23857501D01*
X8043972Y-23857501D02*
X8053496Y-23819406D01*
X8053496Y-23819406D02*
X8063019Y-23800359D01*
X8063019Y-23800359D02*
X8072543Y-23790835D01*
X8072543Y-23790835D02*
X8091591Y-23781311D01*
X8243972Y-23962263D02*
X8253496Y-23971787D01*
X8253496Y-23971787D02*
X8243972Y-23981311D01*
X8243972Y-23981311D02*
X8234448Y-23971787D01*
X8234448Y-23971787D02*
X8243972Y-23962263D01*
X8243972Y-23962263D02*
X8243972Y-23981311D01*
X8443972Y-23981311D02*
X8329686Y-23981311D01*
X8386829Y-23981311D02*
X8386829Y-23781311D01*
X8386829Y-23781311D02*
X8367781Y-23809882D01*
X8367781Y-23809882D02*
X8348734Y-23828930D01*
X8348734Y-23828930D02*
X8329686Y-23838454D01*
X8624924Y-23781311D02*
X8529686Y-23781311D01*
X8529686Y-23781311D02*
X8520162Y-23876549D01*
X8520162Y-23876549D02*
X8529686Y-23867025D01*
X8529686Y-23867025D02*
X8548734Y-23857501D01*
X8548734Y-23857501D02*
X8596353Y-23857501D01*
X8596353Y-23857501D02*
X8615400Y-23867025D01*
X8615400Y-23867025D02*
X8624924Y-23876549D01*
X8624924Y-23876549D02*
X8634448Y-23895597D01*
X8634448Y-23895597D02*
X8634448Y-23943216D01*
X8634448Y-23943216D02*
X8624924Y-23962263D01*
X8624924Y-23962263D02*
X8615400Y-23971787D01*
X8615400Y-23971787D02*
X8596353Y-23981311D01*
X8596353Y-23981311D02*
X8548734Y-23981311D01*
X8548734Y-23981311D02*
X8529686Y-23971787D01*
X8529686Y-23971787D02*
X8520162Y-23962263D01*
X8701115Y-23781311D02*
X8834448Y-23781311D01*
X8834448Y-23781311D02*
X8748734Y-23981311D01*
X8948734Y-23781311D02*
X8967781Y-23781311D01*
X8967781Y-23781311D02*
X8986829Y-23790835D01*
X8986829Y-23790835D02*
X8996353Y-23800359D01*
X8996353Y-23800359D02*
X9005877Y-23819406D01*
X9005877Y-23819406D02*
X9015400Y-23857501D01*
X9015400Y-23857501D02*
X9015400Y-23905121D01*
X9015400Y-23905121D02*
X9005877Y-23943216D01*
X9005877Y-23943216D02*
X8996353Y-23962263D01*
X8996353Y-23962263D02*
X8986829Y-23971787D01*
X8986829Y-23971787D02*
X8967781Y-23981311D01*
X8967781Y-23981311D02*
X8948734Y-23981311D01*
X8948734Y-23981311D02*
X8929686Y-23971787D01*
X8929686Y-23971787D02*
X8920162Y-23962263D01*
X8920162Y-23962263D02*
X8910639Y-23943216D01*
X8910639Y-23943216D02*
X8901115Y-23905121D01*
X8901115Y-23905121D02*
X8901115Y-23857501D01*
X8901115Y-23857501D02*
X8910639Y-23819406D01*
X8910639Y-23819406D02*
X8920162Y-23800359D01*
X8920162Y-23800359D02*
X8929686Y-23790835D01*
X8929686Y-23790835D02*
X8948734Y-23781311D01*
X9091591Y-23781311D02*
X9091591Y-23819406D01*
X9167781Y-23781311D02*
X9167781Y-23819406D01*
X9463020Y-24057501D02*
X9453496Y-24047978D01*
X9453496Y-24047978D02*
X9434448Y-24019406D01*
X9434448Y-24019406D02*
X9424924Y-24000359D01*
X9424924Y-24000359D02*
X9415401Y-23971787D01*
X9415401Y-23971787D02*
X9405877Y-23924168D01*
X9405877Y-23924168D02*
X9405877Y-23886073D01*
X9405877Y-23886073D02*
X9415401Y-23838454D01*
X9415401Y-23838454D02*
X9424924Y-23809882D01*
X9424924Y-23809882D02*
X9434448Y-23790835D01*
X9434448Y-23790835D02*
X9453496Y-23762263D01*
X9453496Y-23762263D02*
X9463020Y-23752740D01*
X9624924Y-23847978D02*
X9624924Y-23981311D01*
X9577305Y-23771787D02*
X9529686Y-23914644D01*
X9529686Y-23914644D02*
X9653496Y-23914644D01*
X9767781Y-23781311D02*
X9786829Y-23781311D01*
X9786829Y-23781311D02*
X9805877Y-23790835D01*
X9805877Y-23790835D02*
X9815401Y-23800359D01*
X9815401Y-23800359D02*
X9824924Y-23819406D01*
X9824924Y-23819406D02*
X9834448Y-23857501D01*
X9834448Y-23857501D02*
X9834448Y-23905121D01*
X9834448Y-23905121D02*
X9824924Y-23943216D01*
X9824924Y-23943216D02*
X9815401Y-23962263D01*
X9815401Y-23962263D02*
X9805877Y-23971787D01*
X9805877Y-23971787D02*
X9786829Y-23981311D01*
X9786829Y-23981311D02*
X9767781Y-23981311D01*
X9767781Y-23981311D02*
X9748734Y-23971787D01*
X9748734Y-23971787D02*
X9739210Y-23962263D01*
X9739210Y-23962263D02*
X9729686Y-23943216D01*
X9729686Y-23943216D02*
X9720162Y-23905121D01*
X9720162Y-23905121D02*
X9720162Y-23857501D01*
X9720162Y-23857501D02*
X9729686Y-23819406D01*
X9729686Y-23819406D02*
X9739210Y-23800359D01*
X9739210Y-23800359D02*
X9748734Y-23790835D01*
X9748734Y-23790835D02*
X9767781Y-23781311D01*
X10072543Y-23981311D02*
X10072543Y-23781311D01*
X10158258Y-23981311D02*
X10158258Y-23876549D01*
X10158258Y-23876549D02*
X10148734Y-23857501D01*
X10148734Y-23857501D02*
X10129686Y-23847978D01*
X10129686Y-23847978D02*
X10101115Y-23847978D01*
X10101115Y-23847978D02*
X10082067Y-23857501D01*
X10082067Y-23857501D02*
X10072543Y-23867025D01*
X10282067Y-23981311D02*
X10263020Y-23971787D01*
X10263020Y-23971787D02*
X10253496Y-23962263D01*
X10253496Y-23962263D02*
X10243972Y-23943216D01*
X10243972Y-23943216D02*
X10243972Y-23886073D01*
X10243972Y-23886073D02*
X10253496Y-23867025D01*
X10253496Y-23867025D02*
X10263020Y-23857501D01*
X10263020Y-23857501D02*
X10282067Y-23847978D01*
X10282067Y-23847978D02*
X10310639Y-23847978D01*
X10310639Y-23847978D02*
X10329686Y-23857501D01*
X10329686Y-23857501D02*
X10339210Y-23867025D01*
X10339210Y-23867025D02*
X10348734Y-23886073D01*
X10348734Y-23886073D02*
X10348734Y-23943216D01*
X10348734Y-23943216D02*
X10339210Y-23962263D01*
X10339210Y-23962263D02*
X10329686Y-23971787D01*
X10329686Y-23971787D02*
X10310639Y-23981311D01*
X10310639Y-23981311D02*
X10282067Y-23981311D01*
X10463020Y-23981311D02*
X10443972Y-23971787D01*
X10443972Y-23971787D02*
X10434448Y-23952740D01*
X10434448Y-23952740D02*
X10434448Y-23781311D01*
X10615401Y-23971787D02*
X10596353Y-23981311D01*
X10596353Y-23981311D02*
X10558258Y-23981311D01*
X10558258Y-23981311D02*
X10539210Y-23971787D01*
X10539210Y-23971787D02*
X10529686Y-23952740D01*
X10529686Y-23952740D02*
X10529686Y-23876549D01*
X10529686Y-23876549D02*
X10539210Y-23857501D01*
X10539210Y-23857501D02*
X10558258Y-23847978D01*
X10558258Y-23847978D02*
X10596353Y-23847978D01*
X10596353Y-23847978D02*
X10615401Y-23857501D01*
X10615401Y-23857501D02*
X10624924Y-23876549D01*
X10624924Y-23876549D02*
X10624924Y-23895597D01*
X10624924Y-23895597D02*
X10529686Y-23914644D01*
X10701115Y-23971787D02*
X10720163Y-23981311D01*
X10720163Y-23981311D02*
X10758258Y-23981311D01*
X10758258Y-23981311D02*
X10777305Y-23971787D01*
X10777305Y-23971787D02*
X10786829Y-23952740D01*
X10786829Y-23952740D02*
X10786829Y-23943216D01*
X10786829Y-23943216D02*
X10777305Y-23924168D01*
X10777305Y-23924168D02*
X10758258Y-23914644D01*
X10758258Y-23914644D02*
X10729686Y-23914644D01*
X10729686Y-23914644D02*
X10710639Y-23905121D01*
X10710639Y-23905121D02*
X10701115Y-23886073D01*
X10701115Y-23886073D02*
X10701115Y-23876549D01*
X10701115Y-23876549D02*
X10710639Y-23857501D01*
X10710639Y-23857501D02*
X10729686Y-23847978D01*
X10729686Y-23847978D02*
X10758258Y-23847978D01*
X10758258Y-23847978D02*
X10777305Y-23857501D01*
X10853496Y-24057501D02*
X10863020Y-24047978D01*
X10863020Y-24047978D02*
X10882067Y-24019406D01*
X10882067Y-24019406D02*
X10891591Y-24000359D01*
X10891591Y-24000359D02*
X10901115Y-23971787D01*
X10901115Y-23971787D02*
X10910639Y-23924168D01*
X10910639Y-23924168D02*
X10910639Y-23886073D01*
X10910639Y-23886073D02*
X10901115Y-23838454D01*
X10901115Y-23838454D02*
X10891591Y-23809882D01*
X10891591Y-23809882D02*
X10882067Y-23790835D01*
X10882067Y-23790835D02*
X10863020Y-23762263D01*
X10863020Y-23762263D02*
X10853496Y-23752740D01*
X11215401Y-24057501D02*
X11205877Y-24047978D01*
X11205877Y-24047978D02*
X11186829Y-24019406D01*
X11186829Y-24019406D02*
X11177305Y-24000359D01*
X11177305Y-24000359D02*
X11167782Y-23971787D01*
X11167782Y-23971787D02*
X11158258Y-23924168D01*
X11158258Y-23924168D02*
X11158258Y-23886073D01*
X11158258Y-23886073D02*
X11167782Y-23838454D01*
X11167782Y-23838454D02*
X11177305Y-23809882D01*
X11177305Y-23809882D02*
X11186829Y-23790835D01*
X11186829Y-23790835D02*
X11205877Y-23762263D01*
X11205877Y-23762263D02*
X11215401Y-23752740D01*
X11291591Y-23847978D02*
X11291591Y-23981311D01*
X11291591Y-23867025D02*
X11301115Y-23857501D01*
X11301115Y-23857501D02*
X11320162Y-23847978D01*
X11320162Y-23847978D02*
X11348734Y-23847978D01*
X11348734Y-23847978D02*
X11367782Y-23857501D01*
X11367782Y-23857501D02*
X11377305Y-23876549D01*
X11377305Y-23876549D02*
X11377305Y-23981311D01*
X11501115Y-23981311D02*
X11482067Y-23971787D01*
X11482067Y-23971787D02*
X11472543Y-23962263D01*
X11472543Y-23962263D02*
X11463020Y-23943216D01*
X11463020Y-23943216D02*
X11463020Y-23886073D01*
X11463020Y-23886073D02*
X11472543Y-23867025D01*
X11472543Y-23867025D02*
X11482067Y-23857501D01*
X11482067Y-23857501D02*
X11501115Y-23847978D01*
X11501115Y-23847978D02*
X11529686Y-23847978D01*
X11529686Y-23847978D02*
X11548734Y-23857501D01*
X11548734Y-23857501D02*
X11558258Y-23867025D01*
X11558258Y-23867025D02*
X11567782Y-23886073D01*
X11567782Y-23886073D02*
X11567782Y-23943216D01*
X11567782Y-23943216D02*
X11558258Y-23962263D01*
X11558258Y-23962263D02*
X11548734Y-23971787D01*
X11548734Y-23971787D02*
X11529686Y-23981311D01*
X11529686Y-23981311D02*
X11501115Y-23981311D01*
X11624924Y-23847978D02*
X11701115Y-23847978D01*
X11653496Y-23781311D02*
X11653496Y-23952740D01*
X11653496Y-23952740D02*
X11663020Y-23971787D01*
X11663020Y-23971787D02*
X11682067Y-23981311D01*
X11682067Y-23981311D02*
X11701115Y-23981311D01*
X11920163Y-23847978D02*
X11920163Y-24047978D01*
X11920163Y-23857501D02*
X11939210Y-23847978D01*
X11939210Y-23847978D02*
X11977305Y-23847978D01*
X11977305Y-23847978D02*
X11996353Y-23857501D01*
X11996353Y-23857501D02*
X12005877Y-23867025D01*
X12005877Y-23867025D02*
X12015401Y-23886073D01*
X12015401Y-23886073D02*
X12015401Y-23943216D01*
X12015401Y-23943216D02*
X12005877Y-23962263D01*
X12005877Y-23962263D02*
X11996353Y-23971787D01*
X11996353Y-23971787D02*
X11977305Y-23981311D01*
X11977305Y-23981311D02*
X11939210Y-23981311D01*
X11939210Y-23981311D02*
X11920163Y-23971787D01*
X12129686Y-23981311D02*
X12110639Y-23971787D01*
X12110639Y-23971787D02*
X12101115Y-23952740D01*
X12101115Y-23952740D02*
X12101115Y-23781311D01*
X12291591Y-23981311D02*
X12291591Y-23876549D01*
X12291591Y-23876549D02*
X12282067Y-23857501D01*
X12282067Y-23857501D02*
X12263020Y-23847978D01*
X12263020Y-23847978D02*
X12224924Y-23847978D01*
X12224924Y-23847978D02*
X12205877Y-23857501D01*
X12291591Y-23971787D02*
X12272544Y-23981311D01*
X12272544Y-23981311D02*
X12224924Y-23981311D01*
X12224924Y-23981311D02*
X12205877Y-23971787D01*
X12205877Y-23971787D02*
X12196353Y-23952740D01*
X12196353Y-23952740D02*
X12196353Y-23933692D01*
X12196353Y-23933692D02*
X12205877Y-23914644D01*
X12205877Y-23914644D02*
X12224924Y-23905121D01*
X12224924Y-23905121D02*
X12272544Y-23905121D01*
X12272544Y-23905121D02*
X12291591Y-23895597D01*
X12358258Y-23847978D02*
X12434448Y-23847978D01*
X12386829Y-23781311D02*
X12386829Y-23952740D01*
X12386829Y-23952740D02*
X12396353Y-23971787D01*
X12396353Y-23971787D02*
X12415401Y-23981311D01*
X12415401Y-23981311D02*
X12434448Y-23981311D01*
X12577305Y-23971787D02*
X12558258Y-23981311D01*
X12558258Y-23981311D02*
X12520163Y-23981311D01*
X12520163Y-23981311D02*
X12501115Y-23971787D01*
X12501115Y-23971787D02*
X12491591Y-23952740D01*
X12491591Y-23952740D02*
X12491591Y-23876549D01*
X12491591Y-23876549D02*
X12501115Y-23857501D01*
X12501115Y-23857501D02*
X12520163Y-23847978D01*
X12520163Y-23847978D02*
X12558258Y-23847978D01*
X12558258Y-23847978D02*
X12577305Y-23857501D01*
X12577305Y-23857501D02*
X12586829Y-23876549D01*
X12586829Y-23876549D02*
X12586829Y-23895597D01*
X12586829Y-23895597D02*
X12491591Y-23914644D01*
X12758258Y-23981311D02*
X12758258Y-23781311D01*
X12758258Y-23971787D02*
X12739210Y-23981311D01*
X12739210Y-23981311D02*
X12701115Y-23981311D01*
X12701115Y-23981311D02*
X12682067Y-23971787D01*
X12682067Y-23971787D02*
X12672544Y-23962263D01*
X12672544Y-23962263D02*
X12663020Y-23943216D01*
X12663020Y-23943216D02*
X12663020Y-23886073D01*
X12663020Y-23886073D02*
X12672544Y-23867025D01*
X12672544Y-23867025D02*
X12682067Y-23857501D01*
X12682067Y-23857501D02*
X12701115Y-23847978D01*
X12701115Y-23847978D02*
X12739210Y-23847978D01*
X12739210Y-23847978D02*
X12758258Y-23857501D01*
X12834448Y-24057501D02*
X12843972Y-24047978D01*
X12843972Y-24047978D02*
X12863020Y-24019406D01*
X12863020Y-24019406D02*
X12872544Y-24000359D01*
X12872544Y-24000359D02*
X12882067Y-23971787D01*
X12882067Y-23971787D02*
X12891591Y-23924168D01*
X12891591Y-23924168D02*
X12891591Y-23886073D01*
X12891591Y-23886073D02*
X12882067Y-23838454D01*
X12882067Y-23838454D02*
X12872544Y-23809882D01*
X12872544Y-23809882D02*
X12863020Y-23790835D01*
X12863020Y-23790835D02*
X12843972Y-23762263D01*
X12843972Y-23762263D02*
X12834448Y-23752740D01*
X5687957Y-24109827D02*
X5887957Y-24309827D01*
X5887957Y-24109827D02*
X5687957Y-24309827D01*
X5787957Y-24109827D02*
X5787957Y-24309827D01*
X5687957Y-24209827D02*
X5887957Y-24209827D01*
X6243972Y-24101311D02*
X6148733Y-24101311D01*
X6148733Y-24101311D02*
X6139210Y-24196549D01*
X6139210Y-24196549D02*
X6148733Y-24187025D01*
X6148733Y-24187025D02*
X6167781Y-24177501D01*
X6167781Y-24177501D02*
X6215400Y-24177501D01*
X6215400Y-24177501D02*
X6234448Y-24187025D01*
X6234448Y-24187025D02*
X6243972Y-24196549D01*
X6243972Y-24196549D02*
X6253495Y-24215597D01*
X6253495Y-24215597D02*
X6253495Y-24263216D01*
X6253495Y-24263216D02*
X6243972Y-24282263D01*
X6243972Y-24282263D02*
X6234448Y-24291787D01*
X6234448Y-24291787D02*
X6215400Y-24301311D01*
X6215400Y-24301311D02*
X6167781Y-24301311D01*
X6167781Y-24301311D02*
X6148733Y-24291787D01*
X6148733Y-24291787D02*
X6139210Y-24282263D01*
X6339210Y-24282263D02*
X6348733Y-24291787D01*
X6348733Y-24291787D02*
X6339210Y-24301311D01*
X6339210Y-24301311D02*
X6329686Y-24291787D01*
X6329686Y-24291787D02*
X6339210Y-24282263D01*
X6339210Y-24282263D02*
X6339210Y-24301311D01*
X6472543Y-24101311D02*
X6491591Y-24101311D01*
X6491591Y-24101311D02*
X6510638Y-24110835D01*
X6510638Y-24110835D02*
X6520162Y-24120359D01*
X6520162Y-24120359D02*
X6529686Y-24139406D01*
X6529686Y-24139406D02*
X6539210Y-24177501D01*
X6539210Y-24177501D02*
X6539210Y-24225121D01*
X6539210Y-24225121D02*
X6529686Y-24263216D01*
X6529686Y-24263216D02*
X6520162Y-24282263D01*
X6520162Y-24282263D02*
X6510638Y-24291787D01*
X6510638Y-24291787D02*
X6491591Y-24301311D01*
X6491591Y-24301311D02*
X6472543Y-24301311D01*
X6472543Y-24301311D02*
X6453495Y-24291787D01*
X6453495Y-24291787D02*
X6443972Y-24282263D01*
X6443972Y-24282263D02*
X6434448Y-24263216D01*
X6434448Y-24263216D02*
X6424924Y-24225121D01*
X6424924Y-24225121D02*
X6424924Y-24177501D01*
X6424924Y-24177501D02*
X6434448Y-24139406D01*
X6434448Y-24139406D02*
X6443972Y-24120359D01*
X6443972Y-24120359D02*
X6453495Y-24110835D01*
X6453495Y-24110835D02*
X6472543Y-24101311D01*
X6663019Y-24101311D02*
X6682067Y-24101311D01*
X6682067Y-24101311D02*
X6701114Y-24110835D01*
X6701114Y-24110835D02*
X6710638Y-24120359D01*
X6710638Y-24120359D02*
X6720162Y-24139406D01*
X6720162Y-24139406D02*
X6729686Y-24177501D01*
X6729686Y-24177501D02*
X6729686Y-24225121D01*
X6729686Y-24225121D02*
X6720162Y-24263216D01*
X6720162Y-24263216D02*
X6710638Y-24282263D01*
X6710638Y-24282263D02*
X6701114Y-24291787D01*
X6701114Y-24291787D02*
X6682067Y-24301311D01*
X6682067Y-24301311D02*
X6663019Y-24301311D01*
X6663019Y-24301311D02*
X6643972Y-24291787D01*
X6643972Y-24291787D02*
X6634448Y-24282263D01*
X6634448Y-24282263D02*
X6624924Y-24263216D01*
X6624924Y-24263216D02*
X6615400Y-24225121D01*
X6615400Y-24225121D02*
X6615400Y-24177501D01*
X6615400Y-24177501D02*
X6624924Y-24139406D01*
X6624924Y-24139406D02*
X6634448Y-24120359D01*
X6634448Y-24120359D02*
X6643972Y-24110835D01*
X6643972Y-24110835D02*
X6663019Y-24101311D01*
X6853495Y-24101311D02*
X6872543Y-24101311D01*
X6872543Y-24101311D02*
X6891591Y-24110835D01*
X6891591Y-24110835D02*
X6901114Y-24120359D01*
X6901114Y-24120359D02*
X6910638Y-24139406D01*
X6910638Y-24139406D02*
X6920162Y-24177501D01*
X6920162Y-24177501D02*
X6920162Y-24225121D01*
X6920162Y-24225121D02*
X6910638Y-24263216D01*
X6910638Y-24263216D02*
X6901114Y-24282263D01*
X6901114Y-24282263D02*
X6891591Y-24291787D01*
X6891591Y-24291787D02*
X6872543Y-24301311D01*
X6872543Y-24301311D02*
X6853495Y-24301311D01*
X6853495Y-24301311D02*
X6834448Y-24291787D01*
X6834448Y-24291787D02*
X6824924Y-24282263D01*
X6824924Y-24282263D02*
X6815400Y-24263216D01*
X6815400Y-24263216D02*
X6805876Y-24225121D01*
X6805876Y-24225121D02*
X6805876Y-24177501D01*
X6805876Y-24177501D02*
X6815400Y-24139406D01*
X6815400Y-24139406D02*
X6824924Y-24120359D01*
X6824924Y-24120359D02*
X6834448Y-24110835D01*
X6834448Y-24110835D02*
X6853495Y-24101311D01*
X7005876Y-24301311D02*
X7005876Y-24167978D01*
X7005876Y-24187025D02*
X7015400Y-24177501D01*
X7015400Y-24177501D02*
X7034448Y-24167978D01*
X7034448Y-24167978D02*
X7063019Y-24167978D01*
X7063019Y-24167978D02*
X7082067Y-24177501D01*
X7082067Y-24177501D02*
X7091591Y-24196549D01*
X7091591Y-24196549D02*
X7091591Y-24301311D01*
X7091591Y-24196549D02*
X7101114Y-24177501D01*
X7101114Y-24177501D02*
X7120162Y-24167978D01*
X7120162Y-24167978D02*
X7148733Y-24167978D01*
X7148733Y-24167978D02*
X7167781Y-24177501D01*
X7167781Y-24177501D02*
X7177305Y-24196549D01*
X7177305Y-24196549D02*
X7177305Y-24301311D01*
X7272543Y-24301311D02*
X7272543Y-24167978D01*
X7272543Y-24187025D02*
X7282067Y-24177501D01*
X7282067Y-24177501D02*
X7301114Y-24167978D01*
X7301114Y-24167978D02*
X7329686Y-24167978D01*
X7329686Y-24167978D02*
X7348734Y-24177501D01*
X7348734Y-24177501D02*
X7358257Y-24196549D01*
X7358257Y-24196549D02*
X7358257Y-24301311D01*
X7358257Y-24196549D02*
X7367781Y-24177501D01*
X7367781Y-24177501D02*
X7386829Y-24167978D01*
X7386829Y-24167978D02*
X7415400Y-24167978D01*
X7415400Y-24167978D02*
X7434448Y-24177501D01*
X7434448Y-24177501D02*
X7443972Y-24196549D01*
X7443972Y-24196549D02*
X7443972Y-24301311D01*
X7834448Y-24091787D02*
X7663019Y-24348930D01*
X8091591Y-24101311D02*
X8110638Y-24101311D01*
X8110638Y-24101311D02*
X8129686Y-24110835D01*
X8129686Y-24110835D02*
X8139210Y-24120359D01*
X8139210Y-24120359D02*
X8148734Y-24139406D01*
X8148734Y-24139406D02*
X8158257Y-24177501D01*
X8158257Y-24177501D02*
X8158257Y-24225121D01*
X8158257Y-24225121D02*
X8148734Y-24263216D01*
X8148734Y-24263216D02*
X8139210Y-24282263D01*
X8139210Y-24282263D02*
X8129686Y-24291787D01*
X8129686Y-24291787D02*
X8110638Y-24301311D01*
X8110638Y-24301311D02*
X8091591Y-24301311D01*
X8091591Y-24301311D02*
X8072543Y-24291787D01*
X8072543Y-24291787D02*
X8063019Y-24282263D01*
X8063019Y-24282263D02*
X8053496Y-24263216D01*
X8053496Y-24263216D02*
X8043972Y-24225121D01*
X8043972Y-24225121D02*
X8043972Y-24177501D01*
X8043972Y-24177501D02*
X8053496Y-24139406D01*
X8053496Y-24139406D02*
X8063019Y-24120359D01*
X8063019Y-24120359D02*
X8072543Y-24110835D01*
X8072543Y-24110835D02*
X8091591Y-24101311D01*
X8243972Y-24282263D02*
X8253496Y-24291787D01*
X8253496Y-24291787D02*
X8243972Y-24301311D01*
X8243972Y-24301311D02*
X8234448Y-24291787D01*
X8234448Y-24291787D02*
X8243972Y-24282263D01*
X8243972Y-24282263D02*
X8243972Y-24301311D01*
X8443972Y-24301311D02*
X8329686Y-24301311D01*
X8386829Y-24301311D02*
X8386829Y-24101311D01*
X8386829Y-24101311D02*
X8367781Y-24129882D01*
X8367781Y-24129882D02*
X8348734Y-24148930D01*
X8348734Y-24148930D02*
X8329686Y-24158454D01*
X8539210Y-24301311D02*
X8577305Y-24301311D01*
X8577305Y-24301311D02*
X8596353Y-24291787D01*
X8596353Y-24291787D02*
X8605877Y-24282263D01*
X8605877Y-24282263D02*
X8624924Y-24253692D01*
X8624924Y-24253692D02*
X8634448Y-24215597D01*
X8634448Y-24215597D02*
X8634448Y-24139406D01*
X8634448Y-24139406D02*
X8624924Y-24120359D01*
X8624924Y-24120359D02*
X8615400Y-24110835D01*
X8615400Y-24110835D02*
X8596353Y-24101311D01*
X8596353Y-24101311D02*
X8558258Y-24101311D01*
X8558258Y-24101311D02*
X8539210Y-24110835D01*
X8539210Y-24110835D02*
X8529686Y-24120359D01*
X8529686Y-24120359D02*
X8520162Y-24139406D01*
X8520162Y-24139406D02*
X8520162Y-24187025D01*
X8520162Y-24187025D02*
X8529686Y-24206073D01*
X8529686Y-24206073D02*
X8539210Y-24215597D01*
X8539210Y-24215597D02*
X8558258Y-24225121D01*
X8558258Y-24225121D02*
X8596353Y-24225121D01*
X8596353Y-24225121D02*
X8615400Y-24215597D01*
X8615400Y-24215597D02*
X8624924Y-24206073D01*
X8624924Y-24206073D02*
X8634448Y-24187025D01*
X8805877Y-24101311D02*
X8767781Y-24101311D01*
X8767781Y-24101311D02*
X8748734Y-24110835D01*
X8748734Y-24110835D02*
X8739210Y-24120359D01*
X8739210Y-24120359D02*
X8720162Y-24148930D01*
X8720162Y-24148930D02*
X8710639Y-24187025D01*
X8710639Y-24187025D02*
X8710639Y-24263216D01*
X8710639Y-24263216D02*
X8720162Y-24282263D01*
X8720162Y-24282263D02*
X8729686Y-24291787D01*
X8729686Y-24291787D02*
X8748734Y-24301311D01*
X8748734Y-24301311D02*
X8786829Y-24301311D01*
X8786829Y-24301311D02*
X8805877Y-24291787D01*
X8805877Y-24291787D02*
X8815400Y-24282263D01*
X8815400Y-24282263D02*
X8824924Y-24263216D01*
X8824924Y-24263216D02*
X8824924Y-24215597D01*
X8824924Y-24215597D02*
X8815400Y-24196549D01*
X8815400Y-24196549D02*
X8805877Y-24187025D01*
X8805877Y-24187025D02*
X8786829Y-24177501D01*
X8786829Y-24177501D02*
X8748734Y-24177501D01*
X8748734Y-24177501D02*
X8729686Y-24187025D01*
X8729686Y-24187025D02*
X8720162Y-24196549D01*
X8720162Y-24196549D02*
X8710639Y-24215597D01*
X8920162Y-24301311D02*
X8958258Y-24301311D01*
X8958258Y-24301311D02*
X8977305Y-24291787D01*
X8977305Y-24291787D02*
X8986829Y-24282263D01*
X8986829Y-24282263D02*
X9005877Y-24253692D01*
X9005877Y-24253692D02*
X9015400Y-24215597D01*
X9015400Y-24215597D02*
X9015400Y-24139406D01*
X9015400Y-24139406D02*
X9005877Y-24120359D01*
X9005877Y-24120359D02*
X8996353Y-24110835D01*
X8996353Y-24110835D02*
X8977305Y-24101311D01*
X8977305Y-24101311D02*
X8939210Y-24101311D01*
X8939210Y-24101311D02*
X8920162Y-24110835D01*
X8920162Y-24110835D02*
X8910639Y-24120359D01*
X8910639Y-24120359D02*
X8901115Y-24139406D01*
X8901115Y-24139406D02*
X8901115Y-24187025D01*
X8901115Y-24187025D02*
X8910639Y-24206073D01*
X8910639Y-24206073D02*
X8920162Y-24215597D01*
X8920162Y-24215597D02*
X8939210Y-24225121D01*
X8939210Y-24225121D02*
X8977305Y-24225121D01*
X8977305Y-24225121D02*
X8996353Y-24215597D01*
X8996353Y-24215597D02*
X9005877Y-24206073D01*
X9005877Y-24206073D02*
X9015400Y-24187025D01*
X9091591Y-24101311D02*
X9091591Y-24139406D01*
X9167781Y-24101311D02*
X9167781Y-24139406D01*
X9463020Y-24377501D02*
X9453496Y-24367978D01*
X9453496Y-24367978D02*
X9434448Y-24339406D01*
X9434448Y-24339406D02*
X9424924Y-24320359D01*
X9424924Y-24320359D02*
X9415401Y-24291787D01*
X9415401Y-24291787D02*
X9405877Y-24244168D01*
X9405877Y-24244168D02*
X9405877Y-24206073D01*
X9405877Y-24206073D02*
X9415401Y-24158454D01*
X9415401Y-24158454D02*
X9424924Y-24129882D01*
X9424924Y-24129882D02*
X9434448Y-24110835D01*
X9434448Y-24110835D02*
X9453496Y-24082263D01*
X9453496Y-24082263D02*
X9463020Y-24072740D01*
X9624924Y-24167978D02*
X9624924Y-24301311D01*
X9577305Y-24091787D02*
X9529686Y-24234644D01*
X9529686Y-24234644D02*
X9653496Y-24234644D01*
X9767781Y-24101311D02*
X9786829Y-24101311D01*
X9786829Y-24101311D02*
X9805877Y-24110835D01*
X9805877Y-24110835D02*
X9815401Y-24120359D01*
X9815401Y-24120359D02*
X9824924Y-24139406D01*
X9824924Y-24139406D02*
X9834448Y-24177501D01*
X9834448Y-24177501D02*
X9834448Y-24225121D01*
X9834448Y-24225121D02*
X9824924Y-24263216D01*
X9824924Y-24263216D02*
X9815401Y-24282263D01*
X9815401Y-24282263D02*
X9805877Y-24291787D01*
X9805877Y-24291787D02*
X9786829Y-24301311D01*
X9786829Y-24301311D02*
X9767781Y-24301311D01*
X9767781Y-24301311D02*
X9748734Y-24291787D01*
X9748734Y-24291787D02*
X9739210Y-24282263D01*
X9739210Y-24282263D02*
X9729686Y-24263216D01*
X9729686Y-24263216D02*
X9720162Y-24225121D01*
X9720162Y-24225121D02*
X9720162Y-24177501D01*
X9720162Y-24177501D02*
X9729686Y-24139406D01*
X9729686Y-24139406D02*
X9739210Y-24120359D01*
X9739210Y-24120359D02*
X9748734Y-24110835D01*
X9748734Y-24110835D02*
X9767781Y-24101311D01*
X10072543Y-24301311D02*
X10072543Y-24101311D01*
X10158258Y-24301311D02*
X10158258Y-24196549D01*
X10158258Y-24196549D02*
X10148734Y-24177501D01*
X10148734Y-24177501D02*
X10129686Y-24167978D01*
X10129686Y-24167978D02*
X10101115Y-24167978D01*
X10101115Y-24167978D02*
X10082067Y-24177501D01*
X10082067Y-24177501D02*
X10072543Y-24187025D01*
X10282067Y-24301311D02*
X10263020Y-24291787D01*
X10263020Y-24291787D02*
X10253496Y-24282263D01*
X10253496Y-24282263D02*
X10243972Y-24263216D01*
X10243972Y-24263216D02*
X10243972Y-24206073D01*
X10243972Y-24206073D02*
X10253496Y-24187025D01*
X10253496Y-24187025D02*
X10263020Y-24177501D01*
X10263020Y-24177501D02*
X10282067Y-24167978D01*
X10282067Y-24167978D02*
X10310639Y-24167978D01*
X10310639Y-24167978D02*
X10329686Y-24177501D01*
X10329686Y-24177501D02*
X10339210Y-24187025D01*
X10339210Y-24187025D02*
X10348734Y-24206073D01*
X10348734Y-24206073D02*
X10348734Y-24263216D01*
X10348734Y-24263216D02*
X10339210Y-24282263D01*
X10339210Y-24282263D02*
X10329686Y-24291787D01*
X10329686Y-24291787D02*
X10310639Y-24301311D01*
X10310639Y-24301311D02*
X10282067Y-24301311D01*
X10463020Y-24301311D02*
X10443972Y-24291787D01*
X10443972Y-24291787D02*
X10434448Y-24272740D01*
X10434448Y-24272740D02*
X10434448Y-24101311D01*
X10615401Y-24291787D02*
X10596353Y-24301311D01*
X10596353Y-24301311D02*
X10558258Y-24301311D01*
X10558258Y-24301311D02*
X10539210Y-24291787D01*
X10539210Y-24291787D02*
X10529686Y-24272740D01*
X10529686Y-24272740D02*
X10529686Y-24196549D01*
X10529686Y-24196549D02*
X10539210Y-24177501D01*
X10539210Y-24177501D02*
X10558258Y-24167978D01*
X10558258Y-24167978D02*
X10596353Y-24167978D01*
X10596353Y-24167978D02*
X10615401Y-24177501D01*
X10615401Y-24177501D02*
X10624924Y-24196549D01*
X10624924Y-24196549D02*
X10624924Y-24215597D01*
X10624924Y-24215597D02*
X10529686Y-24234644D01*
X10701115Y-24291787D02*
X10720163Y-24301311D01*
X10720163Y-24301311D02*
X10758258Y-24301311D01*
X10758258Y-24301311D02*
X10777305Y-24291787D01*
X10777305Y-24291787D02*
X10786829Y-24272740D01*
X10786829Y-24272740D02*
X10786829Y-24263216D01*
X10786829Y-24263216D02*
X10777305Y-24244168D01*
X10777305Y-24244168D02*
X10758258Y-24234644D01*
X10758258Y-24234644D02*
X10729686Y-24234644D01*
X10729686Y-24234644D02*
X10710639Y-24225121D01*
X10710639Y-24225121D02*
X10701115Y-24206073D01*
X10701115Y-24206073D02*
X10701115Y-24196549D01*
X10701115Y-24196549D02*
X10710639Y-24177501D01*
X10710639Y-24177501D02*
X10729686Y-24167978D01*
X10729686Y-24167978D02*
X10758258Y-24167978D01*
X10758258Y-24167978D02*
X10777305Y-24177501D01*
X10853496Y-24377501D02*
X10863020Y-24367978D01*
X10863020Y-24367978D02*
X10882067Y-24339406D01*
X10882067Y-24339406D02*
X10891591Y-24320359D01*
X10891591Y-24320359D02*
X10901115Y-24291787D01*
X10901115Y-24291787D02*
X10910639Y-24244168D01*
X10910639Y-24244168D02*
X10910639Y-24206073D01*
X10910639Y-24206073D02*
X10901115Y-24158454D01*
X10901115Y-24158454D02*
X10891591Y-24129882D01*
X10891591Y-24129882D02*
X10882067Y-24110835D01*
X10882067Y-24110835D02*
X10863020Y-24082263D01*
X10863020Y-24082263D02*
X10853496Y-24072740D01*
X11215401Y-24377501D02*
X11205877Y-24367978D01*
X11205877Y-24367978D02*
X11186829Y-24339406D01*
X11186829Y-24339406D02*
X11177305Y-24320359D01*
X11177305Y-24320359D02*
X11167782Y-24291787D01*
X11167782Y-24291787D02*
X11158258Y-24244168D01*
X11158258Y-24244168D02*
X11158258Y-24206073D01*
X11158258Y-24206073D02*
X11167782Y-24158454D01*
X11167782Y-24158454D02*
X11177305Y-24129882D01*
X11177305Y-24129882D02*
X11186829Y-24110835D01*
X11186829Y-24110835D02*
X11205877Y-24082263D01*
X11205877Y-24082263D02*
X11215401Y-24072740D01*
X11291591Y-24167978D02*
X11291591Y-24301311D01*
X11291591Y-24187025D02*
X11301115Y-24177501D01*
X11301115Y-24177501D02*
X11320162Y-24167978D01*
X11320162Y-24167978D02*
X11348734Y-24167978D01*
X11348734Y-24167978D02*
X11367782Y-24177501D01*
X11367782Y-24177501D02*
X11377305Y-24196549D01*
X11377305Y-24196549D02*
X11377305Y-24301311D01*
X11501115Y-24301311D02*
X11482067Y-24291787D01*
X11482067Y-24291787D02*
X11472543Y-24282263D01*
X11472543Y-24282263D02*
X11463020Y-24263216D01*
X11463020Y-24263216D02*
X11463020Y-24206073D01*
X11463020Y-24206073D02*
X11472543Y-24187025D01*
X11472543Y-24187025D02*
X11482067Y-24177501D01*
X11482067Y-24177501D02*
X11501115Y-24167978D01*
X11501115Y-24167978D02*
X11529686Y-24167978D01*
X11529686Y-24167978D02*
X11548734Y-24177501D01*
X11548734Y-24177501D02*
X11558258Y-24187025D01*
X11558258Y-24187025D02*
X11567782Y-24206073D01*
X11567782Y-24206073D02*
X11567782Y-24263216D01*
X11567782Y-24263216D02*
X11558258Y-24282263D01*
X11558258Y-24282263D02*
X11548734Y-24291787D01*
X11548734Y-24291787D02*
X11529686Y-24301311D01*
X11529686Y-24301311D02*
X11501115Y-24301311D01*
X11624924Y-24167978D02*
X11701115Y-24167978D01*
X11653496Y-24101311D02*
X11653496Y-24272740D01*
X11653496Y-24272740D02*
X11663020Y-24291787D01*
X11663020Y-24291787D02*
X11682067Y-24301311D01*
X11682067Y-24301311D02*
X11701115Y-24301311D01*
X11920163Y-24167978D02*
X11920163Y-24367978D01*
X11920163Y-24177501D02*
X11939210Y-24167978D01*
X11939210Y-24167978D02*
X11977305Y-24167978D01*
X11977305Y-24167978D02*
X11996353Y-24177501D01*
X11996353Y-24177501D02*
X12005877Y-24187025D01*
X12005877Y-24187025D02*
X12015401Y-24206073D01*
X12015401Y-24206073D02*
X12015401Y-24263216D01*
X12015401Y-24263216D02*
X12005877Y-24282263D01*
X12005877Y-24282263D02*
X11996353Y-24291787D01*
X11996353Y-24291787D02*
X11977305Y-24301311D01*
X11977305Y-24301311D02*
X11939210Y-24301311D01*
X11939210Y-24301311D02*
X11920163Y-24291787D01*
X12129686Y-24301311D02*
X12110639Y-24291787D01*
X12110639Y-24291787D02*
X12101115Y-24272740D01*
X12101115Y-24272740D02*
X12101115Y-24101311D01*
X12291591Y-24301311D02*
X12291591Y-24196549D01*
X12291591Y-24196549D02*
X12282067Y-24177501D01*
X12282067Y-24177501D02*
X12263020Y-24167978D01*
X12263020Y-24167978D02*
X12224924Y-24167978D01*
X12224924Y-24167978D02*
X12205877Y-24177501D01*
X12291591Y-24291787D02*
X12272544Y-24301311D01*
X12272544Y-24301311D02*
X12224924Y-24301311D01*
X12224924Y-24301311D02*
X12205877Y-24291787D01*
X12205877Y-24291787D02*
X12196353Y-24272740D01*
X12196353Y-24272740D02*
X12196353Y-24253692D01*
X12196353Y-24253692D02*
X12205877Y-24234644D01*
X12205877Y-24234644D02*
X12224924Y-24225121D01*
X12224924Y-24225121D02*
X12272544Y-24225121D01*
X12272544Y-24225121D02*
X12291591Y-24215597D01*
X12358258Y-24167978D02*
X12434448Y-24167978D01*
X12386829Y-24101311D02*
X12386829Y-24272740D01*
X12386829Y-24272740D02*
X12396353Y-24291787D01*
X12396353Y-24291787D02*
X12415401Y-24301311D01*
X12415401Y-24301311D02*
X12434448Y-24301311D01*
X12577305Y-24291787D02*
X12558258Y-24301311D01*
X12558258Y-24301311D02*
X12520163Y-24301311D01*
X12520163Y-24301311D02*
X12501115Y-24291787D01*
X12501115Y-24291787D02*
X12491591Y-24272740D01*
X12491591Y-24272740D02*
X12491591Y-24196549D01*
X12491591Y-24196549D02*
X12501115Y-24177501D01*
X12501115Y-24177501D02*
X12520163Y-24167978D01*
X12520163Y-24167978D02*
X12558258Y-24167978D01*
X12558258Y-24167978D02*
X12577305Y-24177501D01*
X12577305Y-24177501D02*
X12586829Y-24196549D01*
X12586829Y-24196549D02*
X12586829Y-24215597D01*
X12586829Y-24215597D02*
X12491591Y-24234644D01*
X12758258Y-24301311D02*
X12758258Y-24101311D01*
X12758258Y-24291787D02*
X12739210Y-24301311D01*
X12739210Y-24301311D02*
X12701115Y-24301311D01*
X12701115Y-24301311D02*
X12682067Y-24291787D01*
X12682067Y-24291787D02*
X12672544Y-24282263D01*
X12672544Y-24282263D02*
X12663020Y-24263216D01*
X12663020Y-24263216D02*
X12663020Y-24206073D01*
X12663020Y-24206073D02*
X12672544Y-24187025D01*
X12672544Y-24187025D02*
X12682067Y-24177501D01*
X12682067Y-24177501D02*
X12701115Y-24167978D01*
X12701115Y-24167978D02*
X12739210Y-24167978D01*
X12739210Y-24167978D02*
X12758258Y-24177501D01*
X12834448Y-24377501D02*
X12843972Y-24367978D01*
X12843972Y-24367978D02*
X12863020Y-24339406D01*
X12863020Y-24339406D02*
X12872544Y-24320359D01*
X12872544Y-24320359D02*
X12882067Y-24291787D01*
X12882067Y-24291787D02*
X12891591Y-24244168D01*
X12891591Y-24244168D02*
X12891591Y-24206073D01*
X12891591Y-24206073D02*
X12882067Y-24158454D01*
X12882067Y-24158454D02*
X12872544Y-24129882D01*
X12872544Y-24129882D02*
X12863020Y-24110835D01*
X12863020Y-24110835D02*
X12843972Y-24082263D01*
X12843972Y-24082263D02*
X12834448Y-24072740D01*
M02*
