G04 #@! TF.GenerationSoftware,KiCad,Pcbnew,8.0.4*
G04 #@! TF.CreationDate,2024-10-20T10:13:08+02:00*
G04 #@! TF.ProjectId,fairyboard,66616972-7962-46f6-9172-642e6b696361,1*
G04 #@! TF.SameCoordinates,Original*
G04 #@! TF.FileFunction,Soldermask,Bot*
G04 #@! TF.FilePolarity,Negative*
%FSLAX46Y46*%
G04 Gerber Fmt 4.6, Leading zero omitted, Abs format (unit mm)*
G04 Created by KiCad (PCBNEW 8.0.4) date 2024-10-20 10:13:08*
%MOMM*%
%LPD*%
G01*
G04 APERTURE LIST*
G04 Aperture macros list*
%AMRotRect*
0 Rectangle, with rotation*
0 The origin of the aperture is its center*
0 $1 length*
0 $2 width*
0 $3 Rotation angle, in degrees counterclockwise*
0 Add horizontal line*
21,1,$1,$2,0,0,$3*%
G04 Aperture macros list end*
%ADD10C,1.000000*%
%ADD11C,1.700000*%
%ADD12C,2.000000*%
%ADD13RotRect,2.550000X2.500000X313.000000*%
%ADD14C,1.701800*%
%ADD15C,3.000000*%
%ADD16C,3.987800*%
%ADD17C,3.200000*%
%ADD18RotRect,2.600000X2.600000X166.000000*%
%ADD19C,5.000000*%
%ADD20RotRect,2.550000X2.500000X14.000000*%
%ADD21O,1.700000X1.700000*%
%ADD22RotRect,2.550000X2.500000X346.000000*%
%ADD23RotRect,2.600000X2.600000X194.000000*%
%ADD24RotRect,0.900000X1.200000X43.000000*%
%ADD25RotRect,0.900000X1.200000X104.000000*%
%ADD26RotRect,0.900000X1.200000X76.000000*%
%ADD27RotRect,2.550000X2.500000X47.000000*%
%ADD28RotRect,0.900000X1.200000X137.000000*%
%ADD29RotRect,2.600000X2.600000X210.500000*%
%ADD30C,1.800000*%
%ADD31C,1.100000*%
%ADD32C,0.700000*%
%ADD33C,4.400000*%
%ADD34RotRect,0.900000X1.200000X59.500000*%
%ADD35RotRect,2.600000X2.600000X133.000000*%
%ADD36RotRect,2.600000X2.600000X149.500000*%
%ADD37O,1.752600X1.752600*%
%ADD38O,1.200000X1.700000*%
%ADD39R,1.200000X1.700000*%
%ADD40RotRect,2.550000X2.500000X329.500000*%
%ADD41RotRect,2.600000X2.600000X227.000000*%
%ADD42RotRect,0.900000X1.200000X120.500000*%
%ADD43RotRect,2.550000X2.500000X30.500000*%
G04 APERTURE END LIST*
D10*
X231231985Y-117124838D03*
X228231985Y-117124838D03*
D11*
X191231963Y-117374830D03*
X196231963Y-117374830D03*
D12*
X197231963Y-119874830D03*
X190231963Y-119874830D03*
D13*
X182109080Y-204263909D03*
X171435249Y-196541975D03*
D14*
X177874121Y-207171163D03*
D15*
X179857123Y-201848973D03*
D16*
X174409569Y-203455892D03*
D15*
X173668796Y-198937160D03*
D14*
X170945017Y-199740621D03*
D17*
X340256642Y-125472639D03*
D18*
X97811668Y-150499135D03*
X108486355Y-155427994D03*
D14*
X101411446Y-147531870D03*
D15*
X100989386Y-151291439D03*
D19*
X106748072Y-148862440D03*
D15*
X105308637Y-154635700D03*
D14*
X112084698Y-150193010D03*
D20*
X262582595Y-143210581D03*
X250654064Y-148802456D03*
D14*
X263072193Y-148324028D03*
D15*
X259378679Y-144009407D03*
D16*
X258143091Y-149552991D03*
D15*
X253831783Y-148010169D03*
D14*
X253213989Y-150781954D03*
D11*
X216811994Y-151211382D03*
D21*
X214271990Y-151211386D03*
X211731989Y-151211387D03*
X209191988Y-151211386D03*
X206651989Y-151211386D03*
D22*
X132806898Y-147032266D03*
X119649403Y-146369493D03*
D14*
X130838569Y-151777024D03*
D15*
X129602980Y-146233438D03*
D16*
X125909467Y-150548061D03*
D15*
X122827117Y-147161787D03*
D14*
X120980365Y-149319098D03*
D23*
X330569701Y-160094533D03*
X342308844Y-159434986D03*
D14*
X332355065Y-155784591D03*
D15*
X333747419Y-159302238D03*
D19*
X337691691Y-154454021D03*
D15*
X339131126Y-160227281D03*
D14*
X343028317Y-153123451D03*
D24*
X177647722Y-210007580D03*
X175234254Y-212258174D03*
D23*
X251021101Y-155193503D03*
X262760244Y-154533956D03*
D14*
X252806465Y-150883561D03*
D15*
X254198819Y-154401208D03*
D19*
X258143091Y-149552991D03*
D15*
X259582526Y-155326251D03*
D14*
X263479717Y-148222421D03*
D25*
X304854627Y-150892229D03*
X305652969Y-154094205D03*
X344991786Y-154798191D03*
X345790128Y-158000167D03*
D23*
X340296136Y-120567374D03*
X352035279Y-119907827D03*
D14*
X342081500Y-116257432D03*
D15*
X343473854Y-119775079D03*
D19*
X347418126Y-114926862D03*
D15*
X348857561Y-120700122D03*
D14*
X352754752Y-113596292D03*
D23*
X290432521Y-156188594D03*
X302171664Y-155529047D03*
D14*
X292217885Y-151878652D03*
D15*
X293610239Y-155396299D03*
D19*
X297554511Y-150548082D03*
D15*
X298993946Y-156321342D03*
D14*
X302891137Y-149217512D03*
D26*
X149419502Y-163727143D03*
X148621160Y-166929119D03*
D20*
X337534685Y-129675997D03*
X325606154Y-135267872D03*
D14*
X338024283Y-134789444D03*
D15*
X334330769Y-130474823D03*
D16*
X333095181Y-136018407D03*
D15*
X328783873Y-134475585D03*
D14*
X328166079Y-137247370D03*
D25*
X340395278Y-136362587D03*
X341193620Y-139564563D03*
D20*
X275574969Y-116782404D03*
X263646438Y-122374279D03*
D14*
X276064567Y-121895851D03*
D15*
X272371053Y-117581230D03*
D16*
X271135465Y-123124814D03*
D15*
X266824157Y-121581992D03*
D14*
X266206363Y-124353777D03*
D26*
X117628616Y-134157905D03*
X116830274Y-137359881D03*
D18*
X126166088Y-115313536D03*
X136840775Y-120242395D03*
D14*
X129765866Y-112346271D03*
D15*
X129343806Y-116105840D03*
D19*
X135102492Y-113676841D03*
D15*
X133663057Y-119450101D03*
D14*
X140439118Y-115007411D03*
D26*
X136790005Y-135843539D03*
X135991663Y-139045515D03*
D17*
X264639284Y-136338901D03*
D23*
X273206514Y-165636566D03*
X284945657Y-164977019D03*
D14*
X274991878Y-161326624D03*
D15*
X276384232Y-164844271D03*
D19*
X280328504Y-159996054D03*
D15*
X281767939Y-165769314D03*
D14*
X285665130Y-158665484D03*
D25*
X359314748Y-133706659D03*
X360113090Y-136908635D03*
X324015992Y-149206589D03*
X324814334Y-152408565D03*
D27*
X249323348Y-195718763D03*
X242364793Y-206905248D03*
D14*
X252518943Y-199740611D03*
D15*
X247071383Y-198133692D03*
D16*
X249054390Y-203455883D03*
D15*
X244598338Y-204510065D03*
D14*
X245589837Y-207171155D03*
D18*
X138795575Y-143197134D03*
X149470262Y-148125993D03*
D14*
X142395353Y-140229869D03*
D15*
X141973293Y-143989438D03*
D19*
X147731979Y-141560439D03*
D15*
X146292544Y-147333699D03*
D14*
X153068605Y-142891009D03*
D26*
X158612516Y-126855910D03*
X157814174Y-130057886D03*
D17*
X149631657Y-173210152D03*
D28*
X255364230Y-199768605D03*
X257777698Y-202019199D03*
D20*
X332938165Y-111240381D03*
X321009634Y-116832256D03*
D14*
X333427763Y-116353828D03*
D15*
X329734249Y-112039207D03*
D16*
X328498661Y-117582791D03*
D15*
X324187353Y-116039969D03*
D14*
X323569559Y-118811754D03*
D23*
X281239505Y-119317352D03*
X292978648Y-118657805D03*
D14*
X283024869Y-115007410D03*
D15*
X284417223Y-118525057D03*
D19*
X288361495Y-113676840D03*
D15*
X289800930Y-119450100D03*
D14*
X293698121Y-112346270D03*
D23*
X325973191Y-141658919D03*
X337712334Y-140999372D03*
D14*
X327758555Y-137348977D03*
D15*
X329150909Y-140866624D03*
D19*
X333095181Y-136018407D03*
D15*
X334534616Y-141791667D03*
D14*
X338431807Y-134687837D03*
D29*
X260618385Y-197410905D03*
X271686782Y-193444421D03*
D14*
X261106133Y-192771377D03*
D15*
X263440206Y-195748717D03*
D19*
X265845093Y-189979916D03*
D15*
X268864946Y-195106610D03*
D14*
X270584053Y-187188455D03*
D23*
X304997388Y-136067333D03*
X316736531Y-135407786D03*
D14*
X306782752Y-131757391D03*
D15*
X308175106Y-135275038D03*
D19*
X312119378Y-130426821D03*
D15*
X313558813Y-136200081D03*
D14*
X317456004Y-129096251D03*
D26*
X171604900Y-153284079D03*
X170806558Y-156486055D03*
X132193494Y-154279144D03*
X131395152Y-157481120D03*
D18*
X128755819Y-183464404D03*
X139430506Y-188393263D03*
D14*
X132355597Y-180497139D03*
D15*
X131933537Y-184256708D03*
D19*
X137692223Y-181827709D03*
D15*
X136252788Y-187600969D03*
D14*
X143028849Y-183158279D03*
D18*
X160980990Y-132754072D03*
X171655677Y-137682931D03*
D14*
X164580768Y-129786807D03*
D15*
X164158708Y-133546376D03*
D19*
X169917394Y-131117377D03*
D15*
X168477959Y-136890637D03*
D14*
X175254020Y-132447947D03*
D18*
X134199041Y-161632755D03*
X144873728Y-166561614D03*
D14*
X137798819Y-158665490D03*
D15*
X137376759Y-162425059D03*
D19*
X143135445Y-159996060D03*
D15*
X141696010Y-165769320D03*
D14*
X148472071Y-161326630D03*
D30*
X198351981Y-151211382D03*
X195811986Y-151211377D03*
X193271982Y-151211381D03*
X190731981Y-151211382D03*
X188191980Y-151211381D03*
X185651981Y-151211381D03*
X183111981Y-151211382D03*
X180571981Y-151211382D03*
D31*
X198351982Y-153751382D03*
X195811981Y-153751382D03*
X193271981Y-153751382D03*
X190731981Y-153751382D03*
X188191981Y-153751382D03*
X185651981Y-153751382D03*
X183111980Y-153751382D03*
X180571981Y-153751382D03*
D26*
X101249342Y-121313853D03*
X100451000Y-124515829D03*
D20*
X321155390Y-142520045D03*
X309226859Y-148111920D03*
D14*
X321644988Y-147633492D03*
D15*
X317951474Y-143318871D03*
D16*
X316715886Y-148862455D03*
D15*
X312404578Y-147319633D03*
D14*
X311786784Y-150091418D03*
D32*
X236354285Y-125613068D03*
X236167623Y-126862052D03*
X235603110Y-124597913D03*
X235152468Y-127613227D03*
D33*
X234753297Y-126012239D03*
D32*
X234354126Y-124411251D03*
X233903484Y-127426565D03*
X233338971Y-125162426D03*
X233152309Y-126411410D03*
D23*
X268609993Y-147200957D03*
X280349136Y-146541410D03*
D14*
X270395357Y-142891015D03*
D15*
X271787711Y-146408662D03*
D19*
X275731983Y-141560445D03*
D15*
X277171418Y-147333705D03*
D14*
X281068609Y-140229875D03*
D22*
X122838539Y-108475407D03*
X109681044Y-107812634D03*
D14*
X120870210Y-113220165D03*
D15*
X119634621Y-107676579D03*
D16*
X115941108Y-111991202D03*
D15*
X112858758Y-108604928D03*
D14*
X111012006Y-110762239D03*
D22*
X172218300Y-146037195D03*
X159060805Y-145374422D03*
D14*
X170249971Y-150781953D03*
D15*
X169014382Y-145238367D03*
D16*
X165320869Y-149552990D03*
D15*
X162238519Y-146166716D03*
D14*
X160391767Y-148324027D03*
D34*
X162584446Y-195342118D03*
X160909570Y-198185494D03*
D18*
X156384465Y-151189685D03*
X167059152Y-156118544D03*
D14*
X159984243Y-148222420D03*
D15*
X159562183Y-151981989D03*
D19*
X165320869Y-149552990D03*
D15*
X163881434Y-155326250D03*
D14*
X170657495Y-150883560D03*
D18*
X121569563Y-133749149D03*
X132244250Y-138678008D03*
D14*
X125169341Y-130781884D03*
D15*
X124747281Y-134541453D03*
D19*
X130505967Y-132112454D03*
D15*
X129066532Y-137885714D03*
D14*
X135842593Y-133443024D03*
D23*
X246424595Y-136757888D03*
X258163738Y-136098341D03*
D14*
X248209959Y-132447946D03*
D15*
X249602313Y-135965593D03*
D19*
X253546585Y-131117376D03*
D15*
X254986020Y-136890636D03*
D14*
X258883211Y-129786806D03*
D18*
X81432395Y-137655115D03*
X92107082Y-142583974D03*
D14*
X85032173Y-134687850D03*
D15*
X84610113Y-138447419D03*
D19*
X90368799Y-136018420D03*
D15*
X88929364Y-141791680D03*
D14*
X95705425Y-137348990D03*
D25*
X260846680Y-131461551D03*
X261645022Y-134663527D03*
D26*
X122225144Y-115722275D03*
X121426802Y-118924251D03*
D25*
X283032084Y-141904608D03*
X283830426Y-145106584D03*
X293071846Y-182171891D03*
X293870188Y-185373867D03*
D18*
X116973063Y-152184756D03*
X127647750Y-157113615D03*
D14*
X120572841Y-149217491D03*
D15*
X120150781Y-152977060D03*
D19*
X125909467Y-150548061D03*
D15*
X124470032Y-156321321D03*
D14*
X131246093Y-151878631D03*
D23*
X344892648Y-139002997D03*
X356631791Y-138343450D03*
D14*
X346678012Y-134693055D03*
D15*
X348070366Y-138210702D03*
D19*
X352014638Y-133362485D03*
D15*
X353454073Y-139135745D03*
D14*
X357351264Y-132031915D03*
D17*
X123102580Y-122536975D03*
D35*
X166023455Y-199961433D03*
X172291557Y-209908966D03*
D14*
X170658578Y-199433447D03*
D15*
X168257001Y-202356617D03*
D19*
X174409569Y-203455892D03*
D15*
X170058013Y-207513784D03*
D14*
X178160560Y-207478337D03*
D22*
X141999923Y-110161046D03*
X128842428Y-109498273D03*
D14*
X140031594Y-114905804D03*
D15*
X138796005Y-109362218D03*
D16*
X135102492Y-113676841D03*
D15*
X132020142Y-110290567D03*
D14*
X130173390Y-112447878D03*
D20*
X292800999Y-107334430D03*
X280872468Y-112926305D03*
D14*
X293290597Y-112447877D03*
D15*
X289597083Y-108133256D03*
D16*
X288361495Y-113676840D03*
D15*
X284050187Y-112134018D03*
D14*
X283432393Y-114905803D03*
D36*
X148585617Y-189011150D03*
X157420850Y-196768810D03*
D14*
X152879908Y-187188467D03*
D15*
X151407453Y-190673340D03*
D19*
X157618868Y-189979928D03*
D15*
X154599015Y-195106622D03*
D14*
X162357828Y-192771389D03*
D25*
X287628603Y-160340225D03*
X288426945Y-163542201D03*
D26*
X77733357Y-137093561D03*
X76935015Y-140295537D03*
D20*
X284768008Y-153653644D03*
X272839477Y-159245519D03*
D14*
X285257606Y-158767091D03*
D15*
X281564092Y-154452470D03*
D16*
X280328504Y-159996054D03*
D15*
X276017196Y-158453232D03*
D14*
X275399402Y-161225017D03*
D22*
X137403398Y-128596659D03*
X124245903Y-127933886D03*
D14*
X135435069Y-133341417D03*
D15*
X134199480Y-127797831D03*
D16*
X130505967Y-132112454D03*
D15*
X127423617Y-128726180D03*
D14*
X125576865Y-130883491D03*
D20*
X311962378Y-105648794D03*
X300033847Y-111240669D03*
D14*
X312451976Y-110762241D03*
D15*
X308758462Y-106447620D03*
D16*
X307522874Y-111991204D03*
D15*
X303211566Y-110448382D03*
D14*
X302593772Y-113220167D03*
D32*
X186634454Y-141159902D03*
X185883279Y-142175057D03*
X186447792Y-139910918D03*
X184634295Y-142361719D03*
D33*
X185033466Y-140760731D03*
D32*
X185432637Y-139159743D03*
X183619140Y-141610544D03*
X184183653Y-139346405D03*
X183432478Y-140361560D03*
D25*
X314822980Y-112335386D03*
X315621322Y-115537362D03*
D20*
X297397491Y-125770034D03*
X285468960Y-131361909D03*
D14*
X297887089Y-130883481D03*
D15*
X294193575Y-126568860D03*
D16*
X292957987Y-132112444D03*
D15*
X288646679Y-130569622D03*
D14*
X288028885Y-133341407D03*
D18*
X143392089Y-124761519D03*
X154066776Y-129690378D03*
D14*
X146991867Y-121794254D03*
D15*
X146569807Y-125553823D03*
D19*
X152328493Y-123124824D03*
D15*
X150889058Y-128898084D03*
D14*
X157665119Y-124455394D03*
D22*
X144589654Y-178311914D03*
X131432159Y-177649141D03*
D14*
X142621325Y-183056672D03*
D15*
X141385736Y-177513086D03*
D16*
X137692223Y-181827709D03*
D15*
X134609873Y-178441435D03*
D14*
X132763121Y-180598746D03*
D20*
X280171487Y-135218035D03*
X268242956Y-140809910D03*
D14*
X280661085Y-140331482D03*
D15*
X276967571Y-136016861D03*
D16*
X275731983Y-141560445D03*
D15*
X271420675Y-140017623D03*
D14*
X270802881Y-142789408D03*
D17*
X256385688Y-195392121D03*
D22*
X118242033Y-126911029D03*
X105084538Y-126248256D03*
D14*
X116273704Y-131655787D03*
D15*
X115038115Y-126112201D03*
D16*
X111344602Y-130426824D03*
D15*
X108262252Y-127040550D03*
D14*
X106415500Y-129197861D03*
D23*
X285835997Y-137752956D03*
X297575140Y-137093409D03*
D14*
X287621361Y-133443014D03*
D15*
X289013715Y-136960661D03*
D19*
X292957987Y-132112444D03*
D15*
X294397422Y-137885704D03*
D14*
X298294613Y-130781874D03*
D37*
X206651980Y-146972382D03*
X209191980Y-146972382D03*
X211731980Y-146972382D03*
X214271980Y-146972382D03*
X216811980Y-146972382D03*
D21*
X211731980Y-141892382D03*
X214271980Y-141892382D03*
X216811981Y-141892383D03*
X219351980Y-119032382D03*
X219351980Y-121572382D03*
X219351980Y-124112382D03*
X219351976Y-126652385D03*
X219351980Y-129192382D03*
X219351980Y-131732382D03*
X219351980Y-134272382D03*
X219351973Y-136812382D03*
X219351980Y-139352382D03*
X219351980Y-141892382D03*
X219351980Y-144432382D03*
X219351978Y-146972381D03*
X204111982Y-146972382D03*
X204111980Y-144432382D03*
X204111980Y-141892382D03*
X204111980Y-139352382D03*
X204111984Y-136812379D03*
X204111980Y-134272382D03*
X204111980Y-131732382D03*
X204111980Y-129192382D03*
X204111987Y-126652382D03*
X204111980Y-124112382D03*
X204111980Y-121572382D03*
X204111980Y-119032382D03*
D32*
X190311658Y-126411416D03*
X189560483Y-127426571D03*
X190124996Y-125162432D03*
X188311499Y-127613233D03*
D33*
X188710670Y-126012245D03*
D32*
X189109841Y-124411257D03*
X187296344Y-126862058D03*
X187860857Y-124597919D03*
X187109682Y-125613074D03*
D38*
X227731986Y-131593382D03*
D39*
X225731986Y-131593382D03*
D26*
X113032115Y-152593525D03*
X112233773Y-155795501D03*
D23*
X278649747Y-187468238D03*
X290388890Y-186808691D03*
D14*
X280435111Y-183158296D03*
D15*
X281827465Y-186675943D03*
D19*
X285771737Y-181827726D03*
D15*
X287211172Y-187600986D03*
D14*
X291108363Y-180497156D03*
D18*
X86028907Y-119219500D03*
X96703594Y-124148359D03*
D14*
X89628685Y-116252235D03*
D15*
X89206625Y-120011804D03*
D19*
X94965311Y-117582805D03*
D15*
X93525876Y-123356065D03*
D14*
X100301937Y-118913375D03*
D26*
X82329875Y-118657949D03*
X81531533Y-121859925D03*
D17*
X167078276Y-195392110D03*
D22*
X101862742Y-114067010D03*
X88705247Y-113404237D03*
D14*
X99894413Y-118811768D03*
D15*
X98658824Y-113268182D03*
D16*
X94965311Y-117582805D03*
D15*
X91882961Y-114196531D03*
D14*
X90036209Y-116353842D03*
D25*
X335798766Y-117926965D03*
X336597108Y-121128941D03*
D17*
X300361397Y-122536979D03*
D23*
X255617627Y-173629134D03*
X267356770Y-172969587D03*
D14*
X257402991Y-169319192D03*
D15*
X258795345Y-172836839D03*
D19*
X262739617Y-167988622D03*
D15*
X264179052Y-173761882D03*
D14*
X268076243Y-166658052D03*
D17*
X95517362Y-146783741D03*
D25*
X265443182Y-149897167D03*
X266241524Y-153099143D03*
D23*
X300400884Y-117631716D03*
X312140027Y-116972169D03*
D14*
X302186248Y-113321774D03*
D15*
X303578602Y-116839421D03*
D19*
X307522874Y-111991204D03*
D15*
X308962309Y-117764464D03*
D14*
X312859500Y-110660634D03*
D22*
X159225924Y-119609029D03*
X146068429Y-118946256D03*
D14*
X157257595Y-124353787D03*
D15*
X156022006Y-118810201D03*
D16*
X152328493Y-123124824D03*
D15*
X149246143Y-119738550D03*
D14*
X147399391Y-121895861D03*
D23*
X321376671Y-123223303D03*
X333115814Y-122563756D03*
D14*
X323162035Y-118913361D03*
D15*
X324554389Y-122431008D03*
D19*
X328498661Y-117582791D03*
D15*
X329938096Y-123356051D03*
D14*
X333835287Y-116252221D03*
D26*
X143976262Y-185558779D03*
X143177920Y-188760755D03*
D25*
X270039712Y-168332793D03*
X270838054Y-171534769D03*
X319419481Y-130770972D03*
X320217823Y-133972948D03*
D22*
X176814825Y-127601582D03*
X163657330Y-126938809D03*
D14*
X174846496Y-132346340D03*
D15*
X173610907Y-126802754D03*
D16*
X169917394Y-131117377D03*
D15*
X166835044Y-127731103D03*
D14*
X164988292Y-129888414D03*
D26*
X154016024Y-145291525D03*
X153217682Y-148493501D03*
D20*
X301994015Y-144205672D03*
X290065484Y-149797547D03*
D14*
X302483613Y-149319119D03*
D15*
X298790099Y-145004498D03*
D16*
X297554511Y-150548082D03*
D15*
X293243203Y-149005260D03*
D14*
X292625409Y-151777045D03*
D25*
X300258082Y-132456627D03*
X301056424Y-135658603D03*
D20*
X257986089Y-124774966D03*
X246057558Y-130366841D03*
D14*
X258475687Y-129888413D03*
D15*
X254782173Y-125573792D03*
D16*
X253546585Y-131117376D03*
D15*
X249235277Y-129574554D03*
D14*
X248617483Y-132346339D03*
D20*
X351857630Y-108584452D03*
X339929099Y-114176327D03*
D14*
X352347228Y-113697899D03*
D15*
X348653714Y-109383278D03*
D16*
X347418126Y-114926862D03*
D15*
X343106818Y-113384040D03*
D14*
X342489024Y-116155825D03*
D18*
X102408198Y-132063519D03*
X113082885Y-136992378D03*
D14*
X106007976Y-129096254D03*
D15*
X105585916Y-132855823D03*
D19*
X111344602Y-130426824D03*
D15*
X109905167Y-136200084D03*
D14*
X116681228Y-131757394D03*
D20*
X267179121Y-161646212D03*
X255250590Y-167238087D03*
D14*
X267668719Y-166759659D03*
D15*
X263975205Y-162445038D03*
D16*
X262739617Y-167988622D03*
D15*
X258428309Y-166445800D03*
D14*
X257810515Y-169217585D03*
D20*
X342131195Y-148111611D03*
X330202664Y-153703486D03*
D14*
X342620793Y-153225058D03*
D15*
X338927279Y-148910437D03*
D16*
X337691691Y-154454021D03*
D15*
X333380383Y-152911199D03*
D14*
X332762589Y-155682984D03*
D32*
X240031499Y-140361559D03*
X239844837Y-141610543D03*
X239280324Y-139346404D03*
X238829682Y-142361718D03*
D33*
X238430511Y-140760730D03*
D32*
X238031340Y-139159742D03*
X237580698Y-142175056D03*
X237016185Y-139910917D03*
X236829523Y-141159901D03*
D30*
X235331990Y-151211389D03*
X232791990Y-151211389D03*
X230251990Y-151211389D03*
X227711990Y-151211389D03*
X225171989Y-151211388D03*
D31*
X235331990Y-153751389D03*
X232791991Y-153751391D03*
X230251991Y-153751390D03*
X227711990Y-153751389D03*
X225171989Y-153751390D03*
D40*
X165230800Y-188567891D03*
X152803372Y-184195482D03*
D14*
X161995944Y-192558223D03*
D15*
X162385701Y-186891999D03*
D16*
X157618868Y-189979928D03*
D15*
X155625208Y-185857669D03*
D14*
X153241792Y-187401633D03*
D26*
X96652811Y-139749476D03*
X95854469Y-142951452D03*
D22*
X82943274Y-111411051D03*
X69785779Y-110748278D03*
D14*
X80974945Y-116155809D03*
D15*
X79739356Y-110612223D03*
D16*
X76045843Y-114926846D03*
D15*
X72963493Y-111540572D03*
D14*
X71116741Y-113697883D03*
D41*
X246153429Y-212065330D03*
X255639490Y-205118589D03*
D14*
X245303394Y-207478326D03*
D15*
X248386975Y-209670145D03*
D19*
X249054390Y-203455883D03*
D15*
X253405946Y-207513775D03*
D14*
X252805386Y-199433440D03*
D18*
X107004704Y-113627897D03*
X117679391Y-118556756D03*
D14*
X110604482Y-110660632D03*
D15*
X110182422Y-114420201D03*
D19*
X115941108Y-111991202D03*
D15*
X114501673Y-117764462D03*
D14*
X121277734Y-113321772D03*
D22*
X97266230Y-132502625D03*
X84108735Y-131839852D03*
D14*
X95297901Y-137247383D03*
D15*
X94062312Y-131703797D03*
D16*
X90368799Y-136018420D03*
D15*
X87286449Y-132632146D03*
D14*
X85439697Y-134789457D03*
D18*
X76835867Y-156090727D03*
X87510554Y-161019586D03*
D14*
X80435645Y-153123462D03*
D15*
X80013585Y-156883031D03*
D19*
X85772271Y-154454032D03*
D15*
X84332836Y-160227292D03*
D14*
X91108897Y-155784602D03*
D22*
X78346751Y-129846704D03*
X65189256Y-129183931D03*
D14*
X76378422Y-134591462D03*
D15*
X75142833Y-129047876D03*
D16*
X71449320Y-133362499D03*
D15*
X68366970Y-129976225D03*
D14*
X66520218Y-132133536D03*
D22*
X92669702Y-150938237D03*
X79512207Y-150275464D03*
D14*
X90701373Y-155682995D03*
D15*
X89465784Y-150139409D03*
D16*
X85772271Y-154454032D03*
D15*
X82689921Y-151067758D03*
D14*
X80843169Y-153225069D03*
D23*
X264013475Y-128765326D03*
X275752618Y-128105779D03*
D14*
X265798839Y-124455384D03*
D15*
X267191193Y-127973031D03*
D19*
X271135465Y-123124814D03*
D15*
X272574900Y-128898074D03*
D14*
X276472091Y-121794244D03*
D17*
X158824686Y-136338908D03*
X83207322Y-125472623D03*
D22*
X150032876Y-156480265D03*
X136875381Y-155817492D03*
D14*
X148064547Y-161225023D03*
D15*
X146828958Y-155681437D03*
D16*
X143135445Y-159996060D03*
D15*
X140053095Y-156609786D03*
D14*
X138206343Y-158767097D03*
D17*
X327946609Y-146783727D03*
D18*
X62512916Y-134999194D03*
X73187603Y-139928053D03*
D14*
X66112694Y-132031929D03*
D15*
X65690634Y-135791498D03*
D19*
X71449320Y-133362499D03*
D15*
X70009885Y-139135759D03*
D14*
X76785946Y-134693069D03*
D20*
X290211241Y-175485316D03*
X278282710Y-181077191D03*
D14*
X290700839Y-180598763D03*
D15*
X287007325Y-176284142D03*
D16*
X285771737Y-181827726D03*
D15*
X281460429Y-180284904D03*
D14*
X280842635Y-183056689D03*
D20*
X316558882Y-124084411D03*
X304630351Y-129676286D03*
D14*
X317048480Y-129197858D03*
D15*
X313354966Y-124883237D03*
D16*
X312119378Y-130426821D03*
D15*
X307808070Y-128883999D03*
D14*
X307190276Y-131655784D03*
D25*
X354718236Y-115271032D03*
X355516578Y-118473008D03*
D26*
X92056300Y-158185115D03*
X91257958Y-161387091D03*
X167008395Y-171719694D03*
X166210053Y-174921670D03*
D22*
X167621793Y-164472822D03*
X154464298Y-163810049D03*
D14*
X165653464Y-169217580D03*
D15*
X164417875Y-163673994D03*
D16*
X160724362Y-167988617D03*
D15*
X157642012Y-164602343D03*
D14*
X155795260Y-166759654D03*
D26*
X176201414Y-134848447D03*
X175403072Y-138050423D03*
D22*
X113645503Y-145346645D03*
X100488008Y-144683872D03*
D14*
X111677174Y-150091403D03*
D15*
X110441585Y-144547817D03*
D16*
X106748072Y-148862440D03*
D15*
X103665722Y-145476166D03*
D14*
X101818970Y-147633477D03*
D42*
X272942338Y-188236575D03*
X274617214Y-191079951D03*
D26*
X141386521Y-117407898D03*
X140588179Y-120609874D03*
D22*
X154629410Y-138044644D03*
X141471915Y-137381871D03*
D14*
X152661081Y-142789402D03*
D15*
X151425492Y-137245816D03*
D16*
X147731979Y-141560439D03*
D15*
X144649629Y-138174165D03*
D14*
X142802877Y-140331476D03*
D23*
X309593896Y-154502967D03*
X321333039Y-153843420D03*
D14*
X311379260Y-150193025D03*
D15*
X312771614Y-153710672D03*
D19*
X316715886Y-148862455D03*
D15*
X318155321Y-154635715D03*
D14*
X322052512Y-147531885D03*
D25*
X278435564Y-123468985D03*
X279233906Y-126670961D03*
X295661573Y-114020998D03*
X296459915Y-117222974D03*
D20*
X356454142Y-127020075D03*
X344525611Y-132611950D03*
D14*
X356943740Y-132133522D03*
D15*
X353250226Y-127818901D03*
D16*
X352014638Y-133362485D03*
D15*
X347703330Y-131819663D03*
D14*
X347085536Y-134591448D03*
D17*
X273832318Y-173210152D03*
D43*
X268300437Y-182637800D03*
X258451304Y-191387288D03*
D14*
X270222169Y-187401621D03*
D15*
X265455336Y-184313692D03*
D16*
X265845093Y-189979916D03*
D15*
X261273138Y-189725099D03*
D14*
X261468017Y-192558211D03*
D18*
X151787958Y-169625312D03*
X162462645Y-174554171D03*
D14*
X155387736Y-166658047D03*
D15*
X154965676Y-170417616D03*
D19*
X160724362Y-167988617D03*
D15*
X159284927Y-173761877D03*
D14*
X166060988Y-169319187D03*
D18*
X67109439Y-116563541D03*
X77784126Y-121492400D03*
D14*
X70709217Y-113596276D03*
D15*
X70287157Y-117355845D03*
D19*
X76045843Y-114926846D03*
D15*
X74606408Y-120700106D03*
D14*
X81382469Y-116257416D03*
M02*
