G04 #@! TF.GenerationSoftware,KiCad,Pcbnew,8.0.4*
G04 #@! TF.CreationDate,2024-10-20T10:13:09+02:00*
G04 #@! TF.ProjectId,fairyboard,66616972-7962-46f6-9172-642e6b696361,1*
G04 #@! TF.SameCoordinates,Original*
G04 #@! TF.FileFunction,Profile,NP*
%FSLAX46Y46*%
G04 Gerber Fmt 4.6, Leading zero omitted, Abs format (unit mm)*
G04 Created by KiCad (PCBNEW 8.0.4) date 2024-10-20 10:13:09*
%MOMM*%
%LPD*%
G01*
G04 APERTURE LIST*
G04 #@! TA.AperFunction,Profile*
%ADD10C,0.150000*%
G04 #@! TD*
G04 APERTURE END LIST*
D10*
X76890539Y-146674264D02*
X73310104Y-161034626D01*
X125661469Y-103593321D02*
X109360511Y-99529032D01*
X68131814Y-103265915D02*
G75*
G02*
X69465253Y-102464681I1067386J-266185D01*
G01*
X317444851Y-108383687D02*
X315436892Y-100330247D01*
X294942087Y-101214671D02*
G75*
G02*
X296275529Y-102015886I266113J-1067329D01*
G01*
X250322818Y-217491602D02*
G75*
G02*
X248768095Y-217545922I-804518J750102D01*
G01*
X168608680Y-181839258D02*
G75*
G02*
X168345840Y-180822946I804320J750158D01*
G01*
X318778280Y-109184924D02*
G75*
G02*
X317444806Y-108383698I-266080J1067424D01*
G01*
X174575296Y-155837946D02*
G75*
G02*
X175642621Y-155004090I1067404J-266254D01*
G01*
X106019101Y-108383693D02*
G75*
G02*
X104685652Y-109184987I-1067501J266293D01*
G01*
X247821353Y-155004059D02*
G75*
G02*
X248888625Y-155837953I147J-1099741D01*
G01*
X168608680Y-181839258D02*
X188499584Y-203169634D01*
X108027060Y-100330236D02*
G75*
G02*
X109360508Y-99529046I1067340J-266164D01*
G01*
X337697756Y-106528991D02*
G75*
G02*
X336412673Y-105921843I-287056J1055991D01*
G01*
X279389565Y-194240415D02*
X297432696Y-189741752D01*
X126031274Y-189741765D02*
G75*
G02*
X125230026Y-188408309I266126J1067365D01*
G01*
X128521884Y-101214655D02*
X184570975Y-115189290D01*
X74111302Y-162368071D02*
G75*
G02*
X73310145Y-161034636I266098J1067271D01*
G01*
X296469060Y-102792109D02*
X296275527Y-102015886D01*
X184837059Y-115221945D02*
G75*
G02*
X184570975Y-115189291I-59J1099945D01*
G01*
X292113288Y-163859838D02*
G75*
G02*
X292914503Y-162526428I1067412J266038D01*
G01*
X144074417Y-194240421D02*
G75*
G02*
X144366589Y-194359951I-266217J-1067579D01*
G01*
X95694257Y-158061532D02*
G75*
G02*
X97027721Y-157260345I1067343J-266168D01*
G01*
X160459029Y-203891683D02*
X173141131Y-217491604D01*
X76089344Y-145340827D02*
G75*
G02*
X76890519Y-146674259I-266244J-1067373D01*
G01*
X188499584Y-203169634D02*
G75*
G02*
X188445259Y-204724290I-804484J-750166D01*
G01*
X247821350Y-155004058D02*
X175642621Y-155004059D01*
X263251139Y-203694109D02*
X279097360Y-194359958D01*
X234964395Y-203169624D02*
X254855287Y-181839264D01*
X353998717Y-102464705D02*
X337697756Y-106528991D01*
X335079255Y-105120611D02*
G75*
G02*
X336412637Y-105921849I266145J-1067189D01*
G01*
X364476811Y-139943079D02*
G75*
G02*
X363675586Y-141276520I-1067311J-266121D01*
G01*
X235018688Y-204724325D02*
X248768131Y-217545884D01*
X298233910Y-188408320D02*
G75*
G02*
X297432697Y-189741756I-1067210J-266180D01*
G01*
X87051274Y-105921830D02*
G75*
G02*
X88384701Y-105120607I1067426J-266270D01*
G01*
X93686314Y-166114988D02*
G75*
G02*
X92352870Y-166916203I-1067314J266088D01*
G01*
X168345849Y-180822948D02*
X174575296Y-155837946D01*
X350153855Y-161034618D02*
G75*
G02*
X349352664Y-162368084I-1067255J-266182D01*
G01*
X327769717Y-158061543D02*
X329777648Y-166114985D01*
X114662130Y-160523404D02*
X114855633Y-159747162D01*
X97027723Y-157260338D02*
X113328674Y-161324606D01*
X347374621Y-145340813D02*
X363675587Y-141276524D01*
X307274876Y-158945955D02*
G75*
G02*
X308608271Y-159747180I266124J-1067245D01*
G01*
X310135298Y-161324620D02*
X326436262Y-157260323D01*
X130549467Y-162526386D02*
G75*
G02*
X131350694Y-163859849I-266067J-1067314D01*
G01*
X126994910Y-102792113D02*
G75*
G02*
X125661479Y-103593283I-1067410J266313D01*
G01*
X297802491Y-103593317D02*
G75*
G02*
X296469015Y-102792120I-266091J1067417D01*
G01*
X93686314Y-166114988D02*
X95694261Y-158061530D01*
X108027058Y-100330248D02*
X106019101Y-108383693D01*
X125230060Y-188408317D02*
X131350690Y-163859848D01*
X59788362Y-141276527D02*
X76089341Y-145340809D01*
X126031274Y-189741765D02*
X144074417Y-194240421D01*
X263004928Y-203891698D02*
G75*
G02*
X263251140Y-203694111I804272J-750002D01*
G01*
X87051274Y-105921830D02*
G75*
G02*
X85766205Y-106528982I-997974J448730D01*
G01*
X279097360Y-194359958D02*
G75*
G02*
X279389565Y-194240416I558240J-947642D01*
G01*
X238893012Y-115189254D02*
G75*
G02*
X238626887Y-115221953I-266512J1069754D01*
G01*
X346573410Y-146674244D02*
G75*
G02*
X347374611Y-145340771I1067490J266044D01*
G01*
X308608313Y-159747169D02*
X308801848Y-160523400D01*
X184837061Y-115221945D02*
X238626887Y-115221959D01*
X335079255Y-105120611D02*
X318778286Y-109184920D01*
X114855633Y-159747162D02*
G75*
G02*
X116189053Y-158946012I1067167J-265938D01*
G01*
X314103440Y-99529050D02*
X297802487Y-103593323D01*
X85766205Y-106528984D02*
X69465926Y-102464699D01*
X116189069Y-158945947D02*
X130549467Y-162526386D01*
X235018685Y-204724328D02*
G75*
G02*
X234964363Y-203169594I750215J804528D01*
G01*
X310135298Y-161324620D02*
G75*
G02*
X308801808Y-160523410I-266098J1067420D01*
G01*
X331111099Y-166916206D02*
X349352660Y-162368069D01*
X127188447Y-102015873D02*
G75*
G02*
X128521894Y-101214614I1067253J-265927D01*
G01*
X250322818Y-217491602D02*
X263004928Y-203891698D01*
X144366591Y-194359948D02*
X160212842Y-203694100D01*
X160212842Y-203694100D02*
G75*
G02*
X160459025Y-203891687I-557842J-947200D01*
G01*
X350153853Y-161034620D02*
X346573410Y-146674243D01*
X353998717Y-102464705D02*
G75*
G02*
X355332096Y-103265921I266083J-1067295D01*
G01*
X74111308Y-162368075D02*
X92352871Y-166916198D01*
X292113289Y-163859838D02*
X298233910Y-188408320D01*
X292914498Y-162526407D02*
X307274874Y-158945953D01*
X248888655Y-155837946D02*
X255118117Y-180822953D01*
X104685669Y-109184920D02*
X88384700Y-105120612D01*
X238893009Y-115189256D02*
X294942086Y-101214671D01*
X58987152Y-139943076D02*
X68131814Y-103265914D01*
X114662124Y-160523401D02*
G75*
G02*
X113328671Y-161324617I-1067324J266101D01*
G01*
X326436262Y-157260323D02*
G75*
G02*
X327769698Y-158061548I266138J-1067277D01*
G01*
X59788363Y-141276529D02*
G75*
G02*
X58987238Y-139943097I266237J1067329D01*
G01*
X255118118Y-180822959D02*
G75*
G02*
X254855270Y-181839248I-1067118J-266141D01*
G01*
X355332152Y-103265907D02*
X364476811Y-139943079D01*
X314103440Y-99529050D02*
G75*
G02*
X315436878Y-100330251I266160J-1067250D01*
G01*
X174695830Y-217545889D02*
X188445283Y-204724316D01*
X174695827Y-217545888D02*
G75*
G02*
X173141117Y-217491617I-750227J804288D01*
G01*
X331111099Y-166916206D02*
G75*
G02*
X329777617Y-166114993I-266099J1067406D01*
G01*
X127188447Y-102015873D02*
X126994911Y-102792112D01*
M02*
