M48
; DRILL file {KiCad 8.0.4} date 2024-10-20T10:13:52+0200
; FORMAT={-:-/ absolute / metric / decimal}
; #@! TF.CreationDate,2024-10-20T10:13:52+02:00
; #@! TF.GenerationSoftware,Kicad,Pcbnew,8.0.4
; #@! TF.FileFunction,Plated,1,2,PTH
FMAT,2
METRIC
; #@! TA.AperFunction,Plated,PTH,ViaDrill
T1C0.400
; #@! TA.AperFunction,Plated,PTH,ComponentDrill
T2C0.400
; #@! TA.AperFunction,Plated,PTH,ComponentDrill
T3C0.750
; #@! TA.AperFunction,Plated,PTH,ComponentDrill
T4C1.000
; #@! TA.AperFunction,Plated,PTH,ComponentDrill
T5C1.092
; #@! TA.AperFunction,Plated,PTH,ComponentDrill
T6C1.100
; #@! TA.AperFunction,Plated,PTH,ComponentDrill
T7C1.300
; #@! TA.AperFunction,Plated,PTH,ComponentDrill
T8C2.200
%
G90
G05
T1
X60.733Y-137.905
X65.59Y-120.304
X68.218Y-125.076
X68.388Y-107.474
X73.593Y-105.271
X75.818Y-109.968
X75.911Y-125.524
X76.118Y-158.671
X78.744Y-117.937
X78.999Y-142.812
X81.131Y-127.843
X81.462Y-160.655
X81.469Y-147.9
X82.697Y-141.765
X85.472Y-123.195
X85.758Y-142.631
X86.095Y-110.399
X86.139Y-151.064
X86.285Y-163.552
X87.318Y-123.851
X88.523Y-145.703
X88.75Y-127.624
X89.104Y-158.105
X91.116Y-153.026
X94.153Y-135.651
X94.174Y-109.936
X99.062Y-153.181
X99.176Y-130.631
X99.186Y-137.877
X103.48Y-123.305
X103.903Y-115.515
X105.985Y-122.022
X106.691Y-143.433
X106.93Y-135.835
X108.701Y-141.137
X108.92Y-118.052
X111.184Y-139.613
X111.658Y-148.217
X111.675Y-125.748
X114.334Y-120.643
X114.374Y-158.497
X114.501Y-133.355
X114.843Y-106.134
X116.488Y-103.669
X117.126Y-140.853
X119.073Y-156.225
X119.23Y-122.689
X119.344Y-110.187
X121.969Y-130.768
X122.121Y-143.075
X123.483Y-139.227
X124.72Y-112.947
X125.326Y-119.888
X126.51Y-139.981
X126.716Y-185.972
X127.132Y-145.68
X127.171Y-122.938
X127.295Y-120.379
X130.581Y-106.255
X130.811Y-160.099
X131.684Y-125.37
X131.822Y-188.784
X131.973Y-135.863
X132.275Y-165.938
X134.303Y-158.639
X134.567Y-130.698
X134.584Y-170.824
X134.596Y-109.881
X136.758Y-176.276
X136.851Y-117.408
X136.872Y-146.038
X137.045Y-140.81
X139.343Y-145.769
X139.581Y-132.698
X139.726Y-112.699
X139.747Y-191.802
X139.971Y-153.047
X141.601Y-128.81
X142.046Y-181.147
X142.197Y-168.57
X142.938Y-131.051
X144.572Y-173.853
X144.642Y-128.163
X144.84Y-109.931
X144.94Y-163.695
X145.025Y-135.625
X145.431Y-186.944
X147.068Y-150.926
X147.202Y-158.559
X147.405Y-115.548
X147.457Y-178.76
X149.566Y-183.717
X149.601Y-145.42
X150.076Y-133.337
X150.142Y-166.105
X152.477Y-140.611
X152.553Y-112.933
X152.596Y-175.929
X154.59Y-154.918
X154.923Y-181.075
X156.495Y-155.919
X157.264Y-194.081
X157.468Y-170.997
X157.628Y-158.489
X157.778Y-115.561
X158.626Y-132.282
X160.065Y-201.791
X160.102Y-183.489
X162.687Y-140.628
X162.715Y-160.695
X162.829Y-117.603
X163.255Y-137.528
X164.129Y-177.383
X164.895Y-181.498
X165.1Y-170.762
X165.304Y-145.778
X167.668Y-191.422
X167.696Y-120.408
X167.703Y-153.207
X169.762Y-125.498
X170.281Y-186.245
X170.353Y-148.384
X172.27Y-142.898
X172.746Y-214.262
X173.461Y-118.542
X174.94Y-191.476
X175.484Y-130.318
X176.053Y-147.519
X176.253Y-144.849
X177.424Y-120.208
X177.691Y-196.123
X177.748Y-150.619
X178.024Y-211.357
X178.086Y-140.565
X178.903Y-145.869
X180.087Y-132.773
X180.305Y-125.092
X183.015Y-198.879
X185.024Y-130.664
X185.361Y-203.974
X186.794Y-149.587
X188.143Y-135.316
X189.193Y-144.569
X189.274Y-139.647
X192.014Y-146.707
X192.63Y-130.124
X194.974Y-142.007
X195.304Y-139.407
X196.273Y-136.839
X197.123Y-149.457
X197.737Y-135.214
X197.973Y-144.049
X197.993Y-140.014
X198.033Y-141.749
X198.044Y-117.601
X199.813Y-138.959
X200.094Y-146.507
X200.311Y-150.762
X201.503Y-138.169
X201.984Y-147.657
X202.083Y-140.739
X202.533Y-151.609
X202.713Y-153.239
X204.033Y-149.467
X204.244Y-151.467
X206.338Y-131.074
X206.778Y-134.314
X206.883Y-143.289
X207.408Y-126.854
X207.934Y-132.487
X207.978Y-142.254
X208.114Y-139.407
X208.128Y-144.554
X208.168Y-120.057
X209.388Y-143.474
X211.256Y-139.044
X212.104Y-132.047
X212.293Y-140.229
X212.791Y-137.268
X214.424Y-126.837
X214.593Y-123.619
X215.613Y-136.737
X216.338Y-131.134
X216.338Y-133.599
X216.608Y-138.454
X217.183Y-135.249
X217.394Y-153.337
X217.918Y-143.334
X219.194Y-151.757
X219.863Y-152.699
X221.754Y-153.987
X221.803Y-148.139
X221.838Y-133.174
X222.543Y-152.092
X223.286Y-125.05
X223.42Y-135.201
X225.739Y-140.878
X226.203Y-149.052
X226.648Y-128.854
X227.963Y-120.659
X230.103Y-120.629
X231.314Y-135.301
X231.441Y-125.069
X231.524Y-149.137
X233.366Y-130.638
X233.429Y-140.487
X235.976Y-117.714
X236.294Y-203.925
X238.803Y-135.713
X239.035Y-123.195
X240.269Y-150.725
X241.281Y-127.597
X242.504Y-149.347
X242.534Y-153.507
X243.745Y-140.234
X243.978Y-201.396
X246.176Y-125.215
X246.285Y-146.029
X246.465Y-121.718
X247.244Y-148.887
X248.828Y-150.754
X248.963Y-214.066
X249.725Y-114.767
X251.386Y-191.671
X252.003Y-122.626
X253.677Y-120.587
X253.755Y-201.314
X253.864Y-160.264
X254.241Y-211.925
X254.932Y-158.761
X256.111Y-161.162
X256.196Y-183.671
X256.286Y-127.964
X256.32Y-143.397
X258.892Y-203.89
X259.043Y-115.418
X259.073Y-178.548
X261.372Y-138.306
X261.567Y-125.175
X261.595Y-163.422
X261.826Y-173.974
X261.876Y-151.078
X264.328Y-201.384
X264.431Y-118.05
X266.519Y-130.193
X266.677Y-112.86
X266.696Y-168.318
X266.823Y-156.004
X266.995Y-176.282
X267.654Y-186.287
X268.851Y-135.679
X269.08Y-152.556
X269.495Y-179.184
X271.008Y-152.147
X271.873Y-178.748
X274.023Y-120.039
X274.177Y-153.667
X274.29Y-145.902
X274.544Y-133.051
X274.565Y-112.446
X275.077Y-169.787
X276.512Y-194.332
X276.881Y-169.337
X277.0Y-183.987
X279.148Y-110.258
X279.587Y-171.008
X279.593Y-163.184
X279.703Y-137.699
X282.687Y-128.716
X284.023Y-176.354
X284.178Y-135.433
X284.37Y-148.409
X284.424Y-128.324
X284.543Y-122.603
X284.556Y-186.368
X284.725Y-160.804
X286.674Y-107.474
X286.712Y-118.093
X287.156Y-140.527
X288.848Y-162.045
X289.292Y-145.507
X289.329Y-125.28
X289.425Y-178.734
X289.862Y-168.234
X291.676Y-110.225
X292.045Y-135.295
X292.291Y-158.47
X294.602Y-188.958
X296.84Y-122.515
X296.982Y-133.036
X297.393Y-112.711
X297.881Y-118.765
X299.33Y-138.881
X302.038Y-140.592
X302.063Y-105.079
X302.174Y-125.682
X302.816Y-137.693
X304.653Y-120.92
X304.972Y-139.103
X306.929Y-138.227
X307.498Y-122.568
X307.517Y-145.957
X311.994Y-112.368
X314.636Y-120.486
X314.854Y-155.551
X315.158Y-143.429
X318.202Y-120.366
X319.616Y-145.62
X319.663Y-112.387
X322.677Y-132.646
X323.073Y-137.507
X324.785Y-110.515
X325.301Y-150.893
X325.493Y-126.958
X327.805Y-128.258
X334.924Y-110.067
X335.009Y-148.399
X337.412Y-137.758
X337.432Y-125.283
X337.588Y-117.997
X337.906Y-122.513
X340.176Y-130.227
X340.187Y-107.221
X340.633Y-141.013
X342.398Y-141.562
X342.598Y-135.191
X343.78Y-142.392
X344.505Y-124.094
X345.071Y-145.895
X345.264Y-110.403
X347.612Y-125.72
X347.817Y-158.099
X348.178Y-140.962
X350.174Y-104.823
X350.609Y-112.801
X355.218Y-130.119
X355.34Y-109.908
X358.293Y-119.97
X360.438Y-140.731
T2
X183.432Y-140.362
X183.619Y-141.611
X184.184Y-139.346
X184.634Y-142.362
X185.433Y-139.16
X185.883Y-142.175
X186.448Y-139.911
X186.634Y-141.16
X187.11Y-125.613
X187.296Y-126.862
X187.861Y-124.598
X188.311Y-127.613
X189.11Y-124.411
X189.56Y-127.427
X190.125Y-125.162
X190.312Y-126.411
X233.152Y-126.411
X233.339Y-125.162
X233.903Y-127.427
X234.354Y-124.411
X235.152Y-127.613
X235.603Y-124.598
X236.168Y-126.862
X236.354Y-125.613
X236.83Y-141.16
X237.016Y-139.911
X237.581Y-142.175
X238.031Y-139.16
X238.83Y-142.362
X239.28Y-139.346
X239.845Y-141.611
X240.031Y-140.362
T3
X225.732Y-131.593
X227.732Y-131.593
T4
X191.232Y-117.375
X196.232Y-117.375
X204.112Y-119.032
X204.112Y-121.572
X204.112Y-124.112
X204.112Y-129.192
X204.112Y-131.732
X204.112Y-134.272
X204.112Y-139.352
X204.112Y-141.892
X204.112Y-144.432
X204.112Y-146.972
X204.112Y-136.812
X204.112Y-126.652
X206.652Y-151.211
X209.192Y-151.211
X211.732Y-141.892
X211.732Y-151.211
X214.272Y-141.892
X214.272Y-151.211
X216.812Y-141.892
X216.812Y-151.211
X219.352Y-136.812
X219.352Y-126.652
X219.352Y-146.972
X219.352Y-119.032
X219.352Y-121.572
X219.352Y-124.112
X219.352Y-129.192
X219.352Y-131.732
X219.352Y-134.272
X219.352Y-139.352
X219.352Y-141.892
X219.352Y-144.432
T5
X206.652Y-146.972
X209.192Y-146.972
X211.732Y-146.972
X214.272Y-146.972
X216.812Y-146.972
T6
X180.572Y-151.211
X183.112Y-151.211
X185.652Y-151.211
X188.192Y-151.211
X190.732Y-151.211
X193.272Y-151.211
X195.812Y-151.211
X198.352Y-151.211
X225.172Y-151.211
X227.712Y-151.211
X230.252Y-151.211
X232.792Y-151.211
X235.332Y-151.211
T7
X190.232Y-119.875
X197.232Y-119.875
T8
X185.033Y-140.761
X188.711Y-126.012
X234.753Y-126.012
X238.431Y-140.761
M30
