M48
; DRILL file {KiCad 8.0.1} date 2024-04-17T00:20:31+0200
; FORMAT={-:-/ absolute / metric / decimal}
; #@! TF.CreationDate,2024-04-17T00:20:31+02:00
; #@! TF.GenerationSoftware,Kicad,Pcbnew,8.0.1
; #@! TF.FileFunction,Plated,1,2,PTH
FMAT,2
METRIC
; #@! TA.AperFunction,Plated,PTH,ViaDrill
T1C0.400
; #@! TA.AperFunction,Plated,PTH,ComponentDrill
T2C0.400
; #@! TA.AperFunction,Plated,PTH,ComponentDrill
T3C0.750
; #@! TA.AperFunction,Plated,PTH,ComponentDrill
T4C0.991
; #@! TA.AperFunction,Plated,PTH,ComponentDrill
T5C1.000
; #@! TA.AperFunction,Plated,PTH,ComponentDrill
T6C1.092
; #@! TA.AperFunction,Plated,PTH,ComponentDrill
T7C1.300
; #@! TA.AperFunction,Plated,PTH,ComponentDrill
T8C2.200
%
G90
G05
T1
X75.3Y-114.3
X80.4Y-78.5
X80.596Y-137.309
X85.4Y-97.6
X88.8Y-143.9
X89.552Y-117.338
X94.7Y-77.369
X100.22Y-162.583
X100.499Y-137.803
X104.7Y-92.8
X105.472Y-128.992
X105.552Y-73.394
X109.645Y-167.575
X109.833Y-153.455
X114.698Y-97.808
X115.459Y-77.398
X119.781Y-157.715
X120.135Y-123.439
X120.922Y-173.827
X125.175Y-73.252
X125.429Y-92.902
X126.6Y-112.5
X130.293Y-183.669
X130.648Y-133.086
X134.1Y-105.5
X134.642Y-167.596
X134.727Y-89.14
X134.944Y-111.952
X135.041Y-148.247
X137.166Y-110.75
X140.5Y-177.9
X141.04Y-72.346
X144.983Y-152.765
X145.003Y-123.647
X145.733Y-98.018
X149.725Y-162.992
X149.85Y-107.254
X149.954Y-133.741
X150.2Y-81.8
X151.137Y-182.977
X153.579Y-114.319
X154.8Y-74.2
X155.068Y-116.295
X159.726Y-138.259
X159.82Y-158.974
X160.0Y-98.4
X164.689Y-77.815
X169.7Y-122.0
X170.428Y-183.589
X171.071Y-113.613
X171.134Y-192.389
X171.563Y-120.389
X172.821Y-180.39
X173.042Y-191.389
X173.169Y-177.914
X173.595Y-120.394
X174.554Y-180.633
X174.902Y-178.158
X174.985Y-82.283
X175.225Y-167.588
X175.67Y-133.036
X178.5Y-152.9
X180.021Y-177.833
X180.212Y-102.49
X180.518Y-142.999
X181.5Y-122.9
X184.1Y-115.2
X185.944Y-167.844
X187.139Y-118.026
X187.336Y-157.942
X189.317Y-158.22
X189.606Y-163.959
X190.253Y-107.765
X190.54Y-120.776
X191.618Y-113.101
X194.9Y-133.0
X195.1Y-178.2
X195.884Y-88.288
X195.954Y-148.68
X197.8Y-114.0
X199.775Y-157.983
X200.201Y-103.19
X205.264Y-169.086
X205.512Y-123.175
X205.652Y-137.711
X206.036Y-182.758
X209.6Y-112.7
X209.6Y-114.6
X209.6Y-116.6
X209.6Y-118.2
X210.381Y-148.151
X211.1Y-89.4
X212.1Y-112.6
X212.1Y-114.6
X212.1Y-116.6
X212.1Y-118.3
X215.082Y-159.116
X215.417Y-128.722
X215.948Y-173.352
X219.261Y-183.112
X220.775Y-137.993
X224.299Y-148.053
X224.713Y-162.866
X225.17Y-101.332
X225.588Y-117.822
X227.151Y-101.054
X227.742Y-86.883
X229.0Y-133.5
X229.375Y-107.921
X229.443Y-87.638
X230.538Y-119.764
X233.063Y-104.389
X233.509Y-119.347
X233.563Y-102.389
X234.3Y-143.3
X235.01Y-157.533
X236.063Y-104.389
X236.063Y-102.389
X236.4Y-106.5
X238.103Y-135.868
X238.9Y-142.4
X240.221Y-152.738
X244.714Y-153.994
X244.8Y-122.7
X245.74Y-82.409
X246.101Y-168.371
X249.3Y-133.3
X250.038Y-92.714
X250.216Y-178.062
X251.6Y-105.5
X252.3Y-116.3
X254.063Y-102.389
X254.911Y-148.346
X255.563Y-100.889
X259.317Y-187.731
X261.2Y-137.9
X264.51Y-157.47
X264.736Y-78.826
X265.554Y-118.729
X266.2Y-98.4
X269.173Y-183.411
X270.527Y-148.135
X270.8Y-168.883
X274.504Y-127.291
X274.66Y-93.22
X279.61Y-158.142
X280.224Y-188.682
X280.306Y-173.485
X282.0Y-141.5
X289.64Y-148.324
X289.9Y-123.208
X290.87Y-104.113
X291.068Y-167.407
X294.187Y-92.378
X294.315Y-182.263
X294.884Y-133.979
X295.041Y-157.469
X295.291Y-112.594
X304.673Y-177.888
X305.114Y-162.957
X305.193Y-108.308
X305.838Y-88.493
X307.6Y-141.1
X310.431Y-123.304
X310.781Y-72.85
X313.0Y-100.3
X314.2Y-149.3
X315.496Y-168.246
X319.768Y-114.103
X320.576Y-158.976
X324.55Y-78.599
X325.7Y-129.7
X326.6Y-100.6
X326.9Y-89.9
X329.5Y-110.4
X330.436Y-137.438
X334.8Y-98.1
X335.22Y-152.962
X339.316Y-79.038
X339.6Y-133.5
X339.866Y-114.163
X345.331Y-142.925
X345.384Y-88.164
X349.5Y-116.9
T2
X95.617Y-94.736
X95.934Y-95.959
X96.258Y-93.648
X97.022Y-96.6
X97.481Y-93.332
X98.244Y-96.283
X98.569Y-93.973
X98.885Y-95.195
X106.733Y-138.509
X107.05Y-139.732
X107.374Y-137.421
X108.138Y-140.373
X108.597Y-137.105
X109.36Y-140.057
X109.685Y-137.746
X110.001Y-138.968
X164.051Y-153.886
X164.367Y-155.109
X164.692Y-152.798
X165.456Y-155.749
X165.915Y-152.482
X166.678Y-155.433
X167.003Y-153.123
X167.319Y-154.345
X171.852Y-98.381
X172.168Y-99.604
X172.493Y-97.293
X173.256Y-100.245
X173.715Y-96.977
X174.479Y-99.929
X174.804Y-97.618
X175.12Y-98.841
X249.176Y-98.841
X249.493Y-97.618
X249.817Y-99.929
X250.581Y-96.977
X251.04Y-100.245
X251.803Y-97.293
X252.128Y-99.604
X252.444Y-98.381
X256.977Y-154.345
X257.293Y-153.123
X257.618Y-155.433
X258.381Y-152.482
X258.841Y-155.749
X259.604Y-152.798
X259.929Y-155.109
X260.245Y-153.886
X314.295Y-138.968
X314.611Y-137.746
X314.936Y-140.057
X315.699Y-137.105
X316.158Y-140.373
X316.922Y-137.421
X317.247Y-139.732
X317.563Y-138.509
X325.411Y-95.195
X325.727Y-93.973
X326.052Y-96.283
X326.815Y-93.332
X327.275Y-96.6
X328.038Y-93.648
X328.363Y-95.959
X328.679Y-94.736
T3
X226.148Y-108.974
X228.148Y-108.974
T4
X78.921Y-129.753
X81.566Y-110.938
X84.21Y-92.123
X86.467Y-130.814
X89.112Y-111.999
X91.756Y-93.184
X95.092Y-151.213
X97.736Y-132.398
X100.381Y-113.582
X102.638Y-152.273
X103.025Y-94.767
X105.282Y-133.458
X107.927Y-114.643
X110.571Y-95.828
X115.369Y-143.459
X118.013Y-124.644
X120.657Y-105.829
X122.914Y-144.52
X123.301Y-87.014
X125.559Y-125.705
X128.203Y-106.889
X130.847Y-88.074
X134.601Y-143.133
X135.178Y-170.926
X137.245Y-124.318
X139.89Y-105.502
X141.264Y-166.34
X142.147Y-144.193
X142.534Y-86.687
X144.791Y-125.378
X147.436Y-106.563
X150.08Y-87.748
X152.72Y-150.728
X155.365Y-131.913
X158.009Y-113.098
X159.188Y-172.97
X160.266Y-151.789
X160.653Y-94.283
X162.911Y-132.974
X165.555Y-114.159
X166.734Y-174.03
X168.199Y-95.343
X171.327Y-154.858
X173.971Y-136.043
X176.615Y-117.228
X178.873Y-155.918
X179.26Y-98.413
X181.517Y-137.103
X184.161Y-118.288
X186.134Y-180.738
X186.805Y-99.473
X192.862Y-184.315
X231.434Y-184.315
X237.491Y-99.473
X238.162Y-180.738
X240.135Y-118.288
X242.779Y-137.103
X245.037Y-98.413
X245.424Y-155.918
X247.681Y-117.228
X250.325Y-136.043
X252.969Y-154.858
X256.097Y-95.343
X257.562Y-174.03
X258.741Y-114.159
X261.386Y-132.974
X263.643Y-94.283
X264.03Y-151.789
X265.108Y-172.97
X266.287Y-113.098
X268.931Y-131.913
X271.576Y-150.728
X274.216Y-87.748
X276.861Y-106.563
X279.505Y-125.378
X281.762Y-86.687
X282.149Y-144.193
X283.033Y-166.34
X284.406Y-105.502
X287.051Y-124.318
X289.118Y-170.926
X289.695Y-143.133
X293.449Y-88.074
X296.093Y-106.889
X298.737Y-125.705
X300.995Y-87.014
X301.382Y-144.52
X303.639Y-105.829
X306.283Y-124.644
X308.928Y-143.459
X313.725Y-95.828
X316.37Y-114.643
X319.014Y-133.458
X321.271Y-94.767
X321.658Y-152.273
X323.915Y-113.582
X326.56Y-132.398
X329.204Y-151.213
X332.54Y-93.184
X335.185Y-111.999
X337.829Y-130.814
X340.086Y-92.123
X342.731Y-110.938
X345.375Y-129.753
T5
X208.328Y-121.717
X210.868Y-121.717
X213.408Y-121.717
X215.948Y-121.717
T6
X204.528Y-102.621
X204.528Y-105.161
X204.528Y-89.921
X204.528Y-92.461
X204.528Y-95.001
X204.528Y-100.081
X204.528Y-107.701
X204.528Y-112.781
X204.528Y-115.321
X204.528Y-117.861
X204.528Y-97.541
X204.528Y-110.241
X219.768Y-97.541
X219.768Y-110.241
X219.768Y-89.921
X219.768Y-92.461
X219.768Y-95.001
X219.768Y-100.081
X219.768Y-107.701
X219.768Y-112.781
X219.768Y-115.321
X219.768Y-117.861
X219.768Y-102.621
X219.768Y-105.161
T7
X198.648Y-90.724
X198.648Y-97.224
T8
X97.251Y-94.966
X108.367Y-138.739
X165.685Y-154.116
X173.486Y-98.611
X250.81Y-98.611
X258.611Y-154.116
X315.929Y-138.739
X327.045Y-94.966
M30
