%TF.GenerationSoftware,KiCad,Pcbnew,8.0.1*%
%TF.CreationDate,2024-04-17T00:19:13+02:00*%
%TF.ProjectId,shockboard,73686f63-6b62-46f6-9172-642e6b696361,v1.0.0*%
%TF.SameCoordinates,Original*%
%TF.FileFunction,Legend,Top*%
%TF.FilePolarity,Positive*%
%FSLAX46Y46*%
G04 Gerber Fmt 4.6, Leading zero omitted, Abs format (unit mm)*
G04 Created by KiCad (PCBNEW 8.0.1) date 2024-04-17 00:19:13*
%MOMM*%
%LPD*%
G01*
G04 APERTURE LIST*
G04 Aperture macros list*
%AMRotRect*
0 Rectangle, with rotation*
0 The origin of the aperture is its center*
0 $1 length*
0 $2 width*
0 $3 Rotation angle, in degrees counterclockwise*
0 Add horizontal line*
21,1,$1,$2,0,0,$3*%
G04 Aperture macros list end*
%ADD10C,0.150000*%
%ADD11C,0.100000*%
%ADD12R,1.752600X1.752600*%
%ADD13C,1.752600*%
%ADD14RotRect,0.900000X0.900000X352.500000*%
%ADD15C,1.000000*%
%ADD16RotRect,0.900000X1.250000X352.500000*%
%ADD17C,1.701800*%
%ADD18C,3.000000*%
%ADD19C,3.987800*%
%ADD20C,3.429000*%
%ADD21RotRect,1.778000X1.778000X352.000000*%
%ADD22RotRect,0.900000X1.200000X352.000000*%
%ADD23C,1.905000*%
%ADD24RotRect,1.778000X1.778000X8.000000*%
%ADD25RotRect,0.900000X1.200000X8.000000*%
%ADD26RotRect,1.778000X1.778000X323.000000*%
%ADD27RotRect,0.900000X1.200000X323.000000*%
%ADD28R,1.700000X1.700000*%
%ADD29O,1.700000X1.700000*%
%ADD30C,0.700000*%
%ADD31C,4.400000*%
%ADD32C,2.000000*%
%ADD33R,1.200000X1.700000*%
%ADD34O,1.200000X1.700000*%
%ADD35RotRect,1.778000X1.778000X28.000000*%
%ADD36RotRect,0.900000X1.200000X28.000000*%
%ADD37RotRect,1.778000X1.778000X37.000000*%
%ADD38RotRect,0.900000X1.200000X37.000000*%
%ADD39RotRect,1.778000X1.778000X332.000000*%
%ADD40RotRect,0.900000X1.200000X332.000000*%
G04 APERTURE END LIST*
D10*
X215976668Y-118223030D02*
X215976668Y-117423030D01*
X215976668Y-117423030D02*
X216281430Y-117423030D01*
X216281430Y-117423030D02*
X216357620Y-117461125D01*
X216357620Y-117461125D02*
X216395715Y-117499220D01*
X216395715Y-117499220D02*
X216433811Y-117575411D01*
X216433811Y-117575411D02*
X216433811Y-117689696D01*
X216433811Y-117689696D02*
X216395715Y-117765887D01*
X216395715Y-117765887D02*
X216357620Y-117803982D01*
X216357620Y-117803982D02*
X216281430Y-117842077D01*
X216281430Y-117842077D02*
X215976668Y-117842077D01*
X216929049Y-117423030D02*
X217005239Y-117423030D01*
X217005239Y-117423030D02*
X217081430Y-117461125D01*
X217081430Y-117461125D02*
X217119525Y-117499220D01*
X217119525Y-117499220D02*
X217157620Y-117575411D01*
X217157620Y-117575411D02*
X217195715Y-117727792D01*
X217195715Y-117727792D02*
X217195715Y-117918268D01*
X217195715Y-117918268D02*
X217157620Y-118070649D01*
X217157620Y-118070649D02*
X217119525Y-118146839D01*
X217119525Y-118146839D02*
X217081430Y-118184935D01*
X217081430Y-118184935D02*
X217005239Y-118223030D01*
X217005239Y-118223030D02*
X216929049Y-118223030D01*
X216929049Y-118223030D02*
X216852858Y-118184935D01*
X216852858Y-118184935D02*
X216814763Y-118146839D01*
X216814763Y-118146839D02*
X216776668Y-118070649D01*
X216776668Y-118070649D02*
X216738572Y-117918268D01*
X216738572Y-117918268D02*
X216738572Y-117727792D01*
X216738572Y-117727792D02*
X216776668Y-117575411D01*
X216776668Y-117575411D02*
X216814763Y-117499220D01*
X216814763Y-117499220D02*
X216852858Y-117461125D01*
X216852858Y-117461125D02*
X216929049Y-117423030D01*
X217576668Y-118223030D02*
X217729049Y-118223030D01*
X217729049Y-118223030D02*
X217805239Y-118184935D01*
X217805239Y-118184935D02*
X217843335Y-118146839D01*
X217843335Y-118146839D02*
X217919525Y-118032554D01*
X217919525Y-118032554D02*
X217957620Y-117880173D01*
X217957620Y-117880173D02*
X217957620Y-117575411D01*
X217957620Y-117575411D02*
X217919525Y-117499220D01*
X217919525Y-117499220D02*
X217881430Y-117461125D01*
X217881430Y-117461125D02*
X217805239Y-117423030D01*
X217805239Y-117423030D02*
X217652858Y-117423030D01*
X217652858Y-117423030D02*
X217576668Y-117461125D01*
X217576668Y-117461125D02*
X217538573Y-117499220D01*
X217538573Y-117499220D02*
X217500477Y-117575411D01*
X217500477Y-117575411D02*
X217500477Y-117765887D01*
X217500477Y-117765887D02*
X217538573Y-117842077D01*
X217538573Y-117842077D02*
X217576668Y-117880173D01*
X217576668Y-117880173D02*
X217652858Y-117918268D01*
X217652858Y-117918268D02*
X217805239Y-117918268D01*
X217805239Y-117918268D02*
X217881430Y-117880173D01*
X217881430Y-117880173D02*
X217919525Y-117842077D01*
X217919525Y-117842077D02*
X217957620Y-117765887D01*
X206376667Y-108063030D02*
X206376667Y-107263030D01*
X206376667Y-107263030D02*
X206681429Y-107263030D01*
X206681429Y-107263030D02*
X206757619Y-107301125D01*
X206757619Y-107301125D02*
X206795714Y-107339220D01*
X206795714Y-107339220D02*
X206833810Y-107415411D01*
X206833810Y-107415411D02*
X206833810Y-107529696D01*
X206833810Y-107529696D02*
X206795714Y-107605887D01*
X206795714Y-107605887D02*
X206757619Y-107643982D01*
X206757619Y-107643982D02*
X206681429Y-107682077D01*
X206681429Y-107682077D02*
X206376667Y-107682077D01*
X207595714Y-108063030D02*
X207138571Y-108063030D01*
X207367143Y-108063030D02*
X207367143Y-107263030D01*
X207367143Y-107263030D02*
X207290952Y-107377315D01*
X207290952Y-107377315D02*
X207214762Y-107453506D01*
X207214762Y-107453506D02*
X207138571Y-107491601D01*
X208052857Y-107605887D02*
X207976667Y-107567792D01*
X207976667Y-107567792D02*
X207938572Y-107529696D01*
X207938572Y-107529696D02*
X207900476Y-107453506D01*
X207900476Y-107453506D02*
X207900476Y-107415411D01*
X207900476Y-107415411D02*
X207938572Y-107339220D01*
X207938572Y-107339220D02*
X207976667Y-107301125D01*
X207976667Y-107301125D02*
X208052857Y-107263030D01*
X208052857Y-107263030D02*
X208205238Y-107263030D01*
X208205238Y-107263030D02*
X208281429Y-107301125D01*
X208281429Y-107301125D02*
X208319524Y-107339220D01*
X208319524Y-107339220D02*
X208357619Y-107415411D01*
X208357619Y-107415411D02*
X208357619Y-107453506D01*
X208357619Y-107453506D02*
X208319524Y-107529696D01*
X208319524Y-107529696D02*
X208281429Y-107567792D01*
X208281429Y-107567792D02*
X208205238Y-107605887D01*
X208205238Y-107605887D02*
X208052857Y-107605887D01*
X208052857Y-107605887D02*
X207976667Y-107643982D01*
X207976667Y-107643982D02*
X207938572Y-107682077D01*
X207938572Y-107682077D02*
X207900476Y-107758268D01*
X207900476Y-107758268D02*
X207900476Y-107910649D01*
X207900476Y-107910649D02*
X207938572Y-107986839D01*
X207938572Y-107986839D02*
X207976667Y-108024935D01*
X207976667Y-108024935D02*
X208052857Y-108063030D01*
X208052857Y-108063030D02*
X208205238Y-108063030D01*
X208205238Y-108063030D02*
X208281429Y-108024935D01*
X208281429Y-108024935D02*
X208319524Y-107986839D01*
X208319524Y-107986839D02*
X208357619Y-107910649D01*
X208357619Y-107910649D02*
X208357619Y-107758268D01*
X208357619Y-107758268D02*
X208319524Y-107682077D01*
X208319524Y-107682077D02*
X208281429Y-107643982D01*
X208281429Y-107643982D02*
X208205238Y-107605887D01*
X206376667Y-115683030D02*
X206376667Y-114883030D01*
X206376667Y-114883030D02*
X206681429Y-114883030D01*
X206681429Y-114883030D02*
X206757619Y-114921125D01*
X206757619Y-114921125D02*
X206795714Y-114959220D01*
X206795714Y-114959220D02*
X206833810Y-115035411D01*
X206833810Y-115035411D02*
X206833810Y-115149696D01*
X206833810Y-115149696D02*
X206795714Y-115225887D01*
X206795714Y-115225887D02*
X206757619Y-115263982D01*
X206757619Y-115263982D02*
X206681429Y-115302077D01*
X206681429Y-115302077D02*
X206376667Y-115302077D01*
X207595714Y-115683030D02*
X207138571Y-115683030D01*
X207367143Y-115683030D02*
X207367143Y-114883030D01*
X207367143Y-114883030D02*
X207290952Y-114997315D01*
X207290952Y-114997315D02*
X207214762Y-115073506D01*
X207214762Y-115073506D02*
X207138571Y-115111601D01*
X208281429Y-114883030D02*
X208129048Y-114883030D01*
X208129048Y-114883030D02*
X208052857Y-114921125D01*
X208052857Y-114921125D02*
X208014762Y-114959220D01*
X208014762Y-114959220D02*
X207938572Y-115073506D01*
X207938572Y-115073506D02*
X207900476Y-115225887D01*
X207900476Y-115225887D02*
X207900476Y-115530649D01*
X207900476Y-115530649D02*
X207938572Y-115606839D01*
X207938572Y-115606839D02*
X207976667Y-115644935D01*
X207976667Y-115644935D02*
X208052857Y-115683030D01*
X208052857Y-115683030D02*
X208205238Y-115683030D01*
X208205238Y-115683030D02*
X208281429Y-115644935D01*
X208281429Y-115644935D02*
X208319524Y-115606839D01*
X208319524Y-115606839D02*
X208357619Y-115530649D01*
X208357619Y-115530649D02*
X208357619Y-115340173D01*
X208357619Y-115340173D02*
X208319524Y-115263982D01*
X208319524Y-115263982D02*
X208281429Y-115225887D01*
X208281429Y-115225887D02*
X208205238Y-115187792D01*
X208205238Y-115187792D02*
X208052857Y-115187792D01*
X208052857Y-115187792D02*
X207976667Y-115225887D01*
X207976667Y-115225887D02*
X207938572Y-115263982D01*
X207938572Y-115263982D02*
X207900476Y-115340173D01*
X206738572Y-92061125D02*
X206662382Y-92023030D01*
X206662382Y-92023030D02*
X206548096Y-92023030D01*
X206548096Y-92023030D02*
X206433810Y-92061125D01*
X206433810Y-92061125D02*
X206357620Y-92137315D01*
X206357620Y-92137315D02*
X206319525Y-92213506D01*
X206319525Y-92213506D02*
X206281429Y-92365887D01*
X206281429Y-92365887D02*
X206281429Y-92480173D01*
X206281429Y-92480173D02*
X206319525Y-92632554D01*
X206319525Y-92632554D02*
X206357620Y-92708744D01*
X206357620Y-92708744D02*
X206433810Y-92784935D01*
X206433810Y-92784935D02*
X206548096Y-92823030D01*
X206548096Y-92823030D02*
X206624287Y-92823030D01*
X206624287Y-92823030D02*
X206738572Y-92784935D01*
X206738572Y-92784935D02*
X206776668Y-92746839D01*
X206776668Y-92746839D02*
X206776668Y-92480173D01*
X206776668Y-92480173D02*
X206624287Y-92480173D01*
X207119525Y-92823030D02*
X207119525Y-92023030D01*
X207119525Y-92023030D02*
X207576668Y-92823030D01*
X207576668Y-92823030D02*
X207576668Y-92023030D01*
X207957620Y-92823030D02*
X207957620Y-92023030D01*
X207957620Y-92023030D02*
X208148096Y-92023030D01*
X208148096Y-92023030D02*
X208262382Y-92061125D01*
X208262382Y-92061125D02*
X208338572Y-92137315D01*
X208338572Y-92137315D02*
X208376667Y-92213506D01*
X208376667Y-92213506D02*
X208414763Y-92365887D01*
X208414763Y-92365887D02*
X208414763Y-92480173D01*
X208414763Y-92480173D02*
X208376667Y-92632554D01*
X208376667Y-92632554D02*
X208338572Y-92708744D01*
X208338572Y-92708744D02*
X208262382Y-92784935D01*
X208262382Y-92784935D02*
X208148096Y-92823030D01*
X208148096Y-92823030D02*
X207957620Y-92823030D01*
X215976667Y-108063030D02*
X215976667Y-107263030D01*
X215976667Y-107263030D02*
X216281429Y-107263030D01*
X216281429Y-107263030D02*
X216357619Y-107301125D01*
X216357619Y-107301125D02*
X216395714Y-107339220D01*
X216395714Y-107339220D02*
X216433810Y-107415411D01*
X216433810Y-107415411D02*
X216433810Y-107529696D01*
X216433810Y-107529696D02*
X216395714Y-107605887D01*
X216395714Y-107605887D02*
X216357619Y-107643982D01*
X216357619Y-107643982D02*
X216281429Y-107682077D01*
X216281429Y-107682077D02*
X215976667Y-107682077D01*
X216929048Y-107263030D02*
X217005238Y-107263030D01*
X217005238Y-107263030D02*
X217081429Y-107301125D01*
X217081429Y-107301125D02*
X217119524Y-107339220D01*
X217119524Y-107339220D02*
X217157619Y-107415411D01*
X217157619Y-107415411D02*
X217195714Y-107567792D01*
X217195714Y-107567792D02*
X217195714Y-107758268D01*
X217195714Y-107758268D02*
X217157619Y-107910649D01*
X217157619Y-107910649D02*
X217119524Y-107986839D01*
X217119524Y-107986839D02*
X217081429Y-108024935D01*
X217081429Y-108024935D02*
X217005238Y-108063030D01*
X217005238Y-108063030D02*
X216929048Y-108063030D01*
X216929048Y-108063030D02*
X216852857Y-108024935D01*
X216852857Y-108024935D02*
X216814762Y-107986839D01*
X216814762Y-107986839D02*
X216776667Y-107910649D01*
X216776667Y-107910649D02*
X216738571Y-107758268D01*
X216738571Y-107758268D02*
X216738571Y-107567792D01*
X216738571Y-107567792D02*
X216776667Y-107415411D01*
X216776667Y-107415411D02*
X216814762Y-107339220D01*
X216814762Y-107339220D02*
X216852857Y-107301125D01*
X216852857Y-107301125D02*
X216929048Y-107263030D01*
X217919524Y-107263030D02*
X217538572Y-107263030D01*
X217538572Y-107263030D02*
X217500476Y-107643982D01*
X217500476Y-107643982D02*
X217538572Y-107605887D01*
X217538572Y-107605887D02*
X217614762Y-107567792D01*
X217614762Y-107567792D02*
X217805238Y-107567792D01*
X217805238Y-107567792D02*
X217881429Y-107605887D01*
X217881429Y-107605887D02*
X217919524Y-107643982D01*
X217919524Y-107643982D02*
X217957619Y-107720173D01*
X217957619Y-107720173D02*
X217957619Y-107910649D01*
X217957619Y-107910649D02*
X217919524Y-107986839D01*
X217919524Y-107986839D02*
X217881429Y-108024935D01*
X217881429Y-108024935D02*
X217805238Y-108063030D01*
X217805238Y-108063030D02*
X217614762Y-108063030D01*
X217614762Y-108063030D02*
X217538572Y-108024935D01*
X217538572Y-108024935D02*
X217500476Y-107986839D01*
X215976667Y-92823030D02*
X215976667Y-92023030D01*
X215976667Y-92023030D02*
X216281429Y-92023030D01*
X216281429Y-92023030D02*
X216357619Y-92061125D01*
X216357619Y-92061125D02*
X216395714Y-92099220D01*
X216395714Y-92099220D02*
X216433810Y-92175411D01*
X216433810Y-92175411D02*
X216433810Y-92289696D01*
X216433810Y-92289696D02*
X216395714Y-92365887D01*
X216395714Y-92365887D02*
X216357619Y-92403982D01*
X216357619Y-92403982D02*
X216281429Y-92442077D01*
X216281429Y-92442077D02*
X215976667Y-92442077D01*
X216929048Y-92023030D02*
X217005238Y-92023030D01*
X217005238Y-92023030D02*
X217081429Y-92061125D01*
X217081429Y-92061125D02*
X217119524Y-92099220D01*
X217119524Y-92099220D02*
X217157619Y-92175411D01*
X217157619Y-92175411D02*
X217195714Y-92327792D01*
X217195714Y-92327792D02*
X217195714Y-92518268D01*
X217195714Y-92518268D02*
X217157619Y-92670649D01*
X217157619Y-92670649D02*
X217119524Y-92746839D01*
X217119524Y-92746839D02*
X217081429Y-92784935D01*
X217081429Y-92784935D02*
X217005238Y-92823030D01*
X217005238Y-92823030D02*
X216929048Y-92823030D01*
X216929048Y-92823030D02*
X216852857Y-92784935D01*
X216852857Y-92784935D02*
X216814762Y-92746839D01*
X216814762Y-92746839D02*
X216776667Y-92670649D01*
X216776667Y-92670649D02*
X216738571Y-92518268D01*
X216738571Y-92518268D02*
X216738571Y-92327792D01*
X216738571Y-92327792D02*
X216776667Y-92175411D01*
X216776667Y-92175411D02*
X216814762Y-92099220D01*
X216814762Y-92099220D02*
X216852857Y-92061125D01*
X216852857Y-92061125D02*
X216929048Y-92023030D01*
X217690953Y-92023030D02*
X217767143Y-92023030D01*
X217767143Y-92023030D02*
X217843334Y-92061125D01*
X217843334Y-92061125D02*
X217881429Y-92099220D01*
X217881429Y-92099220D02*
X217919524Y-92175411D01*
X217919524Y-92175411D02*
X217957619Y-92327792D01*
X217957619Y-92327792D02*
X217957619Y-92518268D01*
X217957619Y-92518268D02*
X217919524Y-92670649D01*
X217919524Y-92670649D02*
X217881429Y-92746839D01*
X217881429Y-92746839D02*
X217843334Y-92784935D01*
X217843334Y-92784935D02*
X217767143Y-92823030D01*
X217767143Y-92823030D02*
X217690953Y-92823030D01*
X217690953Y-92823030D02*
X217614762Y-92784935D01*
X217614762Y-92784935D02*
X217576667Y-92746839D01*
X217576667Y-92746839D02*
X217538572Y-92670649D01*
X217538572Y-92670649D02*
X217500476Y-92518268D01*
X217500476Y-92518268D02*
X217500476Y-92327792D01*
X217500476Y-92327792D02*
X217538572Y-92175411D01*
X217538572Y-92175411D02*
X217576667Y-92099220D01*
X217576667Y-92099220D02*
X217614762Y-92061125D01*
X217614762Y-92061125D02*
X217690953Y-92023030D01*
X206376667Y-113143030D02*
X206376667Y-112343030D01*
X206376667Y-112343030D02*
X206681429Y-112343030D01*
X206681429Y-112343030D02*
X206757619Y-112381125D01*
X206757619Y-112381125D02*
X206795714Y-112419220D01*
X206795714Y-112419220D02*
X206833810Y-112495411D01*
X206833810Y-112495411D02*
X206833810Y-112609696D01*
X206833810Y-112609696D02*
X206795714Y-112685887D01*
X206795714Y-112685887D02*
X206757619Y-112723982D01*
X206757619Y-112723982D02*
X206681429Y-112762077D01*
X206681429Y-112762077D02*
X206376667Y-112762077D01*
X207595714Y-113143030D02*
X207138571Y-113143030D01*
X207367143Y-113143030D02*
X207367143Y-112343030D01*
X207367143Y-112343030D02*
X207290952Y-112457315D01*
X207290952Y-112457315D02*
X207214762Y-112533506D01*
X207214762Y-112533506D02*
X207138571Y-112571601D01*
X208281429Y-112609696D02*
X208281429Y-113143030D01*
X208090953Y-112304935D02*
X207900476Y-112876363D01*
X207900476Y-112876363D02*
X208395715Y-112876363D01*
X206281429Y-97103030D02*
X206548096Y-97903030D01*
X206548096Y-97903030D02*
X206814762Y-97103030D01*
X207538572Y-97826839D02*
X207500476Y-97864935D01*
X207500476Y-97864935D02*
X207386191Y-97903030D01*
X207386191Y-97903030D02*
X207310000Y-97903030D01*
X207310000Y-97903030D02*
X207195714Y-97864935D01*
X207195714Y-97864935D02*
X207119524Y-97788744D01*
X207119524Y-97788744D02*
X207081429Y-97712554D01*
X207081429Y-97712554D02*
X207043333Y-97560173D01*
X207043333Y-97560173D02*
X207043333Y-97445887D01*
X207043333Y-97445887D02*
X207081429Y-97293506D01*
X207081429Y-97293506D02*
X207119524Y-97217315D01*
X207119524Y-97217315D02*
X207195714Y-97141125D01*
X207195714Y-97141125D02*
X207310000Y-97103030D01*
X207310000Y-97103030D02*
X207386191Y-97103030D01*
X207386191Y-97103030D02*
X207500476Y-97141125D01*
X207500476Y-97141125D02*
X207538572Y-97179220D01*
X208338572Y-97826839D02*
X208300476Y-97864935D01*
X208300476Y-97864935D02*
X208186191Y-97903030D01*
X208186191Y-97903030D02*
X208110000Y-97903030D01*
X208110000Y-97903030D02*
X207995714Y-97864935D01*
X207995714Y-97864935D02*
X207919524Y-97788744D01*
X207919524Y-97788744D02*
X207881429Y-97712554D01*
X207881429Y-97712554D02*
X207843333Y-97560173D01*
X207843333Y-97560173D02*
X207843333Y-97445887D01*
X207843333Y-97445887D02*
X207881429Y-97293506D01*
X207881429Y-97293506D02*
X207919524Y-97217315D01*
X207919524Y-97217315D02*
X207995714Y-97141125D01*
X207995714Y-97141125D02*
X208110000Y-97103030D01*
X208110000Y-97103030D02*
X208186191Y-97103030D01*
X208186191Y-97103030D02*
X208300476Y-97141125D01*
X208300476Y-97141125D02*
X208338572Y-97179220D01*
X215976667Y-105523030D02*
X215976667Y-104723030D01*
X215976667Y-104723030D02*
X216281429Y-104723030D01*
X216281429Y-104723030D02*
X216357619Y-104761125D01*
X216357619Y-104761125D02*
X216395714Y-104799220D01*
X216395714Y-104799220D02*
X216433810Y-104875411D01*
X216433810Y-104875411D02*
X216433810Y-104989696D01*
X216433810Y-104989696D02*
X216395714Y-105065887D01*
X216395714Y-105065887D02*
X216357619Y-105103982D01*
X216357619Y-105103982D02*
X216281429Y-105142077D01*
X216281429Y-105142077D02*
X215976667Y-105142077D01*
X216929048Y-104723030D02*
X217005238Y-104723030D01*
X217005238Y-104723030D02*
X217081429Y-104761125D01*
X217081429Y-104761125D02*
X217119524Y-104799220D01*
X217119524Y-104799220D02*
X217157619Y-104875411D01*
X217157619Y-104875411D02*
X217195714Y-105027792D01*
X217195714Y-105027792D02*
X217195714Y-105218268D01*
X217195714Y-105218268D02*
X217157619Y-105370649D01*
X217157619Y-105370649D02*
X217119524Y-105446839D01*
X217119524Y-105446839D02*
X217081429Y-105484935D01*
X217081429Y-105484935D02*
X217005238Y-105523030D01*
X217005238Y-105523030D02*
X216929048Y-105523030D01*
X216929048Y-105523030D02*
X216852857Y-105484935D01*
X216852857Y-105484935D02*
X216814762Y-105446839D01*
X216814762Y-105446839D02*
X216776667Y-105370649D01*
X216776667Y-105370649D02*
X216738571Y-105218268D01*
X216738571Y-105218268D02*
X216738571Y-105027792D01*
X216738571Y-105027792D02*
X216776667Y-104875411D01*
X216776667Y-104875411D02*
X216814762Y-104799220D01*
X216814762Y-104799220D02*
X216852857Y-104761125D01*
X216852857Y-104761125D02*
X216929048Y-104723030D01*
X217881429Y-104989696D02*
X217881429Y-105523030D01*
X217690953Y-104684935D02*
X217500476Y-105256363D01*
X217500476Y-105256363D02*
X217995715Y-105256363D01*
X215976667Y-100443030D02*
X215976667Y-99643030D01*
X215976667Y-99643030D02*
X216281429Y-99643030D01*
X216281429Y-99643030D02*
X216357619Y-99681125D01*
X216357619Y-99681125D02*
X216395714Y-99719220D01*
X216395714Y-99719220D02*
X216433810Y-99795411D01*
X216433810Y-99795411D02*
X216433810Y-99909696D01*
X216433810Y-99909696D02*
X216395714Y-99985887D01*
X216395714Y-99985887D02*
X216357619Y-100023982D01*
X216357619Y-100023982D02*
X216281429Y-100062077D01*
X216281429Y-100062077D02*
X215976667Y-100062077D01*
X216929048Y-99643030D02*
X217005238Y-99643030D01*
X217005238Y-99643030D02*
X217081429Y-99681125D01*
X217081429Y-99681125D02*
X217119524Y-99719220D01*
X217119524Y-99719220D02*
X217157619Y-99795411D01*
X217157619Y-99795411D02*
X217195714Y-99947792D01*
X217195714Y-99947792D02*
X217195714Y-100138268D01*
X217195714Y-100138268D02*
X217157619Y-100290649D01*
X217157619Y-100290649D02*
X217119524Y-100366839D01*
X217119524Y-100366839D02*
X217081429Y-100404935D01*
X217081429Y-100404935D02*
X217005238Y-100443030D01*
X217005238Y-100443030D02*
X216929048Y-100443030D01*
X216929048Y-100443030D02*
X216852857Y-100404935D01*
X216852857Y-100404935D02*
X216814762Y-100366839D01*
X216814762Y-100366839D02*
X216776667Y-100290649D01*
X216776667Y-100290649D02*
X216738571Y-100138268D01*
X216738571Y-100138268D02*
X216738571Y-99947792D01*
X216738571Y-99947792D02*
X216776667Y-99795411D01*
X216776667Y-99795411D02*
X216814762Y-99719220D01*
X216814762Y-99719220D02*
X216852857Y-99681125D01*
X216852857Y-99681125D02*
X216929048Y-99643030D01*
X217500476Y-99719220D02*
X217538572Y-99681125D01*
X217538572Y-99681125D02*
X217614762Y-99643030D01*
X217614762Y-99643030D02*
X217805238Y-99643030D01*
X217805238Y-99643030D02*
X217881429Y-99681125D01*
X217881429Y-99681125D02*
X217919524Y-99719220D01*
X217919524Y-99719220D02*
X217957619Y-99795411D01*
X217957619Y-99795411D02*
X217957619Y-99871601D01*
X217957619Y-99871601D02*
X217919524Y-99985887D01*
X217919524Y-99985887D02*
X217462381Y-100443030D01*
X217462381Y-100443030D02*
X217957619Y-100443030D01*
X206376667Y-100443030D02*
X206376667Y-99643030D01*
X206376667Y-99643030D02*
X206681429Y-99643030D01*
X206681429Y-99643030D02*
X206757619Y-99681125D01*
X206757619Y-99681125D02*
X206795714Y-99719220D01*
X206795714Y-99719220D02*
X206833810Y-99795411D01*
X206833810Y-99795411D02*
X206833810Y-99909696D01*
X206833810Y-99909696D02*
X206795714Y-99985887D01*
X206795714Y-99985887D02*
X206757619Y-100023982D01*
X206757619Y-100023982D02*
X206681429Y-100062077D01*
X206681429Y-100062077D02*
X206376667Y-100062077D01*
X207138571Y-99719220D02*
X207176667Y-99681125D01*
X207176667Y-99681125D02*
X207252857Y-99643030D01*
X207252857Y-99643030D02*
X207443333Y-99643030D01*
X207443333Y-99643030D02*
X207519524Y-99681125D01*
X207519524Y-99681125D02*
X207557619Y-99719220D01*
X207557619Y-99719220D02*
X207595714Y-99795411D01*
X207595714Y-99795411D02*
X207595714Y-99871601D01*
X207595714Y-99871601D02*
X207557619Y-99985887D01*
X207557619Y-99985887D02*
X207100476Y-100443030D01*
X207100476Y-100443030D02*
X207595714Y-100443030D01*
X208357619Y-100443030D02*
X207900476Y-100443030D01*
X208129048Y-100443030D02*
X208129048Y-99643030D01*
X208129048Y-99643030D02*
X208052857Y-99757315D01*
X208052857Y-99757315D02*
X207976667Y-99833506D01*
X207976667Y-99833506D02*
X207900476Y-99871601D01*
X216338572Y-97141125D02*
X216262382Y-97103030D01*
X216262382Y-97103030D02*
X216148096Y-97103030D01*
X216148096Y-97103030D02*
X216033810Y-97141125D01*
X216033810Y-97141125D02*
X215957620Y-97217315D01*
X215957620Y-97217315D02*
X215919525Y-97293506D01*
X215919525Y-97293506D02*
X215881429Y-97445887D01*
X215881429Y-97445887D02*
X215881429Y-97560173D01*
X215881429Y-97560173D02*
X215919525Y-97712554D01*
X215919525Y-97712554D02*
X215957620Y-97788744D01*
X215957620Y-97788744D02*
X216033810Y-97864935D01*
X216033810Y-97864935D02*
X216148096Y-97903030D01*
X216148096Y-97903030D02*
X216224287Y-97903030D01*
X216224287Y-97903030D02*
X216338572Y-97864935D01*
X216338572Y-97864935D02*
X216376668Y-97826839D01*
X216376668Y-97826839D02*
X216376668Y-97560173D01*
X216376668Y-97560173D02*
X216224287Y-97560173D01*
X216719525Y-97903030D02*
X216719525Y-97103030D01*
X216719525Y-97103030D02*
X217176668Y-97903030D01*
X217176668Y-97903030D02*
X217176668Y-97103030D01*
X217557620Y-97903030D02*
X217557620Y-97103030D01*
X217557620Y-97103030D02*
X217748096Y-97103030D01*
X217748096Y-97103030D02*
X217862382Y-97141125D01*
X217862382Y-97141125D02*
X217938572Y-97217315D01*
X217938572Y-97217315D02*
X217976667Y-97293506D01*
X217976667Y-97293506D02*
X218014763Y-97445887D01*
X218014763Y-97445887D02*
X218014763Y-97560173D01*
X218014763Y-97560173D02*
X217976667Y-97712554D01*
X217976667Y-97712554D02*
X217938572Y-97788744D01*
X217938572Y-97788744D02*
X217862382Y-97864935D01*
X217862382Y-97864935D02*
X217748096Y-97903030D01*
X217748096Y-97903030D02*
X217557620Y-97903030D01*
X215976667Y-102983030D02*
X215976667Y-102183030D01*
X215976667Y-102183030D02*
X216281429Y-102183030D01*
X216281429Y-102183030D02*
X216357619Y-102221125D01*
X216357619Y-102221125D02*
X216395714Y-102259220D01*
X216395714Y-102259220D02*
X216433810Y-102335411D01*
X216433810Y-102335411D02*
X216433810Y-102449696D01*
X216433810Y-102449696D02*
X216395714Y-102525887D01*
X216395714Y-102525887D02*
X216357619Y-102563982D01*
X216357619Y-102563982D02*
X216281429Y-102602077D01*
X216281429Y-102602077D02*
X215976667Y-102602077D01*
X216929048Y-102183030D02*
X217005238Y-102183030D01*
X217005238Y-102183030D02*
X217081429Y-102221125D01*
X217081429Y-102221125D02*
X217119524Y-102259220D01*
X217119524Y-102259220D02*
X217157619Y-102335411D01*
X217157619Y-102335411D02*
X217195714Y-102487792D01*
X217195714Y-102487792D02*
X217195714Y-102678268D01*
X217195714Y-102678268D02*
X217157619Y-102830649D01*
X217157619Y-102830649D02*
X217119524Y-102906839D01*
X217119524Y-102906839D02*
X217081429Y-102944935D01*
X217081429Y-102944935D02*
X217005238Y-102983030D01*
X217005238Y-102983030D02*
X216929048Y-102983030D01*
X216929048Y-102983030D02*
X216852857Y-102944935D01*
X216852857Y-102944935D02*
X216814762Y-102906839D01*
X216814762Y-102906839D02*
X216776667Y-102830649D01*
X216776667Y-102830649D02*
X216738571Y-102678268D01*
X216738571Y-102678268D02*
X216738571Y-102487792D01*
X216738571Y-102487792D02*
X216776667Y-102335411D01*
X216776667Y-102335411D02*
X216814762Y-102259220D01*
X216814762Y-102259220D02*
X216852857Y-102221125D01*
X216852857Y-102221125D02*
X216929048Y-102183030D01*
X217462381Y-102183030D02*
X217957619Y-102183030D01*
X217957619Y-102183030D02*
X217690953Y-102487792D01*
X217690953Y-102487792D02*
X217805238Y-102487792D01*
X217805238Y-102487792D02*
X217881429Y-102525887D01*
X217881429Y-102525887D02*
X217919524Y-102563982D01*
X217919524Y-102563982D02*
X217957619Y-102640173D01*
X217957619Y-102640173D02*
X217957619Y-102830649D01*
X217957619Y-102830649D02*
X217919524Y-102906839D01*
X217919524Y-102906839D02*
X217881429Y-102944935D01*
X217881429Y-102944935D02*
X217805238Y-102983030D01*
X217805238Y-102983030D02*
X217576667Y-102983030D01*
X217576667Y-102983030D02*
X217500476Y-102944935D01*
X217500476Y-102944935D02*
X217462381Y-102906839D01*
X206376666Y-118223030D02*
X206376666Y-117423030D01*
X206376666Y-117423030D02*
X206681428Y-117423030D01*
X206681428Y-117423030D02*
X206757618Y-117461125D01*
X206757618Y-117461125D02*
X206795713Y-117499220D01*
X206795713Y-117499220D02*
X206833809Y-117575411D01*
X206833809Y-117575411D02*
X206833809Y-117689696D01*
X206833809Y-117689696D02*
X206795713Y-117765887D01*
X206795713Y-117765887D02*
X206757618Y-117803982D01*
X206757618Y-117803982D02*
X206681428Y-117842077D01*
X206681428Y-117842077D02*
X206376666Y-117842077D01*
X207595713Y-118223030D02*
X207138570Y-118223030D01*
X207367142Y-118223030D02*
X207367142Y-117423030D01*
X207367142Y-117423030D02*
X207290951Y-117537315D01*
X207290951Y-117537315D02*
X207214761Y-117613506D01*
X207214761Y-117613506D02*
X207138570Y-117651601D01*
X208090952Y-117423030D02*
X208167142Y-117423030D01*
X208167142Y-117423030D02*
X208243333Y-117461125D01*
X208243333Y-117461125D02*
X208281428Y-117499220D01*
X208281428Y-117499220D02*
X208319523Y-117575411D01*
X208319523Y-117575411D02*
X208357618Y-117727792D01*
X208357618Y-117727792D02*
X208357618Y-117918268D01*
X208357618Y-117918268D02*
X208319523Y-118070649D01*
X208319523Y-118070649D02*
X208281428Y-118146839D01*
X208281428Y-118146839D02*
X208243333Y-118184935D01*
X208243333Y-118184935D02*
X208167142Y-118223030D01*
X208167142Y-118223030D02*
X208090952Y-118223030D01*
X208090952Y-118223030D02*
X208014761Y-118184935D01*
X208014761Y-118184935D02*
X207976666Y-118146839D01*
X207976666Y-118146839D02*
X207938571Y-118070649D01*
X207938571Y-118070649D02*
X207900475Y-117918268D01*
X207900475Y-117918268D02*
X207900475Y-117727792D01*
X207900475Y-117727792D02*
X207938571Y-117575411D01*
X207938571Y-117575411D02*
X207976666Y-117499220D01*
X207976666Y-117499220D02*
X208014761Y-117461125D01*
X208014761Y-117461125D02*
X208090952Y-117423030D01*
X206376667Y-110603030D02*
X206376667Y-109803030D01*
X206376667Y-109803030D02*
X206681429Y-109803030D01*
X206681429Y-109803030D02*
X206757619Y-109841125D01*
X206757619Y-109841125D02*
X206795714Y-109879220D01*
X206795714Y-109879220D02*
X206833810Y-109955411D01*
X206833810Y-109955411D02*
X206833810Y-110069696D01*
X206833810Y-110069696D02*
X206795714Y-110145887D01*
X206795714Y-110145887D02*
X206757619Y-110183982D01*
X206757619Y-110183982D02*
X206681429Y-110222077D01*
X206681429Y-110222077D02*
X206376667Y-110222077D01*
X207595714Y-110603030D02*
X207138571Y-110603030D01*
X207367143Y-110603030D02*
X207367143Y-109803030D01*
X207367143Y-109803030D02*
X207290952Y-109917315D01*
X207290952Y-109917315D02*
X207214762Y-109993506D01*
X207214762Y-109993506D02*
X207138571Y-110031601D01*
X208319524Y-109803030D02*
X207938572Y-109803030D01*
X207938572Y-109803030D02*
X207900476Y-110183982D01*
X207900476Y-110183982D02*
X207938572Y-110145887D01*
X207938572Y-110145887D02*
X208014762Y-110107792D01*
X208014762Y-110107792D02*
X208205238Y-110107792D01*
X208205238Y-110107792D02*
X208281429Y-110145887D01*
X208281429Y-110145887D02*
X208319524Y-110183982D01*
X208319524Y-110183982D02*
X208357619Y-110260173D01*
X208357619Y-110260173D02*
X208357619Y-110450649D01*
X208357619Y-110450649D02*
X208319524Y-110526839D01*
X208319524Y-110526839D02*
X208281429Y-110564935D01*
X208281429Y-110564935D02*
X208205238Y-110603030D01*
X208205238Y-110603030D02*
X208014762Y-110603030D01*
X208014762Y-110603030D02*
X207938572Y-110564935D01*
X207938572Y-110564935D02*
X207900476Y-110526839D01*
X215976667Y-113143030D02*
X215976667Y-112343030D01*
X215976667Y-112343030D02*
X216281429Y-112343030D01*
X216281429Y-112343030D02*
X216357619Y-112381125D01*
X216357619Y-112381125D02*
X216395714Y-112419220D01*
X216395714Y-112419220D02*
X216433810Y-112495411D01*
X216433810Y-112495411D02*
X216433810Y-112609696D01*
X216433810Y-112609696D02*
X216395714Y-112685887D01*
X216395714Y-112685887D02*
X216357619Y-112723982D01*
X216357619Y-112723982D02*
X216281429Y-112762077D01*
X216281429Y-112762077D02*
X215976667Y-112762077D01*
X216929048Y-112343030D02*
X217005238Y-112343030D01*
X217005238Y-112343030D02*
X217081429Y-112381125D01*
X217081429Y-112381125D02*
X217119524Y-112419220D01*
X217119524Y-112419220D02*
X217157619Y-112495411D01*
X217157619Y-112495411D02*
X217195714Y-112647792D01*
X217195714Y-112647792D02*
X217195714Y-112838268D01*
X217195714Y-112838268D02*
X217157619Y-112990649D01*
X217157619Y-112990649D02*
X217119524Y-113066839D01*
X217119524Y-113066839D02*
X217081429Y-113104935D01*
X217081429Y-113104935D02*
X217005238Y-113143030D01*
X217005238Y-113143030D02*
X216929048Y-113143030D01*
X216929048Y-113143030D02*
X216852857Y-113104935D01*
X216852857Y-113104935D02*
X216814762Y-113066839D01*
X216814762Y-113066839D02*
X216776667Y-112990649D01*
X216776667Y-112990649D02*
X216738571Y-112838268D01*
X216738571Y-112838268D02*
X216738571Y-112647792D01*
X216738571Y-112647792D02*
X216776667Y-112495411D01*
X216776667Y-112495411D02*
X216814762Y-112419220D01*
X216814762Y-112419220D02*
X216852857Y-112381125D01*
X216852857Y-112381125D02*
X216929048Y-112343030D01*
X217462381Y-112343030D02*
X217995715Y-112343030D01*
X217995715Y-112343030D02*
X217652857Y-113143030D01*
X206795714Y-90283030D02*
X206529047Y-89902077D01*
X206338571Y-90283030D02*
X206338571Y-89483030D01*
X206338571Y-89483030D02*
X206643333Y-89483030D01*
X206643333Y-89483030D02*
X206719523Y-89521125D01*
X206719523Y-89521125D02*
X206757618Y-89559220D01*
X206757618Y-89559220D02*
X206795714Y-89635411D01*
X206795714Y-89635411D02*
X206795714Y-89749696D01*
X206795714Y-89749696D02*
X206757618Y-89825887D01*
X206757618Y-89825887D02*
X206719523Y-89863982D01*
X206719523Y-89863982D02*
X206643333Y-89902077D01*
X206643333Y-89902077D02*
X206338571Y-89902077D01*
X207100475Y-90054458D02*
X207481428Y-90054458D01*
X207024285Y-90283030D02*
X207290952Y-89483030D01*
X207290952Y-89483030D02*
X207557618Y-90283030D01*
X207748094Y-89483030D02*
X207938570Y-90283030D01*
X207938570Y-90283030D02*
X208090951Y-89711601D01*
X208090951Y-89711601D02*
X208243332Y-90283030D01*
X208243332Y-90283030D02*
X208433809Y-89483030D01*
X206910001Y-95363030D02*
X206643334Y-94982077D01*
X206452858Y-95363030D02*
X206452858Y-94563030D01*
X206452858Y-94563030D02*
X206757620Y-94563030D01*
X206757620Y-94563030D02*
X206833810Y-94601125D01*
X206833810Y-94601125D02*
X206871905Y-94639220D01*
X206871905Y-94639220D02*
X206910001Y-94715411D01*
X206910001Y-94715411D02*
X206910001Y-94829696D01*
X206910001Y-94829696D02*
X206871905Y-94905887D01*
X206871905Y-94905887D02*
X206833810Y-94943982D01*
X206833810Y-94943982D02*
X206757620Y-94982077D01*
X206757620Y-94982077D02*
X206452858Y-94982077D01*
X207214762Y-95324935D02*
X207329048Y-95363030D01*
X207329048Y-95363030D02*
X207519524Y-95363030D01*
X207519524Y-95363030D02*
X207595715Y-95324935D01*
X207595715Y-95324935D02*
X207633810Y-95286839D01*
X207633810Y-95286839D02*
X207671905Y-95210649D01*
X207671905Y-95210649D02*
X207671905Y-95134458D01*
X207671905Y-95134458D02*
X207633810Y-95058268D01*
X207633810Y-95058268D02*
X207595715Y-95020173D01*
X207595715Y-95020173D02*
X207519524Y-94982077D01*
X207519524Y-94982077D02*
X207367143Y-94943982D01*
X207367143Y-94943982D02*
X207290953Y-94905887D01*
X207290953Y-94905887D02*
X207252858Y-94867792D01*
X207252858Y-94867792D02*
X207214762Y-94791601D01*
X207214762Y-94791601D02*
X207214762Y-94715411D01*
X207214762Y-94715411D02*
X207252858Y-94639220D01*
X207252858Y-94639220D02*
X207290953Y-94601125D01*
X207290953Y-94601125D02*
X207367143Y-94563030D01*
X207367143Y-94563030D02*
X207557620Y-94563030D01*
X207557620Y-94563030D02*
X207671905Y-94601125D01*
X207900477Y-94563030D02*
X208357620Y-94563030D01*
X208129048Y-95363030D02*
X208129048Y-94563030D01*
X215976667Y-115683030D02*
X215976667Y-114883030D01*
X215976667Y-114883030D02*
X216281429Y-114883030D01*
X216281429Y-114883030D02*
X216357619Y-114921125D01*
X216357619Y-114921125D02*
X216395714Y-114959220D01*
X216395714Y-114959220D02*
X216433810Y-115035411D01*
X216433810Y-115035411D02*
X216433810Y-115149696D01*
X216433810Y-115149696D02*
X216395714Y-115225887D01*
X216395714Y-115225887D02*
X216357619Y-115263982D01*
X216357619Y-115263982D02*
X216281429Y-115302077D01*
X216281429Y-115302077D02*
X215976667Y-115302077D01*
X216929048Y-114883030D02*
X217005238Y-114883030D01*
X217005238Y-114883030D02*
X217081429Y-114921125D01*
X217081429Y-114921125D02*
X217119524Y-114959220D01*
X217119524Y-114959220D02*
X217157619Y-115035411D01*
X217157619Y-115035411D02*
X217195714Y-115187792D01*
X217195714Y-115187792D02*
X217195714Y-115378268D01*
X217195714Y-115378268D02*
X217157619Y-115530649D01*
X217157619Y-115530649D02*
X217119524Y-115606839D01*
X217119524Y-115606839D02*
X217081429Y-115644935D01*
X217081429Y-115644935D02*
X217005238Y-115683030D01*
X217005238Y-115683030D02*
X216929048Y-115683030D01*
X216929048Y-115683030D02*
X216852857Y-115644935D01*
X216852857Y-115644935D02*
X216814762Y-115606839D01*
X216814762Y-115606839D02*
X216776667Y-115530649D01*
X216776667Y-115530649D02*
X216738571Y-115378268D01*
X216738571Y-115378268D02*
X216738571Y-115187792D01*
X216738571Y-115187792D02*
X216776667Y-115035411D01*
X216776667Y-115035411D02*
X216814762Y-114959220D01*
X216814762Y-114959220D02*
X216852857Y-114921125D01*
X216852857Y-114921125D02*
X216929048Y-114883030D01*
X217652857Y-115225887D02*
X217576667Y-115187792D01*
X217576667Y-115187792D02*
X217538572Y-115149696D01*
X217538572Y-115149696D02*
X217500476Y-115073506D01*
X217500476Y-115073506D02*
X217500476Y-115035411D01*
X217500476Y-115035411D02*
X217538572Y-114959220D01*
X217538572Y-114959220D02*
X217576667Y-114921125D01*
X217576667Y-114921125D02*
X217652857Y-114883030D01*
X217652857Y-114883030D02*
X217805238Y-114883030D01*
X217805238Y-114883030D02*
X217881429Y-114921125D01*
X217881429Y-114921125D02*
X217919524Y-114959220D01*
X217919524Y-114959220D02*
X217957619Y-115035411D01*
X217957619Y-115035411D02*
X217957619Y-115073506D01*
X217957619Y-115073506D02*
X217919524Y-115149696D01*
X217919524Y-115149696D02*
X217881429Y-115187792D01*
X217881429Y-115187792D02*
X217805238Y-115225887D01*
X217805238Y-115225887D02*
X217652857Y-115225887D01*
X217652857Y-115225887D02*
X217576667Y-115263982D01*
X217576667Y-115263982D02*
X217538572Y-115302077D01*
X217538572Y-115302077D02*
X217500476Y-115378268D01*
X217500476Y-115378268D02*
X217500476Y-115530649D01*
X217500476Y-115530649D02*
X217538572Y-115606839D01*
X217538572Y-115606839D02*
X217576667Y-115644935D01*
X217576667Y-115644935D02*
X217652857Y-115683030D01*
X217652857Y-115683030D02*
X217805238Y-115683030D01*
X217805238Y-115683030D02*
X217881429Y-115644935D01*
X217881429Y-115644935D02*
X217919524Y-115606839D01*
X217919524Y-115606839D02*
X217957619Y-115530649D01*
X217957619Y-115530649D02*
X217957619Y-115378268D01*
X217957619Y-115378268D02*
X217919524Y-115302077D01*
X217919524Y-115302077D02*
X217881429Y-115263982D01*
X217881429Y-115263982D02*
X217805238Y-115225887D01*
X215976667Y-110603030D02*
X215976667Y-109803030D01*
X215976667Y-109803030D02*
X216281429Y-109803030D01*
X216281429Y-109803030D02*
X216357619Y-109841125D01*
X216357619Y-109841125D02*
X216395714Y-109879220D01*
X216395714Y-109879220D02*
X216433810Y-109955411D01*
X216433810Y-109955411D02*
X216433810Y-110069696D01*
X216433810Y-110069696D02*
X216395714Y-110145887D01*
X216395714Y-110145887D02*
X216357619Y-110183982D01*
X216357619Y-110183982D02*
X216281429Y-110222077D01*
X216281429Y-110222077D02*
X215976667Y-110222077D01*
X216929048Y-109803030D02*
X217005238Y-109803030D01*
X217005238Y-109803030D02*
X217081429Y-109841125D01*
X217081429Y-109841125D02*
X217119524Y-109879220D01*
X217119524Y-109879220D02*
X217157619Y-109955411D01*
X217157619Y-109955411D02*
X217195714Y-110107792D01*
X217195714Y-110107792D02*
X217195714Y-110298268D01*
X217195714Y-110298268D02*
X217157619Y-110450649D01*
X217157619Y-110450649D02*
X217119524Y-110526839D01*
X217119524Y-110526839D02*
X217081429Y-110564935D01*
X217081429Y-110564935D02*
X217005238Y-110603030D01*
X217005238Y-110603030D02*
X216929048Y-110603030D01*
X216929048Y-110603030D02*
X216852857Y-110564935D01*
X216852857Y-110564935D02*
X216814762Y-110526839D01*
X216814762Y-110526839D02*
X216776667Y-110450649D01*
X216776667Y-110450649D02*
X216738571Y-110298268D01*
X216738571Y-110298268D02*
X216738571Y-110107792D01*
X216738571Y-110107792D02*
X216776667Y-109955411D01*
X216776667Y-109955411D02*
X216814762Y-109879220D01*
X216814762Y-109879220D02*
X216852857Y-109841125D01*
X216852857Y-109841125D02*
X216929048Y-109803030D01*
X217881429Y-109803030D02*
X217729048Y-109803030D01*
X217729048Y-109803030D02*
X217652857Y-109841125D01*
X217652857Y-109841125D02*
X217614762Y-109879220D01*
X217614762Y-109879220D02*
X217538572Y-109993506D01*
X217538572Y-109993506D02*
X217500476Y-110145887D01*
X217500476Y-110145887D02*
X217500476Y-110450649D01*
X217500476Y-110450649D02*
X217538572Y-110526839D01*
X217538572Y-110526839D02*
X217576667Y-110564935D01*
X217576667Y-110564935D02*
X217652857Y-110603030D01*
X217652857Y-110603030D02*
X217805238Y-110603030D01*
X217805238Y-110603030D02*
X217881429Y-110564935D01*
X217881429Y-110564935D02*
X217919524Y-110526839D01*
X217919524Y-110526839D02*
X217957619Y-110450649D01*
X217957619Y-110450649D02*
X217957619Y-110260173D01*
X217957619Y-110260173D02*
X217919524Y-110183982D01*
X217919524Y-110183982D02*
X217881429Y-110145887D01*
X217881429Y-110145887D02*
X217805238Y-110107792D01*
X217805238Y-110107792D02*
X217652857Y-110107792D01*
X217652857Y-110107792D02*
X217576667Y-110145887D01*
X217576667Y-110145887D02*
X217538572Y-110183982D01*
X217538572Y-110183982D02*
X217500476Y-110260173D01*
X206376667Y-105523030D02*
X206376667Y-104723030D01*
X206376667Y-104723030D02*
X206681429Y-104723030D01*
X206681429Y-104723030D02*
X206757619Y-104761125D01*
X206757619Y-104761125D02*
X206795714Y-104799220D01*
X206795714Y-104799220D02*
X206833810Y-104875411D01*
X206833810Y-104875411D02*
X206833810Y-104989696D01*
X206833810Y-104989696D02*
X206795714Y-105065887D01*
X206795714Y-105065887D02*
X206757619Y-105103982D01*
X206757619Y-105103982D02*
X206681429Y-105142077D01*
X206681429Y-105142077D02*
X206376667Y-105142077D01*
X207595714Y-105523030D02*
X207138571Y-105523030D01*
X207367143Y-105523030D02*
X207367143Y-104723030D01*
X207367143Y-104723030D02*
X207290952Y-104837315D01*
X207290952Y-104837315D02*
X207214762Y-104913506D01*
X207214762Y-104913506D02*
X207138571Y-104951601D01*
X207976667Y-105523030D02*
X208129048Y-105523030D01*
X208129048Y-105523030D02*
X208205238Y-105484935D01*
X208205238Y-105484935D02*
X208243334Y-105446839D01*
X208243334Y-105446839D02*
X208319524Y-105332554D01*
X208319524Y-105332554D02*
X208357619Y-105180173D01*
X208357619Y-105180173D02*
X208357619Y-104875411D01*
X208357619Y-104875411D02*
X208319524Y-104799220D01*
X208319524Y-104799220D02*
X208281429Y-104761125D01*
X208281429Y-104761125D02*
X208205238Y-104723030D01*
X208205238Y-104723030D02*
X208052857Y-104723030D01*
X208052857Y-104723030D02*
X207976667Y-104761125D01*
X207976667Y-104761125D02*
X207938572Y-104799220D01*
X207938572Y-104799220D02*
X207900476Y-104875411D01*
X207900476Y-104875411D02*
X207900476Y-105065887D01*
X207900476Y-105065887D02*
X207938572Y-105142077D01*
X207938572Y-105142077D02*
X207976667Y-105180173D01*
X207976667Y-105180173D02*
X208052857Y-105218268D01*
X208052857Y-105218268D02*
X208205238Y-105218268D01*
X208205238Y-105218268D02*
X208281429Y-105180173D01*
X208281429Y-105180173D02*
X208319524Y-105142077D01*
X208319524Y-105142077D02*
X208357619Y-105065887D01*
X215976668Y-90283030D02*
X215976668Y-89483030D01*
X215976668Y-89483030D02*
X216281430Y-89483030D01*
X216281430Y-89483030D02*
X216357620Y-89521125D01*
X216357620Y-89521125D02*
X216395715Y-89559220D01*
X216395715Y-89559220D02*
X216433811Y-89635411D01*
X216433811Y-89635411D02*
X216433811Y-89749696D01*
X216433811Y-89749696D02*
X216395715Y-89825887D01*
X216395715Y-89825887D02*
X216357620Y-89863982D01*
X216357620Y-89863982D02*
X216281430Y-89902077D01*
X216281430Y-89902077D02*
X215976668Y-89902077D01*
X216929049Y-89483030D02*
X217005239Y-89483030D01*
X217005239Y-89483030D02*
X217081430Y-89521125D01*
X217081430Y-89521125D02*
X217119525Y-89559220D01*
X217119525Y-89559220D02*
X217157620Y-89635411D01*
X217157620Y-89635411D02*
X217195715Y-89787792D01*
X217195715Y-89787792D02*
X217195715Y-89978268D01*
X217195715Y-89978268D02*
X217157620Y-90130649D01*
X217157620Y-90130649D02*
X217119525Y-90206839D01*
X217119525Y-90206839D02*
X217081430Y-90244935D01*
X217081430Y-90244935D02*
X217005239Y-90283030D01*
X217005239Y-90283030D02*
X216929049Y-90283030D01*
X216929049Y-90283030D02*
X216852858Y-90244935D01*
X216852858Y-90244935D02*
X216814763Y-90206839D01*
X216814763Y-90206839D02*
X216776668Y-90130649D01*
X216776668Y-90130649D02*
X216738572Y-89978268D01*
X216738572Y-89978268D02*
X216738572Y-89787792D01*
X216738572Y-89787792D02*
X216776668Y-89635411D01*
X216776668Y-89635411D02*
X216814763Y-89559220D01*
X216814763Y-89559220D02*
X216852858Y-89521125D01*
X216852858Y-89521125D02*
X216929049Y-89483030D01*
X217957620Y-90283030D02*
X217500477Y-90283030D01*
X217729049Y-90283030D02*
X217729049Y-89483030D01*
X217729049Y-89483030D02*
X217652858Y-89597315D01*
X217652858Y-89597315D02*
X217576668Y-89673506D01*
X217576668Y-89673506D02*
X217500477Y-89711601D01*
X206376667Y-102983030D02*
X206376667Y-102183030D01*
X206376667Y-102183030D02*
X206681429Y-102183030D01*
X206681429Y-102183030D02*
X206757619Y-102221125D01*
X206757619Y-102221125D02*
X206795714Y-102259220D01*
X206795714Y-102259220D02*
X206833810Y-102335411D01*
X206833810Y-102335411D02*
X206833810Y-102449696D01*
X206833810Y-102449696D02*
X206795714Y-102525887D01*
X206795714Y-102525887D02*
X206757619Y-102563982D01*
X206757619Y-102563982D02*
X206681429Y-102602077D01*
X206681429Y-102602077D02*
X206376667Y-102602077D01*
X207138571Y-102259220D02*
X207176667Y-102221125D01*
X207176667Y-102221125D02*
X207252857Y-102183030D01*
X207252857Y-102183030D02*
X207443333Y-102183030D01*
X207443333Y-102183030D02*
X207519524Y-102221125D01*
X207519524Y-102221125D02*
X207557619Y-102259220D01*
X207557619Y-102259220D02*
X207595714Y-102335411D01*
X207595714Y-102335411D02*
X207595714Y-102411601D01*
X207595714Y-102411601D02*
X207557619Y-102525887D01*
X207557619Y-102525887D02*
X207100476Y-102983030D01*
X207100476Y-102983030D02*
X207595714Y-102983030D01*
X208090953Y-102183030D02*
X208167143Y-102183030D01*
X208167143Y-102183030D02*
X208243334Y-102221125D01*
X208243334Y-102221125D02*
X208281429Y-102259220D01*
X208281429Y-102259220D02*
X208319524Y-102335411D01*
X208319524Y-102335411D02*
X208357619Y-102487792D01*
X208357619Y-102487792D02*
X208357619Y-102678268D01*
X208357619Y-102678268D02*
X208319524Y-102830649D01*
X208319524Y-102830649D02*
X208281429Y-102906839D01*
X208281429Y-102906839D02*
X208243334Y-102944935D01*
X208243334Y-102944935D02*
X208167143Y-102983030D01*
X208167143Y-102983030D02*
X208090953Y-102983030D01*
X208090953Y-102983030D02*
X208014762Y-102944935D01*
X208014762Y-102944935D02*
X207976667Y-102906839D01*
X207976667Y-102906839D02*
X207938572Y-102830649D01*
X207938572Y-102830649D02*
X207900476Y-102678268D01*
X207900476Y-102678268D02*
X207900476Y-102487792D01*
X207900476Y-102487792D02*
X207938572Y-102335411D01*
X207938572Y-102335411D02*
X207976667Y-102259220D01*
X207976667Y-102259220D02*
X208014762Y-102221125D01*
X208014762Y-102221125D02*
X208090953Y-102183030D01*
X216338572Y-94601125D02*
X216262382Y-94563030D01*
X216262382Y-94563030D02*
X216148096Y-94563030D01*
X216148096Y-94563030D02*
X216033810Y-94601125D01*
X216033810Y-94601125D02*
X215957620Y-94677315D01*
X215957620Y-94677315D02*
X215919525Y-94753506D01*
X215919525Y-94753506D02*
X215881429Y-94905887D01*
X215881429Y-94905887D02*
X215881429Y-95020173D01*
X215881429Y-95020173D02*
X215919525Y-95172554D01*
X215919525Y-95172554D02*
X215957620Y-95248744D01*
X215957620Y-95248744D02*
X216033810Y-95324935D01*
X216033810Y-95324935D02*
X216148096Y-95363030D01*
X216148096Y-95363030D02*
X216224287Y-95363030D01*
X216224287Y-95363030D02*
X216338572Y-95324935D01*
X216338572Y-95324935D02*
X216376668Y-95286839D01*
X216376668Y-95286839D02*
X216376668Y-95020173D01*
X216376668Y-95020173D02*
X216224287Y-95020173D01*
X216719525Y-95363030D02*
X216719525Y-94563030D01*
X216719525Y-94563030D02*
X217176668Y-95363030D01*
X217176668Y-95363030D02*
X217176668Y-94563030D01*
X217557620Y-95363030D02*
X217557620Y-94563030D01*
X217557620Y-94563030D02*
X217748096Y-94563030D01*
X217748096Y-94563030D02*
X217862382Y-94601125D01*
X217862382Y-94601125D02*
X217938572Y-94677315D01*
X217938572Y-94677315D02*
X217976667Y-94753506D01*
X217976667Y-94753506D02*
X218014763Y-94905887D01*
X218014763Y-94905887D02*
X218014763Y-95020173D01*
X218014763Y-95020173D02*
X217976667Y-95172554D01*
X217976667Y-95172554D02*
X217938572Y-95248744D01*
X217938572Y-95248744D02*
X217862382Y-95324935D01*
X217862382Y-95324935D02*
X217748096Y-95363030D01*
X217748096Y-95363030D02*
X217557620Y-95363030D01*
X199102917Y-94521662D02*
X198626726Y-94854995D01*
X199102917Y-95093090D02*
X198102917Y-95093090D01*
X198102917Y-95093090D02*
X198102917Y-94712138D01*
X198102917Y-94712138D02*
X198150536Y-94616900D01*
X198150536Y-94616900D02*
X198198155Y-94569281D01*
X198198155Y-94569281D02*
X198293393Y-94521662D01*
X198293393Y-94521662D02*
X198436250Y-94521662D01*
X198436250Y-94521662D02*
X198531488Y-94569281D01*
X198531488Y-94569281D02*
X198579107Y-94616900D01*
X198579107Y-94616900D02*
X198626726Y-94712138D01*
X198626726Y-94712138D02*
X198626726Y-95093090D01*
X199055298Y-94140709D02*
X199102917Y-93997852D01*
X199102917Y-93997852D02*
X199102917Y-93759757D01*
X199102917Y-93759757D02*
X199055298Y-93664519D01*
X199055298Y-93664519D02*
X199007678Y-93616900D01*
X199007678Y-93616900D02*
X198912440Y-93569281D01*
X198912440Y-93569281D02*
X198817202Y-93569281D01*
X198817202Y-93569281D02*
X198721964Y-93616900D01*
X198721964Y-93616900D02*
X198674345Y-93664519D01*
X198674345Y-93664519D02*
X198626726Y-93759757D01*
X198626726Y-93759757D02*
X198579107Y-93950233D01*
X198579107Y-93950233D02*
X198531488Y-94045471D01*
X198531488Y-94045471D02*
X198483869Y-94093090D01*
X198483869Y-94093090D02*
X198388631Y-94140709D01*
X198388631Y-94140709D02*
X198293393Y-94140709D01*
X198293393Y-94140709D02*
X198198155Y-94093090D01*
X198198155Y-94093090D02*
X198150536Y-94045471D01*
X198150536Y-94045471D02*
X198102917Y-93950233D01*
X198102917Y-93950233D02*
X198102917Y-93712138D01*
X198102917Y-93712138D02*
X198150536Y-93569281D01*
X198102917Y-93283566D02*
X198102917Y-92712138D01*
X199102917Y-92997852D02*
X198102917Y-92997852D01*
X315853549Y-75194433D02*
X322397085Y-76055906D01*
X316225548Y-72368815D02*
X315853549Y-75194433D01*
X319497316Y-72799551D02*
X316225548Y-72368815D01*
X319497316Y-72799551D02*
X322769084Y-73230288D01*
X321430634Y-73054078D02*
X317563998Y-72545025D01*
X322397085Y-76055906D02*
X322769084Y-73230288D01*
D11*
X81951606Y-130179142D02*
X82347713Y-130234811D01*
X82347713Y-130234811D02*
X82271168Y-130779459D01*
X82347713Y-130234811D02*
X82424258Y-129690164D01*
X82347713Y-130234811D02*
X82997543Y-129922208D01*
X82886205Y-130714423D02*
X82347713Y-130234811D01*
X82941874Y-130318315D02*
X83437008Y-130387902D01*
X82997543Y-129922208D02*
X82886205Y-130714423D01*
X158394950Y-132339019D02*
X158791057Y-132394688D01*
X158791057Y-132394688D02*
X158714512Y-132939336D01*
X158791057Y-132394688D02*
X158867602Y-131850041D01*
X158791057Y-132394688D02*
X159440887Y-132082085D01*
X159329549Y-132874300D02*
X158791057Y-132394688D01*
X159385218Y-132478192D02*
X159880352Y-132547779D01*
X159440887Y-132082085D02*
X159329549Y-132874300D01*
X316755517Y-95402004D02*
X317151624Y-95346335D01*
X317151624Y-95346335D02*
X317075079Y-94801687D01*
X317151624Y-95346335D02*
X317228169Y-95890982D01*
X317151624Y-95346335D02*
X317690116Y-94866723D01*
X317690116Y-94866723D02*
X317801454Y-95658938D01*
X317745785Y-95262831D02*
X318240919Y-95193244D01*
X317801454Y-95658938D02*
X317151624Y-95346335D01*
X285476336Y-168181580D02*
X285795791Y-168422306D01*
X285795791Y-168422306D02*
X285464792Y-168861555D01*
X285795791Y-168422306D02*
X286126789Y-167983056D01*
X285795791Y-168422306D02*
X286515696Y-168463944D01*
X286034246Y-169102847D02*
X285795791Y-168422306D01*
X286274972Y-168783395D02*
X286674290Y-169084302D01*
X286515696Y-168463944D02*
X286034246Y-169102847D01*
X248453796Y-155492561D02*
X248849903Y-155436892D01*
X248849903Y-155436892D02*
X248773358Y-154892244D01*
X248849903Y-155436892D02*
X248926448Y-155981539D01*
X248849903Y-155436892D02*
X249388395Y-154957280D01*
X249388395Y-154957280D02*
X249499733Y-155749495D01*
X249444064Y-155353388D02*
X249939198Y-155283801D01*
X249499733Y-155749495D02*
X248849903Y-155436892D01*
X177001280Y-136468710D02*
X177397387Y-136524379D01*
X177397387Y-136524379D02*
X177320842Y-137069027D01*
X177397387Y-136524379D02*
X177473932Y-135979732D01*
X177397387Y-136524379D02*
X178047217Y-136211776D01*
X177935879Y-137003991D02*
X177397387Y-136524379D01*
X177991548Y-136607883D02*
X178486682Y-136677470D01*
X178047217Y-136211776D02*
X177935879Y-137003991D01*
X118398821Y-143884996D02*
X118794928Y-143940665D01*
X118794928Y-143940665D02*
X118718383Y-144485313D01*
X118794928Y-143940665D02*
X118871473Y-143396018D01*
X118794928Y-143940665D02*
X119444758Y-143628062D01*
X119333420Y-144420277D02*
X118794928Y-143940665D01*
X119389089Y-144024169D02*
X119884223Y-144093756D01*
X119444758Y-143628062D02*
X119333420Y-144420277D01*
X279890785Y-106137056D02*
X280286892Y-106081387D01*
X280286892Y-106081387D02*
X280210347Y-105536739D01*
X280286892Y-106081387D02*
X280363437Y-106626034D01*
X280286892Y-106081387D02*
X280825384Y-105601775D01*
X280825384Y-105601775D02*
X280936722Y-106393990D01*
X280881053Y-105997883D02*
X281376187Y-105928296D01*
X280936722Y-106393990D02*
X280286892Y-106081387D01*
D10*
X203258096Y-86110735D02*
X203258096Y-119130735D01*
X203258096Y-119130735D02*
X221038096Y-119130735D01*
X205798096Y-88650735D02*
X203258096Y-88650735D01*
X205798096Y-88650735D02*
X205798096Y-91190735D01*
X205798096Y-91190735D02*
X203258096Y-91190735D01*
X221038096Y-86110735D02*
X203258096Y-86110735D01*
X221038096Y-119130735D02*
X221038096Y-86110735D01*
D11*
X103410989Y-114008338D02*
X103807096Y-114064007D01*
X103807096Y-114064007D02*
X103730551Y-114608655D01*
X103807096Y-114064007D02*
X103883641Y-113519360D01*
X103807096Y-114064007D02*
X104456926Y-113751404D01*
X104345588Y-114543619D02*
X103807096Y-114064007D01*
X104401257Y-114147511D02*
X104896391Y-114217098D01*
X104456926Y-113751404D02*
X104345588Y-114543619D01*
X126331685Y-87439716D02*
X126727792Y-87495385D01*
X126727792Y-87495385D02*
X126651247Y-88040033D01*
X126727792Y-87495385D02*
X126804337Y-86950738D01*
X126727792Y-87495385D02*
X127377622Y-87182782D01*
X127266284Y-87974997D02*
X126727792Y-87495385D01*
X127321953Y-87578889D02*
X127817087Y-87648476D01*
X127377622Y-87182782D02*
X127266284Y-87974997D01*
X137631430Y-143558482D02*
X138027537Y-143614151D01*
X138027537Y-143614151D02*
X137950992Y-144158799D01*
X138027537Y-143614151D02*
X138104082Y-143069504D01*
X138027537Y-143614151D02*
X138677367Y-143301548D01*
X138566029Y-144093763D02*
X138027537Y-143614151D01*
X138621698Y-143697655D02*
X139116832Y-143767242D01*
X138677367Y-143301548D02*
X138566029Y-144093763D01*
X162218175Y-173395672D02*
X162614282Y-173451341D01*
X162614282Y-173451341D02*
X162537737Y-173995989D01*
X162614282Y-173451341D02*
X162690827Y-172906694D01*
X162614282Y-173451341D02*
X163264112Y-173138738D01*
X163152774Y-173930953D02*
X162614282Y-173451341D01*
X163208443Y-173534845D02*
X163703577Y-173604432D01*
X163264112Y-173138738D02*
X163152774Y-173930953D01*
X277246493Y-87321963D02*
X277642600Y-87266294D01*
X277642600Y-87266294D02*
X277566055Y-86721646D01*
X277642600Y-87266294D02*
X277719145Y-87810941D01*
X277642600Y-87266294D02*
X278181092Y-86786682D01*
X278181092Y-86786682D02*
X278292430Y-87578897D01*
X278236761Y-87182790D02*
X278731895Y-87113203D01*
X278292430Y-87578897D02*
X277642600Y-87266294D01*
X285179360Y-143767244D02*
X285575467Y-143711575D01*
X285575467Y-143711575D02*
X285498922Y-143166927D01*
X285575467Y-143711575D02*
X285652012Y-144256222D01*
X285575467Y-143711575D02*
X286113959Y-143231963D01*
X286113959Y-143231963D02*
X286225297Y-144024178D01*
X286169628Y-143628071D02*
X286664762Y-143558484D01*
X286225297Y-144024178D02*
X285575467Y-143711575D01*
D10*
X196898098Y-90974043D02*
X197148098Y-90974043D01*
X196898098Y-96974043D02*
X196898098Y-90974043D01*
X196898098Y-96974043D02*
X197148098Y-96974043D01*
X200398098Y-90974043D02*
X200148098Y-90974043D01*
X200398098Y-96974043D02*
X200148098Y-96974043D01*
X200398098Y-96974043D02*
X200398098Y-90974043D01*
D11*
X260592620Y-173604428D02*
X260988727Y-173548759D01*
X260988727Y-173548759D02*
X260912182Y-173004111D01*
X260988727Y-173548759D02*
X261065272Y-174093406D01*
X260988727Y-173548759D02*
X261527219Y-173069147D01*
X261527219Y-173069147D02*
X261638557Y-173861362D01*
X261582888Y-173465255D02*
X262078022Y-173395668D01*
X261638557Y-173861362D02*
X260988727Y-173548759D01*
X338214900Y-111572806D02*
X338611007Y-111517137D01*
X338611007Y-111517137D02*
X338534462Y-110972489D01*
X338611007Y-111517137D02*
X338687552Y-112061784D01*
X338611007Y-111517137D02*
X339149499Y-111037525D01*
X339149499Y-111037525D02*
X339260837Y-111829740D01*
X339205168Y-111433633D02*
X339700302Y-111364046D01*
X339260837Y-111829740D02*
X338611007Y-111517137D01*
X304411974Y-144093759D02*
X304808081Y-144038090D01*
X304808081Y-144038090D02*
X304731536Y-143493442D01*
X304808081Y-144038090D02*
X304884626Y-144582737D01*
X304808081Y-144038090D02*
X305346573Y-143558478D01*
X305346573Y-143558478D02*
X305457911Y-144350693D01*
X305402242Y-143954586D02*
X305897376Y-143884999D01*
X305457911Y-144350693D02*
X304808081Y-144038090D01*
X243165220Y-117862377D02*
X243561327Y-117806708D01*
X243561327Y-117806708D02*
X243484782Y-117262060D01*
X243561327Y-117806708D02*
X243637872Y-118351355D01*
X243561327Y-117806708D02*
X244099819Y-117327096D01*
X244099819Y-117327096D02*
X244211157Y-118119311D01*
X244155488Y-117723204D02*
X244650622Y-117653617D01*
X244211157Y-118119311D02*
X243561327Y-117806708D01*
X259127265Y-94917590D02*
X259523372Y-94861921D01*
X259523372Y-94861921D02*
X259446827Y-94317273D01*
X259523372Y-94861921D02*
X259599917Y-95406568D01*
X259523372Y-94861921D02*
X260061864Y-94382309D01*
X260061864Y-94382309D02*
X260173202Y-95174524D01*
X260117533Y-94778417D02*
X260612667Y-94708830D01*
X260173202Y-95174524D02*
X259523372Y-94861921D01*
X145564297Y-87113203D02*
X145960404Y-87168872D01*
X145960404Y-87168872D02*
X145883859Y-87713520D01*
X145960404Y-87168872D02*
X146036949Y-86624225D01*
X145960404Y-87168872D02*
X146610234Y-86856269D01*
X146498896Y-87648484D02*
X145960404Y-87168872D01*
X146554565Y-87252376D02*
X147049699Y-87321963D01*
X146610234Y-86856269D02*
X146498896Y-87648484D01*
X84595893Y-111364048D02*
X84992000Y-111419717D01*
X84992000Y-111419717D02*
X84915455Y-111964365D01*
X84992000Y-111419717D02*
X85068545Y-110875070D01*
X84992000Y-111419717D02*
X85641830Y-111107114D01*
X85530492Y-111899329D02*
X84992000Y-111419717D01*
X85586161Y-111503221D02*
X86081295Y-111572808D01*
X85641830Y-111107114D02*
X85530492Y-111899329D01*
X174356993Y-155283801D02*
X174753100Y-155339470D01*
X174753100Y-155339470D02*
X174676555Y-155884118D01*
X174753100Y-155339470D02*
X174829645Y-154794823D01*
X174753100Y-155339470D02*
X175402930Y-155026867D01*
X175291592Y-155819082D02*
X174753100Y-155339470D01*
X175347261Y-155422974D02*
X175842395Y-155492561D01*
X175402930Y-155026867D02*
X175291592Y-155819082D01*
D10*
X224198094Y-107624045D02*
X224198094Y-115224045D01*
X224198094Y-115224045D02*
X230098094Y-115224045D01*
X224898094Y-109224044D02*
X224898096Y-107624045D01*
X224898096Y-107624045D02*
X224198094Y-107624045D01*
X225898094Y-110724048D02*
X226398094Y-110724045D01*
X226148094Y-110474045D02*
X226148094Y-110974045D01*
X229398093Y-107624045D02*
X229398094Y-109224044D01*
X229398094Y-109224044D02*
X224898094Y-109224044D01*
X230098094Y-107624045D02*
X229398093Y-107624045D01*
X230098094Y-115224045D02*
X230098094Y-107624045D01*
D11*
X121043106Y-125069909D02*
X121439213Y-125125578D01*
X121439213Y-125125578D02*
X121362668Y-125670226D01*
X121439213Y-125125578D02*
X121515758Y-124580931D01*
X121439213Y-125125578D02*
X122089043Y-124812975D01*
X121977705Y-125605190D02*
X121439213Y-125125578D01*
X122033374Y-125209082D02*
X122528508Y-125278669D01*
X122089043Y-124812975D02*
X121977705Y-125605190D01*
X155750662Y-151154108D02*
X156146769Y-151209777D01*
X156146769Y-151209777D02*
X156070224Y-151754425D01*
X156146769Y-151209777D02*
X156223314Y-150665130D01*
X156146769Y-151209777D02*
X156796599Y-150897174D01*
X156685261Y-151689389D02*
X156146769Y-151209777D01*
X156740930Y-151293281D02*
X157236064Y-151362868D01*
X156796599Y-150897174D02*
X156685261Y-151689389D01*
X87240180Y-92548955D02*
X87636287Y-92604624D01*
X87636287Y-92604624D02*
X87559742Y-93149272D01*
X87636287Y-92604624D02*
X87712832Y-92059977D01*
X87636287Y-92604624D02*
X88286117Y-92292021D01*
X88174779Y-93084236D02*
X87636287Y-92604624D01*
X88230448Y-92688128D02*
X88725582Y-92757715D01*
X88286117Y-92292021D02*
X88174779Y-93084236D01*
X98122409Y-151638522D02*
X98518516Y-151694191D01*
X98518516Y-151694191D02*
X98441971Y-152238839D01*
X98518516Y-151694191D02*
X98595061Y-151149544D01*
X98518516Y-151694191D02*
X99168346Y-151381588D01*
X99057008Y-152173803D02*
X98518516Y-151694191D01*
X99112677Y-151777695D02*
X99607811Y-151847282D01*
X99168346Y-151381588D02*
X99057008Y-152173803D01*
X296479105Y-87648474D02*
X296875212Y-87592805D01*
X296875212Y-87592805D02*
X296798667Y-87048157D01*
X296875212Y-87592805D02*
X296951757Y-88137452D01*
X296875212Y-87592805D02*
X297413704Y-87113193D01*
X297413704Y-87113193D02*
X297525042Y-87905408D01*
X297469373Y-87509301D02*
X297964507Y-87439714D01*
X297525042Y-87905408D02*
X296875212Y-87592805D01*
X179645573Y-117653616D02*
X180041680Y-117709285D01*
X180041680Y-117709285D02*
X179965135Y-118253933D01*
X180041680Y-117709285D02*
X180118225Y-117164638D01*
X180041680Y-117709285D02*
X180691510Y-117396682D01*
X180580172Y-118188897D02*
X180041680Y-117709285D01*
X180635841Y-117792789D02*
X181130975Y-117862376D01*
X180691510Y-117396682D02*
X180580172Y-118188897D01*
X123687394Y-106254809D02*
X124083501Y-106310478D01*
X124083501Y-106310478D02*
X124006956Y-106855126D01*
X124083501Y-106310478D02*
X124160046Y-105765831D01*
X124083501Y-106310478D02*
X124733331Y-105997875D01*
X124621993Y-106790090D02*
X124083501Y-106310478D01*
X124677662Y-106393982D02*
X125172796Y-106463569D01*
X124733331Y-105997875D02*
X124621993Y-106790090D01*
X264415845Y-132547777D02*
X264811952Y-132492108D01*
X264811952Y-132492108D02*
X264735407Y-131947460D01*
X264811952Y-132492108D02*
X264888497Y-133036755D01*
X264811952Y-132492108D02*
X265350444Y-132012496D01*
X265350444Y-132012496D02*
X265461782Y-132804711D01*
X265406113Y-132408604D02*
X265901247Y-132339017D01*
X265461782Y-132804711D02*
X264811952Y-132492108D01*
X335570611Y-92757717D02*
X335966718Y-92702048D01*
X335966718Y-92702048D02*
X335890173Y-92157400D01*
X335966718Y-92702048D02*
X336043263Y-93246695D01*
X335966718Y-92702048D02*
X336505210Y-92222436D01*
X336505210Y-92222436D02*
X336616548Y-93014651D01*
X336560879Y-92618544D02*
X337056013Y-92548957D01*
X336616548Y-93014651D02*
X335966718Y-92702048D01*
X240520935Y-99047283D02*
X240917042Y-98991614D01*
X240917042Y-98991614D02*
X240840497Y-98446966D01*
X240917042Y-98991614D02*
X240993587Y-99536261D01*
X240917042Y-98991614D02*
X241455534Y-98512002D01*
X241455534Y-98512002D02*
X241566872Y-99304217D01*
X241511203Y-98908110D02*
X242006337Y-98838523D01*
X241566872Y-99304217D02*
X240917042Y-98991614D01*
X182289859Y-98838521D02*
X182685966Y-98894190D01*
X182685966Y-98894190D02*
X182609421Y-99438838D01*
X182685966Y-98894190D02*
X182762511Y-98349543D01*
X182685966Y-98894190D02*
X183335796Y-98581587D01*
X183224458Y-99373802D02*
X182685966Y-98894190D01*
X183280127Y-98977694D02*
X183775261Y-99047281D01*
X183335796Y-98581587D02*
X183224458Y-99373802D01*
X140275722Y-124743387D02*
X140671829Y-124799056D01*
X140671829Y-124799056D02*
X140595284Y-125343704D01*
X140671829Y-124799056D02*
X140748374Y-124254409D01*
X140671829Y-124799056D02*
X141321659Y-124486453D01*
X141210321Y-125278668D02*
X140671829Y-124799056D01*
X141265990Y-124882560D02*
X141761124Y-124952147D01*
X141321659Y-124486453D02*
X141210321Y-125278668D01*
X261771555Y-113732683D02*
X262167662Y-113677014D01*
X262167662Y-113677014D02*
X262091117Y-113132366D01*
X262167662Y-113677014D02*
X262244207Y-114221661D01*
X262167662Y-113677014D02*
X262706154Y-113197402D01*
X262706154Y-113197402D02*
X262817492Y-113989617D01*
X262761823Y-113593510D02*
X263256957Y-113523923D01*
X262817492Y-113989617D02*
X262167662Y-113677014D01*
X100766696Y-132823429D02*
X101162803Y-132879098D01*
X101162803Y-132879098D02*
X101086258Y-133423746D01*
X101162803Y-132879098D02*
X101239348Y-132334451D01*
X101162803Y-132879098D02*
X101812633Y-132566495D01*
X101701295Y-133358710D02*
X101162803Y-132879098D01*
X101756964Y-132962602D02*
X102252098Y-133032189D01*
X101812633Y-132566495D02*
X101701295Y-133358710D01*
X163683528Y-94708833D02*
X164079635Y-94764502D01*
X164079635Y-94764502D02*
X164003090Y-95309150D01*
X164079635Y-94764502D02*
X164156180Y-94219855D01*
X164079635Y-94764502D02*
X164729465Y-94451899D01*
X164618127Y-95244114D02*
X164079635Y-94764502D01*
X164673796Y-94848006D02*
X165168930Y-94917593D01*
X164729465Y-94451899D02*
X164618127Y-95244114D01*
X322044094Y-133032189D02*
X322440201Y-132976520D01*
X322440201Y-132976520D02*
X322363656Y-132431872D01*
X322440201Y-132976520D02*
X322516746Y-133521167D01*
X322440201Y-132976520D02*
X322978693Y-132496908D01*
X322978693Y-132496908D02*
X323090031Y-133289123D01*
X323034362Y-132893016D02*
X323529496Y-132823429D01*
X323090031Y-133289123D02*
X322440201Y-132976520D01*
X299123395Y-106463569D02*
X299519502Y-106407900D01*
X299519502Y-106407900D02*
X299442957Y-105863252D01*
X299519502Y-106407900D02*
X299596047Y-106952547D01*
X299519502Y-106407900D02*
X300057994Y-105928288D01*
X300057994Y-105928288D02*
X300169332Y-106720503D01*
X300113663Y-106324396D02*
X300608797Y-106254809D01*
X300169332Y-106720503D02*
X299519502Y-106407900D01*
X340859190Y-130387900D02*
X341255297Y-130332231D01*
X341255297Y-130332231D02*
X341178752Y-129787583D01*
X341255297Y-130332231D02*
X341331842Y-130876878D01*
X341255297Y-130332231D02*
X341793789Y-129852619D01*
X341793789Y-129852619D02*
X341905127Y-130644834D01*
X341849458Y-130248727D02*
X342344592Y-130179140D01*
X341905127Y-130644834D02*
X341255297Y-130332231D01*
X282535069Y-124952148D02*
X282931176Y-124896479D01*
X282931176Y-124896479D02*
X282854631Y-124351831D01*
X282931176Y-124896479D02*
X283007721Y-125441126D01*
X282931176Y-124896479D02*
X283469668Y-124416867D01*
X283469668Y-124416867D02*
X283581006Y-125209082D01*
X283525337Y-124812975D02*
X284020471Y-124743388D01*
X283581006Y-125209082D02*
X282931176Y-124896479D01*
X319399806Y-114217096D02*
X319795913Y-114161427D01*
X319795913Y-114161427D02*
X319719368Y-113616779D01*
X319795913Y-114161427D02*
X319872458Y-114706074D01*
X319795913Y-114161427D02*
X320334405Y-113681815D01*
X320334405Y-113681815D02*
X320445743Y-114474030D01*
X320390074Y-114077923D02*
X320885208Y-114008336D01*
X320445743Y-114474030D02*
X319795913Y-114161427D01*
X161039237Y-113523923D02*
X161435344Y-113579592D01*
X161435344Y-113579592D02*
X161358799Y-114124240D01*
X161435344Y-113579592D02*
X161511889Y-113034945D01*
X161435344Y-113579592D02*
X162085174Y-113266989D01*
X161973836Y-114059204D02*
X161435344Y-113579592D01*
X162029505Y-113663096D02*
X162524639Y-113732683D01*
X162085174Y-113266989D02*
X161973836Y-114059204D01*
X245809507Y-136677468D02*
X246205614Y-136621799D01*
X246205614Y-136621799D02*
X246129069Y-136077151D01*
X246205614Y-136621799D02*
X246282159Y-137166446D01*
X246205614Y-136621799D02*
X246744106Y-136142187D01*
X246744106Y-136142187D02*
X246855444Y-136934402D01*
X246799775Y-136538295D02*
X247294909Y-136468708D01*
X246855444Y-136934402D02*
X246205614Y-136621799D01*
X301767686Y-125278666D02*
X302163793Y-125222997D01*
X302163793Y-125222997D02*
X302087248Y-124678349D01*
X302163793Y-125222997D02*
X302240338Y-125767644D01*
X302163793Y-125222997D02*
X302702285Y-124743385D01*
X302702285Y-124743385D02*
X302813623Y-125535600D01*
X302757954Y-125139493D02*
X303253088Y-125069906D01*
X302813623Y-125535600D02*
X302163793Y-125222997D01*
X324688381Y-151847283D02*
X325084488Y-151791614D01*
X325084488Y-151791614D02*
X325007943Y-151246966D01*
X325084488Y-151791614D02*
X325161033Y-152336261D01*
X325084488Y-151791614D02*
X325622980Y-151312002D01*
X325622980Y-151312002D02*
X325734318Y-152104217D01*
X325678649Y-151708110D02*
X326173783Y-151638523D01*
X325734318Y-152104217D02*
X325084488Y-151791614D01*
X234135727Y-182878598D02*
X234488906Y-182690809D01*
X234488906Y-182690809D02*
X234230697Y-182205188D01*
X234488906Y-182690809D02*
X234747116Y-183176430D01*
X234488906Y-182690809D02*
X234830884Y-182055947D01*
X234830884Y-182055947D02*
X235206464Y-182762305D01*
X235018675Y-182409126D02*
X235460149Y-182174390D01*
X235206464Y-182762305D02*
X234488906Y-182690809D01*
X142920009Y-105928294D02*
X143316116Y-105983963D01*
X143316116Y-105983963D02*
X143239571Y-106528611D01*
X143316116Y-105983963D02*
X143392661Y-105439316D01*
X143316116Y-105983963D02*
X143965946Y-105671360D01*
X143854608Y-106463575D02*
X143316116Y-105983963D01*
X143910277Y-106067467D02*
X144405411Y-106137054D01*
X143965946Y-105671360D02*
X143854608Y-106463575D01*
X267060131Y-151362871D02*
X267456238Y-151307202D01*
X267456238Y-151307202D02*
X267379693Y-150762554D01*
X267456238Y-151307202D02*
X267532783Y-151851849D01*
X267456238Y-151307202D02*
X267994730Y-150827590D01*
X267994730Y-150827590D02*
X268106068Y-151619805D01*
X268050399Y-151223698D02*
X268545533Y-151154111D01*
X268106068Y-151619805D02*
X267456238Y-151307202D01*
X137621903Y-169084302D02*
X137941358Y-168843576D01*
X137941358Y-168843576D02*
X137610359Y-168404327D01*
X137941358Y-168843576D02*
X138179813Y-168163035D01*
X137941358Y-168843576D02*
X138272356Y-169282826D01*
X138179813Y-168163035D02*
X138661263Y-168801939D01*
X138420539Y-168482487D02*
X138819857Y-168181580D01*
X138661263Y-168801939D02*
X137941358Y-168843576D01*
X188836045Y-182174392D02*
X189189224Y-182362181D01*
X189189224Y-182362181D02*
X188931015Y-182847802D01*
X189189224Y-182362181D02*
X189447434Y-181876560D01*
X189189224Y-182362181D02*
X189906782Y-182290685D01*
X189531201Y-182997043D02*
X189189224Y-182362181D01*
X189718993Y-182643864D02*
X190160467Y-182878600D01*
X189906782Y-182290685D02*
X189531201Y-182997043D01*
X106055273Y-95193243D02*
X106451380Y-95248912D01*
X106451380Y-95248912D02*
X106374835Y-95793560D01*
X106451380Y-95248912D02*
X106527925Y-94704265D01*
X106451380Y-95248912D02*
X107101210Y-94936309D01*
X106989872Y-95728524D02*
X106451380Y-95248912D01*
X107045541Y-95332416D02*
X107540675Y-95402003D01*
X107101210Y-94936309D02*
X106989872Y-95728524D01*
D12*
X204528096Y-89920735D03*
D13*
X204528096Y-92460735D03*
X204528096Y-95000735D03*
X204528097Y-97540735D03*
X204528096Y-100080735D03*
X204528093Y-102620735D03*
X204528093Y-105160735D03*
X204528096Y-107700735D03*
X204528097Y-110240735D03*
X204528096Y-112780735D03*
X204528096Y-115320735D03*
X204528096Y-117860735D03*
X219768096Y-89920735D03*
X219768096Y-92460735D03*
X219768096Y-95000735D03*
X219768095Y-97540735D03*
X219768096Y-100080735D03*
X219768099Y-102620735D03*
X219768099Y-105160735D03*
X219768096Y-107700735D03*
X219768095Y-110240735D03*
X219768096Y-112780735D03*
X219768096Y-115320735D03*
X219768096Y-117860735D03*
%LPC*%
D14*
X315796339Y-72564466D03*
X315509181Y-74745644D03*
D15*
X317833939Y-73942213D03*
X320808273Y-74333791D03*
D14*
X323133031Y-73530360D03*
X322845873Y-75711538D03*
D16*
X321281015Y-76488934D03*
X318306682Y-76097355D03*
X316819513Y-75901566D03*
D17*
X317102121Y-128980547D03*
D18*
X318006262Y-126288519D03*
D19*
X322132683Y-128273550D03*
D18*
X323940965Y-122889492D03*
D17*
X327163245Y-127566553D03*
X158168515Y-168080338D03*
D18*
X164443069Y-162953695D03*
D20*
X163614989Y-168845790D03*
D18*
X169088227Y-165828150D03*
D17*
X169061463Y-169611242D03*
X335917213Y-126336259D03*
D18*
X336821354Y-123644231D03*
D19*
X340947775Y-125629262D03*
D18*
X342756057Y-120245204D03*
D17*
X345978337Y-124922265D03*
D21*
X78921384Y-129753271D03*
D22*
X81060365Y-130053886D03*
X84328249Y-130513158D03*
D23*
X86467230Y-130813773D03*
D17*
X138870351Y-100612962D03*
D18*
X145144905Y-95486319D03*
D20*
X144316825Y-101378414D03*
D18*
X149790063Y-98360774D03*
D17*
X149763299Y-102143866D03*
X99777241Y-108751458D03*
D18*
X101388381Y-106412925D03*
D19*
X104807803Y-109458455D03*
D18*
X108030083Y-104781395D03*
D17*
X109838365Y-110165452D03*
X254185292Y-90865947D03*
D18*
X255089433Y-88173919D03*
D19*
X259215854Y-90158950D03*
D18*
X261024136Y-84774892D03*
D17*
X264246416Y-89451953D03*
D21*
X155364728Y-131913148D03*
D22*
X157503709Y-132213763D03*
X160771593Y-132673035D03*
D23*
X162910574Y-132973650D03*
D24*
X313725295Y-95827875D03*
D25*
X315864276Y-95527260D03*
X319132160Y-95067988D03*
D23*
X321271141Y-94767373D03*
D17*
X299054086Y-140100571D03*
D18*
X303672480Y-133443024D03*
D20*
X304500560Y-139335119D03*
D18*
X308930001Y-134925750D03*
D17*
X309947034Y-138569667D03*
X160049778Y-89451953D03*
D18*
X161660918Y-87113420D03*
D19*
X165080340Y-90158950D03*
D18*
X168302620Y-85481890D03*
D17*
X170110902Y-90865947D03*
X316686209Y-129039002D03*
D18*
X321304603Y-122381455D03*
D20*
X322132683Y-128273550D03*
D18*
X326562124Y-123864181D03*
D17*
X327579157Y-127508098D03*
X335501301Y-126394714D03*
D18*
X340119695Y-119737167D03*
D20*
X340947775Y-125629262D03*
D18*
X345377216Y-121219893D03*
D17*
X346394249Y-124863810D03*
X117409360Y-119813030D03*
D18*
X119020500Y-117474497D03*
D19*
X122439922Y-120520027D03*
D18*
X125662202Y-115842967D03*
D17*
X127470484Y-121227024D03*
D26*
X283032512Y-166340026D03*
D27*
X284757564Y-167639948D03*
X287393062Y-169625934D03*
D23*
X289118114Y-170925856D03*
D24*
X245423574Y-155918432D03*
D25*
X247562555Y-155617817D03*
X250830439Y-155158545D03*
D23*
X252969420Y-154857930D03*
D17*
X116993448Y-119754575D03*
D18*
X123268002Y-114627932D03*
D20*
X122439922Y-120520027D03*
D18*
X127913160Y-117502387D03*
D17*
X127886396Y-121285479D03*
D21*
X173971058Y-136042839D03*
D22*
X176110039Y-136343454D03*
X179377923Y-136802726D03*
D23*
X181516904Y-137103341D03*
D21*
X115368599Y-143459125D03*
D22*
X117507580Y-143759740D03*
X120775464Y-144219012D03*
D23*
X122914445Y-144519627D03*
D17*
X119637736Y-100939482D03*
D18*
X125912290Y-95812839D03*
D20*
X125084210Y-101704934D03*
D18*
X130557448Y-98687294D03*
D17*
X130530684Y-102470386D03*
X99361329Y-108693003D03*
D18*
X105635883Y-103566360D03*
D20*
X104807803Y-109458455D03*
D18*
X110281041Y-106440815D03*
D17*
X110254277Y-110223907D03*
X170723246Y-150026922D03*
D18*
X172334386Y-147688389D03*
D19*
X175753808Y-150733919D03*
D18*
X178976088Y-146056859D03*
D17*
X180784370Y-151440916D03*
D24*
X276860563Y-106562927D03*
D25*
X278999544Y-106262312D03*
X282267428Y-105803040D03*
D23*
X284406409Y-105502425D03*
D17*
X271888608Y-83328774D03*
D18*
X276507002Y-76671227D03*
D20*
X277335082Y-82563322D03*
D18*
X281764523Y-78153953D03*
D17*
X282781556Y-81797870D03*
X136226062Y-119428057D03*
D18*
X142500616Y-114301414D03*
D20*
X141672536Y-120193509D03*
D18*
X147145774Y-117175869D03*
D17*
X147119010Y-120958961D03*
D12*
X204528096Y-89920735D03*
D13*
X204528096Y-92460735D03*
X204528096Y-95000735D03*
X204528097Y-97540735D03*
X204528096Y-100080735D03*
X204528093Y-102620735D03*
X204528093Y-105160735D03*
X204528096Y-107700735D03*
X204528097Y-110240735D03*
X204528096Y-112780735D03*
X204528096Y-115320735D03*
X204528096Y-117860735D03*
X219768096Y-89920735D03*
X219768096Y-92460735D03*
X219768096Y-95000735D03*
X219768095Y-97540735D03*
X219768096Y-100080735D03*
X219768099Y-102620735D03*
X219768099Y-105160735D03*
X219768096Y-107700735D03*
X219768095Y-110240735D03*
X219768096Y-112780735D03*
X219768096Y-115320735D03*
X219768096Y-117860735D03*
D28*
X215948096Y-121716737D03*
D29*
X213408098Y-121716735D03*
X210868096Y-121716735D03*
X208328096Y-121716735D03*
D17*
X291121219Y-83655288D03*
D18*
X295739613Y-76997741D03*
D20*
X296567693Y-82889836D03*
D18*
X300997134Y-78480467D03*
D17*
X302014167Y-82124384D03*
D21*
X100380767Y-113582467D03*
D22*
X102519748Y-113883082D03*
X105787632Y-114342354D03*
D23*
X107926613Y-114642969D03*
D17*
X141930553Y-81856328D03*
D18*
X143541693Y-79517795D03*
D19*
X146961115Y-82563325D03*
D18*
X150183395Y-77886265D03*
D17*
X151991677Y-83270322D03*
X296409796Y-121285479D03*
D18*
X301028190Y-114627932D03*
D20*
X301856270Y-120520027D03*
D18*
X306285711Y-116110658D03*
D17*
X307302744Y-119754575D03*
X178656113Y-93581643D03*
D18*
X180267253Y-91243110D03*
D19*
X183686675Y-94288640D03*
D18*
X186908955Y-89611580D03*
D17*
X188717237Y-94995637D03*
X158584427Y-168138793D03*
D18*
X160195567Y-165800260D03*
D19*
X163614989Y-168845790D03*
D18*
X166837269Y-164168730D03*
D17*
X168645551Y-169552787D03*
D30*
X314294847Y-138968449D03*
X314611041Y-137745818D03*
X314935794Y-140056561D03*
X315699153Y-137104871D03*
D31*
X315928789Y-138738813D03*
D30*
X316158425Y-140372755D03*
X316921784Y-137421065D03*
X317246537Y-139731808D03*
X317562731Y-138509177D03*
D21*
X123301463Y-87013845D03*
D22*
X125440444Y-87314460D03*
X128708328Y-87773732D03*
D23*
X130847309Y-88074347D03*
D21*
X134601208Y-143132611D03*
D22*
X136740189Y-143433226D03*
X140008073Y-143892498D03*
D23*
X142147054Y-144193113D03*
D17*
X333272922Y-107521166D03*
D18*
X334177063Y-104829138D03*
D19*
X338303484Y-106814169D03*
D18*
X340111766Y-101430111D03*
D17*
X343334046Y-106107172D03*
X240451623Y-132684279D03*
D18*
X245070017Y-126026732D03*
D20*
X245898097Y-131918827D03*
D18*
X250327538Y-127509458D03*
D17*
X251344571Y-131153375D03*
D21*
X159187953Y-172969801D03*
D22*
X161326934Y-173270416D03*
X164594818Y-173729688D03*
D23*
X166733799Y-174030303D03*
D24*
X274216271Y-87747834D03*
D25*
X276355252Y-87447219D03*
X279623136Y-86987947D03*
D23*
X281762117Y-86687332D03*
D17*
X187219401Y-175991724D03*
D18*
X189533202Y-174345267D03*
D19*
X191704775Y-178376640D03*
D18*
X196332377Y-175083724D03*
D17*
X196190149Y-180761556D03*
D24*
X282149138Y-144193115D03*
D25*
X284288119Y-143892500D03*
X287556003Y-143433228D03*
D23*
X289694984Y-143132613D03*
D30*
X164051247Y-153885913D03*
X164692194Y-152797801D03*
X164367441Y-155108544D03*
X165914825Y-152481607D03*
D31*
X165685189Y-154115549D03*
D30*
X165455553Y-155749491D03*
X167002937Y-153122554D03*
X166678184Y-155433297D03*
X167319131Y-154345185D03*
D17*
X102421529Y-89936367D03*
D18*
X104032669Y-87597834D03*
D19*
X107452091Y-90643364D03*
D18*
X110674371Y-85966304D03*
D17*
X112482653Y-91350361D03*
D32*
X198648098Y-90724043D03*
X198648098Y-97224043D03*
D17*
X293765509Y-102470383D03*
D18*
X298383903Y-95812836D03*
D20*
X299211983Y-101704931D03*
D18*
X303641424Y-97295562D03*
D17*
X304658457Y-100939479D03*
X262118159Y-147311228D03*
D18*
X263022300Y-144619200D03*
D19*
X267148721Y-146604231D03*
D18*
X268957003Y-141220173D03*
D17*
X272179283Y-145897234D03*
X274948806Y-102085412D03*
D18*
X275852947Y-99393384D03*
D19*
X279979368Y-101378415D03*
D18*
X281787650Y-95994357D03*
D17*
X285009930Y-100671418D03*
X272304520Y-83270319D03*
D18*
X273208661Y-80578291D03*
D19*
X277335082Y-82563322D03*
D18*
X279143364Y-77179264D03*
D17*
X282365644Y-81856325D03*
X274532894Y-102143867D03*
D18*
X279151288Y-95486320D03*
D20*
X279979368Y-101378415D03*
D18*
X284408809Y-96969046D03*
D17*
X285425842Y-100612963D03*
X314041919Y-110223907D03*
D18*
X318660313Y-103566360D03*
D20*
X319488393Y-109458455D03*
D18*
X323917834Y-105049086D03*
D17*
X324934867Y-108693003D03*
X170307334Y-149968467D03*
D18*
X176581888Y-144841824D03*
D20*
X175753808Y-150733919D03*
D18*
X181227046Y-147716279D03*
D17*
X181200282Y-151499371D03*
D24*
X257562398Y-174030299D03*
D25*
X259701379Y-173729684D03*
X262969263Y-173270412D03*
D23*
X265108244Y-172969797D03*
D17*
X259057957Y-128554590D03*
D18*
X263676351Y-121897043D03*
D20*
X264504431Y-127789138D03*
D18*
X268933872Y-123379769D03*
D17*
X269950905Y-127023686D03*
X186848563Y-175794546D03*
D18*
X194498131Y-173123102D03*
D20*
X191704775Y-178376640D03*
D18*
X197880031Y-177412944D03*
D17*
X196560987Y-180958734D03*
D24*
X335184678Y-111998677D03*
D25*
X337323659Y-111698062D03*
X340591543Y-111238790D03*
D23*
X342730524Y-110938175D03*
D24*
X301381752Y-144519630D03*
D25*
X303520733Y-144219015D03*
X306788617Y-143759743D03*
D23*
X308927598Y-143459128D03*
D17*
X159633866Y-89393498D03*
D18*
X165908420Y-84266855D03*
D20*
X165080340Y-90158950D03*
D18*
X170553578Y-87141310D03*
D17*
X170526814Y-90924402D03*
D24*
X240134998Y-118288248D03*
D25*
X242273979Y-117987633D03*
X245541863Y-117528361D03*
D23*
X247680844Y-117227746D03*
D17*
X80546233Y-106048715D03*
D18*
X86820787Y-100922072D03*
D20*
X85992707Y-106814167D03*
D18*
X91465945Y-103796527D03*
D17*
X91439181Y-107579619D03*
X228106044Y-180761560D03*
D18*
X228034930Y-177922644D03*
D19*
X232591418Y-178376644D03*
D18*
X232449189Y-172698812D03*
D17*
X237076792Y-175991728D03*
X296825708Y-121227024D03*
D18*
X297729849Y-118534996D03*
D19*
X301856270Y-120520027D03*
D18*
X303664552Y-115135969D03*
D17*
X306886832Y-119813030D03*
X277177185Y-120958962D03*
D18*
X281795579Y-114301415D03*
D20*
X282623659Y-120193510D03*
D18*
X287053100Y-115784141D03*
D17*
X288070133Y-119428058D03*
X311397632Y-91408816D03*
D18*
X316016026Y-84751269D03*
D20*
X316844106Y-90643364D03*
D18*
X321273547Y-86233995D03*
D17*
X322290580Y-89877912D03*
D24*
X256097043Y-95343461D03*
D25*
X258236024Y-95042846D03*
X261503908Y-94583574D03*
D23*
X263642889Y-94282959D03*
D17*
X256413668Y-109739498D03*
D18*
X261032062Y-103081951D03*
D20*
X261860142Y-108974046D03*
D18*
X266289583Y-104564677D03*
D17*
X267306616Y-108208594D03*
X243095914Y-151499376D03*
D18*
X247714308Y-144841829D03*
D20*
X248542388Y-150733924D03*
D18*
X252971829Y-146324555D03*
D17*
X253988862Y-149968472D03*
X154761202Y-127082138D03*
D18*
X156372342Y-124743605D03*
D19*
X159791764Y-127789135D03*
D18*
X163014044Y-123112075D03*
D17*
X164822326Y-128496132D03*
X284846774Y-161822136D03*
D18*
X287389649Y-160557907D03*
D19*
X288903842Y-164879356D03*
D18*
X293989597Y-162350896D03*
D17*
X292960910Y-167936576D03*
X130999853Y-168189337D03*
D18*
X131811549Y-160127473D03*
D20*
X135392348Y-164879354D03*
D18*
X137128718Y-158875398D03*
D17*
X139784843Y-161569371D03*
X156989577Y-108208593D03*
D18*
X163264131Y-103081950D03*
D20*
X162436051Y-108974045D03*
D18*
X167909289Y-105956405D03*
D17*
X167882525Y-109739497D03*
X314457831Y-110165452D03*
D18*
X315361972Y-107473424D03*
D19*
X319488393Y-109458455D03*
D18*
X321296675Y-104074397D03*
D17*
X324518955Y-108751458D03*
X97132953Y-127566554D03*
D18*
X98744093Y-125228021D03*
D19*
X102163515Y-128273551D03*
D18*
X105385795Y-123596491D03*
D17*
X107194077Y-128980548D03*
X256829580Y-109681043D03*
D18*
X257733721Y-106989015D03*
D19*
X261860142Y-108974046D03*
D18*
X263668424Y-103589988D03*
D17*
X266890704Y-108267049D03*
X255650641Y-169552787D03*
D18*
X256554782Y-166860759D03*
D19*
X260681203Y-168845790D03*
D18*
X262489485Y-163461732D03*
D17*
X265711765Y-168138793D03*
X141514641Y-81797873D03*
D18*
X147789195Y-76671230D03*
D20*
X146961115Y-82563325D03*
D18*
X152434353Y-79545685D03*
D17*
X152407589Y-83328777D03*
X173367534Y-131211835D03*
D18*
X174978674Y-128873302D03*
D19*
X178398096Y-131918832D03*
D18*
X181620376Y-127241772D03*
D17*
X183428658Y-132625829D03*
X94072748Y-146323193D03*
D18*
X100347302Y-141196550D03*
D20*
X99519222Y-147088645D03*
D18*
X104992460Y-144071005D03*
D17*
X104965696Y-147854097D03*
X122697940Y-82182840D03*
D18*
X124309080Y-79844307D03*
D19*
X127728502Y-82889837D03*
D18*
X130950782Y-78212777D03*
D17*
X132759064Y-83596834D03*
D21*
X142534075Y-86687332D03*
D22*
X144673056Y-86987947D03*
X147940940Y-87447219D03*
D23*
X150079921Y-87747834D03*
D30*
X106733459Y-138509177D03*
X107374406Y-137421065D03*
X107049653Y-139731808D03*
X108597037Y-137104871D03*
D31*
X108367401Y-138738813D03*
D30*
X108137765Y-140372755D03*
X109685149Y-137745818D03*
X109360396Y-140056561D03*
X110001343Y-138968449D03*
D21*
X81565671Y-110938177D03*
D22*
X83704652Y-111238792D03*
X86972536Y-111698064D03*
D23*
X89111517Y-111998679D03*
D17*
X131335280Y-167936574D03*
D18*
X130820936Y-165143736D03*
D19*
X135392348Y-164879354D03*
D18*
X134363662Y-159293675D03*
D17*
X139449416Y-161822134D03*
D21*
X171326771Y-154857930D03*
D22*
X173465752Y-155158545D03*
X176733636Y-155617817D03*
D23*
X178872617Y-155918432D03*
D17*
X152116911Y-145897232D03*
D18*
X153728051Y-143558699D03*
D19*
X157147473Y-146604229D03*
D18*
X160369753Y-141927169D03*
D17*
X162178035Y-147311226D03*
D33*
X226148094Y-108974045D03*
D34*
X228148094Y-108974045D03*
D21*
X118012884Y-124644038D03*
D22*
X120151865Y-124944653D03*
X123419749Y-125403925D03*
D23*
X125558730Y-125704540D03*
D21*
X152720440Y-150728237D03*
D22*
X154859421Y-151028852D03*
X158127305Y-151488124D03*
D23*
X160266286Y-151788739D03*
D21*
X84209958Y-92123084D03*
D22*
X86348939Y-92423699D03*
X89616823Y-92882971D03*
D23*
X91755804Y-93183586D03*
D17*
X237807336Y-113869187D03*
D18*
X242425730Y-107211640D03*
D20*
X243253810Y-113103735D03*
D18*
X247683251Y-108694366D03*
D17*
X248700284Y-112338283D03*
X261702247Y-147369683D03*
D18*
X266320641Y-140712136D03*
D20*
X267148721Y-146604231D03*
D18*
X271578162Y-142194862D03*
D17*
X272595195Y-145838779D03*
X136641974Y-119486512D03*
D18*
X138253114Y-117147979D03*
D19*
X141672536Y-120193509D03*
D18*
X144894816Y-115516449D03*
D17*
X146703098Y-120900506D03*
D21*
X95092187Y-151212651D03*
D22*
X97231168Y-151513266D03*
X100499052Y-151972538D03*
D23*
X102638033Y-152273153D03*
D24*
X293448883Y-88074345D03*
D25*
X295587864Y-87773730D03*
X298855748Y-87314458D03*
D23*
X300994729Y-87013843D03*
D21*
X176615351Y-117227745D03*
D22*
X178754332Y-117528360D03*
X182022216Y-117987632D03*
D23*
X184161197Y-118288247D03*
D17*
X114349156Y-138569667D03*
D18*
X120623710Y-133443024D03*
D20*
X119795630Y-139335119D03*
D18*
X125268868Y-136317479D03*
D17*
X125242104Y-140100571D03*
D21*
X120657172Y-105828938D03*
D22*
X122796153Y-106129553D03*
X126064037Y-106588825D03*
D23*
X128203018Y-106889440D03*
D17*
X238223248Y-113810732D03*
D18*
X239127389Y-111118704D03*
D19*
X243253810Y-113103735D03*
D18*
X245062092Y-107719677D03*
D17*
X248284372Y-112396738D03*
D24*
X261385623Y-132973648D03*
D25*
X263524604Y-132673033D03*
X266792488Y-132213761D03*
D23*
X268931469Y-131913146D03*
D17*
X151700999Y-145838777D03*
D18*
X157975553Y-140712134D03*
D20*
X157147473Y-146604229D03*
D18*
X162620711Y-143586589D03*
D17*
X162593947Y-147369681D03*
X299469998Y-140042116D03*
D18*
X300374139Y-137350088D03*
D19*
X304500560Y-139335119D03*
D18*
X306308842Y-133951061D03*
D17*
X309531122Y-138628122D03*
X279821472Y-139774056D03*
D18*
X284439866Y-133116509D03*
D20*
X285267946Y-139008604D03*
D18*
X289697387Y-134599235D03*
D17*
X290714420Y-138243152D03*
D24*
X332540389Y-93183588D03*
D25*
X334679370Y-92882973D03*
X337947254Y-92423701D03*
D23*
X340086235Y-92123086D03*
D24*
X237490713Y-99473154D03*
D25*
X239629694Y-99172539D03*
X242897578Y-98713267D03*
D23*
X245036559Y-98412652D03*
D21*
X179259637Y-98412650D03*
D22*
X181398618Y-98713265D03*
X184666502Y-99172537D03*
D23*
X186805483Y-99473152D03*
D17*
X122282028Y-82124385D03*
D18*
X128556582Y-76997742D03*
D20*
X127728502Y-82889837D03*
D18*
X133201740Y-79872197D03*
D17*
X133174976Y-83655289D03*
X243511826Y-151440921D03*
D18*
X244415967Y-148748893D03*
D19*
X248542388Y-150733924D03*
D18*
X250350670Y-145349866D03*
D17*
X253572950Y-150026927D03*
D30*
X256977063Y-154345186D03*
X257293257Y-153122555D03*
X257618010Y-155433298D03*
X258381369Y-152481608D03*
D31*
X258611005Y-154115550D03*
D30*
X258840641Y-155749492D03*
X259604000Y-152797802D03*
X259928753Y-155108545D03*
X260244947Y-153885914D03*
D17*
X330628633Y-88706073D03*
D18*
X331532774Y-86014045D03*
D19*
X335659195Y-87999076D03*
D18*
X337467477Y-82615018D03*
D17*
X340689757Y-87292079D03*
X77901944Y-124863811D03*
D18*
X84176498Y-119737168D03*
D20*
X83348418Y-125629263D03*
D18*
X88821656Y-122611623D03*
D17*
X88794892Y-126394715D03*
X319746408Y-147795639D03*
D18*
X320650549Y-145103611D03*
D19*
X324776970Y-147088642D03*
D18*
X326585252Y-141704584D03*
D17*
X329807532Y-146381645D03*
D21*
X137245500Y-124317516D03*
D22*
X139384481Y-124618131D03*
X142652365Y-125077403D03*
D23*
X144791346Y-125378018D03*
D24*
X258741333Y-114158554D03*
D25*
X260880314Y-113857939D03*
X264148198Y-113398667D03*
D23*
X266287179Y-113098052D03*
D17*
X114765068Y-138628122D03*
D18*
X116376208Y-136289589D03*
D19*
X119795630Y-139335119D03*
D18*
X123017910Y-134658059D03*
D17*
X124826192Y-140042116D03*
D21*
X97736474Y-132397558D03*
D22*
X99875455Y-132698173D03*
X103143339Y-133157445D03*
D23*
X105282320Y-133458060D03*
D17*
X120053648Y-100997937D03*
D18*
X121664788Y-98659404D03*
D19*
X125084210Y-101704934D03*
D18*
X128306490Y-97027874D03*
D17*
X130114772Y-102411931D03*
X172951622Y-131153380D03*
D18*
X179226176Y-126026737D03*
D20*
X178398096Y-131918832D03*
D18*
X183871334Y-128901192D03*
D17*
X183844570Y-132684284D03*
D21*
X160653306Y-94282962D03*
D22*
X162792287Y-94583577D03*
X166060171Y-95042849D03*
D23*
X168199152Y-95343464D03*
D17*
X291537131Y-83596833D03*
D18*
X292441272Y-80904805D03*
D19*
X296567693Y-82889836D03*
D18*
X298375975Y-77505778D03*
D17*
X301598255Y-82182839D03*
D24*
X319013872Y-133458060D03*
D25*
X321152853Y-133157445D03*
X324420737Y-132698173D03*
D23*
X326559718Y-132397558D03*
D30*
X95617316Y-94736110D03*
X96258263Y-93647998D03*
X95933510Y-95958741D03*
X97480894Y-93331804D03*
D31*
X97251258Y-94965746D03*
D30*
X97021622Y-96599688D03*
X98569006Y-93972751D03*
X98244253Y-96283494D03*
X98885200Y-95195382D03*
D17*
X83606439Y-87292074D03*
D18*
X85217579Y-84953541D03*
D19*
X88637001Y-87999071D03*
D18*
X91859281Y-83322011D03*
D17*
X93667563Y-88706068D03*
X133997686Y-138301605D03*
D18*
X135608826Y-135963072D03*
D19*
X139028248Y-139008602D03*
D18*
X142250528Y-134331542D03*
D17*
X144058810Y-139715599D03*
X255234729Y-169611242D03*
D18*
X259853123Y-162953695D03*
D20*
X260681203Y-168845790D03*
D18*
X265110644Y-164436421D03*
D17*
X266127677Y-168080338D03*
X240867535Y-132625824D03*
D18*
X241771676Y-129933796D03*
D19*
X245898097Y-131918827D03*
D18*
X247706379Y-126534769D03*
D17*
X250928659Y-131211830D03*
X235163046Y-95054095D03*
D18*
X239781440Y-88396548D03*
D20*
X240609520Y-94288643D03*
D18*
X245038961Y-89879274D03*
D17*
X246055994Y-93523191D03*
D24*
X296093173Y-106889440D03*
D25*
X298232154Y-106588825D03*
X301500038Y-106129553D03*
D23*
X303639019Y-105828938D03*
D17*
X94488660Y-146381648D03*
D18*
X96099800Y-144043115D03*
D19*
X99519222Y-147088645D03*
D18*
X102741502Y-142411585D03*
D17*
X104549784Y-147795642D03*
X284511347Y-161569373D03*
D18*
X292484641Y-160127475D03*
D20*
X288903842Y-164879356D03*
D18*
X295153825Y-164893550D03*
D17*
X293296337Y-168189339D03*
D30*
X171851903Y-98381391D03*
X172492850Y-97293279D03*
X172168097Y-99604022D03*
X173715481Y-96977085D03*
D31*
X173485845Y-98611027D03*
D30*
X173256209Y-100244969D03*
X174803593Y-97618032D03*
X174478840Y-99928775D03*
X175119787Y-98840663D03*
D24*
X337828968Y-130813771D03*
D25*
X339967949Y-130513156D03*
X343235833Y-130053884D03*
D23*
X345374814Y-129753269D03*
D17*
X176011822Y-112396739D03*
D18*
X177622962Y-110058206D03*
D19*
X181042384Y-113103736D03*
D18*
X184264664Y-108426676D03*
D17*
X186072946Y-113810733D03*
X253769380Y-90924402D03*
D18*
X258387774Y-84266855D03*
D20*
X259215854Y-90158950D03*
D18*
X263645295Y-85749581D03*
D17*
X264662328Y-89393498D03*
D30*
X325410993Y-95195384D03*
X325727187Y-93972753D03*
X326051940Y-96283496D03*
X326815299Y-93331806D03*
D31*
X327044935Y-94965748D03*
D30*
X327274571Y-96599690D03*
X328037930Y-93648000D03*
X328362683Y-95958743D03*
X328678877Y-94736112D03*
D24*
X279504847Y-125378019D03*
D25*
X281643828Y-125077404D03*
X284911712Y-124618132D03*
D23*
X287050693Y-124317517D03*
D24*
X316369584Y-114642967D03*
D25*
X318508565Y-114342352D03*
X321776449Y-113883080D03*
D23*
X323915430Y-113582465D03*
D21*
X158009015Y-113098052D03*
D22*
X160147996Y-113398667D03*
X163415880Y-113857939D03*
D23*
X165554861Y-114158554D03*
D24*
X242779285Y-137103339D03*
D25*
X244918266Y-136802724D03*
X248186150Y-136343452D03*
D23*
X250325131Y-136042837D03*
D17*
X96717041Y-127508099D03*
D18*
X102991595Y-122381456D03*
D20*
X102163515Y-128273551D03*
D18*
X107636753Y-125255911D03*
D17*
X107609989Y-129039003D03*
D24*
X298737464Y-125704537D03*
D25*
X300876445Y-125403922D03*
X304144329Y-124944650D03*
D23*
X306283310Y-124644035D03*
D17*
X175595910Y-112338284D03*
D18*
X181870464Y-107211641D03*
D20*
X181042384Y-113103736D03*
D18*
X186515622Y-110086096D03*
D17*
X186488858Y-113869188D03*
X280237384Y-139715601D03*
D18*
X281141525Y-137023573D03*
D19*
X285267946Y-139008604D03*
D18*
X287076228Y-133624546D03*
D17*
X290298508Y-138301607D03*
X319330496Y-147854094D03*
D18*
X323948890Y-141196547D03*
D20*
X324776970Y-147088642D03*
D18*
X329206411Y-142679273D03*
D17*
X330223444Y-146323190D03*
X330212721Y-88764528D03*
D18*
X334831115Y-82106981D03*
D20*
X335659195Y-87999076D03*
D18*
X340088636Y-83589707D03*
D17*
X341105669Y-87233624D03*
D24*
X321658159Y-152273154D03*
D25*
X323797140Y-151972539D03*
X327065024Y-151513267D03*
D23*
X329204005Y-151212652D03*
D17*
X139286263Y-100671417D03*
D18*
X140897403Y-98332884D03*
D19*
X144316825Y-101378414D03*
D18*
X147539105Y-96701354D03*
D17*
X149347387Y-102085411D03*
D35*
X231433908Y-184315181D03*
D36*
X233341072Y-183301122D03*
X236254804Y-181751866D03*
D23*
X238161968Y-180737807D03*
D17*
X157405489Y-108267048D03*
D18*
X159016629Y-105928515D03*
D19*
X162436051Y-108974045D03*
D18*
X165658331Y-104296985D03*
D17*
X167466613Y-109681042D03*
X235578958Y-94995640D03*
D18*
X236483099Y-92303612D03*
D19*
X240609520Y-94288643D03*
D18*
X242417802Y-88904585D03*
D17*
X245640082Y-93581646D03*
X259473869Y-128496135D03*
D18*
X260378010Y-125804107D03*
D19*
X264504431Y-127789138D03*
D18*
X266312713Y-122405080D03*
D17*
X269534993Y-127082141D03*
D30*
X249176410Y-98840664D03*
X249492604Y-97618033D03*
X249817357Y-99928776D03*
X250580716Y-96977086D03*
D31*
X250810352Y-98611028D03*
D30*
X251039988Y-100244970D03*
X251803347Y-97293280D03*
X252128100Y-99604023D03*
X252444294Y-98381392D03*
D17*
X294181421Y-102411928D03*
D18*
X295085562Y-99719900D03*
D19*
X299211983Y-101704931D03*
D18*
X301020265Y-96320873D03*
D17*
X304242545Y-100997934D03*
X154345290Y-127023683D03*
D18*
X160619844Y-121897040D03*
D20*
X159791764Y-127789135D03*
D18*
X165265002Y-124771495D03*
D17*
X165238238Y-128554587D03*
X78317856Y-124922266D03*
D18*
X79928996Y-122583733D03*
D19*
X83348418Y-125629263D03*
D18*
X86570698Y-120952203D03*
D17*
X88378980Y-126336260D03*
X102005617Y-89877912D03*
D18*
X108280171Y-84751269D03*
D20*
X107452091Y-90643364D03*
D18*
X112925329Y-87625724D03*
D17*
X112898565Y-91408816D03*
X133581774Y-138243150D03*
D18*
X139856328Y-133116507D03*
D20*
X139028248Y-139008602D03*
D18*
X144501486Y-135990962D03*
D17*
X144474722Y-139774054D03*
X311813544Y-91350361D03*
D18*
X312717685Y-88658333D03*
D19*
X316844106Y-90643364D03*
D18*
X318652388Y-85259306D03*
D17*
X321874668Y-89936367D03*
X227735206Y-180958738D03*
D18*
X229798062Y-173123106D03*
D20*
X232591418Y-178376644D03*
D18*
X235245638Y-172718233D03*
D17*
X237447630Y-175794550D03*
X178240201Y-93523188D03*
D18*
X184514755Y-88396545D03*
D20*
X183686675Y-94288640D03*
D18*
X189159913Y-91271000D03*
D17*
X189133149Y-95054092D03*
X83190527Y-87233619D03*
D18*
X89465081Y-82106976D03*
D20*
X88637001Y-87999071D03*
D18*
X94110239Y-84981431D03*
D17*
X94083475Y-88764523D03*
X80962145Y-106107170D03*
D18*
X82573285Y-103768637D03*
D19*
X85992707Y-106814167D03*
D18*
X89214987Y-102137107D03*
D17*
X91023269Y-107521164D03*
D21*
X139889787Y-105502423D03*
D22*
X142028768Y-105803038D03*
X145296652Y-106262310D03*
D23*
X147435633Y-106562925D03*
D17*
X277593097Y-120900507D03*
D18*
X278497238Y-118208479D03*
D19*
X282623659Y-120193510D03*
D18*
X284431941Y-114809452D03*
D17*
X287654221Y-119486513D03*
D24*
X264029909Y-151788742D03*
D25*
X266168890Y-151488127D03*
X269436774Y-151028855D03*
D23*
X271575755Y-150728240D03*
D17*
X332857010Y-107579621D03*
D18*
X337475404Y-100922074D03*
D20*
X338303484Y-106814169D03*
D18*
X342732925Y-102404800D03*
D17*
X343749958Y-106048717D03*
D37*
X135178079Y-170925856D03*
D38*
X136903131Y-169625934D03*
X139538629Y-167639948D03*
D23*
X141263681Y-166340026D03*
D39*
X186134226Y-180737809D03*
D40*
X188041390Y-181751868D03*
X190955122Y-183301124D03*
D23*
X192862286Y-184315183D03*
D21*
X103025051Y-94767372D03*
D22*
X105164032Y-95067987D03*
X108431916Y-95527259D03*
D23*
X110570897Y-95827874D03*
%LPD*%
M02*
