%TF.GenerationSoftware,KiCad,Pcbnew,8.0.1*%
%TF.CreationDate,2024-04-17T00:19:13+02:00*%
%TF.ProjectId,shockboard,73686f63-6b62-46f6-9172-642e6b696361,v1.0.0*%
%TF.SameCoordinates,Original*%
%TF.FileFunction,Profile,NP*%
%FSLAX46Y46*%
G04 Gerber Fmt 4.6, Leading zero omitted, Abs format (unit mm)*
G04 Created by KiCad (PCBNEW 8.0.1) date 2024-04-17 00:19:13*
%MOMM*%
%LPD*%
G01*
G04 APERTURE LIST*
%TA.AperFunction,Profile*%
%ADD10C,0.150000*%
%TD*%
G04 APERTURE END LIST*
D10*
X353535165Y-133280833D02*
G75*
G02*
X352576978Y-136985753I-4951165J-695867D01*
G01*
X86169750Y-156162314D02*
X71719189Y-136985775D01*
X71719187Y-136985773D02*
G75*
G02*
X70760995Y-133280827I3993013J3009073D01*
G01*
X283667753Y-194735250D02*
G75*
G02*
X280792579Y-195644629I-2875153J4090450D01*
G01*
X78404854Y-78892194D02*
G75*
G02*
X82708202Y-74630231I4951336J-695866D01*
G01*
X160241181Y-72989964D02*
X195820392Y-84349288D01*
X352577005Y-136985773D02*
X338126443Y-156162316D01*
X337008441Y-157243883D02*
X283667754Y-194735251D01*
X287429813Y-69694353D02*
X305987449Y-70009407D01*
X197341111Y-84586161D02*
G75*
G02*
X195820393Y-84349286I89J5000461D01*
G01*
X264879870Y-72801755D02*
X286649075Y-69742291D01*
X82708202Y-74630227D02*
X117745638Y-70050854D01*
X286649075Y-69742291D02*
G75*
G02*
X287429813Y-69694355I695825J-4951009D01*
G01*
X228475802Y-84349289D02*
G75*
G02*
X226955084Y-84586169I-1520902J4764089D01*
G01*
X197341111Y-84586161D02*
X226955084Y-84586161D01*
X280792579Y-195644607D02*
X143503616Y-195644607D01*
X228475805Y-84349293D02*
X264055015Y-72989963D01*
X117745634Y-70050854D02*
G75*
G02*
X118308749Y-70009404I647966J-4957046D01*
G01*
X118308749Y-70009409D02*
X136866380Y-69694354D01*
X140628441Y-194735256D02*
X87287754Y-157243882D01*
X136866380Y-69694354D02*
G75*
G02*
X137647124Y-69742286I84920J-4999346D01*
G01*
X264055015Y-72989964D02*
G75*
G02*
X264879870Y-72801752I1520985J-4764236D01*
G01*
X305987447Y-70009407D02*
G75*
G02*
X306550560Y-70050854I-84847J-4998793D01*
G01*
X70761028Y-133280832D02*
X78404853Y-78892194D01*
X143503618Y-195644607D02*
G75*
G02*
X140628449Y-194735244I82J5000207D01*
G01*
X345891343Y-78892195D02*
X353535167Y-133280831D01*
X338126443Y-156162315D02*
G75*
G02*
X337008445Y-157243888I-3993243J3009115D01*
G01*
X137647123Y-69742290D02*
X159416325Y-72801754D01*
X306550560Y-70050855D02*
X341587989Y-74630224D01*
X159416325Y-72801755D02*
G75*
G02*
X160241183Y-72989959I-695825J-4951345D01*
G01*
X87287750Y-157243883D02*
G75*
G02*
X86169753Y-156162312I2874950J4090383D01*
G01*
X341587989Y-74630224D02*
G75*
G02*
X345891377Y-78892190I-647889J-4957776D01*
G01*
M02*
