M48
; DRILL file {KiCad 8.0.1} date 2024-04-17T22:26:22+0200
; FORMAT={-:-/ absolute / metric / decimal}
; #@! TF.CreationDate,2024-04-17T22:26:22+02:00
; #@! TF.GenerationSoftware,Kicad,Pcbnew,8.0.1
; #@! TF.FileFunction,NonPlated,1,2,NPTH
FMAT,2
METRIC
; #@! TA.AperFunction,NonPlated,NPTH,ComponentDrill
T1C0.900
; #@! TA.AperFunction,NonPlated,NPTH,ComponentDrill
T2C1.702
; #@! TA.AperFunction,NonPlated,NPTH,ComponentDrill
T3C3.000
; #@! TA.AperFunction,NonPlated,NPTH,ComponentDrill
T4C3.429
; #@! TA.AperFunction,NonPlated,NPTH,ComponentDrill
T5C3.988
%
G90
G05
T1
X317.834Y-73.942
X320.808Y-74.334
T2
X77.902Y-124.864
X78.318Y-124.922
X80.546Y-106.049
X80.962Y-106.107
X83.191Y-87.234
X83.606Y-87.292
X88.379Y-126.336
X88.795Y-126.395
X91.023Y-107.521
X91.439Y-107.58
X93.668Y-88.706
X94.073Y-146.323
X94.083Y-88.765
X94.489Y-146.382
X96.717Y-127.508
X97.133Y-127.567
X99.361Y-108.693
X99.777Y-108.751
X102.006Y-89.878
X102.422Y-89.936
X104.55Y-147.796
X104.966Y-147.854
X107.194Y-128.981
X107.61Y-129.039
X109.838Y-110.165
X110.254Y-110.224
X112.483Y-91.35
X112.899Y-91.409
X114.349Y-138.57
X114.765Y-138.628
X116.993Y-119.755
X117.409Y-119.813
X119.638Y-100.939
X120.054Y-100.998
X122.282Y-82.124
X122.698Y-82.183
X124.826Y-140.042
X125.242Y-140.101
X127.47Y-121.227
X127.886Y-121.285
X130.115Y-102.412
X130.531Y-102.47
X131.0Y-168.189
X131.335Y-167.937
X132.759Y-83.597
X133.175Y-83.655
X133.582Y-138.243
X133.998Y-138.302
X136.226Y-119.428
X136.642Y-119.487
X138.87Y-100.613
X139.286Y-100.671
X139.449Y-161.822
X139.785Y-161.569
X141.515Y-81.798
X141.931Y-81.856
X144.059Y-139.716
X144.475Y-139.774
X146.703Y-120.901
X147.119Y-120.959
X149.347Y-102.085
X149.763Y-102.144
X151.701Y-145.839
X151.992Y-83.27
X152.117Y-145.897
X152.408Y-83.329
X154.345Y-127.024
X154.761Y-127.082
X156.99Y-108.209
X157.405Y-108.267
X158.169Y-168.08
X158.584Y-168.139
X159.634Y-89.393
X160.05Y-89.452
X162.178Y-147.311
X162.594Y-147.37
X164.822Y-128.496
X165.238Y-128.555
X167.467Y-109.681
X167.883Y-109.739
X168.646Y-169.553
X169.061Y-169.611
X170.111Y-90.866
X170.307Y-149.968
X170.527Y-90.924
X170.723Y-150.027
X172.952Y-131.153
X173.368Y-131.212
X175.596Y-112.338
X176.012Y-112.397
X178.24Y-93.523
X178.656Y-93.582
X180.784Y-151.441
X181.2Y-151.499
X183.429Y-132.626
X183.845Y-132.684
X186.073Y-113.811
X186.489Y-113.869
X186.849Y-175.795
X187.219Y-175.992
X188.717Y-94.996
X189.133Y-95.054
X196.19Y-180.762
X196.561Y-180.959
X227.735Y-180.959
X228.106Y-180.762
X235.163Y-95.054
X235.579Y-94.996
X237.077Y-175.992
X237.448Y-175.795
X237.807Y-113.869
X238.223Y-113.811
X240.452Y-132.684
X240.868Y-132.626
X243.096Y-151.499
X243.512Y-151.441
X245.64Y-93.582
X246.056Y-93.523
X248.284Y-112.397
X248.7Y-112.338
X250.929Y-131.212
X251.345Y-131.153
X253.573Y-150.027
X253.769Y-90.924
X253.989Y-149.968
X254.185Y-90.866
X255.235Y-169.611
X255.651Y-169.553
X256.414Y-109.739
X256.83Y-109.681
X259.058Y-128.555
X259.474Y-128.496
X261.702Y-147.37
X262.118Y-147.311
X264.246Y-89.452
X264.662Y-89.393
X265.712Y-168.139
X266.128Y-168.08
X266.891Y-108.267
X267.307Y-108.209
X269.535Y-127.082
X269.951Y-127.024
X271.889Y-83.329
X272.179Y-145.897
X272.305Y-83.27
X272.595Y-145.839
X274.533Y-102.144
X274.949Y-102.085
X277.177Y-120.959
X277.593Y-120.901
X279.821Y-139.774
X280.237Y-139.716
X282.366Y-81.856
X282.782Y-81.798
X284.511Y-161.569
X284.847Y-161.822
X285.01Y-100.671
X285.426Y-100.613
X287.654Y-119.487
X288.07Y-119.428
X290.299Y-138.302
X290.714Y-138.243
X291.121Y-83.655
X291.537Y-83.597
X292.961Y-167.937
X293.296Y-168.189
X293.766Y-102.47
X294.181Y-102.412
X296.41Y-121.285
X296.826Y-121.227
X299.054Y-140.101
X299.47Y-140.042
X301.598Y-82.183
X302.014Y-82.124
X304.243Y-100.998
X304.658Y-100.939
X306.887Y-119.813
X307.303Y-119.755
X309.531Y-138.628
X309.947Y-138.57
X311.398Y-91.409
X311.814Y-91.35
X314.042Y-110.224
X314.458Y-110.165
X316.686Y-129.039
X317.102Y-128.981
X319.33Y-147.854
X319.746Y-147.796
X321.875Y-89.936
X322.291Y-89.878
X324.519Y-108.751
X324.935Y-108.693
X327.163Y-127.567
X327.579Y-127.508
X329.808Y-146.382
X330.213Y-88.765
X330.223Y-146.323
X330.629Y-88.706
X332.857Y-107.58
X333.273Y-107.521
X335.501Y-126.395
X335.917Y-126.336
X340.69Y-87.292
X341.106Y-87.234
X343.334Y-106.107
X343.75Y-106.049
X345.978Y-124.922
X346.394Y-124.864
T3
X79.929Y-122.584
X82.573Y-103.769
X84.176Y-119.737
X85.218Y-84.954
X86.571Y-120.952
X86.821Y-100.922
X88.822Y-122.612
X89.215Y-102.137
X89.465Y-82.107
X91.466Y-103.797
X91.859Y-83.322
X94.11Y-84.981
X96.1Y-144.043
X98.744Y-125.228
X100.347Y-141.197
X101.388Y-106.413
X102.742Y-142.412
X102.992Y-122.381
X104.033Y-87.598
X104.992Y-144.071
X105.386Y-123.596
X105.636Y-103.566
X107.637Y-125.256
X108.03Y-104.781
X108.28Y-84.751
X110.281Y-106.441
X110.674Y-85.966
X112.925Y-87.626
X116.376Y-136.29
X119.02Y-117.474
X120.624Y-133.443
X121.665Y-98.659
X123.018Y-134.658
X123.268Y-114.628
X124.309Y-79.844
X125.269Y-136.317
X125.662Y-115.843
X125.912Y-95.813
X127.913Y-117.502
X128.306Y-97.028
X128.557Y-76.998
X130.557Y-98.687
X130.821Y-165.144
X130.951Y-78.213
X131.812Y-160.127
X133.202Y-79.872
X134.364Y-159.294
X135.609Y-135.963
X137.129Y-158.875
X138.253Y-117.148
X139.856Y-133.117
X140.897Y-98.333
X142.251Y-134.332
X142.501Y-114.301
X143.542Y-79.518
X144.501Y-135.991
X144.895Y-115.516
X145.145Y-95.486
X147.146Y-117.176
X147.539Y-96.701
X147.789Y-76.671
X149.79Y-98.361
X150.183Y-77.886
X152.434Y-79.546
X153.728Y-143.559
X156.372Y-124.744
X157.976Y-140.712
X159.017Y-105.929
X160.196Y-165.8
X160.37Y-141.927
X160.62Y-121.897
X161.661Y-87.113
X162.621Y-143.587
X163.014Y-123.112
X163.264Y-103.082
X164.443Y-162.954
X165.265Y-124.771
X165.658Y-104.297
X165.908Y-84.267
X166.837Y-164.169
X167.909Y-105.956
X168.303Y-85.482
X169.088Y-165.828
X170.554Y-87.141
X172.334Y-147.688
X174.979Y-128.873
X176.582Y-144.842
X177.623Y-110.058
X178.976Y-146.057
X179.226Y-126.027
X180.267Y-91.243
X181.227Y-147.716
X181.62Y-127.242
X181.87Y-107.212
X183.871Y-128.901
X184.265Y-108.427
X184.515Y-88.397
X186.516Y-110.086
X186.909Y-89.612
X189.16Y-91.271
X189.533Y-174.345
X194.498Y-173.123
X196.332Y-175.084
X197.88Y-177.413
X228.035Y-177.923
X229.798Y-173.123
X232.449Y-172.699
X235.246Y-172.718
X236.483Y-92.304
X239.127Y-111.119
X239.781Y-88.397
X241.772Y-129.934
X242.418Y-88.905
X242.426Y-107.212
X244.416Y-148.749
X245.039Y-89.879
X245.062Y-107.72
X245.07Y-126.027
X247.683Y-108.694
X247.706Y-126.535
X247.714Y-144.842
X250.328Y-127.509
X250.351Y-145.35
X252.972Y-146.325
X255.089Y-88.174
X256.555Y-166.861
X257.734Y-106.989
X258.388Y-84.267
X259.853Y-162.954
X260.378Y-125.804
X261.024Y-84.775
X261.032Y-103.082
X262.489Y-163.462
X263.022Y-144.619
X263.645Y-85.75
X263.668Y-103.59
X263.676Y-121.897
X265.111Y-164.436
X266.29Y-104.565
X266.313Y-122.405
X266.321Y-140.712
X268.934Y-123.38
X268.957Y-141.22
X271.578Y-142.195
X273.209Y-80.578
X275.853Y-99.393
X276.507Y-76.671
X278.497Y-118.208
X279.143Y-77.179
X279.151Y-95.486
X281.142Y-137.024
X281.765Y-78.154
X281.788Y-95.994
X281.796Y-114.301
X284.409Y-96.969
X284.432Y-114.809
X284.44Y-133.117
X287.053Y-115.784
X287.076Y-133.625
X287.39Y-160.558
X289.697Y-134.599
X292.441Y-80.905
X292.485Y-160.127
X293.99Y-162.351
X295.086Y-99.72
X295.154Y-164.894
X295.74Y-76.998
X297.73Y-118.535
X298.376Y-77.506
X298.384Y-95.813
X300.374Y-137.35
X300.997Y-78.48
X301.02Y-96.321
X301.028Y-114.628
X303.641Y-97.296
X303.665Y-115.136
X303.672Y-133.443
X306.286Y-116.111
X306.309Y-133.951
X308.93Y-134.926
X312.718Y-88.658
X315.362Y-107.473
X316.016Y-84.751
X318.006Y-126.289
X318.652Y-85.259
X318.66Y-103.566
X320.651Y-145.104
X321.274Y-86.234
X321.297Y-104.074
X321.305Y-122.381
X323.918Y-105.049
X323.941Y-122.889
X323.949Y-141.197
X326.562Y-123.864
X326.585Y-141.705
X329.206Y-142.679
X331.533Y-86.014
X334.177Y-104.829
X334.831Y-82.107
X336.821Y-123.644
X337.467Y-82.615
X337.475Y-100.922
X340.089Y-83.59
X340.112Y-101.43
X340.12Y-119.737
X342.733Y-102.405
X342.756Y-120.245
X345.377Y-121.22
T4
X83.348Y-125.629
X85.993Y-106.814
X88.637Y-87.999
X99.519Y-147.089
X102.164Y-128.274
X104.808Y-109.458
X107.452Y-90.643
X119.796Y-139.335
X122.44Y-120.52
X125.084Y-101.705
X127.729Y-82.89
X135.392Y-164.879
X139.028Y-139.009
X141.673Y-120.194
X144.317Y-101.378
X146.961Y-82.563
X157.147Y-146.604
X159.792Y-127.789
X162.436Y-108.974
X163.615Y-168.846
X165.08Y-90.159
X175.754Y-150.734
X178.398Y-131.919
X181.042Y-113.104
X183.687Y-94.289
X191.705Y-178.377
X232.591Y-178.377
X240.61Y-94.289
X243.254Y-113.104
X245.898Y-131.919
X248.542Y-150.734
X259.216Y-90.159
X260.681Y-168.846
X261.86Y-108.974
X264.504Y-127.789
X267.149Y-146.604
X277.335Y-82.563
X279.979Y-101.378
X282.624Y-120.194
X285.268Y-139.009
X288.904Y-164.879
X296.568Y-82.89
X299.212Y-101.705
X301.856Y-120.52
X304.501Y-139.335
X316.844Y-90.643
X319.488Y-109.458
X322.133Y-128.274
X324.777Y-147.089
X335.659Y-87.999
X338.303Y-106.814
X340.948Y-125.629
T5
X83.348Y-125.629
X85.993Y-106.814
X88.637Y-87.999
X99.519Y-147.089
X102.164Y-128.274
X104.808Y-109.458
X107.452Y-90.643
X119.796Y-139.335
X122.44Y-120.52
X125.084Y-101.705
X127.729Y-82.89
X135.392Y-164.879
X139.028Y-139.009
X141.673Y-120.194
X144.317Y-101.378
X146.961Y-82.563
X157.147Y-146.604
X159.792Y-127.789
X162.436Y-108.974
X163.615Y-168.846
X165.08Y-90.159
X175.754Y-150.734
X178.398Y-131.919
X181.042Y-113.104
X183.687Y-94.289
X191.705Y-178.377
X232.591Y-178.377
X240.61Y-94.289
X243.254Y-113.104
X245.898Y-131.919
X248.542Y-150.734
X259.216Y-90.159
X260.681Y-168.846
X261.86Y-108.974
X264.504Y-127.789
X267.149Y-146.604
X277.335Y-82.563
X279.979Y-101.378
X282.624Y-120.194
X285.268Y-139.009
X288.904Y-164.879
X296.568Y-82.89
X299.212Y-101.705
X301.856Y-120.52
X304.501Y-139.335
X316.844Y-90.643
X319.488Y-109.458
X322.133Y-128.274
X324.777Y-147.089
X335.659Y-87.999
X338.303Y-106.814
X340.948Y-125.629
M30
