%TF.GenerationSoftware,KiCad,Pcbnew,8.0.1*%
%TF.CreationDate,2024-04-17T00:20:50+02:00*%
%TF.ProjectId,shockboard,73686f63-6b62-46f6-9172-642e6b696361,v1.0.0*%
%TF.SameCoordinates,Original*%
%TF.FileFunction,Drillmap*%
%TF.FilePolarity,Positive*%
%FSLAX45Y45*%
G04 Gerber Fmt 4.5, Leading zero omitted, Abs format (unit mm)*
G04 Created by KiCad (PCBNEW 8.0.1) date 2024-04-17 00:20:50*
%MOMM*%
%LPD*%
G01*
G04 APERTURE LIST*
%ADD10C,0.150000*%
%ADD11C,0.200000*%
%ADD12C,0.100000*%
%ADD13C,0.170180*%
%ADD14C,0.300000*%
%ADD15C,0.342900*%
%ADD16C,0.398780*%
G04 APERTURE END LIST*
D10*
X35353517Y-13328083D02*
G75*
G02*
X35257698Y-13698575I-495117J-69587D01*
G01*
X8616975Y-15616231D02*
X7171919Y-13698577D01*
X7171919Y-13698577D02*
G75*
G02*
X7076099Y-13328083I399301J300907D01*
G01*
X28366775Y-19473525D02*
G75*
G02*
X28079258Y-19564463I-287515J409045D01*
G01*
X7840485Y-7889219D02*
G75*
G02*
X8270820Y-7463023I495134J-69587D01*
G01*
X16024118Y-7298996D02*
X19582039Y-8434929D01*
X35257701Y-13698577D02*
X33812644Y-15616232D01*
X33700844Y-15724388D02*
X28366775Y-19473525D01*
X28742981Y-6969435D02*
X30598745Y-7000941D01*
X19734111Y-8458616D02*
G75*
G02*
X19582039Y-8434929I9J500046D01*
G01*
X26487987Y-7280175D02*
X28664907Y-6974229D01*
X8270820Y-7463023D02*
X11774564Y-7005085D01*
X28664907Y-6974229D02*
G75*
G02*
X28742981Y-6969435I69583J-495101D01*
G01*
X22847580Y-8434929D02*
G75*
G02*
X22695508Y-8458617I-152090J476409D01*
G01*
X19734111Y-8458616D02*
X22695508Y-8458616D01*
X28079258Y-19564461D02*
X14350362Y-19564461D01*
X22847580Y-8434929D02*
X26405501Y-7298996D01*
X11774563Y-7005085D02*
G75*
G02*
X11830875Y-7000940I64797J-495705D01*
G01*
X11830875Y-7000941D02*
X13686638Y-6969435D01*
X14062844Y-19473526D02*
X8728775Y-15724388D01*
X13686638Y-6969435D02*
G75*
G02*
X13764712Y-6974229I8492J-499935D01*
G01*
X26405501Y-7298996D02*
G75*
G02*
X26487987Y-7280175I152099J-476424D01*
G01*
X30598745Y-7000941D02*
G75*
G02*
X30655056Y-7005085I-8485J-499879D01*
G01*
X7076103Y-13328083D02*
X7840485Y-7889219D01*
X14350362Y-19564461D02*
G75*
G02*
X14062845Y-19473524I8J500021D01*
G01*
X34589134Y-7889219D02*
X35353517Y-13328083D01*
X33812644Y-15616231D02*
G75*
G02*
X33700845Y-15724389I-399324J300912D01*
G01*
X13764712Y-6974229D02*
X15941632Y-7280175D01*
X30655056Y-7005085D02*
X34158799Y-7463022D01*
X15941632Y-7280175D02*
G75*
G02*
X16024118Y-7298996I-69583J-495135D01*
G01*
X8728775Y-15724388D02*
G75*
G02*
X8616975Y-15616231I287495J409038D01*
G01*
X34158799Y-7463022D02*
G75*
G02*
X34589138Y-7889219I-64789J-495778D01*
G01*
D11*
D12*
X31738394Y-7349221D02*
X31828394Y-7439221D01*
X31828394Y-7349221D02*
X31738394Y-7439221D01*
X32035827Y-7388379D02*
X32125827Y-7478379D01*
X32125827Y-7388379D02*
X32035827Y-7478379D01*
D13*
X7875284Y-12486381D02*
G75*
G02*
X7705104Y-12486381I-85090J0D01*
G01*
X7705104Y-12486381D02*
G75*
G02*
X7875284Y-12486381I85090J0D01*
G01*
X7916876Y-12492227D02*
G75*
G02*
X7746696Y-12492227I-85090J0D01*
G01*
X7746696Y-12492227D02*
G75*
G02*
X7916876Y-12492227I85090J0D01*
G01*
X8139713Y-10604872D02*
G75*
G02*
X7969533Y-10604872I-85090J0D01*
G01*
X7969533Y-10604872D02*
G75*
G02*
X8139713Y-10604872I85090J0D01*
G01*
X8181304Y-10610717D02*
G75*
G02*
X8011124Y-10610717I-85090J0D01*
G01*
X8011124Y-10610717D02*
G75*
G02*
X8181304Y-10610717I85090J0D01*
G01*
X8404143Y-8723362D02*
G75*
G02*
X8233963Y-8723362I-85090J0D01*
G01*
X8233963Y-8723362D02*
G75*
G02*
X8404143Y-8723362I85090J0D01*
G01*
X8445734Y-8729207D02*
G75*
G02*
X8275554Y-8729207I-85090J0D01*
G01*
X8275554Y-8729207D02*
G75*
G02*
X8445734Y-8729207I85090J0D01*
G01*
X8922988Y-12633626D02*
G75*
G02*
X8752808Y-12633626I-85090J0D01*
G01*
X8752808Y-12633626D02*
G75*
G02*
X8922988Y-12633626I85090J0D01*
G01*
X8964579Y-12639471D02*
G75*
G02*
X8794399Y-12639471I-85090J0D01*
G01*
X8794399Y-12639471D02*
G75*
G02*
X8964579Y-12639471I85090J0D01*
G01*
X9187417Y-10752116D02*
G75*
G02*
X9017237Y-10752116I-85090J0D01*
G01*
X9017237Y-10752116D02*
G75*
G02*
X9187417Y-10752116I85090J0D01*
G01*
X9229008Y-10757962D02*
G75*
G02*
X9058828Y-10757962I-85090J0D01*
G01*
X9058828Y-10757962D02*
G75*
G02*
X9229008Y-10757962I85090J0D01*
G01*
X9451846Y-8870607D02*
G75*
G02*
X9281666Y-8870607I-85090J0D01*
G01*
X9281666Y-8870607D02*
G75*
G02*
X9451846Y-8870607I85090J0D01*
G01*
X9492365Y-14632319D02*
G75*
G02*
X9322185Y-14632319I-85090J0D01*
G01*
X9322185Y-14632319D02*
G75*
G02*
X9492365Y-14632319I85090J0D01*
G01*
X9493438Y-8876452D02*
G75*
G02*
X9323258Y-8876452I-85090J0D01*
G01*
X9323258Y-8876452D02*
G75*
G02*
X9493438Y-8876452I85090J0D01*
G01*
X9533956Y-14638165D02*
G75*
G02*
X9363776Y-14638165I-85090J0D01*
G01*
X9363776Y-14638165D02*
G75*
G02*
X9533956Y-14638165I85090J0D01*
G01*
X9756794Y-12750810D02*
G75*
G02*
X9586614Y-12750810I-85090J0D01*
G01*
X9586614Y-12750810D02*
G75*
G02*
X9756794Y-12750810I85090J0D01*
G01*
X9798385Y-12756655D02*
G75*
G02*
X9628205Y-12756655I-85090J0D01*
G01*
X9628205Y-12756655D02*
G75*
G02*
X9798385Y-12756655I85090J0D01*
G01*
X10021223Y-10869300D02*
G75*
G02*
X9851043Y-10869300I-85090J0D01*
G01*
X9851043Y-10869300D02*
G75*
G02*
X10021223Y-10869300I85090J0D01*
G01*
X10062814Y-10875146D02*
G75*
G02*
X9892634Y-10875146I-85090J0D01*
G01*
X9892634Y-10875146D02*
G75*
G02*
X10062814Y-10875146I85090J0D01*
G01*
X10285652Y-8987791D02*
G75*
G02*
X10115472Y-8987791I-85090J0D01*
G01*
X10115472Y-8987791D02*
G75*
G02*
X10285652Y-8987791I85090J0D01*
G01*
X10327243Y-8993637D02*
G75*
G02*
X10157063Y-8993637I-85090J0D01*
G01*
X10157063Y-8993637D02*
G75*
G02*
X10327243Y-8993637I85090J0D01*
G01*
X10540068Y-14779564D02*
G75*
G02*
X10369888Y-14779564I-85090J0D01*
G01*
X10369888Y-14779564D02*
G75*
G02*
X10540068Y-14779564I85090J0D01*
G01*
X10581660Y-14785410D02*
G75*
G02*
X10411480Y-14785410I-85090J0D01*
G01*
X10411480Y-14785410D02*
G75*
G02*
X10581660Y-14785410I85090J0D01*
G01*
X10804498Y-12898055D02*
G75*
G02*
X10634318Y-12898055I-85090J0D01*
G01*
X10634318Y-12898055D02*
G75*
G02*
X10804498Y-12898055I85090J0D01*
G01*
X10846089Y-12903900D02*
G75*
G02*
X10675909Y-12903900I-85090J0D01*
G01*
X10675909Y-12903900D02*
G75*
G02*
X10846089Y-12903900I85090J0D01*
G01*
X11068927Y-11016545D02*
G75*
G02*
X10898747Y-11016545I-85090J0D01*
G01*
X10898747Y-11016545D02*
G75*
G02*
X11068927Y-11016545I85090J0D01*
G01*
X11110518Y-11022391D02*
G75*
G02*
X10940338Y-11022391I-85090J0D01*
G01*
X10940338Y-11022391D02*
G75*
G02*
X11110518Y-11022391I85090J0D01*
G01*
X11333355Y-9135036D02*
G75*
G02*
X11163175Y-9135036I-85090J0D01*
G01*
X11163175Y-9135036D02*
G75*
G02*
X11333355Y-9135036I85090J0D01*
G01*
X11374946Y-9140882D02*
G75*
G02*
X11204766Y-9140882I-85090J0D01*
G01*
X11204766Y-9140882D02*
G75*
G02*
X11374946Y-9140882I85090J0D01*
G01*
X11520006Y-13856967D02*
G75*
G02*
X11349826Y-13856967I-85090J0D01*
G01*
X11349826Y-13856967D02*
G75*
G02*
X11520006Y-13856967I85090J0D01*
G01*
X11561597Y-13862812D02*
G75*
G02*
X11391417Y-13862812I-85090J0D01*
G01*
X11391417Y-13862812D02*
G75*
G02*
X11561597Y-13862812I85090J0D01*
G01*
X11784435Y-11975457D02*
G75*
G02*
X11614255Y-11975457I-85090J0D01*
G01*
X11614255Y-11975457D02*
G75*
G02*
X11784435Y-11975457I85090J0D01*
G01*
X11826026Y-11981303D02*
G75*
G02*
X11655846Y-11981303I-85090J0D01*
G01*
X11655846Y-11981303D02*
G75*
G02*
X11826026Y-11981303I85090J0D01*
G01*
X12048864Y-10093948D02*
G75*
G02*
X11878684Y-10093948I-85090J0D01*
G01*
X11878684Y-10093948D02*
G75*
G02*
X12048864Y-10093948I85090J0D01*
G01*
X12090455Y-10099794D02*
G75*
G02*
X11920275Y-10099794I-85090J0D01*
G01*
X11920275Y-10099794D02*
G75*
G02*
X12090455Y-10099794I85090J0D01*
G01*
X12313293Y-8212438D02*
G75*
G02*
X12143113Y-8212438I-85090J0D01*
G01*
X12143113Y-8212438D02*
G75*
G02*
X12313293Y-8212438I85090J0D01*
G01*
X12354884Y-8218284D02*
G75*
G02*
X12184704Y-8218284I-85090J0D01*
G01*
X12184704Y-8218284D02*
G75*
G02*
X12354884Y-8218284I85090J0D01*
G01*
X12567709Y-14004212D02*
G75*
G02*
X12397529Y-14004212I-85090J0D01*
G01*
X12397529Y-14004212D02*
G75*
G02*
X12567709Y-14004212I85090J0D01*
G01*
X12609300Y-14010057D02*
G75*
G02*
X12439120Y-14010057I-85090J0D01*
G01*
X12439120Y-14010057D02*
G75*
G02*
X12609300Y-14010057I85090J0D01*
G01*
X12832138Y-12122702D02*
G75*
G02*
X12661958Y-12122702I-85090J0D01*
G01*
X12661958Y-12122702D02*
G75*
G02*
X12832138Y-12122702I85090J0D01*
G01*
X12873730Y-12128548D02*
G75*
G02*
X12703550Y-12128548I-85090J0D01*
G01*
X12703550Y-12128548D02*
G75*
G02*
X12873730Y-12128548I85090J0D01*
G01*
X13096567Y-10241193D02*
G75*
G02*
X12926387Y-10241193I-85090J0D01*
G01*
X12926387Y-10241193D02*
G75*
G02*
X13096567Y-10241193I85090J0D01*
G01*
X13138158Y-10247039D02*
G75*
G02*
X12967978Y-10247039I-85090J0D01*
G01*
X12967978Y-10247039D02*
G75*
G02*
X13138158Y-10247039I85090J0D01*
G01*
X13185075Y-16818934D02*
G75*
G02*
X13014895Y-16818934I-85090J0D01*
G01*
X13014895Y-16818934D02*
G75*
G02*
X13185075Y-16818934I85090J0D01*
G01*
X13218618Y-16793657D02*
G75*
G02*
X13048438Y-16793657I-85090J0D01*
G01*
X13048438Y-16793657D02*
G75*
G02*
X13218618Y-16793657I85090J0D01*
G01*
X13360996Y-8359683D02*
G75*
G02*
X13190816Y-8359683I-85090J0D01*
G01*
X13190816Y-8359683D02*
G75*
G02*
X13360996Y-8359683I85090J0D01*
G01*
X13402588Y-8365529D02*
G75*
G02*
X13232408Y-8365529I-85090J0D01*
G01*
X13232408Y-8365529D02*
G75*
G02*
X13402588Y-8365529I85090J0D01*
G01*
X13443267Y-13824315D02*
G75*
G02*
X13273087Y-13824315I-85090J0D01*
G01*
X13273087Y-13824315D02*
G75*
G02*
X13443267Y-13824315I85090J0D01*
G01*
X13484859Y-13830160D02*
G75*
G02*
X13314679Y-13830160I-85090J0D01*
G01*
X13314679Y-13830160D02*
G75*
G02*
X13484859Y-13830160I85090J0D01*
G01*
X13707696Y-11942806D02*
G75*
G02*
X13537516Y-11942806I-85090J0D01*
G01*
X13537516Y-11942806D02*
G75*
G02*
X13707696Y-11942806I85090J0D01*
G01*
X13749287Y-11948651D02*
G75*
G02*
X13579107Y-11948651I-85090J0D01*
G01*
X13579107Y-11948651D02*
G75*
G02*
X13749287Y-11948651I85090J0D01*
G01*
X13972125Y-10061296D02*
G75*
G02*
X13801945Y-10061296I-85090J0D01*
G01*
X13801945Y-10061296D02*
G75*
G02*
X13972125Y-10061296I85090J0D01*
G01*
X14013716Y-10067142D02*
G75*
G02*
X13843536Y-10067142I-85090J0D01*
G01*
X13843536Y-10067142D02*
G75*
G02*
X14013716Y-10067142I85090J0D01*
G01*
X14030032Y-16182213D02*
G75*
G02*
X13859852Y-16182213I-85090J0D01*
G01*
X13859852Y-16182213D02*
G75*
G02*
X14030032Y-16182213I85090J0D01*
G01*
X14063574Y-16156937D02*
G75*
G02*
X13893394Y-16156937I-85090J0D01*
G01*
X13893394Y-16156937D02*
G75*
G02*
X14063574Y-16156937I85090J0D01*
G01*
X14236554Y-8179787D02*
G75*
G02*
X14066374Y-8179787I-85090J0D01*
G01*
X14066374Y-8179787D02*
G75*
G02*
X14236554Y-8179787I85090J0D01*
G01*
X14278145Y-8185633D02*
G75*
G02*
X14107965Y-8185633I-85090J0D01*
G01*
X14107965Y-8185633D02*
G75*
G02*
X14278145Y-8185633I85090J0D01*
G01*
X14490971Y-13971560D02*
G75*
G02*
X14320791Y-13971560I-85090J0D01*
G01*
X14320791Y-13971560D02*
G75*
G02*
X14490971Y-13971560I85090J0D01*
G01*
X14532562Y-13977405D02*
G75*
G02*
X14362382Y-13977405I-85090J0D01*
G01*
X14362382Y-13977405D02*
G75*
G02*
X14532562Y-13977405I85090J0D01*
G01*
X14755400Y-12090051D02*
G75*
G02*
X14585220Y-12090051I-85090J0D01*
G01*
X14585220Y-12090051D02*
G75*
G02*
X14755400Y-12090051I85090J0D01*
G01*
X14796991Y-12095896D02*
G75*
G02*
X14626811Y-12095896I-85090J0D01*
G01*
X14626811Y-12095896D02*
G75*
G02*
X14796991Y-12095896I85090J0D01*
G01*
X15019829Y-10208541D02*
G75*
G02*
X14849649Y-10208541I-85090J0D01*
G01*
X14849649Y-10208541D02*
G75*
G02*
X15019829Y-10208541I85090J0D01*
G01*
X15061420Y-10214387D02*
G75*
G02*
X14891240Y-10214387I-85090J0D01*
G01*
X14891240Y-10214387D02*
G75*
G02*
X15061420Y-10214387I85090J0D01*
G01*
X15255190Y-14583878D02*
G75*
G02*
X15085010Y-14583878I-85090J0D01*
G01*
X15085010Y-14583878D02*
G75*
G02*
X15255190Y-14583878I85090J0D01*
G01*
X15284258Y-8327032D02*
G75*
G02*
X15114078Y-8327032I-85090J0D01*
G01*
X15114078Y-8327032D02*
G75*
G02*
X15284258Y-8327032I85090J0D01*
G01*
X15296781Y-14589723D02*
G75*
G02*
X15126601Y-14589723I-85090J0D01*
G01*
X15126601Y-14589723D02*
G75*
G02*
X15296781Y-14589723I85090J0D01*
G01*
X15325849Y-8332878D02*
G75*
G02*
X15155669Y-8332878I-85090J0D01*
G01*
X15155669Y-8332878D02*
G75*
G02*
X15325849Y-8332878I85090J0D01*
G01*
X15519619Y-12702368D02*
G75*
G02*
X15349439Y-12702368I-85090J0D01*
G01*
X15349439Y-12702368D02*
G75*
G02*
X15519619Y-12702368I85090J0D01*
G01*
X15561210Y-12708214D02*
G75*
G02*
X15391030Y-12708214I-85090J0D01*
G01*
X15391030Y-12708214D02*
G75*
G02*
X15561210Y-12708214I85090J0D01*
G01*
X15784048Y-10820859D02*
G75*
G02*
X15613868Y-10820859I-85090J0D01*
G01*
X15613868Y-10820859D02*
G75*
G02*
X15784048Y-10820859I85090J0D01*
G01*
X15825639Y-10826705D02*
G75*
G02*
X15655459Y-10826705I-85090J0D01*
G01*
X15655459Y-10826705D02*
G75*
G02*
X15825639Y-10826705I85090J0D01*
G01*
X15901941Y-16808034D02*
G75*
G02*
X15731761Y-16808034I-85090J0D01*
G01*
X15731761Y-16808034D02*
G75*
G02*
X15901941Y-16808034I85090J0D01*
G01*
X15943533Y-16813879D02*
G75*
G02*
X15773353Y-16813879I-85090J0D01*
G01*
X15773353Y-16813879D02*
G75*
G02*
X15943533Y-16813879I85090J0D01*
G01*
X16048477Y-8939350D02*
G75*
G02*
X15878297Y-8939350I-85090J0D01*
G01*
X15878297Y-8939350D02*
G75*
G02*
X16048477Y-8939350I85090J0D01*
G01*
X16090068Y-8945195D02*
G75*
G02*
X15919888Y-8945195I-85090J0D01*
G01*
X15919888Y-8945195D02*
G75*
G02*
X16090068Y-8945195I85090J0D01*
G01*
X16302893Y-14731123D02*
G75*
G02*
X16132713Y-14731123I-85090J0D01*
G01*
X16132713Y-14731123D02*
G75*
G02*
X16302893Y-14731123I85090J0D01*
G01*
X16344485Y-14736968D02*
G75*
G02*
X16174305Y-14736968I-85090J0D01*
G01*
X16174305Y-14736968D02*
G75*
G02*
X16344485Y-14736968I85090J0D01*
G01*
X16567323Y-12849613D02*
G75*
G02*
X16397143Y-12849613I-85090J0D01*
G01*
X16397143Y-12849613D02*
G75*
G02*
X16567323Y-12849613I85090J0D01*
G01*
X16608914Y-12855459D02*
G75*
G02*
X16438734Y-12855459I-85090J0D01*
G01*
X16438734Y-12855459D02*
G75*
G02*
X16608914Y-12855459I85090J0D01*
G01*
X16831751Y-10968104D02*
G75*
G02*
X16661571Y-10968104I-85090J0D01*
G01*
X16661571Y-10968104D02*
G75*
G02*
X16831751Y-10968104I85090J0D01*
G01*
X16873343Y-10973950D02*
G75*
G02*
X16703162Y-10973950I-85090J0D01*
G01*
X16703162Y-10973950D02*
G75*
G02*
X16873343Y-10973950I85090J0D01*
G01*
X16949645Y-16955279D02*
G75*
G02*
X16779465Y-16955279I-85090J0D01*
G01*
X16779465Y-16955279D02*
G75*
G02*
X16949645Y-16955279I85090J0D01*
G01*
X16991236Y-16961124D02*
G75*
G02*
X16821056Y-16961124I-85090J0D01*
G01*
X16821056Y-16961124D02*
G75*
G02*
X16991236Y-16961124I85090J0D01*
G01*
X17096180Y-9086595D02*
G75*
G02*
X16926000Y-9086595I-85090J0D01*
G01*
X16926000Y-9086595D02*
G75*
G02*
X17096180Y-9086595I85090J0D01*
G01*
X17115823Y-14996847D02*
G75*
G02*
X16945643Y-14996847I-85090J0D01*
G01*
X16945643Y-14996847D02*
G75*
G02*
X17115823Y-14996847I85090J0D01*
G01*
X17137771Y-9092440D02*
G75*
G02*
X16967591Y-9092440I-85090J0D01*
G01*
X16967591Y-9092440D02*
G75*
G02*
X17137771Y-9092440I85090J0D01*
G01*
X17157415Y-15002692D02*
G75*
G02*
X16987235Y-15002692I-85090J0D01*
G01*
X16987235Y-15002692D02*
G75*
G02*
X17157415Y-15002692I85090J0D01*
G01*
X17380252Y-13115338D02*
G75*
G02*
X17210072Y-13115338I-85090J0D01*
G01*
X17210072Y-13115338D02*
G75*
G02*
X17380252Y-13115338I85090J0D01*
G01*
X17421843Y-13121183D02*
G75*
G02*
X17251663Y-13121183I-85090J0D01*
G01*
X17251663Y-13121183D02*
G75*
G02*
X17421843Y-13121183I85090J0D01*
G01*
X17644681Y-11233828D02*
G75*
G02*
X17474501Y-11233828I-85090J0D01*
G01*
X17474501Y-11233828D02*
G75*
G02*
X17644681Y-11233828I85090J0D01*
G01*
X17686272Y-11239674D02*
G75*
G02*
X17516092Y-11239674I-85090J0D01*
G01*
X17516092Y-11239674D02*
G75*
G02*
X17686272Y-11239674I85090J0D01*
G01*
X17909110Y-9352319D02*
G75*
G02*
X17738930Y-9352319I-85090J0D01*
G01*
X17738930Y-9352319D02*
G75*
G02*
X17909110Y-9352319I85090J0D01*
G01*
X17950701Y-9358164D02*
G75*
G02*
X17780521Y-9358164I-85090J0D01*
G01*
X17780521Y-9358164D02*
G75*
G02*
X17950701Y-9358164I85090J0D01*
G01*
X18163527Y-15144092D02*
G75*
G02*
X17993347Y-15144092I-85090J0D01*
G01*
X17993347Y-15144092D02*
G75*
G02*
X18163527Y-15144092I85090J0D01*
G01*
X18205118Y-15149937D02*
G75*
G02*
X18034938Y-15149937I-85090J0D01*
G01*
X18034938Y-15149937D02*
G75*
G02*
X18205118Y-15149937I85090J0D01*
G01*
X18427956Y-13262583D02*
G75*
G02*
X18257776Y-13262583I-85090J0D01*
G01*
X18257776Y-13262583D02*
G75*
G02*
X18427956Y-13262583I85090J0D01*
G01*
X18469547Y-13268428D02*
G75*
G02*
X18299367Y-13268428I-85090J0D01*
G01*
X18299367Y-13268428D02*
G75*
G02*
X18469547Y-13268428I85090J0D01*
G01*
X18692385Y-11381073D02*
G75*
G02*
X18522205Y-11381073I-85090J0D01*
G01*
X18522205Y-11381073D02*
G75*
G02*
X18692385Y-11381073I85090J0D01*
G01*
X18733976Y-11386919D02*
G75*
G02*
X18563796Y-11386919I-85090J0D01*
G01*
X18563796Y-11386919D02*
G75*
G02*
X18733976Y-11386919I85090J0D01*
G01*
X18769946Y-17579455D02*
G75*
G02*
X18599766Y-17579455I-85090J0D01*
G01*
X18599766Y-17579455D02*
G75*
G02*
X18769946Y-17579455I85090J0D01*
G01*
X18807030Y-17599172D02*
G75*
G02*
X18636850Y-17599172I-85090J0D01*
G01*
X18636850Y-17599172D02*
G75*
G02*
X18807030Y-17599172I85090J0D01*
G01*
X18956814Y-9499564D02*
G75*
G02*
X18786634Y-9499564I-85090J0D01*
G01*
X18786634Y-9499564D02*
G75*
G02*
X18956814Y-9499564I85090J0D01*
G01*
X18998405Y-9505409D02*
G75*
G02*
X18828225Y-9505409I-85090J0D01*
G01*
X18828225Y-9505409D02*
G75*
G02*
X18998405Y-9505409I85090J0D01*
G01*
X19704105Y-18076156D02*
G75*
G02*
X19533925Y-18076156I-85090J0D01*
G01*
X19533925Y-18076156D02*
G75*
G02*
X19704105Y-18076156I85090J0D01*
G01*
X19741189Y-18095873D02*
G75*
G02*
X19571009Y-18095873I-85090J0D01*
G01*
X19571009Y-18095873D02*
G75*
G02*
X19741189Y-18095873I85090J0D01*
G01*
X22858611Y-18095874D02*
G75*
G02*
X22688431Y-18095874I-85090J0D01*
G01*
X22688431Y-18095874D02*
G75*
G02*
X22858611Y-18095874I85090J0D01*
G01*
X22895694Y-18076156D02*
G75*
G02*
X22725514Y-18076156I-85090J0D01*
G01*
X22725514Y-18076156D02*
G75*
G02*
X22895694Y-18076156I85090J0D01*
G01*
X23601395Y-9505410D02*
G75*
G02*
X23431215Y-9505410I-85090J0D01*
G01*
X23431215Y-9505410D02*
G75*
G02*
X23601395Y-9505410I85090J0D01*
G01*
X23642986Y-9499564D02*
G75*
G02*
X23472806Y-9499564I-85090J0D01*
G01*
X23472806Y-9499564D02*
G75*
G02*
X23642986Y-9499564I85090J0D01*
G01*
X23792769Y-17599173D02*
G75*
G02*
X23622589Y-17599173I-85090J0D01*
G01*
X23622589Y-17599173D02*
G75*
G02*
X23792769Y-17599173I85090J0D01*
G01*
X23829853Y-17579455D02*
G75*
G02*
X23659673Y-17579455I-85090J0D01*
G01*
X23659673Y-17579455D02*
G75*
G02*
X23829853Y-17579455I85090J0D01*
G01*
X23865824Y-11386919D02*
G75*
G02*
X23695644Y-11386919I-85090J0D01*
G01*
X23695644Y-11386919D02*
G75*
G02*
X23865824Y-11386919I85090J0D01*
G01*
X23907415Y-11381073D02*
G75*
G02*
X23737235Y-11381073I-85090J0D01*
G01*
X23737235Y-11381073D02*
G75*
G02*
X23907415Y-11381073I85090J0D01*
G01*
X24130252Y-13268428D02*
G75*
G02*
X23960072Y-13268428I-85090J0D01*
G01*
X23960072Y-13268428D02*
G75*
G02*
X24130252Y-13268428I85090J0D01*
G01*
X24171843Y-13262582D02*
G75*
G02*
X24001663Y-13262582I-85090J0D01*
G01*
X24001663Y-13262582D02*
G75*
G02*
X24171843Y-13262582I85090J0D01*
G01*
X24394681Y-15149938D02*
G75*
G02*
X24224501Y-15149938I-85090J0D01*
G01*
X24224501Y-15149938D02*
G75*
G02*
X24394681Y-15149938I85090J0D01*
G01*
X24436273Y-15144092D02*
G75*
G02*
X24266093Y-15144092I-85090J0D01*
G01*
X24266093Y-15144092D02*
G75*
G02*
X24436273Y-15144092I85090J0D01*
G01*
X24649098Y-9358165D02*
G75*
G02*
X24478918Y-9358165I-85090J0D01*
G01*
X24478918Y-9358165D02*
G75*
G02*
X24649098Y-9358165I85090J0D01*
G01*
X24690689Y-9352319D02*
G75*
G02*
X24520509Y-9352319I-85090J0D01*
G01*
X24520509Y-9352319D02*
G75*
G02*
X24690689Y-9352319I85090J0D01*
G01*
X24913527Y-11239674D02*
G75*
G02*
X24743347Y-11239674I-85090J0D01*
G01*
X24743347Y-11239674D02*
G75*
G02*
X24913527Y-11239674I85090J0D01*
G01*
X24955118Y-11233828D02*
G75*
G02*
X24784938Y-11233828I-85090J0D01*
G01*
X24784938Y-11233828D02*
G75*
G02*
X24955118Y-11233828I85090J0D01*
G01*
X25177956Y-13121183D02*
G75*
G02*
X25007776Y-13121183I-85090J0D01*
G01*
X25007776Y-13121183D02*
G75*
G02*
X25177956Y-13121183I85090J0D01*
G01*
X25219547Y-13115337D02*
G75*
G02*
X25049367Y-13115337I-85090J0D01*
G01*
X25049367Y-13115337D02*
G75*
G02*
X25219547Y-13115337I85090J0D01*
G01*
X25442385Y-15002693D02*
G75*
G02*
X25272205Y-15002693I-85090J0D01*
G01*
X25272205Y-15002693D02*
G75*
G02*
X25442385Y-15002693I85090J0D01*
G01*
X25462028Y-9092440D02*
G75*
G02*
X25291848Y-9092440I-85090J0D01*
G01*
X25291848Y-9092440D02*
G75*
G02*
X25462028Y-9092440I85090J0D01*
G01*
X25483976Y-14996847D02*
G75*
G02*
X25313796Y-14996847I-85090J0D01*
G01*
X25313796Y-14996847D02*
G75*
G02*
X25483976Y-14996847I85090J0D01*
G01*
X25503619Y-9086595D02*
G75*
G02*
X25333439Y-9086595I-85090J0D01*
G01*
X25333439Y-9086595D02*
G75*
G02*
X25503619Y-9086595I85090J0D01*
G01*
X25608563Y-16961124D02*
G75*
G02*
X25438383Y-16961124I-85090J0D01*
G01*
X25438383Y-16961124D02*
G75*
G02*
X25608563Y-16961124I85090J0D01*
G01*
X25650154Y-16955279D02*
G75*
G02*
X25479974Y-16955279I-85090J0D01*
G01*
X25479974Y-16955279D02*
G75*
G02*
X25650154Y-16955279I85090J0D01*
G01*
X25726457Y-10973950D02*
G75*
G02*
X25556277Y-10973950I-85090J0D01*
G01*
X25556277Y-10973950D02*
G75*
G02*
X25726457Y-10973950I85090J0D01*
G01*
X25768048Y-10968104D02*
G75*
G02*
X25597868Y-10968104I-85090J0D01*
G01*
X25597868Y-10968104D02*
G75*
G02*
X25768048Y-10968104I85090J0D01*
G01*
X25990886Y-12855459D02*
G75*
G02*
X25820706Y-12855459I-85090J0D01*
G01*
X25820706Y-12855459D02*
G75*
G02*
X25990886Y-12855459I85090J0D01*
G01*
X26032477Y-12849613D02*
G75*
G02*
X25862297Y-12849613I-85090J0D01*
G01*
X25862297Y-12849613D02*
G75*
G02*
X26032477Y-12849613I85090J0D01*
G01*
X26255315Y-14736968D02*
G75*
G02*
X26085135Y-14736968I-85090J0D01*
G01*
X26085135Y-14736968D02*
G75*
G02*
X26255315Y-14736968I85090J0D01*
G01*
X26296906Y-14731123D02*
G75*
G02*
X26126726Y-14731123I-85090J0D01*
G01*
X26126726Y-14731123D02*
G75*
G02*
X26296906Y-14731123I85090J0D01*
G01*
X26509732Y-8945195D02*
G75*
G02*
X26339552Y-8945195I-85090J0D01*
G01*
X26339552Y-8945195D02*
G75*
G02*
X26509732Y-8945195I85090J0D01*
G01*
X26551323Y-8939350D02*
G75*
G02*
X26381143Y-8939350I-85090J0D01*
G01*
X26381143Y-8939350D02*
G75*
G02*
X26551323Y-8939350I85090J0D01*
G01*
X26656266Y-16813879D02*
G75*
G02*
X26486086Y-16813879I-85090J0D01*
G01*
X26486086Y-16813879D02*
G75*
G02*
X26656266Y-16813879I85090J0D01*
G01*
X26697858Y-16808034D02*
G75*
G02*
X26527678Y-16808034I-85090J0D01*
G01*
X26527678Y-16808034D02*
G75*
G02*
X26697858Y-16808034I85090J0D01*
G01*
X26774160Y-10826705D02*
G75*
G02*
X26603980Y-10826705I-85090J0D01*
G01*
X26603980Y-10826705D02*
G75*
G02*
X26774160Y-10826705I85090J0D01*
G01*
X26815752Y-10820859D02*
G75*
G02*
X26645572Y-10820859I-85090J0D01*
G01*
X26645572Y-10820859D02*
G75*
G02*
X26815752Y-10820859I85090J0D01*
G01*
X27038589Y-12708214D02*
G75*
G02*
X26868409Y-12708214I-85090J0D01*
G01*
X26868409Y-12708214D02*
G75*
G02*
X27038589Y-12708214I85090J0D01*
G01*
X27080180Y-12702369D02*
G75*
G02*
X26910000Y-12702369I-85090J0D01*
G01*
X26910000Y-12702369D02*
G75*
G02*
X27080180Y-12702369I85090J0D01*
G01*
X27273951Y-8332877D02*
G75*
G02*
X27103771Y-8332877I-85090J0D01*
G01*
X27103771Y-8332877D02*
G75*
G02*
X27273951Y-8332877I85090J0D01*
G01*
X27303018Y-14589723D02*
G75*
G02*
X27132838Y-14589723I-85090J0D01*
G01*
X27132838Y-14589723D02*
G75*
G02*
X27303018Y-14589723I85090J0D01*
G01*
X27315542Y-8327032D02*
G75*
G02*
X27145362Y-8327032I-85090J0D01*
G01*
X27145362Y-8327032D02*
G75*
G02*
X27315542Y-8327032I85090J0D01*
G01*
X27344609Y-14583878D02*
G75*
G02*
X27174429Y-14583878I-85090J0D01*
G01*
X27174429Y-14583878D02*
G75*
G02*
X27344609Y-14583878I85090J0D01*
G01*
X27538379Y-10214387D02*
G75*
G02*
X27368199Y-10214387I-85090J0D01*
G01*
X27368199Y-10214387D02*
G75*
G02*
X27538379Y-10214387I85090J0D01*
G01*
X27579971Y-10208541D02*
G75*
G02*
X27409791Y-10208541I-85090J0D01*
G01*
X27409791Y-10208541D02*
G75*
G02*
X27579971Y-10208541I85090J0D01*
G01*
X27802808Y-12095896D02*
G75*
G02*
X27632628Y-12095896I-85090J0D01*
G01*
X27632628Y-12095896D02*
G75*
G02*
X27802808Y-12095896I85090J0D01*
G01*
X27844400Y-12090051D02*
G75*
G02*
X27674220Y-12090051I-85090J0D01*
G01*
X27674220Y-12090051D02*
G75*
G02*
X27844400Y-12090051I85090J0D01*
G01*
X28067237Y-13977406D02*
G75*
G02*
X27897057Y-13977406I-85090J0D01*
G01*
X27897057Y-13977406D02*
G75*
G02*
X28067237Y-13977406I85090J0D01*
G01*
X28108828Y-13971560D02*
G75*
G02*
X27938648Y-13971560I-85090J0D01*
G01*
X27938648Y-13971560D02*
G75*
G02*
X28108828Y-13971560I85090J0D01*
G01*
X28321654Y-8185632D02*
G75*
G02*
X28151474Y-8185632I-85090J0D01*
G01*
X28151474Y-8185632D02*
G75*
G02*
X28321654Y-8185632I85090J0D01*
G01*
X28363246Y-8179787D02*
G75*
G02*
X28193066Y-8179787I-85090J0D01*
G01*
X28193066Y-8179787D02*
G75*
G02*
X28363246Y-8179787I85090J0D01*
G01*
X28536225Y-16156937D02*
G75*
G02*
X28366045Y-16156937I-85090J0D01*
G01*
X28366045Y-16156937D02*
G75*
G02*
X28536225Y-16156937I85090J0D01*
G01*
X28569767Y-16182214D02*
G75*
G02*
X28399587Y-16182214I-85090J0D01*
G01*
X28399587Y-16182214D02*
G75*
G02*
X28569767Y-16182214I85090J0D01*
G01*
X28586083Y-10067142D02*
G75*
G02*
X28415903Y-10067142I-85090J0D01*
G01*
X28415903Y-10067142D02*
G75*
G02*
X28586083Y-10067142I85090J0D01*
G01*
X28627674Y-10061296D02*
G75*
G02*
X28457494Y-10061296I-85090J0D01*
G01*
X28457494Y-10061296D02*
G75*
G02*
X28627674Y-10061296I85090J0D01*
G01*
X28850512Y-11948651D02*
G75*
G02*
X28680332Y-11948651I-85090J0D01*
G01*
X28680332Y-11948651D02*
G75*
G02*
X28850512Y-11948651I85090J0D01*
G01*
X28892103Y-11942806D02*
G75*
G02*
X28721923Y-11942806I-85090J0D01*
G01*
X28721923Y-11942806D02*
G75*
G02*
X28892103Y-11942806I85090J0D01*
G01*
X29114941Y-13830161D02*
G75*
G02*
X28944761Y-13830161I-85090J0D01*
G01*
X28944761Y-13830161D02*
G75*
G02*
X29114941Y-13830161I85090J0D01*
G01*
X29156532Y-13824315D02*
G75*
G02*
X28986352Y-13824315I-85090J0D01*
G01*
X28986352Y-13824315D02*
G75*
G02*
X29156532Y-13824315I85090J0D01*
G01*
X29197212Y-8365529D02*
G75*
G02*
X29027032Y-8365529I-85090J0D01*
G01*
X29027032Y-8365529D02*
G75*
G02*
X29197212Y-8365529I85090J0D01*
G01*
X29238803Y-8359683D02*
G75*
G02*
X29068623Y-8359683I-85090J0D01*
G01*
X29068623Y-8359683D02*
G75*
G02*
X29238803Y-8359683I85090J0D01*
G01*
X29381181Y-16793658D02*
G75*
G02*
X29211001Y-16793658I-85090J0D01*
G01*
X29211001Y-16793658D02*
G75*
G02*
X29381181Y-16793658I85090J0D01*
G01*
X29414724Y-16818934D02*
G75*
G02*
X29244544Y-16818934I-85090J0D01*
G01*
X29244544Y-16818934D02*
G75*
G02*
X29414724Y-16818934I85090J0D01*
G01*
X29461641Y-10247038D02*
G75*
G02*
X29291461Y-10247038I-85090J0D01*
G01*
X29291461Y-10247038D02*
G75*
G02*
X29461641Y-10247038I85090J0D01*
G01*
X29503232Y-10241193D02*
G75*
G02*
X29333052Y-10241193I-85090J0D01*
G01*
X29333052Y-10241193D02*
G75*
G02*
X29503232Y-10241193I85090J0D01*
G01*
X29726070Y-12128548D02*
G75*
G02*
X29555890Y-12128548I-85090J0D01*
G01*
X29555890Y-12128548D02*
G75*
G02*
X29726070Y-12128548I85090J0D01*
G01*
X29767661Y-12122702D02*
G75*
G02*
X29597481Y-12122702I-85090J0D01*
G01*
X29597481Y-12122702D02*
G75*
G02*
X29767661Y-12122702I85090J0D01*
G01*
X29990499Y-14010057D02*
G75*
G02*
X29820319Y-14010057I-85090J0D01*
G01*
X29820319Y-14010057D02*
G75*
G02*
X29990499Y-14010057I85090J0D01*
G01*
X30032090Y-14004212D02*
G75*
G02*
X29861910Y-14004212I-85090J0D01*
G01*
X29861910Y-14004212D02*
G75*
G02*
X30032090Y-14004212I85090J0D01*
G01*
X30244915Y-8218284D02*
G75*
G02*
X30074735Y-8218284I-85090J0D01*
G01*
X30074735Y-8218284D02*
G75*
G02*
X30244915Y-8218284I85090J0D01*
G01*
X30286507Y-8212438D02*
G75*
G02*
X30116327Y-8212438I-85090J0D01*
G01*
X30116327Y-8212438D02*
G75*
G02*
X30286507Y-8212438I85090J0D01*
G01*
X30509344Y-10099793D02*
G75*
G02*
X30339164Y-10099793I-85090J0D01*
G01*
X30339164Y-10099793D02*
G75*
G02*
X30509344Y-10099793I85090J0D01*
G01*
X30550936Y-10093948D02*
G75*
G02*
X30380756Y-10093948I-85090J0D01*
G01*
X30380756Y-10093948D02*
G75*
G02*
X30550936Y-10093948I85090J0D01*
G01*
X30773773Y-11981303D02*
G75*
G02*
X30603593Y-11981303I-85090J0D01*
G01*
X30603593Y-11981303D02*
G75*
G02*
X30773773Y-11981303I85090J0D01*
G01*
X30815364Y-11975457D02*
G75*
G02*
X30645184Y-11975457I-85090J0D01*
G01*
X30645184Y-11975457D02*
G75*
G02*
X30815364Y-11975457I85090J0D01*
G01*
X31038202Y-13862812D02*
G75*
G02*
X30868022Y-13862812I-85090J0D01*
G01*
X30868022Y-13862812D02*
G75*
G02*
X31038202Y-13862812I85090J0D01*
G01*
X31079793Y-13856967D02*
G75*
G02*
X30909613Y-13856967I-85090J0D01*
G01*
X30909613Y-13856967D02*
G75*
G02*
X31079793Y-13856967I85090J0D01*
G01*
X31224853Y-9140882D02*
G75*
G02*
X31054673Y-9140882I-85090J0D01*
G01*
X31054673Y-9140882D02*
G75*
G02*
X31224853Y-9140882I85090J0D01*
G01*
X31266444Y-9135036D02*
G75*
G02*
X31096264Y-9135036I-85090J0D01*
G01*
X31096264Y-9135036D02*
G75*
G02*
X31266444Y-9135036I85090J0D01*
G01*
X31489282Y-11022391D02*
G75*
G02*
X31319102Y-11022391I-85090J0D01*
G01*
X31319102Y-11022391D02*
G75*
G02*
X31489282Y-11022391I85090J0D01*
G01*
X31530873Y-11016545D02*
G75*
G02*
X31360693Y-11016545I-85090J0D01*
G01*
X31360693Y-11016545D02*
G75*
G02*
X31530873Y-11016545I85090J0D01*
G01*
X31753711Y-12903900D02*
G75*
G02*
X31583531Y-12903900I-85090J0D01*
G01*
X31583531Y-12903900D02*
G75*
G02*
X31753711Y-12903900I85090J0D01*
G01*
X31795302Y-12898055D02*
G75*
G02*
X31625122Y-12898055I-85090J0D01*
G01*
X31625122Y-12898055D02*
G75*
G02*
X31795302Y-12898055I85090J0D01*
G01*
X32018140Y-14785409D02*
G75*
G02*
X31847960Y-14785409I-85090J0D01*
G01*
X31847960Y-14785409D02*
G75*
G02*
X32018140Y-14785409I85090J0D01*
G01*
X32059731Y-14779564D02*
G75*
G02*
X31889551Y-14779564I-85090J0D01*
G01*
X31889551Y-14779564D02*
G75*
G02*
X32059731Y-14779564I85090J0D01*
G01*
X32272557Y-8993637D02*
G75*
G02*
X32102377Y-8993637I-85090J0D01*
G01*
X32102377Y-8993637D02*
G75*
G02*
X32272557Y-8993637I85090J0D01*
G01*
X32314148Y-8987791D02*
G75*
G02*
X32143968Y-8987791I-85090J0D01*
G01*
X32143968Y-8987791D02*
G75*
G02*
X32314148Y-8987791I85090J0D01*
G01*
X32536985Y-10875146D02*
G75*
G02*
X32366805Y-10875146I-85090J0D01*
G01*
X32366805Y-10875146D02*
G75*
G02*
X32536985Y-10875146I85090J0D01*
G01*
X32578577Y-10869300D02*
G75*
G02*
X32408397Y-10869300I-85090J0D01*
G01*
X32408397Y-10869300D02*
G75*
G02*
X32578577Y-10869300I85090J0D01*
G01*
X32801414Y-12756655D02*
G75*
G02*
X32631234Y-12756655I-85090J0D01*
G01*
X32631234Y-12756655D02*
G75*
G02*
X32801414Y-12756655I85090J0D01*
G01*
X32843006Y-12750810D02*
G75*
G02*
X32672826Y-12750810I-85090J0D01*
G01*
X32672826Y-12750810D02*
G75*
G02*
X32843006Y-12750810I85090J0D01*
G01*
X33065843Y-14638164D02*
G75*
G02*
X32895663Y-14638164I-85090J0D01*
G01*
X32895663Y-14638164D02*
G75*
G02*
X33065843Y-14638164I85090J0D01*
G01*
X33106362Y-8876453D02*
G75*
G02*
X32936182Y-8876453I-85090J0D01*
G01*
X32936182Y-8876453D02*
G75*
G02*
X33106362Y-8876453I85090J0D01*
G01*
X33107434Y-14632319D02*
G75*
G02*
X32937254Y-14632319I-85090J0D01*
G01*
X32937254Y-14632319D02*
G75*
G02*
X33107434Y-14632319I85090J0D01*
G01*
X33147953Y-8870607D02*
G75*
G02*
X32977773Y-8870607I-85090J0D01*
G01*
X32977773Y-8870607D02*
G75*
G02*
X33147953Y-8870607I85090J0D01*
G01*
X33370791Y-10757962D02*
G75*
G02*
X33200611Y-10757962I-85090J0D01*
G01*
X33200611Y-10757962D02*
G75*
G02*
X33370791Y-10757962I85090J0D01*
G01*
X33412382Y-10752117D02*
G75*
G02*
X33242202Y-10752117I-85090J0D01*
G01*
X33242202Y-10752117D02*
G75*
G02*
X33412382Y-10752117I85090J0D01*
G01*
X33635220Y-12639471D02*
G75*
G02*
X33465040Y-12639471I-85090J0D01*
G01*
X33465040Y-12639471D02*
G75*
G02*
X33635220Y-12639471I85090J0D01*
G01*
X33676811Y-12633626D02*
G75*
G02*
X33506631Y-12633626I-85090J0D01*
G01*
X33506631Y-12633626D02*
G75*
G02*
X33676811Y-12633626I85090J0D01*
G01*
X34154066Y-8729208D02*
G75*
G02*
X33983886Y-8729208I-85090J0D01*
G01*
X33983886Y-8729208D02*
G75*
G02*
X34154066Y-8729208I85090J0D01*
G01*
X34195657Y-8723362D02*
G75*
G02*
X34025477Y-8723362I-85090J0D01*
G01*
X34025477Y-8723362D02*
G75*
G02*
X34195657Y-8723362I85090J0D01*
G01*
X34418495Y-10610717D02*
G75*
G02*
X34248315Y-10610717I-85090J0D01*
G01*
X34248315Y-10610717D02*
G75*
G02*
X34418495Y-10610717I85090J0D01*
G01*
X34460086Y-10604872D02*
G75*
G02*
X34289906Y-10604872I-85090J0D01*
G01*
X34289906Y-10604872D02*
G75*
G02*
X34460086Y-10604872I85090J0D01*
G01*
X34682924Y-12492226D02*
G75*
G02*
X34512744Y-12492226I-85090J0D01*
G01*
X34512744Y-12492226D02*
G75*
G02*
X34682924Y-12492226I85090J0D01*
G01*
X34724515Y-12486381D02*
G75*
G02*
X34554335Y-12486381I-85090J0D01*
G01*
X34554335Y-12486381D02*
G75*
G02*
X34724515Y-12486381I85090J0D01*
G01*
D14*
X7992900Y-12108373D02*
X7992900Y-12408373D01*
X7842900Y-12258373D02*
X8142900Y-12258373D01*
X8257328Y-10226864D02*
X8257328Y-10526864D01*
X8107328Y-10376864D02*
X8407329Y-10376864D01*
X8417650Y-11823717D02*
X8417650Y-12123717D01*
X8267650Y-11973717D02*
X8567650Y-11973717D01*
X8521758Y-8345354D02*
X8521758Y-8645354D01*
X8371758Y-8495354D02*
X8671758Y-8495354D01*
X8657070Y-11945220D02*
X8657070Y-12245220D01*
X8507070Y-12095220D02*
X8807070Y-12095220D01*
X8682079Y-9942207D02*
X8682079Y-10242207D01*
X8532079Y-10092207D02*
X8832079Y-10092207D01*
X8882166Y-12111162D02*
X8882166Y-12411162D01*
X8732166Y-12261162D02*
X9032166Y-12261162D01*
X8921499Y-10063711D02*
X8921499Y-10363711D01*
X8771499Y-10213711D02*
X9071499Y-10213711D01*
X8946508Y-8060698D02*
X8946508Y-8360698D01*
X8796508Y-8210698D02*
X9096508Y-8210698D01*
X9146595Y-10229653D02*
X9146595Y-10529653D01*
X8996595Y-10379653D02*
X9296595Y-10379653D01*
X9185928Y-8182201D02*
X9185928Y-8482201D01*
X9035928Y-8332201D02*
X9335928Y-8332201D01*
X9411024Y-8348143D02*
X9411024Y-8648143D01*
X9261024Y-8498143D02*
X9561024Y-8498143D01*
X9609980Y-14254311D02*
X9609980Y-14554311D01*
X9459980Y-14404311D02*
X9759980Y-14404311D01*
X9874409Y-12372802D02*
X9874409Y-12672802D01*
X9724409Y-12522802D02*
X10024409Y-12522802D01*
X10034730Y-13969655D02*
X10034730Y-14269655D01*
X9884730Y-14119655D02*
X10184730Y-14119655D01*
X10138838Y-10491293D02*
X10138838Y-10791293D01*
X9988838Y-10641293D02*
X10288838Y-10641293D01*
X10274150Y-14091158D02*
X10274150Y-14391158D01*
X10124150Y-14241158D02*
X10424150Y-14241158D01*
X10299160Y-12088146D02*
X10299160Y-12388146D01*
X10149160Y-12238146D02*
X10449160Y-12238146D01*
X10403267Y-8609783D02*
X10403267Y-8909783D01*
X10253267Y-8759783D02*
X10553267Y-8759783D01*
X10499246Y-14257100D02*
X10499246Y-14557100D01*
X10349246Y-14407100D02*
X10649246Y-14407100D01*
X10538580Y-12209649D02*
X10538580Y-12509649D01*
X10388580Y-12359649D02*
X10688580Y-12359649D01*
X10563588Y-10206636D02*
X10563588Y-10506636D01*
X10413588Y-10356636D02*
X10713588Y-10356636D01*
X10763675Y-12375591D02*
X10763675Y-12675591D01*
X10613675Y-12525591D02*
X10913675Y-12525591D01*
X10803008Y-10328140D02*
X10803008Y-10628140D01*
X10653008Y-10478140D02*
X10953008Y-10478140D01*
X10828017Y-8325127D02*
X10828017Y-8625127D01*
X10678017Y-8475127D02*
X10978017Y-8475127D01*
X11028104Y-10494082D02*
X11028104Y-10794082D01*
X10878104Y-10644082D02*
X11178104Y-10644082D01*
X11067437Y-8446630D02*
X11067437Y-8746630D01*
X10917437Y-8596630D02*
X11217437Y-8596630D01*
X11292533Y-8612572D02*
X11292533Y-8912572D01*
X11142533Y-8762572D02*
X11442533Y-8762572D01*
X11637621Y-13478959D02*
X11637621Y-13778959D01*
X11487621Y-13628959D02*
X11787621Y-13628959D01*
X11902050Y-11597450D02*
X11902050Y-11897450D01*
X11752050Y-11747450D02*
X12052050Y-11747450D01*
X12062371Y-13194302D02*
X12062371Y-13494302D01*
X11912371Y-13344302D02*
X12212371Y-13344302D01*
X12166479Y-9715940D02*
X12166479Y-10015940D01*
X12016479Y-9865940D02*
X12316479Y-9865940D01*
X12301791Y-13315806D02*
X12301791Y-13615806D01*
X12151791Y-13465806D02*
X12451791Y-13465806D01*
X12326800Y-11312793D02*
X12326800Y-11612793D01*
X12176800Y-11462793D02*
X12476800Y-11462793D01*
X12430908Y-7834431D02*
X12430908Y-8134431D01*
X12280908Y-7984431D02*
X12580908Y-7984431D01*
X12526887Y-13481748D02*
X12526887Y-13781748D01*
X12376887Y-13631748D02*
X12676887Y-13631748D01*
X12566220Y-11434297D02*
X12566220Y-11734297D01*
X12416220Y-11584297D02*
X12716220Y-11584297D01*
X12591229Y-9431284D02*
X12591229Y-9731284D01*
X12441229Y-9581284D02*
X12741229Y-9581284D01*
X12791316Y-11600239D02*
X12791316Y-11900239D01*
X12641316Y-11750239D02*
X12941316Y-11750239D01*
X12830649Y-9552787D02*
X12830649Y-9852787D01*
X12680649Y-9702787D02*
X12980649Y-9702787D01*
X12855658Y-7549774D02*
X12855658Y-7849774D01*
X12705658Y-7699774D02*
X13005658Y-7699774D01*
X13055745Y-9718729D02*
X13055745Y-10018729D01*
X12905745Y-9868729D02*
X13205745Y-9868729D01*
X13082094Y-16364374D02*
X13082094Y-16664374D01*
X12932094Y-16514374D02*
X13232094Y-16514374D01*
X13095078Y-7671278D02*
X13095078Y-7971278D01*
X12945078Y-7821278D02*
X13245078Y-7821278D01*
X13181155Y-15862747D02*
X13181155Y-16162747D01*
X13031155Y-16012747D02*
X13331155Y-16012747D01*
X13320174Y-7837220D02*
X13320174Y-8137220D01*
X13170174Y-7987220D02*
X13470174Y-7987220D01*
X13436366Y-15779367D02*
X13436366Y-16079367D01*
X13286366Y-15929367D02*
X13586366Y-15929367D01*
X13560883Y-13446307D02*
X13560883Y-13746307D01*
X13410883Y-13596307D02*
X13710883Y-13596307D01*
X13712872Y-15737540D02*
X13712872Y-16037540D01*
X13562872Y-15887540D02*
X13862872Y-15887540D01*
X13825311Y-11564798D02*
X13825311Y-11864798D01*
X13675311Y-11714798D02*
X13975311Y-11714798D01*
X13985633Y-13161651D02*
X13985633Y-13461651D01*
X13835633Y-13311651D02*
X14135633Y-13311651D01*
X14089740Y-9683288D02*
X14089740Y-9983288D01*
X13939740Y-9833288D02*
X14239740Y-9833288D01*
X14225053Y-13283154D02*
X14225053Y-13583154D01*
X14075053Y-13433154D02*
X14375053Y-13433154D01*
X14250062Y-11280141D02*
X14250062Y-11580141D01*
X14100062Y-11430141D02*
X14400062Y-11430141D01*
X14354169Y-7801779D02*
X14354169Y-8101779D01*
X14204169Y-7951779D02*
X14504169Y-7951779D01*
X14450149Y-13449096D02*
X14450149Y-13749096D01*
X14300149Y-13599096D02*
X14600149Y-13599096D01*
X14489482Y-11401645D02*
X14489482Y-11701645D01*
X14339482Y-11551645D02*
X14639482Y-11551645D01*
X14514490Y-9398632D02*
X14514490Y-9698632D01*
X14364490Y-9548632D02*
X14664490Y-9548632D01*
X14714577Y-11567587D02*
X14714577Y-11867587D01*
X14564577Y-11717587D02*
X14864577Y-11717587D01*
X14753910Y-9520135D02*
X14753910Y-9820135D01*
X14603910Y-9670135D02*
X14903910Y-9670135D01*
X14778919Y-7517123D02*
X14778919Y-7817123D01*
X14628919Y-7667123D02*
X14928919Y-7667123D01*
X14979006Y-9686077D02*
X14979006Y-9986077D01*
X14829006Y-9836077D02*
X15129006Y-9836077D01*
X15018339Y-7638626D02*
X15018339Y-7938626D01*
X14868339Y-7788626D02*
X15168339Y-7788626D01*
X15243435Y-7804568D02*
X15243435Y-8104568D01*
X15093435Y-7954568D02*
X15393435Y-7954568D01*
X15372805Y-14205870D02*
X15372805Y-14505870D01*
X15222805Y-14355870D02*
X15522805Y-14355870D01*
X15637234Y-12324360D02*
X15637234Y-12624360D01*
X15487234Y-12474360D02*
X15787234Y-12474360D01*
X15797555Y-13921213D02*
X15797555Y-14221213D01*
X15647555Y-14071213D02*
X15947555Y-14071213D01*
X15901663Y-10442852D02*
X15901663Y-10742852D01*
X15751663Y-10592852D02*
X16051663Y-10592852D01*
X16019557Y-16430026D02*
X16019557Y-16730026D01*
X15869557Y-16580026D02*
X16169557Y-16580026D01*
X16036975Y-14042717D02*
X16036975Y-14342717D01*
X15886975Y-14192717D02*
X16186975Y-14192717D01*
X16061984Y-12039704D02*
X16061984Y-12339704D01*
X15911984Y-12189704D02*
X16211984Y-12189704D01*
X16166092Y-8561342D02*
X16166092Y-8861342D01*
X16016092Y-8711342D02*
X16316092Y-8711342D01*
X16262071Y-14208659D02*
X16262071Y-14508659D01*
X16112071Y-14358659D02*
X16412071Y-14358659D01*
X16301404Y-12161207D02*
X16301404Y-12461207D01*
X16151404Y-12311207D02*
X16451404Y-12311207D01*
X16326413Y-10158195D02*
X16326413Y-10458195D01*
X16176413Y-10308195D02*
X16476413Y-10308195D01*
X16444307Y-16145369D02*
X16444307Y-16445369D01*
X16294307Y-16295369D02*
X16594307Y-16295369D01*
X16526500Y-12327149D02*
X16526500Y-12627149D01*
X16376500Y-12477149D02*
X16676500Y-12477149D01*
X16565833Y-10279699D02*
X16565833Y-10579699D01*
X16415833Y-10429699D02*
X16715833Y-10429699D01*
X16590842Y-8276685D02*
X16590842Y-8576686D01*
X16440842Y-8426686D02*
X16740842Y-8426686D01*
X16683727Y-16266873D02*
X16683727Y-16566873D01*
X16533727Y-16416873D02*
X16833727Y-16416873D01*
X16790929Y-10445641D02*
X16790929Y-10745641D01*
X16640929Y-10595641D02*
X16940929Y-10595641D01*
X16830262Y-8398189D02*
X16830262Y-8698189D01*
X16680262Y-8548189D02*
X16980262Y-8548189D01*
X16908823Y-16432815D02*
X16908823Y-16732815D01*
X16758823Y-16582815D02*
X17058823Y-16582815D01*
X17055358Y-8564131D02*
X17055358Y-8864131D01*
X16905358Y-8714131D02*
X17205358Y-8714131D01*
X17233439Y-14618839D02*
X17233439Y-14918839D01*
X17083439Y-14768839D02*
X17383439Y-14768839D01*
X17497867Y-12737330D02*
X17497867Y-13037330D01*
X17347867Y-12887330D02*
X17647867Y-12887330D01*
X17658189Y-14334182D02*
X17658189Y-14634182D01*
X17508189Y-14484182D02*
X17808189Y-14484182D01*
X17762296Y-10855821D02*
X17762296Y-11155821D01*
X17612296Y-11005821D02*
X17912296Y-11005821D01*
X17897609Y-14455686D02*
X17897609Y-14755686D01*
X17747609Y-14605686D02*
X18047609Y-14605686D01*
X17922618Y-12452674D02*
X17922618Y-12752674D01*
X17772618Y-12602674D02*
X18072618Y-12602674D01*
X18026725Y-8974311D02*
X18026725Y-9274311D01*
X17876725Y-9124311D02*
X18176725Y-9124311D01*
X18122705Y-14621628D02*
X18122705Y-14921628D01*
X17972705Y-14771628D02*
X18272705Y-14771628D01*
X18162038Y-12574177D02*
X18162038Y-12874177D01*
X18012038Y-12724177D02*
X18312038Y-12724177D01*
X18187046Y-10571164D02*
X18187046Y-10871164D01*
X18037046Y-10721164D02*
X18337046Y-10721164D01*
X18387133Y-12740119D02*
X18387133Y-13040119D01*
X18237133Y-12890119D02*
X18537133Y-12890119D01*
X18426466Y-10692668D02*
X18426466Y-10992668D01*
X18276466Y-10842668D02*
X18576466Y-10842668D01*
X18451476Y-8689655D02*
X18451476Y-8989655D01*
X18301476Y-8839655D02*
X18601476Y-8839655D01*
X18651562Y-10858610D02*
X18651562Y-11158610D01*
X18501562Y-11008610D02*
X18801562Y-11008610D01*
X18690896Y-8811158D02*
X18690896Y-9111158D01*
X18540896Y-8961158D02*
X18840896Y-8961158D01*
X18915991Y-8977100D02*
X18915991Y-9277100D01*
X18765991Y-9127100D02*
X19065991Y-9127100D01*
X18953320Y-17284527D02*
X18953320Y-17584527D01*
X18803320Y-17434527D02*
X19103320Y-17434527D01*
X19449813Y-17162310D02*
X19449813Y-17462310D01*
X19299813Y-17312310D02*
X19599813Y-17312310D01*
X19633238Y-17358372D02*
X19633238Y-17658372D01*
X19483238Y-17508372D02*
X19783238Y-17508372D01*
X19788003Y-17591294D02*
X19788003Y-17891294D01*
X19638003Y-17741294D02*
X19938003Y-17741294D01*
X22803493Y-17642264D02*
X22803493Y-17942264D01*
X22653493Y-17792264D02*
X22953493Y-17792264D01*
X22979806Y-17162311D02*
X22979806Y-17462311D01*
X22829806Y-17312311D02*
X23129806Y-17312311D01*
X23244919Y-17119881D02*
X23244919Y-17419881D01*
X23094919Y-17269881D02*
X23394919Y-17269881D01*
X23524564Y-17121823D02*
X23524564Y-17421823D01*
X23374564Y-17271823D02*
X23674564Y-17271823D01*
X23648310Y-9080361D02*
X23648310Y-9380361D01*
X23498310Y-9230361D02*
X23798310Y-9230361D01*
X23912739Y-10961870D02*
X23912739Y-11261870D01*
X23762739Y-11111870D02*
X24062739Y-11111870D01*
X23978144Y-8689655D02*
X23978144Y-8989655D01*
X23828144Y-8839655D02*
X24128144Y-8839655D01*
X24177168Y-12843380D02*
X24177168Y-13143380D01*
X24027168Y-12993380D02*
X24327168Y-12993380D01*
X24241780Y-8740459D02*
X24241780Y-9040459D01*
X24091780Y-8890459D02*
X24391780Y-8890459D01*
X24242573Y-10571164D02*
X24242573Y-10871164D01*
X24092573Y-10721164D02*
X24392573Y-10721164D01*
X24441597Y-14724889D02*
X24441597Y-15024889D01*
X24291597Y-14874889D02*
X24591597Y-14874889D01*
X24503896Y-8837927D02*
X24503896Y-9137927D01*
X24353896Y-8987927D02*
X24653896Y-8987927D01*
X24506209Y-10621968D02*
X24506209Y-10921968D01*
X24356209Y-10771968D02*
X24656209Y-10771968D01*
X24507002Y-12452673D02*
X24507002Y-12752673D01*
X24357002Y-12602673D02*
X24657002Y-12602673D01*
X24768325Y-10719437D02*
X24768325Y-11019437D01*
X24618325Y-10869437D02*
X24918325Y-10869437D01*
X24770638Y-12503477D02*
X24770638Y-12803477D01*
X24620638Y-12653477D02*
X24920638Y-12653477D01*
X24771431Y-14334183D02*
X24771431Y-14634183D01*
X24621431Y-14484183D02*
X24921431Y-14484183D01*
X25032754Y-12600946D02*
X25032754Y-12900946D01*
X24882754Y-12750946D02*
X25182754Y-12750946D01*
X25035067Y-14384987D02*
X25035067Y-14684987D01*
X24885067Y-14534987D02*
X25185067Y-14534987D01*
X25297183Y-14482455D02*
X25297183Y-14782455D01*
X25147183Y-14632455D02*
X25447183Y-14632455D01*
X25508943Y-8667392D02*
X25508943Y-8967392D01*
X25358943Y-8817392D02*
X25658943Y-8817392D01*
X25655478Y-16536076D02*
X25655478Y-16836076D01*
X25505478Y-16686076D02*
X25805478Y-16686076D01*
X25773372Y-10548902D02*
X25773372Y-10848902D01*
X25623372Y-10698902D02*
X25923372Y-10698902D01*
X25838777Y-8276685D02*
X25838777Y-8576686D01*
X25688777Y-8426686D02*
X25988777Y-8426686D01*
X25985312Y-16145369D02*
X25985312Y-16445369D01*
X25835312Y-16295369D02*
X26135312Y-16295369D01*
X26037801Y-12430411D02*
X26037801Y-12730411D01*
X25887801Y-12580411D02*
X26187801Y-12580411D01*
X26102414Y-8327489D02*
X26102414Y-8627489D01*
X25952414Y-8477489D02*
X26252414Y-8477489D01*
X26103206Y-10158195D02*
X26103206Y-10458195D01*
X25953206Y-10308195D02*
X26253206Y-10308195D01*
X26248948Y-16196173D02*
X26248948Y-16496173D01*
X26098948Y-16346173D02*
X26398948Y-16346173D01*
X26302230Y-14311920D02*
X26302230Y-14611920D01*
X26152230Y-14461920D02*
X26452230Y-14461920D01*
X26364529Y-8424958D02*
X26364529Y-8724958D01*
X26214529Y-8574958D02*
X26514529Y-8574958D01*
X26366842Y-10208999D02*
X26366842Y-10508999D01*
X26216842Y-10358999D02*
X26516842Y-10358999D01*
X26367635Y-12039704D02*
X26367635Y-12339704D01*
X26217635Y-12189704D02*
X26517635Y-12189704D01*
X26511064Y-16293642D02*
X26511064Y-16593642D01*
X26361064Y-16443642D02*
X26661064Y-16443642D01*
X26628958Y-10306468D02*
X26628958Y-10606468D01*
X26478958Y-10456468D02*
X26778958Y-10456468D01*
X26631271Y-12090508D02*
X26631271Y-12390508D01*
X26481271Y-12240508D02*
X26781271Y-12240508D01*
X26632064Y-13921214D02*
X26632064Y-14221214D01*
X26482064Y-14071214D02*
X26782064Y-14071214D01*
X26893387Y-12187977D02*
X26893387Y-12487977D01*
X26743387Y-12337977D02*
X27043387Y-12337977D01*
X26895700Y-13972017D02*
X26895700Y-14272017D01*
X26745700Y-14122017D02*
X27045700Y-14122017D01*
X27157816Y-14069486D02*
X27157816Y-14369486D01*
X27007816Y-14219486D02*
X27307816Y-14219486D01*
X27320866Y-7907829D02*
X27320866Y-8207829D01*
X27170866Y-8057829D02*
X27470866Y-8057829D01*
X27585295Y-9789338D02*
X27585295Y-10089338D01*
X27435295Y-9939338D02*
X27735295Y-9939338D01*
X27650700Y-7517123D02*
X27650700Y-7817123D01*
X27500700Y-7667123D02*
X27800700Y-7667123D01*
X27849724Y-11670848D02*
X27849724Y-11970848D01*
X27699724Y-11820848D02*
X27999724Y-11820848D01*
X27914336Y-7567926D02*
X27914336Y-7867926D01*
X27764336Y-7717926D02*
X28064336Y-7717926D01*
X27915129Y-9398632D02*
X27915129Y-9698632D01*
X27765129Y-9548632D02*
X28065129Y-9548632D01*
X28114152Y-13552357D02*
X28114152Y-13852357D01*
X27964152Y-13702357D02*
X28264152Y-13702357D01*
X28176452Y-7665395D02*
X28176452Y-7965395D01*
X28026452Y-7815395D02*
X28326452Y-7815395D01*
X28178765Y-9449436D02*
X28178765Y-9749436D01*
X28028765Y-9599436D02*
X28328765Y-9599436D01*
X28179558Y-11280141D02*
X28179558Y-11580141D01*
X28029558Y-11430141D02*
X28329558Y-11430141D01*
X28440881Y-9546905D02*
X28440881Y-9846905D01*
X28290881Y-9696905D02*
X28590881Y-9696905D01*
X28443194Y-11330945D02*
X28443194Y-11630945D01*
X28293194Y-11480945D02*
X28593194Y-11480945D01*
X28443987Y-13161651D02*
X28443987Y-13461651D01*
X28293987Y-13311651D02*
X28593987Y-13311651D01*
X28705310Y-11428414D02*
X28705310Y-11728414D01*
X28555310Y-11578414D02*
X28855310Y-11578414D01*
X28707623Y-13212455D02*
X28707623Y-13512455D01*
X28557623Y-13362455D02*
X28857623Y-13362455D01*
X28738965Y-15905791D02*
X28738965Y-16205791D01*
X28588965Y-16055791D02*
X28888965Y-16055791D01*
X28969739Y-13309923D02*
X28969739Y-13609923D01*
X28819739Y-13459923D02*
X29119739Y-13459923D01*
X29244127Y-7940480D02*
X29244127Y-8240480D01*
X29094127Y-8090480D02*
X29394127Y-8090480D01*
X29248464Y-15862747D02*
X29248464Y-16162747D01*
X29098464Y-16012747D02*
X29398464Y-16012747D01*
X29398960Y-16085090D02*
X29398960Y-16385090D01*
X29248960Y-16235090D02*
X29548960Y-16235090D01*
X29508556Y-9821990D02*
X29508556Y-10121990D01*
X29358556Y-9971990D02*
X29658556Y-9971990D01*
X29515382Y-16339355D02*
X29515382Y-16639355D01*
X29365382Y-16489355D02*
X29665382Y-16489355D01*
X29573961Y-7549774D02*
X29573961Y-7849774D01*
X29423961Y-7699774D02*
X29723961Y-7699774D01*
X29772985Y-11703500D02*
X29772985Y-12003500D01*
X29622985Y-11853500D02*
X29922985Y-11853500D01*
X29837597Y-7600578D02*
X29837597Y-7900578D01*
X29687597Y-7750578D02*
X29987597Y-7750578D01*
X29838390Y-9431284D02*
X29838390Y-9731284D01*
X29688390Y-9581284D02*
X29988390Y-9581284D01*
X30037414Y-13585009D02*
X30037414Y-13885009D01*
X29887414Y-13735009D02*
X30187414Y-13735009D01*
X30099713Y-7698047D02*
X30099713Y-7998047D01*
X29949713Y-7848047D02*
X30249713Y-7848047D01*
X30102026Y-9482087D02*
X30102026Y-9782087D01*
X29952026Y-9632087D02*
X30252026Y-9632087D01*
X30102819Y-11312793D02*
X30102819Y-11612793D01*
X29952819Y-11462793D02*
X30252819Y-11462793D01*
X30364142Y-9579556D02*
X30364142Y-9879556D01*
X30214142Y-9729556D02*
X30514142Y-9729556D01*
X30366455Y-11363597D02*
X30366455Y-11663597D01*
X30216455Y-11513597D02*
X30516455Y-11513597D01*
X30367248Y-13194302D02*
X30367248Y-13494302D01*
X30217248Y-13344302D02*
X30517248Y-13344302D01*
X30628571Y-11461066D02*
X30628571Y-11761066D01*
X30478571Y-11611066D02*
X30778571Y-11611066D01*
X30630884Y-13245106D02*
X30630884Y-13545106D01*
X30480884Y-13395106D02*
X30780884Y-13395106D01*
X30893000Y-13342575D02*
X30893000Y-13642575D01*
X30743000Y-13492575D02*
X31043000Y-13492575D01*
X31271768Y-8715833D02*
X31271768Y-9015833D01*
X31121768Y-8865833D02*
X31421768Y-8865833D01*
X31536197Y-10597342D02*
X31536197Y-10897342D01*
X31386197Y-10747342D02*
X31686197Y-10747342D01*
X31601603Y-8325127D02*
X31601603Y-8625127D01*
X31451603Y-8475127D02*
X31751603Y-8475127D01*
X31800626Y-12478852D02*
X31800626Y-12778852D01*
X31650626Y-12628852D02*
X31950626Y-12628852D01*
X31865239Y-8375931D02*
X31865239Y-8675931D01*
X31715239Y-8525931D02*
X32015239Y-8525931D01*
X31866031Y-10206636D02*
X31866031Y-10506636D01*
X31716031Y-10356636D02*
X32016031Y-10356636D01*
X32065055Y-14360361D02*
X32065055Y-14660361D01*
X31915055Y-14510361D02*
X32215055Y-14510361D01*
X32127355Y-8473400D02*
X32127355Y-8773400D01*
X31977355Y-8623400D02*
X32277355Y-8623400D01*
X32129667Y-10257440D02*
X32129667Y-10557440D01*
X31979667Y-10407440D02*
X32279667Y-10407440D01*
X32130460Y-12088145D02*
X32130460Y-12388145D01*
X31980460Y-12238145D02*
X32280460Y-12238145D01*
X32391783Y-10354909D02*
X32391783Y-10654909D01*
X32241783Y-10504909D02*
X32541783Y-10504909D01*
X32394096Y-12138949D02*
X32394096Y-12438949D01*
X32244096Y-12288949D02*
X32544096Y-12288949D01*
X32394889Y-13969655D02*
X32394889Y-14269655D01*
X32244889Y-14119655D02*
X32544889Y-14119655D01*
X32656212Y-12236418D02*
X32656212Y-12536418D01*
X32506212Y-12386418D02*
X32806212Y-12386418D01*
X32658525Y-14020458D02*
X32658525Y-14320458D01*
X32508525Y-14170458D02*
X32808525Y-14170458D01*
X32920641Y-14117927D02*
X32920641Y-14417927D01*
X32770641Y-14267927D02*
X33070641Y-14267927D01*
X33153277Y-8451405D02*
X33153277Y-8751405D01*
X33003277Y-8601405D02*
X33303277Y-8601405D01*
X33417706Y-10332914D02*
X33417706Y-10632914D01*
X33267706Y-10482914D02*
X33567706Y-10482914D01*
X33483111Y-8060698D02*
X33483111Y-8360698D01*
X33333111Y-8210698D02*
X33633112Y-8210698D01*
X33682135Y-12214423D02*
X33682135Y-12514423D01*
X33532135Y-12364423D02*
X33832135Y-12364423D01*
X33746748Y-8111502D02*
X33746748Y-8411502D01*
X33596748Y-8261502D02*
X33896748Y-8261502D01*
X33747540Y-9942207D02*
X33747540Y-10242207D01*
X33597540Y-10092207D02*
X33897540Y-10092207D01*
X34008864Y-8208971D02*
X34008864Y-8508971D01*
X33858864Y-8358971D02*
X34158864Y-8358971D01*
X34011177Y-9993011D02*
X34011177Y-10293011D01*
X33861177Y-10143011D02*
X34161177Y-10143011D01*
X34011970Y-11823717D02*
X34011970Y-12123717D01*
X33861970Y-11973717D02*
X34161970Y-11973717D01*
X34273293Y-10090480D02*
X34273293Y-10390480D01*
X34123293Y-10240480D02*
X34423293Y-10240480D01*
X34275606Y-11874520D02*
X34275606Y-12174520D01*
X34125606Y-12024520D02*
X34425606Y-12024520D01*
X34537722Y-11971989D02*
X34537722Y-12271989D01*
X34387722Y-12121989D02*
X34687722Y-12121989D01*
D15*
X8456076Y-12684161D02*
X8456076Y-12441692D01*
X8213607Y-12441692D01*
X8213607Y-12684161D01*
X8456076Y-12684161D01*
X8720505Y-10802651D02*
X8720505Y-10560182D01*
X8478036Y-10560182D01*
X8478036Y-10802651D01*
X8720505Y-10802651D01*
X8984935Y-8921142D02*
X8984935Y-8678673D01*
X8742466Y-8678673D01*
X8742466Y-8921142D01*
X8984935Y-8921142D01*
X10073157Y-14830099D02*
X10073157Y-14587630D01*
X9830688Y-14587630D01*
X9830688Y-14830099D01*
X10073157Y-14830099D01*
X10337586Y-12948590D02*
X10337586Y-12706120D01*
X10095117Y-12706120D01*
X10095117Y-12948590D01*
X10337586Y-12948590D01*
X10602015Y-11067080D02*
X10602015Y-10824611D01*
X10359546Y-10824611D01*
X10359546Y-11067080D01*
X10602015Y-11067080D01*
X10866444Y-9185571D02*
X10866444Y-8943102D01*
X10623975Y-8943102D01*
X10623975Y-9185571D01*
X10866444Y-9185571D01*
X12100798Y-14054746D02*
X12100798Y-13812277D01*
X11858328Y-13812277D01*
X11858328Y-14054746D01*
X12100798Y-14054746D01*
X12365227Y-12173237D02*
X12365227Y-11930768D01*
X12122758Y-11930768D01*
X12122758Y-12173237D01*
X12365227Y-12173237D01*
X12629656Y-10291728D02*
X12629656Y-10049259D01*
X12387186Y-10049259D01*
X12387186Y-10291728D01*
X12629656Y-10291728D01*
X12894085Y-8410218D02*
X12894085Y-8167749D01*
X12651616Y-8167749D01*
X12651616Y-8410218D01*
X12894085Y-8410218D01*
X13660469Y-16609170D02*
X13660469Y-16366701D01*
X13418000Y-16366701D01*
X13418000Y-16609170D01*
X13660469Y-16609170D01*
X14024059Y-14022095D02*
X14024059Y-13779626D01*
X13781590Y-13779626D01*
X13781590Y-14022095D01*
X14024059Y-14022095D01*
X14288488Y-12140585D02*
X14288488Y-11898116D01*
X14046019Y-11898116D01*
X14046019Y-12140585D01*
X14288488Y-12140585D01*
X14552917Y-10259076D02*
X14552917Y-10016607D01*
X14310448Y-10016607D01*
X14310448Y-10259076D01*
X14552917Y-10259076D01*
X14817346Y-8377567D02*
X14817346Y-8135098D01*
X14574877Y-8135098D01*
X14574877Y-8377567D01*
X14817346Y-8377567D01*
X15835982Y-14781657D02*
X15835982Y-14539188D01*
X15593513Y-14539188D01*
X15593513Y-14781657D01*
X15835982Y-14781657D01*
X16100411Y-12900148D02*
X16100411Y-12657679D01*
X15857942Y-12657679D01*
X15857942Y-12900148D01*
X16100411Y-12900148D01*
X16364840Y-11018639D02*
X16364840Y-10776170D01*
X16122370Y-10776170D01*
X16122370Y-11018639D01*
X16364840Y-11018639D01*
X16482733Y-17005814D02*
X16482733Y-16763344D01*
X16240264Y-16763344D01*
X16240264Y-17005814D01*
X16482733Y-17005814D01*
X16629269Y-9137130D02*
X16629269Y-8894660D01*
X16386799Y-8894660D01*
X16386799Y-9137130D01*
X16629269Y-9137130D01*
X17696615Y-15194626D02*
X17696615Y-14952157D01*
X17454146Y-14952157D01*
X17454146Y-15194626D01*
X17696615Y-15194626D01*
X17961044Y-13313118D02*
X17961044Y-13070649D01*
X17718575Y-13070649D01*
X17718575Y-13313118D01*
X17961044Y-13313118D01*
X18225473Y-11431608D02*
X18225473Y-11189139D01*
X17983004Y-11189139D01*
X17983004Y-11431608D01*
X18225473Y-11431608D01*
X18489902Y-9550099D02*
X18489902Y-9307629D01*
X18247433Y-9307629D01*
X18247433Y-9550099D01*
X18489902Y-9550099D01*
X19291712Y-17958899D02*
X19291712Y-17716429D01*
X19049243Y-17716429D01*
X19049243Y-17958899D01*
X19291712Y-17958899D01*
X23380376Y-17958899D02*
X23380376Y-17716430D01*
X23137907Y-17716430D01*
X23137907Y-17958899D01*
X23380376Y-17958899D01*
X24182187Y-9550099D02*
X24182187Y-9307630D01*
X23939717Y-9307630D01*
X23939717Y-9550099D01*
X24182187Y-9550099D01*
X24446616Y-11431608D02*
X24446616Y-11189139D01*
X24204146Y-11189139D01*
X24204146Y-11431608D01*
X24446616Y-11431608D01*
X24711044Y-13313117D02*
X24711044Y-13070648D01*
X24468575Y-13070648D01*
X24468575Y-13313117D01*
X24711044Y-13313117D01*
X24975473Y-15194627D02*
X24975473Y-14952158D01*
X24733004Y-14952158D01*
X24733004Y-15194627D01*
X24975473Y-15194627D01*
X26042820Y-9137130D02*
X26042820Y-8894660D01*
X25800351Y-8894660D01*
X25800351Y-9137130D01*
X26042820Y-9137130D01*
X26189355Y-17005814D02*
X26189355Y-16763344D01*
X25946886Y-16763344D01*
X25946886Y-17005814D01*
X26189355Y-17005814D01*
X26307249Y-11018639D02*
X26307249Y-10776170D01*
X26064780Y-10776170D01*
X26064780Y-11018639D01*
X26307249Y-11018639D01*
X26571678Y-12900148D02*
X26571678Y-12657679D01*
X26329208Y-12657679D01*
X26329208Y-12900148D01*
X26571678Y-12900148D01*
X26836107Y-14781658D02*
X26836107Y-14539188D01*
X26593637Y-14539188D01*
X26593637Y-14781658D01*
X26836107Y-14781658D01*
X27854743Y-8377567D02*
X27854743Y-8135098D01*
X27612274Y-8135098D01*
X27612274Y-8377567D01*
X27854743Y-8377567D01*
X28119171Y-10259076D02*
X28119171Y-10016607D01*
X27876702Y-10016607D01*
X27876702Y-10259076D01*
X28119171Y-10259076D01*
X28383600Y-12140586D02*
X28383600Y-11898116D01*
X28141131Y-11898116D01*
X28141131Y-12140586D01*
X28383600Y-12140586D01*
X28648029Y-14022095D02*
X28648029Y-13779626D01*
X28405560Y-13779626D01*
X28405560Y-14022095D01*
X28648029Y-14022095D01*
X29011619Y-16609170D02*
X29011619Y-16366701D01*
X28769150Y-16366701D01*
X28769150Y-16609170D01*
X29011619Y-16609170D01*
X29778004Y-8410218D02*
X29778004Y-8167749D01*
X29535535Y-8167749D01*
X29535535Y-8410218D01*
X29778004Y-8410218D01*
X30042433Y-10291728D02*
X30042433Y-10049259D01*
X29799964Y-10049259D01*
X29799964Y-10291728D01*
X30042433Y-10291728D01*
X30306862Y-12173237D02*
X30306862Y-11930768D01*
X30064392Y-11930768D01*
X30064392Y-12173237D01*
X30306862Y-12173237D01*
X30571291Y-14054746D02*
X30571291Y-13812277D01*
X30328821Y-13812277D01*
X30328821Y-14054746D01*
X30571291Y-14054746D01*
X31805645Y-9185571D02*
X31805645Y-8943102D01*
X31563176Y-8943102D01*
X31563176Y-9185571D01*
X31805645Y-9185571D01*
X32070074Y-11067080D02*
X32070074Y-10824611D01*
X31827605Y-10824611D01*
X31827605Y-11067080D01*
X32070074Y-11067080D01*
X32334503Y-12948590D02*
X32334503Y-12706120D01*
X32092034Y-12706120D01*
X32092034Y-12948590D01*
X32334503Y-12948590D01*
X32598932Y-14830099D02*
X32598932Y-14587630D01*
X32356462Y-14587630D01*
X32356462Y-14830099D01*
X32598932Y-14830099D01*
X33687154Y-8921142D02*
X33687154Y-8678673D01*
X33444685Y-8678673D01*
X33444685Y-8921142D01*
X33687154Y-8921142D01*
X33951583Y-10802652D02*
X33951583Y-10560182D01*
X33709114Y-10560182D01*
X33709114Y-10802652D01*
X33951583Y-10802652D01*
X34216012Y-12684161D02*
X34216012Y-12441692D01*
X33973543Y-12441692D01*
X33973543Y-12684161D01*
X34216012Y-12684161D01*
D16*
X8334842Y-12762316D02*
X8534232Y-12562926D01*
X8334842Y-12363536D01*
X8135452Y-12562926D01*
X8334842Y-12762316D01*
X8599271Y-10880807D02*
X8798661Y-10681417D01*
X8599271Y-10482027D01*
X8399881Y-10681417D01*
X8599271Y-10880807D01*
X8863700Y-8999297D02*
X9063090Y-8799907D01*
X8863700Y-8600517D01*
X8664310Y-8799907D01*
X8863700Y-8999297D01*
X9951922Y-14908254D02*
X10151312Y-14708864D01*
X9951922Y-14509474D01*
X9752532Y-14708864D01*
X9951922Y-14908254D01*
X10216352Y-13026745D02*
X10415742Y-12827355D01*
X10216352Y-12627965D01*
X10016962Y-12827355D01*
X10216352Y-13026745D01*
X10480780Y-11145236D02*
X10680170Y-10945846D01*
X10480780Y-10746456D01*
X10281390Y-10945846D01*
X10480780Y-11145236D01*
X10745209Y-9263726D02*
X10944599Y-9064336D01*
X10745209Y-8864946D01*
X10545819Y-9064336D01*
X10745209Y-9263726D01*
X11979563Y-14132902D02*
X12178953Y-13933512D01*
X11979563Y-13734122D01*
X11780173Y-13933512D01*
X11979563Y-14132902D01*
X12243992Y-12251393D02*
X12443382Y-12052003D01*
X12243992Y-11852613D01*
X12044602Y-12052003D01*
X12243992Y-12251393D01*
X12508421Y-10369883D02*
X12707811Y-10170493D01*
X12508421Y-9971103D01*
X12309031Y-10170493D01*
X12508421Y-10369883D01*
X12772850Y-8488374D02*
X12972240Y-8288984D01*
X12772850Y-8089594D01*
X12573460Y-8288984D01*
X12772850Y-8488374D01*
X13539235Y-16687325D02*
X13738625Y-16487935D01*
X13539235Y-16288545D01*
X13339845Y-16487935D01*
X13539235Y-16687325D01*
X13902825Y-14100250D02*
X14102215Y-13900860D01*
X13902825Y-13701470D01*
X13703435Y-13900860D01*
X13902825Y-14100250D01*
X14167254Y-12218741D02*
X14366644Y-12019351D01*
X14167254Y-11819961D01*
X13967864Y-12019351D01*
X14167254Y-12218741D01*
X14431682Y-10337231D02*
X14631072Y-10137841D01*
X14431682Y-9938451D01*
X14232292Y-10137841D01*
X14431682Y-10337231D01*
X14696111Y-8455723D02*
X14895501Y-8256332D01*
X14696111Y-8056942D01*
X14496721Y-8256332D01*
X14696111Y-8455723D01*
X15714747Y-14859813D02*
X15914137Y-14660423D01*
X15714747Y-14461033D01*
X15515357Y-14660423D01*
X15714747Y-14859813D01*
X15979176Y-12978303D02*
X16178566Y-12778913D01*
X15979176Y-12579523D01*
X15779786Y-12778913D01*
X15979176Y-12978303D01*
X16243605Y-11096795D02*
X16442995Y-10897405D01*
X16243605Y-10698015D01*
X16044215Y-10897405D01*
X16243605Y-11096795D01*
X16361499Y-17083969D02*
X16560889Y-16884579D01*
X16361499Y-16685189D01*
X16162109Y-16884579D01*
X16361499Y-17083969D01*
X16508034Y-9215285D02*
X16707424Y-9015895D01*
X16508034Y-8816505D01*
X16308644Y-9015895D01*
X16508034Y-9215285D01*
X17575381Y-15272782D02*
X17774771Y-15073392D01*
X17575381Y-14874002D01*
X17375991Y-15073392D01*
X17575381Y-15272782D01*
X17839810Y-13391273D02*
X18039200Y-13191883D01*
X17839810Y-12992493D01*
X17640420Y-13191883D01*
X17839810Y-13391273D01*
X18104238Y-11509764D02*
X18303628Y-11310374D01*
X18104238Y-11110984D01*
X17904848Y-11310374D01*
X18104238Y-11509764D01*
X18368668Y-9628254D02*
X18568058Y-9428864D01*
X18368668Y-9229474D01*
X18169278Y-9428864D01*
X18368668Y-9628254D01*
X19170478Y-18037054D02*
X19369868Y-17837664D01*
X19170478Y-17638274D01*
X18971088Y-17837664D01*
X19170478Y-18037054D01*
X23259142Y-18037054D02*
X23458532Y-17837664D01*
X23259142Y-17638274D01*
X23059752Y-17837664D01*
X23259142Y-18037054D01*
X24060952Y-9628254D02*
X24260342Y-9428864D01*
X24060952Y-9229474D01*
X23861562Y-9428864D01*
X24060952Y-9628254D01*
X24325381Y-11509763D02*
X24524771Y-11310373D01*
X24325381Y-11110984D01*
X24125991Y-11310373D01*
X24325381Y-11509763D01*
X24589810Y-13391273D02*
X24789200Y-13191883D01*
X24589810Y-12992493D01*
X24390420Y-13191883D01*
X24589810Y-13391273D01*
X24854239Y-15272782D02*
X25053629Y-15073392D01*
X24854239Y-14874002D01*
X24654849Y-15073392D01*
X24854239Y-15272782D01*
X25921585Y-9215285D02*
X26120975Y-9015895D01*
X25921585Y-8816505D01*
X25722195Y-9015895D01*
X25921585Y-9215285D01*
X26068120Y-17083969D02*
X26267510Y-16884579D01*
X26068120Y-16685189D01*
X25868730Y-16884579D01*
X26068120Y-17083969D01*
X26186014Y-11096795D02*
X26385404Y-10897405D01*
X26186014Y-10698015D01*
X25986624Y-10897405D01*
X26186014Y-11096795D01*
X26450443Y-12978304D02*
X26649833Y-12778914D01*
X26450443Y-12579524D01*
X26251053Y-12778914D01*
X26450443Y-12978304D01*
X26714872Y-14859813D02*
X26914262Y-14660423D01*
X26714872Y-14461033D01*
X26515482Y-14660423D01*
X26714872Y-14859813D01*
X27733508Y-8455722D02*
X27932898Y-8256332D01*
X27733508Y-8056942D01*
X27534118Y-8256332D01*
X27733508Y-8455722D01*
X27997937Y-10337232D02*
X28197327Y-10137842D01*
X27997937Y-9938452D01*
X27798547Y-10137842D01*
X27997937Y-10337232D01*
X28262366Y-12218741D02*
X28461756Y-12019351D01*
X28262366Y-11819961D01*
X28062976Y-12019351D01*
X28262366Y-12218741D01*
X28526795Y-14100250D02*
X28726185Y-13900860D01*
X28526795Y-13701470D01*
X28327405Y-13900860D01*
X28526795Y-14100250D01*
X28890384Y-16687326D02*
X29089774Y-16487936D01*
X28890384Y-16288546D01*
X28690994Y-16487936D01*
X28890384Y-16687326D01*
X29656769Y-8488374D02*
X29856159Y-8288984D01*
X29656769Y-8089594D01*
X29457379Y-8288984D01*
X29656769Y-8488374D01*
X29921198Y-10369883D02*
X30120588Y-10170493D01*
X29921198Y-9971103D01*
X29721808Y-10170493D01*
X29921198Y-10369883D01*
X30185627Y-12251393D02*
X30385017Y-12052003D01*
X30185627Y-11852613D01*
X29986237Y-12052003D01*
X30185627Y-12251393D01*
X30450056Y-14132902D02*
X30649446Y-13933512D01*
X30450056Y-13734122D01*
X30250666Y-13933512D01*
X30450056Y-14132902D01*
X31684411Y-9263726D02*
X31883801Y-9064336D01*
X31684411Y-8864946D01*
X31485021Y-9064336D01*
X31684411Y-9263726D01*
X31948839Y-11145236D02*
X32148229Y-10945846D01*
X31948839Y-10746456D01*
X31749449Y-10945846D01*
X31948839Y-11145236D01*
X32213268Y-13026745D02*
X32412658Y-12827355D01*
X32213268Y-12627965D01*
X32013878Y-12827355D01*
X32213268Y-13026745D01*
X32477697Y-14908254D02*
X32677087Y-14708864D01*
X32477697Y-14509474D01*
X32278307Y-14708864D01*
X32477697Y-14908254D01*
X33565920Y-8999298D02*
X33765310Y-8799908D01*
X33565920Y-8600518D01*
X33366529Y-8799908D01*
X33565920Y-8999298D01*
X33830348Y-10880807D02*
X34029738Y-10681417D01*
X33830348Y-10482027D01*
X33630958Y-10681417D01*
X33830348Y-10880807D01*
X34094778Y-12762316D02*
X34294168Y-12562926D01*
X34094778Y-12363536D01*
X33895388Y-12562926D01*
X34094778Y-12762316D01*
D11*
X7324510Y-19883447D02*
X7324510Y-19683447D01*
X7324510Y-19683447D02*
X7372129Y-19683447D01*
X7372129Y-19683447D02*
X7400701Y-19692971D01*
X7400701Y-19692971D02*
X7419748Y-19712018D01*
X7419748Y-19712018D02*
X7429272Y-19731066D01*
X7429272Y-19731066D02*
X7438796Y-19769161D01*
X7438796Y-19769161D02*
X7438796Y-19797733D01*
X7438796Y-19797733D02*
X7429272Y-19835828D01*
X7429272Y-19835828D02*
X7419748Y-19854875D01*
X7419748Y-19854875D02*
X7400701Y-19873923D01*
X7400701Y-19873923D02*
X7372129Y-19883447D01*
X7372129Y-19883447D02*
X7324510Y-19883447D01*
X7524510Y-19883447D02*
X7524510Y-19750113D01*
X7524510Y-19788209D02*
X7534034Y-19769161D01*
X7534034Y-19769161D02*
X7543558Y-19759637D01*
X7543558Y-19759637D02*
X7562605Y-19750113D01*
X7562605Y-19750113D02*
X7581653Y-19750113D01*
X7648320Y-19883447D02*
X7648320Y-19750113D01*
X7648320Y-19683447D02*
X7638796Y-19692971D01*
X7638796Y-19692971D02*
X7648320Y-19702494D01*
X7648320Y-19702494D02*
X7657843Y-19692971D01*
X7657843Y-19692971D02*
X7648320Y-19683447D01*
X7648320Y-19683447D02*
X7648320Y-19702494D01*
X7772129Y-19883447D02*
X7753081Y-19873923D01*
X7753081Y-19873923D02*
X7743558Y-19854875D01*
X7743558Y-19854875D02*
X7743558Y-19683447D01*
X7876891Y-19883447D02*
X7857843Y-19873923D01*
X7857843Y-19873923D02*
X7848320Y-19854875D01*
X7848320Y-19854875D02*
X7848320Y-19683447D01*
X8105462Y-19883447D02*
X8105462Y-19683447D01*
X8105462Y-19683447D02*
X8172129Y-19826304D01*
X8172129Y-19826304D02*
X8238796Y-19683447D01*
X8238796Y-19683447D02*
X8238796Y-19883447D01*
X8419748Y-19883447D02*
X8419748Y-19778685D01*
X8419748Y-19778685D02*
X8410224Y-19759637D01*
X8410224Y-19759637D02*
X8391177Y-19750113D01*
X8391177Y-19750113D02*
X8353081Y-19750113D01*
X8353081Y-19750113D02*
X8334034Y-19759637D01*
X8419748Y-19873923D02*
X8400701Y-19883447D01*
X8400701Y-19883447D02*
X8353081Y-19883447D01*
X8353081Y-19883447D02*
X8334034Y-19873923D01*
X8334034Y-19873923D02*
X8324510Y-19854875D01*
X8324510Y-19854875D02*
X8324510Y-19835828D01*
X8324510Y-19835828D02*
X8334034Y-19816780D01*
X8334034Y-19816780D02*
X8353081Y-19807256D01*
X8353081Y-19807256D02*
X8400701Y-19807256D01*
X8400701Y-19807256D02*
X8419748Y-19797733D01*
X8514986Y-19750113D02*
X8514986Y-19950113D01*
X8514986Y-19759637D02*
X8534034Y-19750113D01*
X8534034Y-19750113D02*
X8572129Y-19750113D01*
X8572129Y-19750113D02*
X8591177Y-19759637D01*
X8591177Y-19759637D02*
X8600701Y-19769161D01*
X8600701Y-19769161D02*
X8610224Y-19788209D01*
X8610224Y-19788209D02*
X8610224Y-19845352D01*
X8610224Y-19845352D02*
X8600701Y-19864399D01*
X8600701Y-19864399D02*
X8591177Y-19873923D01*
X8591177Y-19873923D02*
X8572129Y-19883447D01*
X8572129Y-19883447D02*
X8534034Y-19883447D01*
X8534034Y-19883447D02*
X8514986Y-19873923D01*
X8695939Y-19864399D02*
X8705463Y-19873923D01*
X8705463Y-19873923D02*
X8695939Y-19883447D01*
X8695939Y-19883447D02*
X8686415Y-19873923D01*
X8686415Y-19873923D02*
X8695939Y-19864399D01*
X8695939Y-19864399D02*
X8695939Y-19883447D01*
X8695939Y-19759637D02*
X8705463Y-19769161D01*
X8705463Y-19769161D02*
X8695939Y-19778685D01*
X8695939Y-19778685D02*
X8686415Y-19769161D01*
X8686415Y-19769161D02*
X8695939Y-19759637D01*
X8695939Y-19759637D02*
X8695939Y-19778685D01*
D12*
X6973733Y-20166963D02*
X7063733Y-20256963D01*
X7063733Y-20166963D02*
X6973733Y-20256963D01*
D11*
X7362605Y-20103447D02*
X7381653Y-20103447D01*
X7381653Y-20103447D02*
X7400701Y-20112971D01*
X7400701Y-20112971D02*
X7410224Y-20122494D01*
X7410224Y-20122494D02*
X7419748Y-20141542D01*
X7419748Y-20141542D02*
X7429272Y-20179637D01*
X7429272Y-20179637D02*
X7429272Y-20227256D01*
X7429272Y-20227256D02*
X7419748Y-20265352D01*
X7419748Y-20265352D02*
X7410224Y-20284399D01*
X7410224Y-20284399D02*
X7400701Y-20293923D01*
X7400701Y-20293923D02*
X7381653Y-20303447D01*
X7381653Y-20303447D02*
X7362605Y-20303447D01*
X7362605Y-20303447D02*
X7343558Y-20293923D01*
X7343558Y-20293923D02*
X7334034Y-20284399D01*
X7334034Y-20284399D02*
X7324510Y-20265352D01*
X7324510Y-20265352D02*
X7314986Y-20227256D01*
X7314986Y-20227256D02*
X7314986Y-20179637D01*
X7314986Y-20179637D02*
X7324510Y-20141542D01*
X7324510Y-20141542D02*
X7334034Y-20122494D01*
X7334034Y-20122494D02*
X7343558Y-20112971D01*
X7343558Y-20112971D02*
X7362605Y-20103447D01*
X7514986Y-20284399D02*
X7524510Y-20293923D01*
X7524510Y-20293923D02*
X7514986Y-20303447D01*
X7514986Y-20303447D02*
X7505462Y-20293923D01*
X7505462Y-20293923D02*
X7514986Y-20284399D01*
X7514986Y-20284399D02*
X7514986Y-20303447D01*
X7619748Y-20303447D02*
X7657843Y-20303447D01*
X7657843Y-20303447D02*
X7676891Y-20293923D01*
X7676891Y-20293923D02*
X7686415Y-20284399D01*
X7686415Y-20284399D02*
X7705462Y-20255828D01*
X7705462Y-20255828D02*
X7714986Y-20217733D01*
X7714986Y-20217733D02*
X7714986Y-20141542D01*
X7714986Y-20141542D02*
X7705462Y-20122494D01*
X7705462Y-20122494D02*
X7695939Y-20112971D01*
X7695939Y-20112971D02*
X7676891Y-20103447D01*
X7676891Y-20103447D02*
X7638796Y-20103447D01*
X7638796Y-20103447D02*
X7619748Y-20112971D01*
X7619748Y-20112971D02*
X7610224Y-20122494D01*
X7610224Y-20122494D02*
X7600701Y-20141542D01*
X7600701Y-20141542D02*
X7600701Y-20189161D01*
X7600701Y-20189161D02*
X7610224Y-20208209D01*
X7610224Y-20208209D02*
X7619748Y-20217733D01*
X7619748Y-20217733D02*
X7638796Y-20227256D01*
X7638796Y-20227256D02*
X7676891Y-20227256D01*
X7676891Y-20227256D02*
X7695939Y-20217733D01*
X7695939Y-20217733D02*
X7705462Y-20208209D01*
X7705462Y-20208209D02*
X7714986Y-20189161D01*
X7838796Y-20103447D02*
X7857843Y-20103447D01*
X7857843Y-20103447D02*
X7876891Y-20112971D01*
X7876891Y-20112971D02*
X7886415Y-20122494D01*
X7886415Y-20122494D02*
X7895939Y-20141542D01*
X7895939Y-20141542D02*
X7905462Y-20179637D01*
X7905462Y-20179637D02*
X7905462Y-20227256D01*
X7905462Y-20227256D02*
X7895939Y-20265352D01*
X7895939Y-20265352D02*
X7886415Y-20284399D01*
X7886415Y-20284399D02*
X7876891Y-20293923D01*
X7876891Y-20293923D02*
X7857843Y-20303447D01*
X7857843Y-20303447D02*
X7838796Y-20303447D01*
X7838796Y-20303447D02*
X7819748Y-20293923D01*
X7819748Y-20293923D02*
X7810224Y-20284399D01*
X7810224Y-20284399D02*
X7800701Y-20265352D01*
X7800701Y-20265352D02*
X7791177Y-20227256D01*
X7791177Y-20227256D02*
X7791177Y-20179637D01*
X7791177Y-20179637D02*
X7800701Y-20141542D01*
X7800701Y-20141542D02*
X7810224Y-20122494D01*
X7810224Y-20122494D02*
X7819748Y-20112971D01*
X7819748Y-20112971D02*
X7838796Y-20103447D01*
X8029272Y-20103447D02*
X8048320Y-20103447D01*
X8048320Y-20103447D02*
X8067367Y-20112971D01*
X8067367Y-20112971D02*
X8076891Y-20122494D01*
X8076891Y-20122494D02*
X8086415Y-20141542D01*
X8086415Y-20141542D02*
X8095939Y-20179637D01*
X8095939Y-20179637D02*
X8095939Y-20227256D01*
X8095939Y-20227256D02*
X8086415Y-20265352D01*
X8086415Y-20265352D02*
X8076891Y-20284399D01*
X8076891Y-20284399D02*
X8067367Y-20293923D01*
X8067367Y-20293923D02*
X8048320Y-20303447D01*
X8048320Y-20303447D02*
X8029272Y-20303447D01*
X8029272Y-20303447D02*
X8010224Y-20293923D01*
X8010224Y-20293923D02*
X8000701Y-20284399D01*
X8000701Y-20284399D02*
X7991177Y-20265352D01*
X7991177Y-20265352D02*
X7981653Y-20227256D01*
X7981653Y-20227256D02*
X7981653Y-20179637D01*
X7981653Y-20179637D02*
X7991177Y-20141542D01*
X7991177Y-20141542D02*
X8000701Y-20122494D01*
X8000701Y-20122494D02*
X8010224Y-20112971D01*
X8010224Y-20112971D02*
X8029272Y-20103447D01*
X8181653Y-20303447D02*
X8181653Y-20170113D01*
X8181653Y-20189161D02*
X8191177Y-20179637D01*
X8191177Y-20179637D02*
X8210224Y-20170113D01*
X8210224Y-20170113D02*
X8238796Y-20170113D01*
X8238796Y-20170113D02*
X8257843Y-20179637D01*
X8257843Y-20179637D02*
X8267367Y-20198685D01*
X8267367Y-20198685D02*
X8267367Y-20303447D01*
X8267367Y-20198685D02*
X8276891Y-20179637D01*
X8276891Y-20179637D02*
X8295939Y-20170113D01*
X8295939Y-20170113D02*
X8324510Y-20170113D01*
X8324510Y-20170113D02*
X8343558Y-20179637D01*
X8343558Y-20179637D02*
X8353082Y-20198685D01*
X8353082Y-20198685D02*
X8353082Y-20303447D01*
X8448320Y-20303447D02*
X8448320Y-20170113D01*
X8448320Y-20189161D02*
X8457844Y-20179637D01*
X8457844Y-20179637D02*
X8476891Y-20170113D01*
X8476891Y-20170113D02*
X8505463Y-20170113D01*
X8505463Y-20170113D02*
X8524510Y-20179637D01*
X8524510Y-20179637D02*
X8534034Y-20198685D01*
X8534034Y-20198685D02*
X8534034Y-20303447D01*
X8534034Y-20198685D02*
X8543558Y-20179637D01*
X8543558Y-20179637D02*
X8562605Y-20170113D01*
X8562605Y-20170113D02*
X8591177Y-20170113D01*
X8591177Y-20170113D02*
X8610225Y-20179637D01*
X8610225Y-20179637D02*
X8619748Y-20198685D01*
X8619748Y-20198685D02*
X8619748Y-20303447D01*
X9010225Y-20093923D02*
X8838796Y-20351066D01*
X9267367Y-20103447D02*
X9286415Y-20103447D01*
X9286415Y-20103447D02*
X9305463Y-20112971D01*
X9305463Y-20112971D02*
X9314987Y-20122494D01*
X9314987Y-20122494D02*
X9324510Y-20141542D01*
X9324510Y-20141542D02*
X9334034Y-20179637D01*
X9334034Y-20179637D02*
X9334034Y-20227256D01*
X9334034Y-20227256D02*
X9324510Y-20265352D01*
X9324510Y-20265352D02*
X9314987Y-20284399D01*
X9314987Y-20284399D02*
X9305463Y-20293923D01*
X9305463Y-20293923D02*
X9286415Y-20303447D01*
X9286415Y-20303447D02*
X9267367Y-20303447D01*
X9267367Y-20303447D02*
X9248320Y-20293923D01*
X9248320Y-20293923D02*
X9238796Y-20284399D01*
X9238796Y-20284399D02*
X9229272Y-20265352D01*
X9229272Y-20265352D02*
X9219748Y-20227256D01*
X9219748Y-20227256D02*
X9219748Y-20179637D01*
X9219748Y-20179637D02*
X9229272Y-20141542D01*
X9229272Y-20141542D02*
X9238796Y-20122494D01*
X9238796Y-20122494D02*
X9248320Y-20112971D01*
X9248320Y-20112971D02*
X9267367Y-20103447D01*
X9419748Y-20284399D02*
X9429272Y-20293923D01*
X9429272Y-20293923D02*
X9419748Y-20303447D01*
X9419748Y-20303447D02*
X9410225Y-20293923D01*
X9410225Y-20293923D02*
X9419748Y-20284399D01*
X9419748Y-20284399D02*
X9419748Y-20303447D01*
X9553082Y-20103447D02*
X9572129Y-20103447D01*
X9572129Y-20103447D02*
X9591177Y-20112971D01*
X9591177Y-20112971D02*
X9600701Y-20122494D01*
X9600701Y-20122494D02*
X9610225Y-20141542D01*
X9610225Y-20141542D02*
X9619748Y-20179637D01*
X9619748Y-20179637D02*
X9619748Y-20227256D01*
X9619748Y-20227256D02*
X9610225Y-20265352D01*
X9610225Y-20265352D02*
X9600701Y-20284399D01*
X9600701Y-20284399D02*
X9591177Y-20293923D01*
X9591177Y-20293923D02*
X9572129Y-20303447D01*
X9572129Y-20303447D02*
X9553082Y-20303447D01*
X9553082Y-20303447D02*
X9534034Y-20293923D01*
X9534034Y-20293923D02*
X9524510Y-20284399D01*
X9524510Y-20284399D02*
X9514987Y-20265352D01*
X9514987Y-20265352D02*
X9505463Y-20227256D01*
X9505463Y-20227256D02*
X9505463Y-20179637D01*
X9505463Y-20179637D02*
X9514987Y-20141542D01*
X9514987Y-20141542D02*
X9524510Y-20122494D01*
X9524510Y-20122494D02*
X9534034Y-20112971D01*
X9534034Y-20112971D02*
X9553082Y-20103447D01*
X9686415Y-20103447D02*
X9810225Y-20103447D01*
X9810225Y-20103447D02*
X9743558Y-20179637D01*
X9743558Y-20179637D02*
X9772129Y-20179637D01*
X9772129Y-20179637D02*
X9791177Y-20189161D01*
X9791177Y-20189161D02*
X9800701Y-20198685D01*
X9800701Y-20198685D02*
X9810225Y-20217733D01*
X9810225Y-20217733D02*
X9810225Y-20265352D01*
X9810225Y-20265352D02*
X9800701Y-20284399D01*
X9800701Y-20284399D02*
X9791177Y-20293923D01*
X9791177Y-20293923D02*
X9772129Y-20303447D01*
X9772129Y-20303447D02*
X9714987Y-20303447D01*
X9714987Y-20303447D02*
X9695939Y-20293923D01*
X9695939Y-20293923D02*
X9686415Y-20284399D01*
X9991177Y-20103447D02*
X9895939Y-20103447D01*
X9895939Y-20103447D02*
X9886415Y-20198685D01*
X9886415Y-20198685D02*
X9895939Y-20189161D01*
X9895939Y-20189161D02*
X9914987Y-20179637D01*
X9914987Y-20179637D02*
X9962606Y-20179637D01*
X9962606Y-20179637D02*
X9981653Y-20189161D01*
X9981653Y-20189161D02*
X9991177Y-20198685D01*
X9991177Y-20198685D02*
X10000701Y-20217733D01*
X10000701Y-20217733D02*
X10000701Y-20265352D01*
X10000701Y-20265352D02*
X9991177Y-20284399D01*
X9991177Y-20284399D02*
X9981653Y-20293923D01*
X9981653Y-20293923D02*
X9962606Y-20303447D01*
X9962606Y-20303447D02*
X9914987Y-20303447D01*
X9914987Y-20303447D02*
X9895939Y-20293923D01*
X9895939Y-20293923D02*
X9886415Y-20284399D01*
X10172129Y-20170113D02*
X10172129Y-20303447D01*
X10124510Y-20093923D02*
X10076891Y-20236780D01*
X10076891Y-20236780D02*
X10200701Y-20236780D01*
X10267368Y-20103447D02*
X10267368Y-20141542D01*
X10343558Y-20103447D02*
X10343558Y-20141542D01*
X10638796Y-20379637D02*
X10629272Y-20370113D01*
X10629272Y-20370113D02*
X10610225Y-20341542D01*
X10610225Y-20341542D02*
X10600701Y-20322494D01*
X10600701Y-20322494D02*
X10591177Y-20293923D01*
X10591177Y-20293923D02*
X10581653Y-20246304D01*
X10581653Y-20246304D02*
X10581653Y-20208209D01*
X10581653Y-20208209D02*
X10591177Y-20160590D01*
X10591177Y-20160590D02*
X10600701Y-20132018D01*
X10600701Y-20132018D02*
X10610225Y-20112971D01*
X10610225Y-20112971D02*
X10629272Y-20084399D01*
X10629272Y-20084399D02*
X10638796Y-20074875D01*
X10705463Y-20122494D02*
X10714987Y-20112971D01*
X10714987Y-20112971D02*
X10734034Y-20103447D01*
X10734034Y-20103447D02*
X10781653Y-20103447D01*
X10781653Y-20103447D02*
X10800701Y-20112971D01*
X10800701Y-20112971D02*
X10810225Y-20122494D01*
X10810225Y-20122494D02*
X10819749Y-20141542D01*
X10819749Y-20141542D02*
X10819749Y-20160590D01*
X10819749Y-20160590D02*
X10810225Y-20189161D01*
X10810225Y-20189161D02*
X10695939Y-20303447D01*
X10695939Y-20303447D02*
X10819749Y-20303447D01*
X11057844Y-20303447D02*
X11057844Y-20103447D01*
X11143558Y-20303447D02*
X11143558Y-20198685D01*
X11143558Y-20198685D02*
X11134034Y-20179637D01*
X11134034Y-20179637D02*
X11114987Y-20170113D01*
X11114987Y-20170113D02*
X11086415Y-20170113D01*
X11086415Y-20170113D02*
X11067368Y-20179637D01*
X11067368Y-20179637D02*
X11057844Y-20189161D01*
X11267368Y-20303447D02*
X11248320Y-20293923D01*
X11248320Y-20293923D02*
X11238796Y-20284399D01*
X11238796Y-20284399D02*
X11229272Y-20265352D01*
X11229272Y-20265352D02*
X11229272Y-20208209D01*
X11229272Y-20208209D02*
X11238796Y-20189161D01*
X11238796Y-20189161D02*
X11248320Y-20179637D01*
X11248320Y-20179637D02*
X11267368Y-20170113D01*
X11267368Y-20170113D02*
X11295939Y-20170113D01*
X11295939Y-20170113D02*
X11314987Y-20179637D01*
X11314987Y-20179637D02*
X11324510Y-20189161D01*
X11324510Y-20189161D02*
X11334034Y-20208209D01*
X11334034Y-20208209D02*
X11334034Y-20265352D01*
X11334034Y-20265352D02*
X11324510Y-20284399D01*
X11324510Y-20284399D02*
X11314987Y-20293923D01*
X11314987Y-20293923D02*
X11295939Y-20303447D01*
X11295939Y-20303447D02*
X11267368Y-20303447D01*
X11448320Y-20303447D02*
X11429272Y-20293923D01*
X11429272Y-20293923D02*
X11419749Y-20274875D01*
X11419749Y-20274875D02*
X11419749Y-20103447D01*
X11600701Y-20293923D02*
X11581653Y-20303447D01*
X11581653Y-20303447D02*
X11543558Y-20303447D01*
X11543558Y-20303447D02*
X11524510Y-20293923D01*
X11524510Y-20293923D02*
X11514987Y-20274875D01*
X11514987Y-20274875D02*
X11514987Y-20198685D01*
X11514987Y-20198685D02*
X11524510Y-20179637D01*
X11524510Y-20179637D02*
X11543558Y-20170113D01*
X11543558Y-20170113D02*
X11581653Y-20170113D01*
X11581653Y-20170113D02*
X11600701Y-20179637D01*
X11600701Y-20179637D02*
X11610225Y-20198685D01*
X11610225Y-20198685D02*
X11610225Y-20217733D01*
X11610225Y-20217733D02*
X11514987Y-20236780D01*
X11686415Y-20293923D02*
X11705463Y-20303447D01*
X11705463Y-20303447D02*
X11743558Y-20303447D01*
X11743558Y-20303447D02*
X11762606Y-20293923D01*
X11762606Y-20293923D02*
X11772130Y-20274875D01*
X11772130Y-20274875D02*
X11772130Y-20265352D01*
X11772130Y-20265352D02*
X11762606Y-20246304D01*
X11762606Y-20246304D02*
X11743558Y-20236780D01*
X11743558Y-20236780D02*
X11714987Y-20236780D01*
X11714987Y-20236780D02*
X11695939Y-20227256D01*
X11695939Y-20227256D02*
X11686415Y-20208209D01*
X11686415Y-20208209D02*
X11686415Y-20198685D01*
X11686415Y-20198685D02*
X11695939Y-20179637D01*
X11695939Y-20179637D02*
X11714987Y-20170113D01*
X11714987Y-20170113D02*
X11743558Y-20170113D01*
X11743558Y-20170113D02*
X11762606Y-20179637D01*
X11838796Y-20379637D02*
X11848320Y-20370113D01*
X11848320Y-20370113D02*
X11867368Y-20341542D01*
X11867368Y-20341542D02*
X11876891Y-20322494D01*
X11876891Y-20322494D02*
X11886415Y-20293923D01*
X11886415Y-20293923D02*
X11895939Y-20246304D01*
X11895939Y-20246304D02*
X11895939Y-20208209D01*
X11895939Y-20208209D02*
X11886415Y-20160590D01*
X11886415Y-20160590D02*
X11876891Y-20132018D01*
X11876891Y-20132018D02*
X11867368Y-20112971D01*
X11867368Y-20112971D02*
X11848320Y-20084399D01*
X11848320Y-20084399D02*
X11838796Y-20074875D01*
X12200701Y-20379637D02*
X12191177Y-20370113D01*
X12191177Y-20370113D02*
X12172130Y-20341542D01*
X12172130Y-20341542D02*
X12162606Y-20322494D01*
X12162606Y-20322494D02*
X12153082Y-20293923D01*
X12153082Y-20293923D02*
X12143558Y-20246304D01*
X12143558Y-20246304D02*
X12143558Y-20208209D01*
X12143558Y-20208209D02*
X12153082Y-20160590D01*
X12153082Y-20160590D02*
X12162606Y-20132018D01*
X12162606Y-20132018D02*
X12172130Y-20112971D01*
X12172130Y-20112971D02*
X12191177Y-20084399D01*
X12191177Y-20084399D02*
X12200701Y-20074875D01*
X12276891Y-20170113D02*
X12276891Y-20303447D01*
X12276891Y-20189161D02*
X12286415Y-20179637D01*
X12286415Y-20179637D02*
X12305463Y-20170113D01*
X12305463Y-20170113D02*
X12334034Y-20170113D01*
X12334034Y-20170113D02*
X12353082Y-20179637D01*
X12353082Y-20179637D02*
X12362606Y-20198685D01*
X12362606Y-20198685D02*
X12362606Y-20303447D01*
X12486415Y-20303447D02*
X12467368Y-20293923D01*
X12467368Y-20293923D02*
X12457844Y-20284399D01*
X12457844Y-20284399D02*
X12448320Y-20265352D01*
X12448320Y-20265352D02*
X12448320Y-20208209D01*
X12448320Y-20208209D02*
X12457844Y-20189161D01*
X12457844Y-20189161D02*
X12467368Y-20179637D01*
X12467368Y-20179637D02*
X12486415Y-20170113D01*
X12486415Y-20170113D02*
X12514987Y-20170113D01*
X12514987Y-20170113D02*
X12534034Y-20179637D01*
X12534034Y-20179637D02*
X12543558Y-20189161D01*
X12543558Y-20189161D02*
X12553082Y-20208209D01*
X12553082Y-20208209D02*
X12553082Y-20265352D01*
X12553082Y-20265352D02*
X12543558Y-20284399D01*
X12543558Y-20284399D02*
X12534034Y-20293923D01*
X12534034Y-20293923D02*
X12514987Y-20303447D01*
X12514987Y-20303447D02*
X12486415Y-20303447D01*
X12610225Y-20170113D02*
X12686415Y-20170113D01*
X12638796Y-20103447D02*
X12638796Y-20274875D01*
X12638796Y-20274875D02*
X12648320Y-20293923D01*
X12648320Y-20293923D02*
X12667368Y-20303447D01*
X12667368Y-20303447D02*
X12686415Y-20303447D01*
X12905463Y-20170113D02*
X12905463Y-20370113D01*
X12905463Y-20179637D02*
X12924511Y-20170113D01*
X12924511Y-20170113D02*
X12962606Y-20170113D01*
X12962606Y-20170113D02*
X12981653Y-20179637D01*
X12981653Y-20179637D02*
X12991177Y-20189161D01*
X12991177Y-20189161D02*
X13000701Y-20208209D01*
X13000701Y-20208209D02*
X13000701Y-20265352D01*
X13000701Y-20265352D02*
X12991177Y-20284399D01*
X12991177Y-20284399D02*
X12981653Y-20293923D01*
X12981653Y-20293923D02*
X12962606Y-20303447D01*
X12962606Y-20303447D02*
X12924511Y-20303447D01*
X12924511Y-20303447D02*
X12905463Y-20293923D01*
X13114987Y-20303447D02*
X13095939Y-20293923D01*
X13095939Y-20293923D02*
X13086415Y-20274875D01*
X13086415Y-20274875D02*
X13086415Y-20103447D01*
X13276892Y-20303447D02*
X13276892Y-20198685D01*
X13276892Y-20198685D02*
X13267368Y-20179637D01*
X13267368Y-20179637D02*
X13248320Y-20170113D01*
X13248320Y-20170113D02*
X13210225Y-20170113D01*
X13210225Y-20170113D02*
X13191177Y-20179637D01*
X13276892Y-20293923D02*
X13257844Y-20303447D01*
X13257844Y-20303447D02*
X13210225Y-20303447D01*
X13210225Y-20303447D02*
X13191177Y-20293923D01*
X13191177Y-20293923D02*
X13181653Y-20274875D01*
X13181653Y-20274875D02*
X13181653Y-20255828D01*
X13181653Y-20255828D02*
X13191177Y-20236780D01*
X13191177Y-20236780D02*
X13210225Y-20227256D01*
X13210225Y-20227256D02*
X13257844Y-20227256D01*
X13257844Y-20227256D02*
X13276892Y-20217733D01*
X13343558Y-20170113D02*
X13419749Y-20170113D01*
X13372130Y-20103447D02*
X13372130Y-20274875D01*
X13372130Y-20274875D02*
X13381653Y-20293923D01*
X13381653Y-20293923D02*
X13400701Y-20303447D01*
X13400701Y-20303447D02*
X13419749Y-20303447D01*
X13562606Y-20293923D02*
X13543558Y-20303447D01*
X13543558Y-20303447D02*
X13505463Y-20303447D01*
X13505463Y-20303447D02*
X13486415Y-20293923D01*
X13486415Y-20293923D02*
X13476892Y-20274875D01*
X13476892Y-20274875D02*
X13476892Y-20198685D01*
X13476892Y-20198685D02*
X13486415Y-20179637D01*
X13486415Y-20179637D02*
X13505463Y-20170113D01*
X13505463Y-20170113D02*
X13543558Y-20170113D01*
X13543558Y-20170113D02*
X13562606Y-20179637D01*
X13562606Y-20179637D02*
X13572130Y-20198685D01*
X13572130Y-20198685D02*
X13572130Y-20217733D01*
X13572130Y-20217733D02*
X13476892Y-20236780D01*
X13743558Y-20303447D02*
X13743558Y-20103447D01*
X13743558Y-20293923D02*
X13724511Y-20303447D01*
X13724511Y-20303447D02*
X13686415Y-20303447D01*
X13686415Y-20303447D02*
X13667368Y-20293923D01*
X13667368Y-20293923D02*
X13657844Y-20284399D01*
X13657844Y-20284399D02*
X13648320Y-20265352D01*
X13648320Y-20265352D02*
X13648320Y-20208209D01*
X13648320Y-20208209D02*
X13657844Y-20189161D01*
X13657844Y-20189161D02*
X13667368Y-20179637D01*
X13667368Y-20179637D02*
X13686415Y-20170113D01*
X13686415Y-20170113D02*
X13724511Y-20170113D01*
X13724511Y-20170113D02*
X13743558Y-20179637D01*
X13819749Y-20379637D02*
X13829273Y-20370113D01*
X13829273Y-20370113D02*
X13848320Y-20341542D01*
X13848320Y-20341542D02*
X13857844Y-20322494D01*
X13857844Y-20322494D02*
X13867368Y-20293923D01*
X13867368Y-20293923D02*
X13876892Y-20246304D01*
X13876892Y-20246304D02*
X13876892Y-20208209D01*
X13876892Y-20208209D02*
X13867368Y-20160590D01*
X13867368Y-20160590D02*
X13857844Y-20132018D01*
X13857844Y-20132018D02*
X13848320Y-20112971D01*
X13848320Y-20112971D02*
X13829273Y-20084399D01*
X13829273Y-20084399D02*
X13819749Y-20074875D01*
D13*
X7063733Y-20475963D02*
G75*
G02*
X6893553Y-20475963I-85090J0D01*
G01*
X6893553Y-20475963D02*
G75*
G02*
X7063733Y-20475963I85090J0D01*
G01*
D11*
X7429272Y-20567447D02*
X7314986Y-20567447D01*
X7372129Y-20567447D02*
X7372129Y-20367447D01*
X7372129Y-20367447D02*
X7353081Y-20396018D01*
X7353081Y-20396018D02*
X7334034Y-20415066D01*
X7334034Y-20415066D02*
X7314986Y-20424590D01*
X7514986Y-20548399D02*
X7524510Y-20557923D01*
X7524510Y-20557923D02*
X7514986Y-20567447D01*
X7514986Y-20567447D02*
X7505462Y-20557923D01*
X7505462Y-20557923D02*
X7514986Y-20548399D01*
X7514986Y-20548399D02*
X7514986Y-20567447D01*
X7591177Y-20367447D02*
X7724510Y-20367447D01*
X7724510Y-20367447D02*
X7638796Y-20567447D01*
X7838796Y-20367447D02*
X7857843Y-20367447D01*
X7857843Y-20367447D02*
X7876891Y-20376971D01*
X7876891Y-20376971D02*
X7886415Y-20386494D01*
X7886415Y-20386494D02*
X7895939Y-20405542D01*
X7895939Y-20405542D02*
X7905462Y-20443637D01*
X7905462Y-20443637D02*
X7905462Y-20491256D01*
X7905462Y-20491256D02*
X7895939Y-20529352D01*
X7895939Y-20529352D02*
X7886415Y-20548399D01*
X7886415Y-20548399D02*
X7876891Y-20557923D01*
X7876891Y-20557923D02*
X7857843Y-20567447D01*
X7857843Y-20567447D02*
X7838796Y-20567447D01*
X7838796Y-20567447D02*
X7819748Y-20557923D01*
X7819748Y-20557923D02*
X7810224Y-20548399D01*
X7810224Y-20548399D02*
X7800701Y-20529352D01*
X7800701Y-20529352D02*
X7791177Y-20491256D01*
X7791177Y-20491256D02*
X7791177Y-20443637D01*
X7791177Y-20443637D02*
X7800701Y-20405542D01*
X7800701Y-20405542D02*
X7810224Y-20386494D01*
X7810224Y-20386494D02*
X7819748Y-20376971D01*
X7819748Y-20376971D02*
X7838796Y-20367447D01*
X7981653Y-20386494D02*
X7991177Y-20376971D01*
X7991177Y-20376971D02*
X8010224Y-20367447D01*
X8010224Y-20367447D02*
X8057843Y-20367447D01*
X8057843Y-20367447D02*
X8076891Y-20376971D01*
X8076891Y-20376971D02*
X8086415Y-20386494D01*
X8086415Y-20386494D02*
X8095939Y-20405542D01*
X8095939Y-20405542D02*
X8095939Y-20424590D01*
X8095939Y-20424590D02*
X8086415Y-20453161D01*
X8086415Y-20453161D02*
X7972129Y-20567447D01*
X7972129Y-20567447D02*
X8095939Y-20567447D01*
X8181653Y-20567447D02*
X8181653Y-20434113D01*
X8181653Y-20453161D02*
X8191177Y-20443637D01*
X8191177Y-20443637D02*
X8210224Y-20434113D01*
X8210224Y-20434113D02*
X8238796Y-20434113D01*
X8238796Y-20434113D02*
X8257843Y-20443637D01*
X8257843Y-20443637D02*
X8267367Y-20462685D01*
X8267367Y-20462685D02*
X8267367Y-20567447D01*
X8267367Y-20462685D02*
X8276891Y-20443637D01*
X8276891Y-20443637D02*
X8295939Y-20434113D01*
X8295939Y-20434113D02*
X8324510Y-20434113D01*
X8324510Y-20434113D02*
X8343558Y-20443637D01*
X8343558Y-20443637D02*
X8353082Y-20462685D01*
X8353082Y-20462685D02*
X8353082Y-20567447D01*
X8448320Y-20567447D02*
X8448320Y-20434113D01*
X8448320Y-20453161D02*
X8457844Y-20443637D01*
X8457844Y-20443637D02*
X8476891Y-20434113D01*
X8476891Y-20434113D02*
X8505463Y-20434113D01*
X8505463Y-20434113D02*
X8524510Y-20443637D01*
X8524510Y-20443637D02*
X8534034Y-20462685D01*
X8534034Y-20462685D02*
X8534034Y-20567447D01*
X8534034Y-20462685D02*
X8543558Y-20443637D01*
X8543558Y-20443637D02*
X8562605Y-20434113D01*
X8562605Y-20434113D02*
X8591177Y-20434113D01*
X8591177Y-20434113D02*
X8610225Y-20443637D01*
X8610225Y-20443637D02*
X8619748Y-20462685D01*
X8619748Y-20462685D02*
X8619748Y-20567447D01*
X9010225Y-20357923D02*
X8838796Y-20615066D01*
X9267367Y-20367447D02*
X9286415Y-20367447D01*
X9286415Y-20367447D02*
X9305463Y-20376971D01*
X9305463Y-20376971D02*
X9314987Y-20386494D01*
X9314987Y-20386494D02*
X9324510Y-20405542D01*
X9324510Y-20405542D02*
X9334034Y-20443637D01*
X9334034Y-20443637D02*
X9334034Y-20491256D01*
X9334034Y-20491256D02*
X9324510Y-20529352D01*
X9324510Y-20529352D02*
X9314987Y-20548399D01*
X9314987Y-20548399D02*
X9305463Y-20557923D01*
X9305463Y-20557923D02*
X9286415Y-20567447D01*
X9286415Y-20567447D02*
X9267367Y-20567447D01*
X9267367Y-20567447D02*
X9248320Y-20557923D01*
X9248320Y-20557923D02*
X9238796Y-20548399D01*
X9238796Y-20548399D02*
X9229272Y-20529352D01*
X9229272Y-20529352D02*
X9219748Y-20491256D01*
X9219748Y-20491256D02*
X9219748Y-20443637D01*
X9219748Y-20443637D02*
X9229272Y-20405542D01*
X9229272Y-20405542D02*
X9238796Y-20386494D01*
X9238796Y-20386494D02*
X9248320Y-20376971D01*
X9248320Y-20376971D02*
X9267367Y-20367447D01*
X9419748Y-20548399D02*
X9429272Y-20557923D01*
X9429272Y-20557923D02*
X9419748Y-20567447D01*
X9419748Y-20567447D02*
X9410225Y-20557923D01*
X9410225Y-20557923D02*
X9419748Y-20548399D01*
X9419748Y-20548399D02*
X9419748Y-20567447D01*
X9553082Y-20367447D02*
X9572129Y-20367447D01*
X9572129Y-20367447D02*
X9591177Y-20376971D01*
X9591177Y-20376971D02*
X9600701Y-20386494D01*
X9600701Y-20386494D02*
X9610225Y-20405542D01*
X9610225Y-20405542D02*
X9619748Y-20443637D01*
X9619748Y-20443637D02*
X9619748Y-20491256D01*
X9619748Y-20491256D02*
X9610225Y-20529352D01*
X9610225Y-20529352D02*
X9600701Y-20548399D01*
X9600701Y-20548399D02*
X9591177Y-20557923D01*
X9591177Y-20557923D02*
X9572129Y-20567447D01*
X9572129Y-20567447D02*
X9553082Y-20567447D01*
X9553082Y-20567447D02*
X9534034Y-20557923D01*
X9534034Y-20557923D02*
X9524510Y-20548399D01*
X9524510Y-20548399D02*
X9514987Y-20529352D01*
X9514987Y-20529352D02*
X9505463Y-20491256D01*
X9505463Y-20491256D02*
X9505463Y-20443637D01*
X9505463Y-20443637D02*
X9514987Y-20405542D01*
X9514987Y-20405542D02*
X9524510Y-20386494D01*
X9524510Y-20386494D02*
X9534034Y-20376971D01*
X9534034Y-20376971D02*
X9553082Y-20367447D01*
X9791177Y-20367447D02*
X9753082Y-20367447D01*
X9753082Y-20367447D02*
X9734034Y-20376971D01*
X9734034Y-20376971D02*
X9724510Y-20386494D01*
X9724510Y-20386494D02*
X9705463Y-20415066D01*
X9705463Y-20415066D02*
X9695939Y-20453161D01*
X9695939Y-20453161D02*
X9695939Y-20529352D01*
X9695939Y-20529352D02*
X9705463Y-20548399D01*
X9705463Y-20548399D02*
X9714987Y-20557923D01*
X9714987Y-20557923D02*
X9734034Y-20567447D01*
X9734034Y-20567447D02*
X9772129Y-20567447D01*
X9772129Y-20567447D02*
X9791177Y-20557923D01*
X9791177Y-20557923D02*
X9800701Y-20548399D01*
X9800701Y-20548399D02*
X9810225Y-20529352D01*
X9810225Y-20529352D02*
X9810225Y-20481733D01*
X9810225Y-20481733D02*
X9800701Y-20462685D01*
X9800701Y-20462685D02*
X9791177Y-20453161D01*
X9791177Y-20453161D02*
X9772129Y-20443637D01*
X9772129Y-20443637D02*
X9734034Y-20443637D01*
X9734034Y-20443637D02*
X9714987Y-20453161D01*
X9714987Y-20453161D02*
X9705463Y-20462685D01*
X9705463Y-20462685D02*
X9695939Y-20481733D01*
X9876891Y-20367447D02*
X10010225Y-20367447D01*
X10010225Y-20367447D02*
X9924510Y-20567447D01*
X10124510Y-20367447D02*
X10143558Y-20367447D01*
X10143558Y-20367447D02*
X10162606Y-20376971D01*
X10162606Y-20376971D02*
X10172129Y-20386494D01*
X10172129Y-20386494D02*
X10181653Y-20405542D01*
X10181653Y-20405542D02*
X10191177Y-20443637D01*
X10191177Y-20443637D02*
X10191177Y-20491256D01*
X10191177Y-20491256D02*
X10181653Y-20529352D01*
X10181653Y-20529352D02*
X10172129Y-20548399D01*
X10172129Y-20548399D02*
X10162606Y-20557923D01*
X10162606Y-20557923D02*
X10143558Y-20567447D01*
X10143558Y-20567447D02*
X10124510Y-20567447D01*
X10124510Y-20567447D02*
X10105463Y-20557923D01*
X10105463Y-20557923D02*
X10095939Y-20548399D01*
X10095939Y-20548399D02*
X10086415Y-20529352D01*
X10086415Y-20529352D02*
X10076891Y-20491256D01*
X10076891Y-20491256D02*
X10076891Y-20443637D01*
X10076891Y-20443637D02*
X10086415Y-20405542D01*
X10086415Y-20405542D02*
X10095939Y-20386494D01*
X10095939Y-20386494D02*
X10105463Y-20376971D01*
X10105463Y-20376971D02*
X10124510Y-20367447D01*
X10267368Y-20367447D02*
X10267368Y-20405542D01*
X10343558Y-20367447D02*
X10343558Y-20405542D01*
X10638796Y-20643637D02*
X10629272Y-20634113D01*
X10629272Y-20634113D02*
X10610225Y-20605542D01*
X10610225Y-20605542D02*
X10600701Y-20586494D01*
X10600701Y-20586494D02*
X10591177Y-20557923D01*
X10591177Y-20557923D02*
X10581653Y-20510304D01*
X10581653Y-20510304D02*
X10581653Y-20472209D01*
X10581653Y-20472209D02*
X10591177Y-20424590D01*
X10591177Y-20424590D02*
X10600701Y-20396018D01*
X10600701Y-20396018D02*
X10610225Y-20376971D01*
X10610225Y-20376971D02*
X10629272Y-20348399D01*
X10629272Y-20348399D02*
X10638796Y-20338875D01*
X10705463Y-20386494D02*
X10714987Y-20376971D01*
X10714987Y-20376971D02*
X10734034Y-20367447D01*
X10734034Y-20367447D02*
X10781653Y-20367447D01*
X10781653Y-20367447D02*
X10800701Y-20376971D01*
X10800701Y-20376971D02*
X10810225Y-20386494D01*
X10810225Y-20386494D02*
X10819749Y-20405542D01*
X10819749Y-20405542D02*
X10819749Y-20424590D01*
X10819749Y-20424590D02*
X10810225Y-20453161D01*
X10810225Y-20453161D02*
X10695939Y-20567447D01*
X10695939Y-20567447D02*
X10819749Y-20567447D01*
X10943558Y-20367447D02*
X10962606Y-20367447D01*
X10962606Y-20367447D02*
X10981653Y-20376971D01*
X10981653Y-20376971D02*
X10991177Y-20386494D01*
X10991177Y-20386494D02*
X11000701Y-20405542D01*
X11000701Y-20405542D02*
X11010225Y-20443637D01*
X11010225Y-20443637D02*
X11010225Y-20491256D01*
X11010225Y-20491256D02*
X11000701Y-20529352D01*
X11000701Y-20529352D02*
X10991177Y-20548399D01*
X10991177Y-20548399D02*
X10981653Y-20557923D01*
X10981653Y-20557923D02*
X10962606Y-20567447D01*
X10962606Y-20567447D02*
X10943558Y-20567447D01*
X10943558Y-20567447D02*
X10924510Y-20557923D01*
X10924510Y-20557923D02*
X10914987Y-20548399D01*
X10914987Y-20548399D02*
X10905463Y-20529352D01*
X10905463Y-20529352D02*
X10895939Y-20491256D01*
X10895939Y-20491256D02*
X10895939Y-20443637D01*
X10895939Y-20443637D02*
X10905463Y-20405542D01*
X10905463Y-20405542D02*
X10914987Y-20386494D01*
X10914987Y-20386494D02*
X10924510Y-20376971D01*
X10924510Y-20376971D02*
X10943558Y-20367447D01*
X11124510Y-20453161D02*
X11105463Y-20443637D01*
X11105463Y-20443637D02*
X11095939Y-20434113D01*
X11095939Y-20434113D02*
X11086415Y-20415066D01*
X11086415Y-20415066D02*
X11086415Y-20405542D01*
X11086415Y-20405542D02*
X11095939Y-20386494D01*
X11095939Y-20386494D02*
X11105463Y-20376971D01*
X11105463Y-20376971D02*
X11124510Y-20367447D01*
X11124510Y-20367447D02*
X11162606Y-20367447D01*
X11162606Y-20367447D02*
X11181653Y-20376971D01*
X11181653Y-20376971D02*
X11191177Y-20386494D01*
X11191177Y-20386494D02*
X11200701Y-20405542D01*
X11200701Y-20405542D02*
X11200701Y-20415066D01*
X11200701Y-20415066D02*
X11191177Y-20434113D01*
X11191177Y-20434113D02*
X11181653Y-20443637D01*
X11181653Y-20443637D02*
X11162606Y-20453161D01*
X11162606Y-20453161D02*
X11124510Y-20453161D01*
X11124510Y-20453161D02*
X11105463Y-20462685D01*
X11105463Y-20462685D02*
X11095939Y-20472209D01*
X11095939Y-20472209D02*
X11086415Y-20491256D01*
X11086415Y-20491256D02*
X11086415Y-20529352D01*
X11086415Y-20529352D02*
X11095939Y-20548399D01*
X11095939Y-20548399D02*
X11105463Y-20557923D01*
X11105463Y-20557923D02*
X11124510Y-20567447D01*
X11124510Y-20567447D02*
X11162606Y-20567447D01*
X11162606Y-20567447D02*
X11181653Y-20557923D01*
X11181653Y-20557923D02*
X11191177Y-20548399D01*
X11191177Y-20548399D02*
X11200701Y-20529352D01*
X11200701Y-20529352D02*
X11200701Y-20491256D01*
X11200701Y-20491256D02*
X11191177Y-20472209D01*
X11191177Y-20472209D02*
X11181653Y-20462685D01*
X11181653Y-20462685D02*
X11162606Y-20453161D01*
X11438796Y-20567447D02*
X11438796Y-20367447D01*
X11524510Y-20567447D02*
X11524510Y-20462685D01*
X11524510Y-20462685D02*
X11514987Y-20443637D01*
X11514987Y-20443637D02*
X11495939Y-20434113D01*
X11495939Y-20434113D02*
X11467368Y-20434113D01*
X11467368Y-20434113D02*
X11448320Y-20443637D01*
X11448320Y-20443637D02*
X11438796Y-20453161D01*
X11648320Y-20567447D02*
X11629272Y-20557923D01*
X11629272Y-20557923D02*
X11619749Y-20548399D01*
X11619749Y-20548399D02*
X11610225Y-20529352D01*
X11610225Y-20529352D02*
X11610225Y-20472209D01*
X11610225Y-20472209D02*
X11619749Y-20453161D01*
X11619749Y-20453161D02*
X11629272Y-20443637D01*
X11629272Y-20443637D02*
X11648320Y-20434113D01*
X11648320Y-20434113D02*
X11676891Y-20434113D01*
X11676891Y-20434113D02*
X11695939Y-20443637D01*
X11695939Y-20443637D02*
X11705463Y-20453161D01*
X11705463Y-20453161D02*
X11714987Y-20472209D01*
X11714987Y-20472209D02*
X11714987Y-20529352D01*
X11714987Y-20529352D02*
X11705463Y-20548399D01*
X11705463Y-20548399D02*
X11695939Y-20557923D01*
X11695939Y-20557923D02*
X11676891Y-20567447D01*
X11676891Y-20567447D02*
X11648320Y-20567447D01*
X11829272Y-20567447D02*
X11810225Y-20557923D01*
X11810225Y-20557923D02*
X11800701Y-20538875D01*
X11800701Y-20538875D02*
X11800701Y-20367447D01*
X11981653Y-20557923D02*
X11962606Y-20567447D01*
X11962606Y-20567447D02*
X11924510Y-20567447D01*
X11924510Y-20567447D02*
X11905463Y-20557923D01*
X11905463Y-20557923D02*
X11895939Y-20538875D01*
X11895939Y-20538875D02*
X11895939Y-20462685D01*
X11895939Y-20462685D02*
X11905463Y-20443637D01*
X11905463Y-20443637D02*
X11924510Y-20434113D01*
X11924510Y-20434113D02*
X11962606Y-20434113D01*
X11962606Y-20434113D02*
X11981653Y-20443637D01*
X11981653Y-20443637D02*
X11991177Y-20462685D01*
X11991177Y-20462685D02*
X11991177Y-20481733D01*
X11991177Y-20481733D02*
X11895939Y-20500780D01*
X12067368Y-20557923D02*
X12086415Y-20567447D01*
X12086415Y-20567447D02*
X12124510Y-20567447D01*
X12124510Y-20567447D02*
X12143558Y-20557923D01*
X12143558Y-20557923D02*
X12153082Y-20538875D01*
X12153082Y-20538875D02*
X12153082Y-20529352D01*
X12153082Y-20529352D02*
X12143558Y-20510304D01*
X12143558Y-20510304D02*
X12124510Y-20500780D01*
X12124510Y-20500780D02*
X12095939Y-20500780D01*
X12095939Y-20500780D02*
X12076891Y-20491256D01*
X12076891Y-20491256D02*
X12067368Y-20472209D01*
X12067368Y-20472209D02*
X12067368Y-20462685D01*
X12067368Y-20462685D02*
X12076891Y-20443637D01*
X12076891Y-20443637D02*
X12095939Y-20434113D01*
X12095939Y-20434113D02*
X12124510Y-20434113D01*
X12124510Y-20434113D02*
X12143558Y-20443637D01*
X12219749Y-20643637D02*
X12229272Y-20634113D01*
X12229272Y-20634113D02*
X12248320Y-20605542D01*
X12248320Y-20605542D02*
X12257844Y-20586494D01*
X12257844Y-20586494D02*
X12267368Y-20557923D01*
X12267368Y-20557923D02*
X12276891Y-20510304D01*
X12276891Y-20510304D02*
X12276891Y-20472209D01*
X12276891Y-20472209D02*
X12267368Y-20424590D01*
X12267368Y-20424590D02*
X12257844Y-20396018D01*
X12257844Y-20396018D02*
X12248320Y-20376971D01*
X12248320Y-20376971D02*
X12229272Y-20348399D01*
X12229272Y-20348399D02*
X12219749Y-20338875D01*
X12581653Y-20643637D02*
X12572130Y-20634113D01*
X12572130Y-20634113D02*
X12553082Y-20605542D01*
X12553082Y-20605542D02*
X12543558Y-20586494D01*
X12543558Y-20586494D02*
X12534034Y-20557923D01*
X12534034Y-20557923D02*
X12524511Y-20510304D01*
X12524511Y-20510304D02*
X12524511Y-20472209D01*
X12524511Y-20472209D02*
X12534034Y-20424590D01*
X12534034Y-20424590D02*
X12543558Y-20396018D01*
X12543558Y-20396018D02*
X12553082Y-20376971D01*
X12553082Y-20376971D02*
X12572130Y-20348399D01*
X12572130Y-20348399D02*
X12581653Y-20338875D01*
X12657844Y-20434113D02*
X12657844Y-20567447D01*
X12657844Y-20453161D02*
X12667368Y-20443637D01*
X12667368Y-20443637D02*
X12686415Y-20434113D01*
X12686415Y-20434113D02*
X12714987Y-20434113D01*
X12714987Y-20434113D02*
X12734034Y-20443637D01*
X12734034Y-20443637D02*
X12743558Y-20462685D01*
X12743558Y-20462685D02*
X12743558Y-20567447D01*
X12867368Y-20567447D02*
X12848320Y-20557923D01*
X12848320Y-20557923D02*
X12838796Y-20548399D01*
X12838796Y-20548399D02*
X12829272Y-20529352D01*
X12829272Y-20529352D02*
X12829272Y-20472209D01*
X12829272Y-20472209D02*
X12838796Y-20453161D01*
X12838796Y-20453161D02*
X12848320Y-20443637D01*
X12848320Y-20443637D02*
X12867368Y-20434113D01*
X12867368Y-20434113D02*
X12895939Y-20434113D01*
X12895939Y-20434113D02*
X12914987Y-20443637D01*
X12914987Y-20443637D02*
X12924511Y-20453161D01*
X12924511Y-20453161D02*
X12934034Y-20472209D01*
X12934034Y-20472209D02*
X12934034Y-20529352D01*
X12934034Y-20529352D02*
X12924511Y-20548399D01*
X12924511Y-20548399D02*
X12914987Y-20557923D01*
X12914987Y-20557923D02*
X12895939Y-20567447D01*
X12895939Y-20567447D02*
X12867368Y-20567447D01*
X12991177Y-20434113D02*
X13067368Y-20434113D01*
X13019749Y-20367447D02*
X13019749Y-20538875D01*
X13019749Y-20538875D02*
X13029272Y-20557923D01*
X13029272Y-20557923D02*
X13048320Y-20567447D01*
X13048320Y-20567447D02*
X13067368Y-20567447D01*
X13286415Y-20434113D02*
X13286415Y-20634113D01*
X13286415Y-20443637D02*
X13305463Y-20434113D01*
X13305463Y-20434113D02*
X13343558Y-20434113D01*
X13343558Y-20434113D02*
X13362606Y-20443637D01*
X13362606Y-20443637D02*
X13372130Y-20453161D01*
X13372130Y-20453161D02*
X13381653Y-20472209D01*
X13381653Y-20472209D02*
X13381653Y-20529352D01*
X13381653Y-20529352D02*
X13372130Y-20548399D01*
X13372130Y-20548399D02*
X13362606Y-20557923D01*
X13362606Y-20557923D02*
X13343558Y-20567447D01*
X13343558Y-20567447D02*
X13305463Y-20567447D01*
X13305463Y-20567447D02*
X13286415Y-20557923D01*
X13495939Y-20567447D02*
X13476892Y-20557923D01*
X13476892Y-20557923D02*
X13467368Y-20538875D01*
X13467368Y-20538875D02*
X13467368Y-20367447D01*
X13657844Y-20567447D02*
X13657844Y-20462685D01*
X13657844Y-20462685D02*
X13648320Y-20443637D01*
X13648320Y-20443637D02*
X13629273Y-20434113D01*
X13629273Y-20434113D02*
X13591177Y-20434113D01*
X13591177Y-20434113D02*
X13572130Y-20443637D01*
X13657844Y-20557923D02*
X13638796Y-20567447D01*
X13638796Y-20567447D02*
X13591177Y-20567447D01*
X13591177Y-20567447D02*
X13572130Y-20557923D01*
X13572130Y-20557923D02*
X13562606Y-20538875D01*
X13562606Y-20538875D02*
X13562606Y-20519828D01*
X13562606Y-20519828D02*
X13572130Y-20500780D01*
X13572130Y-20500780D02*
X13591177Y-20491256D01*
X13591177Y-20491256D02*
X13638796Y-20491256D01*
X13638796Y-20491256D02*
X13657844Y-20481733D01*
X13724511Y-20434113D02*
X13800701Y-20434113D01*
X13753082Y-20367447D02*
X13753082Y-20538875D01*
X13753082Y-20538875D02*
X13762606Y-20557923D01*
X13762606Y-20557923D02*
X13781653Y-20567447D01*
X13781653Y-20567447D02*
X13800701Y-20567447D01*
X13943558Y-20557923D02*
X13924511Y-20567447D01*
X13924511Y-20567447D02*
X13886415Y-20567447D01*
X13886415Y-20567447D02*
X13867368Y-20557923D01*
X13867368Y-20557923D02*
X13857844Y-20538875D01*
X13857844Y-20538875D02*
X13857844Y-20462685D01*
X13857844Y-20462685D02*
X13867368Y-20443637D01*
X13867368Y-20443637D02*
X13886415Y-20434113D01*
X13886415Y-20434113D02*
X13924511Y-20434113D01*
X13924511Y-20434113D02*
X13943558Y-20443637D01*
X13943558Y-20443637D02*
X13953082Y-20462685D01*
X13953082Y-20462685D02*
X13953082Y-20481733D01*
X13953082Y-20481733D02*
X13857844Y-20500780D01*
X14124511Y-20567447D02*
X14124511Y-20367447D01*
X14124511Y-20557923D02*
X14105463Y-20567447D01*
X14105463Y-20567447D02*
X14067368Y-20567447D01*
X14067368Y-20567447D02*
X14048320Y-20557923D01*
X14048320Y-20557923D02*
X14038796Y-20548399D01*
X14038796Y-20548399D02*
X14029273Y-20529352D01*
X14029273Y-20529352D02*
X14029273Y-20472209D01*
X14029273Y-20472209D02*
X14038796Y-20453161D01*
X14038796Y-20453161D02*
X14048320Y-20443637D01*
X14048320Y-20443637D02*
X14067368Y-20434113D01*
X14067368Y-20434113D02*
X14105463Y-20434113D01*
X14105463Y-20434113D02*
X14124511Y-20443637D01*
X14200701Y-20643637D02*
X14210225Y-20634113D01*
X14210225Y-20634113D02*
X14229273Y-20605542D01*
X14229273Y-20605542D02*
X14238796Y-20586494D01*
X14238796Y-20586494D02*
X14248320Y-20557923D01*
X14248320Y-20557923D02*
X14257844Y-20510304D01*
X14257844Y-20510304D02*
X14257844Y-20472209D01*
X14257844Y-20472209D02*
X14248320Y-20424590D01*
X14248320Y-20424590D02*
X14238796Y-20396018D01*
X14238796Y-20396018D02*
X14229273Y-20376971D01*
X14229273Y-20376971D02*
X14210225Y-20348399D01*
X14210225Y-20348399D02*
X14200701Y-20338875D01*
X6963733Y-20666143D02*
X6963733Y-20866143D01*
X6863733Y-20766143D02*
X7063733Y-20766143D01*
X7305462Y-20657627D02*
X7429272Y-20657627D01*
X7429272Y-20657627D02*
X7362605Y-20733817D01*
X7362605Y-20733817D02*
X7391177Y-20733817D01*
X7391177Y-20733817D02*
X7410224Y-20743341D01*
X7410224Y-20743341D02*
X7419748Y-20752865D01*
X7419748Y-20752865D02*
X7429272Y-20771913D01*
X7429272Y-20771913D02*
X7429272Y-20819532D01*
X7429272Y-20819532D02*
X7419748Y-20838579D01*
X7419748Y-20838579D02*
X7410224Y-20848103D01*
X7410224Y-20848103D02*
X7391177Y-20857627D01*
X7391177Y-20857627D02*
X7334034Y-20857627D01*
X7334034Y-20857627D02*
X7314986Y-20848103D01*
X7314986Y-20848103D02*
X7305462Y-20838579D01*
X7514986Y-20838579D02*
X7524510Y-20848103D01*
X7524510Y-20848103D02*
X7514986Y-20857627D01*
X7514986Y-20857627D02*
X7505462Y-20848103D01*
X7505462Y-20848103D02*
X7514986Y-20838579D01*
X7514986Y-20838579D02*
X7514986Y-20857627D01*
X7648320Y-20657627D02*
X7667367Y-20657627D01*
X7667367Y-20657627D02*
X7686415Y-20667151D01*
X7686415Y-20667151D02*
X7695939Y-20676674D01*
X7695939Y-20676674D02*
X7705462Y-20695722D01*
X7705462Y-20695722D02*
X7714986Y-20733817D01*
X7714986Y-20733817D02*
X7714986Y-20781436D01*
X7714986Y-20781436D02*
X7705462Y-20819532D01*
X7705462Y-20819532D02*
X7695939Y-20838579D01*
X7695939Y-20838579D02*
X7686415Y-20848103D01*
X7686415Y-20848103D02*
X7667367Y-20857627D01*
X7667367Y-20857627D02*
X7648320Y-20857627D01*
X7648320Y-20857627D02*
X7629272Y-20848103D01*
X7629272Y-20848103D02*
X7619748Y-20838579D01*
X7619748Y-20838579D02*
X7610224Y-20819532D01*
X7610224Y-20819532D02*
X7600701Y-20781436D01*
X7600701Y-20781436D02*
X7600701Y-20733817D01*
X7600701Y-20733817D02*
X7610224Y-20695722D01*
X7610224Y-20695722D02*
X7619748Y-20676674D01*
X7619748Y-20676674D02*
X7629272Y-20667151D01*
X7629272Y-20667151D02*
X7648320Y-20657627D01*
X7838796Y-20657627D02*
X7857843Y-20657627D01*
X7857843Y-20657627D02*
X7876891Y-20667151D01*
X7876891Y-20667151D02*
X7886415Y-20676674D01*
X7886415Y-20676674D02*
X7895939Y-20695722D01*
X7895939Y-20695722D02*
X7905462Y-20733817D01*
X7905462Y-20733817D02*
X7905462Y-20781436D01*
X7905462Y-20781436D02*
X7895939Y-20819532D01*
X7895939Y-20819532D02*
X7886415Y-20838579D01*
X7886415Y-20838579D02*
X7876891Y-20848103D01*
X7876891Y-20848103D02*
X7857843Y-20857627D01*
X7857843Y-20857627D02*
X7838796Y-20857627D01*
X7838796Y-20857627D02*
X7819748Y-20848103D01*
X7819748Y-20848103D02*
X7810224Y-20838579D01*
X7810224Y-20838579D02*
X7800701Y-20819532D01*
X7800701Y-20819532D02*
X7791177Y-20781436D01*
X7791177Y-20781436D02*
X7791177Y-20733817D01*
X7791177Y-20733817D02*
X7800701Y-20695722D01*
X7800701Y-20695722D02*
X7810224Y-20676674D01*
X7810224Y-20676674D02*
X7819748Y-20667151D01*
X7819748Y-20667151D02*
X7838796Y-20657627D01*
X8029272Y-20657627D02*
X8048320Y-20657627D01*
X8048320Y-20657627D02*
X8067367Y-20667151D01*
X8067367Y-20667151D02*
X8076891Y-20676674D01*
X8076891Y-20676674D02*
X8086415Y-20695722D01*
X8086415Y-20695722D02*
X8095939Y-20733817D01*
X8095939Y-20733817D02*
X8095939Y-20781436D01*
X8095939Y-20781436D02*
X8086415Y-20819532D01*
X8086415Y-20819532D02*
X8076891Y-20838579D01*
X8076891Y-20838579D02*
X8067367Y-20848103D01*
X8067367Y-20848103D02*
X8048320Y-20857627D01*
X8048320Y-20857627D02*
X8029272Y-20857627D01*
X8029272Y-20857627D02*
X8010224Y-20848103D01*
X8010224Y-20848103D02*
X8000701Y-20838579D01*
X8000701Y-20838579D02*
X7991177Y-20819532D01*
X7991177Y-20819532D02*
X7981653Y-20781436D01*
X7981653Y-20781436D02*
X7981653Y-20733817D01*
X7981653Y-20733817D02*
X7991177Y-20695722D01*
X7991177Y-20695722D02*
X8000701Y-20676674D01*
X8000701Y-20676674D02*
X8010224Y-20667151D01*
X8010224Y-20667151D02*
X8029272Y-20657627D01*
X8181653Y-20857627D02*
X8181653Y-20724293D01*
X8181653Y-20743341D02*
X8191177Y-20733817D01*
X8191177Y-20733817D02*
X8210224Y-20724293D01*
X8210224Y-20724293D02*
X8238796Y-20724293D01*
X8238796Y-20724293D02*
X8257843Y-20733817D01*
X8257843Y-20733817D02*
X8267367Y-20752865D01*
X8267367Y-20752865D02*
X8267367Y-20857627D01*
X8267367Y-20752865D02*
X8276891Y-20733817D01*
X8276891Y-20733817D02*
X8295939Y-20724293D01*
X8295939Y-20724293D02*
X8324510Y-20724293D01*
X8324510Y-20724293D02*
X8343558Y-20733817D01*
X8343558Y-20733817D02*
X8353082Y-20752865D01*
X8353082Y-20752865D02*
X8353082Y-20857627D01*
X8448320Y-20857627D02*
X8448320Y-20724293D01*
X8448320Y-20743341D02*
X8457844Y-20733817D01*
X8457844Y-20733817D02*
X8476891Y-20724293D01*
X8476891Y-20724293D02*
X8505463Y-20724293D01*
X8505463Y-20724293D02*
X8524510Y-20733817D01*
X8524510Y-20733817D02*
X8534034Y-20752865D01*
X8534034Y-20752865D02*
X8534034Y-20857627D01*
X8534034Y-20752865D02*
X8543558Y-20733817D01*
X8543558Y-20733817D02*
X8562605Y-20724293D01*
X8562605Y-20724293D02*
X8591177Y-20724293D01*
X8591177Y-20724293D02*
X8610225Y-20733817D01*
X8610225Y-20733817D02*
X8619748Y-20752865D01*
X8619748Y-20752865D02*
X8619748Y-20857627D01*
X9010225Y-20648103D02*
X8838796Y-20905246D01*
X9267367Y-20657627D02*
X9286415Y-20657627D01*
X9286415Y-20657627D02*
X9305463Y-20667151D01*
X9305463Y-20667151D02*
X9314987Y-20676674D01*
X9314987Y-20676674D02*
X9324510Y-20695722D01*
X9324510Y-20695722D02*
X9334034Y-20733817D01*
X9334034Y-20733817D02*
X9334034Y-20781436D01*
X9334034Y-20781436D02*
X9324510Y-20819532D01*
X9324510Y-20819532D02*
X9314987Y-20838579D01*
X9314987Y-20838579D02*
X9305463Y-20848103D01*
X9305463Y-20848103D02*
X9286415Y-20857627D01*
X9286415Y-20857627D02*
X9267367Y-20857627D01*
X9267367Y-20857627D02*
X9248320Y-20848103D01*
X9248320Y-20848103D02*
X9238796Y-20838579D01*
X9238796Y-20838579D02*
X9229272Y-20819532D01*
X9229272Y-20819532D02*
X9219748Y-20781436D01*
X9219748Y-20781436D02*
X9219748Y-20733817D01*
X9219748Y-20733817D02*
X9229272Y-20695722D01*
X9229272Y-20695722D02*
X9238796Y-20676674D01*
X9238796Y-20676674D02*
X9248320Y-20667151D01*
X9248320Y-20667151D02*
X9267367Y-20657627D01*
X9419748Y-20838579D02*
X9429272Y-20848103D01*
X9429272Y-20848103D02*
X9419748Y-20857627D01*
X9419748Y-20857627D02*
X9410225Y-20848103D01*
X9410225Y-20848103D02*
X9419748Y-20838579D01*
X9419748Y-20838579D02*
X9419748Y-20857627D01*
X9619748Y-20857627D02*
X9505463Y-20857627D01*
X9562606Y-20857627D02*
X9562606Y-20657627D01*
X9562606Y-20657627D02*
X9543558Y-20686198D01*
X9543558Y-20686198D02*
X9524510Y-20705246D01*
X9524510Y-20705246D02*
X9505463Y-20714770D01*
X9810225Y-20857627D02*
X9695939Y-20857627D01*
X9753082Y-20857627D02*
X9753082Y-20657627D01*
X9753082Y-20657627D02*
X9734034Y-20686198D01*
X9734034Y-20686198D02*
X9714987Y-20705246D01*
X9714987Y-20705246D02*
X9695939Y-20714770D01*
X9924510Y-20743341D02*
X9905463Y-20733817D01*
X9905463Y-20733817D02*
X9895939Y-20724293D01*
X9895939Y-20724293D02*
X9886415Y-20705246D01*
X9886415Y-20705246D02*
X9886415Y-20695722D01*
X9886415Y-20695722D02*
X9895939Y-20676674D01*
X9895939Y-20676674D02*
X9905463Y-20667151D01*
X9905463Y-20667151D02*
X9924510Y-20657627D01*
X9924510Y-20657627D02*
X9962606Y-20657627D01*
X9962606Y-20657627D02*
X9981653Y-20667151D01*
X9981653Y-20667151D02*
X9991177Y-20676674D01*
X9991177Y-20676674D02*
X10000701Y-20695722D01*
X10000701Y-20695722D02*
X10000701Y-20705246D01*
X10000701Y-20705246D02*
X9991177Y-20724293D01*
X9991177Y-20724293D02*
X9981653Y-20733817D01*
X9981653Y-20733817D02*
X9962606Y-20743341D01*
X9962606Y-20743341D02*
X9924510Y-20743341D01*
X9924510Y-20743341D02*
X9905463Y-20752865D01*
X9905463Y-20752865D02*
X9895939Y-20762389D01*
X9895939Y-20762389D02*
X9886415Y-20781436D01*
X9886415Y-20781436D02*
X9886415Y-20819532D01*
X9886415Y-20819532D02*
X9895939Y-20838579D01*
X9895939Y-20838579D02*
X9905463Y-20848103D01*
X9905463Y-20848103D02*
X9924510Y-20857627D01*
X9924510Y-20857627D02*
X9962606Y-20857627D01*
X9962606Y-20857627D02*
X9981653Y-20848103D01*
X9981653Y-20848103D02*
X9991177Y-20838579D01*
X9991177Y-20838579D02*
X10000701Y-20819532D01*
X10000701Y-20819532D02*
X10000701Y-20781436D01*
X10000701Y-20781436D02*
X9991177Y-20762389D01*
X9991177Y-20762389D02*
X9981653Y-20752865D01*
X9981653Y-20752865D02*
X9962606Y-20743341D01*
X10191177Y-20857627D02*
X10076891Y-20857627D01*
X10134034Y-20857627D02*
X10134034Y-20657627D01*
X10134034Y-20657627D02*
X10114987Y-20686198D01*
X10114987Y-20686198D02*
X10095939Y-20705246D01*
X10095939Y-20705246D02*
X10076891Y-20714770D01*
X10267368Y-20657627D02*
X10267368Y-20695722D01*
X10343558Y-20657627D02*
X10343558Y-20695722D01*
X10638796Y-20933817D02*
X10629272Y-20924293D01*
X10629272Y-20924293D02*
X10610225Y-20895722D01*
X10610225Y-20895722D02*
X10600701Y-20876674D01*
X10600701Y-20876674D02*
X10591177Y-20848103D01*
X10591177Y-20848103D02*
X10581653Y-20800484D01*
X10581653Y-20800484D02*
X10581653Y-20762389D01*
X10581653Y-20762389D02*
X10591177Y-20714770D01*
X10591177Y-20714770D02*
X10600701Y-20686198D01*
X10600701Y-20686198D02*
X10610225Y-20667151D01*
X10610225Y-20667151D02*
X10629272Y-20638579D01*
X10629272Y-20638579D02*
X10638796Y-20629055D01*
X10705463Y-20676674D02*
X10714987Y-20667151D01*
X10714987Y-20667151D02*
X10734034Y-20657627D01*
X10734034Y-20657627D02*
X10781653Y-20657627D01*
X10781653Y-20657627D02*
X10800701Y-20667151D01*
X10800701Y-20667151D02*
X10810225Y-20676674D01*
X10810225Y-20676674D02*
X10819749Y-20695722D01*
X10819749Y-20695722D02*
X10819749Y-20714770D01*
X10819749Y-20714770D02*
X10810225Y-20743341D01*
X10810225Y-20743341D02*
X10695939Y-20857627D01*
X10695939Y-20857627D02*
X10819749Y-20857627D01*
X10943558Y-20657627D02*
X10962606Y-20657627D01*
X10962606Y-20657627D02*
X10981653Y-20667151D01*
X10981653Y-20667151D02*
X10991177Y-20676674D01*
X10991177Y-20676674D02*
X11000701Y-20695722D01*
X11000701Y-20695722D02*
X11010225Y-20733817D01*
X11010225Y-20733817D02*
X11010225Y-20781436D01*
X11010225Y-20781436D02*
X11000701Y-20819532D01*
X11000701Y-20819532D02*
X10991177Y-20838579D01*
X10991177Y-20838579D02*
X10981653Y-20848103D01*
X10981653Y-20848103D02*
X10962606Y-20857627D01*
X10962606Y-20857627D02*
X10943558Y-20857627D01*
X10943558Y-20857627D02*
X10924510Y-20848103D01*
X10924510Y-20848103D02*
X10914987Y-20838579D01*
X10914987Y-20838579D02*
X10905463Y-20819532D01*
X10905463Y-20819532D02*
X10895939Y-20781436D01*
X10895939Y-20781436D02*
X10895939Y-20733817D01*
X10895939Y-20733817D02*
X10905463Y-20695722D01*
X10905463Y-20695722D02*
X10914987Y-20676674D01*
X10914987Y-20676674D02*
X10924510Y-20667151D01*
X10924510Y-20667151D02*
X10943558Y-20657627D01*
X11124510Y-20743341D02*
X11105463Y-20733817D01*
X11105463Y-20733817D02*
X11095939Y-20724293D01*
X11095939Y-20724293D02*
X11086415Y-20705246D01*
X11086415Y-20705246D02*
X11086415Y-20695722D01*
X11086415Y-20695722D02*
X11095939Y-20676674D01*
X11095939Y-20676674D02*
X11105463Y-20667151D01*
X11105463Y-20667151D02*
X11124510Y-20657627D01*
X11124510Y-20657627D02*
X11162606Y-20657627D01*
X11162606Y-20657627D02*
X11181653Y-20667151D01*
X11181653Y-20667151D02*
X11191177Y-20676674D01*
X11191177Y-20676674D02*
X11200701Y-20695722D01*
X11200701Y-20695722D02*
X11200701Y-20705246D01*
X11200701Y-20705246D02*
X11191177Y-20724293D01*
X11191177Y-20724293D02*
X11181653Y-20733817D01*
X11181653Y-20733817D02*
X11162606Y-20743341D01*
X11162606Y-20743341D02*
X11124510Y-20743341D01*
X11124510Y-20743341D02*
X11105463Y-20752865D01*
X11105463Y-20752865D02*
X11095939Y-20762389D01*
X11095939Y-20762389D02*
X11086415Y-20781436D01*
X11086415Y-20781436D02*
X11086415Y-20819532D01*
X11086415Y-20819532D02*
X11095939Y-20838579D01*
X11095939Y-20838579D02*
X11105463Y-20848103D01*
X11105463Y-20848103D02*
X11124510Y-20857627D01*
X11124510Y-20857627D02*
X11162606Y-20857627D01*
X11162606Y-20857627D02*
X11181653Y-20848103D01*
X11181653Y-20848103D02*
X11191177Y-20838579D01*
X11191177Y-20838579D02*
X11200701Y-20819532D01*
X11200701Y-20819532D02*
X11200701Y-20781436D01*
X11200701Y-20781436D02*
X11191177Y-20762389D01*
X11191177Y-20762389D02*
X11181653Y-20752865D01*
X11181653Y-20752865D02*
X11162606Y-20743341D01*
X11438796Y-20857627D02*
X11438796Y-20657627D01*
X11524510Y-20857627D02*
X11524510Y-20752865D01*
X11524510Y-20752865D02*
X11514987Y-20733817D01*
X11514987Y-20733817D02*
X11495939Y-20724293D01*
X11495939Y-20724293D02*
X11467368Y-20724293D01*
X11467368Y-20724293D02*
X11448320Y-20733817D01*
X11448320Y-20733817D02*
X11438796Y-20743341D01*
X11648320Y-20857627D02*
X11629272Y-20848103D01*
X11629272Y-20848103D02*
X11619749Y-20838579D01*
X11619749Y-20838579D02*
X11610225Y-20819532D01*
X11610225Y-20819532D02*
X11610225Y-20762389D01*
X11610225Y-20762389D02*
X11619749Y-20743341D01*
X11619749Y-20743341D02*
X11629272Y-20733817D01*
X11629272Y-20733817D02*
X11648320Y-20724293D01*
X11648320Y-20724293D02*
X11676891Y-20724293D01*
X11676891Y-20724293D02*
X11695939Y-20733817D01*
X11695939Y-20733817D02*
X11705463Y-20743341D01*
X11705463Y-20743341D02*
X11714987Y-20762389D01*
X11714987Y-20762389D02*
X11714987Y-20819532D01*
X11714987Y-20819532D02*
X11705463Y-20838579D01*
X11705463Y-20838579D02*
X11695939Y-20848103D01*
X11695939Y-20848103D02*
X11676891Y-20857627D01*
X11676891Y-20857627D02*
X11648320Y-20857627D01*
X11829272Y-20857627D02*
X11810225Y-20848103D01*
X11810225Y-20848103D02*
X11800701Y-20829055D01*
X11800701Y-20829055D02*
X11800701Y-20657627D01*
X11981653Y-20848103D02*
X11962606Y-20857627D01*
X11962606Y-20857627D02*
X11924510Y-20857627D01*
X11924510Y-20857627D02*
X11905463Y-20848103D01*
X11905463Y-20848103D02*
X11895939Y-20829055D01*
X11895939Y-20829055D02*
X11895939Y-20752865D01*
X11895939Y-20752865D02*
X11905463Y-20733817D01*
X11905463Y-20733817D02*
X11924510Y-20724293D01*
X11924510Y-20724293D02*
X11962606Y-20724293D01*
X11962606Y-20724293D02*
X11981653Y-20733817D01*
X11981653Y-20733817D02*
X11991177Y-20752865D01*
X11991177Y-20752865D02*
X11991177Y-20771913D01*
X11991177Y-20771913D02*
X11895939Y-20790960D01*
X12067368Y-20848103D02*
X12086415Y-20857627D01*
X12086415Y-20857627D02*
X12124510Y-20857627D01*
X12124510Y-20857627D02*
X12143558Y-20848103D01*
X12143558Y-20848103D02*
X12153082Y-20829055D01*
X12153082Y-20829055D02*
X12153082Y-20819532D01*
X12153082Y-20819532D02*
X12143558Y-20800484D01*
X12143558Y-20800484D02*
X12124510Y-20790960D01*
X12124510Y-20790960D02*
X12095939Y-20790960D01*
X12095939Y-20790960D02*
X12076891Y-20781436D01*
X12076891Y-20781436D02*
X12067368Y-20762389D01*
X12067368Y-20762389D02*
X12067368Y-20752865D01*
X12067368Y-20752865D02*
X12076891Y-20733817D01*
X12076891Y-20733817D02*
X12095939Y-20724293D01*
X12095939Y-20724293D02*
X12124510Y-20724293D01*
X12124510Y-20724293D02*
X12143558Y-20733817D01*
X12219749Y-20933817D02*
X12229272Y-20924293D01*
X12229272Y-20924293D02*
X12248320Y-20895722D01*
X12248320Y-20895722D02*
X12257844Y-20876674D01*
X12257844Y-20876674D02*
X12267368Y-20848103D01*
X12267368Y-20848103D02*
X12276891Y-20800484D01*
X12276891Y-20800484D02*
X12276891Y-20762389D01*
X12276891Y-20762389D02*
X12267368Y-20714770D01*
X12267368Y-20714770D02*
X12257844Y-20686198D01*
X12257844Y-20686198D02*
X12248320Y-20667151D01*
X12248320Y-20667151D02*
X12229272Y-20638579D01*
X12229272Y-20638579D02*
X12219749Y-20629055D01*
X12581653Y-20933817D02*
X12572130Y-20924293D01*
X12572130Y-20924293D02*
X12553082Y-20895722D01*
X12553082Y-20895722D02*
X12543558Y-20876674D01*
X12543558Y-20876674D02*
X12534034Y-20848103D01*
X12534034Y-20848103D02*
X12524511Y-20800484D01*
X12524511Y-20800484D02*
X12524511Y-20762389D01*
X12524511Y-20762389D02*
X12534034Y-20714770D01*
X12534034Y-20714770D02*
X12543558Y-20686198D01*
X12543558Y-20686198D02*
X12553082Y-20667151D01*
X12553082Y-20667151D02*
X12572130Y-20638579D01*
X12572130Y-20638579D02*
X12581653Y-20629055D01*
X12657844Y-20724293D02*
X12657844Y-20857627D01*
X12657844Y-20743341D02*
X12667368Y-20733817D01*
X12667368Y-20733817D02*
X12686415Y-20724293D01*
X12686415Y-20724293D02*
X12714987Y-20724293D01*
X12714987Y-20724293D02*
X12734034Y-20733817D01*
X12734034Y-20733817D02*
X12743558Y-20752865D01*
X12743558Y-20752865D02*
X12743558Y-20857627D01*
X12867368Y-20857627D02*
X12848320Y-20848103D01*
X12848320Y-20848103D02*
X12838796Y-20838579D01*
X12838796Y-20838579D02*
X12829272Y-20819532D01*
X12829272Y-20819532D02*
X12829272Y-20762389D01*
X12829272Y-20762389D02*
X12838796Y-20743341D01*
X12838796Y-20743341D02*
X12848320Y-20733817D01*
X12848320Y-20733817D02*
X12867368Y-20724293D01*
X12867368Y-20724293D02*
X12895939Y-20724293D01*
X12895939Y-20724293D02*
X12914987Y-20733817D01*
X12914987Y-20733817D02*
X12924511Y-20743341D01*
X12924511Y-20743341D02*
X12934034Y-20762389D01*
X12934034Y-20762389D02*
X12934034Y-20819532D01*
X12934034Y-20819532D02*
X12924511Y-20838579D01*
X12924511Y-20838579D02*
X12914987Y-20848103D01*
X12914987Y-20848103D02*
X12895939Y-20857627D01*
X12895939Y-20857627D02*
X12867368Y-20857627D01*
X12991177Y-20724293D02*
X13067368Y-20724293D01*
X13019749Y-20657627D02*
X13019749Y-20829055D01*
X13019749Y-20829055D02*
X13029272Y-20848103D01*
X13029272Y-20848103D02*
X13048320Y-20857627D01*
X13048320Y-20857627D02*
X13067368Y-20857627D01*
X13286415Y-20724293D02*
X13286415Y-20924293D01*
X13286415Y-20733817D02*
X13305463Y-20724293D01*
X13305463Y-20724293D02*
X13343558Y-20724293D01*
X13343558Y-20724293D02*
X13362606Y-20733817D01*
X13362606Y-20733817D02*
X13372130Y-20743341D01*
X13372130Y-20743341D02*
X13381653Y-20762389D01*
X13381653Y-20762389D02*
X13381653Y-20819532D01*
X13381653Y-20819532D02*
X13372130Y-20838579D01*
X13372130Y-20838579D02*
X13362606Y-20848103D01*
X13362606Y-20848103D02*
X13343558Y-20857627D01*
X13343558Y-20857627D02*
X13305463Y-20857627D01*
X13305463Y-20857627D02*
X13286415Y-20848103D01*
X13495939Y-20857627D02*
X13476892Y-20848103D01*
X13476892Y-20848103D02*
X13467368Y-20829055D01*
X13467368Y-20829055D02*
X13467368Y-20657627D01*
X13657844Y-20857627D02*
X13657844Y-20752865D01*
X13657844Y-20752865D02*
X13648320Y-20733817D01*
X13648320Y-20733817D02*
X13629273Y-20724293D01*
X13629273Y-20724293D02*
X13591177Y-20724293D01*
X13591177Y-20724293D02*
X13572130Y-20733817D01*
X13657844Y-20848103D02*
X13638796Y-20857627D01*
X13638796Y-20857627D02*
X13591177Y-20857627D01*
X13591177Y-20857627D02*
X13572130Y-20848103D01*
X13572130Y-20848103D02*
X13562606Y-20829055D01*
X13562606Y-20829055D02*
X13562606Y-20810008D01*
X13562606Y-20810008D02*
X13572130Y-20790960D01*
X13572130Y-20790960D02*
X13591177Y-20781436D01*
X13591177Y-20781436D02*
X13638796Y-20781436D01*
X13638796Y-20781436D02*
X13657844Y-20771913D01*
X13724511Y-20724293D02*
X13800701Y-20724293D01*
X13753082Y-20657627D02*
X13753082Y-20829055D01*
X13753082Y-20829055D02*
X13762606Y-20848103D01*
X13762606Y-20848103D02*
X13781653Y-20857627D01*
X13781653Y-20857627D02*
X13800701Y-20857627D01*
X13943558Y-20848103D02*
X13924511Y-20857627D01*
X13924511Y-20857627D02*
X13886415Y-20857627D01*
X13886415Y-20857627D02*
X13867368Y-20848103D01*
X13867368Y-20848103D02*
X13857844Y-20829055D01*
X13857844Y-20829055D02*
X13857844Y-20752865D01*
X13857844Y-20752865D02*
X13867368Y-20733817D01*
X13867368Y-20733817D02*
X13886415Y-20724293D01*
X13886415Y-20724293D02*
X13924511Y-20724293D01*
X13924511Y-20724293D02*
X13943558Y-20733817D01*
X13943558Y-20733817D02*
X13953082Y-20752865D01*
X13953082Y-20752865D02*
X13953082Y-20771913D01*
X13953082Y-20771913D02*
X13857844Y-20790960D01*
X14124511Y-20857627D02*
X14124511Y-20657627D01*
X14124511Y-20848103D02*
X14105463Y-20857627D01*
X14105463Y-20857627D02*
X14067368Y-20857627D01*
X14067368Y-20857627D02*
X14048320Y-20848103D01*
X14048320Y-20848103D02*
X14038796Y-20838579D01*
X14038796Y-20838579D02*
X14029273Y-20819532D01*
X14029273Y-20819532D02*
X14029273Y-20762389D01*
X14029273Y-20762389D02*
X14038796Y-20743341D01*
X14038796Y-20743341D02*
X14048320Y-20733817D01*
X14048320Y-20733817D02*
X14067368Y-20724293D01*
X14067368Y-20724293D02*
X14105463Y-20724293D01*
X14105463Y-20724293D02*
X14124511Y-20733817D01*
X14200701Y-20933817D02*
X14210225Y-20924293D01*
X14210225Y-20924293D02*
X14229273Y-20895722D01*
X14229273Y-20895722D02*
X14238796Y-20876674D01*
X14238796Y-20876674D02*
X14248320Y-20848103D01*
X14248320Y-20848103D02*
X14257844Y-20800484D01*
X14257844Y-20800484D02*
X14257844Y-20762389D01*
X14257844Y-20762389D02*
X14248320Y-20714770D01*
X14248320Y-20714770D02*
X14238796Y-20686198D01*
X14238796Y-20686198D02*
X14229273Y-20667151D01*
X14229273Y-20667151D02*
X14210225Y-20638579D01*
X14210225Y-20638579D02*
X14200701Y-20629055D01*
X7034445Y-21156854D02*
X7034445Y-21015432D01*
X6893022Y-21015432D01*
X6893022Y-21156854D01*
X7034445Y-21156854D01*
X7305462Y-20977627D02*
X7429272Y-20977627D01*
X7429272Y-20977627D02*
X7362605Y-21053817D01*
X7362605Y-21053817D02*
X7391177Y-21053817D01*
X7391177Y-21053817D02*
X7410224Y-21063341D01*
X7410224Y-21063341D02*
X7419748Y-21072865D01*
X7419748Y-21072865D02*
X7429272Y-21091913D01*
X7429272Y-21091913D02*
X7429272Y-21139532D01*
X7429272Y-21139532D02*
X7419748Y-21158579D01*
X7419748Y-21158579D02*
X7410224Y-21168103D01*
X7410224Y-21168103D02*
X7391177Y-21177627D01*
X7391177Y-21177627D02*
X7334034Y-21177627D01*
X7334034Y-21177627D02*
X7314986Y-21168103D01*
X7314986Y-21168103D02*
X7305462Y-21158579D01*
X7514986Y-21158579D02*
X7524510Y-21168103D01*
X7524510Y-21168103D02*
X7514986Y-21177627D01*
X7514986Y-21177627D02*
X7505462Y-21168103D01*
X7505462Y-21168103D02*
X7514986Y-21158579D01*
X7514986Y-21158579D02*
X7514986Y-21177627D01*
X7695939Y-21044293D02*
X7695939Y-21177627D01*
X7648320Y-20968103D02*
X7600701Y-21110960D01*
X7600701Y-21110960D02*
X7724510Y-21110960D01*
X7791177Y-20996674D02*
X7800701Y-20987151D01*
X7800701Y-20987151D02*
X7819748Y-20977627D01*
X7819748Y-20977627D02*
X7867367Y-20977627D01*
X7867367Y-20977627D02*
X7886415Y-20987151D01*
X7886415Y-20987151D02*
X7895939Y-20996674D01*
X7895939Y-20996674D02*
X7905462Y-21015722D01*
X7905462Y-21015722D02*
X7905462Y-21034770D01*
X7905462Y-21034770D02*
X7895939Y-21063341D01*
X7895939Y-21063341D02*
X7781653Y-21177627D01*
X7781653Y-21177627D02*
X7905462Y-21177627D01*
X8000701Y-21177627D02*
X8038796Y-21177627D01*
X8038796Y-21177627D02*
X8057843Y-21168103D01*
X8057843Y-21168103D02*
X8067367Y-21158579D01*
X8067367Y-21158579D02*
X8086415Y-21130008D01*
X8086415Y-21130008D02*
X8095939Y-21091913D01*
X8095939Y-21091913D02*
X8095939Y-21015722D01*
X8095939Y-21015722D02*
X8086415Y-20996674D01*
X8086415Y-20996674D02*
X8076891Y-20987151D01*
X8076891Y-20987151D02*
X8057843Y-20977627D01*
X8057843Y-20977627D02*
X8019748Y-20977627D01*
X8019748Y-20977627D02*
X8000701Y-20987151D01*
X8000701Y-20987151D02*
X7991177Y-20996674D01*
X7991177Y-20996674D02*
X7981653Y-21015722D01*
X7981653Y-21015722D02*
X7981653Y-21063341D01*
X7981653Y-21063341D02*
X7991177Y-21082389D01*
X7991177Y-21082389D02*
X8000701Y-21091913D01*
X8000701Y-21091913D02*
X8019748Y-21101436D01*
X8019748Y-21101436D02*
X8057843Y-21101436D01*
X8057843Y-21101436D02*
X8076891Y-21091913D01*
X8076891Y-21091913D02*
X8086415Y-21082389D01*
X8086415Y-21082389D02*
X8095939Y-21063341D01*
X8181653Y-21177627D02*
X8181653Y-21044293D01*
X8181653Y-21063341D02*
X8191177Y-21053817D01*
X8191177Y-21053817D02*
X8210224Y-21044293D01*
X8210224Y-21044293D02*
X8238796Y-21044293D01*
X8238796Y-21044293D02*
X8257843Y-21053817D01*
X8257843Y-21053817D02*
X8267367Y-21072865D01*
X8267367Y-21072865D02*
X8267367Y-21177627D01*
X8267367Y-21072865D02*
X8276891Y-21053817D01*
X8276891Y-21053817D02*
X8295939Y-21044293D01*
X8295939Y-21044293D02*
X8324510Y-21044293D01*
X8324510Y-21044293D02*
X8343558Y-21053817D01*
X8343558Y-21053817D02*
X8353082Y-21072865D01*
X8353082Y-21072865D02*
X8353082Y-21177627D01*
X8448320Y-21177627D02*
X8448320Y-21044293D01*
X8448320Y-21063341D02*
X8457844Y-21053817D01*
X8457844Y-21053817D02*
X8476891Y-21044293D01*
X8476891Y-21044293D02*
X8505463Y-21044293D01*
X8505463Y-21044293D02*
X8524510Y-21053817D01*
X8524510Y-21053817D02*
X8534034Y-21072865D01*
X8534034Y-21072865D02*
X8534034Y-21177627D01*
X8534034Y-21072865D02*
X8543558Y-21053817D01*
X8543558Y-21053817D02*
X8562605Y-21044293D01*
X8562605Y-21044293D02*
X8591177Y-21044293D01*
X8591177Y-21044293D02*
X8610225Y-21053817D01*
X8610225Y-21053817D02*
X8619748Y-21072865D01*
X8619748Y-21072865D02*
X8619748Y-21177627D01*
X9010225Y-20968103D02*
X8838796Y-21225246D01*
X9267367Y-20977627D02*
X9286415Y-20977627D01*
X9286415Y-20977627D02*
X9305463Y-20987151D01*
X9305463Y-20987151D02*
X9314987Y-20996674D01*
X9314987Y-20996674D02*
X9324510Y-21015722D01*
X9324510Y-21015722D02*
X9334034Y-21053817D01*
X9334034Y-21053817D02*
X9334034Y-21101436D01*
X9334034Y-21101436D02*
X9324510Y-21139532D01*
X9324510Y-21139532D02*
X9314987Y-21158579D01*
X9314987Y-21158579D02*
X9305463Y-21168103D01*
X9305463Y-21168103D02*
X9286415Y-21177627D01*
X9286415Y-21177627D02*
X9267367Y-21177627D01*
X9267367Y-21177627D02*
X9248320Y-21168103D01*
X9248320Y-21168103D02*
X9238796Y-21158579D01*
X9238796Y-21158579D02*
X9229272Y-21139532D01*
X9229272Y-21139532D02*
X9219748Y-21101436D01*
X9219748Y-21101436D02*
X9219748Y-21053817D01*
X9219748Y-21053817D02*
X9229272Y-21015722D01*
X9229272Y-21015722D02*
X9238796Y-20996674D01*
X9238796Y-20996674D02*
X9248320Y-20987151D01*
X9248320Y-20987151D02*
X9267367Y-20977627D01*
X9419748Y-21158579D02*
X9429272Y-21168103D01*
X9429272Y-21168103D02*
X9419748Y-21177627D01*
X9419748Y-21177627D02*
X9410225Y-21168103D01*
X9410225Y-21168103D02*
X9419748Y-21158579D01*
X9419748Y-21158579D02*
X9419748Y-21177627D01*
X9619748Y-21177627D02*
X9505463Y-21177627D01*
X9562606Y-21177627D02*
X9562606Y-20977627D01*
X9562606Y-20977627D02*
X9543558Y-21006198D01*
X9543558Y-21006198D02*
X9524510Y-21025246D01*
X9524510Y-21025246D02*
X9505463Y-21034770D01*
X9686415Y-20977627D02*
X9810225Y-20977627D01*
X9810225Y-20977627D02*
X9743558Y-21053817D01*
X9743558Y-21053817D02*
X9772129Y-21053817D01*
X9772129Y-21053817D02*
X9791177Y-21063341D01*
X9791177Y-21063341D02*
X9800701Y-21072865D01*
X9800701Y-21072865D02*
X9810225Y-21091913D01*
X9810225Y-21091913D02*
X9810225Y-21139532D01*
X9810225Y-21139532D02*
X9800701Y-21158579D01*
X9800701Y-21158579D02*
X9791177Y-21168103D01*
X9791177Y-21168103D02*
X9772129Y-21177627D01*
X9772129Y-21177627D02*
X9714987Y-21177627D01*
X9714987Y-21177627D02*
X9695939Y-21168103D01*
X9695939Y-21168103D02*
X9686415Y-21158579D01*
X9991177Y-20977627D02*
X9895939Y-20977627D01*
X9895939Y-20977627D02*
X9886415Y-21072865D01*
X9886415Y-21072865D02*
X9895939Y-21063341D01*
X9895939Y-21063341D02*
X9914987Y-21053817D01*
X9914987Y-21053817D02*
X9962606Y-21053817D01*
X9962606Y-21053817D02*
X9981653Y-21063341D01*
X9981653Y-21063341D02*
X9991177Y-21072865D01*
X9991177Y-21072865D02*
X10000701Y-21091913D01*
X10000701Y-21091913D02*
X10000701Y-21139532D01*
X10000701Y-21139532D02*
X9991177Y-21158579D01*
X9991177Y-21158579D02*
X9981653Y-21168103D01*
X9981653Y-21168103D02*
X9962606Y-21177627D01*
X9962606Y-21177627D02*
X9914987Y-21177627D01*
X9914987Y-21177627D02*
X9895939Y-21168103D01*
X9895939Y-21168103D02*
X9886415Y-21158579D01*
X10124510Y-20977627D02*
X10143558Y-20977627D01*
X10143558Y-20977627D02*
X10162606Y-20987151D01*
X10162606Y-20987151D02*
X10172129Y-20996674D01*
X10172129Y-20996674D02*
X10181653Y-21015722D01*
X10181653Y-21015722D02*
X10191177Y-21053817D01*
X10191177Y-21053817D02*
X10191177Y-21101436D01*
X10191177Y-21101436D02*
X10181653Y-21139532D01*
X10181653Y-21139532D02*
X10172129Y-21158579D01*
X10172129Y-21158579D02*
X10162606Y-21168103D01*
X10162606Y-21168103D02*
X10143558Y-21177627D01*
X10143558Y-21177627D02*
X10124510Y-21177627D01*
X10124510Y-21177627D02*
X10105463Y-21168103D01*
X10105463Y-21168103D02*
X10095939Y-21158579D01*
X10095939Y-21158579D02*
X10086415Y-21139532D01*
X10086415Y-21139532D02*
X10076891Y-21101436D01*
X10076891Y-21101436D02*
X10076891Y-21053817D01*
X10076891Y-21053817D02*
X10086415Y-21015722D01*
X10086415Y-21015722D02*
X10095939Y-20996674D01*
X10095939Y-20996674D02*
X10105463Y-20987151D01*
X10105463Y-20987151D02*
X10124510Y-20977627D01*
X10267368Y-20977627D02*
X10267368Y-21015722D01*
X10343558Y-20977627D02*
X10343558Y-21015722D01*
X10638796Y-21253817D02*
X10629272Y-21244293D01*
X10629272Y-21244293D02*
X10610225Y-21215722D01*
X10610225Y-21215722D02*
X10600701Y-21196674D01*
X10600701Y-21196674D02*
X10591177Y-21168103D01*
X10591177Y-21168103D02*
X10581653Y-21120484D01*
X10581653Y-21120484D02*
X10581653Y-21082389D01*
X10581653Y-21082389D02*
X10591177Y-21034770D01*
X10591177Y-21034770D02*
X10600701Y-21006198D01*
X10600701Y-21006198D02*
X10610225Y-20987151D01*
X10610225Y-20987151D02*
X10629272Y-20958579D01*
X10629272Y-20958579D02*
X10638796Y-20949055D01*
X10810225Y-20977627D02*
X10714987Y-20977627D01*
X10714987Y-20977627D02*
X10705463Y-21072865D01*
X10705463Y-21072865D02*
X10714987Y-21063341D01*
X10714987Y-21063341D02*
X10734034Y-21053817D01*
X10734034Y-21053817D02*
X10781653Y-21053817D01*
X10781653Y-21053817D02*
X10800701Y-21063341D01*
X10800701Y-21063341D02*
X10810225Y-21072865D01*
X10810225Y-21072865D02*
X10819749Y-21091913D01*
X10819749Y-21091913D02*
X10819749Y-21139532D01*
X10819749Y-21139532D02*
X10810225Y-21158579D01*
X10810225Y-21158579D02*
X10800701Y-21168103D01*
X10800701Y-21168103D02*
X10781653Y-21177627D01*
X10781653Y-21177627D02*
X10734034Y-21177627D01*
X10734034Y-21177627D02*
X10714987Y-21168103D01*
X10714987Y-21168103D02*
X10705463Y-21158579D01*
X10895939Y-20996674D02*
X10905463Y-20987151D01*
X10905463Y-20987151D02*
X10924510Y-20977627D01*
X10924510Y-20977627D02*
X10972130Y-20977627D01*
X10972130Y-20977627D02*
X10991177Y-20987151D01*
X10991177Y-20987151D02*
X11000701Y-20996674D01*
X11000701Y-20996674D02*
X11010225Y-21015722D01*
X11010225Y-21015722D02*
X11010225Y-21034770D01*
X11010225Y-21034770D02*
X11000701Y-21063341D01*
X11000701Y-21063341D02*
X10886415Y-21177627D01*
X10886415Y-21177627D02*
X11010225Y-21177627D01*
X11248320Y-21177627D02*
X11248320Y-20977627D01*
X11334034Y-21177627D02*
X11334034Y-21072865D01*
X11334034Y-21072865D02*
X11324510Y-21053817D01*
X11324510Y-21053817D02*
X11305463Y-21044293D01*
X11305463Y-21044293D02*
X11276891Y-21044293D01*
X11276891Y-21044293D02*
X11257844Y-21053817D01*
X11257844Y-21053817D02*
X11248320Y-21063341D01*
X11457844Y-21177627D02*
X11438796Y-21168103D01*
X11438796Y-21168103D02*
X11429272Y-21158579D01*
X11429272Y-21158579D02*
X11419749Y-21139532D01*
X11419749Y-21139532D02*
X11419749Y-21082389D01*
X11419749Y-21082389D02*
X11429272Y-21063341D01*
X11429272Y-21063341D02*
X11438796Y-21053817D01*
X11438796Y-21053817D02*
X11457844Y-21044293D01*
X11457844Y-21044293D02*
X11486415Y-21044293D01*
X11486415Y-21044293D02*
X11505463Y-21053817D01*
X11505463Y-21053817D02*
X11514987Y-21063341D01*
X11514987Y-21063341D02*
X11524510Y-21082389D01*
X11524510Y-21082389D02*
X11524510Y-21139532D01*
X11524510Y-21139532D02*
X11514987Y-21158579D01*
X11514987Y-21158579D02*
X11505463Y-21168103D01*
X11505463Y-21168103D02*
X11486415Y-21177627D01*
X11486415Y-21177627D02*
X11457844Y-21177627D01*
X11638796Y-21177627D02*
X11619749Y-21168103D01*
X11619749Y-21168103D02*
X11610225Y-21149055D01*
X11610225Y-21149055D02*
X11610225Y-20977627D01*
X11791177Y-21168103D02*
X11772130Y-21177627D01*
X11772130Y-21177627D02*
X11734034Y-21177627D01*
X11734034Y-21177627D02*
X11714987Y-21168103D01*
X11714987Y-21168103D02*
X11705463Y-21149055D01*
X11705463Y-21149055D02*
X11705463Y-21072865D01*
X11705463Y-21072865D02*
X11714987Y-21053817D01*
X11714987Y-21053817D02*
X11734034Y-21044293D01*
X11734034Y-21044293D02*
X11772130Y-21044293D01*
X11772130Y-21044293D02*
X11791177Y-21053817D01*
X11791177Y-21053817D02*
X11800701Y-21072865D01*
X11800701Y-21072865D02*
X11800701Y-21091913D01*
X11800701Y-21091913D02*
X11705463Y-21110960D01*
X11876891Y-21168103D02*
X11895939Y-21177627D01*
X11895939Y-21177627D02*
X11934034Y-21177627D01*
X11934034Y-21177627D02*
X11953082Y-21168103D01*
X11953082Y-21168103D02*
X11962606Y-21149055D01*
X11962606Y-21149055D02*
X11962606Y-21139532D01*
X11962606Y-21139532D02*
X11953082Y-21120484D01*
X11953082Y-21120484D02*
X11934034Y-21110960D01*
X11934034Y-21110960D02*
X11905463Y-21110960D01*
X11905463Y-21110960D02*
X11886415Y-21101436D01*
X11886415Y-21101436D02*
X11876891Y-21082389D01*
X11876891Y-21082389D02*
X11876891Y-21072865D01*
X11876891Y-21072865D02*
X11886415Y-21053817D01*
X11886415Y-21053817D02*
X11905463Y-21044293D01*
X11905463Y-21044293D02*
X11934034Y-21044293D01*
X11934034Y-21044293D02*
X11953082Y-21053817D01*
X12029272Y-21253817D02*
X12038796Y-21244293D01*
X12038796Y-21244293D02*
X12057844Y-21215722D01*
X12057844Y-21215722D02*
X12067368Y-21196674D01*
X12067368Y-21196674D02*
X12076891Y-21168103D01*
X12076891Y-21168103D02*
X12086415Y-21120484D01*
X12086415Y-21120484D02*
X12086415Y-21082389D01*
X12086415Y-21082389D02*
X12076891Y-21034770D01*
X12076891Y-21034770D02*
X12067368Y-21006198D01*
X12067368Y-21006198D02*
X12057844Y-20987151D01*
X12057844Y-20987151D02*
X12038796Y-20958579D01*
X12038796Y-20958579D02*
X12029272Y-20949055D01*
X12391177Y-21253817D02*
X12381653Y-21244293D01*
X12381653Y-21244293D02*
X12362606Y-21215722D01*
X12362606Y-21215722D02*
X12353082Y-21196674D01*
X12353082Y-21196674D02*
X12343558Y-21168103D01*
X12343558Y-21168103D02*
X12334034Y-21120484D01*
X12334034Y-21120484D02*
X12334034Y-21082389D01*
X12334034Y-21082389D02*
X12343558Y-21034770D01*
X12343558Y-21034770D02*
X12353082Y-21006198D01*
X12353082Y-21006198D02*
X12362606Y-20987151D01*
X12362606Y-20987151D02*
X12381653Y-20958579D01*
X12381653Y-20958579D02*
X12391177Y-20949055D01*
X12467368Y-21044293D02*
X12467368Y-21177627D01*
X12467368Y-21063341D02*
X12476891Y-21053817D01*
X12476891Y-21053817D02*
X12495939Y-21044293D01*
X12495939Y-21044293D02*
X12524511Y-21044293D01*
X12524511Y-21044293D02*
X12543558Y-21053817D01*
X12543558Y-21053817D02*
X12553082Y-21072865D01*
X12553082Y-21072865D02*
X12553082Y-21177627D01*
X12676891Y-21177627D02*
X12657844Y-21168103D01*
X12657844Y-21168103D02*
X12648320Y-21158579D01*
X12648320Y-21158579D02*
X12638796Y-21139532D01*
X12638796Y-21139532D02*
X12638796Y-21082389D01*
X12638796Y-21082389D02*
X12648320Y-21063341D01*
X12648320Y-21063341D02*
X12657844Y-21053817D01*
X12657844Y-21053817D02*
X12676891Y-21044293D01*
X12676891Y-21044293D02*
X12705463Y-21044293D01*
X12705463Y-21044293D02*
X12724511Y-21053817D01*
X12724511Y-21053817D02*
X12734034Y-21063341D01*
X12734034Y-21063341D02*
X12743558Y-21082389D01*
X12743558Y-21082389D02*
X12743558Y-21139532D01*
X12743558Y-21139532D02*
X12734034Y-21158579D01*
X12734034Y-21158579D02*
X12724511Y-21168103D01*
X12724511Y-21168103D02*
X12705463Y-21177627D01*
X12705463Y-21177627D02*
X12676891Y-21177627D01*
X12800701Y-21044293D02*
X12876891Y-21044293D01*
X12829272Y-20977627D02*
X12829272Y-21149055D01*
X12829272Y-21149055D02*
X12838796Y-21168103D01*
X12838796Y-21168103D02*
X12857844Y-21177627D01*
X12857844Y-21177627D02*
X12876891Y-21177627D01*
X13095939Y-21044293D02*
X13095939Y-21244293D01*
X13095939Y-21053817D02*
X13114987Y-21044293D01*
X13114987Y-21044293D02*
X13153082Y-21044293D01*
X13153082Y-21044293D02*
X13172130Y-21053817D01*
X13172130Y-21053817D02*
X13181653Y-21063341D01*
X13181653Y-21063341D02*
X13191177Y-21082389D01*
X13191177Y-21082389D02*
X13191177Y-21139532D01*
X13191177Y-21139532D02*
X13181653Y-21158579D01*
X13181653Y-21158579D02*
X13172130Y-21168103D01*
X13172130Y-21168103D02*
X13153082Y-21177627D01*
X13153082Y-21177627D02*
X13114987Y-21177627D01*
X13114987Y-21177627D02*
X13095939Y-21168103D01*
X13305463Y-21177627D02*
X13286415Y-21168103D01*
X13286415Y-21168103D02*
X13276892Y-21149055D01*
X13276892Y-21149055D02*
X13276892Y-20977627D01*
X13467368Y-21177627D02*
X13467368Y-21072865D01*
X13467368Y-21072865D02*
X13457844Y-21053817D01*
X13457844Y-21053817D02*
X13438796Y-21044293D01*
X13438796Y-21044293D02*
X13400701Y-21044293D01*
X13400701Y-21044293D02*
X13381653Y-21053817D01*
X13467368Y-21168103D02*
X13448320Y-21177627D01*
X13448320Y-21177627D02*
X13400701Y-21177627D01*
X13400701Y-21177627D02*
X13381653Y-21168103D01*
X13381653Y-21168103D02*
X13372130Y-21149055D01*
X13372130Y-21149055D02*
X13372130Y-21130008D01*
X13372130Y-21130008D02*
X13381653Y-21110960D01*
X13381653Y-21110960D02*
X13400701Y-21101436D01*
X13400701Y-21101436D02*
X13448320Y-21101436D01*
X13448320Y-21101436D02*
X13467368Y-21091913D01*
X13534034Y-21044293D02*
X13610225Y-21044293D01*
X13562606Y-20977627D02*
X13562606Y-21149055D01*
X13562606Y-21149055D02*
X13572130Y-21168103D01*
X13572130Y-21168103D02*
X13591177Y-21177627D01*
X13591177Y-21177627D02*
X13610225Y-21177627D01*
X13753082Y-21168103D02*
X13734034Y-21177627D01*
X13734034Y-21177627D02*
X13695939Y-21177627D01*
X13695939Y-21177627D02*
X13676892Y-21168103D01*
X13676892Y-21168103D02*
X13667368Y-21149055D01*
X13667368Y-21149055D02*
X13667368Y-21072865D01*
X13667368Y-21072865D02*
X13676892Y-21053817D01*
X13676892Y-21053817D02*
X13695939Y-21044293D01*
X13695939Y-21044293D02*
X13734034Y-21044293D01*
X13734034Y-21044293D02*
X13753082Y-21053817D01*
X13753082Y-21053817D02*
X13762606Y-21072865D01*
X13762606Y-21072865D02*
X13762606Y-21091913D01*
X13762606Y-21091913D02*
X13667368Y-21110960D01*
X13934034Y-21177627D02*
X13934034Y-20977627D01*
X13934034Y-21168103D02*
X13914987Y-21177627D01*
X13914987Y-21177627D02*
X13876892Y-21177627D01*
X13876892Y-21177627D02*
X13857844Y-21168103D01*
X13857844Y-21168103D02*
X13848320Y-21158579D01*
X13848320Y-21158579D02*
X13838796Y-21139532D01*
X13838796Y-21139532D02*
X13838796Y-21082389D01*
X13838796Y-21082389D02*
X13848320Y-21063341D01*
X13848320Y-21063341D02*
X13857844Y-21053817D01*
X13857844Y-21053817D02*
X13876892Y-21044293D01*
X13876892Y-21044293D02*
X13914987Y-21044293D01*
X13914987Y-21044293D02*
X13934034Y-21053817D01*
X14010225Y-21253817D02*
X14019749Y-21244293D01*
X14019749Y-21244293D02*
X14038796Y-21215722D01*
X14038796Y-21215722D02*
X14048320Y-21196674D01*
X14048320Y-21196674D02*
X14057844Y-21168103D01*
X14057844Y-21168103D02*
X14067368Y-21120484D01*
X14067368Y-21120484D02*
X14067368Y-21082389D01*
X14067368Y-21082389D02*
X14057844Y-21034770D01*
X14057844Y-21034770D02*
X14048320Y-21006198D01*
X14048320Y-21006198D02*
X14038796Y-20987151D01*
X14038796Y-20987151D02*
X14019749Y-20958579D01*
X14019749Y-20958579D02*
X14010225Y-20949055D01*
X6963733Y-21506143D02*
X7063733Y-21406143D01*
X6963733Y-21306143D01*
X6863733Y-21406143D01*
X6963733Y-21506143D01*
X7305462Y-21297627D02*
X7429272Y-21297627D01*
X7429272Y-21297627D02*
X7362605Y-21373817D01*
X7362605Y-21373817D02*
X7391177Y-21373817D01*
X7391177Y-21373817D02*
X7410224Y-21383341D01*
X7410224Y-21383341D02*
X7419748Y-21392865D01*
X7419748Y-21392865D02*
X7429272Y-21411913D01*
X7429272Y-21411913D02*
X7429272Y-21459532D01*
X7429272Y-21459532D02*
X7419748Y-21478579D01*
X7419748Y-21478579D02*
X7410224Y-21488103D01*
X7410224Y-21488103D02*
X7391177Y-21497627D01*
X7391177Y-21497627D02*
X7334034Y-21497627D01*
X7334034Y-21497627D02*
X7314986Y-21488103D01*
X7314986Y-21488103D02*
X7305462Y-21478579D01*
X7514986Y-21478579D02*
X7524510Y-21488103D01*
X7524510Y-21488103D02*
X7514986Y-21497627D01*
X7514986Y-21497627D02*
X7505462Y-21488103D01*
X7505462Y-21488103D02*
X7514986Y-21478579D01*
X7514986Y-21478579D02*
X7514986Y-21497627D01*
X7619748Y-21497627D02*
X7657843Y-21497627D01*
X7657843Y-21497627D02*
X7676891Y-21488103D01*
X7676891Y-21488103D02*
X7686415Y-21478579D01*
X7686415Y-21478579D02*
X7705462Y-21450008D01*
X7705462Y-21450008D02*
X7714986Y-21411913D01*
X7714986Y-21411913D02*
X7714986Y-21335722D01*
X7714986Y-21335722D02*
X7705462Y-21316674D01*
X7705462Y-21316674D02*
X7695939Y-21307151D01*
X7695939Y-21307151D02*
X7676891Y-21297627D01*
X7676891Y-21297627D02*
X7638796Y-21297627D01*
X7638796Y-21297627D02*
X7619748Y-21307151D01*
X7619748Y-21307151D02*
X7610224Y-21316674D01*
X7610224Y-21316674D02*
X7600701Y-21335722D01*
X7600701Y-21335722D02*
X7600701Y-21383341D01*
X7600701Y-21383341D02*
X7610224Y-21402389D01*
X7610224Y-21402389D02*
X7619748Y-21411913D01*
X7619748Y-21411913D02*
X7638796Y-21421436D01*
X7638796Y-21421436D02*
X7676891Y-21421436D01*
X7676891Y-21421436D02*
X7695939Y-21411913D01*
X7695939Y-21411913D02*
X7705462Y-21402389D01*
X7705462Y-21402389D02*
X7714986Y-21383341D01*
X7829272Y-21383341D02*
X7810224Y-21373817D01*
X7810224Y-21373817D02*
X7800701Y-21364293D01*
X7800701Y-21364293D02*
X7791177Y-21345246D01*
X7791177Y-21345246D02*
X7791177Y-21335722D01*
X7791177Y-21335722D02*
X7800701Y-21316674D01*
X7800701Y-21316674D02*
X7810224Y-21307151D01*
X7810224Y-21307151D02*
X7829272Y-21297627D01*
X7829272Y-21297627D02*
X7867367Y-21297627D01*
X7867367Y-21297627D02*
X7886415Y-21307151D01*
X7886415Y-21307151D02*
X7895939Y-21316674D01*
X7895939Y-21316674D02*
X7905462Y-21335722D01*
X7905462Y-21335722D02*
X7905462Y-21345246D01*
X7905462Y-21345246D02*
X7895939Y-21364293D01*
X7895939Y-21364293D02*
X7886415Y-21373817D01*
X7886415Y-21373817D02*
X7867367Y-21383341D01*
X7867367Y-21383341D02*
X7829272Y-21383341D01*
X7829272Y-21383341D02*
X7810224Y-21392865D01*
X7810224Y-21392865D02*
X7800701Y-21402389D01*
X7800701Y-21402389D02*
X7791177Y-21421436D01*
X7791177Y-21421436D02*
X7791177Y-21459532D01*
X7791177Y-21459532D02*
X7800701Y-21478579D01*
X7800701Y-21478579D02*
X7810224Y-21488103D01*
X7810224Y-21488103D02*
X7829272Y-21497627D01*
X7829272Y-21497627D02*
X7867367Y-21497627D01*
X7867367Y-21497627D02*
X7886415Y-21488103D01*
X7886415Y-21488103D02*
X7895939Y-21478579D01*
X7895939Y-21478579D02*
X7905462Y-21459532D01*
X7905462Y-21459532D02*
X7905462Y-21421436D01*
X7905462Y-21421436D02*
X7895939Y-21402389D01*
X7895939Y-21402389D02*
X7886415Y-21392865D01*
X7886415Y-21392865D02*
X7867367Y-21383341D01*
X8019748Y-21383341D02*
X8000701Y-21373817D01*
X8000701Y-21373817D02*
X7991177Y-21364293D01*
X7991177Y-21364293D02*
X7981653Y-21345246D01*
X7981653Y-21345246D02*
X7981653Y-21335722D01*
X7981653Y-21335722D02*
X7991177Y-21316674D01*
X7991177Y-21316674D02*
X8000701Y-21307151D01*
X8000701Y-21307151D02*
X8019748Y-21297627D01*
X8019748Y-21297627D02*
X8057843Y-21297627D01*
X8057843Y-21297627D02*
X8076891Y-21307151D01*
X8076891Y-21307151D02*
X8086415Y-21316674D01*
X8086415Y-21316674D02*
X8095939Y-21335722D01*
X8095939Y-21335722D02*
X8095939Y-21345246D01*
X8095939Y-21345246D02*
X8086415Y-21364293D01*
X8086415Y-21364293D02*
X8076891Y-21373817D01*
X8076891Y-21373817D02*
X8057843Y-21383341D01*
X8057843Y-21383341D02*
X8019748Y-21383341D01*
X8019748Y-21383341D02*
X8000701Y-21392865D01*
X8000701Y-21392865D02*
X7991177Y-21402389D01*
X7991177Y-21402389D02*
X7981653Y-21421436D01*
X7981653Y-21421436D02*
X7981653Y-21459532D01*
X7981653Y-21459532D02*
X7991177Y-21478579D01*
X7991177Y-21478579D02*
X8000701Y-21488103D01*
X8000701Y-21488103D02*
X8019748Y-21497627D01*
X8019748Y-21497627D02*
X8057843Y-21497627D01*
X8057843Y-21497627D02*
X8076891Y-21488103D01*
X8076891Y-21488103D02*
X8086415Y-21478579D01*
X8086415Y-21478579D02*
X8095939Y-21459532D01*
X8095939Y-21459532D02*
X8095939Y-21421436D01*
X8095939Y-21421436D02*
X8086415Y-21402389D01*
X8086415Y-21402389D02*
X8076891Y-21392865D01*
X8076891Y-21392865D02*
X8057843Y-21383341D01*
X8181653Y-21497627D02*
X8181653Y-21364293D01*
X8181653Y-21383341D02*
X8191177Y-21373817D01*
X8191177Y-21373817D02*
X8210224Y-21364293D01*
X8210224Y-21364293D02*
X8238796Y-21364293D01*
X8238796Y-21364293D02*
X8257843Y-21373817D01*
X8257843Y-21373817D02*
X8267367Y-21392865D01*
X8267367Y-21392865D02*
X8267367Y-21497627D01*
X8267367Y-21392865D02*
X8276891Y-21373817D01*
X8276891Y-21373817D02*
X8295939Y-21364293D01*
X8295939Y-21364293D02*
X8324510Y-21364293D01*
X8324510Y-21364293D02*
X8343558Y-21373817D01*
X8343558Y-21373817D02*
X8353082Y-21392865D01*
X8353082Y-21392865D02*
X8353082Y-21497627D01*
X8448320Y-21497627D02*
X8448320Y-21364293D01*
X8448320Y-21383341D02*
X8457844Y-21373817D01*
X8457844Y-21373817D02*
X8476891Y-21364293D01*
X8476891Y-21364293D02*
X8505463Y-21364293D01*
X8505463Y-21364293D02*
X8524510Y-21373817D01*
X8524510Y-21373817D02*
X8534034Y-21392865D01*
X8534034Y-21392865D02*
X8534034Y-21497627D01*
X8534034Y-21392865D02*
X8543558Y-21373817D01*
X8543558Y-21373817D02*
X8562605Y-21364293D01*
X8562605Y-21364293D02*
X8591177Y-21364293D01*
X8591177Y-21364293D02*
X8610225Y-21373817D01*
X8610225Y-21373817D02*
X8619748Y-21392865D01*
X8619748Y-21392865D02*
X8619748Y-21497627D01*
X9010225Y-21288103D02*
X8838796Y-21545246D01*
X9267367Y-21297627D02*
X9286415Y-21297627D01*
X9286415Y-21297627D02*
X9305463Y-21307151D01*
X9305463Y-21307151D02*
X9314987Y-21316674D01*
X9314987Y-21316674D02*
X9324510Y-21335722D01*
X9324510Y-21335722D02*
X9334034Y-21373817D01*
X9334034Y-21373817D02*
X9334034Y-21421436D01*
X9334034Y-21421436D02*
X9324510Y-21459532D01*
X9324510Y-21459532D02*
X9314987Y-21478579D01*
X9314987Y-21478579D02*
X9305463Y-21488103D01*
X9305463Y-21488103D02*
X9286415Y-21497627D01*
X9286415Y-21497627D02*
X9267367Y-21497627D01*
X9267367Y-21497627D02*
X9248320Y-21488103D01*
X9248320Y-21488103D02*
X9238796Y-21478579D01*
X9238796Y-21478579D02*
X9229272Y-21459532D01*
X9229272Y-21459532D02*
X9219748Y-21421436D01*
X9219748Y-21421436D02*
X9219748Y-21373817D01*
X9219748Y-21373817D02*
X9229272Y-21335722D01*
X9229272Y-21335722D02*
X9238796Y-21316674D01*
X9238796Y-21316674D02*
X9248320Y-21307151D01*
X9248320Y-21307151D02*
X9267367Y-21297627D01*
X9419748Y-21478579D02*
X9429272Y-21488103D01*
X9429272Y-21488103D02*
X9419748Y-21497627D01*
X9419748Y-21497627D02*
X9410225Y-21488103D01*
X9410225Y-21488103D02*
X9419748Y-21478579D01*
X9419748Y-21478579D02*
X9419748Y-21497627D01*
X9619748Y-21497627D02*
X9505463Y-21497627D01*
X9562606Y-21497627D02*
X9562606Y-21297627D01*
X9562606Y-21297627D02*
X9543558Y-21326198D01*
X9543558Y-21326198D02*
X9524510Y-21345246D01*
X9524510Y-21345246D02*
X9505463Y-21354770D01*
X9800701Y-21297627D02*
X9705463Y-21297627D01*
X9705463Y-21297627D02*
X9695939Y-21392865D01*
X9695939Y-21392865D02*
X9705463Y-21383341D01*
X9705463Y-21383341D02*
X9724510Y-21373817D01*
X9724510Y-21373817D02*
X9772129Y-21373817D01*
X9772129Y-21373817D02*
X9791177Y-21383341D01*
X9791177Y-21383341D02*
X9800701Y-21392865D01*
X9800701Y-21392865D02*
X9810225Y-21411913D01*
X9810225Y-21411913D02*
X9810225Y-21459532D01*
X9810225Y-21459532D02*
X9800701Y-21478579D01*
X9800701Y-21478579D02*
X9791177Y-21488103D01*
X9791177Y-21488103D02*
X9772129Y-21497627D01*
X9772129Y-21497627D02*
X9724510Y-21497627D01*
X9724510Y-21497627D02*
X9705463Y-21488103D01*
X9705463Y-21488103D02*
X9695939Y-21478579D01*
X9876891Y-21297627D02*
X10010225Y-21297627D01*
X10010225Y-21297627D02*
X9924510Y-21497627D01*
X10124510Y-21297627D02*
X10143558Y-21297627D01*
X10143558Y-21297627D02*
X10162606Y-21307151D01*
X10162606Y-21307151D02*
X10172129Y-21316674D01*
X10172129Y-21316674D02*
X10181653Y-21335722D01*
X10181653Y-21335722D02*
X10191177Y-21373817D01*
X10191177Y-21373817D02*
X10191177Y-21421436D01*
X10191177Y-21421436D02*
X10181653Y-21459532D01*
X10181653Y-21459532D02*
X10172129Y-21478579D01*
X10172129Y-21478579D02*
X10162606Y-21488103D01*
X10162606Y-21488103D02*
X10143558Y-21497627D01*
X10143558Y-21497627D02*
X10124510Y-21497627D01*
X10124510Y-21497627D02*
X10105463Y-21488103D01*
X10105463Y-21488103D02*
X10095939Y-21478579D01*
X10095939Y-21478579D02*
X10086415Y-21459532D01*
X10086415Y-21459532D02*
X10076891Y-21421436D01*
X10076891Y-21421436D02*
X10076891Y-21373817D01*
X10076891Y-21373817D02*
X10086415Y-21335722D01*
X10086415Y-21335722D02*
X10095939Y-21316674D01*
X10095939Y-21316674D02*
X10105463Y-21307151D01*
X10105463Y-21307151D02*
X10124510Y-21297627D01*
X10267368Y-21297627D02*
X10267368Y-21335722D01*
X10343558Y-21297627D02*
X10343558Y-21335722D01*
X10638796Y-21573817D02*
X10629272Y-21564293D01*
X10629272Y-21564293D02*
X10610225Y-21535722D01*
X10610225Y-21535722D02*
X10600701Y-21516674D01*
X10600701Y-21516674D02*
X10591177Y-21488103D01*
X10591177Y-21488103D02*
X10581653Y-21440484D01*
X10581653Y-21440484D02*
X10581653Y-21402389D01*
X10581653Y-21402389D02*
X10591177Y-21354770D01*
X10591177Y-21354770D02*
X10600701Y-21326198D01*
X10600701Y-21326198D02*
X10610225Y-21307151D01*
X10610225Y-21307151D02*
X10629272Y-21278579D01*
X10629272Y-21278579D02*
X10638796Y-21269055D01*
X10810225Y-21297627D02*
X10714987Y-21297627D01*
X10714987Y-21297627D02*
X10705463Y-21392865D01*
X10705463Y-21392865D02*
X10714987Y-21383341D01*
X10714987Y-21383341D02*
X10734034Y-21373817D01*
X10734034Y-21373817D02*
X10781653Y-21373817D01*
X10781653Y-21373817D02*
X10800701Y-21383341D01*
X10800701Y-21383341D02*
X10810225Y-21392865D01*
X10810225Y-21392865D02*
X10819749Y-21411913D01*
X10819749Y-21411913D02*
X10819749Y-21459532D01*
X10819749Y-21459532D02*
X10810225Y-21478579D01*
X10810225Y-21478579D02*
X10800701Y-21488103D01*
X10800701Y-21488103D02*
X10781653Y-21497627D01*
X10781653Y-21497627D02*
X10734034Y-21497627D01*
X10734034Y-21497627D02*
X10714987Y-21488103D01*
X10714987Y-21488103D02*
X10705463Y-21478579D01*
X10895939Y-21316674D02*
X10905463Y-21307151D01*
X10905463Y-21307151D02*
X10924510Y-21297627D01*
X10924510Y-21297627D02*
X10972130Y-21297627D01*
X10972130Y-21297627D02*
X10991177Y-21307151D01*
X10991177Y-21307151D02*
X11000701Y-21316674D01*
X11000701Y-21316674D02*
X11010225Y-21335722D01*
X11010225Y-21335722D02*
X11010225Y-21354770D01*
X11010225Y-21354770D02*
X11000701Y-21383341D01*
X11000701Y-21383341D02*
X10886415Y-21497627D01*
X10886415Y-21497627D02*
X11010225Y-21497627D01*
X11248320Y-21497627D02*
X11248320Y-21297627D01*
X11334034Y-21497627D02*
X11334034Y-21392865D01*
X11334034Y-21392865D02*
X11324510Y-21373817D01*
X11324510Y-21373817D02*
X11305463Y-21364293D01*
X11305463Y-21364293D02*
X11276891Y-21364293D01*
X11276891Y-21364293D02*
X11257844Y-21373817D01*
X11257844Y-21373817D02*
X11248320Y-21383341D01*
X11457844Y-21497627D02*
X11438796Y-21488103D01*
X11438796Y-21488103D02*
X11429272Y-21478579D01*
X11429272Y-21478579D02*
X11419749Y-21459532D01*
X11419749Y-21459532D02*
X11419749Y-21402389D01*
X11419749Y-21402389D02*
X11429272Y-21383341D01*
X11429272Y-21383341D02*
X11438796Y-21373817D01*
X11438796Y-21373817D02*
X11457844Y-21364293D01*
X11457844Y-21364293D02*
X11486415Y-21364293D01*
X11486415Y-21364293D02*
X11505463Y-21373817D01*
X11505463Y-21373817D02*
X11514987Y-21383341D01*
X11514987Y-21383341D02*
X11524510Y-21402389D01*
X11524510Y-21402389D02*
X11524510Y-21459532D01*
X11524510Y-21459532D02*
X11514987Y-21478579D01*
X11514987Y-21478579D02*
X11505463Y-21488103D01*
X11505463Y-21488103D02*
X11486415Y-21497627D01*
X11486415Y-21497627D02*
X11457844Y-21497627D01*
X11638796Y-21497627D02*
X11619749Y-21488103D01*
X11619749Y-21488103D02*
X11610225Y-21469055D01*
X11610225Y-21469055D02*
X11610225Y-21297627D01*
X11791177Y-21488103D02*
X11772130Y-21497627D01*
X11772130Y-21497627D02*
X11734034Y-21497627D01*
X11734034Y-21497627D02*
X11714987Y-21488103D01*
X11714987Y-21488103D02*
X11705463Y-21469055D01*
X11705463Y-21469055D02*
X11705463Y-21392865D01*
X11705463Y-21392865D02*
X11714987Y-21373817D01*
X11714987Y-21373817D02*
X11734034Y-21364293D01*
X11734034Y-21364293D02*
X11772130Y-21364293D01*
X11772130Y-21364293D02*
X11791177Y-21373817D01*
X11791177Y-21373817D02*
X11800701Y-21392865D01*
X11800701Y-21392865D02*
X11800701Y-21411913D01*
X11800701Y-21411913D02*
X11705463Y-21430960D01*
X11876891Y-21488103D02*
X11895939Y-21497627D01*
X11895939Y-21497627D02*
X11934034Y-21497627D01*
X11934034Y-21497627D02*
X11953082Y-21488103D01*
X11953082Y-21488103D02*
X11962606Y-21469055D01*
X11962606Y-21469055D02*
X11962606Y-21459532D01*
X11962606Y-21459532D02*
X11953082Y-21440484D01*
X11953082Y-21440484D02*
X11934034Y-21430960D01*
X11934034Y-21430960D02*
X11905463Y-21430960D01*
X11905463Y-21430960D02*
X11886415Y-21421436D01*
X11886415Y-21421436D02*
X11876891Y-21402389D01*
X11876891Y-21402389D02*
X11876891Y-21392865D01*
X11876891Y-21392865D02*
X11886415Y-21373817D01*
X11886415Y-21373817D02*
X11905463Y-21364293D01*
X11905463Y-21364293D02*
X11934034Y-21364293D01*
X11934034Y-21364293D02*
X11953082Y-21373817D01*
X12029272Y-21573817D02*
X12038796Y-21564293D01*
X12038796Y-21564293D02*
X12057844Y-21535722D01*
X12057844Y-21535722D02*
X12067368Y-21516674D01*
X12067368Y-21516674D02*
X12076891Y-21488103D01*
X12076891Y-21488103D02*
X12086415Y-21440484D01*
X12086415Y-21440484D02*
X12086415Y-21402389D01*
X12086415Y-21402389D02*
X12076891Y-21354770D01*
X12076891Y-21354770D02*
X12067368Y-21326198D01*
X12067368Y-21326198D02*
X12057844Y-21307151D01*
X12057844Y-21307151D02*
X12038796Y-21278579D01*
X12038796Y-21278579D02*
X12029272Y-21269055D01*
X12391177Y-21573817D02*
X12381653Y-21564293D01*
X12381653Y-21564293D02*
X12362606Y-21535722D01*
X12362606Y-21535722D02*
X12353082Y-21516674D01*
X12353082Y-21516674D02*
X12343558Y-21488103D01*
X12343558Y-21488103D02*
X12334034Y-21440484D01*
X12334034Y-21440484D02*
X12334034Y-21402389D01*
X12334034Y-21402389D02*
X12343558Y-21354770D01*
X12343558Y-21354770D02*
X12353082Y-21326198D01*
X12353082Y-21326198D02*
X12362606Y-21307151D01*
X12362606Y-21307151D02*
X12381653Y-21278579D01*
X12381653Y-21278579D02*
X12391177Y-21269055D01*
X12467368Y-21364293D02*
X12467368Y-21497627D01*
X12467368Y-21383341D02*
X12476891Y-21373817D01*
X12476891Y-21373817D02*
X12495939Y-21364293D01*
X12495939Y-21364293D02*
X12524511Y-21364293D01*
X12524511Y-21364293D02*
X12543558Y-21373817D01*
X12543558Y-21373817D02*
X12553082Y-21392865D01*
X12553082Y-21392865D02*
X12553082Y-21497627D01*
X12676891Y-21497627D02*
X12657844Y-21488103D01*
X12657844Y-21488103D02*
X12648320Y-21478579D01*
X12648320Y-21478579D02*
X12638796Y-21459532D01*
X12638796Y-21459532D02*
X12638796Y-21402389D01*
X12638796Y-21402389D02*
X12648320Y-21383341D01*
X12648320Y-21383341D02*
X12657844Y-21373817D01*
X12657844Y-21373817D02*
X12676891Y-21364293D01*
X12676891Y-21364293D02*
X12705463Y-21364293D01*
X12705463Y-21364293D02*
X12724511Y-21373817D01*
X12724511Y-21373817D02*
X12734034Y-21383341D01*
X12734034Y-21383341D02*
X12743558Y-21402389D01*
X12743558Y-21402389D02*
X12743558Y-21459532D01*
X12743558Y-21459532D02*
X12734034Y-21478579D01*
X12734034Y-21478579D02*
X12724511Y-21488103D01*
X12724511Y-21488103D02*
X12705463Y-21497627D01*
X12705463Y-21497627D02*
X12676891Y-21497627D01*
X12800701Y-21364293D02*
X12876891Y-21364293D01*
X12829272Y-21297627D02*
X12829272Y-21469055D01*
X12829272Y-21469055D02*
X12838796Y-21488103D01*
X12838796Y-21488103D02*
X12857844Y-21497627D01*
X12857844Y-21497627D02*
X12876891Y-21497627D01*
X13095939Y-21364293D02*
X13095939Y-21564293D01*
X13095939Y-21373817D02*
X13114987Y-21364293D01*
X13114987Y-21364293D02*
X13153082Y-21364293D01*
X13153082Y-21364293D02*
X13172130Y-21373817D01*
X13172130Y-21373817D02*
X13181653Y-21383341D01*
X13181653Y-21383341D02*
X13191177Y-21402389D01*
X13191177Y-21402389D02*
X13191177Y-21459532D01*
X13191177Y-21459532D02*
X13181653Y-21478579D01*
X13181653Y-21478579D02*
X13172130Y-21488103D01*
X13172130Y-21488103D02*
X13153082Y-21497627D01*
X13153082Y-21497627D02*
X13114987Y-21497627D01*
X13114987Y-21497627D02*
X13095939Y-21488103D01*
X13305463Y-21497627D02*
X13286415Y-21488103D01*
X13286415Y-21488103D02*
X13276892Y-21469055D01*
X13276892Y-21469055D02*
X13276892Y-21297627D01*
X13467368Y-21497627D02*
X13467368Y-21392865D01*
X13467368Y-21392865D02*
X13457844Y-21373817D01*
X13457844Y-21373817D02*
X13438796Y-21364293D01*
X13438796Y-21364293D02*
X13400701Y-21364293D01*
X13400701Y-21364293D02*
X13381653Y-21373817D01*
X13467368Y-21488103D02*
X13448320Y-21497627D01*
X13448320Y-21497627D02*
X13400701Y-21497627D01*
X13400701Y-21497627D02*
X13381653Y-21488103D01*
X13381653Y-21488103D02*
X13372130Y-21469055D01*
X13372130Y-21469055D02*
X13372130Y-21450008D01*
X13372130Y-21450008D02*
X13381653Y-21430960D01*
X13381653Y-21430960D02*
X13400701Y-21421436D01*
X13400701Y-21421436D02*
X13448320Y-21421436D01*
X13448320Y-21421436D02*
X13467368Y-21411913D01*
X13534034Y-21364293D02*
X13610225Y-21364293D01*
X13562606Y-21297627D02*
X13562606Y-21469055D01*
X13562606Y-21469055D02*
X13572130Y-21488103D01*
X13572130Y-21488103D02*
X13591177Y-21497627D01*
X13591177Y-21497627D02*
X13610225Y-21497627D01*
X13753082Y-21488103D02*
X13734034Y-21497627D01*
X13734034Y-21497627D02*
X13695939Y-21497627D01*
X13695939Y-21497627D02*
X13676892Y-21488103D01*
X13676892Y-21488103D02*
X13667368Y-21469055D01*
X13667368Y-21469055D02*
X13667368Y-21392865D01*
X13667368Y-21392865D02*
X13676892Y-21373817D01*
X13676892Y-21373817D02*
X13695939Y-21364293D01*
X13695939Y-21364293D02*
X13734034Y-21364293D01*
X13734034Y-21364293D02*
X13753082Y-21373817D01*
X13753082Y-21373817D02*
X13762606Y-21392865D01*
X13762606Y-21392865D02*
X13762606Y-21411913D01*
X13762606Y-21411913D02*
X13667368Y-21430960D01*
X13934034Y-21497627D02*
X13934034Y-21297627D01*
X13934034Y-21488103D02*
X13914987Y-21497627D01*
X13914987Y-21497627D02*
X13876892Y-21497627D01*
X13876892Y-21497627D02*
X13857844Y-21488103D01*
X13857844Y-21488103D02*
X13848320Y-21478579D01*
X13848320Y-21478579D02*
X13838796Y-21459532D01*
X13838796Y-21459532D02*
X13838796Y-21402389D01*
X13838796Y-21402389D02*
X13848320Y-21383341D01*
X13848320Y-21383341D02*
X13857844Y-21373817D01*
X13857844Y-21373817D02*
X13876892Y-21364293D01*
X13876892Y-21364293D02*
X13914987Y-21364293D01*
X13914987Y-21364293D02*
X13934034Y-21373817D01*
X14010225Y-21573817D02*
X14019749Y-21564293D01*
X14019749Y-21564293D02*
X14038796Y-21535722D01*
X14038796Y-21535722D02*
X14048320Y-21516674D01*
X14048320Y-21516674D02*
X14057844Y-21488103D01*
X14057844Y-21488103D02*
X14067368Y-21440484D01*
X14067368Y-21440484D02*
X14067368Y-21402389D01*
X14067368Y-21402389D02*
X14057844Y-21354770D01*
X14057844Y-21354770D02*
X14048320Y-21326198D01*
X14048320Y-21326198D02*
X14038796Y-21307151D01*
X14038796Y-21307151D02*
X14019749Y-21278579D01*
X14019749Y-21278579D02*
X14010225Y-21269055D01*
M02*
