%TF.GenerationSoftware,KiCad,Pcbnew,8.0.1*%
%TF.CreationDate,2024-04-17T22:25:28+02:00*%
%TF.ProjectId,shockboard,73686f63-6b62-46f6-9172-642e6b696361,v1.0.0*%
%TF.SameCoordinates,Original*%
%TF.FileFunction,Paste,Bot*%
%TF.FilePolarity,Positive*%
%FSLAX46Y46*%
G04 Gerber Fmt 4.6, Leading zero omitted, Abs format (unit mm)*
G04 Created by KiCad (PCBNEW 8.0.1) date 2024-04-17 22:25:28*
%MOMM*%
%LPD*%
G01*
G04 APERTURE LIST*
G04 Aperture macros list*
%AMRotRect*
0 Rectangle, with rotation*
0 The origin of the aperture is its center*
0 $1 length*
0 $2 width*
0 $3 Rotation angle, in degrees counterclockwise*
0 Add horizontal line*
21,1,$1,$2,0,0,$3*%
G04 Aperture macros list end*
%ADD10RotRect,2.550000X2.500000X8.000000*%
%ADD11RotRect,2.600000X2.600000X352.000000*%
%ADD12RotRect,0.900000X1.200000X352.000000*%
%ADD13RotRect,2.550000X2.500000X352.000000*%
%ADD14RotRect,0.900000X1.200000X8.000000*%
%ADD15RotRect,2.600000X2.600000X8.000000*%
%ADD16RotRect,0.900000X1.200000X323.000000*%
%ADD17RotRect,2.550000X2.500000X332.000000*%
%ADD18RotRect,2.600000X2.600000X332.000000*%
%ADD19RotRect,2.550000X2.500000X28.000000*%
%ADD20RotRect,2.550000X2.500000X323.000000*%
%ADD21RotRect,2.600000X2.600000X37.000000*%
%ADD22RotRect,2.550000X2.500000X37.000000*%
%ADD23RotRect,2.600000X2.600000X323.000000*%
%ADD24RotRect,0.900000X1.200000X28.000000*%
%ADD25RotRect,2.600000X2.600000X28.000000*%
%ADD26RotRect,0.900000X1.200000X37.000000*%
%ADD27RotRect,0.900000X1.200000X332.000000*%
G04 APERTURE END LIST*
D10*
X314763134Y-126744311D03*
X327210829Y-122429935D03*
D11*
X161199941Y-162497903D03*
X172331356Y-166283942D03*
D10*
X333578226Y-124100023D03*
X346025921Y-119785647D03*
D12*
X81060365Y-130053886D03*
X84328249Y-130513158D03*
D11*
X141901777Y-95030527D03*
X153033192Y-98816566D03*
D13*
X98145253Y-105957133D03*
X111299948Y-105240942D03*
D10*
X251846305Y-88629711D03*
X264294000Y-84315335D03*
D12*
X157503709Y-132213763D03*
X160771593Y-132673035D03*
D14*
X315864276Y-95527260D03*
X319132160Y-95067988D03*
D15*
X300429352Y-133898816D03*
X312173129Y-134469956D03*
D13*
X158417790Y-86657628D03*
X171572485Y-85941437D03*
D15*
X318061475Y-122837247D03*
X329805252Y-123408387D03*
X336876567Y-120192959D03*
X348620344Y-120764099D03*
D13*
X115777372Y-117018705D03*
X128932067Y-116302514D03*
D16*
X284757564Y-167639948D03*
X287393062Y-169625934D03*
D14*
X247562555Y-155617817D03*
X250830439Y-155158545D03*
D11*
X120024874Y-114172140D03*
X131156289Y-117958179D03*
D12*
X176110039Y-136343454D03*
X179377923Y-136802726D03*
X117507580Y-143759740D03*
X120775464Y-144219012D03*
D11*
X122669162Y-95357047D03*
X133800577Y-99143086D03*
X102392755Y-103110568D03*
X113524170Y-106896607D03*
D13*
X169091258Y-147232597D03*
X182245953Y-146516406D03*
D14*
X278999544Y-106262312D03*
X282267428Y-105803040D03*
D15*
X273263874Y-77127019D03*
X285007651Y-77698159D03*
D11*
X139257488Y-113845622D03*
X150388903Y-117631661D03*
D15*
X292496485Y-77453533D03*
X304240262Y-78024673D03*
D12*
X102519748Y-113883082D03*
X105787632Y-114342354D03*
D13*
X140298565Y-79062003D03*
X153453260Y-78345812D03*
D15*
X297785062Y-115083724D03*
X309528839Y-115654864D03*
D13*
X177024125Y-90787318D03*
X190178820Y-90071127D03*
X156952439Y-165344468D03*
X170107134Y-164628277D03*
D12*
X125440444Y-87314460D03*
X128708328Y-87773732D03*
X136740189Y-143433226D03*
X140008073Y-143892498D03*
D10*
X330933935Y-105284930D03*
X343381630Y-100970554D03*
D15*
X241826889Y-126482524D03*
X253570666Y-127053664D03*
D12*
X161326934Y-173270416D03*
X164594818Y-173729688D03*
D14*
X276355252Y-87447219D03*
X279623136Y-86987947D03*
D17*
X186641549Y-172807747D03*
X199247870Y-176633919D03*
D14*
X284288119Y-143892500D03*
X287556003Y-143433228D03*
D13*
X100789541Y-87142042D03*
X113944236Y-86425851D03*
D15*
X295140775Y-96268628D03*
X306884552Y-96839768D03*
D10*
X259779172Y-145074992D03*
X272226867Y-140760616D03*
X272609819Y-99849176D03*
X285057514Y-95534800D03*
X269965533Y-81034083D03*
X282413228Y-76719707D03*
D15*
X275908160Y-95942112D03*
X287651937Y-96513252D03*
X315417185Y-104022152D03*
X327160962Y-104593292D03*
D11*
X173338760Y-144386032D03*
X184470175Y-148172071D03*
D14*
X259701379Y-173729684D03*
X262969263Y-173270412D03*
D15*
X260433223Y-122352835D03*
X272177000Y-122923975D03*
D18*
X191606477Y-171585582D03*
X200771685Y-178950464D03*
D14*
X337323659Y-111698062D03*
X340591543Y-111238790D03*
X303520733Y-144219015D03*
X306788617Y-143759743D03*
D11*
X162665292Y-83811063D03*
X173796707Y-87597102D03*
D14*
X242273979Y-117987633D03*
X245541863Y-117528361D03*
D11*
X83577659Y-100466280D03*
X94709074Y-104252319D03*
D19*
X225143277Y-179460163D03*
X235364682Y-171148617D03*
D10*
X294486721Y-118990788D03*
X306934416Y-114676412D03*
D15*
X278552451Y-114757207D03*
X290296228Y-115328347D03*
X312772898Y-85207061D03*
X324516675Y-85778201D03*
D14*
X258236024Y-95042846D03*
X261503908Y-94583574D03*
D15*
X257788934Y-103537743D03*
X269532711Y-104108883D03*
X244471180Y-145297621D03*
X256214957Y-145868761D03*
D13*
X153129214Y-124287813D03*
X166283909Y-123571622D03*
D20*
X284774120Y-158586962D03*
X296626691Y-164338091D03*
D21*
X129196016Y-162098418D03*
X139744251Y-156904452D03*
D11*
X160021003Y-102626158D03*
X171152418Y-106412197D03*
D10*
X312118844Y-107929216D03*
X324566539Y-103614840D03*
D13*
X95500965Y-124772229D03*
X108655660Y-124056038D03*
D10*
X254490593Y-107444807D03*
X266938288Y-103130431D03*
X253311654Y-167316551D03*
X265759349Y-163002175D03*
D11*
X144546067Y-76215438D03*
X155677482Y-80001477D03*
D13*
X171735546Y-128417510D03*
X184890241Y-127701319D03*
D11*
X97104174Y-140740758D03*
X108235589Y-144526797D03*
D13*
X121065952Y-79388515D03*
X134220647Y-78672324D03*
D12*
X144673056Y-86987947D03*
X147940940Y-87447219D03*
X83704652Y-111238792D03*
X86972536Y-111698064D03*
D22*
X128205405Y-167114679D03*
X137000756Y-157306482D03*
D12*
X173465752Y-155158545D03*
X176733636Y-155617817D03*
D13*
X150484923Y-143102907D03*
X163639618Y-142386716D03*
D12*
X120151865Y-124944653D03*
X123419749Y-125403925D03*
X154859421Y-151028852D03*
X158127305Y-151488124D03*
X86348939Y-92423699D03*
X89616823Y-92882971D03*
D15*
X239182602Y-107667432D03*
X250926379Y-108238572D03*
X263077513Y-141167928D03*
X274821290Y-141739068D03*
D13*
X135009986Y-116692187D03*
X148164681Y-115975996D03*
D12*
X97231168Y-151513266D03*
X100499052Y-151972538D03*
D14*
X295587864Y-87773730D03*
X298855748Y-87314458D03*
D12*
X178754332Y-117528360D03*
X182022216Y-117987632D03*
D11*
X117380582Y-132987232D03*
X128511997Y-136773271D03*
D12*
X122796153Y-106129553D03*
X126064037Y-106588825D03*
D10*
X235884261Y-111574496D03*
X248331956Y-107260120D03*
D14*
X263524604Y-132673033D03*
X266792488Y-132213761D03*
D11*
X154732425Y-140256342D03*
X165863840Y-144042381D03*
D10*
X297131011Y-137805880D03*
X309578706Y-133491504D03*
D15*
X281196738Y-133572301D03*
X292940515Y-134143441D03*
D14*
X334679370Y-92882973D03*
X337947254Y-92423701D03*
X239629694Y-99172539D03*
X242897578Y-98713267D03*
D12*
X181398618Y-98713265D03*
X184666502Y-99172537D03*
D11*
X125313454Y-76541950D03*
X136444869Y-80327989D03*
D10*
X241172839Y-149204685D03*
X253620534Y-144890309D03*
X328289646Y-86469837D03*
X340737341Y-82155461D03*
D11*
X80933370Y-119281376D03*
X92064785Y-123067415D03*
D10*
X317407421Y-145559403D03*
X329855116Y-141245027D03*
D12*
X139384481Y-124618131D03*
X142652365Y-125077403D03*
D14*
X260880314Y-113857939D03*
X264148198Y-113398667D03*
D13*
X113133080Y-135833797D03*
X126287775Y-135117606D03*
D12*
X99875455Y-132698173D03*
X103143339Y-133157445D03*
D13*
X118421660Y-98203612D03*
X131576355Y-97487421D03*
D11*
X175983048Y-125570945D03*
X187114463Y-129356984D03*
D12*
X162792287Y-94583577D03*
X166060171Y-95042849D03*
D10*
X289198144Y-81360597D03*
X301645839Y-77046221D03*
D14*
X321152853Y-133157445D03*
X324420737Y-132698173D03*
D13*
X81974451Y-84497749D03*
X95129146Y-83781558D03*
X132365698Y-135507280D03*
X145520393Y-134791089D03*
D15*
X256609995Y-163409487D03*
X268353772Y-163980627D03*
D10*
X238528548Y-130389588D03*
X250976243Y-126075212D03*
D15*
X236538312Y-88852340D03*
X248282089Y-89423480D03*
D14*
X298232154Y-106588825D03*
X301500038Y-106129553D03*
D13*
X92856672Y-143587323D03*
X106011367Y-142871132D03*
D23*
X289869108Y-158156532D03*
X297769356Y-166864492D03*
D14*
X339967949Y-130513156D03*
X343235833Y-130053884D03*
D13*
X174379834Y-109602414D03*
X187534529Y-108886223D03*
D15*
X255144646Y-84722647D03*
X266888423Y-85293787D03*
D14*
X281643828Y-125077404D03*
X284911712Y-124618132D03*
X318508565Y-114342352D03*
X321776449Y-113883080D03*
D12*
X160147996Y-113398667D03*
X163415880Y-113857939D03*
D14*
X244918266Y-136802724D03*
X248186150Y-136343452D03*
D11*
X99748467Y-121925664D03*
X110879882Y-125711703D03*
D14*
X300876445Y-125403922D03*
X304144329Y-124944650D03*
D11*
X178627336Y-106755849D03*
X189758751Y-110541888D03*
D10*
X277898397Y-137479365D03*
X290346092Y-133164989D03*
D15*
X320705762Y-141652339D03*
X332449539Y-142223479D03*
X331587987Y-82562773D03*
X343331764Y-83133913D03*
D14*
X323797140Y-151972539D03*
X327065024Y-151513267D03*
D13*
X137654275Y-97877092D03*
X150808970Y-97160901D03*
D24*
X233341072Y-183301122D03*
X236254804Y-181751866D03*
D13*
X155773501Y-105472723D03*
X168928196Y-104756532D03*
D10*
X233239971Y-92759404D03*
X245687666Y-88445028D03*
X257134882Y-126259899D03*
X269582577Y-121945523D03*
X291842434Y-100175692D03*
X304290129Y-95861316D03*
D11*
X157376716Y-121441248D03*
X168508131Y-125227287D03*
D13*
X76685868Y-122127941D03*
X89840563Y-121411750D03*
D11*
X105037043Y-84295477D03*
X116168458Y-88081516D03*
X136613200Y-132660715D03*
X147744615Y-136446754D03*
D10*
X309474557Y-89114125D03*
X321922252Y-84799749D03*
D25*
X226906409Y-174660625D03*
X238137291Y-171180713D03*
D11*
X181271627Y-87940753D03*
X192403042Y-91726792D03*
X86221953Y-81651184D03*
X97353368Y-85437223D03*
D13*
X79330157Y-103312845D03*
X92484852Y-102596654D03*
D12*
X142028768Y-105803038D03*
X145296652Y-106262310D03*
D10*
X275254110Y-118664271D03*
X287701805Y-114349895D03*
D14*
X266168890Y-151488127D03*
X269436774Y-151028855D03*
D15*
X334232276Y-101377866D03*
X345976053Y-101949006D03*
D26*
X136903131Y-169625934D03*
X139538629Y-167639948D03*
D27*
X188041390Y-181751868D03*
X190955122Y-183301124D03*
D12*
X105164032Y-95067987D03*
X108431916Y-95527259D03*
M02*
