%TF.GenerationSoftware,KiCad,Pcbnew,8.0.1*%
%TF.CreationDate,2024-04-17T00:20:50+02:00*%
%TF.ProjectId,shockboard,73686f63-6b62-46f6-9172-642e6b696361,v1.0.0*%
%TF.SameCoordinates,Original*%
%TF.FileFunction,Drillmap*%
%TF.FilePolarity,Positive*%
%FSLAX45Y45*%
G04 Gerber Fmt 4.5, Leading zero omitted, Abs format (unit mm)*
G04 Created by KiCad (PCBNEW 8.0.1) date 2024-04-17 00:20:50*
%MOMM*%
%LPD*%
G01*
G04 APERTURE LIST*
%ADD10C,0.150000*%
%ADD11C,0.200000*%
%ADD12C,0.100000*%
%ADD13C,0.109220*%
%ADD14C,0.130000*%
%ADD15C,0.220000*%
G04 APERTURE END LIST*
D10*
X35353517Y-13328083D02*
G75*
G02*
X35257698Y-13698575I-495117J-69587D01*
G01*
X8616975Y-15616231D02*
X7171919Y-13698577D01*
X7171919Y-13698577D02*
G75*
G02*
X7076099Y-13328083I399301J300907D01*
G01*
X28366775Y-19473525D02*
G75*
G02*
X28079258Y-19564463I-287515J409045D01*
G01*
X7840485Y-7889219D02*
G75*
G02*
X8270820Y-7463023I495134J-69587D01*
G01*
X16024118Y-7298996D02*
X19582039Y-8434929D01*
X35257701Y-13698577D02*
X33812644Y-15616232D01*
X33700844Y-15724388D02*
X28366775Y-19473525D01*
X28742981Y-6969435D02*
X30598745Y-7000941D01*
X19734111Y-8458616D02*
G75*
G02*
X19582039Y-8434929I9J500046D01*
G01*
X26487987Y-7280175D02*
X28664907Y-6974229D01*
X8270820Y-7463023D02*
X11774564Y-7005085D01*
X28664907Y-6974229D02*
G75*
G02*
X28742981Y-6969435I69583J-495101D01*
G01*
X22847580Y-8434929D02*
G75*
G02*
X22695508Y-8458617I-152090J476409D01*
G01*
X19734111Y-8458616D02*
X22695508Y-8458616D01*
X28079258Y-19564461D02*
X14350362Y-19564461D01*
X22847580Y-8434929D02*
X26405501Y-7298996D01*
X11774563Y-7005085D02*
G75*
G02*
X11830875Y-7000940I64797J-495705D01*
G01*
X11830875Y-7000941D02*
X13686638Y-6969435D01*
X14062844Y-19473526D02*
X8728775Y-15724388D01*
X13686638Y-6969435D02*
G75*
G02*
X13764712Y-6974229I8492J-499935D01*
G01*
X26405501Y-7298996D02*
G75*
G02*
X26487987Y-7280175I152099J-476424D01*
G01*
X30598745Y-7000941D02*
G75*
G02*
X30655056Y-7005085I-8485J-499879D01*
G01*
X7076103Y-13328083D02*
X7840485Y-7889219D01*
X14350362Y-19564461D02*
G75*
G02*
X14062845Y-19473524I8J500021D01*
G01*
X34589134Y-7889219D02*
X35353517Y-13328083D01*
X33812644Y-15616231D02*
G75*
G02*
X33700845Y-15724389I-399324J300912D01*
G01*
X13764712Y-6974229D02*
X15941632Y-7280175D01*
X30655056Y-7005085D02*
X34158799Y-7463022D01*
X15941632Y-7280175D02*
G75*
G02*
X16024118Y-7298996I-69583J-495135D01*
G01*
X8728775Y-15724388D02*
G75*
G02*
X8616975Y-15616231I287495J409038D01*
G01*
X34158799Y-7463022D02*
G75*
G02*
X34589138Y-7889219I-64789J-495778D01*
G01*
D11*
D12*
X7510000Y-11410000D02*
X7550000Y-11450000D01*
X7550000Y-11410000D02*
X7510000Y-11450000D01*
X8020000Y-7830000D02*
X8060000Y-7870000D01*
X8060000Y-7830000D02*
X8020000Y-7870000D01*
X8039570Y-13710933D02*
X8079570Y-13750933D01*
X8079570Y-13710933D02*
X8039570Y-13750933D01*
X8520000Y-9740000D02*
X8560000Y-9780000D01*
X8560000Y-9740000D02*
X8520000Y-9780000D01*
X8860000Y-14370000D02*
X8900000Y-14410000D01*
X8900000Y-14370000D02*
X8860000Y-14410000D01*
X8935168Y-11713787D02*
X8975168Y-11753787D01*
X8975168Y-11713787D02*
X8935168Y-11753787D01*
X9450001Y-7716907D02*
X9490001Y-7756907D01*
X9490001Y-7716907D02*
X9450001Y-7756907D01*
X10002048Y-16238337D02*
X10042048Y-16278337D01*
X10042048Y-16238337D02*
X10002048Y-16278337D01*
X10029915Y-13760278D02*
X10069915Y-13800278D01*
X10069915Y-13760278D02*
X10029915Y-13800278D01*
X10450000Y-9260000D02*
X10490000Y-9300000D01*
X10490000Y-9260000D02*
X10450000Y-9300000D01*
X10527201Y-12879216D02*
X10567201Y-12919216D01*
X10567201Y-12879216D02*
X10527201Y-12919216D01*
X10535159Y-7319443D02*
X10575159Y-7359443D01*
X10575159Y-7319443D02*
X10535159Y-7359443D01*
X10944498Y-16737481D02*
X10984498Y-16777481D01*
X10984498Y-16737481D02*
X10944498Y-16777481D01*
X10963278Y-15325525D02*
X11003278Y-15365525D01*
X11003278Y-15325525D02*
X10963278Y-15365525D01*
X11449751Y-9760809D02*
X11489751Y-9800809D01*
X11489751Y-9760809D02*
X11449751Y-9800809D01*
X11525897Y-7719775D02*
X11565897Y-7759775D01*
X11565897Y-7719775D02*
X11525897Y-7759775D01*
X11958144Y-15751467D02*
X11998144Y-15791467D01*
X11998144Y-15751467D02*
X11958144Y-15791467D01*
X11993463Y-12323884D02*
X12033463Y-12363884D01*
X12033463Y-12323884D02*
X11993463Y-12363884D01*
X12072175Y-17362723D02*
X12112175Y-17402723D01*
X12112175Y-17362723D02*
X12072175Y-17402723D01*
X12497545Y-7305166D02*
X12537545Y-7345166D01*
X12537545Y-7305166D02*
X12497545Y-7345166D01*
X12522948Y-9270195D02*
X12562948Y-9310195D01*
X12562948Y-9270195D02*
X12522948Y-9310195D01*
X12640000Y-11230000D02*
X12680000Y-11270000D01*
X12680000Y-11230000D02*
X12640000Y-11270000D01*
X13009274Y-18346949D02*
X13049274Y-18386949D01*
X13049274Y-18346949D02*
X13009274Y-18386949D01*
X13044779Y-13288599D02*
X13084779Y-13328599D01*
X13084779Y-13288599D02*
X13044779Y-13328599D01*
X13390000Y-10530000D02*
X13430000Y-10570000D01*
X13430000Y-10530000D02*
X13390000Y-10570000D01*
X13444219Y-16739594D02*
X13484219Y-16779594D01*
X13484219Y-16739594D02*
X13444219Y-16779594D01*
X13452705Y-8894022D02*
X13492705Y-8934022D01*
X13492705Y-8894022D02*
X13452705Y-8934022D01*
X13474400Y-11175238D02*
X13514400Y-11215238D01*
X13514400Y-11175238D02*
X13474400Y-11215238D01*
X13484147Y-14804686D02*
X13524147Y-14844686D01*
X13524147Y-14804686D02*
X13484147Y-14844686D01*
X13696566Y-11054987D02*
X13736566Y-11094987D01*
X13736566Y-11054987D02*
X13696566Y-11094987D01*
X14030000Y-17770000D02*
X14070000Y-17810000D01*
X14070000Y-17770000D02*
X14030000Y-17810000D01*
X14083982Y-7214634D02*
X14123982Y-7254634D01*
X14123982Y-7214634D02*
X14083982Y-7254634D01*
X14478264Y-15256534D02*
X14518264Y-15296534D01*
X14518264Y-15256534D02*
X14478264Y-15296534D01*
X14480324Y-12344700D02*
X14520324Y-12384700D01*
X14520324Y-12344700D02*
X14480324Y-12384700D01*
X14553277Y-9781795D02*
X14593277Y-9821795D01*
X14593277Y-9781795D02*
X14553277Y-9821795D01*
X14952509Y-16279167D02*
X14992509Y-16319167D01*
X14992509Y-16279167D02*
X14952509Y-16319167D01*
X14964959Y-10705449D02*
X15004959Y-10745449D01*
X15004959Y-10705449D02*
X14964959Y-10745449D01*
X14975390Y-13354064D02*
X15015390Y-13394064D01*
X15015390Y-13354064D02*
X14975390Y-13394064D01*
X15000000Y-8160000D02*
X15040000Y-8200000D01*
X15040000Y-8160000D02*
X15000000Y-8200000D01*
X15093680Y-18277732D02*
X15133680Y-18317732D01*
X15133680Y-18277732D02*
X15093680Y-18317732D01*
X15337868Y-11411886D02*
X15377868Y-11451886D01*
X15377868Y-11411886D02*
X15337868Y-11451886D01*
X15460000Y-7400000D02*
X15500000Y-7440000D01*
X15500000Y-7400000D02*
X15460000Y-7440000D01*
X15486810Y-11609538D02*
X15526810Y-11649538D01*
X15526810Y-11609538D02*
X15486810Y-11649538D01*
X15952618Y-13805944D02*
X15992618Y-13845944D01*
X15992618Y-13805944D02*
X15952618Y-13845944D01*
X15962009Y-15877382D02*
X16002009Y-15917382D01*
X16002009Y-15877382D02*
X15962009Y-15917382D01*
X15980000Y-9820000D02*
X16020000Y-9860000D01*
X16020000Y-9820000D02*
X15980000Y-9860000D01*
X16448852Y-7761474D02*
X16488852Y-7801474D01*
X16488852Y-7761474D02*
X16448852Y-7801474D01*
X16950000Y-12180000D02*
X16990000Y-12220000D01*
X16990000Y-12180000D02*
X16950000Y-12220000D01*
X17022811Y-18338930D02*
X17062811Y-18378930D01*
X17062811Y-18338930D02*
X17022811Y-18378930D01*
X17087109Y-11341274D02*
X17127109Y-11381274D01*
X17127109Y-11341274D02*
X17087109Y-11381274D01*
X17093425Y-19218908D02*
X17133425Y-19258908D01*
X17133425Y-19218908D02*
X17093425Y-19258908D01*
X17136337Y-12018908D02*
X17176337Y-12058908D01*
X17176337Y-12018908D02*
X17136337Y-12058908D01*
X17262064Y-18018982D02*
X17302064Y-18058982D01*
X17302064Y-18018982D02*
X17262064Y-18058982D01*
X17284200Y-19118908D02*
X17324200Y-19158908D01*
X17324200Y-19118908D02*
X17284200Y-19158908D01*
X17296858Y-17771415D02*
X17336858Y-17811415D01*
X17336858Y-17771415D02*
X17296858Y-17811415D01*
X17339537Y-12019357D02*
X17379537Y-12059357D01*
X17379537Y-12019357D02*
X17339537Y-12059357D01*
X17435361Y-18043337D02*
X17475361Y-18083337D01*
X17475361Y-18043337D02*
X17435361Y-18083337D01*
X17470155Y-17795770D02*
X17510155Y-17835770D01*
X17510155Y-17795770D02*
X17470155Y-17835770D01*
X17478502Y-8208313D02*
X17518502Y-8248313D01*
X17518502Y-8208313D02*
X17478502Y-8248313D01*
X17502547Y-16738763D02*
X17542547Y-16778763D01*
X17542547Y-16738763D02*
X17502547Y-16778763D01*
X17547015Y-13283610D02*
X17587015Y-13323610D01*
X17587015Y-13283610D02*
X17547015Y-13323610D01*
X17830000Y-15270000D02*
X17870000Y-15310000D01*
X17870000Y-15270000D02*
X17830000Y-15310000D01*
X17982098Y-17763326D02*
X18022098Y-17803326D01*
X18022098Y-17763326D02*
X17982098Y-17803326D01*
X18001244Y-10229030D02*
X18041244Y-10269030D01*
X18041244Y-10229030D02*
X18001244Y-10269030D01*
X18031787Y-14279890D02*
X18071787Y-14319890D01*
X18071787Y-14279890D02*
X18031787Y-14319890D01*
X18130000Y-12270000D02*
X18170000Y-12310000D01*
X18170000Y-12270000D02*
X18130000Y-12310000D01*
X18390000Y-11500000D02*
X18430000Y-11540000D01*
X18430000Y-11500000D02*
X18390000Y-11540000D01*
X18574437Y-16764419D02*
X18614437Y-16804420D01*
X18614437Y-16764419D02*
X18574437Y-16804420D01*
X18693940Y-11782568D02*
X18733940Y-11822568D01*
X18733940Y-11782568D02*
X18693940Y-11822568D01*
X18713611Y-15774152D02*
X18753611Y-15814152D01*
X18753611Y-15774152D02*
X18713611Y-15814152D01*
X18911664Y-15801986D02*
X18951664Y-15841986D01*
X18951664Y-15801986D02*
X18911664Y-15841986D01*
X18940617Y-16375866D02*
X18980617Y-16415866D01*
X18980617Y-16375866D02*
X18940617Y-16415866D01*
X19005300Y-10756507D02*
X19045300Y-10796507D01*
X19045300Y-10756507D02*
X19005300Y-10796507D01*
X19033977Y-12057568D02*
X19073977Y-12097568D01*
X19073977Y-12057568D02*
X19033977Y-12097568D01*
X19141836Y-11290111D02*
X19181836Y-11330111D01*
X19181836Y-11290111D02*
X19141836Y-11330111D01*
X19469985Y-13280017D02*
X19509985Y-13320017D01*
X19509985Y-13280017D02*
X19469985Y-13320017D01*
X19490000Y-17800000D02*
X19530000Y-17840000D01*
X19530000Y-17800000D02*
X19490000Y-17840000D01*
X19568407Y-8808846D02*
X19608407Y-8848846D01*
X19608407Y-8808846D02*
X19568407Y-8848846D01*
X19575360Y-14848042D02*
X19615360Y-14888042D01*
X19615360Y-14848042D02*
X19575360Y-14888042D01*
X19760000Y-11380000D02*
X19800000Y-11420000D01*
X19800000Y-11380000D02*
X19760000Y-11420000D01*
X19957537Y-15778269D02*
X19997537Y-15818269D01*
X19997537Y-15778269D02*
X19957537Y-15818269D01*
X20000131Y-10298990D02*
X20040131Y-10338990D01*
X20040131Y-10298990D02*
X20000131Y-10338990D01*
X20506363Y-16888649D02*
X20546363Y-16928649D01*
X20546363Y-16888649D02*
X20506363Y-16928649D01*
X20531156Y-12297533D02*
X20571156Y-12337533D01*
X20571156Y-12297533D02*
X20531156Y-12337533D01*
X20545229Y-13751066D02*
X20585229Y-13791066D01*
X20585229Y-13751066D02*
X20545229Y-13791066D01*
X20583649Y-18255801D02*
X20623649Y-18295801D01*
X20623649Y-18255801D02*
X20583649Y-18295801D01*
X20940000Y-11250000D02*
X20980000Y-11290000D01*
X20980000Y-11250000D02*
X20940000Y-11290000D01*
X20940000Y-11440000D02*
X20980000Y-11480000D01*
X20980000Y-11440000D02*
X20940000Y-11480000D01*
X20940000Y-11640000D02*
X20980000Y-11680000D01*
X20980000Y-11640000D02*
X20940000Y-11680000D01*
X20940000Y-11800000D02*
X20980000Y-11840000D01*
X20980000Y-11800000D02*
X20940000Y-11840000D01*
X21018095Y-14795144D02*
X21058095Y-14835144D01*
X21058095Y-14795144D02*
X21018095Y-14835144D01*
X21090000Y-8920000D02*
X21130000Y-8960000D01*
X21130000Y-8920000D02*
X21090000Y-8960000D01*
X21190000Y-11240000D02*
X21230000Y-11280000D01*
X21230000Y-11240000D02*
X21190000Y-11280000D01*
X21190000Y-11440000D02*
X21230000Y-11480000D01*
X21230000Y-11440000D02*
X21190000Y-11480000D01*
X21190000Y-11640000D02*
X21230000Y-11680000D01*
X21230000Y-11640000D02*
X21190000Y-11680000D01*
X21190000Y-11810000D02*
X21230000Y-11850000D01*
X21230000Y-11810000D02*
X21190000Y-11850000D01*
X21488246Y-15891583D02*
X21528246Y-15931583D01*
X21528246Y-15891583D02*
X21488246Y-15931583D01*
X21521747Y-12852169D02*
X21561747Y-12892169D01*
X21561747Y-12852169D02*
X21521747Y-12892169D01*
X21574831Y-17315218D02*
X21614831Y-17355218D01*
X21614831Y-17315218D02*
X21574831Y-17355218D01*
X21906117Y-18291178D02*
X21946117Y-18331178D01*
X21946117Y-18291178D02*
X21906117Y-18331178D01*
X22057465Y-13779310D02*
X22097465Y-13819310D01*
X22097465Y-13779310D02*
X22057465Y-13819310D01*
X22409895Y-14785334D02*
X22449895Y-14825334D01*
X22449895Y-14785334D02*
X22409895Y-14825334D01*
X22451270Y-16266579D02*
X22491270Y-16306579D01*
X22491270Y-16266579D02*
X22451270Y-16306579D01*
X22497019Y-10113213D02*
X22537019Y-10153213D01*
X22537019Y-10113213D02*
X22497019Y-10153213D01*
X22538844Y-11762241D02*
X22578844Y-11802241D01*
X22578844Y-11762241D02*
X22538844Y-11802241D01*
X22695072Y-10085378D02*
X22735072Y-10125378D01*
X22735072Y-10085378D02*
X22695072Y-10125378D01*
X22754192Y-8668309D02*
X22794192Y-8708309D01*
X22794192Y-8668309D02*
X22754192Y-8708309D01*
X22880000Y-13330000D02*
X22920000Y-13370000D01*
X22920000Y-13330000D02*
X22880000Y-13370000D01*
X22917454Y-10772066D02*
X22957454Y-10812066D01*
X22957454Y-10772066D02*
X22917454Y-10812066D01*
X22924345Y-8743823D02*
X22964345Y-8783823D01*
X22964345Y-8743823D02*
X22924345Y-8783823D01*
X23033771Y-11956449D02*
X23073771Y-11996449D01*
X23073771Y-11956449D02*
X23033771Y-11996449D01*
X23286337Y-10418908D02*
X23326337Y-10458908D01*
X23326337Y-10418908D02*
X23286337Y-10458908D01*
X23330852Y-11914697D02*
X23370852Y-11954697D01*
X23370852Y-11914697D02*
X23330852Y-11954697D01*
X23336337Y-10218908D02*
X23376337Y-10258908D01*
X23376337Y-10218908D02*
X23336337Y-10258908D01*
X23410000Y-14310000D02*
X23450000Y-14350000D01*
X23450000Y-14310000D02*
X23410000Y-14350000D01*
X23481032Y-15733338D02*
X23521032Y-15773338D01*
X23521032Y-15733338D02*
X23481032Y-15773338D01*
X23586337Y-10418908D02*
X23626337Y-10458908D01*
X23626337Y-10418908D02*
X23586337Y-10458908D01*
X23586337Y-10218908D02*
X23626337Y-10258908D01*
X23626337Y-10218908D02*
X23586337Y-10258908D01*
X23620000Y-10630000D02*
X23660000Y-10670000D01*
X23660000Y-10630000D02*
X23620000Y-10670000D01*
X23790256Y-13566839D02*
X23830256Y-13606839D01*
X23830256Y-13566839D02*
X23790256Y-13606839D01*
X23870000Y-14220000D02*
X23910000Y-14260000D01*
X23910000Y-14220000D02*
X23870000Y-14260000D01*
X24002094Y-15253774D02*
X24042094Y-15293774D01*
X24042094Y-15253774D02*
X24002094Y-15293774D01*
X24451415Y-15379351D02*
X24491415Y-15419351D01*
X24491415Y-15379351D02*
X24451415Y-15419351D01*
X24460000Y-12250000D02*
X24500000Y-12290000D01*
X24500000Y-12250000D02*
X24460000Y-12290000D01*
X24554022Y-8220883D02*
X24594022Y-8260883D01*
X24594022Y-8220883D02*
X24554022Y-8260883D01*
X24590112Y-16817076D02*
X24630112Y-16857076D01*
X24630112Y-16817076D02*
X24590112Y-16857076D01*
X24910000Y-13310000D02*
X24950000Y-13350000D01*
X24950000Y-13310000D02*
X24910000Y-13350000D01*
X24983791Y-9251402D02*
X25023791Y-9291402D01*
X25023791Y-9251402D02*
X24983791Y-9291402D01*
X25001559Y-17786212D02*
X25041559Y-17826212D01*
X25041559Y-17786212D02*
X25001559Y-17826212D01*
X25140000Y-10530000D02*
X25180000Y-10570000D01*
X25180000Y-10530000D02*
X25140000Y-10570000D01*
X25210000Y-11610000D02*
X25250000Y-11650000D01*
X25250000Y-11610000D02*
X25210000Y-11650000D01*
X25386337Y-10218908D02*
X25426337Y-10258908D01*
X25426337Y-10218908D02*
X25386337Y-10258908D01*
X25471063Y-14814578D02*
X25511063Y-14854578D01*
X25511063Y-14814578D02*
X25471063Y-14854578D01*
X25536337Y-10068908D02*
X25576337Y-10108908D01*
X25576337Y-10068908D02*
X25536337Y-10108908D01*
X25911684Y-18753101D02*
X25951684Y-18793101D01*
X25951684Y-18753101D02*
X25911684Y-18793101D01*
X26100000Y-13770000D02*
X26140000Y-13810000D01*
X26140000Y-13770000D02*
X26100000Y-13810000D01*
X26431024Y-15727024D02*
X26471024Y-15767024D01*
X26471024Y-15727024D02*
X26431024Y-15767024D01*
X26453608Y-7862626D02*
X26493608Y-7902626D01*
X26493608Y-7862626D02*
X26453608Y-7902626D01*
X26535435Y-11852938D02*
X26575435Y-11892938D01*
X26575435Y-11852938D02*
X26535435Y-11892938D01*
X26600000Y-9820000D02*
X26640000Y-9860000D01*
X26640000Y-9820000D02*
X26600000Y-9860000D01*
X26897286Y-18321081D02*
X26937286Y-18361081D01*
X26937286Y-18321081D02*
X26897286Y-18361081D01*
X27032741Y-14793496D02*
X27072741Y-14833496D01*
X27072741Y-14793496D02*
X27032741Y-14833496D01*
X27060000Y-16868272D02*
X27100000Y-16908272D01*
X27100000Y-16868272D02*
X27060000Y-16908272D01*
X27430419Y-12709132D02*
X27470419Y-12749132D01*
X27470419Y-12709132D02*
X27430419Y-12749132D01*
X27446044Y-9302031D02*
X27486044Y-9342031D01*
X27486044Y-9302031D02*
X27446044Y-9342031D01*
X27940975Y-15794236D02*
X27980975Y-15834236D01*
X27980975Y-15794236D02*
X27940975Y-15834236D01*
X28002430Y-18848160D02*
X28042430Y-18888160D01*
X28042430Y-18848160D02*
X28002430Y-18888160D01*
X28010605Y-17328492D02*
X28050605Y-17368492D01*
X28050605Y-17328492D02*
X28010605Y-17368492D01*
X28180000Y-14130000D02*
X28220000Y-14170000D01*
X28220000Y-14130000D02*
X28180000Y-14170000D01*
X28944049Y-14812447D02*
X28984049Y-14852447D01*
X28984049Y-14812447D02*
X28944049Y-14852447D01*
X28970047Y-12300828D02*
X29010047Y-12340828D01*
X29010047Y-12300828D02*
X28970047Y-12340828D01*
X29067015Y-10391294D02*
X29107015Y-10431294D01*
X29107015Y-10391294D02*
X29067015Y-10431294D01*
X29086811Y-16720701D02*
X29126811Y-16760701D01*
X29126811Y-16720701D02*
X29086811Y-16760701D01*
X29398665Y-9217850D02*
X29438665Y-9257850D01*
X29438665Y-9217850D02*
X29398665Y-9257850D01*
X29411515Y-18206280D02*
X29451515Y-18246280D01*
X29451515Y-18206280D02*
X29411515Y-18246280D01*
X29468430Y-13377938D02*
X29508430Y-13417938D01*
X29508430Y-13377938D02*
X29468430Y-13417938D01*
X29484101Y-15726854D02*
X29524101Y-15766854D01*
X29524101Y-15726854D02*
X29484101Y-15766854D01*
X29509137Y-11239407D02*
X29549137Y-11279407D01*
X29549137Y-11239407D02*
X29509137Y-11279407D01*
X30447346Y-17768839D02*
X30487346Y-17808839D01*
X30487346Y-17768839D02*
X30447346Y-17808839D01*
X30491351Y-16275722D02*
X30531351Y-16315722D01*
X30531351Y-16275722D02*
X30491351Y-16315722D01*
X30499252Y-10810844D02*
X30539252Y-10850844D01*
X30539252Y-10810844D02*
X30499252Y-10850844D01*
X30563802Y-8829289D02*
X30603802Y-8869289D01*
X30603802Y-8829289D02*
X30563802Y-8869289D01*
X30740000Y-14090000D02*
X30780000Y-14130000D01*
X30780000Y-14090000D02*
X30740000Y-14130000D01*
X31023094Y-12310384D02*
X31063094Y-12350384D01*
X31063094Y-12310384D02*
X31023094Y-12350384D01*
X31058054Y-7265008D02*
X31098054Y-7305008D01*
X31098054Y-7265008D02*
X31058054Y-7305008D01*
X31280000Y-10010000D02*
X31320000Y-10050000D01*
X31320000Y-10010000D02*
X31280000Y-10050000D01*
X31400000Y-14910000D02*
X31440000Y-14950000D01*
X31440000Y-14910000D02*
X31400000Y-14950000D01*
X31529574Y-16804553D02*
X31569574Y-16844553D01*
X31569574Y-16804553D02*
X31529574Y-16844553D01*
X31956764Y-11390304D02*
X31996764Y-11430304D01*
X31996764Y-11390304D02*
X31956764Y-11430304D01*
X32037650Y-15877611D02*
X32077650Y-15917611D01*
X32077650Y-15877611D02*
X32037650Y-15917611D01*
X32435017Y-7839855D02*
X32475017Y-7879855D01*
X32475017Y-7839855D02*
X32435017Y-7879855D01*
X32550000Y-12950000D02*
X32590000Y-12990000D01*
X32590000Y-12950000D02*
X32550000Y-12990000D01*
X32640000Y-10040000D02*
X32680000Y-10080000D01*
X32680000Y-10040000D02*
X32640000Y-10080000D01*
X32670000Y-8970000D02*
X32710000Y-9010000D01*
X32710000Y-8970000D02*
X32670000Y-9010000D01*
X32930000Y-11020000D02*
X32970000Y-11060000D01*
X32970000Y-11020000D02*
X32930000Y-11060000D01*
X33023602Y-13723806D02*
X33063602Y-13763806D01*
X33063602Y-13723806D02*
X33023602Y-13763806D01*
X33460000Y-9790000D02*
X33500000Y-9830000D01*
X33500000Y-9790000D02*
X33460000Y-9830000D01*
X33501987Y-15276163D02*
X33541987Y-15316163D01*
X33541987Y-15276163D02*
X33501987Y-15316163D01*
X33911600Y-7883841D02*
X33951600Y-7923841D01*
X33951600Y-7883841D02*
X33911600Y-7923841D01*
X33940000Y-13330000D02*
X33980000Y-13370000D01*
X33980000Y-13330000D02*
X33940000Y-13370000D01*
X33966577Y-11396313D02*
X34006577Y-11436313D01*
X34006577Y-11396313D02*
X33966577Y-11436313D01*
X34513064Y-14272460D02*
X34553064Y-14312460D01*
X34553064Y-14272460D02*
X34513064Y-14312460D01*
X34518407Y-8796443D02*
X34558407Y-8836443D01*
X34558407Y-8796443D02*
X34518407Y-8836443D01*
X34930000Y-11670000D02*
X34970000Y-11710000D01*
X34970000Y-11670000D02*
X34930000Y-11710000D01*
X9581732Y-9473611D02*
G75*
G02*
X9541732Y-9473611I-20000J0D01*
G01*
X9541732Y-9473611D02*
G75*
G02*
X9581732Y-9473611I20000J0D01*
G01*
X9613351Y-9595874D02*
G75*
G02*
X9573351Y-9595874I-20000J0D01*
G01*
X9573351Y-9595874D02*
G75*
G02*
X9613351Y-9595874I20000J0D01*
G01*
X9645826Y-9364800D02*
G75*
G02*
X9605826Y-9364800I-20000J0D01*
G01*
X9605826Y-9364800D02*
G75*
G02*
X9645826Y-9364800I20000J0D01*
G01*
X9722162Y-9659969D02*
G75*
G02*
X9682162Y-9659969I-20000J0D01*
G01*
X9682162Y-9659969D02*
G75*
G02*
X9722162Y-9659969I20000J0D01*
G01*
X9768089Y-9333180D02*
G75*
G02*
X9728089Y-9333180I-20000J0D01*
G01*
X9728089Y-9333180D02*
G75*
G02*
X9768089Y-9333180I20000J0D01*
G01*
X9844425Y-9628349D02*
G75*
G02*
X9804425Y-9628349I-20000J0D01*
G01*
X9804425Y-9628349D02*
G75*
G02*
X9844425Y-9628349I20000J0D01*
G01*
X9876901Y-9397275D02*
G75*
G02*
X9836901Y-9397275I-20000J0D01*
G01*
X9836901Y-9397275D02*
G75*
G02*
X9876901Y-9397275I20000J0D01*
G01*
X9908520Y-9519538D02*
G75*
G02*
X9868520Y-9519538I-20000J0D01*
G01*
X9868520Y-9519538D02*
G75*
G02*
X9908520Y-9519538I20000J0D01*
G01*
X10693346Y-13850918D02*
G75*
G02*
X10653346Y-13850918I-20000J0D01*
G01*
X10653346Y-13850918D02*
G75*
G02*
X10693346Y-13850918I20000J0D01*
G01*
X10724965Y-13973181D02*
G75*
G02*
X10684965Y-13973181I-20000J0D01*
G01*
X10684965Y-13973181D02*
G75*
G02*
X10724965Y-13973181I20000J0D01*
G01*
X10757441Y-13742106D02*
G75*
G02*
X10717441Y-13742106I-20000J0D01*
G01*
X10717441Y-13742106D02*
G75*
G02*
X10757441Y-13742106I20000J0D01*
G01*
X10833777Y-14037275D02*
G75*
G02*
X10793777Y-14037275I-20000J0D01*
G01*
X10793777Y-14037275D02*
G75*
G02*
X10833777Y-14037275I20000J0D01*
G01*
X10879704Y-13710487D02*
G75*
G02*
X10839704Y-13710487I-20000J0D01*
G01*
X10839704Y-13710487D02*
G75*
G02*
X10879704Y-13710487I20000J0D01*
G01*
X10956040Y-14005656D02*
G75*
G02*
X10916040Y-14005656I-20000J0D01*
G01*
X10916040Y-14005656D02*
G75*
G02*
X10956040Y-14005656I20000J0D01*
G01*
X10988515Y-13774582D02*
G75*
G02*
X10948515Y-13774582I-20000J0D01*
G01*
X10948515Y-13774582D02*
G75*
G02*
X10988515Y-13774582I20000J0D01*
G01*
X11020134Y-13896845D02*
G75*
G02*
X10980134Y-13896845I-20000J0D01*
G01*
X10980134Y-13896845D02*
G75*
G02*
X11020134Y-13896845I20000J0D01*
G01*
X16425125Y-15388591D02*
G75*
G02*
X16385125Y-15388591I-20000J0D01*
G01*
X16385125Y-15388591D02*
G75*
G02*
X16425125Y-15388591I20000J0D01*
G01*
X16456744Y-15510854D02*
G75*
G02*
X16416744Y-15510854I-20000J0D01*
G01*
X16416744Y-15510854D02*
G75*
G02*
X16456744Y-15510854I20000J0D01*
G01*
X16489219Y-15279780D02*
G75*
G02*
X16449219Y-15279780I-20000J0D01*
G01*
X16449219Y-15279780D02*
G75*
G02*
X16489219Y-15279780I20000J0D01*
G01*
X16565555Y-15574949D02*
G75*
G02*
X16525555Y-15574949I-20000J0D01*
G01*
X16525555Y-15574949D02*
G75*
G02*
X16565555Y-15574949I20000J0D01*
G01*
X16611482Y-15248161D02*
G75*
G02*
X16571482Y-15248161I-20000J0D01*
G01*
X16571482Y-15248161D02*
G75*
G02*
X16611482Y-15248161I20000J0D01*
G01*
X16687818Y-15543330D02*
G75*
G02*
X16647818Y-15543330I-20000J0D01*
G01*
X16647818Y-15543330D02*
G75*
G02*
X16687818Y-15543330I20000J0D01*
G01*
X16720294Y-15312255D02*
G75*
G02*
X16680294Y-15312255I-20000J0D01*
G01*
X16680294Y-15312255D02*
G75*
G02*
X16720294Y-15312255I20000J0D01*
G01*
X16751913Y-15434518D02*
G75*
G02*
X16711913Y-15434518I-20000J0D01*
G01*
X16711913Y-15434518D02*
G75*
G02*
X16751913Y-15434518I20000J0D01*
G01*
X17205190Y-9838139D02*
G75*
G02*
X17165190Y-9838139I-20000J0D01*
G01*
X17165190Y-9838139D02*
G75*
G02*
X17205190Y-9838139I20000J0D01*
G01*
X17236810Y-9960402D02*
G75*
G02*
X17196810Y-9960402I-20000J0D01*
G01*
X17196810Y-9960402D02*
G75*
G02*
X17236810Y-9960402I20000J0D01*
G01*
X17269285Y-9729328D02*
G75*
G02*
X17229285Y-9729328I-20000J0D01*
G01*
X17229285Y-9729328D02*
G75*
G02*
X17269285Y-9729328I20000J0D01*
G01*
X17345621Y-10024497D02*
G75*
G02*
X17305621Y-10024497I-20000J0D01*
G01*
X17305621Y-10024497D02*
G75*
G02*
X17345621Y-10024497I20000J0D01*
G01*
X17391548Y-9697709D02*
G75*
G02*
X17351548Y-9697709I-20000J0D01*
G01*
X17351548Y-9697709D02*
G75*
G02*
X17391548Y-9697709I20000J0D01*
G01*
X17467884Y-9992878D02*
G75*
G02*
X17427884Y-9992878I-20000J0D01*
G01*
X17427884Y-9992878D02*
G75*
G02*
X17467884Y-9992878I20000J0D01*
G01*
X17500359Y-9761803D02*
G75*
G02*
X17460359Y-9761803I-20000J0D01*
G01*
X17460359Y-9761803D02*
G75*
G02*
X17500359Y-9761803I20000J0D01*
G01*
X17531979Y-9884066D02*
G75*
G02*
X17491979Y-9884066I-20000J0D01*
G01*
X17491979Y-9884066D02*
G75*
G02*
X17531979Y-9884066I20000J0D01*
G01*
X24937641Y-9884066D02*
G75*
G02*
X24897641Y-9884066I-20000J0D01*
G01*
X24897641Y-9884066D02*
G75*
G02*
X24937641Y-9884066I20000J0D01*
G01*
X24969260Y-9761803D02*
G75*
G02*
X24929260Y-9761803I-20000J0D01*
G01*
X24929260Y-9761803D02*
G75*
G02*
X24969260Y-9761803I20000J0D01*
G01*
X25001736Y-9992878D02*
G75*
G02*
X24961736Y-9992878I-20000J0D01*
G01*
X24961736Y-9992878D02*
G75*
G02*
X25001736Y-9992878I20000J0D01*
G01*
X25078072Y-9697709D02*
G75*
G02*
X25038072Y-9697709I-20000J0D01*
G01*
X25038072Y-9697709D02*
G75*
G02*
X25078072Y-9697709I20000J0D01*
G01*
X25123999Y-10024497D02*
G75*
G02*
X25083999Y-10024497I-20000J0D01*
G01*
X25083999Y-10024497D02*
G75*
G02*
X25123999Y-10024497I20000J0D01*
G01*
X25200335Y-9729328D02*
G75*
G02*
X25160335Y-9729328I-20000J0D01*
G01*
X25160335Y-9729328D02*
G75*
G02*
X25200335Y-9729328I20000J0D01*
G01*
X25232810Y-9960402D02*
G75*
G02*
X25192810Y-9960402I-20000J0D01*
G01*
X25192810Y-9960402D02*
G75*
G02*
X25232810Y-9960402I20000J0D01*
G01*
X25264429Y-9838139D02*
G75*
G02*
X25224429Y-9838139I-20000J0D01*
G01*
X25224429Y-9838139D02*
G75*
G02*
X25264429Y-9838139I20000J0D01*
G01*
X25717706Y-15434519D02*
G75*
G02*
X25677706Y-15434519I-20000J0D01*
G01*
X25677706Y-15434519D02*
G75*
G02*
X25717706Y-15434519I20000J0D01*
G01*
X25749326Y-15312255D02*
G75*
G02*
X25709326Y-15312255I-20000J0D01*
G01*
X25709326Y-15312255D02*
G75*
G02*
X25749326Y-15312255I20000J0D01*
G01*
X25781801Y-15543330D02*
G75*
G02*
X25741801Y-15543330I-20000J0D01*
G01*
X25741801Y-15543330D02*
G75*
G02*
X25781801Y-15543330I20000J0D01*
G01*
X25858137Y-15248161D02*
G75*
G02*
X25818137Y-15248161I-20000J0D01*
G01*
X25818137Y-15248161D02*
G75*
G02*
X25858137Y-15248161I20000J0D01*
G01*
X25904064Y-15574949D02*
G75*
G02*
X25864064Y-15574949I-20000J0D01*
G01*
X25864064Y-15574949D02*
G75*
G02*
X25904064Y-15574949I20000J0D01*
G01*
X25980400Y-15279780D02*
G75*
G02*
X25940400Y-15279780I-20000J0D01*
G01*
X25940400Y-15279780D02*
G75*
G02*
X25980400Y-15279780I20000J0D01*
G01*
X26012875Y-15510854D02*
G75*
G02*
X25972875Y-15510854I-20000J0D01*
G01*
X25972875Y-15510854D02*
G75*
G02*
X26012875Y-15510854I20000J0D01*
G01*
X26044495Y-15388591D02*
G75*
G02*
X26004495Y-15388591I-20000J0D01*
G01*
X26004495Y-15388591D02*
G75*
G02*
X26044495Y-15388591I20000J0D01*
G01*
X31449485Y-13896845D02*
G75*
G02*
X31409485Y-13896845I-20000J0D01*
G01*
X31409485Y-13896845D02*
G75*
G02*
X31449485Y-13896845I20000J0D01*
G01*
X31481104Y-13774582D02*
G75*
G02*
X31441104Y-13774582I-20000J0D01*
G01*
X31441104Y-13774582D02*
G75*
G02*
X31481104Y-13774582I20000J0D01*
G01*
X31513579Y-14005656D02*
G75*
G02*
X31473579Y-14005656I-20000J0D01*
G01*
X31473579Y-14005656D02*
G75*
G02*
X31513579Y-14005656I20000J0D01*
G01*
X31589915Y-13710487D02*
G75*
G02*
X31549915Y-13710487I-20000J0D01*
G01*
X31549915Y-13710487D02*
G75*
G02*
X31589915Y-13710487I20000J0D01*
G01*
X31635842Y-14037275D02*
G75*
G02*
X31595842Y-14037275I-20000J0D01*
G01*
X31595842Y-14037275D02*
G75*
G02*
X31635842Y-14037275I20000J0D01*
G01*
X31712178Y-13742106D02*
G75*
G02*
X31672178Y-13742106I-20000J0D01*
G01*
X31672178Y-13742106D02*
G75*
G02*
X31712178Y-13742106I20000J0D01*
G01*
X31744654Y-13973181D02*
G75*
G02*
X31704654Y-13973181I-20000J0D01*
G01*
X31704654Y-13973181D02*
G75*
G02*
X31744654Y-13973181I20000J0D01*
G01*
X31776273Y-13850918D02*
G75*
G02*
X31736273Y-13850918I-20000J0D01*
G01*
X31736273Y-13850918D02*
G75*
G02*
X31776273Y-13850918I20000J0D01*
G01*
X32561099Y-9519538D02*
G75*
G02*
X32521099Y-9519538I-20000J0D01*
G01*
X32521099Y-9519538D02*
G75*
G02*
X32561099Y-9519538I20000J0D01*
G01*
X32592719Y-9397275D02*
G75*
G02*
X32552719Y-9397275I-20000J0D01*
G01*
X32552719Y-9397275D02*
G75*
G02*
X32592719Y-9397275I20000J0D01*
G01*
X32625194Y-9628350D02*
G75*
G02*
X32585194Y-9628350I-20000J0D01*
G01*
X32585194Y-9628350D02*
G75*
G02*
X32625194Y-9628350I20000J0D01*
G01*
X32701530Y-9333181D02*
G75*
G02*
X32661530Y-9333181I-20000J0D01*
G01*
X32661530Y-9333181D02*
G75*
G02*
X32701530Y-9333181I20000J0D01*
G01*
X32747457Y-9659969D02*
G75*
G02*
X32707457Y-9659969I-20000J0D01*
G01*
X32707457Y-9659969D02*
G75*
G02*
X32747457Y-9659969I20000J0D01*
G01*
X32823793Y-9364800D02*
G75*
G02*
X32783793Y-9364800I-20000J0D01*
G01*
X32783793Y-9364800D02*
G75*
G02*
X32823793Y-9364800I20000J0D01*
G01*
X32856268Y-9595874D02*
G75*
G02*
X32816268Y-9595874I-20000J0D01*
G01*
X32816268Y-9595874D02*
G75*
G02*
X32856268Y-9595874I20000J0D01*
G01*
X32887888Y-9473611D02*
G75*
G02*
X32847888Y-9473611I-20000J0D01*
G01*
X32847888Y-9473611D02*
G75*
G02*
X32887888Y-9473611I20000J0D01*
G01*
X22614809Y-10859905D02*
X22614809Y-10934905D01*
X22577309Y-10897405D02*
X22652309Y-10897405D01*
X22814809Y-10859905D02*
X22814809Y-10934905D01*
X22777309Y-10897405D02*
X22852309Y-10897405D01*
X7927162Y-13010350D02*
X7927162Y-12940304D01*
X7857115Y-12940304D01*
X7857115Y-13010350D01*
X7927162Y-13010350D01*
X8191590Y-11128841D02*
X8191590Y-11058794D01*
X8121544Y-11058794D01*
X8121544Y-11128841D01*
X8191590Y-11128841D01*
X8456019Y-9247332D02*
X8456019Y-9177285D01*
X8385972Y-9177285D01*
X8385972Y-9247332D01*
X8456019Y-9247332D01*
X8681746Y-13116401D02*
X8681746Y-13046354D01*
X8611700Y-13046354D01*
X8611700Y-13116401D01*
X8681746Y-13116401D01*
X8946175Y-11234891D02*
X8946175Y-11164845D01*
X8876128Y-11164845D01*
X8876128Y-11234891D01*
X8946175Y-11234891D01*
X9210604Y-9353382D02*
X9210604Y-9283335D01*
X9140557Y-9283335D01*
X9140557Y-9353382D01*
X9210604Y-9353382D01*
X9544242Y-15156288D02*
X9544242Y-15086242D01*
X9474195Y-15086242D01*
X9474195Y-15156288D01*
X9544242Y-15156288D01*
X9808671Y-13274779D02*
X9808671Y-13204732D01*
X9738624Y-13204732D01*
X9738624Y-13274779D01*
X9808671Y-13274779D01*
X10073100Y-11393270D02*
X10073100Y-11323223D01*
X10003053Y-11323223D01*
X10003053Y-11393270D01*
X10073100Y-11393270D01*
X10298827Y-15262339D02*
X10298827Y-15192292D01*
X10228780Y-15192292D01*
X10228780Y-15262339D01*
X10298827Y-15262339D01*
X10337528Y-9511761D02*
X10337528Y-9441714D01*
X10267482Y-9441714D01*
X10267482Y-9511761D01*
X10337528Y-9511761D01*
X10563255Y-13380829D02*
X10563255Y-13310783D01*
X10493209Y-13310783D01*
X10493209Y-13380829D01*
X10563255Y-13380829D01*
X10827685Y-11499320D02*
X10827685Y-11429274D01*
X10757638Y-11429274D01*
X10757638Y-11499320D01*
X10827685Y-11499320D01*
X11092113Y-9617811D02*
X11092113Y-9547764D01*
X11022066Y-9547764D01*
X11022066Y-9617811D01*
X11092113Y-9617811D01*
X11571883Y-14380936D02*
X11571883Y-14310889D01*
X11501837Y-14310889D01*
X11501837Y-14380936D01*
X11571883Y-14380936D01*
X11836312Y-12499427D02*
X11836312Y-12429380D01*
X11766265Y-12429380D01*
X11766265Y-12499427D01*
X11836312Y-12499427D01*
X12100740Y-10617917D02*
X12100740Y-10547871D01*
X12030694Y-10547871D01*
X12030694Y-10617917D01*
X12100740Y-10617917D01*
X12326468Y-14486986D02*
X12326468Y-14416939D01*
X12256421Y-14416939D01*
X12256421Y-14486986D01*
X12326468Y-14486986D01*
X12365170Y-8736408D02*
X12365170Y-8666361D01*
X12295123Y-8666361D01*
X12295123Y-8736408D01*
X12365170Y-8736408D01*
X12590896Y-12605477D02*
X12590896Y-12535431D01*
X12520850Y-12535431D01*
X12520850Y-12605477D01*
X12590896Y-12605477D01*
X12855325Y-10723967D02*
X12855325Y-10653921D01*
X12785278Y-10653921D01*
X12785278Y-10723967D01*
X12855325Y-10723967D01*
X13119754Y-8842458D02*
X13119754Y-8772411D01*
X13049708Y-8772411D01*
X13049708Y-8842458D01*
X13119754Y-8842458D01*
X13495144Y-14348284D02*
X13495144Y-14278238D01*
X13425097Y-14278238D01*
X13425097Y-14348284D01*
X13495144Y-14348284D01*
X13552831Y-17127609D02*
X13552831Y-17057562D01*
X13482785Y-17057562D01*
X13482785Y-17127609D01*
X13552831Y-17127609D01*
X13759573Y-12466775D02*
X13759573Y-12396728D01*
X13689527Y-12396728D01*
X13689527Y-12466775D01*
X13759573Y-12466775D01*
X14024002Y-10585266D02*
X14024002Y-10515219D01*
X13953955Y-10515219D01*
X13953955Y-10585266D01*
X14024002Y-10585266D01*
X14161391Y-16669026D02*
X14161391Y-16598979D01*
X14091345Y-16598979D01*
X14091345Y-16669026D01*
X14161391Y-16669026D01*
X14249729Y-14454335D02*
X14249729Y-14384288D01*
X14179682Y-14384288D01*
X14179682Y-14454335D01*
X14249729Y-14454335D01*
X14288431Y-8703757D02*
X14288431Y-8633710D01*
X14218384Y-8633710D01*
X14218384Y-8703757D01*
X14288431Y-8703757D01*
X14514158Y-12572825D02*
X14514158Y-12502778D01*
X14444111Y-12502778D01*
X14444111Y-12572825D01*
X14514158Y-12572825D01*
X14778587Y-10691316D02*
X14778587Y-10621269D01*
X14708540Y-10621269D01*
X14708540Y-10691316D01*
X14778587Y-10691316D01*
X15043015Y-8809807D02*
X15043015Y-8739760D01*
X14972969Y-8739760D01*
X14972969Y-8809807D01*
X15043015Y-8809807D01*
X15307067Y-15107847D02*
X15307067Y-15037800D01*
X15237021Y-15037800D01*
X15237021Y-15107847D01*
X15307067Y-15107847D01*
X15571496Y-13226338D02*
X15571496Y-13156291D01*
X15501449Y-13156291D01*
X15501449Y-13226338D01*
X15571496Y-13226338D01*
X15835925Y-11344828D02*
X15835925Y-11274782D01*
X15765878Y-11274782D01*
X15765878Y-11344828D01*
X15835925Y-11344828D01*
X15953819Y-17332003D02*
X15953819Y-17261957D01*
X15883772Y-17261957D01*
X15883772Y-17332003D01*
X15953819Y-17332003D01*
X16061652Y-15213897D02*
X16061652Y-15143851D01*
X15991605Y-15143851D01*
X15991605Y-15213897D01*
X16061652Y-15213897D01*
X16100354Y-9463320D02*
X16100354Y-9393273D01*
X16030307Y-9393273D01*
X16030307Y-9463320D01*
X16100354Y-9463320D01*
X16326081Y-13332388D02*
X16326081Y-13262342D01*
X16256034Y-13262342D01*
X16256034Y-13332388D01*
X16326081Y-13332388D01*
X16590509Y-11450879D02*
X16590509Y-11380832D01*
X16520463Y-11380832D01*
X16520463Y-11450879D01*
X16590509Y-11450879D01*
X16708403Y-17438054D02*
X16708403Y-17368007D01*
X16638357Y-17368007D01*
X16638357Y-17438054D01*
X16708403Y-17438054D01*
X16854939Y-9569370D02*
X16854939Y-9499323D01*
X16784892Y-9499323D01*
X16784892Y-9569370D01*
X16854939Y-9569370D01*
X17167700Y-15520816D02*
X17167700Y-15450770D01*
X17097654Y-15450770D01*
X17097654Y-15520816D01*
X17167700Y-15520816D01*
X17432129Y-13639307D02*
X17432129Y-13569261D01*
X17362083Y-13569261D01*
X17362083Y-13639307D01*
X17432129Y-13639307D01*
X17696558Y-11757798D02*
X17696558Y-11687751D01*
X17626512Y-11687751D01*
X17626512Y-11757798D01*
X17696558Y-11757798D01*
X17922285Y-15626866D02*
X17922285Y-15556820D01*
X17852238Y-15556820D01*
X17852238Y-15626866D01*
X17922285Y-15626866D01*
X17960987Y-9876288D02*
X17960987Y-9806242D01*
X17890940Y-9806242D01*
X17890940Y-9876288D01*
X17960987Y-9876288D01*
X18186714Y-13745357D02*
X18186714Y-13675311D01*
X18116667Y-13675311D01*
X18116667Y-13745357D01*
X18186714Y-13745357D01*
X18451143Y-11863848D02*
X18451143Y-11793801D01*
X18381096Y-11793801D01*
X18381096Y-11863848D01*
X18451143Y-11863848D01*
X18648446Y-18108804D02*
X18648446Y-18038758D01*
X18578399Y-18038758D01*
X18578399Y-18108804D01*
X18648446Y-18108804D01*
X18715572Y-9982339D02*
X18715572Y-9912292D01*
X18645525Y-9912292D01*
X18645525Y-9982339D01*
X18715572Y-9982339D01*
X19321252Y-18466542D02*
X19321252Y-18396495D01*
X19251205Y-18396495D01*
X19251205Y-18466542D01*
X19321252Y-18466542D01*
X23178414Y-18466541D02*
X23178414Y-18396495D01*
X23108367Y-18396495D01*
X23108367Y-18466541D01*
X23178414Y-18466541D01*
X23784095Y-9982339D02*
X23784095Y-9912292D01*
X23714048Y-9912292D01*
X23714048Y-9982339D01*
X23784095Y-9982339D01*
X23851220Y-18108804D02*
X23851220Y-18038757D01*
X23781173Y-18038757D01*
X23781173Y-18108804D01*
X23851220Y-18108804D01*
X24048523Y-11863848D02*
X24048523Y-11793801D01*
X23978476Y-11793801D01*
X23978476Y-11863848D01*
X24048523Y-11863848D01*
X24312952Y-13745357D02*
X24312952Y-13675311D01*
X24242905Y-13675311D01*
X24242905Y-13745357D01*
X24312952Y-13745357D01*
X24538679Y-9876289D02*
X24538679Y-9806242D01*
X24468633Y-9806242D01*
X24468633Y-9876289D01*
X24538679Y-9876289D01*
X24577381Y-15626866D02*
X24577381Y-15556820D01*
X24507334Y-15556820D01*
X24507334Y-15626866D01*
X24577381Y-15626866D01*
X24803108Y-11757798D02*
X24803108Y-11687751D01*
X24733061Y-11687751D01*
X24733061Y-11757798D01*
X24803108Y-11757798D01*
X25067536Y-13639307D02*
X25067536Y-13569260D01*
X24997490Y-13569260D01*
X24997490Y-13639307D01*
X25067536Y-13639307D01*
X25331965Y-15520816D02*
X25331965Y-15450770D01*
X25261919Y-15450770D01*
X25261919Y-15520816D01*
X25331965Y-15520816D01*
X25644728Y-9569369D02*
X25644728Y-9499323D01*
X25574681Y-9499323D01*
X25574681Y-9569369D01*
X25644728Y-9569369D01*
X25791263Y-17438053D02*
X25791263Y-17368007D01*
X25721216Y-17368007D01*
X25721216Y-17438053D01*
X25791263Y-17438053D01*
X25909157Y-11450879D02*
X25909157Y-11380832D01*
X25839110Y-11380832D01*
X25839110Y-11450879D01*
X25909157Y-11450879D01*
X26173586Y-13332388D02*
X26173586Y-13262341D01*
X26103539Y-13262341D01*
X26103539Y-13332388D01*
X26173586Y-13332388D01*
X26399312Y-9463319D02*
X26399312Y-9393273D01*
X26329266Y-9393273D01*
X26329266Y-9463319D01*
X26399312Y-9463319D01*
X26438014Y-15213897D02*
X26438014Y-15143851D01*
X26367968Y-15143851D01*
X26367968Y-15213897D01*
X26438014Y-15213897D01*
X26545848Y-17332003D02*
X26545848Y-17261956D01*
X26475801Y-17261956D01*
X26475801Y-17332003D01*
X26545848Y-17332003D01*
X26663741Y-11344828D02*
X26663741Y-11274782D01*
X26593695Y-11274782D01*
X26593695Y-11344828D01*
X26663741Y-11344828D01*
X26928170Y-13226338D02*
X26928170Y-13156291D01*
X26858124Y-13156291D01*
X26858124Y-13226338D01*
X26928170Y-13226338D01*
X27192599Y-15107847D02*
X27192599Y-15037801D01*
X27122552Y-15037801D01*
X27122552Y-15107847D01*
X27192599Y-15107847D01*
X27456650Y-8809807D02*
X27456650Y-8739760D01*
X27386604Y-8739760D01*
X27386604Y-8809807D01*
X27456650Y-8809807D01*
X27721080Y-10691316D02*
X27721080Y-10621269D01*
X27651033Y-10621269D01*
X27651033Y-10691316D01*
X27721080Y-10691316D01*
X27985508Y-12572825D02*
X27985508Y-12502779D01*
X27915461Y-12502779D01*
X27915461Y-12572825D01*
X27985508Y-12572825D01*
X28211235Y-8703757D02*
X28211235Y-8633710D01*
X28141188Y-8633710D01*
X28141188Y-8703757D01*
X28211235Y-8703757D01*
X28249937Y-14454335D02*
X28249937Y-14384288D01*
X28179890Y-14384288D01*
X28179890Y-14454335D01*
X28249937Y-14454335D01*
X28338274Y-16669026D02*
X28338274Y-16598979D01*
X28268228Y-16598979D01*
X28268228Y-16669026D01*
X28338274Y-16669026D01*
X28475664Y-10585266D02*
X28475664Y-10515219D01*
X28405618Y-10515219D01*
X28405618Y-10585266D01*
X28475664Y-10585266D01*
X28740093Y-12466775D02*
X28740093Y-12396728D01*
X28670046Y-12396728D01*
X28670046Y-12466775D01*
X28740093Y-12466775D01*
X28946835Y-17127609D02*
X28946835Y-17057562D01*
X28876788Y-17057562D01*
X28876788Y-17127609D01*
X28946835Y-17127609D01*
X29004522Y-14348285D02*
X29004522Y-14278238D01*
X28934475Y-14278238D01*
X28934475Y-14348285D01*
X29004522Y-14348285D01*
X29379912Y-8842458D02*
X29379912Y-8772411D01*
X29309865Y-8772411D01*
X29309865Y-8842458D01*
X29379912Y-8842458D01*
X29644341Y-10723967D02*
X29644341Y-10653921D01*
X29574294Y-10653921D01*
X29574294Y-10723967D01*
X29644341Y-10723967D01*
X29908770Y-12605477D02*
X29908770Y-12535430D01*
X29838723Y-12535430D01*
X29838723Y-12605477D01*
X29908770Y-12605477D01*
X30134496Y-8736408D02*
X30134496Y-8666361D01*
X30064450Y-8666361D01*
X30064450Y-8736408D01*
X30134496Y-8736408D01*
X30173198Y-14486986D02*
X30173198Y-14416940D01*
X30103152Y-14416940D01*
X30103152Y-14486986D01*
X30173198Y-14486986D01*
X30398925Y-10617917D02*
X30398925Y-10547871D01*
X30328879Y-10547871D01*
X30328879Y-10617917D01*
X30398925Y-10617917D01*
X30663354Y-12499427D02*
X30663354Y-12429380D01*
X30593308Y-12429380D01*
X30593308Y-12499427D01*
X30663354Y-12499427D01*
X30927783Y-14380936D02*
X30927783Y-14310889D01*
X30857736Y-14310889D01*
X30857736Y-14380936D01*
X30927783Y-14380936D01*
X31407553Y-9617811D02*
X31407553Y-9547764D01*
X31337506Y-9547764D01*
X31337506Y-9617811D01*
X31407553Y-9617811D01*
X31671982Y-11499320D02*
X31671982Y-11429273D01*
X31601935Y-11429273D01*
X31601935Y-11499320D01*
X31671982Y-11499320D01*
X31936410Y-13380829D02*
X31936410Y-13310783D01*
X31866364Y-13310783D01*
X31866364Y-13380829D01*
X31936410Y-13380829D01*
X32162137Y-9511761D02*
X32162137Y-9441714D01*
X32092091Y-9441714D01*
X32092091Y-9511761D01*
X32162137Y-9511761D01*
X32200839Y-15262339D02*
X32200839Y-15192292D01*
X32130793Y-15192292D01*
X32130793Y-15262339D01*
X32200839Y-15262339D01*
X32426566Y-11393270D02*
X32426566Y-11323223D01*
X32356520Y-11323223D01*
X32356520Y-11393270D01*
X32426566Y-11393270D01*
X32690995Y-13274779D02*
X32690995Y-13204732D01*
X32620948Y-13204732D01*
X32620948Y-13274779D01*
X32690995Y-13274779D01*
X32955424Y-15156288D02*
X32955424Y-15086242D01*
X32885377Y-15086242D01*
X32885377Y-15156288D01*
X32955424Y-15156288D01*
X33289062Y-9353382D02*
X33289062Y-9283336D01*
X33219016Y-9283336D01*
X33219016Y-9353382D01*
X33289062Y-9353382D01*
X33553491Y-11234891D02*
X33553491Y-11164844D01*
X33483444Y-11164844D01*
X33483444Y-11234891D01*
X33553491Y-11234891D01*
X33817920Y-13116400D02*
X33817920Y-13046354D01*
X33747874Y-13046354D01*
X33747874Y-13116400D01*
X33817920Y-13116400D01*
X34043647Y-9247332D02*
X34043647Y-9177285D01*
X33973600Y-9177285D01*
X33973600Y-9247332D01*
X34043647Y-9247332D01*
X34308076Y-11128841D02*
X34308076Y-11058794D01*
X34238029Y-11058794D01*
X34238029Y-11128841D01*
X34308076Y-11128841D01*
X34572505Y-13010350D02*
X34572505Y-12940304D01*
X34502458Y-12940304D01*
X34502458Y-13010350D01*
X34572505Y-13010350D01*
X20832810Y-12221673D02*
X20882810Y-12171673D01*
X20832810Y-12121673D01*
X20782810Y-12171673D01*
X20832810Y-12221673D01*
X21086810Y-12221673D02*
X21136810Y-12171673D01*
X21086810Y-12121673D01*
X21036810Y-12171673D01*
X21086810Y-12221673D01*
X21340810Y-12221673D02*
X21390810Y-12171673D01*
X21340810Y-12121673D01*
X21290810Y-12171673D01*
X21340810Y-12221673D01*
X21594810Y-12221674D02*
X21644810Y-12171674D01*
X21594810Y-12121674D01*
X21544810Y-12171674D01*
X21594810Y-12221674D01*
D13*
X20398199Y-10207464D02*
X20507419Y-10316684D01*
X20507419Y-10207464D02*
X20398199Y-10316684D01*
X20507419Y-10262074D02*
G75*
G02*
X20398199Y-10262074I-54610J0D01*
G01*
X20398199Y-10262074D02*
G75*
G02*
X20507419Y-10262074I54610J0D01*
G01*
X20398199Y-10461464D02*
X20507419Y-10570684D01*
X20507419Y-10461464D02*
X20398199Y-10570684D01*
X20507419Y-10516074D02*
G75*
G02*
X20398199Y-10516074I-54610J0D01*
G01*
X20398199Y-10516074D02*
G75*
G02*
X20507419Y-10516074I54610J0D01*
G01*
X20398200Y-8937464D02*
X20507420Y-9046684D01*
X20507420Y-8937464D02*
X20398200Y-9046684D01*
X20507420Y-8992074D02*
G75*
G02*
X20398200Y-8992074I-54610J0D01*
G01*
X20398200Y-8992074D02*
G75*
G02*
X20507420Y-8992074I54610J0D01*
G01*
X20398200Y-9191464D02*
X20507420Y-9300684D01*
X20507420Y-9191464D02*
X20398200Y-9300684D01*
X20507420Y-9246074D02*
G75*
G02*
X20398200Y-9246074I-54610J0D01*
G01*
X20398200Y-9246074D02*
G75*
G02*
X20507420Y-9246074I54610J0D01*
G01*
X20398200Y-9445464D02*
X20507420Y-9554684D01*
X20507420Y-9445464D02*
X20398200Y-9554684D01*
X20507420Y-9500074D02*
G75*
G02*
X20398200Y-9500074I-54610J0D01*
G01*
X20398200Y-9500074D02*
G75*
G02*
X20507420Y-9500074I54610J0D01*
G01*
X20398200Y-9953464D02*
X20507420Y-10062684D01*
X20507420Y-9953464D02*
X20398200Y-10062684D01*
X20507420Y-10008074D02*
G75*
G02*
X20398200Y-10008074I-54610J0D01*
G01*
X20398200Y-10008074D02*
G75*
G02*
X20507420Y-10008074I54610J0D01*
G01*
X20398200Y-10715464D02*
X20507420Y-10824684D01*
X20507420Y-10715464D02*
X20398200Y-10824684D01*
X20507420Y-10770074D02*
G75*
G02*
X20398200Y-10770074I-54610J0D01*
G01*
X20398200Y-10770074D02*
G75*
G02*
X20507420Y-10770074I54610J0D01*
G01*
X20398200Y-11223463D02*
X20507420Y-11332683D01*
X20507420Y-11223463D02*
X20398200Y-11332683D01*
X20507420Y-11278073D02*
G75*
G02*
X20398200Y-11278073I-54610J0D01*
G01*
X20398200Y-11278073D02*
G75*
G02*
X20507420Y-11278073I54610J0D01*
G01*
X20398200Y-11477463D02*
X20507420Y-11586683D01*
X20507420Y-11477463D02*
X20398200Y-11586683D01*
X20507420Y-11532073D02*
G75*
G02*
X20398200Y-11532073I-54610J0D01*
G01*
X20398200Y-11532073D02*
G75*
G02*
X20507420Y-11532073I54610J0D01*
G01*
X20398200Y-11731463D02*
X20507420Y-11840683D01*
X20507420Y-11731463D02*
X20398200Y-11840683D01*
X20507420Y-11786073D02*
G75*
G02*
X20398200Y-11786073I-54610J0D01*
G01*
X20398200Y-11786073D02*
G75*
G02*
X20507420Y-11786073I54610J0D01*
G01*
X20398200Y-9699464D02*
X20507420Y-9808684D01*
X20507420Y-9699464D02*
X20398200Y-9808684D01*
X20507420Y-9754074D02*
G75*
G02*
X20398200Y-9754074I-54610J0D01*
G01*
X20398200Y-9754074D02*
G75*
G02*
X20507420Y-9754074I54610J0D01*
G01*
X20398200Y-10969464D02*
X20507420Y-11078684D01*
X20507420Y-10969464D02*
X20398200Y-11078684D01*
X20507420Y-11024074D02*
G75*
G02*
X20398200Y-11024074I-54610J0D01*
G01*
X20398200Y-11024074D02*
G75*
G02*
X20507420Y-11024074I54610J0D01*
G01*
X21922200Y-9699464D02*
X22031420Y-9808684D01*
X22031420Y-9699464D02*
X21922200Y-9808684D01*
X22031420Y-9754074D02*
G75*
G02*
X21922200Y-9754074I-54610J0D01*
G01*
X21922200Y-9754074D02*
G75*
G02*
X22031420Y-9754074I54610J0D01*
G01*
X21922200Y-10969464D02*
X22031420Y-11078684D01*
X22031420Y-10969464D02*
X21922200Y-11078684D01*
X22031420Y-11024074D02*
G75*
G02*
X21922200Y-11024074I-54610J0D01*
G01*
X21922200Y-11024074D02*
G75*
G02*
X22031420Y-11024074I54610J0D01*
G01*
X21922200Y-8937464D02*
X22031420Y-9046684D01*
X22031420Y-8937464D02*
X21922200Y-9046684D01*
X22031420Y-8992074D02*
G75*
G02*
X21922200Y-8992074I-54610J0D01*
G01*
X21922200Y-8992074D02*
G75*
G02*
X22031420Y-8992074I54610J0D01*
G01*
X21922200Y-9191464D02*
X22031420Y-9300684D01*
X22031420Y-9191464D02*
X21922200Y-9300684D01*
X22031420Y-9246074D02*
G75*
G02*
X21922200Y-9246074I-54610J0D01*
G01*
X21922200Y-9246074D02*
G75*
G02*
X22031420Y-9246074I54610J0D01*
G01*
X21922200Y-9445464D02*
X22031420Y-9554684D01*
X22031420Y-9445464D02*
X21922200Y-9554684D01*
X22031420Y-9500074D02*
G75*
G02*
X21922200Y-9500074I-54610J0D01*
G01*
X21922200Y-9500074D02*
G75*
G02*
X22031420Y-9500074I54610J0D01*
G01*
X21922200Y-9953464D02*
X22031420Y-10062684D01*
X22031420Y-9953464D02*
X21922200Y-10062684D01*
X22031420Y-10008074D02*
G75*
G02*
X21922200Y-10008074I-54610J0D01*
G01*
X21922200Y-10008074D02*
G75*
G02*
X22031420Y-10008074I54610J0D01*
G01*
X21922200Y-10715464D02*
X22031420Y-10824684D01*
X22031420Y-10715464D02*
X21922200Y-10824684D01*
X22031420Y-10770074D02*
G75*
G02*
X21922200Y-10770074I-54610J0D01*
G01*
X21922200Y-10770074D02*
G75*
G02*
X22031420Y-10770074I54610J0D01*
G01*
X21922200Y-11223463D02*
X22031420Y-11332683D01*
X22031420Y-11223463D02*
X21922200Y-11332683D01*
X22031420Y-11278073D02*
G75*
G02*
X21922200Y-11278073I-54610J0D01*
G01*
X21922200Y-11278073D02*
G75*
G02*
X22031420Y-11278073I54610J0D01*
G01*
X21922200Y-11477463D02*
X22031420Y-11586683D01*
X22031420Y-11477463D02*
X21922200Y-11586683D01*
X22031420Y-11532073D02*
G75*
G02*
X21922200Y-11532073I-54610J0D01*
G01*
X21922200Y-11532073D02*
G75*
G02*
X22031420Y-11532073I54610J0D01*
G01*
X21922200Y-11731463D02*
X22031420Y-11840683D01*
X22031420Y-11731463D02*
X21922200Y-11840683D01*
X22031420Y-11786073D02*
G75*
G02*
X21922200Y-11786073I-54610J0D01*
G01*
X21922200Y-11786073D02*
G75*
G02*
X22031420Y-11786073I54610J0D01*
G01*
X21922200Y-10207464D02*
X22031420Y-10316684D01*
X22031420Y-10207464D02*
X21922200Y-10316684D01*
X22031420Y-10262074D02*
G75*
G02*
X21922200Y-10262074I-54610J0D01*
G01*
X21922200Y-10262074D02*
G75*
G02*
X22031420Y-10262074I54610J0D01*
G01*
X21922200Y-10461464D02*
X22031420Y-10570684D01*
X22031420Y-10461464D02*
X21922200Y-10570684D01*
X22031420Y-10516074D02*
G75*
G02*
X21922200Y-10516074I-54610J0D01*
G01*
X21922200Y-10516074D02*
G75*
G02*
X22031420Y-10516074I54610J0D01*
G01*
D14*
X19799810Y-9007404D02*
X19929810Y-9137404D01*
X19929810Y-9007404D02*
X19799810Y-9137404D01*
X19864810Y-9007404D02*
X19864810Y-9137404D01*
X19799810Y-9072404D02*
X19929810Y-9072404D01*
X19799810Y-9657404D02*
X19929810Y-9787404D01*
X19929810Y-9657404D02*
X19799810Y-9787404D01*
X19864810Y-9657404D02*
X19864810Y-9787404D01*
X19799810Y-9722404D02*
X19929810Y-9722404D01*
D15*
X9615126Y-9386575D02*
X9835126Y-9606575D01*
X9835126Y-9386575D02*
X9615126Y-9606575D01*
X9802908Y-9574357D02*
X9802908Y-9418792D01*
X9647343Y-9418792D01*
X9647343Y-9574357D01*
X9802908Y-9574357D01*
X10726740Y-13763881D02*
X10946740Y-13983881D01*
X10946740Y-13763881D02*
X10726740Y-13983881D01*
X10914523Y-13951664D02*
X10914523Y-13796099D01*
X10758958Y-13796099D01*
X10758958Y-13951664D01*
X10914523Y-13951664D01*
X16458519Y-15301555D02*
X16678519Y-15521555D01*
X16678519Y-15301555D02*
X16458519Y-15521555D01*
X16646301Y-15489337D02*
X16646301Y-15333772D01*
X16490736Y-15333772D01*
X16490736Y-15489337D01*
X16646301Y-15489337D01*
X17238585Y-9751103D02*
X17458585Y-9971103D01*
X17458585Y-9751103D02*
X17238585Y-9971103D01*
X17426367Y-9938885D02*
X17426367Y-9783320D01*
X17270802Y-9783320D01*
X17270802Y-9938885D01*
X17426367Y-9938885D01*
X24971035Y-9751103D02*
X25191035Y-9971103D01*
X25191035Y-9751103D02*
X24971035Y-9971103D01*
X25158818Y-9938885D02*
X25158818Y-9783320D01*
X25003253Y-9783320D01*
X25003253Y-9938885D01*
X25158818Y-9938885D01*
X25751100Y-15301555D02*
X25971100Y-15521555D01*
X25971100Y-15301555D02*
X25751100Y-15521555D01*
X25938883Y-15489337D02*
X25938883Y-15333772D01*
X25783318Y-15333772D01*
X25783318Y-15489337D01*
X25938883Y-15489337D01*
X31482879Y-13763881D02*
X31702879Y-13983881D01*
X31702879Y-13763881D02*
X31482879Y-13983881D01*
X31670661Y-13951664D02*
X31670661Y-13796099D01*
X31515096Y-13796099D01*
X31515096Y-13951664D01*
X31670661Y-13951664D01*
X32594493Y-9386575D02*
X32814493Y-9606575D01*
X32814493Y-9386575D02*
X32594493Y-9606575D01*
X32782276Y-9574357D02*
X32782276Y-9418792D01*
X32626711Y-9418792D01*
X32626711Y-9574357D01*
X32782276Y-9574357D01*
D11*
X7324510Y-19883447D02*
X7324510Y-19683447D01*
X7324510Y-19683447D02*
X7372129Y-19683447D01*
X7372129Y-19683447D02*
X7400701Y-19692971D01*
X7400701Y-19692971D02*
X7419748Y-19712018D01*
X7419748Y-19712018D02*
X7429272Y-19731066D01*
X7429272Y-19731066D02*
X7438796Y-19769161D01*
X7438796Y-19769161D02*
X7438796Y-19797733D01*
X7438796Y-19797733D02*
X7429272Y-19835828D01*
X7429272Y-19835828D02*
X7419748Y-19854875D01*
X7419748Y-19854875D02*
X7400701Y-19873923D01*
X7400701Y-19873923D02*
X7372129Y-19883447D01*
X7372129Y-19883447D02*
X7324510Y-19883447D01*
X7524510Y-19883447D02*
X7524510Y-19750113D01*
X7524510Y-19788209D02*
X7534034Y-19769161D01*
X7534034Y-19769161D02*
X7543558Y-19759637D01*
X7543558Y-19759637D02*
X7562605Y-19750113D01*
X7562605Y-19750113D02*
X7581653Y-19750113D01*
X7648320Y-19883447D02*
X7648320Y-19750113D01*
X7648320Y-19683447D02*
X7638796Y-19692971D01*
X7638796Y-19692971D02*
X7648320Y-19702494D01*
X7648320Y-19702494D02*
X7657843Y-19692971D01*
X7657843Y-19692971D02*
X7648320Y-19683447D01*
X7648320Y-19683447D02*
X7648320Y-19702494D01*
X7772129Y-19883447D02*
X7753081Y-19873923D01*
X7753081Y-19873923D02*
X7743558Y-19854875D01*
X7743558Y-19854875D02*
X7743558Y-19683447D01*
X7876891Y-19883447D02*
X7857843Y-19873923D01*
X7857843Y-19873923D02*
X7848320Y-19854875D01*
X7848320Y-19854875D02*
X7848320Y-19683447D01*
X8105462Y-19883447D02*
X8105462Y-19683447D01*
X8105462Y-19683447D02*
X8172129Y-19826304D01*
X8172129Y-19826304D02*
X8238796Y-19683447D01*
X8238796Y-19683447D02*
X8238796Y-19883447D01*
X8419748Y-19883447D02*
X8419748Y-19778685D01*
X8419748Y-19778685D02*
X8410224Y-19759637D01*
X8410224Y-19759637D02*
X8391177Y-19750113D01*
X8391177Y-19750113D02*
X8353081Y-19750113D01*
X8353081Y-19750113D02*
X8334034Y-19759637D01*
X8419748Y-19873923D02*
X8400701Y-19883447D01*
X8400701Y-19883447D02*
X8353081Y-19883447D01*
X8353081Y-19883447D02*
X8334034Y-19873923D01*
X8334034Y-19873923D02*
X8324510Y-19854875D01*
X8324510Y-19854875D02*
X8324510Y-19835828D01*
X8324510Y-19835828D02*
X8334034Y-19816780D01*
X8334034Y-19816780D02*
X8353081Y-19807256D01*
X8353081Y-19807256D02*
X8400701Y-19807256D01*
X8400701Y-19807256D02*
X8419748Y-19797733D01*
X8514986Y-19750113D02*
X8514986Y-19950113D01*
X8514986Y-19759637D02*
X8534034Y-19750113D01*
X8534034Y-19750113D02*
X8572129Y-19750113D01*
X8572129Y-19750113D02*
X8591177Y-19759637D01*
X8591177Y-19759637D02*
X8600701Y-19769161D01*
X8600701Y-19769161D02*
X8610224Y-19788209D01*
X8610224Y-19788209D02*
X8610224Y-19845352D01*
X8610224Y-19845352D02*
X8600701Y-19864399D01*
X8600701Y-19864399D02*
X8591177Y-19873923D01*
X8591177Y-19873923D02*
X8572129Y-19883447D01*
X8572129Y-19883447D02*
X8534034Y-19883447D01*
X8534034Y-19883447D02*
X8514986Y-19873923D01*
X8695939Y-19864399D02*
X8705463Y-19873923D01*
X8705463Y-19873923D02*
X8695939Y-19883447D01*
X8695939Y-19883447D02*
X8686415Y-19873923D01*
X8686415Y-19873923D02*
X8695939Y-19864399D01*
X8695939Y-19864399D02*
X8695939Y-19883447D01*
X8695939Y-19759637D02*
X8705463Y-19769161D01*
X8705463Y-19769161D02*
X8695939Y-19778685D01*
X8695939Y-19778685D02*
X8686415Y-19769161D01*
X8686415Y-19769161D02*
X8695939Y-19759637D01*
X8695939Y-19759637D02*
X8695939Y-19778685D01*
D12*
X7023733Y-20191963D02*
X7063733Y-20231963D01*
X7063733Y-20191963D02*
X7023733Y-20231963D01*
D11*
X7362605Y-20103447D02*
X7381653Y-20103447D01*
X7381653Y-20103447D02*
X7400701Y-20112971D01*
X7400701Y-20112971D02*
X7410224Y-20122494D01*
X7410224Y-20122494D02*
X7419748Y-20141542D01*
X7419748Y-20141542D02*
X7429272Y-20179637D01*
X7429272Y-20179637D02*
X7429272Y-20227256D01*
X7429272Y-20227256D02*
X7419748Y-20265352D01*
X7419748Y-20265352D02*
X7410224Y-20284399D01*
X7410224Y-20284399D02*
X7400701Y-20293923D01*
X7400701Y-20293923D02*
X7381653Y-20303447D01*
X7381653Y-20303447D02*
X7362605Y-20303447D01*
X7362605Y-20303447D02*
X7343558Y-20293923D01*
X7343558Y-20293923D02*
X7334034Y-20284399D01*
X7334034Y-20284399D02*
X7324510Y-20265352D01*
X7324510Y-20265352D02*
X7314986Y-20227256D01*
X7314986Y-20227256D02*
X7314986Y-20179637D01*
X7314986Y-20179637D02*
X7324510Y-20141542D01*
X7324510Y-20141542D02*
X7334034Y-20122494D01*
X7334034Y-20122494D02*
X7343558Y-20112971D01*
X7343558Y-20112971D02*
X7362605Y-20103447D01*
X7514986Y-20284399D02*
X7524510Y-20293923D01*
X7524510Y-20293923D02*
X7514986Y-20303447D01*
X7514986Y-20303447D02*
X7505462Y-20293923D01*
X7505462Y-20293923D02*
X7514986Y-20284399D01*
X7514986Y-20284399D02*
X7514986Y-20303447D01*
X7695939Y-20170113D02*
X7695939Y-20303447D01*
X7648320Y-20093923D02*
X7600701Y-20236780D01*
X7600701Y-20236780D02*
X7724510Y-20236780D01*
X7838796Y-20103447D02*
X7857843Y-20103447D01*
X7857843Y-20103447D02*
X7876891Y-20112971D01*
X7876891Y-20112971D02*
X7886415Y-20122494D01*
X7886415Y-20122494D02*
X7895939Y-20141542D01*
X7895939Y-20141542D02*
X7905462Y-20179637D01*
X7905462Y-20179637D02*
X7905462Y-20227256D01*
X7905462Y-20227256D02*
X7895939Y-20265352D01*
X7895939Y-20265352D02*
X7886415Y-20284399D01*
X7886415Y-20284399D02*
X7876891Y-20293923D01*
X7876891Y-20293923D02*
X7857843Y-20303447D01*
X7857843Y-20303447D02*
X7838796Y-20303447D01*
X7838796Y-20303447D02*
X7819748Y-20293923D01*
X7819748Y-20293923D02*
X7810224Y-20284399D01*
X7810224Y-20284399D02*
X7800701Y-20265352D01*
X7800701Y-20265352D02*
X7791177Y-20227256D01*
X7791177Y-20227256D02*
X7791177Y-20179637D01*
X7791177Y-20179637D02*
X7800701Y-20141542D01*
X7800701Y-20141542D02*
X7810224Y-20122494D01*
X7810224Y-20122494D02*
X7819748Y-20112971D01*
X7819748Y-20112971D02*
X7838796Y-20103447D01*
X8029272Y-20103447D02*
X8048320Y-20103447D01*
X8048320Y-20103447D02*
X8067367Y-20112971D01*
X8067367Y-20112971D02*
X8076891Y-20122494D01*
X8076891Y-20122494D02*
X8086415Y-20141542D01*
X8086415Y-20141542D02*
X8095939Y-20179637D01*
X8095939Y-20179637D02*
X8095939Y-20227256D01*
X8095939Y-20227256D02*
X8086415Y-20265352D01*
X8086415Y-20265352D02*
X8076891Y-20284399D01*
X8076891Y-20284399D02*
X8067367Y-20293923D01*
X8067367Y-20293923D02*
X8048320Y-20303447D01*
X8048320Y-20303447D02*
X8029272Y-20303447D01*
X8029272Y-20303447D02*
X8010224Y-20293923D01*
X8010224Y-20293923D02*
X8000701Y-20284399D01*
X8000701Y-20284399D02*
X7991177Y-20265352D01*
X7991177Y-20265352D02*
X7981653Y-20227256D01*
X7981653Y-20227256D02*
X7981653Y-20179637D01*
X7981653Y-20179637D02*
X7991177Y-20141542D01*
X7991177Y-20141542D02*
X8000701Y-20122494D01*
X8000701Y-20122494D02*
X8010224Y-20112971D01*
X8010224Y-20112971D02*
X8029272Y-20103447D01*
X8181653Y-20303447D02*
X8181653Y-20170113D01*
X8181653Y-20189161D02*
X8191177Y-20179637D01*
X8191177Y-20179637D02*
X8210224Y-20170113D01*
X8210224Y-20170113D02*
X8238796Y-20170113D01*
X8238796Y-20170113D02*
X8257843Y-20179637D01*
X8257843Y-20179637D02*
X8267367Y-20198685D01*
X8267367Y-20198685D02*
X8267367Y-20303447D01*
X8267367Y-20198685D02*
X8276891Y-20179637D01*
X8276891Y-20179637D02*
X8295939Y-20170113D01*
X8295939Y-20170113D02*
X8324510Y-20170113D01*
X8324510Y-20170113D02*
X8343558Y-20179637D01*
X8343558Y-20179637D02*
X8353082Y-20198685D01*
X8353082Y-20198685D02*
X8353082Y-20303447D01*
X8448320Y-20303447D02*
X8448320Y-20170113D01*
X8448320Y-20189161D02*
X8457844Y-20179637D01*
X8457844Y-20179637D02*
X8476891Y-20170113D01*
X8476891Y-20170113D02*
X8505463Y-20170113D01*
X8505463Y-20170113D02*
X8524510Y-20179637D01*
X8524510Y-20179637D02*
X8534034Y-20198685D01*
X8534034Y-20198685D02*
X8534034Y-20303447D01*
X8534034Y-20198685D02*
X8543558Y-20179637D01*
X8543558Y-20179637D02*
X8562605Y-20170113D01*
X8562605Y-20170113D02*
X8591177Y-20170113D01*
X8591177Y-20170113D02*
X8610225Y-20179637D01*
X8610225Y-20179637D02*
X8619748Y-20198685D01*
X8619748Y-20198685D02*
X8619748Y-20303447D01*
X9010225Y-20093923D02*
X8838796Y-20351066D01*
X9267367Y-20103447D02*
X9286415Y-20103447D01*
X9286415Y-20103447D02*
X9305463Y-20112971D01*
X9305463Y-20112971D02*
X9314987Y-20122494D01*
X9314987Y-20122494D02*
X9324510Y-20141542D01*
X9324510Y-20141542D02*
X9334034Y-20179637D01*
X9334034Y-20179637D02*
X9334034Y-20227256D01*
X9334034Y-20227256D02*
X9324510Y-20265352D01*
X9324510Y-20265352D02*
X9314987Y-20284399D01*
X9314987Y-20284399D02*
X9305463Y-20293923D01*
X9305463Y-20293923D02*
X9286415Y-20303447D01*
X9286415Y-20303447D02*
X9267367Y-20303447D01*
X9267367Y-20303447D02*
X9248320Y-20293923D01*
X9248320Y-20293923D02*
X9238796Y-20284399D01*
X9238796Y-20284399D02*
X9229272Y-20265352D01*
X9229272Y-20265352D02*
X9219748Y-20227256D01*
X9219748Y-20227256D02*
X9219748Y-20179637D01*
X9219748Y-20179637D02*
X9229272Y-20141542D01*
X9229272Y-20141542D02*
X9238796Y-20122494D01*
X9238796Y-20122494D02*
X9248320Y-20112971D01*
X9248320Y-20112971D02*
X9267367Y-20103447D01*
X9419748Y-20284399D02*
X9429272Y-20293923D01*
X9429272Y-20293923D02*
X9419748Y-20303447D01*
X9419748Y-20303447D02*
X9410225Y-20293923D01*
X9410225Y-20293923D02*
X9419748Y-20284399D01*
X9419748Y-20284399D02*
X9419748Y-20303447D01*
X9553082Y-20103447D02*
X9572129Y-20103447D01*
X9572129Y-20103447D02*
X9591177Y-20112971D01*
X9591177Y-20112971D02*
X9600701Y-20122494D01*
X9600701Y-20122494D02*
X9610225Y-20141542D01*
X9610225Y-20141542D02*
X9619748Y-20179637D01*
X9619748Y-20179637D02*
X9619748Y-20227256D01*
X9619748Y-20227256D02*
X9610225Y-20265352D01*
X9610225Y-20265352D02*
X9600701Y-20284399D01*
X9600701Y-20284399D02*
X9591177Y-20293923D01*
X9591177Y-20293923D02*
X9572129Y-20303447D01*
X9572129Y-20303447D02*
X9553082Y-20303447D01*
X9553082Y-20303447D02*
X9534034Y-20293923D01*
X9534034Y-20293923D02*
X9524510Y-20284399D01*
X9524510Y-20284399D02*
X9514987Y-20265352D01*
X9514987Y-20265352D02*
X9505463Y-20227256D01*
X9505463Y-20227256D02*
X9505463Y-20179637D01*
X9505463Y-20179637D02*
X9514987Y-20141542D01*
X9514987Y-20141542D02*
X9524510Y-20122494D01*
X9524510Y-20122494D02*
X9534034Y-20112971D01*
X9534034Y-20112971D02*
X9553082Y-20103447D01*
X9810225Y-20303447D02*
X9695939Y-20303447D01*
X9753082Y-20303447D02*
X9753082Y-20103447D01*
X9753082Y-20103447D02*
X9734034Y-20132018D01*
X9734034Y-20132018D02*
X9714987Y-20151066D01*
X9714987Y-20151066D02*
X9695939Y-20160590D01*
X9991177Y-20103447D02*
X9895939Y-20103447D01*
X9895939Y-20103447D02*
X9886415Y-20198685D01*
X9886415Y-20198685D02*
X9895939Y-20189161D01*
X9895939Y-20189161D02*
X9914987Y-20179637D01*
X9914987Y-20179637D02*
X9962606Y-20179637D01*
X9962606Y-20179637D02*
X9981653Y-20189161D01*
X9981653Y-20189161D02*
X9991177Y-20198685D01*
X9991177Y-20198685D02*
X10000701Y-20217733D01*
X10000701Y-20217733D02*
X10000701Y-20265352D01*
X10000701Y-20265352D02*
X9991177Y-20284399D01*
X9991177Y-20284399D02*
X9981653Y-20293923D01*
X9981653Y-20293923D02*
X9962606Y-20303447D01*
X9962606Y-20303447D02*
X9914987Y-20303447D01*
X9914987Y-20303447D02*
X9895939Y-20293923D01*
X9895939Y-20293923D02*
X9886415Y-20284399D01*
X10067368Y-20103447D02*
X10200701Y-20103447D01*
X10200701Y-20103447D02*
X10114987Y-20303447D01*
X10267368Y-20103447D02*
X10267368Y-20141542D01*
X10343558Y-20103447D02*
X10343558Y-20141542D01*
X10638796Y-20379637D02*
X10629272Y-20370113D01*
X10629272Y-20370113D02*
X10610225Y-20341542D01*
X10610225Y-20341542D02*
X10600701Y-20322494D01*
X10600701Y-20322494D02*
X10591177Y-20293923D01*
X10591177Y-20293923D02*
X10581653Y-20246304D01*
X10581653Y-20246304D02*
X10581653Y-20208209D01*
X10581653Y-20208209D02*
X10591177Y-20160590D01*
X10591177Y-20160590D02*
X10600701Y-20132018D01*
X10600701Y-20132018D02*
X10610225Y-20112971D01*
X10610225Y-20112971D02*
X10629272Y-20084399D01*
X10629272Y-20084399D02*
X10638796Y-20074875D01*
X10819749Y-20303447D02*
X10705463Y-20303447D01*
X10762606Y-20303447D02*
X10762606Y-20103447D01*
X10762606Y-20103447D02*
X10743558Y-20132018D01*
X10743558Y-20132018D02*
X10724510Y-20151066D01*
X10724510Y-20151066D02*
X10705463Y-20160590D01*
X10934034Y-20189161D02*
X10914987Y-20179637D01*
X10914987Y-20179637D02*
X10905463Y-20170113D01*
X10905463Y-20170113D02*
X10895939Y-20151066D01*
X10895939Y-20151066D02*
X10895939Y-20141542D01*
X10895939Y-20141542D02*
X10905463Y-20122494D01*
X10905463Y-20122494D02*
X10914987Y-20112971D01*
X10914987Y-20112971D02*
X10934034Y-20103447D01*
X10934034Y-20103447D02*
X10972130Y-20103447D01*
X10972130Y-20103447D02*
X10991177Y-20112971D01*
X10991177Y-20112971D02*
X11000701Y-20122494D01*
X11000701Y-20122494D02*
X11010225Y-20141542D01*
X11010225Y-20141542D02*
X11010225Y-20151066D01*
X11010225Y-20151066D02*
X11000701Y-20170113D01*
X11000701Y-20170113D02*
X10991177Y-20179637D01*
X10991177Y-20179637D02*
X10972130Y-20189161D01*
X10972130Y-20189161D02*
X10934034Y-20189161D01*
X10934034Y-20189161D02*
X10914987Y-20198685D01*
X10914987Y-20198685D02*
X10905463Y-20208209D01*
X10905463Y-20208209D02*
X10895939Y-20227256D01*
X10895939Y-20227256D02*
X10895939Y-20265352D01*
X10895939Y-20265352D02*
X10905463Y-20284399D01*
X10905463Y-20284399D02*
X10914987Y-20293923D01*
X10914987Y-20293923D02*
X10934034Y-20303447D01*
X10934034Y-20303447D02*
X10972130Y-20303447D01*
X10972130Y-20303447D02*
X10991177Y-20293923D01*
X10991177Y-20293923D02*
X11000701Y-20284399D01*
X11000701Y-20284399D02*
X11010225Y-20265352D01*
X11010225Y-20265352D02*
X11010225Y-20227256D01*
X11010225Y-20227256D02*
X11000701Y-20208209D01*
X11000701Y-20208209D02*
X10991177Y-20198685D01*
X10991177Y-20198685D02*
X10972130Y-20189161D01*
X11181653Y-20170113D02*
X11181653Y-20303447D01*
X11134034Y-20093923D02*
X11086415Y-20236780D01*
X11086415Y-20236780D02*
X11210225Y-20236780D01*
X11438796Y-20303447D02*
X11438796Y-20103447D01*
X11524510Y-20303447D02*
X11524510Y-20198685D01*
X11524510Y-20198685D02*
X11514987Y-20179637D01*
X11514987Y-20179637D02*
X11495939Y-20170113D01*
X11495939Y-20170113D02*
X11467368Y-20170113D01*
X11467368Y-20170113D02*
X11448320Y-20179637D01*
X11448320Y-20179637D02*
X11438796Y-20189161D01*
X11648320Y-20303447D02*
X11629272Y-20293923D01*
X11629272Y-20293923D02*
X11619749Y-20284399D01*
X11619749Y-20284399D02*
X11610225Y-20265352D01*
X11610225Y-20265352D02*
X11610225Y-20208209D01*
X11610225Y-20208209D02*
X11619749Y-20189161D01*
X11619749Y-20189161D02*
X11629272Y-20179637D01*
X11629272Y-20179637D02*
X11648320Y-20170113D01*
X11648320Y-20170113D02*
X11676891Y-20170113D01*
X11676891Y-20170113D02*
X11695939Y-20179637D01*
X11695939Y-20179637D02*
X11705463Y-20189161D01*
X11705463Y-20189161D02*
X11714987Y-20208209D01*
X11714987Y-20208209D02*
X11714987Y-20265352D01*
X11714987Y-20265352D02*
X11705463Y-20284399D01*
X11705463Y-20284399D02*
X11695939Y-20293923D01*
X11695939Y-20293923D02*
X11676891Y-20303447D01*
X11676891Y-20303447D02*
X11648320Y-20303447D01*
X11829272Y-20303447D02*
X11810225Y-20293923D01*
X11810225Y-20293923D02*
X11800701Y-20274875D01*
X11800701Y-20274875D02*
X11800701Y-20103447D01*
X11981653Y-20293923D02*
X11962606Y-20303447D01*
X11962606Y-20303447D02*
X11924510Y-20303447D01*
X11924510Y-20303447D02*
X11905463Y-20293923D01*
X11905463Y-20293923D02*
X11895939Y-20274875D01*
X11895939Y-20274875D02*
X11895939Y-20198685D01*
X11895939Y-20198685D02*
X11905463Y-20179637D01*
X11905463Y-20179637D02*
X11924510Y-20170113D01*
X11924510Y-20170113D02*
X11962606Y-20170113D01*
X11962606Y-20170113D02*
X11981653Y-20179637D01*
X11981653Y-20179637D02*
X11991177Y-20198685D01*
X11991177Y-20198685D02*
X11991177Y-20217733D01*
X11991177Y-20217733D02*
X11895939Y-20236780D01*
X12067368Y-20293923D02*
X12086415Y-20303447D01*
X12086415Y-20303447D02*
X12124510Y-20303447D01*
X12124510Y-20303447D02*
X12143558Y-20293923D01*
X12143558Y-20293923D02*
X12153082Y-20274875D01*
X12153082Y-20274875D02*
X12153082Y-20265352D01*
X12153082Y-20265352D02*
X12143558Y-20246304D01*
X12143558Y-20246304D02*
X12124510Y-20236780D01*
X12124510Y-20236780D02*
X12095939Y-20236780D01*
X12095939Y-20236780D02*
X12076891Y-20227256D01*
X12076891Y-20227256D02*
X12067368Y-20208209D01*
X12067368Y-20208209D02*
X12067368Y-20198685D01*
X12067368Y-20198685D02*
X12076891Y-20179637D01*
X12076891Y-20179637D02*
X12095939Y-20170113D01*
X12095939Y-20170113D02*
X12124510Y-20170113D01*
X12124510Y-20170113D02*
X12143558Y-20179637D01*
X12219749Y-20379637D02*
X12229272Y-20370113D01*
X12229272Y-20370113D02*
X12248320Y-20341542D01*
X12248320Y-20341542D02*
X12257844Y-20322494D01*
X12257844Y-20322494D02*
X12267368Y-20293923D01*
X12267368Y-20293923D02*
X12276891Y-20246304D01*
X12276891Y-20246304D02*
X12276891Y-20208209D01*
X12276891Y-20208209D02*
X12267368Y-20160590D01*
X12267368Y-20160590D02*
X12257844Y-20132018D01*
X12257844Y-20132018D02*
X12248320Y-20112971D01*
X12248320Y-20112971D02*
X12229272Y-20084399D01*
X12229272Y-20084399D02*
X12219749Y-20074875D01*
D12*
X7063733Y-20475963D02*
G75*
G02*
X7023733Y-20475963I-20000J0D01*
G01*
X7023733Y-20475963D02*
G75*
G02*
X7063733Y-20475963I20000J0D01*
G01*
D11*
X7362605Y-20367447D02*
X7381653Y-20367447D01*
X7381653Y-20367447D02*
X7400701Y-20376971D01*
X7400701Y-20376971D02*
X7410224Y-20386494D01*
X7410224Y-20386494D02*
X7419748Y-20405542D01*
X7419748Y-20405542D02*
X7429272Y-20443637D01*
X7429272Y-20443637D02*
X7429272Y-20491256D01*
X7429272Y-20491256D02*
X7419748Y-20529352D01*
X7419748Y-20529352D02*
X7410224Y-20548399D01*
X7410224Y-20548399D02*
X7400701Y-20557923D01*
X7400701Y-20557923D02*
X7381653Y-20567447D01*
X7381653Y-20567447D02*
X7362605Y-20567447D01*
X7362605Y-20567447D02*
X7343558Y-20557923D01*
X7343558Y-20557923D02*
X7334034Y-20548399D01*
X7334034Y-20548399D02*
X7324510Y-20529352D01*
X7324510Y-20529352D02*
X7314986Y-20491256D01*
X7314986Y-20491256D02*
X7314986Y-20443637D01*
X7314986Y-20443637D02*
X7324510Y-20405542D01*
X7324510Y-20405542D02*
X7334034Y-20386494D01*
X7334034Y-20386494D02*
X7343558Y-20376971D01*
X7343558Y-20376971D02*
X7362605Y-20367447D01*
X7514986Y-20548399D02*
X7524510Y-20557923D01*
X7524510Y-20557923D02*
X7514986Y-20567447D01*
X7514986Y-20567447D02*
X7505462Y-20557923D01*
X7505462Y-20557923D02*
X7514986Y-20548399D01*
X7514986Y-20548399D02*
X7514986Y-20567447D01*
X7695939Y-20434113D02*
X7695939Y-20567447D01*
X7648320Y-20357923D02*
X7600701Y-20500780D01*
X7600701Y-20500780D02*
X7724510Y-20500780D01*
X7838796Y-20367447D02*
X7857843Y-20367447D01*
X7857843Y-20367447D02*
X7876891Y-20376971D01*
X7876891Y-20376971D02*
X7886415Y-20386494D01*
X7886415Y-20386494D02*
X7895939Y-20405542D01*
X7895939Y-20405542D02*
X7905462Y-20443637D01*
X7905462Y-20443637D02*
X7905462Y-20491256D01*
X7905462Y-20491256D02*
X7895939Y-20529352D01*
X7895939Y-20529352D02*
X7886415Y-20548399D01*
X7886415Y-20548399D02*
X7876891Y-20557923D01*
X7876891Y-20557923D02*
X7857843Y-20567447D01*
X7857843Y-20567447D02*
X7838796Y-20567447D01*
X7838796Y-20567447D02*
X7819748Y-20557923D01*
X7819748Y-20557923D02*
X7810224Y-20548399D01*
X7810224Y-20548399D02*
X7800701Y-20529352D01*
X7800701Y-20529352D02*
X7791177Y-20491256D01*
X7791177Y-20491256D02*
X7791177Y-20443637D01*
X7791177Y-20443637D02*
X7800701Y-20405542D01*
X7800701Y-20405542D02*
X7810224Y-20386494D01*
X7810224Y-20386494D02*
X7819748Y-20376971D01*
X7819748Y-20376971D02*
X7838796Y-20367447D01*
X8029272Y-20367447D02*
X8048320Y-20367447D01*
X8048320Y-20367447D02*
X8067367Y-20376971D01*
X8067367Y-20376971D02*
X8076891Y-20386494D01*
X8076891Y-20386494D02*
X8086415Y-20405542D01*
X8086415Y-20405542D02*
X8095939Y-20443637D01*
X8095939Y-20443637D02*
X8095939Y-20491256D01*
X8095939Y-20491256D02*
X8086415Y-20529352D01*
X8086415Y-20529352D02*
X8076891Y-20548399D01*
X8076891Y-20548399D02*
X8067367Y-20557923D01*
X8067367Y-20557923D02*
X8048320Y-20567447D01*
X8048320Y-20567447D02*
X8029272Y-20567447D01*
X8029272Y-20567447D02*
X8010224Y-20557923D01*
X8010224Y-20557923D02*
X8000701Y-20548399D01*
X8000701Y-20548399D02*
X7991177Y-20529352D01*
X7991177Y-20529352D02*
X7981653Y-20491256D01*
X7981653Y-20491256D02*
X7981653Y-20443637D01*
X7981653Y-20443637D02*
X7991177Y-20405542D01*
X7991177Y-20405542D02*
X8000701Y-20386494D01*
X8000701Y-20386494D02*
X8010224Y-20376971D01*
X8010224Y-20376971D02*
X8029272Y-20367447D01*
X8181653Y-20567447D02*
X8181653Y-20434113D01*
X8181653Y-20453161D02*
X8191177Y-20443637D01*
X8191177Y-20443637D02*
X8210224Y-20434113D01*
X8210224Y-20434113D02*
X8238796Y-20434113D01*
X8238796Y-20434113D02*
X8257843Y-20443637D01*
X8257843Y-20443637D02*
X8267367Y-20462685D01*
X8267367Y-20462685D02*
X8267367Y-20567447D01*
X8267367Y-20462685D02*
X8276891Y-20443637D01*
X8276891Y-20443637D02*
X8295939Y-20434113D01*
X8295939Y-20434113D02*
X8324510Y-20434113D01*
X8324510Y-20434113D02*
X8343558Y-20443637D01*
X8343558Y-20443637D02*
X8353082Y-20462685D01*
X8353082Y-20462685D02*
X8353082Y-20567447D01*
X8448320Y-20567447D02*
X8448320Y-20434113D01*
X8448320Y-20453161D02*
X8457844Y-20443637D01*
X8457844Y-20443637D02*
X8476891Y-20434113D01*
X8476891Y-20434113D02*
X8505463Y-20434113D01*
X8505463Y-20434113D02*
X8524510Y-20443637D01*
X8524510Y-20443637D02*
X8534034Y-20462685D01*
X8534034Y-20462685D02*
X8534034Y-20567447D01*
X8534034Y-20462685D02*
X8543558Y-20443637D01*
X8543558Y-20443637D02*
X8562605Y-20434113D01*
X8562605Y-20434113D02*
X8591177Y-20434113D01*
X8591177Y-20434113D02*
X8610225Y-20443637D01*
X8610225Y-20443637D02*
X8619748Y-20462685D01*
X8619748Y-20462685D02*
X8619748Y-20567447D01*
X9010225Y-20357923D02*
X8838796Y-20615066D01*
X9267367Y-20367447D02*
X9286415Y-20367447D01*
X9286415Y-20367447D02*
X9305463Y-20376971D01*
X9305463Y-20376971D02*
X9314987Y-20386494D01*
X9314987Y-20386494D02*
X9324510Y-20405542D01*
X9324510Y-20405542D02*
X9334034Y-20443637D01*
X9334034Y-20443637D02*
X9334034Y-20491256D01*
X9334034Y-20491256D02*
X9324510Y-20529352D01*
X9324510Y-20529352D02*
X9314987Y-20548399D01*
X9314987Y-20548399D02*
X9305463Y-20557923D01*
X9305463Y-20557923D02*
X9286415Y-20567447D01*
X9286415Y-20567447D02*
X9267367Y-20567447D01*
X9267367Y-20567447D02*
X9248320Y-20557923D01*
X9248320Y-20557923D02*
X9238796Y-20548399D01*
X9238796Y-20548399D02*
X9229272Y-20529352D01*
X9229272Y-20529352D02*
X9219748Y-20491256D01*
X9219748Y-20491256D02*
X9219748Y-20443637D01*
X9219748Y-20443637D02*
X9229272Y-20405542D01*
X9229272Y-20405542D02*
X9238796Y-20386494D01*
X9238796Y-20386494D02*
X9248320Y-20376971D01*
X9248320Y-20376971D02*
X9267367Y-20367447D01*
X9419748Y-20548399D02*
X9429272Y-20557923D01*
X9429272Y-20557923D02*
X9419748Y-20567447D01*
X9419748Y-20567447D02*
X9410225Y-20557923D01*
X9410225Y-20557923D02*
X9419748Y-20548399D01*
X9419748Y-20548399D02*
X9419748Y-20567447D01*
X9553082Y-20367447D02*
X9572129Y-20367447D01*
X9572129Y-20367447D02*
X9591177Y-20376971D01*
X9591177Y-20376971D02*
X9600701Y-20386494D01*
X9600701Y-20386494D02*
X9610225Y-20405542D01*
X9610225Y-20405542D02*
X9619748Y-20443637D01*
X9619748Y-20443637D02*
X9619748Y-20491256D01*
X9619748Y-20491256D02*
X9610225Y-20529352D01*
X9610225Y-20529352D02*
X9600701Y-20548399D01*
X9600701Y-20548399D02*
X9591177Y-20557923D01*
X9591177Y-20557923D02*
X9572129Y-20567447D01*
X9572129Y-20567447D02*
X9553082Y-20567447D01*
X9553082Y-20567447D02*
X9534034Y-20557923D01*
X9534034Y-20557923D02*
X9524510Y-20548399D01*
X9524510Y-20548399D02*
X9514987Y-20529352D01*
X9514987Y-20529352D02*
X9505463Y-20491256D01*
X9505463Y-20491256D02*
X9505463Y-20443637D01*
X9505463Y-20443637D02*
X9514987Y-20405542D01*
X9514987Y-20405542D02*
X9524510Y-20386494D01*
X9524510Y-20386494D02*
X9534034Y-20376971D01*
X9534034Y-20376971D02*
X9553082Y-20367447D01*
X9810225Y-20567447D02*
X9695939Y-20567447D01*
X9753082Y-20567447D02*
X9753082Y-20367447D01*
X9753082Y-20367447D02*
X9734034Y-20396018D01*
X9734034Y-20396018D02*
X9714987Y-20415066D01*
X9714987Y-20415066D02*
X9695939Y-20424590D01*
X9991177Y-20367447D02*
X9895939Y-20367447D01*
X9895939Y-20367447D02*
X9886415Y-20462685D01*
X9886415Y-20462685D02*
X9895939Y-20453161D01*
X9895939Y-20453161D02*
X9914987Y-20443637D01*
X9914987Y-20443637D02*
X9962606Y-20443637D01*
X9962606Y-20443637D02*
X9981653Y-20453161D01*
X9981653Y-20453161D02*
X9991177Y-20462685D01*
X9991177Y-20462685D02*
X10000701Y-20481733D01*
X10000701Y-20481733D02*
X10000701Y-20529352D01*
X10000701Y-20529352D02*
X9991177Y-20548399D01*
X9991177Y-20548399D02*
X9981653Y-20557923D01*
X9981653Y-20557923D02*
X9962606Y-20567447D01*
X9962606Y-20567447D02*
X9914987Y-20567447D01*
X9914987Y-20567447D02*
X9895939Y-20557923D01*
X9895939Y-20557923D02*
X9886415Y-20548399D01*
X10067368Y-20367447D02*
X10200701Y-20367447D01*
X10200701Y-20367447D02*
X10114987Y-20567447D01*
X10267368Y-20367447D02*
X10267368Y-20405542D01*
X10343558Y-20367447D02*
X10343558Y-20405542D01*
X10638796Y-20643637D02*
X10629272Y-20634113D01*
X10629272Y-20634113D02*
X10610225Y-20605542D01*
X10610225Y-20605542D02*
X10600701Y-20586494D01*
X10600701Y-20586494D02*
X10591177Y-20557923D01*
X10591177Y-20557923D02*
X10581653Y-20510304D01*
X10581653Y-20510304D02*
X10581653Y-20472209D01*
X10581653Y-20472209D02*
X10591177Y-20424590D01*
X10591177Y-20424590D02*
X10600701Y-20396018D01*
X10600701Y-20396018D02*
X10610225Y-20376971D01*
X10610225Y-20376971D02*
X10629272Y-20348399D01*
X10629272Y-20348399D02*
X10638796Y-20338875D01*
X10800701Y-20367447D02*
X10762606Y-20367447D01*
X10762606Y-20367447D02*
X10743558Y-20376971D01*
X10743558Y-20376971D02*
X10734034Y-20386494D01*
X10734034Y-20386494D02*
X10714987Y-20415066D01*
X10714987Y-20415066D02*
X10705463Y-20453161D01*
X10705463Y-20453161D02*
X10705463Y-20529352D01*
X10705463Y-20529352D02*
X10714987Y-20548399D01*
X10714987Y-20548399D02*
X10724510Y-20557923D01*
X10724510Y-20557923D02*
X10743558Y-20567447D01*
X10743558Y-20567447D02*
X10781653Y-20567447D01*
X10781653Y-20567447D02*
X10800701Y-20557923D01*
X10800701Y-20557923D02*
X10810225Y-20548399D01*
X10810225Y-20548399D02*
X10819749Y-20529352D01*
X10819749Y-20529352D02*
X10819749Y-20481733D01*
X10819749Y-20481733D02*
X10810225Y-20462685D01*
X10810225Y-20462685D02*
X10800701Y-20453161D01*
X10800701Y-20453161D02*
X10781653Y-20443637D01*
X10781653Y-20443637D02*
X10743558Y-20443637D01*
X10743558Y-20443637D02*
X10724510Y-20453161D01*
X10724510Y-20453161D02*
X10714987Y-20462685D01*
X10714987Y-20462685D02*
X10705463Y-20481733D01*
X10991177Y-20434113D02*
X10991177Y-20567447D01*
X10943558Y-20357923D02*
X10895939Y-20500780D01*
X10895939Y-20500780D02*
X11019749Y-20500780D01*
X11248320Y-20567447D02*
X11248320Y-20367447D01*
X11334034Y-20567447D02*
X11334034Y-20462685D01*
X11334034Y-20462685D02*
X11324510Y-20443637D01*
X11324510Y-20443637D02*
X11305463Y-20434113D01*
X11305463Y-20434113D02*
X11276891Y-20434113D01*
X11276891Y-20434113D02*
X11257844Y-20443637D01*
X11257844Y-20443637D02*
X11248320Y-20453161D01*
X11457844Y-20567447D02*
X11438796Y-20557923D01*
X11438796Y-20557923D02*
X11429272Y-20548399D01*
X11429272Y-20548399D02*
X11419749Y-20529352D01*
X11419749Y-20529352D02*
X11419749Y-20472209D01*
X11419749Y-20472209D02*
X11429272Y-20453161D01*
X11429272Y-20453161D02*
X11438796Y-20443637D01*
X11438796Y-20443637D02*
X11457844Y-20434113D01*
X11457844Y-20434113D02*
X11486415Y-20434113D01*
X11486415Y-20434113D02*
X11505463Y-20443637D01*
X11505463Y-20443637D02*
X11514987Y-20453161D01*
X11514987Y-20453161D02*
X11524510Y-20472209D01*
X11524510Y-20472209D02*
X11524510Y-20529352D01*
X11524510Y-20529352D02*
X11514987Y-20548399D01*
X11514987Y-20548399D02*
X11505463Y-20557923D01*
X11505463Y-20557923D02*
X11486415Y-20567447D01*
X11486415Y-20567447D02*
X11457844Y-20567447D01*
X11638796Y-20567447D02*
X11619749Y-20557923D01*
X11619749Y-20557923D02*
X11610225Y-20538875D01*
X11610225Y-20538875D02*
X11610225Y-20367447D01*
X11791177Y-20557923D02*
X11772130Y-20567447D01*
X11772130Y-20567447D02*
X11734034Y-20567447D01*
X11734034Y-20567447D02*
X11714987Y-20557923D01*
X11714987Y-20557923D02*
X11705463Y-20538875D01*
X11705463Y-20538875D02*
X11705463Y-20462685D01*
X11705463Y-20462685D02*
X11714987Y-20443637D01*
X11714987Y-20443637D02*
X11734034Y-20434113D01*
X11734034Y-20434113D02*
X11772130Y-20434113D01*
X11772130Y-20434113D02*
X11791177Y-20443637D01*
X11791177Y-20443637D02*
X11800701Y-20462685D01*
X11800701Y-20462685D02*
X11800701Y-20481733D01*
X11800701Y-20481733D02*
X11705463Y-20500780D01*
X11876891Y-20557923D02*
X11895939Y-20567447D01*
X11895939Y-20567447D02*
X11934034Y-20567447D01*
X11934034Y-20567447D02*
X11953082Y-20557923D01*
X11953082Y-20557923D02*
X11962606Y-20538875D01*
X11962606Y-20538875D02*
X11962606Y-20529352D01*
X11962606Y-20529352D02*
X11953082Y-20510304D01*
X11953082Y-20510304D02*
X11934034Y-20500780D01*
X11934034Y-20500780D02*
X11905463Y-20500780D01*
X11905463Y-20500780D02*
X11886415Y-20491256D01*
X11886415Y-20491256D02*
X11876891Y-20472209D01*
X11876891Y-20472209D02*
X11876891Y-20462685D01*
X11876891Y-20462685D02*
X11886415Y-20443637D01*
X11886415Y-20443637D02*
X11905463Y-20434113D01*
X11905463Y-20434113D02*
X11934034Y-20434113D01*
X11934034Y-20434113D02*
X11953082Y-20443637D01*
X12029272Y-20643637D02*
X12038796Y-20634113D01*
X12038796Y-20634113D02*
X12057844Y-20605542D01*
X12057844Y-20605542D02*
X12067368Y-20586494D01*
X12067368Y-20586494D02*
X12076891Y-20557923D01*
X12076891Y-20557923D02*
X12086415Y-20510304D01*
X12086415Y-20510304D02*
X12086415Y-20472209D01*
X12086415Y-20472209D02*
X12076891Y-20424590D01*
X12076891Y-20424590D02*
X12067368Y-20396018D01*
X12067368Y-20396018D02*
X12057844Y-20376971D01*
X12057844Y-20376971D02*
X12038796Y-20348399D01*
X12038796Y-20348399D02*
X12029272Y-20338875D01*
D12*
X7026233Y-20702463D02*
X7026233Y-20777463D01*
X6988733Y-20739963D02*
X7063733Y-20739963D01*
D11*
X7362605Y-20631447D02*
X7381653Y-20631447D01*
X7381653Y-20631447D02*
X7400701Y-20640971D01*
X7400701Y-20640971D02*
X7410224Y-20650494D01*
X7410224Y-20650494D02*
X7419748Y-20669542D01*
X7419748Y-20669542D02*
X7429272Y-20707637D01*
X7429272Y-20707637D02*
X7429272Y-20755256D01*
X7429272Y-20755256D02*
X7419748Y-20793352D01*
X7419748Y-20793352D02*
X7410224Y-20812399D01*
X7410224Y-20812399D02*
X7400701Y-20821923D01*
X7400701Y-20821923D02*
X7381653Y-20831447D01*
X7381653Y-20831447D02*
X7362605Y-20831447D01*
X7362605Y-20831447D02*
X7343558Y-20821923D01*
X7343558Y-20821923D02*
X7334034Y-20812399D01*
X7334034Y-20812399D02*
X7324510Y-20793352D01*
X7324510Y-20793352D02*
X7314986Y-20755256D01*
X7314986Y-20755256D02*
X7314986Y-20707637D01*
X7314986Y-20707637D02*
X7324510Y-20669542D01*
X7324510Y-20669542D02*
X7334034Y-20650494D01*
X7334034Y-20650494D02*
X7343558Y-20640971D01*
X7343558Y-20640971D02*
X7362605Y-20631447D01*
X7514986Y-20812399D02*
X7524510Y-20821923D01*
X7524510Y-20821923D02*
X7514986Y-20831447D01*
X7514986Y-20831447D02*
X7505462Y-20821923D01*
X7505462Y-20821923D02*
X7514986Y-20812399D01*
X7514986Y-20812399D02*
X7514986Y-20831447D01*
X7591177Y-20631447D02*
X7724510Y-20631447D01*
X7724510Y-20631447D02*
X7638796Y-20831447D01*
X7895939Y-20631447D02*
X7800701Y-20631447D01*
X7800701Y-20631447D02*
X7791177Y-20726685D01*
X7791177Y-20726685D02*
X7800701Y-20717161D01*
X7800701Y-20717161D02*
X7819748Y-20707637D01*
X7819748Y-20707637D02*
X7867367Y-20707637D01*
X7867367Y-20707637D02*
X7886415Y-20717161D01*
X7886415Y-20717161D02*
X7895939Y-20726685D01*
X7895939Y-20726685D02*
X7905462Y-20745733D01*
X7905462Y-20745733D02*
X7905462Y-20793352D01*
X7905462Y-20793352D02*
X7895939Y-20812399D01*
X7895939Y-20812399D02*
X7886415Y-20821923D01*
X7886415Y-20821923D02*
X7867367Y-20831447D01*
X7867367Y-20831447D02*
X7819748Y-20831447D01*
X7819748Y-20831447D02*
X7800701Y-20821923D01*
X7800701Y-20821923D02*
X7791177Y-20812399D01*
X8029272Y-20631447D02*
X8048320Y-20631447D01*
X8048320Y-20631447D02*
X8067367Y-20640971D01*
X8067367Y-20640971D02*
X8076891Y-20650494D01*
X8076891Y-20650494D02*
X8086415Y-20669542D01*
X8086415Y-20669542D02*
X8095939Y-20707637D01*
X8095939Y-20707637D02*
X8095939Y-20755256D01*
X8095939Y-20755256D02*
X8086415Y-20793352D01*
X8086415Y-20793352D02*
X8076891Y-20812399D01*
X8076891Y-20812399D02*
X8067367Y-20821923D01*
X8067367Y-20821923D02*
X8048320Y-20831447D01*
X8048320Y-20831447D02*
X8029272Y-20831447D01*
X8029272Y-20831447D02*
X8010224Y-20821923D01*
X8010224Y-20821923D02*
X8000701Y-20812399D01*
X8000701Y-20812399D02*
X7991177Y-20793352D01*
X7991177Y-20793352D02*
X7981653Y-20755256D01*
X7981653Y-20755256D02*
X7981653Y-20707637D01*
X7981653Y-20707637D02*
X7991177Y-20669542D01*
X7991177Y-20669542D02*
X8000701Y-20650494D01*
X8000701Y-20650494D02*
X8010224Y-20640971D01*
X8010224Y-20640971D02*
X8029272Y-20631447D01*
X8181653Y-20831447D02*
X8181653Y-20698113D01*
X8181653Y-20717161D02*
X8191177Y-20707637D01*
X8191177Y-20707637D02*
X8210224Y-20698113D01*
X8210224Y-20698113D02*
X8238796Y-20698113D01*
X8238796Y-20698113D02*
X8257843Y-20707637D01*
X8257843Y-20707637D02*
X8267367Y-20726685D01*
X8267367Y-20726685D02*
X8267367Y-20831447D01*
X8267367Y-20726685D02*
X8276891Y-20707637D01*
X8276891Y-20707637D02*
X8295939Y-20698113D01*
X8295939Y-20698113D02*
X8324510Y-20698113D01*
X8324510Y-20698113D02*
X8343558Y-20707637D01*
X8343558Y-20707637D02*
X8353082Y-20726685D01*
X8353082Y-20726685D02*
X8353082Y-20831447D01*
X8448320Y-20831447D02*
X8448320Y-20698113D01*
X8448320Y-20717161D02*
X8457844Y-20707637D01*
X8457844Y-20707637D02*
X8476891Y-20698113D01*
X8476891Y-20698113D02*
X8505463Y-20698113D01*
X8505463Y-20698113D02*
X8524510Y-20707637D01*
X8524510Y-20707637D02*
X8534034Y-20726685D01*
X8534034Y-20726685D02*
X8534034Y-20831447D01*
X8534034Y-20726685D02*
X8543558Y-20707637D01*
X8543558Y-20707637D02*
X8562605Y-20698113D01*
X8562605Y-20698113D02*
X8591177Y-20698113D01*
X8591177Y-20698113D02*
X8610225Y-20707637D01*
X8610225Y-20707637D02*
X8619748Y-20726685D01*
X8619748Y-20726685D02*
X8619748Y-20831447D01*
X9010225Y-20621923D02*
X8838796Y-20879066D01*
X9267367Y-20631447D02*
X9286415Y-20631447D01*
X9286415Y-20631447D02*
X9305463Y-20640971D01*
X9305463Y-20640971D02*
X9314987Y-20650494D01*
X9314987Y-20650494D02*
X9324510Y-20669542D01*
X9324510Y-20669542D02*
X9334034Y-20707637D01*
X9334034Y-20707637D02*
X9334034Y-20755256D01*
X9334034Y-20755256D02*
X9324510Y-20793352D01*
X9324510Y-20793352D02*
X9314987Y-20812399D01*
X9314987Y-20812399D02*
X9305463Y-20821923D01*
X9305463Y-20821923D02*
X9286415Y-20831447D01*
X9286415Y-20831447D02*
X9267367Y-20831447D01*
X9267367Y-20831447D02*
X9248320Y-20821923D01*
X9248320Y-20821923D02*
X9238796Y-20812399D01*
X9238796Y-20812399D02*
X9229272Y-20793352D01*
X9229272Y-20793352D02*
X9219748Y-20755256D01*
X9219748Y-20755256D02*
X9219748Y-20707637D01*
X9219748Y-20707637D02*
X9229272Y-20669542D01*
X9229272Y-20669542D02*
X9238796Y-20650494D01*
X9238796Y-20650494D02*
X9248320Y-20640971D01*
X9248320Y-20640971D02*
X9267367Y-20631447D01*
X9419748Y-20812399D02*
X9429272Y-20821923D01*
X9429272Y-20821923D02*
X9419748Y-20831447D01*
X9419748Y-20831447D02*
X9410225Y-20821923D01*
X9410225Y-20821923D02*
X9419748Y-20812399D01*
X9419748Y-20812399D02*
X9419748Y-20831447D01*
X9553082Y-20631447D02*
X9572129Y-20631447D01*
X9572129Y-20631447D02*
X9591177Y-20640971D01*
X9591177Y-20640971D02*
X9600701Y-20650494D01*
X9600701Y-20650494D02*
X9610225Y-20669542D01*
X9610225Y-20669542D02*
X9619748Y-20707637D01*
X9619748Y-20707637D02*
X9619748Y-20755256D01*
X9619748Y-20755256D02*
X9610225Y-20793352D01*
X9610225Y-20793352D02*
X9600701Y-20812399D01*
X9600701Y-20812399D02*
X9591177Y-20821923D01*
X9591177Y-20821923D02*
X9572129Y-20831447D01*
X9572129Y-20831447D02*
X9553082Y-20831447D01*
X9553082Y-20831447D02*
X9534034Y-20821923D01*
X9534034Y-20821923D02*
X9524510Y-20812399D01*
X9524510Y-20812399D02*
X9514987Y-20793352D01*
X9514987Y-20793352D02*
X9505463Y-20755256D01*
X9505463Y-20755256D02*
X9505463Y-20707637D01*
X9505463Y-20707637D02*
X9514987Y-20669542D01*
X9514987Y-20669542D02*
X9524510Y-20650494D01*
X9524510Y-20650494D02*
X9534034Y-20640971D01*
X9534034Y-20640971D02*
X9553082Y-20631447D01*
X9695939Y-20650494D02*
X9705463Y-20640971D01*
X9705463Y-20640971D02*
X9724510Y-20631447D01*
X9724510Y-20631447D02*
X9772129Y-20631447D01*
X9772129Y-20631447D02*
X9791177Y-20640971D01*
X9791177Y-20640971D02*
X9800701Y-20650494D01*
X9800701Y-20650494D02*
X9810225Y-20669542D01*
X9810225Y-20669542D02*
X9810225Y-20688590D01*
X9810225Y-20688590D02*
X9800701Y-20717161D01*
X9800701Y-20717161D02*
X9686415Y-20831447D01*
X9686415Y-20831447D02*
X9810225Y-20831447D01*
X9905463Y-20831447D02*
X9943558Y-20831447D01*
X9943558Y-20831447D02*
X9962606Y-20821923D01*
X9962606Y-20821923D02*
X9972129Y-20812399D01*
X9972129Y-20812399D02*
X9991177Y-20783828D01*
X9991177Y-20783828D02*
X10000701Y-20745733D01*
X10000701Y-20745733D02*
X10000701Y-20669542D01*
X10000701Y-20669542D02*
X9991177Y-20650494D01*
X9991177Y-20650494D02*
X9981653Y-20640971D01*
X9981653Y-20640971D02*
X9962606Y-20631447D01*
X9962606Y-20631447D02*
X9924510Y-20631447D01*
X9924510Y-20631447D02*
X9905463Y-20640971D01*
X9905463Y-20640971D02*
X9895939Y-20650494D01*
X9895939Y-20650494D02*
X9886415Y-20669542D01*
X9886415Y-20669542D02*
X9886415Y-20717161D01*
X9886415Y-20717161D02*
X9895939Y-20736209D01*
X9895939Y-20736209D02*
X9905463Y-20745733D01*
X9905463Y-20745733D02*
X9924510Y-20755256D01*
X9924510Y-20755256D02*
X9962606Y-20755256D01*
X9962606Y-20755256D02*
X9981653Y-20745733D01*
X9981653Y-20745733D02*
X9991177Y-20736209D01*
X9991177Y-20736209D02*
X10000701Y-20717161D01*
X10181653Y-20631447D02*
X10086415Y-20631447D01*
X10086415Y-20631447D02*
X10076891Y-20726685D01*
X10076891Y-20726685D02*
X10086415Y-20717161D01*
X10086415Y-20717161D02*
X10105463Y-20707637D01*
X10105463Y-20707637D02*
X10153082Y-20707637D01*
X10153082Y-20707637D02*
X10172129Y-20717161D01*
X10172129Y-20717161D02*
X10181653Y-20726685D01*
X10181653Y-20726685D02*
X10191177Y-20745733D01*
X10191177Y-20745733D02*
X10191177Y-20793352D01*
X10191177Y-20793352D02*
X10181653Y-20812399D01*
X10181653Y-20812399D02*
X10172129Y-20821923D01*
X10172129Y-20821923D02*
X10153082Y-20831447D01*
X10153082Y-20831447D02*
X10105463Y-20831447D01*
X10105463Y-20831447D02*
X10086415Y-20821923D01*
X10086415Y-20821923D02*
X10076891Y-20812399D01*
X10267368Y-20631447D02*
X10267368Y-20669542D01*
X10343558Y-20631447D02*
X10343558Y-20669542D01*
X10638796Y-20907637D02*
X10629272Y-20898113D01*
X10629272Y-20898113D02*
X10610225Y-20869542D01*
X10610225Y-20869542D02*
X10600701Y-20850494D01*
X10600701Y-20850494D02*
X10591177Y-20821923D01*
X10591177Y-20821923D02*
X10581653Y-20774304D01*
X10581653Y-20774304D02*
X10581653Y-20736209D01*
X10581653Y-20736209D02*
X10591177Y-20688590D01*
X10591177Y-20688590D02*
X10600701Y-20660018D01*
X10600701Y-20660018D02*
X10610225Y-20640971D01*
X10610225Y-20640971D02*
X10629272Y-20612399D01*
X10629272Y-20612399D02*
X10638796Y-20602875D01*
X10705463Y-20650494D02*
X10714987Y-20640971D01*
X10714987Y-20640971D02*
X10734034Y-20631447D01*
X10734034Y-20631447D02*
X10781653Y-20631447D01*
X10781653Y-20631447D02*
X10800701Y-20640971D01*
X10800701Y-20640971D02*
X10810225Y-20650494D01*
X10810225Y-20650494D02*
X10819749Y-20669542D01*
X10819749Y-20669542D02*
X10819749Y-20688590D01*
X10819749Y-20688590D02*
X10810225Y-20717161D01*
X10810225Y-20717161D02*
X10695939Y-20831447D01*
X10695939Y-20831447D02*
X10819749Y-20831447D01*
X11057844Y-20831447D02*
X11057844Y-20631447D01*
X11143558Y-20831447D02*
X11143558Y-20726685D01*
X11143558Y-20726685D02*
X11134034Y-20707637D01*
X11134034Y-20707637D02*
X11114987Y-20698113D01*
X11114987Y-20698113D02*
X11086415Y-20698113D01*
X11086415Y-20698113D02*
X11067368Y-20707637D01*
X11067368Y-20707637D02*
X11057844Y-20717161D01*
X11267368Y-20831447D02*
X11248320Y-20821923D01*
X11248320Y-20821923D02*
X11238796Y-20812399D01*
X11238796Y-20812399D02*
X11229272Y-20793352D01*
X11229272Y-20793352D02*
X11229272Y-20736209D01*
X11229272Y-20736209D02*
X11238796Y-20717161D01*
X11238796Y-20717161D02*
X11248320Y-20707637D01*
X11248320Y-20707637D02*
X11267368Y-20698113D01*
X11267368Y-20698113D02*
X11295939Y-20698113D01*
X11295939Y-20698113D02*
X11314987Y-20707637D01*
X11314987Y-20707637D02*
X11324510Y-20717161D01*
X11324510Y-20717161D02*
X11334034Y-20736209D01*
X11334034Y-20736209D02*
X11334034Y-20793352D01*
X11334034Y-20793352D02*
X11324510Y-20812399D01*
X11324510Y-20812399D02*
X11314987Y-20821923D01*
X11314987Y-20821923D02*
X11295939Y-20831447D01*
X11295939Y-20831447D02*
X11267368Y-20831447D01*
X11448320Y-20831447D02*
X11429272Y-20821923D01*
X11429272Y-20821923D02*
X11419749Y-20802875D01*
X11419749Y-20802875D02*
X11419749Y-20631447D01*
X11600701Y-20821923D02*
X11581653Y-20831447D01*
X11581653Y-20831447D02*
X11543558Y-20831447D01*
X11543558Y-20831447D02*
X11524510Y-20821923D01*
X11524510Y-20821923D02*
X11514987Y-20802875D01*
X11514987Y-20802875D02*
X11514987Y-20726685D01*
X11514987Y-20726685D02*
X11524510Y-20707637D01*
X11524510Y-20707637D02*
X11543558Y-20698113D01*
X11543558Y-20698113D02*
X11581653Y-20698113D01*
X11581653Y-20698113D02*
X11600701Y-20707637D01*
X11600701Y-20707637D02*
X11610225Y-20726685D01*
X11610225Y-20726685D02*
X11610225Y-20745733D01*
X11610225Y-20745733D02*
X11514987Y-20764780D01*
X11686415Y-20821923D02*
X11705463Y-20831447D01*
X11705463Y-20831447D02*
X11743558Y-20831447D01*
X11743558Y-20831447D02*
X11762606Y-20821923D01*
X11762606Y-20821923D02*
X11772130Y-20802875D01*
X11772130Y-20802875D02*
X11772130Y-20793352D01*
X11772130Y-20793352D02*
X11762606Y-20774304D01*
X11762606Y-20774304D02*
X11743558Y-20764780D01*
X11743558Y-20764780D02*
X11714987Y-20764780D01*
X11714987Y-20764780D02*
X11695939Y-20755256D01*
X11695939Y-20755256D02*
X11686415Y-20736209D01*
X11686415Y-20736209D02*
X11686415Y-20726685D01*
X11686415Y-20726685D02*
X11695939Y-20707637D01*
X11695939Y-20707637D02*
X11714987Y-20698113D01*
X11714987Y-20698113D02*
X11743558Y-20698113D01*
X11743558Y-20698113D02*
X11762606Y-20707637D01*
X11838796Y-20907637D02*
X11848320Y-20898113D01*
X11848320Y-20898113D02*
X11867368Y-20869542D01*
X11867368Y-20869542D02*
X11876891Y-20850494D01*
X11876891Y-20850494D02*
X11886415Y-20821923D01*
X11886415Y-20821923D02*
X11895939Y-20774304D01*
X11895939Y-20774304D02*
X11895939Y-20736209D01*
X11895939Y-20736209D02*
X11886415Y-20688590D01*
X11886415Y-20688590D02*
X11876891Y-20660018D01*
X11876891Y-20660018D02*
X11867368Y-20640971D01*
X11867368Y-20640971D02*
X11848320Y-20612399D01*
X11848320Y-20612399D02*
X11838796Y-20602875D01*
D12*
X7049227Y-21038986D02*
X7049227Y-20968940D01*
X6979180Y-20968940D01*
X6979180Y-21038986D01*
X7049227Y-21038986D01*
D11*
X7362605Y-20895447D02*
X7381653Y-20895447D01*
X7381653Y-20895447D02*
X7400701Y-20904971D01*
X7400701Y-20904971D02*
X7410224Y-20914494D01*
X7410224Y-20914494D02*
X7419748Y-20933542D01*
X7419748Y-20933542D02*
X7429272Y-20971637D01*
X7429272Y-20971637D02*
X7429272Y-21019256D01*
X7429272Y-21019256D02*
X7419748Y-21057352D01*
X7419748Y-21057352D02*
X7410224Y-21076399D01*
X7410224Y-21076399D02*
X7400701Y-21085923D01*
X7400701Y-21085923D02*
X7381653Y-21095447D01*
X7381653Y-21095447D02*
X7362605Y-21095447D01*
X7362605Y-21095447D02*
X7343558Y-21085923D01*
X7343558Y-21085923D02*
X7334034Y-21076399D01*
X7334034Y-21076399D02*
X7324510Y-21057352D01*
X7324510Y-21057352D02*
X7314986Y-21019256D01*
X7314986Y-21019256D02*
X7314986Y-20971637D01*
X7314986Y-20971637D02*
X7324510Y-20933542D01*
X7324510Y-20933542D02*
X7334034Y-20914494D01*
X7334034Y-20914494D02*
X7343558Y-20904971D01*
X7343558Y-20904971D02*
X7362605Y-20895447D01*
X7514986Y-21076399D02*
X7524510Y-21085923D01*
X7524510Y-21085923D02*
X7514986Y-21095447D01*
X7514986Y-21095447D02*
X7505462Y-21085923D01*
X7505462Y-21085923D02*
X7514986Y-21076399D01*
X7514986Y-21076399D02*
X7514986Y-21095447D01*
X7619748Y-21095447D02*
X7657843Y-21095447D01*
X7657843Y-21095447D02*
X7676891Y-21085923D01*
X7676891Y-21085923D02*
X7686415Y-21076399D01*
X7686415Y-21076399D02*
X7705462Y-21047828D01*
X7705462Y-21047828D02*
X7714986Y-21009733D01*
X7714986Y-21009733D02*
X7714986Y-20933542D01*
X7714986Y-20933542D02*
X7705462Y-20914494D01*
X7705462Y-20914494D02*
X7695939Y-20904971D01*
X7695939Y-20904971D02*
X7676891Y-20895447D01*
X7676891Y-20895447D02*
X7638796Y-20895447D01*
X7638796Y-20895447D02*
X7619748Y-20904971D01*
X7619748Y-20904971D02*
X7610224Y-20914494D01*
X7610224Y-20914494D02*
X7600701Y-20933542D01*
X7600701Y-20933542D02*
X7600701Y-20981161D01*
X7600701Y-20981161D02*
X7610224Y-21000209D01*
X7610224Y-21000209D02*
X7619748Y-21009733D01*
X7619748Y-21009733D02*
X7638796Y-21019256D01*
X7638796Y-21019256D02*
X7676891Y-21019256D01*
X7676891Y-21019256D02*
X7695939Y-21009733D01*
X7695939Y-21009733D02*
X7705462Y-21000209D01*
X7705462Y-21000209D02*
X7714986Y-20981161D01*
X7810224Y-21095447D02*
X7848320Y-21095447D01*
X7848320Y-21095447D02*
X7867367Y-21085923D01*
X7867367Y-21085923D02*
X7876891Y-21076399D01*
X7876891Y-21076399D02*
X7895939Y-21047828D01*
X7895939Y-21047828D02*
X7905462Y-21009733D01*
X7905462Y-21009733D02*
X7905462Y-20933542D01*
X7905462Y-20933542D02*
X7895939Y-20914494D01*
X7895939Y-20914494D02*
X7886415Y-20904971D01*
X7886415Y-20904971D02*
X7867367Y-20895447D01*
X7867367Y-20895447D02*
X7829272Y-20895447D01*
X7829272Y-20895447D02*
X7810224Y-20904971D01*
X7810224Y-20904971D02*
X7800701Y-20914494D01*
X7800701Y-20914494D02*
X7791177Y-20933542D01*
X7791177Y-20933542D02*
X7791177Y-20981161D01*
X7791177Y-20981161D02*
X7800701Y-21000209D01*
X7800701Y-21000209D02*
X7810224Y-21009733D01*
X7810224Y-21009733D02*
X7829272Y-21019256D01*
X7829272Y-21019256D02*
X7867367Y-21019256D01*
X7867367Y-21019256D02*
X7886415Y-21009733D01*
X7886415Y-21009733D02*
X7895939Y-21000209D01*
X7895939Y-21000209D02*
X7905462Y-20981161D01*
X8095939Y-21095447D02*
X7981653Y-21095447D01*
X8038796Y-21095447D02*
X8038796Y-20895447D01*
X8038796Y-20895447D02*
X8019748Y-20924018D01*
X8019748Y-20924018D02*
X8000701Y-20943066D01*
X8000701Y-20943066D02*
X7981653Y-20952590D01*
X8181653Y-21095447D02*
X8181653Y-20962113D01*
X8181653Y-20981161D02*
X8191177Y-20971637D01*
X8191177Y-20971637D02*
X8210224Y-20962113D01*
X8210224Y-20962113D02*
X8238796Y-20962113D01*
X8238796Y-20962113D02*
X8257843Y-20971637D01*
X8257843Y-20971637D02*
X8267367Y-20990685D01*
X8267367Y-20990685D02*
X8267367Y-21095447D01*
X8267367Y-20990685D02*
X8276891Y-20971637D01*
X8276891Y-20971637D02*
X8295939Y-20962113D01*
X8295939Y-20962113D02*
X8324510Y-20962113D01*
X8324510Y-20962113D02*
X8343558Y-20971637D01*
X8343558Y-20971637D02*
X8353082Y-20990685D01*
X8353082Y-20990685D02*
X8353082Y-21095447D01*
X8448320Y-21095447D02*
X8448320Y-20962113D01*
X8448320Y-20981161D02*
X8457844Y-20971637D01*
X8457844Y-20971637D02*
X8476891Y-20962113D01*
X8476891Y-20962113D02*
X8505463Y-20962113D01*
X8505463Y-20962113D02*
X8524510Y-20971637D01*
X8524510Y-20971637D02*
X8534034Y-20990685D01*
X8534034Y-20990685D02*
X8534034Y-21095447D01*
X8534034Y-20990685D02*
X8543558Y-20971637D01*
X8543558Y-20971637D02*
X8562605Y-20962113D01*
X8562605Y-20962113D02*
X8591177Y-20962113D01*
X8591177Y-20962113D02*
X8610225Y-20971637D01*
X8610225Y-20971637D02*
X8619748Y-20990685D01*
X8619748Y-20990685D02*
X8619748Y-21095447D01*
X9010225Y-20885923D02*
X8838796Y-21143066D01*
X9267367Y-20895447D02*
X9286415Y-20895447D01*
X9286415Y-20895447D02*
X9305463Y-20904971D01*
X9305463Y-20904971D02*
X9314987Y-20914494D01*
X9314987Y-20914494D02*
X9324510Y-20933542D01*
X9324510Y-20933542D02*
X9334034Y-20971637D01*
X9334034Y-20971637D02*
X9334034Y-21019256D01*
X9334034Y-21019256D02*
X9324510Y-21057352D01*
X9324510Y-21057352D02*
X9314987Y-21076399D01*
X9314987Y-21076399D02*
X9305463Y-21085923D01*
X9305463Y-21085923D02*
X9286415Y-21095447D01*
X9286415Y-21095447D02*
X9267367Y-21095447D01*
X9267367Y-21095447D02*
X9248320Y-21085923D01*
X9248320Y-21085923D02*
X9238796Y-21076399D01*
X9238796Y-21076399D02*
X9229272Y-21057352D01*
X9229272Y-21057352D02*
X9219748Y-21019256D01*
X9219748Y-21019256D02*
X9219748Y-20971637D01*
X9219748Y-20971637D02*
X9229272Y-20933542D01*
X9229272Y-20933542D02*
X9238796Y-20914494D01*
X9238796Y-20914494D02*
X9248320Y-20904971D01*
X9248320Y-20904971D02*
X9267367Y-20895447D01*
X9419748Y-21076399D02*
X9429272Y-21085923D01*
X9429272Y-21085923D02*
X9419748Y-21095447D01*
X9419748Y-21095447D02*
X9410225Y-21085923D01*
X9410225Y-21085923D02*
X9419748Y-21076399D01*
X9419748Y-21076399D02*
X9419748Y-21095447D01*
X9553082Y-20895447D02*
X9572129Y-20895447D01*
X9572129Y-20895447D02*
X9591177Y-20904971D01*
X9591177Y-20904971D02*
X9600701Y-20914494D01*
X9600701Y-20914494D02*
X9610225Y-20933542D01*
X9610225Y-20933542D02*
X9619748Y-20971637D01*
X9619748Y-20971637D02*
X9619748Y-21019256D01*
X9619748Y-21019256D02*
X9610225Y-21057352D01*
X9610225Y-21057352D02*
X9600701Y-21076399D01*
X9600701Y-21076399D02*
X9591177Y-21085923D01*
X9591177Y-21085923D02*
X9572129Y-21095447D01*
X9572129Y-21095447D02*
X9553082Y-21095447D01*
X9553082Y-21095447D02*
X9534034Y-21085923D01*
X9534034Y-21085923D02*
X9524510Y-21076399D01*
X9524510Y-21076399D02*
X9514987Y-21057352D01*
X9514987Y-21057352D02*
X9505463Y-21019256D01*
X9505463Y-21019256D02*
X9505463Y-20971637D01*
X9505463Y-20971637D02*
X9514987Y-20933542D01*
X9514987Y-20933542D02*
X9524510Y-20914494D01*
X9524510Y-20914494D02*
X9534034Y-20904971D01*
X9534034Y-20904971D02*
X9553082Y-20895447D01*
X9686415Y-20895447D02*
X9810225Y-20895447D01*
X9810225Y-20895447D02*
X9743558Y-20971637D01*
X9743558Y-20971637D02*
X9772129Y-20971637D01*
X9772129Y-20971637D02*
X9791177Y-20981161D01*
X9791177Y-20981161D02*
X9800701Y-20990685D01*
X9800701Y-20990685D02*
X9810225Y-21009733D01*
X9810225Y-21009733D02*
X9810225Y-21057352D01*
X9810225Y-21057352D02*
X9800701Y-21076399D01*
X9800701Y-21076399D02*
X9791177Y-21085923D01*
X9791177Y-21085923D02*
X9772129Y-21095447D01*
X9772129Y-21095447D02*
X9714987Y-21095447D01*
X9714987Y-21095447D02*
X9695939Y-21085923D01*
X9695939Y-21085923D02*
X9686415Y-21076399D01*
X9905463Y-21095447D02*
X9943558Y-21095447D01*
X9943558Y-21095447D02*
X9962606Y-21085923D01*
X9962606Y-21085923D02*
X9972129Y-21076399D01*
X9972129Y-21076399D02*
X9991177Y-21047828D01*
X9991177Y-21047828D02*
X10000701Y-21009733D01*
X10000701Y-21009733D02*
X10000701Y-20933542D01*
X10000701Y-20933542D02*
X9991177Y-20914494D01*
X9991177Y-20914494D02*
X9981653Y-20904971D01*
X9981653Y-20904971D02*
X9962606Y-20895447D01*
X9962606Y-20895447D02*
X9924510Y-20895447D01*
X9924510Y-20895447D02*
X9905463Y-20904971D01*
X9905463Y-20904971D02*
X9895939Y-20914494D01*
X9895939Y-20914494D02*
X9886415Y-20933542D01*
X9886415Y-20933542D02*
X9886415Y-20981161D01*
X9886415Y-20981161D02*
X9895939Y-21000209D01*
X9895939Y-21000209D02*
X9905463Y-21009733D01*
X9905463Y-21009733D02*
X9924510Y-21019256D01*
X9924510Y-21019256D02*
X9962606Y-21019256D01*
X9962606Y-21019256D02*
X9981653Y-21009733D01*
X9981653Y-21009733D02*
X9991177Y-21000209D01*
X9991177Y-21000209D02*
X10000701Y-20981161D01*
X10124510Y-20895447D02*
X10143558Y-20895447D01*
X10143558Y-20895447D02*
X10162606Y-20904971D01*
X10162606Y-20904971D02*
X10172129Y-20914494D01*
X10172129Y-20914494D02*
X10181653Y-20933542D01*
X10181653Y-20933542D02*
X10191177Y-20971637D01*
X10191177Y-20971637D02*
X10191177Y-21019256D01*
X10191177Y-21019256D02*
X10181653Y-21057352D01*
X10181653Y-21057352D02*
X10172129Y-21076399D01*
X10172129Y-21076399D02*
X10162606Y-21085923D01*
X10162606Y-21085923D02*
X10143558Y-21095447D01*
X10143558Y-21095447D02*
X10124510Y-21095447D01*
X10124510Y-21095447D02*
X10105463Y-21085923D01*
X10105463Y-21085923D02*
X10095939Y-21076399D01*
X10095939Y-21076399D02*
X10086415Y-21057352D01*
X10086415Y-21057352D02*
X10076891Y-21019256D01*
X10076891Y-21019256D02*
X10076891Y-20971637D01*
X10076891Y-20971637D02*
X10086415Y-20933542D01*
X10086415Y-20933542D02*
X10095939Y-20914494D01*
X10095939Y-20914494D02*
X10105463Y-20904971D01*
X10105463Y-20904971D02*
X10124510Y-20895447D01*
X10267368Y-20895447D02*
X10267368Y-20933542D01*
X10343558Y-20895447D02*
X10343558Y-20933542D01*
X10638796Y-21171637D02*
X10629272Y-21162113D01*
X10629272Y-21162113D02*
X10610225Y-21133542D01*
X10610225Y-21133542D02*
X10600701Y-21114494D01*
X10600701Y-21114494D02*
X10591177Y-21085923D01*
X10591177Y-21085923D02*
X10581653Y-21038304D01*
X10581653Y-21038304D02*
X10581653Y-21000209D01*
X10581653Y-21000209D02*
X10591177Y-20952590D01*
X10591177Y-20952590D02*
X10600701Y-20924018D01*
X10600701Y-20924018D02*
X10610225Y-20904971D01*
X10610225Y-20904971D02*
X10629272Y-20876399D01*
X10629272Y-20876399D02*
X10638796Y-20866875D01*
X10819749Y-21095447D02*
X10705463Y-21095447D01*
X10762606Y-21095447D02*
X10762606Y-20895447D01*
X10762606Y-20895447D02*
X10743558Y-20924018D01*
X10743558Y-20924018D02*
X10724510Y-20943066D01*
X10724510Y-20943066D02*
X10705463Y-20952590D01*
X10943558Y-20895447D02*
X10962606Y-20895447D01*
X10962606Y-20895447D02*
X10981653Y-20904971D01*
X10981653Y-20904971D02*
X10991177Y-20914494D01*
X10991177Y-20914494D02*
X11000701Y-20933542D01*
X11000701Y-20933542D02*
X11010225Y-20971637D01*
X11010225Y-20971637D02*
X11010225Y-21019256D01*
X11010225Y-21019256D02*
X11000701Y-21057352D01*
X11000701Y-21057352D02*
X10991177Y-21076399D01*
X10991177Y-21076399D02*
X10981653Y-21085923D01*
X10981653Y-21085923D02*
X10962606Y-21095447D01*
X10962606Y-21095447D02*
X10943558Y-21095447D01*
X10943558Y-21095447D02*
X10924510Y-21085923D01*
X10924510Y-21085923D02*
X10914987Y-21076399D01*
X10914987Y-21076399D02*
X10905463Y-21057352D01*
X10905463Y-21057352D02*
X10895939Y-21019256D01*
X10895939Y-21019256D02*
X10895939Y-20971637D01*
X10895939Y-20971637D02*
X10905463Y-20933542D01*
X10905463Y-20933542D02*
X10914987Y-20914494D01*
X10914987Y-20914494D02*
X10924510Y-20904971D01*
X10924510Y-20904971D02*
X10943558Y-20895447D01*
X11181653Y-20962113D02*
X11181653Y-21095447D01*
X11134034Y-20885923D02*
X11086415Y-21028780D01*
X11086415Y-21028780D02*
X11210225Y-21028780D01*
X11438796Y-21095447D02*
X11438796Y-20895447D01*
X11524510Y-21095447D02*
X11524510Y-20990685D01*
X11524510Y-20990685D02*
X11514987Y-20971637D01*
X11514987Y-20971637D02*
X11495939Y-20962113D01*
X11495939Y-20962113D02*
X11467368Y-20962113D01*
X11467368Y-20962113D02*
X11448320Y-20971637D01*
X11448320Y-20971637D02*
X11438796Y-20981161D01*
X11648320Y-21095447D02*
X11629272Y-21085923D01*
X11629272Y-21085923D02*
X11619749Y-21076399D01*
X11619749Y-21076399D02*
X11610225Y-21057352D01*
X11610225Y-21057352D02*
X11610225Y-21000209D01*
X11610225Y-21000209D02*
X11619749Y-20981161D01*
X11619749Y-20981161D02*
X11629272Y-20971637D01*
X11629272Y-20971637D02*
X11648320Y-20962113D01*
X11648320Y-20962113D02*
X11676891Y-20962113D01*
X11676891Y-20962113D02*
X11695939Y-20971637D01*
X11695939Y-20971637D02*
X11705463Y-20981161D01*
X11705463Y-20981161D02*
X11714987Y-21000209D01*
X11714987Y-21000209D02*
X11714987Y-21057352D01*
X11714987Y-21057352D02*
X11705463Y-21076399D01*
X11705463Y-21076399D02*
X11695939Y-21085923D01*
X11695939Y-21085923D02*
X11676891Y-21095447D01*
X11676891Y-21095447D02*
X11648320Y-21095447D01*
X11829272Y-21095447D02*
X11810225Y-21085923D01*
X11810225Y-21085923D02*
X11800701Y-21066875D01*
X11800701Y-21066875D02*
X11800701Y-20895447D01*
X11981653Y-21085923D02*
X11962606Y-21095447D01*
X11962606Y-21095447D02*
X11924510Y-21095447D01*
X11924510Y-21095447D02*
X11905463Y-21085923D01*
X11905463Y-21085923D02*
X11895939Y-21066875D01*
X11895939Y-21066875D02*
X11895939Y-20990685D01*
X11895939Y-20990685D02*
X11905463Y-20971637D01*
X11905463Y-20971637D02*
X11924510Y-20962113D01*
X11924510Y-20962113D02*
X11962606Y-20962113D01*
X11962606Y-20962113D02*
X11981653Y-20971637D01*
X11981653Y-20971637D02*
X11991177Y-20990685D01*
X11991177Y-20990685D02*
X11991177Y-21009733D01*
X11991177Y-21009733D02*
X11895939Y-21028780D01*
X12067368Y-21085923D02*
X12086415Y-21095447D01*
X12086415Y-21095447D02*
X12124510Y-21095447D01*
X12124510Y-21095447D02*
X12143558Y-21085923D01*
X12143558Y-21085923D02*
X12153082Y-21066875D01*
X12153082Y-21066875D02*
X12153082Y-21057352D01*
X12153082Y-21057352D02*
X12143558Y-21038304D01*
X12143558Y-21038304D02*
X12124510Y-21028780D01*
X12124510Y-21028780D02*
X12095939Y-21028780D01*
X12095939Y-21028780D02*
X12076891Y-21019256D01*
X12076891Y-21019256D02*
X12067368Y-21000209D01*
X12067368Y-21000209D02*
X12067368Y-20990685D01*
X12067368Y-20990685D02*
X12076891Y-20971637D01*
X12076891Y-20971637D02*
X12095939Y-20962113D01*
X12095939Y-20962113D02*
X12124510Y-20962113D01*
X12124510Y-20962113D02*
X12143558Y-20971637D01*
X12219749Y-21171637D02*
X12229272Y-21162113D01*
X12229272Y-21162113D02*
X12248320Y-21133542D01*
X12248320Y-21133542D02*
X12257844Y-21114494D01*
X12257844Y-21114494D02*
X12267368Y-21085923D01*
X12267368Y-21085923D02*
X12276891Y-21038304D01*
X12276891Y-21038304D02*
X12276891Y-21000209D01*
X12276891Y-21000209D02*
X12267368Y-20952590D01*
X12267368Y-20952590D02*
X12257844Y-20924018D01*
X12257844Y-20924018D02*
X12248320Y-20904971D01*
X12248320Y-20904971D02*
X12229272Y-20876399D01*
X12229272Y-20876399D02*
X12219749Y-20866875D01*
D12*
X7013733Y-21317963D02*
X7063733Y-21267963D01*
X7013733Y-21217963D01*
X6963733Y-21267963D01*
X7013733Y-21317963D01*
D11*
X7429272Y-21359447D02*
X7314986Y-21359447D01*
X7372129Y-21359447D02*
X7372129Y-21159447D01*
X7372129Y-21159447D02*
X7353081Y-21188018D01*
X7353081Y-21188018D02*
X7334034Y-21207066D01*
X7334034Y-21207066D02*
X7314986Y-21216590D01*
X7514986Y-21340399D02*
X7524510Y-21349923D01*
X7524510Y-21349923D02*
X7514986Y-21359447D01*
X7514986Y-21359447D02*
X7505462Y-21349923D01*
X7505462Y-21349923D02*
X7514986Y-21340399D01*
X7514986Y-21340399D02*
X7514986Y-21359447D01*
X7648320Y-21159447D02*
X7667367Y-21159447D01*
X7667367Y-21159447D02*
X7686415Y-21168971D01*
X7686415Y-21168971D02*
X7695939Y-21178494D01*
X7695939Y-21178494D02*
X7705462Y-21197542D01*
X7705462Y-21197542D02*
X7714986Y-21235637D01*
X7714986Y-21235637D02*
X7714986Y-21283256D01*
X7714986Y-21283256D02*
X7705462Y-21321352D01*
X7705462Y-21321352D02*
X7695939Y-21340399D01*
X7695939Y-21340399D02*
X7686415Y-21349923D01*
X7686415Y-21349923D02*
X7667367Y-21359447D01*
X7667367Y-21359447D02*
X7648320Y-21359447D01*
X7648320Y-21359447D02*
X7629272Y-21349923D01*
X7629272Y-21349923D02*
X7619748Y-21340399D01*
X7619748Y-21340399D02*
X7610224Y-21321352D01*
X7610224Y-21321352D02*
X7600701Y-21283256D01*
X7600701Y-21283256D02*
X7600701Y-21235637D01*
X7600701Y-21235637D02*
X7610224Y-21197542D01*
X7610224Y-21197542D02*
X7619748Y-21178494D01*
X7619748Y-21178494D02*
X7629272Y-21168971D01*
X7629272Y-21168971D02*
X7648320Y-21159447D01*
X7838796Y-21159447D02*
X7857843Y-21159447D01*
X7857843Y-21159447D02*
X7876891Y-21168971D01*
X7876891Y-21168971D02*
X7886415Y-21178494D01*
X7886415Y-21178494D02*
X7895939Y-21197542D01*
X7895939Y-21197542D02*
X7905462Y-21235637D01*
X7905462Y-21235637D02*
X7905462Y-21283256D01*
X7905462Y-21283256D02*
X7895939Y-21321352D01*
X7895939Y-21321352D02*
X7886415Y-21340399D01*
X7886415Y-21340399D02*
X7876891Y-21349923D01*
X7876891Y-21349923D02*
X7857843Y-21359447D01*
X7857843Y-21359447D02*
X7838796Y-21359447D01*
X7838796Y-21359447D02*
X7819748Y-21349923D01*
X7819748Y-21349923D02*
X7810224Y-21340399D01*
X7810224Y-21340399D02*
X7800701Y-21321352D01*
X7800701Y-21321352D02*
X7791177Y-21283256D01*
X7791177Y-21283256D02*
X7791177Y-21235637D01*
X7791177Y-21235637D02*
X7800701Y-21197542D01*
X7800701Y-21197542D02*
X7810224Y-21178494D01*
X7810224Y-21178494D02*
X7819748Y-21168971D01*
X7819748Y-21168971D02*
X7838796Y-21159447D01*
X8029272Y-21159447D02*
X8048320Y-21159447D01*
X8048320Y-21159447D02*
X8067367Y-21168971D01*
X8067367Y-21168971D02*
X8076891Y-21178494D01*
X8076891Y-21178494D02*
X8086415Y-21197542D01*
X8086415Y-21197542D02*
X8095939Y-21235637D01*
X8095939Y-21235637D02*
X8095939Y-21283256D01*
X8095939Y-21283256D02*
X8086415Y-21321352D01*
X8086415Y-21321352D02*
X8076891Y-21340399D01*
X8076891Y-21340399D02*
X8067367Y-21349923D01*
X8067367Y-21349923D02*
X8048320Y-21359447D01*
X8048320Y-21359447D02*
X8029272Y-21359447D01*
X8029272Y-21359447D02*
X8010224Y-21349923D01*
X8010224Y-21349923D02*
X8000701Y-21340399D01*
X8000701Y-21340399D02*
X7991177Y-21321352D01*
X7991177Y-21321352D02*
X7981653Y-21283256D01*
X7981653Y-21283256D02*
X7981653Y-21235637D01*
X7981653Y-21235637D02*
X7991177Y-21197542D01*
X7991177Y-21197542D02*
X8000701Y-21178494D01*
X8000701Y-21178494D02*
X8010224Y-21168971D01*
X8010224Y-21168971D02*
X8029272Y-21159447D01*
X8181653Y-21359447D02*
X8181653Y-21226113D01*
X8181653Y-21245161D02*
X8191177Y-21235637D01*
X8191177Y-21235637D02*
X8210224Y-21226113D01*
X8210224Y-21226113D02*
X8238796Y-21226113D01*
X8238796Y-21226113D02*
X8257843Y-21235637D01*
X8257843Y-21235637D02*
X8267367Y-21254685D01*
X8267367Y-21254685D02*
X8267367Y-21359447D01*
X8267367Y-21254685D02*
X8276891Y-21235637D01*
X8276891Y-21235637D02*
X8295939Y-21226113D01*
X8295939Y-21226113D02*
X8324510Y-21226113D01*
X8324510Y-21226113D02*
X8343558Y-21235637D01*
X8343558Y-21235637D02*
X8353082Y-21254685D01*
X8353082Y-21254685D02*
X8353082Y-21359447D01*
X8448320Y-21359447D02*
X8448320Y-21226113D01*
X8448320Y-21245161D02*
X8457844Y-21235637D01*
X8457844Y-21235637D02*
X8476891Y-21226113D01*
X8476891Y-21226113D02*
X8505463Y-21226113D01*
X8505463Y-21226113D02*
X8524510Y-21235637D01*
X8524510Y-21235637D02*
X8534034Y-21254685D01*
X8534034Y-21254685D02*
X8534034Y-21359447D01*
X8534034Y-21254685D02*
X8543558Y-21235637D01*
X8543558Y-21235637D02*
X8562605Y-21226113D01*
X8562605Y-21226113D02*
X8591177Y-21226113D01*
X8591177Y-21226113D02*
X8610225Y-21235637D01*
X8610225Y-21235637D02*
X8619748Y-21254685D01*
X8619748Y-21254685D02*
X8619748Y-21359447D01*
X9010225Y-21149923D02*
X8838796Y-21407066D01*
X9267367Y-21159447D02*
X9286415Y-21159447D01*
X9286415Y-21159447D02*
X9305463Y-21168971D01*
X9305463Y-21168971D02*
X9314987Y-21178494D01*
X9314987Y-21178494D02*
X9324510Y-21197542D01*
X9324510Y-21197542D02*
X9334034Y-21235637D01*
X9334034Y-21235637D02*
X9334034Y-21283256D01*
X9334034Y-21283256D02*
X9324510Y-21321352D01*
X9324510Y-21321352D02*
X9314987Y-21340399D01*
X9314987Y-21340399D02*
X9305463Y-21349923D01*
X9305463Y-21349923D02*
X9286415Y-21359447D01*
X9286415Y-21359447D02*
X9267367Y-21359447D01*
X9267367Y-21359447D02*
X9248320Y-21349923D01*
X9248320Y-21349923D02*
X9238796Y-21340399D01*
X9238796Y-21340399D02*
X9229272Y-21321352D01*
X9229272Y-21321352D02*
X9219748Y-21283256D01*
X9219748Y-21283256D02*
X9219748Y-21235637D01*
X9219748Y-21235637D02*
X9229272Y-21197542D01*
X9229272Y-21197542D02*
X9238796Y-21178494D01*
X9238796Y-21178494D02*
X9248320Y-21168971D01*
X9248320Y-21168971D02*
X9267367Y-21159447D01*
X9419748Y-21340399D02*
X9429272Y-21349923D01*
X9429272Y-21349923D02*
X9419748Y-21359447D01*
X9419748Y-21359447D02*
X9410225Y-21349923D01*
X9410225Y-21349923D02*
X9419748Y-21340399D01*
X9419748Y-21340399D02*
X9419748Y-21359447D01*
X9553082Y-21159447D02*
X9572129Y-21159447D01*
X9572129Y-21159447D02*
X9591177Y-21168971D01*
X9591177Y-21168971D02*
X9600701Y-21178494D01*
X9600701Y-21178494D02*
X9610225Y-21197542D01*
X9610225Y-21197542D02*
X9619748Y-21235637D01*
X9619748Y-21235637D02*
X9619748Y-21283256D01*
X9619748Y-21283256D02*
X9610225Y-21321352D01*
X9610225Y-21321352D02*
X9600701Y-21340399D01*
X9600701Y-21340399D02*
X9591177Y-21349923D01*
X9591177Y-21349923D02*
X9572129Y-21359447D01*
X9572129Y-21359447D02*
X9553082Y-21359447D01*
X9553082Y-21359447D02*
X9534034Y-21349923D01*
X9534034Y-21349923D02*
X9524510Y-21340399D01*
X9524510Y-21340399D02*
X9514987Y-21321352D01*
X9514987Y-21321352D02*
X9505463Y-21283256D01*
X9505463Y-21283256D02*
X9505463Y-21235637D01*
X9505463Y-21235637D02*
X9514987Y-21197542D01*
X9514987Y-21197542D02*
X9524510Y-21178494D01*
X9524510Y-21178494D02*
X9534034Y-21168971D01*
X9534034Y-21168971D02*
X9553082Y-21159447D01*
X9686415Y-21159447D02*
X9810225Y-21159447D01*
X9810225Y-21159447D02*
X9743558Y-21235637D01*
X9743558Y-21235637D02*
X9772129Y-21235637D01*
X9772129Y-21235637D02*
X9791177Y-21245161D01*
X9791177Y-21245161D02*
X9800701Y-21254685D01*
X9800701Y-21254685D02*
X9810225Y-21273733D01*
X9810225Y-21273733D02*
X9810225Y-21321352D01*
X9810225Y-21321352D02*
X9800701Y-21340399D01*
X9800701Y-21340399D02*
X9791177Y-21349923D01*
X9791177Y-21349923D02*
X9772129Y-21359447D01*
X9772129Y-21359447D02*
X9714987Y-21359447D01*
X9714987Y-21359447D02*
X9695939Y-21349923D01*
X9695939Y-21349923D02*
X9686415Y-21340399D01*
X9905463Y-21359447D02*
X9943558Y-21359447D01*
X9943558Y-21359447D02*
X9962606Y-21349923D01*
X9962606Y-21349923D02*
X9972129Y-21340399D01*
X9972129Y-21340399D02*
X9991177Y-21311828D01*
X9991177Y-21311828D02*
X10000701Y-21273733D01*
X10000701Y-21273733D02*
X10000701Y-21197542D01*
X10000701Y-21197542D02*
X9991177Y-21178494D01*
X9991177Y-21178494D02*
X9981653Y-21168971D01*
X9981653Y-21168971D02*
X9962606Y-21159447D01*
X9962606Y-21159447D02*
X9924510Y-21159447D01*
X9924510Y-21159447D02*
X9905463Y-21168971D01*
X9905463Y-21168971D02*
X9895939Y-21178494D01*
X9895939Y-21178494D02*
X9886415Y-21197542D01*
X9886415Y-21197542D02*
X9886415Y-21245161D01*
X9886415Y-21245161D02*
X9895939Y-21264209D01*
X9895939Y-21264209D02*
X9905463Y-21273733D01*
X9905463Y-21273733D02*
X9924510Y-21283256D01*
X9924510Y-21283256D02*
X9962606Y-21283256D01*
X9962606Y-21283256D02*
X9981653Y-21273733D01*
X9981653Y-21273733D02*
X9991177Y-21264209D01*
X9991177Y-21264209D02*
X10000701Y-21245161D01*
X10172129Y-21226113D02*
X10172129Y-21359447D01*
X10124510Y-21149923D02*
X10076891Y-21292780D01*
X10076891Y-21292780D02*
X10200701Y-21292780D01*
X10267368Y-21159447D02*
X10267368Y-21197542D01*
X10343558Y-21159447D02*
X10343558Y-21197542D01*
X10638796Y-21435637D02*
X10629272Y-21426113D01*
X10629272Y-21426113D02*
X10610225Y-21397542D01*
X10610225Y-21397542D02*
X10600701Y-21378494D01*
X10600701Y-21378494D02*
X10591177Y-21349923D01*
X10591177Y-21349923D02*
X10581653Y-21302304D01*
X10581653Y-21302304D02*
X10581653Y-21264209D01*
X10581653Y-21264209D02*
X10591177Y-21216590D01*
X10591177Y-21216590D02*
X10600701Y-21188018D01*
X10600701Y-21188018D02*
X10610225Y-21168971D01*
X10610225Y-21168971D02*
X10629272Y-21140399D01*
X10629272Y-21140399D02*
X10638796Y-21130875D01*
X10800701Y-21226113D02*
X10800701Y-21359447D01*
X10753082Y-21149923D02*
X10705463Y-21292780D01*
X10705463Y-21292780D02*
X10829272Y-21292780D01*
X11057844Y-21359447D02*
X11057844Y-21159447D01*
X11143558Y-21359447D02*
X11143558Y-21254685D01*
X11143558Y-21254685D02*
X11134034Y-21235637D01*
X11134034Y-21235637D02*
X11114987Y-21226113D01*
X11114987Y-21226113D02*
X11086415Y-21226113D01*
X11086415Y-21226113D02*
X11067368Y-21235637D01*
X11067368Y-21235637D02*
X11057844Y-21245161D01*
X11267368Y-21359447D02*
X11248320Y-21349923D01*
X11248320Y-21349923D02*
X11238796Y-21340399D01*
X11238796Y-21340399D02*
X11229272Y-21321352D01*
X11229272Y-21321352D02*
X11229272Y-21264209D01*
X11229272Y-21264209D02*
X11238796Y-21245161D01*
X11238796Y-21245161D02*
X11248320Y-21235637D01*
X11248320Y-21235637D02*
X11267368Y-21226113D01*
X11267368Y-21226113D02*
X11295939Y-21226113D01*
X11295939Y-21226113D02*
X11314987Y-21235637D01*
X11314987Y-21235637D02*
X11324510Y-21245161D01*
X11324510Y-21245161D02*
X11334034Y-21264209D01*
X11334034Y-21264209D02*
X11334034Y-21321352D01*
X11334034Y-21321352D02*
X11324510Y-21340399D01*
X11324510Y-21340399D02*
X11314987Y-21349923D01*
X11314987Y-21349923D02*
X11295939Y-21359447D01*
X11295939Y-21359447D02*
X11267368Y-21359447D01*
X11448320Y-21359447D02*
X11429272Y-21349923D01*
X11429272Y-21349923D02*
X11419749Y-21330875D01*
X11419749Y-21330875D02*
X11419749Y-21159447D01*
X11600701Y-21349923D02*
X11581653Y-21359447D01*
X11581653Y-21359447D02*
X11543558Y-21359447D01*
X11543558Y-21359447D02*
X11524510Y-21349923D01*
X11524510Y-21349923D02*
X11514987Y-21330875D01*
X11514987Y-21330875D02*
X11514987Y-21254685D01*
X11514987Y-21254685D02*
X11524510Y-21235637D01*
X11524510Y-21235637D02*
X11543558Y-21226113D01*
X11543558Y-21226113D02*
X11581653Y-21226113D01*
X11581653Y-21226113D02*
X11600701Y-21235637D01*
X11600701Y-21235637D02*
X11610225Y-21254685D01*
X11610225Y-21254685D02*
X11610225Y-21273733D01*
X11610225Y-21273733D02*
X11514987Y-21292780D01*
X11686415Y-21349923D02*
X11705463Y-21359447D01*
X11705463Y-21359447D02*
X11743558Y-21359447D01*
X11743558Y-21359447D02*
X11762606Y-21349923D01*
X11762606Y-21349923D02*
X11772130Y-21330875D01*
X11772130Y-21330875D02*
X11772130Y-21321352D01*
X11772130Y-21321352D02*
X11762606Y-21302304D01*
X11762606Y-21302304D02*
X11743558Y-21292780D01*
X11743558Y-21292780D02*
X11714987Y-21292780D01*
X11714987Y-21292780D02*
X11695939Y-21283256D01*
X11695939Y-21283256D02*
X11686415Y-21264209D01*
X11686415Y-21264209D02*
X11686415Y-21254685D01*
X11686415Y-21254685D02*
X11695939Y-21235637D01*
X11695939Y-21235637D02*
X11714987Y-21226113D01*
X11714987Y-21226113D02*
X11743558Y-21226113D01*
X11743558Y-21226113D02*
X11762606Y-21235637D01*
X11838796Y-21435637D02*
X11848320Y-21426113D01*
X11848320Y-21426113D02*
X11867368Y-21397542D01*
X11867368Y-21397542D02*
X11876891Y-21378494D01*
X11876891Y-21378494D02*
X11886415Y-21349923D01*
X11886415Y-21349923D02*
X11895939Y-21302304D01*
X11895939Y-21302304D02*
X11895939Y-21264209D01*
X11895939Y-21264209D02*
X11886415Y-21216590D01*
X11886415Y-21216590D02*
X11876891Y-21188018D01*
X11876891Y-21188018D02*
X11867368Y-21168971D01*
X11867368Y-21168971D02*
X11848320Y-21140399D01*
X11848320Y-21140399D02*
X11838796Y-21130875D01*
D13*
X6954513Y-21477353D02*
X7063733Y-21586573D01*
X7063733Y-21477353D02*
X6954513Y-21586573D01*
X7063733Y-21531963D02*
G75*
G02*
X6954513Y-21531963I-54610J0D01*
G01*
X6954513Y-21531963D02*
G75*
G02*
X7063733Y-21531963I54610J0D01*
G01*
D11*
X7429272Y-21623447D02*
X7314986Y-21623447D01*
X7372129Y-21623447D02*
X7372129Y-21423447D01*
X7372129Y-21423447D02*
X7353081Y-21452018D01*
X7353081Y-21452018D02*
X7334034Y-21471066D01*
X7334034Y-21471066D02*
X7314986Y-21480590D01*
X7514986Y-21604399D02*
X7524510Y-21613923D01*
X7524510Y-21613923D02*
X7514986Y-21623447D01*
X7514986Y-21623447D02*
X7505462Y-21613923D01*
X7505462Y-21613923D02*
X7514986Y-21604399D01*
X7514986Y-21604399D02*
X7514986Y-21623447D01*
X7648320Y-21423447D02*
X7667367Y-21423447D01*
X7667367Y-21423447D02*
X7686415Y-21432971D01*
X7686415Y-21432971D02*
X7695939Y-21442494D01*
X7695939Y-21442494D02*
X7705462Y-21461542D01*
X7705462Y-21461542D02*
X7714986Y-21499637D01*
X7714986Y-21499637D02*
X7714986Y-21547256D01*
X7714986Y-21547256D02*
X7705462Y-21585352D01*
X7705462Y-21585352D02*
X7695939Y-21604399D01*
X7695939Y-21604399D02*
X7686415Y-21613923D01*
X7686415Y-21613923D02*
X7667367Y-21623447D01*
X7667367Y-21623447D02*
X7648320Y-21623447D01*
X7648320Y-21623447D02*
X7629272Y-21613923D01*
X7629272Y-21613923D02*
X7619748Y-21604399D01*
X7619748Y-21604399D02*
X7610224Y-21585352D01*
X7610224Y-21585352D02*
X7600701Y-21547256D01*
X7600701Y-21547256D02*
X7600701Y-21499637D01*
X7600701Y-21499637D02*
X7610224Y-21461542D01*
X7610224Y-21461542D02*
X7619748Y-21442494D01*
X7619748Y-21442494D02*
X7629272Y-21432971D01*
X7629272Y-21432971D02*
X7648320Y-21423447D01*
X7810224Y-21623447D02*
X7848320Y-21623447D01*
X7848320Y-21623447D02*
X7867367Y-21613923D01*
X7867367Y-21613923D02*
X7876891Y-21604399D01*
X7876891Y-21604399D02*
X7895939Y-21575828D01*
X7895939Y-21575828D02*
X7905462Y-21537733D01*
X7905462Y-21537733D02*
X7905462Y-21461542D01*
X7905462Y-21461542D02*
X7895939Y-21442494D01*
X7895939Y-21442494D02*
X7886415Y-21432971D01*
X7886415Y-21432971D02*
X7867367Y-21423447D01*
X7867367Y-21423447D02*
X7829272Y-21423447D01*
X7829272Y-21423447D02*
X7810224Y-21432971D01*
X7810224Y-21432971D02*
X7800701Y-21442494D01*
X7800701Y-21442494D02*
X7791177Y-21461542D01*
X7791177Y-21461542D02*
X7791177Y-21509161D01*
X7791177Y-21509161D02*
X7800701Y-21528209D01*
X7800701Y-21528209D02*
X7810224Y-21537733D01*
X7810224Y-21537733D02*
X7829272Y-21547256D01*
X7829272Y-21547256D02*
X7867367Y-21547256D01*
X7867367Y-21547256D02*
X7886415Y-21537733D01*
X7886415Y-21537733D02*
X7895939Y-21528209D01*
X7895939Y-21528209D02*
X7905462Y-21509161D01*
X7981653Y-21442494D02*
X7991177Y-21432971D01*
X7991177Y-21432971D02*
X8010224Y-21423447D01*
X8010224Y-21423447D02*
X8057843Y-21423447D01*
X8057843Y-21423447D02*
X8076891Y-21432971D01*
X8076891Y-21432971D02*
X8086415Y-21442494D01*
X8086415Y-21442494D02*
X8095939Y-21461542D01*
X8095939Y-21461542D02*
X8095939Y-21480590D01*
X8095939Y-21480590D02*
X8086415Y-21509161D01*
X8086415Y-21509161D02*
X7972129Y-21623447D01*
X7972129Y-21623447D02*
X8095939Y-21623447D01*
X8181653Y-21623447D02*
X8181653Y-21490113D01*
X8181653Y-21509161D02*
X8191177Y-21499637D01*
X8191177Y-21499637D02*
X8210224Y-21490113D01*
X8210224Y-21490113D02*
X8238796Y-21490113D01*
X8238796Y-21490113D02*
X8257843Y-21499637D01*
X8257843Y-21499637D02*
X8267367Y-21518685D01*
X8267367Y-21518685D02*
X8267367Y-21623447D01*
X8267367Y-21518685D02*
X8276891Y-21499637D01*
X8276891Y-21499637D02*
X8295939Y-21490113D01*
X8295939Y-21490113D02*
X8324510Y-21490113D01*
X8324510Y-21490113D02*
X8343558Y-21499637D01*
X8343558Y-21499637D02*
X8353082Y-21518685D01*
X8353082Y-21518685D02*
X8353082Y-21623447D01*
X8448320Y-21623447D02*
X8448320Y-21490113D01*
X8448320Y-21509161D02*
X8457844Y-21499637D01*
X8457844Y-21499637D02*
X8476891Y-21490113D01*
X8476891Y-21490113D02*
X8505463Y-21490113D01*
X8505463Y-21490113D02*
X8524510Y-21499637D01*
X8524510Y-21499637D02*
X8534034Y-21518685D01*
X8534034Y-21518685D02*
X8534034Y-21623447D01*
X8534034Y-21518685D02*
X8543558Y-21499637D01*
X8543558Y-21499637D02*
X8562605Y-21490113D01*
X8562605Y-21490113D02*
X8591177Y-21490113D01*
X8591177Y-21490113D02*
X8610225Y-21499637D01*
X8610225Y-21499637D02*
X8619748Y-21518685D01*
X8619748Y-21518685D02*
X8619748Y-21623447D01*
X9010225Y-21413923D02*
X8838796Y-21671066D01*
X9267367Y-21423447D02*
X9286415Y-21423447D01*
X9286415Y-21423447D02*
X9305463Y-21432971D01*
X9305463Y-21432971D02*
X9314987Y-21442494D01*
X9314987Y-21442494D02*
X9324510Y-21461542D01*
X9324510Y-21461542D02*
X9334034Y-21499637D01*
X9334034Y-21499637D02*
X9334034Y-21547256D01*
X9334034Y-21547256D02*
X9324510Y-21585352D01*
X9324510Y-21585352D02*
X9314987Y-21604399D01*
X9314987Y-21604399D02*
X9305463Y-21613923D01*
X9305463Y-21613923D02*
X9286415Y-21623447D01*
X9286415Y-21623447D02*
X9267367Y-21623447D01*
X9267367Y-21623447D02*
X9248320Y-21613923D01*
X9248320Y-21613923D02*
X9238796Y-21604399D01*
X9238796Y-21604399D02*
X9229272Y-21585352D01*
X9229272Y-21585352D02*
X9219748Y-21547256D01*
X9219748Y-21547256D02*
X9219748Y-21499637D01*
X9219748Y-21499637D02*
X9229272Y-21461542D01*
X9229272Y-21461542D02*
X9238796Y-21442494D01*
X9238796Y-21442494D02*
X9248320Y-21432971D01*
X9248320Y-21432971D02*
X9267367Y-21423447D01*
X9419748Y-21604399D02*
X9429272Y-21613923D01*
X9429272Y-21613923D02*
X9419748Y-21623447D01*
X9419748Y-21623447D02*
X9410225Y-21613923D01*
X9410225Y-21613923D02*
X9419748Y-21604399D01*
X9419748Y-21604399D02*
X9419748Y-21623447D01*
X9553082Y-21423447D02*
X9572129Y-21423447D01*
X9572129Y-21423447D02*
X9591177Y-21432971D01*
X9591177Y-21432971D02*
X9600701Y-21442494D01*
X9600701Y-21442494D02*
X9610225Y-21461542D01*
X9610225Y-21461542D02*
X9619748Y-21499637D01*
X9619748Y-21499637D02*
X9619748Y-21547256D01*
X9619748Y-21547256D02*
X9610225Y-21585352D01*
X9610225Y-21585352D02*
X9600701Y-21604399D01*
X9600701Y-21604399D02*
X9591177Y-21613923D01*
X9591177Y-21613923D02*
X9572129Y-21623447D01*
X9572129Y-21623447D02*
X9553082Y-21623447D01*
X9553082Y-21623447D02*
X9534034Y-21613923D01*
X9534034Y-21613923D02*
X9524510Y-21604399D01*
X9524510Y-21604399D02*
X9514987Y-21585352D01*
X9514987Y-21585352D02*
X9505463Y-21547256D01*
X9505463Y-21547256D02*
X9505463Y-21499637D01*
X9505463Y-21499637D02*
X9514987Y-21461542D01*
X9514987Y-21461542D02*
X9524510Y-21442494D01*
X9524510Y-21442494D02*
X9534034Y-21432971D01*
X9534034Y-21432971D02*
X9553082Y-21423447D01*
X9791177Y-21490113D02*
X9791177Y-21623447D01*
X9743558Y-21413923D02*
X9695939Y-21556780D01*
X9695939Y-21556780D02*
X9819748Y-21556780D01*
X9876891Y-21423447D02*
X10000701Y-21423447D01*
X10000701Y-21423447D02*
X9934034Y-21499637D01*
X9934034Y-21499637D02*
X9962606Y-21499637D01*
X9962606Y-21499637D02*
X9981653Y-21509161D01*
X9981653Y-21509161D02*
X9991177Y-21518685D01*
X9991177Y-21518685D02*
X10000701Y-21537733D01*
X10000701Y-21537733D02*
X10000701Y-21585352D01*
X10000701Y-21585352D02*
X9991177Y-21604399D01*
X9991177Y-21604399D02*
X9981653Y-21613923D01*
X9981653Y-21613923D02*
X9962606Y-21623447D01*
X9962606Y-21623447D02*
X9905463Y-21623447D01*
X9905463Y-21623447D02*
X9886415Y-21613923D01*
X9886415Y-21613923D02*
X9876891Y-21604399D01*
X10124510Y-21423447D02*
X10143558Y-21423447D01*
X10143558Y-21423447D02*
X10162606Y-21432971D01*
X10162606Y-21432971D02*
X10172129Y-21442494D01*
X10172129Y-21442494D02*
X10181653Y-21461542D01*
X10181653Y-21461542D02*
X10191177Y-21499637D01*
X10191177Y-21499637D02*
X10191177Y-21547256D01*
X10191177Y-21547256D02*
X10181653Y-21585352D01*
X10181653Y-21585352D02*
X10172129Y-21604399D01*
X10172129Y-21604399D02*
X10162606Y-21613923D01*
X10162606Y-21613923D02*
X10143558Y-21623447D01*
X10143558Y-21623447D02*
X10124510Y-21623447D01*
X10124510Y-21623447D02*
X10105463Y-21613923D01*
X10105463Y-21613923D02*
X10095939Y-21604399D01*
X10095939Y-21604399D02*
X10086415Y-21585352D01*
X10086415Y-21585352D02*
X10076891Y-21547256D01*
X10076891Y-21547256D02*
X10076891Y-21499637D01*
X10076891Y-21499637D02*
X10086415Y-21461542D01*
X10086415Y-21461542D02*
X10095939Y-21442494D01*
X10095939Y-21442494D02*
X10105463Y-21432971D01*
X10105463Y-21432971D02*
X10124510Y-21423447D01*
X10267368Y-21423447D02*
X10267368Y-21461542D01*
X10343558Y-21423447D02*
X10343558Y-21461542D01*
X10638796Y-21699637D02*
X10629272Y-21690113D01*
X10629272Y-21690113D02*
X10610225Y-21661542D01*
X10610225Y-21661542D02*
X10600701Y-21642494D01*
X10600701Y-21642494D02*
X10591177Y-21613923D01*
X10591177Y-21613923D02*
X10581653Y-21566304D01*
X10581653Y-21566304D02*
X10581653Y-21528209D01*
X10581653Y-21528209D02*
X10591177Y-21480590D01*
X10591177Y-21480590D02*
X10600701Y-21452018D01*
X10600701Y-21452018D02*
X10610225Y-21432971D01*
X10610225Y-21432971D02*
X10629272Y-21404399D01*
X10629272Y-21404399D02*
X10638796Y-21394875D01*
X10705463Y-21442494D02*
X10714987Y-21432971D01*
X10714987Y-21432971D02*
X10734034Y-21423447D01*
X10734034Y-21423447D02*
X10781653Y-21423447D01*
X10781653Y-21423447D02*
X10800701Y-21432971D01*
X10800701Y-21432971D02*
X10810225Y-21442494D01*
X10810225Y-21442494D02*
X10819749Y-21461542D01*
X10819749Y-21461542D02*
X10819749Y-21480590D01*
X10819749Y-21480590D02*
X10810225Y-21509161D01*
X10810225Y-21509161D02*
X10695939Y-21623447D01*
X10695939Y-21623447D02*
X10819749Y-21623447D01*
X10991177Y-21490113D02*
X10991177Y-21623447D01*
X10943558Y-21413923D02*
X10895939Y-21556780D01*
X10895939Y-21556780D02*
X11019749Y-21556780D01*
X11248320Y-21623447D02*
X11248320Y-21423447D01*
X11334034Y-21623447D02*
X11334034Y-21518685D01*
X11334034Y-21518685D02*
X11324510Y-21499637D01*
X11324510Y-21499637D02*
X11305463Y-21490113D01*
X11305463Y-21490113D02*
X11276891Y-21490113D01*
X11276891Y-21490113D02*
X11257844Y-21499637D01*
X11257844Y-21499637D02*
X11248320Y-21509161D01*
X11457844Y-21623447D02*
X11438796Y-21613923D01*
X11438796Y-21613923D02*
X11429272Y-21604399D01*
X11429272Y-21604399D02*
X11419749Y-21585352D01*
X11419749Y-21585352D02*
X11419749Y-21528209D01*
X11419749Y-21528209D02*
X11429272Y-21509161D01*
X11429272Y-21509161D02*
X11438796Y-21499637D01*
X11438796Y-21499637D02*
X11457844Y-21490113D01*
X11457844Y-21490113D02*
X11486415Y-21490113D01*
X11486415Y-21490113D02*
X11505463Y-21499637D01*
X11505463Y-21499637D02*
X11514987Y-21509161D01*
X11514987Y-21509161D02*
X11524510Y-21528209D01*
X11524510Y-21528209D02*
X11524510Y-21585352D01*
X11524510Y-21585352D02*
X11514987Y-21604399D01*
X11514987Y-21604399D02*
X11505463Y-21613923D01*
X11505463Y-21613923D02*
X11486415Y-21623447D01*
X11486415Y-21623447D02*
X11457844Y-21623447D01*
X11638796Y-21623447D02*
X11619749Y-21613923D01*
X11619749Y-21613923D02*
X11610225Y-21594875D01*
X11610225Y-21594875D02*
X11610225Y-21423447D01*
X11791177Y-21613923D02*
X11772130Y-21623447D01*
X11772130Y-21623447D02*
X11734034Y-21623447D01*
X11734034Y-21623447D02*
X11714987Y-21613923D01*
X11714987Y-21613923D02*
X11705463Y-21594875D01*
X11705463Y-21594875D02*
X11705463Y-21518685D01*
X11705463Y-21518685D02*
X11714987Y-21499637D01*
X11714987Y-21499637D02*
X11734034Y-21490113D01*
X11734034Y-21490113D02*
X11772130Y-21490113D01*
X11772130Y-21490113D02*
X11791177Y-21499637D01*
X11791177Y-21499637D02*
X11800701Y-21518685D01*
X11800701Y-21518685D02*
X11800701Y-21537733D01*
X11800701Y-21537733D02*
X11705463Y-21556780D01*
X11876891Y-21613923D02*
X11895939Y-21623447D01*
X11895939Y-21623447D02*
X11934034Y-21623447D01*
X11934034Y-21623447D02*
X11953082Y-21613923D01*
X11953082Y-21613923D02*
X11962606Y-21594875D01*
X11962606Y-21594875D02*
X11962606Y-21585352D01*
X11962606Y-21585352D02*
X11953082Y-21566304D01*
X11953082Y-21566304D02*
X11934034Y-21556780D01*
X11934034Y-21556780D02*
X11905463Y-21556780D01*
X11905463Y-21556780D02*
X11886415Y-21547256D01*
X11886415Y-21547256D02*
X11876891Y-21528209D01*
X11876891Y-21528209D02*
X11876891Y-21518685D01*
X11876891Y-21518685D02*
X11886415Y-21499637D01*
X11886415Y-21499637D02*
X11905463Y-21490113D01*
X11905463Y-21490113D02*
X11934034Y-21490113D01*
X11934034Y-21490113D02*
X11953082Y-21499637D01*
X12029272Y-21699637D02*
X12038796Y-21690113D01*
X12038796Y-21690113D02*
X12057844Y-21661542D01*
X12057844Y-21661542D02*
X12067368Y-21642494D01*
X12067368Y-21642494D02*
X12076891Y-21613923D01*
X12076891Y-21613923D02*
X12086415Y-21566304D01*
X12086415Y-21566304D02*
X12086415Y-21528209D01*
X12086415Y-21528209D02*
X12076891Y-21480590D01*
X12076891Y-21480590D02*
X12067368Y-21452018D01*
X12067368Y-21452018D02*
X12057844Y-21432971D01*
X12057844Y-21432971D02*
X12038796Y-21404399D01*
X12038796Y-21404399D02*
X12029272Y-21394875D01*
D14*
X6933733Y-21730963D02*
X7063733Y-21860963D01*
X7063733Y-21730963D02*
X6933733Y-21860963D01*
X6998733Y-21730963D02*
X6998733Y-21860963D01*
X6933733Y-21795963D02*
X7063733Y-21795963D01*
D11*
X7429272Y-21887447D02*
X7314986Y-21887447D01*
X7372129Y-21887447D02*
X7372129Y-21687447D01*
X7372129Y-21687447D02*
X7353081Y-21716018D01*
X7353081Y-21716018D02*
X7334034Y-21735066D01*
X7334034Y-21735066D02*
X7314986Y-21744590D01*
X7514986Y-21868399D02*
X7524510Y-21877923D01*
X7524510Y-21877923D02*
X7514986Y-21887447D01*
X7514986Y-21887447D02*
X7505462Y-21877923D01*
X7505462Y-21877923D02*
X7514986Y-21868399D01*
X7514986Y-21868399D02*
X7514986Y-21887447D01*
X7591177Y-21687447D02*
X7714986Y-21687447D01*
X7714986Y-21687447D02*
X7648320Y-21763637D01*
X7648320Y-21763637D02*
X7676891Y-21763637D01*
X7676891Y-21763637D02*
X7695939Y-21773161D01*
X7695939Y-21773161D02*
X7705462Y-21782685D01*
X7705462Y-21782685D02*
X7714986Y-21801733D01*
X7714986Y-21801733D02*
X7714986Y-21849352D01*
X7714986Y-21849352D02*
X7705462Y-21868399D01*
X7705462Y-21868399D02*
X7695939Y-21877923D01*
X7695939Y-21877923D02*
X7676891Y-21887447D01*
X7676891Y-21887447D02*
X7619748Y-21887447D01*
X7619748Y-21887447D02*
X7600701Y-21877923D01*
X7600701Y-21877923D02*
X7591177Y-21868399D01*
X7838796Y-21687447D02*
X7857843Y-21687447D01*
X7857843Y-21687447D02*
X7876891Y-21696971D01*
X7876891Y-21696971D02*
X7886415Y-21706494D01*
X7886415Y-21706494D02*
X7895939Y-21725542D01*
X7895939Y-21725542D02*
X7905462Y-21763637D01*
X7905462Y-21763637D02*
X7905462Y-21811256D01*
X7905462Y-21811256D02*
X7895939Y-21849352D01*
X7895939Y-21849352D02*
X7886415Y-21868399D01*
X7886415Y-21868399D02*
X7876891Y-21877923D01*
X7876891Y-21877923D02*
X7857843Y-21887447D01*
X7857843Y-21887447D02*
X7838796Y-21887447D01*
X7838796Y-21887447D02*
X7819748Y-21877923D01*
X7819748Y-21877923D02*
X7810224Y-21868399D01*
X7810224Y-21868399D02*
X7800701Y-21849352D01*
X7800701Y-21849352D02*
X7791177Y-21811256D01*
X7791177Y-21811256D02*
X7791177Y-21763637D01*
X7791177Y-21763637D02*
X7800701Y-21725542D01*
X7800701Y-21725542D02*
X7810224Y-21706494D01*
X7810224Y-21706494D02*
X7819748Y-21696971D01*
X7819748Y-21696971D02*
X7838796Y-21687447D01*
X8029272Y-21687447D02*
X8048320Y-21687447D01*
X8048320Y-21687447D02*
X8067367Y-21696971D01*
X8067367Y-21696971D02*
X8076891Y-21706494D01*
X8076891Y-21706494D02*
X8086415Y-21725542D01*
X8086415Y-21725542D02*
X8095939Y-21763637D01*
X8095939Y-21763637D02*
X8095939Y-21811256D01*
X8095939Y-21811256D02*
X8086415Y-21849352D01*
X8086415Y-21849352D02*
X8076891Y-21868399D01*
X8076891Y-21868399D02*
X8067367Y-21877923D01*
X8067367Y-21877923D02*
X8048320Y-21887447D01*
X8048320Y-21887447D02*
X8029272Y-21887447D01*
X8029272Y-21887447D02*
X8010224Y-21877923D01*
X8010224Y-21877923D02*
X8000701Y-21868399D01*
X8000701Y-21868399D02*
X7991177Y-21849352D01*
X7991177Y-21849352D02*
X7981653Y-21811256D01*
X7981653Y-21811256D02*
X7981653Y-21763637D01*
X7981653Y-21763637D02*
X7991177Y-21725542D01*
X7991177Y-21725542D02*
X8000701Y-21706494D01*
X8000701Y-21706494D02*
X8010224Y-21696971D01*
X8010224Y-21696971D02*
X8029272Y-21687447D01*
X8181653Y-21887447D02*
X8181653Y-21754113D01*
X8181653Y-21773161D02*
X8191177Y-21763637D01*
X8191177Y-21763637D02*
X8210224Y-21754113D01*
X8210224Y-21754113D02*
X8238796Y-21754113D01*
X8238796Y-21754113D02*
X8257843Y-21763637D01*
X8257843Y-21763637D02*
X8267367Y-21782685D01*
X8267367Y-21782685D02*
X8267367Y-21887447D01*
X8267367Y-21782685D02*
X8276891Y-21763637D01*
X8276891Y-21763637D02*
X8295939Y-21754113D01*
X8295939Y-21754113D02*
X8324510Y-21754113D01*
X8324510Y-21754113D02*
X8343558Y-21763637D01*
X8343558Y-21763637D02*
X8353082Y-21782685D01*
X8353082Y-21782685D02*
X8353082Y-21887447D01*
X8448320Y-21887447D02*
X8448320Y-21754113D01*
X8448320Y-21773161D02*
X8457844Y-21763637D01*
X8457844Y-21763637D02*
X8476891Y-21754113D01*
X8476891Y-21754113D02*
X8505463Y-21754113D01*
X8505463Y-21754113D02*
X8524510Y-21763637D01*
X8524510Y-21763637D02*
X8534034Y-21782685D01*
X8534034Y-21782685D02*
X8534034Y-21887447D01*
X8534034Y-21782685D02*
X8543558Y-21763637D01*
X8543558Y-21763637D02*
X8562605Y-21754113D01*
X8562605Y-21754113D02*
X8591177Y-21754113D01*
X8591177Y-21754113D02*
X8610225Y-21763637D01*
X8610225Y-21763637D02*
X8619748Y-21782685D01*
X8619748Y-21782685D02*
X8619748Y-21887447D01*
X9010225Y-21677923D02*
X8838796Y-21935066D01*
X9267367Y-21687447D02*
X9286415Y-21687447D01*
X9286415Y-21687447D02*
X9305463Y-21696971D01*
X9305463Y-21696971D02*
X9314987Y-21706494D01*
X9314987Y-21706494D02*
X9324510Y-21725542D01*
X9324510Y-21725542D02*
X9334034Y-21763637D01*
X9334034Y-21763637D02*
X9334034Y-21811256D01*
X9334034Y-21811256D02*
X9324510Y-21849352D01*
X9324510Y-21849352D02*
X9314987Y-21868399D01*
X9314987Y-21868399D02*
X9305463Y-21877923D01*
X9305463Y-21877923D02*
X9286415Y-21887447D01*
X9286415Y-21887447D02*
X9267367Y-21887447D01*
X9267367Y-21887447D02*
X9248320Y-21877923D01*
X9248320Y-21877923D02*
X9238796Y-21868399D01*
X9238796Y-21868399D02*
X9229272Y-21849352D01*
X9229272Y-21849352D02*
X9219748Y-21811256D01*
X9219748Y-21811256D02*
X9219748Y-21763637D01*
X9219748Y-21763637D02*
X9229272Y-21725542D01*
X9229272Y-21725542D02*
X9238796Y-21706494D01*
X9238796Y-21706494D02*
X9248320Y-21696971D01*
X9248320Y-21696971D02*
X9267367Y-21687447D01*
X9419748Y-21868399D02*
X9429272Y-21877923D01*
X9429272Y-21877923D02*
X9419748Y-21887447D01*
X9419748Y-21887447D02*
X9410225Y-21877923D01*
X9410225Y-21877923D02*
X9419748Y-21868399D01*
X9419748Y-21868399D02*
X9419748Y-21887447D01*
X9553082Y-21687447D02*
X9572129Y-21687447D01*
X9572129Y-21687447D02*
X9591177Y-21696971D01*
X9591177Y-21696971D02*
X9600701Y-21706494D01*
X9600701Y-21706494D02*
X9610225Y-21725542D01*
X9610225Y-21725542D02*
X9619748Y-21763637D01*
X9619748Y-21763637D02*
X9619748Y-21811256D01*
X9619748Y-21811256D02*
X9610225Y-21849352D01*
X9610225Y-21849352D02*
X9600701Y-21868399D01*
X9600701Y-21868399D02*
X9591177Y-21877923D01*
X9591177Y-21877923D02*
X9572129Y-21887447D01*
X9572129Y-21887447D02*
X9553082Y-21887447D01*
X9553082Y-21887447D02*
X9534034Y-21877923D01*
X9534034Y-21877923D02*
X9524510Y-21868399D01*
X9524510Y-21868399D02*
X9514987Y-21849352D01*
X9514987Y-21849352D02*
X9505463Y-21811256D01*
X9505463Y-21811256D02*
X9505463Y-21763637D01*
X9505463Y-21763637D02*
X9514987Y-21725542D01*
X9514987Y-21725542D02*
X9524510Y-21706494D01*
X9524510Y-21706494D02*
X9534034Y-21696971D01*
X9534034Y-21696971D02*
X9553082Y-21687447D01*
X9800701Y-21687447D02*
X9705463Y-21687447D01*
X9705463Y-21687447D02*
X9695939Y-21782685D01*
X9695939Y-21782685D02*
X9705463Y-21773161D01*
X9705463Y-21773161D02*
X9724510Y-21763637D01*
X9724510Y-21763637D02*
X9772129Y-21763637D01*
X9772129Y-21763637D02*
X9791177Y-21773161D01*
X9791177Y-21773161D02*
X9800701Y-21782685D01*
X9800701Y-21782685D02*
X9810225Y-21801733D01*
X9810225Y-21801733D02*
X9810225Y-21849352D01*
X9810225Y-21849352D02*
X9800701Y-21868399D01*
X9800701Y-21868399D02*
X9791177Y-21877923D01*
X9791177Y-21877923D02*
X9772129Y-21887447D01*
X9772129Y-21887447D02*
X9724510Y-21887447D01*
X9724510Y-21887447D02*
X9705463Y-21877923D01*
X9705463Y-21877923D02*
X9695939Y-21868399D01*
X10000701Y-21887447D02*
X9886415Y-21887447D01*
X9943558Y-21887447D02*
X9943558Y-21687447D01*
X9943558Y-21687447D02*
X9924510Y-21716018D01*
X9924510Y-21716018D02*
X9905463Y-21735066D01*
X9905463Y-21735066D02*
X9886415Y-21744590D01*
X10076891Y-21706494D02*
X10086415Y-21696971D01*
X10086415Y-21696971D02*
X10105463Y-21687447D01*
X10105463Y-21687447D02*
X10153082Y-21687447D01*
X10153082Y-21687447D02*
X10172129Y-21696971D01*
X10172129Y-21696971D02*
X10181653Y-21706494D01*
X10181653Y-21706494D02*
X10191177Y-21725542D01*
X10191177Y-21725542D02*
X10191177Y-21744590D01*
X10191177Y-21744590D02*
X10181653Y-21773161D01*
X10181653Y-21773161D02*
X10067368Y-21887447D01*
X10067368Y-21887447D02*
X10191177Y-21887447D01*
X10267368Y-21687447D02*
X10267368Y-21725542D01*
X10343558Y-21687447D02*
X10343558Y-21725542D01*
X10638796Y-21963637D02*
X10629272Y-21954113D01*
X10629272Y-21954113D02*
X10610225Y-21925542D01*
X10610225Y-21925542D02*
X10600701Y-21906494D01*
X10600701Y-21906494D02*
X10591177Y-21877923D01*
X10591177Y-21877923D02*
X10581653Y-21830304D01*
X10581653Y-21830304D02*
X10581653Y-21792209D01*
X10581653Y-21792209D02*
X10591177Y-21744590D01*
X10591177Y-21744590D02*
X10600701Y-21716018D01*
X10600701Y-21716018D02*
X10610225Y-21696971D01*
X10610225Y-21696971D02*
X10629272Y-21668399D01*
X10629272Y-21668399D02*
X10638796Y-21658875D01*
X10705463Y-21706494D02*
X10714987Y-21696971D01*
X10714987Y-21696971D02*
X10734034Y-21687447D01*
X10734034Y-21687447D02*
X10781653Y-21687447D01*
X10781653Y-21687447D02*
X10800701Y-21696971D01*
X10800701Y-21696971D02*
X10810225Y-21706494D01*
X10810225Y-21706494D02*
X10819749Y-21725542D01*
X10819749Y-21725542D02*
X10819749Y-21744590D01*
X10819749Y-21744590D02*
X10810225Y-21773161D01*
X10810225Y-21773161D02*
X10695939Y-21887447D01*
X10695939Y-21887447D02*
X10819749Y-21887447D01*
X11057844Y-21887447D02*
X11057844Y-21687447D01*
X11143558Y-21887447D02*
X11143558Y-21782685D01*
X11143558Y-21782685D02*
X11134034Y-21763637D01*
X11134034Y-21763637D02*
X11114987Y-21754113D01*
X11114987Y-21754113D02*
X11086415Y-21754113D01*
X11086415Y-21754113D02*
X11067368Y-21763637D01*
X11067368Y-21763637D02*
X11057844Y-21773161D01*
X11267368Y-21887447D02*
X11248320Y-21877923D01*
X11248320Y-21877923D02*
X11238796Y-21868399D01*
X11238796Y-21868399D02*
X11229272Y-21849352D01*
X11229272Y-21849352D02*
X11229272Y-21792209D01*
X11229272Y-21792209D02*
X11238796Y-21773161D01*
X11238796Y-21773161D02*
X11248320Y-21763637D01*
X11248320Y-21763637D02*
X11267368Y-21754113D01*
X11267368Y-21754113D02*
X11295939Y-21754113D01*
X11295939Y-21754113D02*
X11314987Y-21763637D01*
X11314987Y-21763637D02*
X11324510Y-21773161D01*
X11324510Y-21773161D02*
X11334034Y-21792209D01*
X11334034Y-21792209D02*
X11334034Y-21849352D01*
X11334034Y-21849352D02*
X11324510Y-21868399D01*
X11324510Y-21868399D02*
X11314987Y-21877923D01*
X11314987Y-21877923D02*
X11295939Y-21887447D01*
X11295939Y-21887447D02*
X11267368Y-21887447D01*
X11448320Y-21887447D02*
X11429272Y-21877923D01*
X11429272Y-21877923D02*
X11419749Y-21858875D01*
X11419749Y-21858875D02*
X11419749Y-21687447D01*
X11600701Y-21877923D02*
X11581653Y-21887447D01*
X11581653Y-21887447D02*
X11543558Y-21887447D01*
X11543558Y-21887447D02*
X11524510Y-21877923D01*
X11524510Y-21877923D02*
X11514987Y-21858875D01*
X11514987Y-21858875D02*
X11514987Y-21782685D01*
X11514987Y-21782685D02*
X11524510Y-21763637D01*
X11524510Y-21763637D02*
X11543558Y-21754113D01*
X11543558Y-21754113D02*
X11581653Y-21754113D01*
X11581653Y-21754113D02*
X11600701Y-21763637D01*
X11600701Y-21763637D02*
X11610225Y-21782685D01*
X11610225Y-21782685D02*
X11610225Y-21801733D01*
X11610225Y-21801733D02*
X11514987Y-21820780D01*
X11686415Y-21877923D02*
X11705463Y-21887447D01*
X11705463Y-21887447D02*
X11743558Y-21887447D01*
X11743558Y-21887447D02*
X11762606Y-21877923D01*
X11762606Y-21877923D02*
X11772130Y-21858875D01*
X11772130Y-21858875D02*
X11772130Y-21849352D01*
X11772130Y-21849352D02*
X11762606Y-21830304D01*
X11762606Y-21830304D02*
X11743558Y-21820780D01*
X11743558Y-21820780D02*
X11714987Y-21820780D01*
X11714987Y-21820780D02*
X11695939Y-21811256D01*
X11695939Y-21811256D02*
X11686415Y-21792209D01*
X11686415Y-21792209D02*
X11686415Y-21782685D01*
X11686415Y-21782685D02*
X11695939Y-21763637D01*
X11695939Y-21763637D02*
X11714987Y-21754113D01*
X11714987Y-21754113D02*
X11743558Y-21754113D01*
X11743558Y-21754113D02*
X11762606Y-21763637D01*
X11838796Y-21963637D02*
X11848320Y-21954113D01*
X11848320Y-21954113D02*
X11867368Y-21925542D01*
X11867368Y-21925542D02*
X11876891Y-21906494D01*
X11876891Y-21906494D02*
X11886415Y-21877923D01*
X11886415Y-21877923D02*
X11895939Y-21830304D01*
X11895939Y-21830304D02*
X11895939Y-21792209D01*
X11895939Y-21792209D02*
X11886415Y-21744590D01*
X11886415Y-21744590D02*
X11876891Y-21716018D01*
X11876891Y-21716018D02*
X11867368Y-21696971D01*
X11867368Y-21696971D02*
X11848320Y-21668399D01*
X11848320Y-21668399D02*
X11838796Y-21658875D01*
X6863733Y-21959963D02*
X7063733Y-22159963D01*
X7063733Y-21959963D02*
X6863733Y-22159963D01*
X7034445Y-22130674D02*
X7034445Y-21989252D01*
X6893022Y-21989252D01*
X6893022Y-22130674D01*
X7034445Y-22130674D01*
X7314986Y-21970494D02*
X7324510Y-21960971D01*
X7324510Y-21960971D02*
X7343558Y-21951447D01*
X7343558Y-21951447D02*
X7391177Y-21951447D01*
X7391177Y-21951447D02*
X7410224Y-21960971D01*
X7410224Y-21960971D02*
X7419748Y-21970494D01*
X7419748Y-21970494D02*
X7429272Y-21989542D01*
X7429272Y-21989542D02*
X7429272Y-22008590D01*
X7429272Y-22008590D02*
X7419748Y-22037161D01*
X7419748Y-22037161D02*
X7305462Y-22151447D01*
X7305462Y-22151447D02*
X7429272Y-22151447D01*
X7514986Y-22132399D02*
X7524510Y-22141923D01*
X7524510Y-22141923D02*
X7514986Y-22151447D01*
X7514986Y-22151447D02*
X7505462Y-22141923D01*
X7505462Y-22141923D02*
X7514986Y-22132399D01*
X7514986Y-22132399D02*
X7514986Y-22151447D01*
X7600701Y-21970494D02*
X7610224Y-21960971D01*
X7610224Y-21960971D02*
X7629272Y-21951447D01*
X7629272Y-21951447D02*
X7676891Y-21951447D01*
X7676891Y-21951447D02*
X7695939Y-21960971D01*
X7695939Y-21960971D02*
X7705462Y-21970494D01*
X7705462Y-21970494D02*
X7714986Y-21989542D01*
X7714986Y-21989542D02*
X7714986Y-22008590D01*
X7714986Y-22008590D02*
X7705462Y-22037161D01*
X7705462Y-22037161D02*
X7591177Y-22151447D01*
X7591177Y-22151447D02*
X7714986Y-22151447D01*
X7838796Y-21951447D02*
X7857843Y-21951447D01*
X7857843Y-21951447D02*
X7876891Y-21960971D01*
X7876891Y-21960971D02*
X7886415Y-21970494D01*
X7886415Y-21970494D02*
X7895939Y-21989542D01*
X7895939Y-21989542D02*
X7905462Y-22027637D01*
X7905462Y-22027637D02*
X7905462Y-22075256D01*
X7905462Y-22075256D02*
X7895939Y-22113352D01*
X7895939Y-22113352D02*
X7886415Y-22132399D01*
X7886415Y-22132399D02*
X7876891Y-22141923D01*
X7876891Y-22141923D02*
X7857843Y-22151447D01*
X7857843Y-22151447D02*
X7838796Y-22151447D01*
X7838796Y-22151447D02*
X7819748Y-22141923D01*
X7819748Y-22141923D02*
X7810224Y-22132399D01*
X7810224Y-22132399D02*
X7800701Y-22113352D01*
X7800701Y-22113352D02*
X7791177Y-22075256D01*
X7791177Y-22075256D02*
X7791177Y-22027637D01*
X7791177Y-22027637D02*
X7800701Y-21989542D01*
X7800701Y-21989542D02*
X7810224Y-21970494D01*
X7810224Y-21970494D02*
X7819748Y-21960971D01*
X7819748Y-21960971D02*
X7838796Y-21951447D01*
X8029272Y-21951447D02*
X8048320Y-21951447D01*
X8048320Y-21951447D02*
X8067367Y-21960971D01*
X8067367Y-21960971D02*
X8076891Y-21970494D01*
X8076891Y-21970494D02*
X8086415Y-21989542D01*
X8086415Y-21989542D02*
X8095939Y-22027637D01*
X8095939Y-22027637D02*
X8095939Y-22075256D01*
X8095939Y-22075256D02*
X8086415Y-22113352D01*
X8086415Y-22113352D02*
X8076891Y-22132399D01*
X8076891Y-22132399D02*
X8067367Y-22141923D01*
X8067367Y-22141923D02*
X8048320Y-22151447D01*
X8048320Y-22151447D02*
X8029272Y-22151447D01*
X8029272Y-22151447D02*
X8010224Y-22141923D01*
X8010224Y-22141923D02*
X8000701Y-22132399D01*
X8000701Y-22132399D02*
X7991177Y-22113352D01*
X7991177Y-22113352D02*
X7981653Y-22075256D01*
X7981653Y-22075256D02*
X7981653Y-22027637D01*
X7981653Y-22027637D02*
X7991177Y-21989542D01*
X7991177Y-21989542D02*
X8000701Y-21970494D01*
X8000701Y-21970494D02*
X8010224Y-21960971D01*
X8010224Y-21960971D02*
X8029272Y-21951447D01*
X8181653Y-22151447D02*
X8181653Y-22018113D01*
X8181653Y-22037161D02*
X8191177Y-22027637D01*
X8191177Y-22027637D02*
X8210224Y-22018113D01*
X8210224Y-22018113D02*
X8238796Y-22018113D01*
X8238796Y-22018113D02*
X8257843Y-22027637D01*
X8257843Y-22027637D02*
X8267367Y-22046685D01*
X8267367Y-22046685D02*
X8267367Y-22151447D01*
X8267367Y-22046685D02*
X8276891Y-22027637D01*
X8276891Y-22027637D02*
X8295939Y-22018113D01*
X8295939Y-22018113D02*
X8324510Y-22018113D01*
X8324510Y-22018113D02*
X8343558Y-22027637D01*
X8343558Y-22027637D02*
X8353082Y-22046685D01*
X8353082Y-22046685D02*
X8353082Y-22151447D01*
X8448320Y-22151447D02*
X8448320Y-22018113D01*
X8448320Y-22037161D02*
X8457844Y-22027637D01*
X8457844Y-22027637D02*
X8476891Y-22018113D01*
X8476891Y-22018113D02*
X8505463Y-22018113D01*
X8505463Y-22018113D02*
X8524510Y-22027637D01*
X8524510Y-22027637D02*
X8534034Y-22046685D01*
X8534034Y-22046685D02*
X8534034Y-22151447D01*
X8534034Y-22046685D02*
X8543558Y-22027637D01*
X8543558Y-22027637D02*
X8562605Y-22018113D01*
X8562605Y-22018113D02*
X8591177Y-22018113D01*
X8591177Y-22018113D02*
X8610225Y-22027637D01*
X8610225Y-22027637D02*
X8619748Y-22046685D01*
X8619748Y-22046685D02*
X8619748Y-22151447D01*
X9010225Y-21941923D02*
X8838796Y-22199066D01*
X9267367Y-21951447D02*
X9286415Y-21951447D01*
X9286415Y-21951447D02*
X9305463Y-21960971D01*
X9305463Y-21960971D02*
X9314987Y-21970494D01*
X9314987Y-21970494D02*
X9324510Y-21989542D01*
X9324510Y-21989542D02*
X9334034Y-22027637D01*
X9334034Y-22027637D02*
X9334034Y-22075256D01*
X9334034Y-22075256D02*
X9324510Y-22113352D01*
X9324510Y-22113352D02*
X9314987Y-22132399D01*
X9314987Y-22132399D02*
X9305463Y-22141923D01*
X9305463Y-22141923D02*
X9286415Y-22151447D01*
X9286415Y-22151447D02*
X9267367Y-22151447D01*
X9267367Y-22151447D02*
X9248320Y-22141923D01*
X9248320Y-22141923D02*
X9238796Y-22132399D01*
X9238796Y-22132399D02*
X9229272Y-22113352D01*
X9229272Y-22113352D02*
X9219748Y-22075256D01*
X9219748Y-22075256D02*
X9219748Y-22027637D01*
X9219748Y-22027637D02*
X9229272Y-21989542D01*
X9229272Y-21989542D02*
X9238796Y-21970494D01*
X9238796Y-21970494D02*
X9248320Y-21960971D01*
X9248320Y-21960971D02*
X9267367Y-21951447D01*
X9419748Y-22132399D02*
X9429272Y-22141923D01*
X9429272Y-22141923D02*
X9419748Y-22151447D01*
X9419748Y-22151447D02*
X9410225Y-22141923D01*
X9410225Y-22141923D02*
X9419748Y-22132399D01*
X9419748Y-22132399D02*
X9419748Y-22151447D01*
X9553082Y-21951447D02*
X9572129Y-21951447D01*
X9572129Y-21951447D02*
X9591177Y-21960971D01*
X9591177Y-21960971D02*
X9600701Y-21970494D01*
X9600701Y-21970494D02*
X9610225Y-21989542D01*
X9610225Y-21989542D02*
X9619748Y-22027637D01*
X9619748Y-22027637D02*
X9619748Y-22075256D01*
X9619748Y-22075256D02*
X9610225Y-22113352D01*
X9610225Y-22113352D02*
X9600701Y-22132399D01*
X9600701Y-22132399D02*
X9591177Y-22141923D01*
X9591177Y-22141923D02*
X9572129Y-22151447D01*
X9572129Y-22151447D02*
X9553082Y-22151447D01*
X9553082Y-22151447D02*
X9534034Y-22141923D01*
X9534034Y-22141923D02*
X9524510Y-22132399D01*
X9524510Y-22132399D02*
X9514987Y-22113352D01*
X9514987Y-22113352D02*
X9505463Y-22075256D01*
X9505463Y-22075256D02*
X9505463Y-22027637D01*
X9505463Y-22027637D02*
X9514987Y-21989542D01*
X9514987Y-21989542D02*
X9524510Y-21970494D01*
X9524510Y-21970494D02*
X9534034Y-21960971D01*
X9534034Y-21960971D02*
X9553082Y-21951447D01*
X9734034Y-22037161D02*
X9714987Y-22027637D01*
X9714987Y-22027637D02*
X9705463Y-22018113D01*
X9705463Y-22018113D02*
X9695939Y-21999066D01*
X9695939Y-21999066D02*
X9695939Y-21989542D01*
X9695939Y-21989542D02*
X9705463Y-21970494D01*
X9705463Y-21970494D02*
X9714987Y-21960971D01*
X9714987Y-21960971D02*
X9734034Y-21951447D01*
X9734034Y-21951447D02*
X9772129Y-21951447D01*
X9772129Y-21951447D02*
X9791177Y-21960971D01*
X9791177Y-21960971D02*
X9800701Y-21970494D01*
X9800701Y-21970494D02*
X9810225Y-21989542D01*
X9810225Y-21989542D02*
X9810225Y-21999066D01*
X9810225Y-21999066D02*
X9800701Y-22018113D01*
X9800701Y-22018113D02*
X9791177Y-22027637D01*
X9791177Y-22027637D02*
X9772129Y-22037161D01*
X9772129Y-22037161D02*
X9734034Y-22037161D01*
X9734034Y-22037161D02*
X9714987Y-22046685D01*
X9714987Y-22046685D02*
X9705463Y-22056209D01*
X9705463Y-22056209D02*
X9695939Y-22075256D01*
X9695939Y-22075256D02*
X9695939Y-22113352D01*
X9695939Y-22113352D02*
X9705463Y-22132399D01*
X9705463Y-22132399D02*
X9714987Y-22141923D01*
X9714987Y-22141923D02*
X9734034Y-22151447D01*
X9734034Y-22151447D02*
X9772129Y-22151447D01*
X9772129Y-22151447D02*
X9791177Y-22141923D01*
X9791177Y-22141923D02*
X9800701Y-22132399D01*
X9800701Y-22132399D02*
X9810225Y-22113352D01*
X9810225Y-22113352D02*
X9810225Y-22075256D01*
X9810225Y-22075256D02*
X9800701Y-22056209D01*
X9800701Y-22056209D02*
X9791177Y-22046685D01*
X9791177Y-22046685D02*
X9772129Y-22037161D01*
X9981653Y-21951447D02*
X9943558Y-21951447D01*
X9943558Y-21951447D02*
X9924510Y-21960971D01*
X9924510Y-21960971D02*
X9914987Y-21970494D01*
X9914987Y-21970494D02*
X9895939Y-21999066D01*
X9895939Y-21999066D02*
X9886415Y-22037161D01*
X9886415Y-22037161D02*
X9886415Y-22113352D01*
X9886415Y-22113352D02*
X9895939Y-22132399D01*
X9895939Y-22132399D02*
X9905463Y-22141923D01*
X9905463Y-22141923D02*
X9924510Y-22151447D01*
X9924510Y-22151447D02*
X9962606Y-22151447D01*
X9962606Y-22151447D02*
X9981653Y-22141923D01*
X9981653Y-22141923D02*
X9991177Y-22132399D01*
X9991177Y-22132399D02*
X10000701Y-22113352D01*
X10000701Y-22113352D02*
X10000701Y-22065733D01*
X10000701Y-22065733D02*
X9991177Y-22046685D01*
X9991177Y-22046685D02*
X9981653Y-22037161D01*
X9981653Y-22037161D02*
X9962606Y-22027637D01*
X9962606Y-22027637D02*
X9924510Y-22027637D01*
X9924510Y-22027637D02*
X9905463Y-22037161D01*
X9905463Y-22037161D02*
X9895939Y-22046685D01*
X9895939Y-22046685D02*
X9886415Y-22065733D01*
X10172129Y-21951447D02*
X10134034Y-21951447D01*
X10134034Y-21951447D02*
X10114987Y-21960971D01*
X10114987Y-21960971D02*
X10105463Y-21970494D01*
X10105463Y-21970494D02*
X10086415Y-21999066D01*
X10086415Y-21999066D02*
X10076891Y-22037161D01*
X10076891Y-22037161D02*
X10076891Y-22113352D01*
X10076891Y-22113352D02*
X10086415Y-22132399D01*
X10086415Y-22132399D02*
X10095939Y-22141923D01*
X10095939Y-22141923D02*
X10114987Y-22151447D01*
X10114987Y-22151447D02*
X10153082Y-22151447D01*
X10153082Y-22151447D02*
X10172129Y-22141923D01*
X10172129Y-22141923D02*
X10181653Y-22132399D01*
X10181653Y-22132399D02*
X10191177Y-22113352D01*
X10191177Y-22113352D02*
X10191177Y-22065733D01*
X10191177Y-22065733D02*
X10181653Y-22046685D01*
X10181653Y-22046685D02*
X10172129Y-22037161D01*
X10172129Y-22037161D02*
X10153082Y-22027637D01*
X10153082Y-22027637D02*
X10114987Y-22027637D01*
X10114987Y-22027637D02*
X10095939Y-22037161D01*
X10095939Y-22037161D02*
X10086415Y-22046685D01*
X10086415Y-22046685D02*
X10076891Y-22065733D01*
X10267368Y-21951447D02*
X10267368Y-21989542D01*
X10343558Y-21951447D02*
X10343558Y-21989542D01*
X10638796Y-22227637D02*
X10629272Y-22218113D01*
X10629272Y-22218113D02*
X10610225Y-22189542D01*
X10610225Y-22189542D02*
X10600701Y-22170494D01*
X10600701Y-22170494D02*
X10591177Y-22141923D01*
X10591177Y-22141923D02*
X10581653Y-22094304D01*
X10581653Y-22094304D02*
X10581653Y-22056209D01*
X10581653Y-22056209D02*
X10591177Y-22008590D01*
X10591177Y-22008590D02*
X10600701Y-21980018D01*
X10600701Y-21980018D02*
X10610225Y-21960971D01*
X10610225Y-21960971D02*
X10629272Y-21932399D01*
X10629272Y-21932399D02*
X10638796Y-21922875D01*
X10743558Y-22037161D02*
X10724510Y-22027637D01*
X10724510Y-22027637D02*
X10714987Y-22018113D01*
X10714987Y-22018113D02*
X10705463Y-21999066D01*
X10705463Y-21999066D02*
X10705463Y-21989542D01*
X10705463Y-21989542D02*
X10714987Y-21970494D01*
X10714987Y-21970494D02*
X10724510Y-21960971D01*
X10724510Y-21960971D02*
X10743558Y-21951447D01*
X10743558Y-21951447D02*
X10781653Y-21951447D01*
X10781653Y-21951447D02*
X10800701Y-21960971D01*
X10800701Y-21960971D02*
X10810225Y-21970494D01*
X10810225Y-21970494D02*
X10819749Y-21989542D01*
X10819749Y-21989542D02*
X10819749Y-21999066D01*
X10819749Y-21999066D02*
X10810225Y-22018113D01*
X10810225Y-22018113D02*
X10800701Y-22027637D01*
X10800701Y-22027637D02*
X10781653Y-22037161D01*
X10781653Y-22037161D02*
X10743558Y-22037161D01*
X10743558Y-22037161D02*
X10724510Y-22046685D01*
X10724510Y-22046685D02*
X10714987Y-22056209D01*
X10714987Y-22056209D02*
X10705463Y-22075256D01*
X10705463Y-22075256D02*
X10705463Y-22113352D01*
X10705463Y-22113352D02*
X10714987Y-22132399D01*
X10714987Y-22132399D02*
X10724510Y-22141923D01*
X10724510Y-22141923D02*
X10743558Y-22151447D01*
X10743558Y-22151447D02*
X10781653Y-22151447D01*
X10781653Y-22151447D02*
X10800701Y-22141923D01*
X10800701Y-22141923D02*
X10810225Y-22132399D01*
X10810225Y-22132399D02*
X10819749Y-22113352D01*
X10819749Y-22113352D02*
X10819749Y-22075256D01*
X10819749Y-22075256D02*
X10810225Y-22056209D01*
X10810225Y-22056209D02*
X10800701Y-22046685D01*
X10800701Y-22046685D02*
X10781653Y-22037161D01*
X11057844Y-22151447D02*
X11057844Y-21951447D01*
X11143558Y-22151447D02*
X11143558Y-22046685D01*
X11143558Y-22046685D02*
X11134034Y-22027637D01*
X11134034Y-22027637D02*
X11114987Y-22018113D01*
X11114987Y-22018113D02*
X11086415Y-22018113D01*
X11086415Y-22018113D02*
X11067368Y-22027637D01*
X11067368Y-22027637D02*
X11057844Y-22037161D01*
X11267368Y-22151447D02*
X11248320Y-22141923D01*
X11248320Y-22141923D02*
X11238796Y-22132399D01*
X11238796Y-22132399D02*
X11229272Y-22113352D01*
X11229272Y-22113352D02*
X11229272Y-22056209D01*
X11229272Y-22056209D02*
X11238796Y-22037161D01*
X11238796Y-22037161D02*
X11248320Y-22027637D01*
X11248320Y-22027637D02*
X11267368Y-22018113D01*
X11267368Y-22018113D02*
X11295939Y-22018113D01*
X11295939Y-22018113D02*
X11314987Y-22027637D01*
X11314987Y-22027637D02*
X11324510Y-22037161D01*
X11324510Y-22037161D02*
X11334034Y-22056209D01*
X11334034Y-22056209D02*
X11334034Y-22113352D01*
X11334034Y-22113352D02*
X11324510Y-22132399D01*
X11324510Y-22132399D02*
X11314987Y-22141923D01*
X11314987Y-22141923D02*
X11295939Y-22151447D01*
X11295939Y-22151447D02*
X11267368Y-22151447D01*
X11448320Y-22151447D02*
X11429272Y-22141923D01*
X11429272Y-22141923D02*
X11419749Y-22122875D01*
X11419749Y-22122875D02*
X11419749Y-21951447D01*
X11600701Y-22141923D02*
X11581653Y-22151447D01*
X11581653Y-22151447D02*
X11543558Y-22151447D01*
X11543558Y-22151447D02*
X11524510Y-22141923D01*
X11524510Y-22141923D02*
X11514987Y-22122875D01*
X11514987Y-22122875D02*
X11514987Y-22046685D01*
X11514987Y-22046685D02*
X11524510Y-22027637D01*
X11524510Y-22027637D02*
X11543558Y-22018113D01*
X11543558Y-22018113D02*
X11581653Y-22018113D01*
X11581653Y-22018113D02*
X11600701Y-22027637D01*
X11600701Y-22027637D02*
X11610225Y-22046685D01*
X11610225Y-22046685D02*
X11610225Y-22065733D01*
X11610225Y-22065733D02*
X11514987Y-22084780D01*
X11686415Y-22141923D02*
X11705463Y-22151447D01*
X11705463Y-22151447D02*
X11743558Y-22151447D01*
X11743558Y-22151447D02*
X11762606Y-22141923D01*
X11762606Y-22141923D02*
X11772130Y-22122875D01*
X11772130Y-22122875D02*
X11772130Y-22113352D01*
X11772130Y-22113352D02*
X11762606Y-22094304D01*
X11762606Y-22094304D02*
X11743558Y-22084780D01*
X11743558Y-22084780D02*
X11714987Y-22084780D01*
X11714987Y-22084780D02*
X11695939Y-22075256D01*
X11695939Y-22075256D02*
X11686415Y-22056209D01*
X11686415Y-22056209D02*
X11686415Y-22046685D01*
X11686415Y-22046685D02*
X11695939Y-22027637D01*
X11695939Y-22027637D02*
X11714987Y-22018113D01*
X11714987Y-22018113D02*
X11743558Y-22018113D01*
X11743558Y-22018113D02*
X11762606Y-22027637D01*
X11838796Y-22227637D02*
X11848320Y-22218113D01*
X11848320Y-22218113D02*
X11867368Y-22189542D01*
X11867368Y-22189542D02*
X11876891Y-22170494D01*
X11876891Y-22170494D02*
X11886415Y-22141923D01*
X11886415Y-22141923D02*
X11895939Y-22094304D01*
X11895939Y-22094304D02*
X11895939Y-22056209D01*
X11895939Y-22056209D02*
X11886415Y-22008590D01*
X11886415Y-22008590D02*
X11876891Y-21980018D01*
X11876891Y-21980018D02*
X11867368Y-21960971D01*
X11867368Y-21960971D02*
X11848320Y-21932399D01*
X11848320Y-21932399D02*
X11838796Y-21922875D01*
M02*
