0
SECTION
2
HEADER
9
$INSUNITS
70
4
0
ENDSEC
0
SECTION
2
TABLES
0
TABLE
2
LTYPE
0
LTYPE
72
65
70
64
2
CONTINUOUS
3
______
73
0
40
0
0
ENDTAB
0
TABLE
2
LAYER
0
ENDTAB
0
ENDSEC
0
SECTION
2
ENTITIES
0
LINE
8
0
10
-6.9044952
20
53.5318887
11
-22.4807487
21
-57.2989136
0
ARC
8
0
10
-17.5294083
20
-57.9947791
40
5
50
172
51
262
0
LINE
8
0
10
-18.2252738
20
-62.9461194
11
128.070989
21
-83.5067183
0
ARC
8
0
10
128.7668545
20
-78.555378
40
5
50
262
51
270.3761346
0
ARC
8
0
10
-1.9531549
20
52.8360232
40
5
50
89.4213429
51
172
0
ARC
8
0
10
128.8325019
20
-78.555378
40
5
50
269.6238654
51
278
0
LINE
8
0
10
129.5283674
20
-83.5067183
11
275.8246302
21
-62.9461194
0
ARC
8
0
10
275.1287647
20
-57.9947791
40
5
50
278
51
8
0
LINE
8
0
10
280.0801051
20
-57.2989136
11
264.5038516
21
53.5318887
0
ARC
8
0
10
259.5525113
20
52.8360232
40
5
50
8
51
89.5592662
0
ARC
8
0
10
258.6231782
20
52.9304319
40
5
50
78.8394539
51
90
0
LINE
8
0
10
258.6231782
20
57.9304319
11
-0.9343218
21
57.9304319
0
ARC
8
0
10
-0.9343218
20
52.9304319
40
5
50
90
51
101.1668826
0
LINE
8
0
10
-7.9060882
20
-5.9576648
11
5.9576648
21
-7.9060882
0
LINE
8
0
10
5.9576648
20
-7.9060882
11
7.9060882
21
5.9576648
0
LINE
8
0
10
7.9060882
20
5.9576648
11
-5.9576648
21
7.9060882
0
LINE
8
0
10
-5.9576648
20
7.9060882
11
-7.9060882
21
-5.9576648
0
LINE
8
0
10
-5.2617993
20
12.8574285
11
8.6019537
21
10.9090051
0
LINE
8
0
10
8.6019537
20
10.9090051
11
10.5503771
21
24.7727581
0
LINE
8
0
10
10.5503771
20
24.7727581
11
-3.3133759
21
26.7211815
0
LINE
8
0
10
-3.3133759
20
26.7211815
11
-5.2617993
21
12.8574285
0
LINE
8
0
10
-2.6175104
20
31.6725218
11
11.2462426
21
29.7240984
0
LINE
8
0
10
11.2462426
20
29.7240984
11
13.194666
21
43.5878514
0
LINE
8
0
10
13.194666
20
43.5878514
11
-0.669087
21
45.5362748
0
LINE
8
0
10
-0.669087
20
45.5362748
11
-2.6175104
21
31.6725218
0
LINE
8
0
10
8.2647162
20
-27.417047
11
22.1284692
21
-29.3654704
0
LINE
8
0
10
22.1284692
20
-29.3654704
11
24.0768926
21
-15.5017174
0
LINE
8
0
10
24.0768926
20
-15.5017174
11
10.2131396
21
-13.553294
0
LINE
8
0
10
10.2131396
20
-13.553294
11
8.2647162
21
-27.417047
0
LINE
8
0
10
10.9090051
20
-8.6019537
11
24.7727581
21
-10.5503771
0
LINE
8
0
10
24.7727581
20
-10.5503771
11
26.7211815
21
3.3133759
0
LINE
8
0
10
26.7211815
20
3.3133759
11
12.8574285
21
5.2617993
0
LINE
8
0
10
12.8574285
20
5.2617993
11
10.9090051
21
-8.6019537
0
LINE
8
0
10
13.553294
20
10.2131396
11
27.417047
21
8.2647162
0
LINE
8
0
10
27.417047
20
8.2647162
11
29.3654704
21
22.1284692
0
LINE
8
0
10
29.3654704
20
22.1284692
11
15.5017174
21
24.0768926
0
LINE
8
0
10
15.5017174
20
24.0768926
11
13.553294
21
10.2131396
0
LINE
8
0
10
16.1975829
20
29.0282329
11
30.0613359
21
27.0798095
0
LINE
8
0
10
30.0613359
20
27.0798095
11
32.0097593
21
40.9435625
0
LINE
8
0
10
32.0097593
20
40.9435625
11
18.1460063
21
42.8919859
0
LINE
8
0
10
18.1460063
20
42.8919859
11
16.1975829
21
29.0282329
0
LINE
8
0
10
28.5411271
20
-19.6635212
11
42.4048801
21
-21.6119446
0
LINE
8
0
10
42.4048801
20
-21.6119446
11
44.3533035
21
-7.7481916
0
LINE
8
0
10
44.3533035
20
-7.7481916
11
30.4895505
21
-5.7997682
0
LINE
8
0
10
30.4895505
20
-5.7997682
11
28.5411271
21
-19.6635212
0
LINE
8
0
10
31.185416
20
-0.8484279
11
45.049169
21
-2.7968513
0
LINE
8
0
10
45.049169
20
-2.7968513
11
46.9975924
21
11.0669017
0
LINE
8
0
10
46.9975924
20
11.0669017
11
33.1338394
21
13.0153251
0
LINE
8
0
10
33.1338394
20
13.0153251
11
31.185416
21
-0.8484279
0
LINE
8
0
10
33.8297049
20
17.9666654
11
47.6934579
21
16.018242
0
LINE
8
0
10
47.6934579
20
16.018242
11
49.6418813
21
29.881995
0
LINE
8
0
10
49.6418813
20
29.881995
11
35.7781283
21
31.8304184
0
LINE
8
0
10
35.7781283
20
31.8304184
11
33.8297049
21
17.9666654
0
LINE
8
0
10
36.4739938
20
36.7817587
11
50.3377468
21
34.8333353
0
LINE
8
0
10
50.3377468
20
34.8333353
11
52.2861702
21
48.6970883
0
LINE
8
0
10
52.2861702
20
48.6970883
11
38.4224172
21
50.6455117
0
LINE
8
0
10
38.4224172
20
50.6455117
11
36.4739938
21
36.7817587
0
LINE
8
0
10
47.7737397
20
-19.3370059
11
61.6374927
21
-21.2854293
0
LINE
8
0
10
61.6374927
20
-21.2854293
11
63.5859161
21
-7.4216763
0
LINE
8
0
10
63.5859161
20
-7.4216763
11
49.7221631
21
-5.4732529
0
LINE
8
0
10
49.7221631
20
-5.4732529
11
47.7737397
21
-19.3370059
0
LINE
8
0
10
50.4180286
20
-0.5219126
11
64.2817816
21
-2.470336
0
LINE
8
0
10
64.2817816
20
-2.470336
11
66.230205
21
11.393417
0
LINE
8
0
10
66.230205
20
11.393417
11
52.366452
21
13.3418404
0
LINE
8
0
10
52.366452
20
13.3418404
11
50.4180286
21
-0.5219126
0
LINE
8
0
10
53.0623175
20
18.2931807
11
66.9260705
21
16.3447573
0
LINE
8
0
10
66.9260705
20
16.3447573
11
68.8744939
21
30.2085103
0
LINE
8
0
10
68.8744939
20
30.2085103
11
55.0107409
21
32.1569337
0
LINE
8
0
10
55.0107409
20
32.1569337
11
53.0623175
21
18.2931807
0
LINE
8
0
10
55.7066064
20
37.108274
11
69.5703594
21
35.1598506
0
LINE
8
0
10
69.5703594
20
35.1598506
11
71.5187828
21
49.0236036
0
LINE
8
0
10
71.5187828
20
49.0236036
11
57.6550298
21
50.972027
0
LINE
8
0
10
57.6550298
20
50.972027
11
55.7066064
21
37.108274
0
LINE
8
0
10
65.8929675
20
-26.9326352
11
79.7567205
21
-28.8810586
0
LINE
8
0
10
79.7567205
20
-28.8810586
11
81.7051439
21
-15.0173056
0
LINE
8
0
10
81.7051439
20
-15.0173056
11
67.8413909
21
-13.0688822
0
LINE
8
0
10
67.8413909
20
-13.0688822
11
65.8929675
21
-26.9326352
0
LINE
8
0
10
68.5372564
20
-8.1175419
11
82.4010094
21
-10.0659653
0
LINE
8
0
10
82.4010094
20
-10.0659653
11
84.3494328
21
3.7977877
0
LINE
8
0
10
84.3494328
20
3.7977877
11
70.4856798
21
5.7462111
0
LINE
8
0
10
70.4856798
20
5.7462111
11
68.5372564
21
-8.1175419
0
LINE
8
0
10
71.1815453
20
10.6975514
11
85.0452983
21
8.749128
0
LINE
8
0
10
85.0452983
20
8.749128
11
86.9937217
21
22.612881
0
LINE
8
0
10
86.9937217
20
22.612881
11
73.1299687
21
24.5613044
0
LINE
8
0
10
73.1299687
20
24.5613044
11
71.1815453
21
10.6975514
0
LINE
8
0
10
73.8258342
20
29.5126447
11
87.6895872
21
27.5642213
0
LINE
8
0
10
87.6895872
20
27.5642213
11
89.6380106
21
41.4279743
0
LINE
8
0
10
89.6380106
20
41.4279743
11
75.7742576
21
43.3763977
0
LINE
8
0
10
75.7742576
20
43.3763977
11
73.8258342
21
29.5126447
0
LINE
8
0
10
84.4993011
20
-31.0623262
11
98.3630541
21
-33.0107496
0
LINE
8
0
10
98.3630541
20
-33.0107496
11
100.3114775
21
-19.1469966
0
LINE
8
0
10
100.3114775
20
-19.1469966
11
86.4477245
21
-17.1985732
0
LINE
8
0
10
86.4477245
20
-17.1985732
11
84.4993011
21
-31.0623262
0
LINE
8
0
10
87.14359
20
-12.2472329
11
101.007343
21
-14.1956563
0
LINE
8
0
10
101.007343
20
-14.1956563
11
102.9557664
21
-0.3319033
0
LINE
8
0
10
102.9557664
20
-0.3319033
11
89.0920134
21
1.6165201
0
LINE
8
0
10
89.0920134
20
1.6165201
11
87.14359
21
-12.2472329
0
LINE
8
0
10
89.787879
20
6.5678604
11
103.651632
21
4.619437
0
LINE
8
0
10
103.651632
20
4.619437
11
105.6000554
21
18.48319
0
LINE
8
0
10
105.6000554
20
18.48319
11
91.7363024
21
20.4316134
0
LINE
8
0
10
91.7363024
20
20.4316134
11
89.787879
21
6.5678604
0
LINE
8
0
10
92.4321679
20
25.3829537
11
106.2959209
21
23.4345303
0
LINE
8
0
10
106.2959209
20
23.4345303
11
108.2443443
21
37.2982833
0
LINE
8
0
10
108.2443443
20
37.2982833
11
94.3805913
21
39.2467067
0
LINE
8
0
10
94.3805913
20
39.2467067
11
92.4321679
21
25.3829537
0
LINE
8
0
10
41.2586405
20
-47.7311037
11
52.4395376
21
-39.3056934
0
LINE
8
0
10
52.4395376
20
-39.3056934
11
44.0141273
21
-28.1247963
0
LINE
8
0
10
44.0141273
20
-28.1247963
11
32.8332302
21
-36.5502066
0
LINE
8
0
10
32.8332302
20
-36.5502066
11
41.2586405
21
-47.7311037
0
LINE
8
0
10
62.9529357
20
-47.8520481
11
76.8166887
21
-49.8004715
0
LINE
8
0
10
76.8166887
20
-49.8004715
11
78.7651121
21
-35.9367185
0
LINE
8
0
10
78.7651121
20
-35.9367185
11
64.9013591
21
-33.9882951
0
LINE
8
0
10
64.9013591
20
-33.9882951
11
62.9529357
21
-47.8520481
0
LINE
8
0
10
82.0366737
20
-50.9100136
11
95.4943375
21
-54.7689366
0
LINE
8
0
10
95.4943375
20
-54.7689366
11
99.3532605
21
-41.3112728
0
LINE
8
0
10
99.3532605
20
-41.3112728
11
85.8955967
21
-37.4523498
0
LINE
8
0
10
85.8955967
20
-37.4523498
11
82.0366737
21
-50.9100136
0
LINE
8
0
10
100.7304784
20
-57.5530421
11
111.4551006
21
-66.5520687
0
LINE
8
0
10
111.4551006
20
-66.5520687
11
120.4541272
21
-55.8274465
0
LINE
8
0
10
120.4541272
20
-55.8274465
11
109.729505
21
-46.8284199
0
LINE
8
0
10
109.729505
20
-46.8284199
11
100.7304784
21
-57.5530421
0
LINE
8
0
10
251.6416916
20
-7.9060882
11
265.5054446
21
-5.9576648
0
LINE
8
0
10
265.5054446
20
-5.9576648
11
263.5570212
21
7.9060882
0
LINE
8
0
10
263.5570212
20
7.9060882
11
249.6932682
21
5.9576648
0
LINE
8
0
10
249.6932682
20
5.9576648
11
251.6416916
21
-7.9060882
0
LINE
8
0
10
248.9974027
20
10.9090051
11
262.8611557
21
12.8574285
0
LINE
8
0
10
262.8611557
20
12.8574285
11
260.9127323
21
26.7211815
0
LINE
8
0
10
260.9127323
20
26.7211815
11
247.0489793
21
24.7727581
0
LINE
8
0
10
247.0489793
20
24.7727581
11
248.9974027
21
10.9090051
0
LINE
8
0
10
246.3531138
20
29.7240984
11
260.2168668
21
31.6725218
0
LINE
8
0
10
260.2168668
20
31.6725218
11
258.2684434
21
45.5362748
0
LINE
8
0
10
258.2684434
20
45.5362748
11
244.4046904
21
43.5878514
0
LINE
8
0
10
244.4046904
20
43.5878514
11
246.3531138
21
29.7240984
0
LINE
8
0
10
235.4708872
20
-29.3654704
11
249.3346402
21
-27.417047
0
LINE
8
0
10
249.3346402
20
-27.417047
11
247.3862168
21
-13.553294
0
LINE
8
0
10
247.3862168
20
-13.553294
11
233.5224638
21
-15.5017174
0
LINE
8
0
10
233.5224638
20
-15.5017174
11
235.4708872
21
-29.3654704
0
LINE
8
0
10
232.8265983
20
-10.5503771
11
246.6903513
21
-8.6019537
0
LINE
8
0
10
246.6903513
20
-8.6019537
11
244.7419279
21
5.2617993
0
LINE
8
0
10
244.7419279
20
5.2617993
11
230.8781749
21
3.3133759
0
LINE
8
0
10
230.8781749
20
3.3133759
11
232.8265983
21
-10.5503771
0
LINE
8
0
10
230.1823094
20
8.2647162
11
244.0460624
21
10.2131396
0
LINE
8
0
10
244.0460624
20
10.2131396
11
242.097639
21
24.0768926
0
LINE
8
0
10
242.097639
20
24.0768926
11
228.233886
21
22.1284692
0
LINE
8
0
10
228.233886
20
22.1284692
11
230.1823094
21
8.2647162
0
LINE
8
0
10
227.5380205
20
27.0798095
11
241.4017735
21
29.0282329
0
LINE
8
0
10
241.4017735
20
29.0282329
11
239.4533501
21
42.8919859
0
LINE
8
0
10
239.4533501
20
42.8919859
11
225.5895971
21
40.9435625
0
LINE
8
0
10
225.5895971
20
40.9435625
11
227.5380205
21
27.0798095
0
LINE
8
0
10
215.1944763
20
-21.6119446
11
229.0582293
21
-19.6635212
0
LINE
8
0
10
229.0582293
20
-19.6635212
11
227.1098059
21
-5.7997682
0
LINE
8
0
10
227.1098059
20
-5.7997682
11
213.2460529
21
-7.7481916
0
LINE
8
0
10
213.2460529
20
-7.7481916
11
215.1944763
21
-21.6119446
0
LINE
8
0
10
212.5501874
20
-2.7968513
11
226.4139404
21
-0.8484279
0
LINE
8
0
10
226.4139404
20
-0.8484279
11
224.465517
21
13.0153251
0
LINE
8
0
10
224.465517
20
13.0153251
11
210.601764
21
11.0669017
0
LINE
8
0
10
210.601764
20
11.0669017
11
212.5501874
21
-2.7968513
0
LINE
8
0
10
209.9058985
20
16.018242
11
223.7696515
21
17.9666654
0
LINE
8
0
10
223.7696515
20
17.9666654
11
221.8212281
21
31.8304184
0
LINE
8
0
10
221.8212281
20
31.8304184
11
207.9574751
21
29.881995
0
LINE
8
0
10
207.9574751
20
29.881995
11
209.9058985
21
16.018242
0
LINE
8
0
10
207.2616096
20
34.8333353
11
221.1253626
21
36.7817587
0
LINE
8
0
10
221.1253626
20
36.7817587
11
219.1769392
21
50.6455117
0
LINE
8
0
10
219.1769392
20
50.6455117
11
205.3131862
21
48.6970883
0
LINE
8
0
10
205.3131862
20
48.6970883
11
207.2616096
21
34.8333353
0
LINE
8
0
10
195.9618637
20
-21.2854293
11
209.8256167
21
-19.3370059
0
LINE
8
0
10
209.8256167
20
-19.3370059
11
207.8771933
21
-5.4732529
0
LINE
8
0
10
207.8771933
20
-5.4732529
11
194.0134403
21
-7.4216763
0
LINE
8
0
10
194.0134403
20
-7.4216763
11
195.9618637
21
-21.2854293
0
LINE
8
0
10
193.3175748
20
-2.470336
11
207.1813278
21
-0.5219126
0
LINE
8
0
10
207.1813278
20
-0.5219126
11
205.2329044
21
13.3418404
0
LINE
8
0
10
205.2329044
20
13.3418404
11
191.3691514
21
11.393417
0
LINE
8
0
10
191.3691514
20
11.393417
11
193.3175748
21
-2.470336
0
LINE
8
0
10
190.6732859
20
16.3447573
11
204.5370389
21
18.2931807
0
LINE
8
0
10
204.5370389
20
18.2931807
11
202.5886155
21
32.1569337
0
LINE
8
0
10
202.5886155
20
32.1569337
11
188.7248625
21
30.2085103
0
LINE
8
0
10
188.7248625
20
30.2085103
11
190.6732859
21
16.3447573
0
LINE
8
0
10
188.028997
20
35.1598506
11
201.89275
21
37.108274
0
LINE
8
0
10
201.89275
20
37.108274
11
199.9443266
21
50.972027
0
LINE
8
0
10
199.9443266
20
50.972027
11
186.0805736
21
49.0236036
0
LINE
8
0
10
186.0805736
20
49.0236036
11
188.028997
21
35.1598506
0
LINE
8
0
10
177.8426359
20
-28.8810586
11
191.7063889
21
-26.9326352
0
LINE
8
0
10
191.7063889
20
-26.9326352
11
189.7579655
21
-13.0688822
0
LINE
8
0
10
189.7579655
20
-13.0688822
11
175.8942125
21
-15.0173056
0
LINE
8
0
10
175.8942125
20
-15.0173056
11
177.8426359
21
-28.8810586
0
LINE
8
0
10
175.198347
20
-10.0659653
11
189.0621
21
-8.1175419
0
LINE
8
0
10
189.0621
20
-8.1175419
11
187.1136766
21
5.7462111
0
LINE
8
0
10
187.1136766
20
5.7462111
11
173.2499236
21
3.7977877
0
LINE
8
0
10
173.2499236
20
3.7977877
11
175.198347
21
-10.0659653
0
LINE
8
0
10
172.5540581
20
8.749128
11
186.4178111
21
10.6975514
0
LINE
8
0
10
186.4178111
20
10.6975514
11
184.4693877
21
24.5613044
0
LINE
8
0
10
184.4693877
20
24.5613044
11
170.6056347
21
22.612881
0
LINE
8
0
10
170.6056347
20
22.612881
11
172.5540581
21
8.749128
0
LINE
8
0
10
169.9097692
20
27.5642213
11
183.7735222
21
29.5126447
0
LINE
8
0
10
183.7735222
20
29.5126447
11
181.8250988
21
43.3763977
0
LINE
8
0
10
181.8250988
20
43.3763977
11
167.9613458
21
41.4279743
0
LINE
8
0
10
167.9613458
20
41.4279743
11
169.9097692
21
27.5642213
0
LINE
8
0
10
159.2363023
20
-33.0107496
11
173.1000553
21
-31.0623262
0
LINE
8
0
10
173.1000553
20
-31.0623262
11
171.1516319
21
-17.1985732
0
LINE
8
0
10
171.1516319
20
-17.1985732
11
157.2878789
21
-19.1469966
0
LINE
8
0
10
157.2878789
20
-19.1469966
11
159.2363023
21
-33.0107496
0
LINE
8
0
10
156.5920134
20
-14.1956563
11
170.4557664
21
-12.2472329
0
LINE
8
0
10
170.4557664
20
-12.2472329
11
168.507343
21
1.6165201
0
LINE
8
0
10
168.507343
20
1.6165201
11
154.64359
21
-0.3319033
0
LINE
8
0
10
154.64359
20
-0.3319033
11
156.5920134
21
-14.1956563
0
LINE
8
0
10
153.9477244
20
4.619437
11
167.8114774
21
6.5678604
0
LINE
8
0
10
167.8114774
20
6.5678604
11
165.863054
21
20.4316134
0
LINE
8
0
10
165.863054
20
20.4316134
11
151.999301
21
18.48319
0
LINE
8
0
10
151.999301
20
18.48319
11
153.9477244
21
4.619437
0
LINE
8
0
10
151.3034355
20
23.4345303
11
165.1671885
21
25.3829537
0
LINE
8
0
10
165.1671885
20
25.3829537
11
163.2187651
21
39.2467067
0
LINE
8
0
10
163.2187651
20
39.2467067
11
149.3550121
21
37.2982833
0
LINE
8
0
10
149.3550121
20
37.2982833
11
151.3034355
21
23.4345303
0
LINE
8
0
10
205.1598188
20
-39.3056934
11
216.3407159
21
-47.7311037
0
LINE
8
0
10
216.3407159
20
-47.7311037
11
224.7661262
21
-36.5502066
0
LINE
8
0
10
224.7661262
20
-36.5502066
11
213.5852291
21
-28.1247963
0
LINE
8
0
10
213.5852291
20
-28.1247963
11
205.1598188
21
-39.3056934
0
LINE
8
0
10
180.7826677
20
-49.8004715
11
194.6464207
21
-47.8520481
0
LINE
8
0
10
194.6464207
20
-47.8520481
11
192.6979973
21
-33.9882951
0
LINE
8
0
10
192.6979973
20
-33.9882951
11
178.8342443
21
-35.9367185
0
LINE
8
0
10
178.8342443
20
-35.9367185
11
180.7826677
21
-49.8004715
0
LINE
8
0
10
162.1050189
20
-54.7689366
11
175.5626827
21
-50.9100136
0
LINE
8
0
10
175.5626827
20
-50.9100136
11
171.7037597
21
-37.4523498
0
LINE
8
0
10
171.7037597
20
-37.4523498
11
158.2460959
21
-41.3112728
0
LINE
8
0
10
158.2460959
20
-41.3112728
11
162.1050189
21
-54.7689366
0
LINE
8
0
10
146.1442558
20
-66.5520687
11
156.868878
21
-57.5530421
0
LINE
8
0
10
156.868878
20
-57.5530421
11
147.8698514
21
-46.8284199
0
LINE
8
0
10
147.8698514
20
-46.8284199
11
137.1452292
21
-55.8274465
0
LINE
8
0
10
137.1452292
20
-55.8274465
11
146.1442558
21
-66.5520687
0
ENDSEC
0
EOF