<?xml version='1.0' encoding='utf-8'?>
<svg xmlns="http://www.w3.org/2000/svg" width="297mm" height="210mm" viewBox="0 0 1000000 707071"><def><style>.C1 {stroke: #ffffff; stroke-width: 842; stroke-opacity: 1.000; fill: none; fill-opacity: 1.000;}</style></def><rect fill="#212830" x="0" y="0" width="1000000" height="707071" fill-opacity="1.0" /><g stroke-linecap="round" stroke-linejoin="round" fill-rule="evenodd"><path d="M 69779 304218 l 46675 11637" class="C1" /><path d="M 67718 300788 l 26013 -104332" class="C1" /><path d="M 143836 206032 l -46675 -11637" class="C1" /><path d="M 110308 363900 l 52166 13007" class="C1" /><path d="M 165904 374845 l 5819 -23338" class="C1" /><path d="M 118515 319286 l -10268 41184" class="C1" /><path d="M 197372 213548 l -46675 -11637" class="C1" /><path d="M 147266 203971 l 0 0" class="C1" /><path d="M 175153 349447 l 93350 23275" class="C1" /><path d="M 256726 197725 l -46675 -11637" class="C1" /><path d="M 206621 188149 l -5819 23338" class="C1" /><path d="M 264271 190858 l 158907 39620" class="C1" /><path d="M 260840 192919 l -685 2746" class="C1" /><path d="M 255162 437928 l 15402 -61776" class="C1" /><path d="M 377196 416338 l 17718 -71062" class="C1" /><path d="M 257223 441358 l 51370 12808" class="C1" /><path d="M 309345 454473 l 44910 26454" class="C1" /><path d="M 354888 481436 l 36107 38720" class="C1" /><path d="M 394994 520295 l 39320 -36666" class="C1" /><path d="M 377872 418953 l 56582 60677" class="C1" /><path d="M 883546 315856 l 46675 -11637" class="C1" /><path d="M 906269 196456 l 26013 104332" class="C1" /><path d="M 902839 194395 l -46675 11637" class="C1" /><path d="M 837526 376907 l 52166 -13007" class="C1" /><path d="M 891753 360470 l -10268 -41184" class="C1" /><path d="M 828277 351508 l 5819 23338" class="C1" /><path d="M 852734 203971 l 0 -0" class="C1" /><path d="M 849303 201910 l -46675 11637" class="C1" /><path d="M 731497 372722 l 93350 -23275" class="C1" /><path d="M 799198 211487 l -5819 -23338" class="C1" /><path d="M 789949 186088 l -46675 11637" class="C1" /><path d="M 739844 195664 l -685 -2746" class="C1" /><path d="M 576822 230478 l 158907 -39620" class="C1" /><path d="M 729436 376152 l 15402 61776" class="C1" /><path d="M 605087 345276 l 17718 71062" class="C1" /><path d="M 691407 454166 l 51370 -12808" class="C1" /><path d="M 645745 480927 l 44910 -26454" class="C1" /><path d="M 609005 520155 l 36107 -38720" class="C1" /><path d="M 565546 479629 l 56582 -60677" class="C1" /><path d="M 565686 483629 l 39320 36666" class="C1" /><path d="M 423862 230562 l 152275 0" class="C1" /><path d="M 602341 343131 l -204682 0" class="C1" /><path d="M 118515 319286 c 378 -1516 -545 -3052 -2061 -3430" class="C1" /><path d="M 108247 360470 c -378 1516 545 3052 2061 3430" class="C1" /><path d="M 162474 376907 c 1516 378 3052 -545 3430 -2061" class="C1" /><path d="M 175153 349447 c -728 -182 -1499 -66 -2142 320 c -643 387 -1107 1013 -1288 1741" class="C1" /><path d="M 270564 376152 c 378 -1516 -545 -3052 -2061 -3430" class="C1" /><path d="M 255162 437928 c -378 1516 545 3052 2061 3430" class="C1" /><path d="M 309345 454473 c -234 -138 -488 -242 -752 -307" class="C1" /><path d="M 354888 481436 c -186 -199 -399 -370 -633 -508" class="C1" /><path d="M 390995 520155 c 1066 1143 2856 1205 3999 140" class="C1" /><path d="M 434314 483629 c 1143 -1066 1205 -2856 140 -3999" class="C1" /><path d="M 377196 416338 c -232 930 23 1914 676 2614" class="C1" /><path d="M 397659 343131 c -1299 0 -2431 885 -2746 2145" class="C1" /><path d="M 605087 345276 c -314 -1261 -1446 -2145 -2746 -2145" class="C1" /><path d="M 622128 418953 c 653 -701 908 -1685 676 -2614" class="C1" /><path d="M 565546 479629 c -1066 1143 -1003 2933 140 3999" class="C1" /><path d="M 605006 520295 c 549 512 1279 785 2029 758 c 750 -26 1459 -349 1971 -898" class="C1" /><path d="M 645745 480927 c -234 138 -448 309 -633 508" class="C1" /><path d="M 691407 454166 c -264 66 -517 169 -752 307" class="C1" /><path d="M 742777 441358 c 1516 -378 2439 -1914 2061 -3430" class="C1" /><path d="M 731497 372722 c -1516 378 -2439 1914 -2061 3430" class="C1" /><path d="M 828277 351508 c -378 -1516 -1914 -2439 -3430 -2061" class="C1" /><path d="M 834096 374845 c 182 728 645 1354 1288 1741 c 643 387 1414 502 2142 320" class="C1" /><path d="M 889692 363900 c 1516 -378 2439 -1914 2061 -3430" class="C1" /><path d="M 883546 315856 c -1516 378 -2439 1914 -2061 3430" class="C1" /><path d="M 930221 304218 c 1516 -378 2439 -1914 2061 -3430" class="C1" /><path d="M 906269 196456 c -378 -1516 -1914 -2439 -3430 -2061" class="C1" /><path d="M 852734 203971 c 182 728 645 1354 1288 1741 c 643 387 1414 502 2142 320" class="C1" /><path d="M 852734 203971 c -378 -1516 -1914 -2439 -3430 -2061" class="C1" /><path d="M 799198 211487 c 182 728 645 1354 1288 1741 c 643 387 1414 502 2142 320" class="C1" /><path d="M 793379 188149 c -378 -1516 -1914 -2439 -3430 -2061" class="C1" /><path d="M 739844 195664 c 182 728 645 1354 1288 1741 c 643 387 1414 502 2142 320" class="C1" /><path d="M 739160 192919 c -378 -1516 -1914 -2439 -3430 -2061" class="C1" /><path d="M 576138 230562 c 231 0 461 -28 685 -84" class="C1" /><path d="M 423178 230478 c 224 56 454 84 685 84" class="C1" /><path d="M 264271 190858 c -728 -182 -1499 -66 -2142 320 c -643 387 -1107 1013 -1288 1741" class="C1" /><path d="M 256726 197725 c 1516 378 3052 -545 3430 -2061" class="C1" /><path d="M 210051 186088 c -728 -182 -1499 -66 -2142 320 c -643 387 -1107 1013 -1288 1741" class="C1" /><path d="M 197372 213548 c 1516 378 3052 -545 3430 -2061" class="C1" /><path d="M 150697 201910 c -728 -182 -1499 -66 -2142 320 c -643 387 -1107 1013 -1288 1741" class="C1" /><path d="M 143836 206032 c 1516 378 3052 -545 3430 -2061" class="C1" /><path d="M 97161 194395 c -728 -182 -1499 -66 -2142 320 c -643 387 -1107 1013 -1288 1741" class="C1" /><path d="M 67718 300788 c -378 1516 545 3052 2061 3430" class="C1" /></g></svg>