999
dxfrw 0.6.3
  0
SECTION
  2
HEADER
  9
$ACADVER
  1
AC1021
  9
$DWGCODEPAGE
  3
ANSI_1252
  9
$INSBASE
 10
0
 20
0
 30
0
  9
$EXTMIN
 10
1e+20
 20
1e+20
 30
1e+20
  9
$EXTMAX
 10
-1e+20
 20
-1e+20
 30
-1e+20
  9
$LIMMIN
 10
0
 20
0
  9
$LIMMAX
 10
420
 20
297
  9
$ORTHOMODE
 70
    0
  9
$REGENMODE
 70
    1
  9
$FILLMODE
 70
    1
  9
$QTEXTMODE
 70
    0
  9
$MIRRTEXT
 70
    0
  9
$LTSCALE
 40
1
  9
$ATTMODE
 70
    0
  9
$TEXTSIZE
 40
2.5
  9
$TRACEWID
 40
15.68
  9
$TEXTSTYLE
  7
STANDARD
  9
$CLAYER
  8
0
  9
$CELTYPE
  6
BYLAYER
  9
$CECOLOR
 62
  256
  9
$CELTSCALE
 40
1
  9
$DISPSILH
 70
    0
  9
$DIMSCALE
 40
1
  9
$DIMASZ
 40
2.5
  9
$DIMEXO
 40
0.625
  9
$DIMDLI
 40
3.75
  9
$DIMRND
 40
0
  9
$DIMDLE
 40
0
  9
$DIMEXE
 40
1.25
  9
$DIMTP
 40
0
  9
$DIMTM
 40
0
  9
$DIMTXT
 40
2.5
  9
$DIMCEN
 40
2.5
  9
$DIMTSZ
 40
0
  9
$DIMTOL
 70
    0
  9
$DIMLIM
 70
    0
  9
$DIMTIH
 70
    0
  9
$DIMTOH
 70
    0
  9
$DIMSE1
 70
    0
  9
$DIMSE2
 70
    0
  9
$DIMTAD
 70
    1
  9
$DIMZIN
 70
    8
  9
$DIMBLK
  1

  9
$DIMASO
 70
    1
  9
$DIMSHO
 70
    1
  9
$DIMPOST
  1

  9
$DIMAPOST
  1

  9
$DIMALT
 70
    0
  9
$DIMALTD
 70
    3
  9
$DIMALTF
 40
0.03937
  9
$DIMLFAC
 40
1
  9
$DIMTOFL
 70
    1
  9
$DIMTVP
 40
0
  9
$DIMTIX
 70
    0
  9
$DIMSOXD
 70
    0
  9
$DIMSAH
 70
    0
  9
$DIMBLK1
  1

  9
$DIMBLK2
  1

  9
$DIMSTYLE
  2
STANDARD
  9
$DIMCLRD
 70
    0
  9
$DIMCLRE
 70
    0
  9
$DIMCLRT
 70
    0
  9
$DIMTFAC
 40
1
  9
$DIMGAP
 40
0.625
  9
$DIMJUST
 70
    0
  9
$DIMSD1
 70
    0
  9
$DIMSD2
 70
    0
  9
$DIMTOLJ
 70
    0
  9
$DIMTZIN
 70
    8
  9
$DIMALTZ
 70
    0
  9
$DIMALTTZ
 70
    0
  9
$DIMUPT
 70
    0
  9
$DIMDEC
 70
    2
  9
$DIMTDEC
 70
    2
  9
$DIMALTU
 70
    2
  9
$DIMALTTD
 70
    3
  9
$DIMTXSTY
  7
STANDARD
  9
$DIMAUNIT
 70
    0
  9
$DIMADEC
 70
    0
  9
$DIMALTRND
 40
0
  9
$DIMAZIN
 70
    0
  9
$DIMDSEP
 70
   44
  9
$DIMATFIT
 70
    3
  9
$DIMFRAC
 70
    0
  9
$DIMLDRBLK
  1
STANDARD
  9
$DIMLUNIT
 70
    2
  9
$DIMLWD
 70
   -2
  9
$DIMLWE
 70
   -2
  9
$DIMTMOVE
 70
    0
  9
$DIMFXL
 40
1
  9
$DIMFXLON
 70
    0
  9
$DIMJOGANG
 40
0.7854
  9
$DIMTFILL
 70
    0
  9
$DIMTFILLCLR
 70
    0
  9
$DIMARCSYM
 70
    0
  9
$DIMLTYPE
  6

  9
$DIMLTEX1
  6

  9
$DIMLTEX2
  6

  9
$LUNITS
 70
    2
  9
$LUPREC
 70
    4
  9
$SKETCHINC
 40
1
  9
$FILLETRAD
 40
0
  9
$AUNITS
 70
    0
  9
$AUPREC
 70
    2
  9
$MENU
  1
.
  9
$ELEVATION
 40
0
  9
$PELEVATION
 40
0
  9
$THICKNESS
 40
0
  9
$LIMCHECK
 70
    0
  9
$CHAMFERA
 40
0
  9
$CHAMFERB
 40
0
  9
$CHAMFERC
 40
0
  9
$CHAMFERD
 40
0
  9
$SKPOLY
 70
    0
  9
$USRTIMER
 70
    1
  9
$ANGBASE
 50
0
  9
$ANGDIR
 70
    0
  9
$PDMODE
 70
   34
  9
$PDSIZE
 40
0
  9
$PLINEWID
 40
0
  9
$SPLFRAME
 70
    0
  9
$SPLINETYPE
 70
    2
  9
$SPLINESEGS
 70
    8
  9
$HANDSEED
  5
20000
  9
$SURFTAB1
 70
    6
  9
$SURFTAB2
 70
    6
  9
$SURFTYPE
 70
    6
  9
$SURFU
 70
    6
  9
$SURFV
 70
    6
  9
$UCSBASE
  2

  9
$UCSNAME
  2

  9
$UCSORG
 10
0
 20
0
 30
0
  9
$UCSXDIR
 10
1
 20
0
 30
0
  9
$UCSYDIR
 10
0
 20
1
 30
0
  9
$UCSORTHOREF
  2

  9
$UCSORTHOVIEW
 70
    0
  9
$UCSORGTOP
 10
0
 20
0
 30
0
  9
$UCSORGBOTTOM
 10
0
 20
0
 30
0
  9
$UCSORGLEFT
 10
0
 20
0
 30
0
  9
$UCSORGRIGHT
 10
0
 20
0
 30
0
  9
$UCSORGFRONT
 10
0
 20
0
 30
0
  9
$UCSORGBACK
 10
0
 20
0
 30
0
  9
$PUCSBASE
  2

  9
$PUCSNAME
  2

  9
$PUCSORG
 10
0
 20
0
 30
0
  9
$PUCSXDIR
 10
1
 20
0
 30
0
  9
$PUCSYDIR
 10
0
 20
1
 30
0
  9
$PUCSORTHOREF
  2

  9
$PUCSORTHOVIEW
 70
    0
  9
$PUCSORGTOP
 10
0
 20
0
 30
0
  9
$PUCSORGBOTTOM
 10
0
 20
0
 30
0
  9
$PUCSORGLEFT
 10
0
 20
0
 30
0
  9
$PUCSORGRIGHT
 10
0
 20
0
 30
0
  9
$PUCSORGFRONT
 10
0
 20
0
 30
0
  9
$PUCSORGBACK
 10
0
 20
0
 30
0
  9
$USERI1
 70
    0
  9
$USERI2
 70
    0
  9
$USERI3
 70
    0
  9
$USERI4
 70
    0
  9
$USERI5
 70
    0
  9
$USERR1
 40
0
  9
$USERR2
 40
0
  9
$USERR3
 40
0
  9
$USERR4
 40
0
  9
$USERR5
 40
0
  9
$WORLDVIEW
 70
    1
  9
$SHADEDGE
 70
    3
  9
$SHADEDIF
 70
   70
  9
$TILEMODE
 70
    1
  9
$MAXACTVP
 70
   64
  9
$PINSBASE
 10
0
 20
0
 30
0
  9
$PLIMCHECK
 70
    0
  9
$PEXTMIN
 10
0
 20
0
 30
0
  9
$PEXTMAX
 10
0
 20
0
 30
0
  9
$PLIMMIN
 10
0
 20
0
  9
$PLIMMAX
 10
297
 20
210
  9
$UNITMODE
 70
    0
  9
$VISRETAIN
 70
    1
  9
$PLINEGEN
 70
    0
  9
$PSLTSCALE
 70
    1
  9
$TREEDEPTH
 70
 3020
  9
$CMLSTYLE
  2
Standard
  9
$CMLJUST
 70
    0
  9
$CMLSCALE
 40
20
  9
$PROXYGRAPHICS
 70
    1
  9
$MEASUREMENT
 70
    1
  9
$CELWEIGHT
370
   -1
  9
$ENDCAPS
280
    0
  9
$JOINSTYLE
280
    0
  9
$LWDISPLAY
290
    0
  9
$INSUNITS
 70
    0
  9
$HYPERLINKBASE
  1

  9
$STYLESHEET
  1

  9
$XEDIT
290
    1
  9
$CEPSNTYPE
380
    0
  9
$PSTYLEMODE
290
    1
  9
$EXTNAMES
290
    1
  9
$PSVPSCALE
 40
0
  9
$OLESTARTUP
290
    0
  9
$SORTENTS
280
  127
  9
$INDEXCTL
280
    0
  9
$HIDETEXT
280
    1
  9
$XCLIPFRAME
290
    0
  9
$HALOGAP
280
    0
  9
$OBSCOLOR
 70
  257
  9
$OBSLTYPE
280
    0
  9
$INTERSECTIONDISPLAY
280
    0
  9
$INTERSECTIONCOLOR
 70
  257
  9
$DIMASSOC
280
    1
  9
$PROJECTNAME
  1

  9
$CAMERADISPLAY
290
    0
  9
$LENSLENGTH
 40
50
  9
$CAMERAHEIGHT
 40
0
  9
$STEPSPERSEC
 40
2
  9
$STEPSIZE
 40
50
  9
$3DDWFPREC
 40
2
  9
$PSOLWIDTH
 40
5
  9
$PSOLHEIGHT
 40
80
  9
$LOFTANG1
 40
1.570796326794897
  9
$LOFTANG2
 40
1.570796326794897
  9
$LOFTMAG1
 40
0
  9
$LOFTMAG2
 40
0
  9
$LOFTPARAM
 70
    7
  9
$LOFTNORMALS
280
    1
  9
$LATITUDE
 40
1
  9
$LONGITUDE
 40
1
  9
$NORTHDIRECTION
 40
0
  9
$TIMEZONE
 70
-8000
  9
$LIGHTGLYPHDISPLAY
280
    1
  9
$TILEMODELIGHTSYNCH
280
    1
  9
$SOLIDHIST
280
    1
  9
$SHOWHIST
280
    1
  9
$DWFFRAME
280
    2
  9
$DGNFRAME
280
    0
  9
$REALWORLDSCALE
290
    1
  9
$INTERFERECOLOR
 62
    1
  9
$CSHADOW
280
    0
  9
$SHADOWPLANELOCATION
 40
0
  0
ENDSEC
  0
SECTION
  2
CLASSES
  0
ENDSEC
  0
SECTION
  2
TABLES
  0
TABLE
  2
VPORT
  5
8
330
0
100
AcDbSymbolTable
 70
    1
  0
VPORT
  5
31
330
2
100
AcDbSymbolTableRecord
100
AcDbViewportTableRecord
  2
*ACTIVE
 70
    0
 10
0
 20
0
 11
1
 21
1
 12
0.651828
 22
-0.16
 13
0
 23
0
 14
10
 24
10
 15
10
 25
10
 16
0
 26
0
 36
1
 17
0
 27
0
 37
0
 40
5.13732
 41
2.4426877
 42
50
 43
0
 44
0
 50
0
 51
0
 71
    0
 72
  100
 73
    1
 74
    3
 75
    0
 76
    0
 77
    0
 78
    0
281
    0
 65
    1
110
0
120
0
130
0
111
1
121
0
131
0
112
0
122
1
132
0
 79
    0
146
0
348
10020
 60
    7
 61
    5
292
1
282
    1
141
0
142
0
 63
  250
421
3358443
  0
ENDTAB
  0
TABLE
  2
LTYPE
  5
5
330
0
100
AcDbSymbolTable
 70
    4
  0
LTYPE
  5
14
330
5
100
AcDbSymbolTableRecord
100
AcDbLinetypeTableRecord
  2
ByBlock
 70
    0
  3

 72
   65
 73
    0
 40
0
  0
LTYPE
  5
15
330
5
100
AcDbSymbolTableRecord
100
AcDbLinetypeTableRecord
  2
ByLayer
 70
    0
  3

 72
   65
 73
    0
 40
0
  0
LTYPE
  5
16
330
5
100
AcDbSymbolTableRecord
100
AcDbLinetypeTableRecord
  2
Continuous
 70
    0
  3
Solid line
 72
   65
 73
    0
 40
0
  0
LTYPE
  5
32
330
5
100
AcDbSymbolTableRecord
100
AcDbLinetypeTableRecord
  2
DASHED
 70
    0
  3

 72
   65
 73
    2
 40
3
 49
1
 74
    0
 49
-2
 74
    0
  0
LTYPE
  5
33
330
5
100
AcDbSymbolTableRecord
100
AcDbLinetypeTableRecord
  2
DASHED
 70
    0
  3

 72
   65
 73
    2
 40
2
 49
1
 74
    0
 49
-1
 74
    0
  0
LTYPE
  5
34
330
5
100
AcDbSymbolTableRecord
100
AcDbLinetypeTableRecord
  2
DASHEDX2
 70
    0
  3

 72
   65
 73
    2
 40
3
 49
2
 74
    0
 49
-1
 74
    0
  0
LTYPE
  5
35
330
5
100
AcDbSymbolTableRecord
100
AcDbLinetypeTableRecord
  2
DASHDOT
 70
    0
  3

 72
   65
 73
    4
 40
3
 49
1
 74
    0
 49
-1
 74
    0
 49
0
 74
    0
 49
-1
 74
    0
  0
LTYPE
  5
36
330
5
100
AcDbSymbolTableRecord
100
AcDbLinetypeTableRecord
  2
DIVIDE
 70
    0
  3

 72
   65
 73
    6
 40
4
 49
1
 74
    0
 49
-1
 74
    0
 49
0
 74
    0
 49
-1
 74
    0
 49
0
 74
    0
 49
-1
 74
    0
  0
LTYPE
  5
37
330
5
100
AcDbSymbolTableRecord
100
AcDbLinetypeTableRecord
  2
DOT
 70
    0
  3

 72
   65
 73
    2
 40
1
 49
1
 74
    0
 49
0
 74
    0
  0
ENDTAB
  0
TABLE
  2
LAYER
  5
2
330
0
100
AcDbSymbolTable
 70
    1
  0
LAYER
  5
38
330
2
100
AcDbSymbolTableRecord
100
AcDbLayerTableRecord
  2
dimensions
 70
    0
 62
    7
  6
CONTINUOUS
370
   -3
390
F
  0
LAYER
  5
39
330
2
100
AcDbSymbolTableRecord
100
AcDbLayerTableRecord
  2
text
 70
    0
 62
    7
  6
CONTINUOUS
370
   -3
390
F
  0
LAYER
  5
3A
330
2
100
AcDbSymbolTableRecord
100
AcDbLayerTableRecord
  2
s001-#def-active-grp
 70
    0
 62
    7
  6
CONTINUOUS
370
   -3
390
F
  0
LAYER
  5
3B
330
2
100
AcDbSymbolTableRecord
100
AcDbLayerTableRecord
  2
s100-@dxf
 70
    0
 62
    7
  6
CONTINUOUS
370
   -3
390
F
  0
LAYER
  5
10
330
2
100
AcDbSymbolTableRecord
100
AcDbLayerTableRecord
  2
0
 70
    0
 62
    7
  6
CONTINUOUS
370
   -3
390
F
  0
ENDTAB
  0
TABLE
  2
STYLE
  5
3
330
0
100
AcDbSymbolTable
 70
    3
  0
STYLE
  5
3C
330
2
100
AcDbSymbolTableRecord
100
AcDbTextStyleTableRecord
  2
unicode
 70
    0
 40
0
 41
1
 50
0
 71
    0
 42
1
  3
unicode
  4

  0
STYLE
  5
3D
330
2
100
AcDbSymbolTableRecord
100
AcDbTextStyleTableRecord
  2
Standard
 70
    0
 40
0
 41
1
 50
0
 71
    0
 42
1
  3
txt
  4

  0
ENDTAB
  0
TABLE
  2
VIEW
  5
6
330
0
100
AcDbSymbolTable
 70
    0
  0
ENDTAB
  0
TABLE
  2
UCS
  5
7
330
0
100
AcDbSymbolTable
 70
    0
  0
ENDTAB
  0
TABLE
  2
APPID
  5
9
330
0
100
AcDbSymbolTable
 70
    1
  0
APPID
  5
12
330
9
100
AcDbSymbolTableRecord
100
AcDbRegAppTableRecord
  2
ACAD
 70
    0
  0
ENDTAB
  0
TABLE
  2
DIMSTYLE
  5
A
330
0
100
AcDbSymbolTable
 70
    1
100
AcDbDimStyleTable
 71
    1
  0
DIMSTYLE
105
3E
330
A
100
AcDbSymbolTableRecord
100
AcDbDimStyleTableRecord
  2
Standard
 70
    0
 40
1
 41
2.5
 42
0.625
 43
3.75
 44
1.25
 45
0
 46
0
 47
0
 48
0
140
2.5
141
2.5
142
0
143
0.03937007874015748
144
1
145
0
146
1
147
0.625
148
0
 71
    0
 72
    0
 73
    0
 74
    0
 75
    0
 76
    0
 77
    1
 78
    8
 79
    0
170
    0
171
    3
172
    1
173
    0
174
    0
175
    0
176
    0
177
    0
178
    0
179
    0
271
    2
272
    2
273
    2
274
    3
275
    0
276
    0
277
    2
278
   44
279
    0
280
    0
281
    0
282
    0
283
    0
284
    8
285
    0
286
    0
288
    0
289
    3
341

371
   -2
372
   -2
  0
ENDTAB
  0
TABLE
  2
BLOCK_RECORD
  5
1
330
0
100
AcDbSymbolTable
 70
    2
  0
BLOCK_RECORD
  5
1F
330
1
100
AcDbSymbolTableRecord
100
AcDbBlockTableRecord
  2
*Model_Space
 70
    0
280
    1
281
    0
  0
BLOCK_RECORD
  5
1E
330
1
100
AcDbSymbolTableRecord
100
AcDbBlockTableRecord
  2
*Paper_Space
 70
    0
280
    1
281
    0
  0
ENDTAB
  0
ENDSEC
  0
SECTION
  2
BLOCKS
  0
BLOCK
  5
20
330
1F
100
AcDbEntity
  8
0
100
AcDbBlockBegin
  2
*Model_Space
 70
    0
 10
0
 20
0
 30
0
  3
*Model_Space
  1

  0
ENDBLK
  5
21
330
1F
100
AcDbEntity
  8
0
100
AcDbBlockEnd
  0
BLOCK
  5
1C
330
1B
100
AcDbEntity
  8
0
100
AcDbBlockBegin
  2
*Paper_Space
 70
    0
 10
0
 20
0
 30
0
  3
*Paper_Space
  1

  0
ENDBLK
  5
1D
330
1F
100
AcDbEntity
  8
0
100
AcDbBlockEnd
  0
ENDSEC
  0
SECTION
  2
ENTITIES
  0
POLYLINE
  5
3F
100
AcDbEntity
  8
s100-@dxf
  6
CONTINUOUS
 62
    7
420
    0
370
   40
100
AcDb2dPolyline
 10
0
 20
0
 30
0
 70
    0
  0
VERTEX
  5
40
100
AcDbEntity
  8
s100-@dxf
  6
CONTINUOUS
 62
    7
420
    0
370
   40
100
AcDbVertex
100
AcDb2dVertex
 10
-124.0589546370577
 20
-26.72950148015708
 30
0
  0
VERTEX
  5
41
100
AcDbEntity
  8
s100-@dxf
  6
CONTINUOUS
 62
    7
420
    0
370
   40
100
AcDbVertex
100
AcDb2dVertex
 10
-120.4354880370577
 20
-13.2065398801571
 30
0
  0
VERTEX
  5
42
100
AcDbEntity
  8
s100-@dxf
  6
CONTINUOUS
 62
    7
420
    0
370
   40
100
AcDbVertex
100
AcDb2dVertex
 10
-106.9125264370577
 20
-16.83000648015708
 30
0
  0
VERTEX
  5
43
100
AcDbEntity
  8
s100-@dxf
  6
CONTINUOUS
 62
    7
420
    0
370
   40
100
AcDbVertex
100
AcDb2dVertex
 10
-110.5359930370577
 20
-30.35296808015708
 30
0
  0
VERTEX
  5
44
100
AcDbEntity
  8
s100-@dxf
  6
CONTINUOUS
 62
    7
420
    0
370
   40
100
AcDbVertex
100
AcDb2dVertex
 10
-124.0589546370577
 20
-26.72950148015708
 30
0
  0
SEQEND
  5
45
100
AcDbEntity
  8
s100-@dxf
  6
CONTINUOUS
 62
    7
420
    0
370
   40
  0
POLYLINE
  5
46
100
AcDbEntity
  8
s100-@dxf
  6
CONTINUOUS
 62
    7
420
    0
370
   40
100
AcDb2dPolyline
 10
0
 20
0
 30
0
 70
    0
  0
VERTEX
  5
47
100
AcDbEntity
  8
s100-@dxf
  6
CONTINUOUS
 62
    7
420
    0
370
   40
100
AcDbVertex
100
AcDb2dVertex
 10
-119.1413927370577
 20
-8.37691078015709
 30
0
  0
VERTEX
  5
48
100
AcDbEntity
  8
s100-@dxf
  6
CONTINUOUS
 62
    7
420
    0
370
   40
100
AcDbVertex
100
AcDb2dVertex
 10
-115.5179261370577
 20
5.146050819842912
 30
0
  0
VERTEX
  5
49
100
AcDbEntity
  8
s100-@dxf
  6
CONTINUOUS
 62
    7
420
    0
370
   40
100
AcDbVertex
100
AcDb2dVertex
 10
-101.9949645370577
 20
1.522584219842912
 30
0
  0
VERTEX
  5
4A
100
AcDbEntity
  8
s100-@dxf
  6
CONTINUOUS
 62
    7
420
    0
370
   40
100
AcDbVertex
100
AcDb2dVertex
 10
-105.6184311370577
 20
-12.00037738015709
 30
0
  0
VERTEX
  5
4B
100
AcDbEntity
  8
s100-@dxf
  6
CONTINUOUS
 62
    7
420
    0
370
   40
100
AcDbVertex
100
AcDb2dVertex
 10
-119.1413927370577
 20
-8.37691078015709
 30
0
  0
SEQEND
  5
4C
100
AcDbEntity
  8
s100-@dxf
  6
CONTINUOUS
 62
    7
420
    0
370
   40
  0
POLYLINE
  5
4D
100
AcDbEntity
  8
s100-@dxf
  6
CONTINUOUS
 62
    7
420
    0
370
   40
100
AcDb2dPolyline
 10
0
 20
0
 30
0
 70
    0
  0
VERTEX
  5
4E
100
AcDbEntity
  8
s100-@dxf
  6
CONTINUOUS
 62
    7
420
    0
370
   40
100
AcDbVertex
100
AcDb2dVertex
 10
-110.6239257370577
 20
-49.9996540801571
 30
0
  0
VERTEX
  5
4F
100
AcDbEntity
  8
s100-@dxf
  6
CONTINUOUS
 62
    7
420
    0
370
   40
100
AcDbVertex
100
AcDb2dVertex
 10
-107.0004591370577
 20
-36.4766924801571
 30
0
  0
VERTEX
  5
50
100
AcDbEntity
  8
s100-@dxf
  6
CONTINUOUS
 62
    7
420
    0
370
   40
100
AcDbVertex
100
AcDb2dVertex
 10
-93.47749753705767
 20
-40.1001590801571
 30
0
  0
VERTEX
  5
51
100
AcDbEntity
  8
s100-@dxf
  6
CONTINUOUS
 62
    7
420
    0
370
   40
100
AcDbVertex
100
AcDb2dVertex
 10
-97.10096413705767
 20
-53.6231206801571
 30
0
  0
VERTEX
  5
52
100
AcDbEntity
  8
s100-@dxf
  6
CONTINUOUS
 62
    7
420
    0
370
   40
100
AcDbVertex
100
AcDb2dVertex
 10
-110.6239257370577
 20
-49.9996540801571
 30
0
  0
SEQEND
  5
53
100
AcDbEntity
  8
s100-@dxf
  6
CONTINUOUS
 62
    7
420
    0
370
   40
  0
POLYLINE
  5
54
100
AcDbEntity
  8
s100-@dxf
  6
CONTINUOUS
 62
    7
420
    0
370
   40
100
AcDb2dPolyline
 10
0
 20
0
 30
0
 70
    0
  0
VERTEX
  5
55
100
AcDbEntity
  8
s100-@dxf
  6
CONTINUOUS
 62
    7
420
    0
370
   40
100
AcDbVertex
100
AcDb2dVertex
 10
-105.7063639370577
 20
-31.64706338015709
 30
0
  0
VERTEX
  5
56
100
AcDbEntity
  8
s100-@dxf
  6
CONTINUOUS
 62
    7
420
    0
370
   40
100
AcDbVertex
100
AcDb2dVertex
 10
-102.0828973370577
 20
-18.12410178015709
 30
0
  0
VERTEX
  5
57
100
AcDbEntity
  8
s100-@dxf
  6
CONTINUOUS
 62
    7
420
    0
370
   40
100
AcDbVertex
100
AcDb2dVertex
 10
-88.55993573705767
 20
-21.74756838015709
 30
0
  0
VERTEX
  5
58
100
AcDbEntity
  8
s100-@dxf
  6
CONTINUOUS
 62
    7
420
    0
370
   40
100
AcDbVertex
100
AcDb2dVertex
 10
-92.18340233705767
 20
-35.27052998015709
 30
0
  0
VERTEX
  5
59
100
AcDbEntity
  8
s100-@dxf
  6
CONTINUOUS
 62
    7
420
    0
370
   40
100
AcDbVertex
100
AcDb2dVertex
 10
-105.7063639370577
 20
-31.64706338015709
 30
0
  0
SEQEND
  5
5A
100
AcDbEntity
  8
s100-@dxf
  6
CONTINUOUS
 62
    7
420
    0
370
   40
  0
POLYLINE
  5
5B
100
AcDbEntity
  8
s100-@dxf
  6
CONTINUOUS
 62
    7
420
    0
370
   40
100
AcDb2dPolyline
 10
0
 20
0
 30
0
 70
    0
  0
VERTEX
  5
5C
100
AcDbEntity
  8
s100-@dxf
  6
CONTINUOUS
 62
    7
420
    0
370
   40
100
AcDbVertex
100
AcDb2dVertex
 10
-100.7888020370577
 20
-13.2944726801571
 30
0
  0
VERTEX
  5
5D
100
AcDbEntity
  8
s100-@dxf
  6
CONTINUOUS
 62
    7
420
    0
370
   40
100
AcDbVertex
100
AcDb2dVertex
 10
-97.16533543705768
 20
0.2284889198429028
 30
0
  0
VERTEX
  5
5E
100
AcDbEntity
  8
s100-@dxf
  6
CONTINUOUS
 62
    7
420
    0
370
   40
100
AcDbVertex
100
AcDb2dVertex
 10
-83.64237383705768
 20
-3.394977680157098
 30
0
  0
VERTEX
  5
5F
100
AcDbEntity
  8
s100-@dxf
  6
CONTINUOUS
 62
    7
420
    0
370
   40
100
AcDbVertex
100
AcDb2dVertex
 10
-87.26584043705768
 20
-16.91793928015709
 30
0
  0
VERTEX
  5
60
100
AcDbEntity
  8
s100-@dxf
  6
CONTINUOUS
 62
    7
420
    0
370
   40
100
AcDbVertex
100
AcDb2dVertex
 10
-100.7888020370577
 20
-13.2944726801571
 30
0
  0
SEQEND
  5
61
100
AcDbEntity
  8
s100-@dxf
  6
CONTINUOUS
 62
    7
420
    0
370
   40
  0
POLYLINE
  5
62
100
AcDbEntity
  8
s100-@dxf
  6
CONTINUOUS
 62
    7
420
    0
370
   40
100
AcDb2dPolyline
 10
0
 20
0
 30
0
 70
    0
  0
VERTEX
  5
63
100
AcDbEntity
  8
s100-@dxf
  6
CONTINUOUS
 62
    7
420
    0
370
   40
100
AcDbVertex
100
AcDb2dVertex
 10
-89.55373513705767
 20
-44.77499478015709
 30
0
  0
VERTEX
  5
64
100
AcDbEntity
  8
s100-@dxf
  6
CONTINUOUS
 62
    7
420
    0
370
   40
100
AcDbVertex
100
AcDb2dVertex
 10
-85.93026853705767
 20
-31.25203318015708
 30
0
  0
VERTEX
  5
65
100
AcDbEntity
  8
s100-@dxf
  6
CONTINUOUS
 62
    7
420
    0
370
   40
100
AcDbVertex
100
AcDb2dVertex
 10
-72.40730693705768
 20
-34.87549978015709
 30
0
  0
VERTEX
  5
66
100
AcDbEntity
  8
s100-@dxf
  6
CONTINUOUS
 62
    7
420
    0
370
   40
100
AcDbVertex
100
AcDb2dVertex
 10
-76.03077353705768
 20
-48.39846138015709
 30
0
  0
VERTEX
  5
67
100
AcDbEntity
  8
s100-@dxf
  6
CONTINUOUS
 62
    7
420
    0
370
   40
100
AcDbVertex
100
AcDb2dVertex
 10
-89.55373513705767
 20
-44.77499478015709
 30
0
  0
SEQEND
  5
68
100
AcDbEntity
  8
s100-@dxf
  6
CONTINUOUS
 62
    7
420
    0
370
   40
  0
POLYLINE
  5
69
100
AcDbEntity
  8
s100-@dxf
  6
CONTINUOUS
 62
    7
420
    0
370
   40
100
AcDb2dPolyline
 10
0
 20
0
 30
0
 70
    0
  0
VERTEX
  5
6A
100
AcDbEntity
  8
s100-@dxf
  6
CONTINUOUS
 62
    7
420
    0
370
   40
100
AcDbVertex
100
AcDb2dVertex
 10
-84.63617323705768
 20
-26.42240408015708
 30
0
  0
VERTEX
  5
6B
100
AcDbEntity
  8
s100-@dxf
  6
CONTINUOUS
 62
    7
420
    0
370
   40
100
AcDbVertex
100
AcDb2dVertex
 10
-81.01270663705768
 20
-12.89944248015709
 30
0
  0
VERTEX
  5
6C
100
AcDbEntity
  8
s100-@dxf
  6
CONTINUOUS
 62
    7
420
    0
370
   40
100
AcDbVertex
100
AcDb2dVertex
 10
-67.48974503705767
 20
-16.52290908015709
 30
0
  0
VERTEX
  5
6D
100
AcDbEntity
  8
s100-@dxf
  6
CONTINUOUS
 62
    7
420
    0
370
   40
100
AcDbVertex
100
AcDb2dVertex
 10
-71.11321163705767
 20
-30.04587068015708
 30
0
  0
VERTEX
  5
6E
100
AcDbEntity
  8
s100-@dxf
  6
CONTINUOUS
 62
    7
420
    0
370
   40
100
AcDbVertex
100
AcDb2dVertex
 10
-84.63617323705768
 20
-26.42240408015708
 30
0
  0
SEQEND
  5
6F
100
AcDbEntity
  8
s100-@dxf
  6
CONTINUOUS
 62
    7
420
    0
370
   40
  0
POLYLINE
  5
70
100
AcDbEntity
  8
s100-@dxf
  6
CONTINUOUS
 62
    7
420
    0
370
   40
100
AcDb2dPolyline
 10
0
 20
0
 30
0
 70
    0
  0
VERTEX
  5
71
100
AcDbEntity
  8
s100-@dxf
  6
CONTINUOUS
 62
    7
420
    0
370
   40
100
AcDbVertex
100
AcDb2dVertex
 10
-79.71861133705768
 20
-8.069813380157086
 30
0
  0
VERTEX
  5
72
100
AcDbEntity
  8
s100-@dxf
  6
CONTINUOUS
 62
    7
420
    0
370
   40
100
AcDbVertex
100
AcDb2dVertex
 10
-76.09514473705768
 20
5.453148219842902
 30
0
  0
VERTEX
  5
73
100
AcDbEntity
  8
s100-@dxf
  6
CONTINUOUS
 62
    7
420
    0
370
   40
100
AcDbVertex
100
AcDb2dVertex
 10
-62.57218313705768
 20
1.829681619842901
 30
0
  0
VERTEX
  5
74
100
AcDbEntity
  8
s100-@dxf
  6
CONTINUOUS
 62
    7
420
    0
370
   40
100
AcDbVertex
100
AcDb2dVertex
 10
-66.19564973705768
 20
-11.69327998015709
 30
0
  0
VERTEX
  5
75
100
AcDbEntity
  8
s100-@dxf
  6
CONTINUOUS
 62
    7
420
    0
370
   40
100
AcDbVertex
100
AcDb2dVertex
 10
-79.71861133705768
 20
-8.069813380157086
 30
0
  0
SEQEND
  5
76
100
AcDbEntity
  8
s100-@dxf
  6
CONTINUOUS
 62
    7
420
    0
370
   40
  0
POLYLINE
  5
77
100
AcDbEntity
  8
s100-@dxf
  6
CONTINUOUS
 62
    7
420
    0
370
   40
100
AcDb2dPolyline
 10
0
 20
0
 30
0
 70
    0
  0
VERTEX
  5
78
100
AcDbEntity
  8
s100-@dxf
  6
CONTINUOUS
 62
    7
420
    0
370
   40
100
AcDbVertex
100
AcDb2dVertex
 10
-70.42468723705768
 20
-46.79477908015708
 30
0
  0
VERTEX
  5
79
100
AcDbEntity
  8
s100-@dxf
  6
CONTINUOUS
 62
    7
420
    0
370
   40
100
AcDbVertex
100
AcDb2dVertex
 10
-66.80122063705768
 20
-33.27181748015708
 30
0
  0
VERTEX
  5
7A
100
AcDbEntity
  8
s100-@dxf
  6
CONTINUOUS
 62
    7
420
    0
370
   40
100
AcDbVertex
100
AcDb2dVertex
 10
-53.27825903705767
 20
-36.89528408015708
 30
0
  0
VERTEX
  5
7B
100
AcDbEntity
  8
s100-@dxf
  6
CONTINUOUS
 62
    7
420
    0
370
   40
100
AcDbVertex
100
AcDb2dVertex
 10
-56.90172563705768
 20
-50.41824568015709
 30
0
  0
VERTEX
  5
7C
100
AcDbEntity
  8
s100-@dxf
  6
CONTINUOUS
 62
    7
420
    0
370
   40
100
AcDbVertex
100
AcDb2dVertex
 10
-70.42468723705768
 20
-46.79477908015708
 30
0
  0
SEQEND
  5
7D
100
AcDbEntity
  8
s100-@dxf
  6
CONTINUOUS
 62
    7
420
    0
370
   40
  0
POLYLINE
  5
7E
100
AcDbEntity
  8
s100-@dxf
  6
CONTINUOUS
 62
    7
420
    0
370
   40
100
AcDb2dPolyline
 10
0
 20
0
 30
0
 70
    0
  0
VERTEX
  5
7F
100
AcDbEntity
  8
s100-@dxf
  6
CONTINUOUS
 62
    7
420
    0
370
   40
100
AcDbVertex
100
AcDb2dVertex
 10
-65.50712543705768
 20
-28.44218838015711
 30
0
  0
VERTEX
  5
80
100
AcDbEntity
  8
s100-@dxf
  6
CONTINUOUS
 62
    7
420
    0
370
   40
100
AcDbVertex
100
AcDb2dVertex
 10
-61.88365883705768
 20
-14.91922678015709
 30
0
  0
VERTEX
  5
81
100
AcDbEntity
  8
s100-@dxf
  6
CONTINUOUS
 62
    7
420
    0
370
   40
100
AcDbVertex
100
AcDb2dVertex
 10
-48.36069723705768
 20
-18.5426933801571
 30
0
  0
VERTEX
  5
82
100
AcDbEntity
  8
s100-@dxf
  6
CONTINUOUS
 62
    7
420
    0
370
   40
100
AcDbVertex
100
AcDb2dVertex
 10
-51.98416383705768
 20
-32.06565498015711
 30
0
  0
VERTEX
  5
83
100
AcDbEntity
  8
s100-@dxf
  6
CONTINUOUS
 62
    7
420
    0
370
   40
100
AcDbVertex
100
AcDb2dVertex
 10
-65.50712543705768
 20
-28.44218838015711
 30
0
  0
SEQEND
  5
84
100
AcDbEntity
  8
s100-@dxf
  6
CONTINUOUS
 62
    7
420
    0
370
   40
  0
POLYLINE
  5
85
100
AcDbEntity
  8
s100-@dxf
  6
CONTINUOUS
 62
    7
420
    0
370
   40
100
AcDb2dPolyline
 10
0
 20
0
 30
0
 70
    0
  0
VERTEX
  5
86
100
AcDbEntity
  8
s100-@dxf
  6
CONTINUOUS
 62
    7
420
    0
370
   40
100
AcDbVertex
100
AcDb2dVertex
 10
-60.58956353705767
 20
-10.0895976801571
 30
0
  0
VERTEX
  5
87
100
AcDbEntity
  8
s100-@dxf
  6
CONTINUOUS
 62
    7
420
    0
370
   40
100
AcDbVertex
100
AcDb2dVertex
 10
-56.96609693705767
 20
3.433363919842904
 30
0
  0
VERTEX
  5
88
100
AcDbEntity
  8
s100-@dxf
  6
CONTINUOUS
 62
    7
420
    0
370
   40
100
AcDbVertex
100
AcDb2dVertex
 10
-43.44313533705767
 20
-0.1901026801570964
 30
0
  0
VERTEX
  5
89
100
AcDbEntity
  8
s100-@dxf
  6
CONTINUOUS
 62
    7
420
    0
370
   40
100
AcDbVertex
100
AcDb2dVertex
 10
-47.06660193705767
 20
-13.7130642801571
 30
0
  0
VERTEX
  5
8A
100
AcDbEntity
  8
s100-@dxf
  6
CONTINUOUS
 62
    7
420
    0
370
   40
100
AcDbVertex
100
AcDb2dVertex
 10
-60.58956353705767
 20
-10.0895976801571
 30
0
  0
SEQEND
  5
8B
100
AcDbEntity
  8
s100-@dxf
  6
CONTINUOUS
 62
    7
420
    0
370
   40
  0
POLYLINE
  5
8C
100
AcDbEntity
  8
s100-@dxf
  6
CONTINUOUS
 62
    7
420
    0
370
   40
100
AcDb2dPolyline
 10
0
 20
0
 30
0
 70
    0
  0
VERTEX
  5
8D
100
AcDbEntity
  8
s100-@dxf
  6
CONTINUOUS
 62
    7
420
    0
370
   40
100
AcDbVertex
100
AcDb2dVertex
 10
-53.36619183705767
 20
-56.5419700801571
 30
0
  0
VERTEX
  5
8E
100
AcDbEntity
  8
s100-@dxf
  6
CONTINUOUS
 62
    7
420
    0
370
   40
100
AcDbVertex
100
AcDb2dVertex
 10
-49.74272523705767
 20
-43.0190084801571
 30
0
  0
VERTEX
  5
8F
100
AcDbEntity
  8
s100-@dxf
  6
CONTINUOUS
 62
    7
420
    0
370
   40
100
AcDbVertex
100
AcDb2dVertex
 10
-36.21976363705767
 20
-46.6424750801571
 30
0
  0
VERTEX
  5
90
100
AcDbEntity
  8
s100-@dxf
  6
CONTINUOUS
 62
    7
420
    0
370
   40
100
AcDbVertex
100
AcDb2dVertex
 10
-39.84323023705767
 20
-60.1654366801571
 30
0
  0
VERTEX
  5
91
100
AcDbEntity
  8
s100-@dxf
  6
CONTINUOUS
 62
    7
420
    0
370
   40
100
AcDbVertex
100
AcDb2dVertex
 10
-53.36619183705767
 20
-56.5419700801571
 30
0
  0
SEQEND
  5
92
100
AcDbEntity
  8
s100-@dxf
  6
CONTINUOUS
 62
    7
420
    0
370
   40
  0
POLYLINE
  5
93
100
AcDbEntity
  8
s100-@dxf
  6
CONTINUOUS
 62
    7
420
    0
370
   40
100
AcDb2dPolyline
 10
0
 20
0
 30
0
 70
    0
  0
VERTEX
  5
94
100
AcDbEntity
  8
s100-@dxf
  6
CONTINUOUS
 62
    7
420
    0
370
   40
100
AcDbVertex
100
AcDb2dVertex
 10
-48.44862993705769
 20
-38.18937938015709
 30
0
  0
VERTEX
  5
95
100
AcDbEntity
  8
s100-@dxf
  6
CONTINUOUS
 62
    7
420
    0
370
   40
100
AcDbVertex
100
AcDb2dVertex
 10
-44.82516333705769
 20
-24.66641778015709
 30
0
  0
VERTEX
  5
96
100
AcDbEntity
  8
s100-@dxf
  6
CONTINUOUS
 62
    7
420
    0
370
   40
100
AcDbVertex
100
AcDb2dVertex
 10
-31.30220173705769
 20
-28.28988438015709
 30
0
  0
VERTEX
  5
97
100
AcDbEntity
  8
s100-@dxf
  6
CONTINUOUS
 62
    7
420
    0
370
   40
100
AcDbVertex
100
AcDb2dVertex
 10
-34.92566833705769
 20
-41.81284598015709
 30
0
  0
VERTEX
  5
98
100
AcDbEntity
  8
s100-@dxf
  6
CONTINUOUS
 62
    7
420
    0
370
   40
100
AcDbVertex
100
AcDb2dVertex
 10
-48.44862993705769
 20
-38.18937938015709
 30
0
  0
SEQEND
  5
99
100
AcDbEntity
  8
s100-@dxf
  6
CONTINUOUS
 62
    7
420
    0
370
   40
  0
POLYLINE
  5
9A
100
AcDbEntity
  8
s100-@dxf
  6
CONTINUOUS
 62
    7
420
    0
370
   40
100
AcDb2dPolyline
 10
0
 20
0
 30
0
 70
    0
  0
VERTEX
  5
9B
100
AcDbEntity
  8
s100-@dxf
  6
CONTINUOUS
 62
    7
420
    0
370
   40
100
AcDbVertex
100
AcDb2dVertex
 10
-43.53106803705768
 20
-19.83678868015708
 30
0
  0
VERTEX
  5
9C
100
AcDbEntity
  8
s100-@dxf
  6
CONTINUOUS
 62
    7
420
    0
370
   40
100
AcDbVertex
100
AcDb2dVertex
 10
-39.90760143705768
 20
-6.313827080157097
 30
0
  0
VERTEX
  5
9D
100
AcDbEntity
  8
s100-@dxf
  6
CONTINUOUS
 62
    7
420
    0
370
   40
100
AcDbVertex
100
AcDb2dVertex
 10
-26.38463983705768
 20
-9.937293680157097
 30
0
  0
VERTEX
  5
9E
100
AcDbEntity
  8
s100-@dxf
  6
CONTINUOUS
 62
    7
420
    0
370
   40
100
AcDbVertex
100
AcDb2dVertex
 10
-30.00810643705768
 20
-23.46025528015709
 30
0
  0
VERTEX
  5
9F
100
AcDbEntity
  8
s100-@dxf
  6
CONTINUOUS
 62
    7
420
    0
370
   40
100
AcDbVertex
100
AcDb2dVertex
 10
-43.53106803705768
 20
-19.83678868015708
 30
0
  0
SEQEND
  5
A0
100
AcDbEntity
  8
s100-@dxf
  6
CONTINUOUS
 62
    7
420
    0
370
   40
  0
POLYLINE
  5
A1
100
AcDbEntity
  8
s100-@dxf
  6
CONTINUOUS
 62
    7
420
    0
370
   40
100
AcDb2dPolyline
 10
0
 20
0
 30
0
 70
    0
  0
VERTEX
  5
A2
100
AcDbEntity
  8
s100-@dxf
  6
CONTINUOUS
 62
    7
420
    0
370
   40
100
AcDbVertex
100
AcDb2dVertex
 10
-35.40182963705769
 20
-62.90842068015711
 30
0
  0
VERTEX
  5
A3
100
AcDbEntity
  8
s100-@dxf
  6
CONTINUOUS
 62
    7
420
    0
370
   40
100
AcDbVertex
100
AcDb2dVertex
 10
-31.77836303705769
 20
-49.3854590801571
 30
0
  0
VERTEX
  5
A4
100
AcDbEntity
  8
s100-@dxf
  6
CONTINUOUS
 62
    7
420
    0
370
   40
100
AcDbVertex
100
AcDb2dVertex
 10
-18.25540143705769
 20
-53.00892568015711
 30
0
  0
VERTEX
  5
A5
100
AcDbEntity
  8
s100-@dxf
  6
CONTINUOUS
 62
    7
420
    0
370
   40
100
AcDbVertex
100
AcDb2dVertex
 10
-21.87886803705769
 20
-66.53188728015708
 30
0
  0
VERTEX
  5
A6
100
AcDbEntity
  8
s100-@dxf
  6
CONTINUOUS
 62
    7
420
    0
370
   40
100
AcDbVertex
100
AcDb2dVertex
 10
-35.40182963705769
 20
-62.90842068015711
 30
0
  0
SEQEND
  5
A7
100
AcDbEntity
  8
s100-@dxf
  6
CONTINUOUS
 62
    7
420
    0
370
   40
  0
POLYLINE
  5
A8
100
AcDbEntity
  8
s100-@dxf
  6
CONTINUOUS
 62
    7
420
    0
370
   40
100
AcDb2dPolyline
 10
0
 20
0
 30
0
 70
    0
  0
VERTEX
  5
A9
100
AcDbEntity
  8
s100-@dxf
  6
CONTINUOUS
 62
    7
420
    0
370
   40
100
AcDbVertex
100
AcDb2dVertex
 10
-30.48426783705767
 20
-44.5558299801571
 30
0
  0
VERTEX
  5
AA
100
AcDbEntity
  8
s100-@dxf
  6
CONTINUOUS
 62
    7
420
    0
370
   40
100
AcDbVertex
100
AcDb2dVertex
 10
-26.86080123705767
 20
-31.0328683801571
 30
0
  0
VERTEX
  5
AB
100
AcDbEntity
  8
s100-@dxf
  6
CONTINUOUS
 62
    7
420
    0
370
   40
100
AcDbVertex
100
AcDb2dVertex
 10
-13.33783963705767
 20
-34.6563349801571
 30
0
  0
VERTEX
  5
AC
100
AcDbEntity
  8
s100-@dxf
  6
CONTINUOUS
 62
    7
420
    0
370
   40
100
AcDbVertex
100
AcDb2dVertex
 10
-16.96130623705767
 20
-48.1792965801571
 30
0
  0
VERTEX
  5
AD
100
AcDbEntity
  8
s100-@dxf
  6
CONTINUOUS
 62
    7
420
    0
370
   40
100
AcDbVertex
100
AcDb2dVertex
 10
-30.48426783705767
 20
-44.5558299801571
 30
0
  0
SEQEND
  5
AE
100
AcDbEntity
  8
s100-@dxf
  6
CONTINUOUS
 62
    7
420
    0
370
   40
  0
POLYLINE
  5
AF
100
AcDbEntity
  8
s100-@dxf
  6
CONTINUOUS
 62
    7
420
    0
370
   40
100
AcDb2dPolyline
 10
0
 20
0
 30
0
 70
    0
  0
VERTEX
  5
B0
100
AcDbEntity
  8
s100-@dxf
  6
CONTINUOUS
 62
    7
420
    0
370
   40
100
AcDbVertex
100
AcDb2dVertex
 10
-25.56670593705769
 20
-26.20323928015709
 30
0
  0
VERTEX
  5
B1
100
AcDbEntity
  8
s100-@dxf
  6
CONTINUOUS
 62
    7
420
    0
370
   40
100
AcDbVertex
100
AcDb2dVertex
 10
-21.94323933705769
 20
-12.68027768015709
 30
0
  0
VERTEX
  5
B2
100
AcDbEntity
  8
s100-@dxf
  6
CONTINUOUS
 62
    7
420
    0
370
   40
100
AcDbVertex
100
AcDb2dVertex
 10
-8.420277737057688
 20
-16.30374428015709
 30
0
  0
VERTEX
  5
B3
100
AcDbEntity
  8
s100-@dxf
  6
CONTINUOUS
 62
    7
420
    0
370
   40
100
AcDbVertex
100
AcDb2dVertex
 10
-12.04374433705769
 20
-29.82670588015709
 30
0
  0
VERTEX
  5
B4
100
AcDbEntity
  8
s100-@dxf
  6
CONTINUOUS
 62
    7
420
    0
370
   40
100
AcDbVertex
100
AcDb2dVertex
 10
-25.56670593705769
 20
-26.20323928015709
 30
0
  0
SEQEND
  5
B5
100
AcDbEntity
  8
s100-@dxf
  6
CONTINUOUS
 62
    7
420
    0
370
   40
  0
POLYLINE
  5
B6
100
AcDbEntity
  8
s100-@dxf
  6
CONTINUOUS
 62
    7
420
    0
370
   40
100
AcDb2dPolyline
 10
0
 20
0
 30
0
 70
    0
  0
VERTEX
  5
B7
100
AcDbEntity
  8
s100-@dxf
  6
CONTINUOUS
 62
    7
420
    0
370
   40
100
AcDbVertex
100
AcDb2dVertex
 10
-67.84827753705768
 20
-73.88466858015708
 30
0
  0
VERTEX
  5
B8
100
AcDbEntity
  8
s100-@dxf
  6
CONTINUOUS
 62
    7
420
    0
370
   40
100
AcDbVertex
100
AcDb2dVertex
 10
-64.22481093705768
 20
-60.36170698015708
 30
0
  0
VERTEX
  5
B9
100
AcDbEntity
  8
s100-@dxf
  6
CONTINUOUS
 62
    7
420
    0
370
   40
100
AcDbVertex
100
AcDb2dVertex
 10
-50.70184933705767
 20
-63.98517358015708
 30
0
  0
VERTEX
  5
BA
100
AcDbEntity
  8
s100-@dxf
  6
CONTINUOUS
 62
    7
420
    0
370
   40
100
AcDbVertex
100
AcDb2dVertex
 10
-54.32531593705767
 20
-77.50813518015708
 30
0
  0
VERTEX
  5
BB
100
AcDbEntity
  8
s100-@dxf
  6
CONTINUOUS
 62
    7
420
    0
370
   40
100
AcDbVertex
100
AcDb2dVertex
 10
-67.84827753705768
 20
-73.88466858015708
 30
0
  0
SEQEND
  5
BC
100
AcDbEntity
  8
s100-@dxf
  6
CONTINUOUS
 62
    7
420
    0
370
   40
  0
POLYLINE
  5
BD
100
AcDbEntity
  8
s100-@dxf
  6
CONTINUOUS
 62
    7
420
    0
370
   40
100
AcDb2dPolyline
 10
0
 20
0
 30
0
 70
    0
  0
VERTEX
  5
BE
100
AcDbEntity
  8
s100-@dxf
  6
CONTINUOUS
 62
    7
420
    0
370
   40
100
AcDbVertex
100
AcDb2dVertex
 10
-49.11970213705769
 20
-79.74464338015709
 30
0
  0
VERTEX
  5
BF
100
AcDbEntity
  8
s100-@dxf
  6
CONTINUOUS
 62
    7
420
    0
370
   40
100
AcDbVertex
100
AcDb2dVertex
 10
-41.80472223705769
 20
-67.80768108015708
 30
0
  0
VERTEX
  5
C0
100
AcDbEntity
  8
s100-@dxf
  6
CONTINUOUS
 62
    7
420
    0
370
   40
100
AcDbVertex
100
AcDb2dVertex
 10
-29.86775993705768
 20
-75.12266098015711
 30
0
  0
VERTEX
  5
C1
100
AcDbEntity
  8
s100-@dxf
  6
CONTINUOUS
 62
    7
420
    0
370
   40
100
AcDbVertex
100
AcDb2dVertex
 10
-37.18273983705768
 20
-87.05962328015708
 30
0
  0
VERTEX
  5
C2
100
AcDbEntity
  8
s100-@dxf
  6
CONTINUOUS
 62
    7
420
    0
370
   40
100
AcDbVertex
100
AcDb2dVertex
 10
-49.11970213705769
 20
-79.74464338015709
 30
0
  0
SEQEND
  5
C3
100
AcDbEntity
  8
s100-@dxf
  6
CONTINUOUS
 62
    7
420
    0
370
   40
  0
POLYLINE
  5
C4
100
AcDbEntity
  8
s100-@dxf
  6
CONTINUOUS
 62
    7
420
    0
370
   40
100
AcDb2dPolyline
 10
0
 20
0
 30
0
 70
    0
  0
VERTEX
  5
C5
100
AcDbEntity
  8
s100-@dxf
  6
CONTINUOUS
 62
    7
420
    0
370
   40
100
AcDbVertex
100
AcDb2dVertex
 10
-35.44093933705767
 20
-94.54483178015708
 30
0
  0
VERTEX
  5
C6
100
AcDbEntity
  8
s100-@dxf
  6
CONTINUOUS
 62
    7
420
    0
370
   40
100
AcDbVertex
100
AcDb2dVertex
 10
-26.16425863705769
 20
-84.0594516801571
 30
0
  0
VERTEX
  5
C7
100
AcDbEntity
  8
s100-@dxf
  6
CONTINUOUS
 62
    7
420
    0
370
   40
100
AcDbVertex
100
AcDb2dVertex
 10
-15.67887853705767
 20
-93.33613238015708
 30
0
  0
VERTEX
  5
C8
100
AcDbEntity
  8
s100-@dxf
  6
CONTINUOUS
 62
    7
420
    0
370
   40
100
AcDbVertex
100
AcDb2dVertex
 10
-24.95555923705768
 20
-103.8215124801571
 30
0
  0
VERTEX
  5
C9
100
AcDbEntity
  8
s100-@dxf
  6
CONTINUOUS
 62
    7
420
    0
370
   40
100
AcDbVertex
100
AcDb2dVertex
 10
-35.44093933705767
 20
-94.54483178015708
 30
0
  0
SEQEND
  5
CA
100
AcDbEntity
  8
s100-@dxf
  6
CONTINUOUS
 62
    7
420
    0
370
   40
  0
POLYLINE
  5
CB
100
AcDbEntity
  8
s100-@dxf
  6
CONTINUOUS
 62
    7
420
    0
370
   40
100
AcDb2dPolyline
 10
0
 20
0
 30
0
 70
    0
  0
VERTEX
  5
CC
100
AcDbEntity
  8
s100-@dxf
  6
CONTINUOUS
 62
    7
420
    0
370
   40
100
AcDbVertex
100
AcDb2dVertex
 10
158.7851613629423
 20
-30.35296808015708
 30
0
  0
VERTEX
  5
CD
100
AcDbEntity
  8
s100-@dxf
  6
CONTINUOUS
 62
    7
420
    0
370
   40
100
AcDbVertex
100
AcDb2dVertex
 10
155.1616947629423
 20
-16.83000648015708
 30
0
  0
VERTEX
  5
CE
100
AcDbEntity
  8
s100-@dxf
  6
CONTINUOUS
 62
    7
420
    0
370
   40
100
AcDbVertex
100
AcDb2dVertex
 10
168.6846563629423
 20
-13.2065398801571
 30
0
  0
VERTEX
  5
CF
100
AcDbEntity
  8
s100-@dxf
  6
CONTINUOUS
 62
    7
420
    0
370
   40
100
AcDbVertex
100
AcDb2dVertex
 10
172.3081229629423
 20
-26.72950148015708
 30
0
  0
VERTEX
  5
D0
100
AcDbEntity
  8
s100-@dxf
  6
CONTINUOUS
 62
    7
420
    0
370
   40
100
AcDbVertex
100
AcDb2dVertex
 10
158.7851613629423
 20
-30.35296808015708
 30
0
  0
SEQEND
  5
D1
100
AcDbEntity
  8
s100-@dxf
  6
CONTINUOUS
 62
    7
420
    0
370
   40
  0
POLYLINE
  5
D2
100
AcDbEntity
  8
s100-@dxf
  6
CONTINUOUS
 62
    7
420
    0
370
   40
100
AcDb2dPolyline
 10
0
 20
0
 30
0
 70
    0
  0
VERTEX
  5
D3
100
AcDbEntity
  8
s100-@dxf
  6
CONTINUOUS
 62
    7
420
    0
370
   40
100
AcDbVertex
100
AcDb2dVertex
 10
153.8675994629423
 20
-12.00037738015709
 30
0
  0
VERTEX
  5
D4
100
AcDbEntity
  8
s100-@dxf
  6
CONTINUOUS
 62
    7
420
    0
370
   40
100
AcDbVertex
100
AcDb2dVertex
 10
150.2441328629423
 20
1.522584219842912
 30
0
  0
VERTEX
  5
D5
100
AcDbEntity
  8
s100-@dxf
  6
CONTINUOUS
 62
    7
420
    0
370
   40
100
AcDbVertex
100
AcDb2dVertex
 10
163.7670944629423
 20
5.146050819842912
 30
0
  0
VERTEX
  5
D6
100
AcDbEntity
  8
s100-@dxf
  6
CONTINUOUS
 62
    7
420
    0
370
   40
100
AcDbVertex
100
AcDb2dVertex
 10
167.3905610629423
 20
-8.37691078015709
 30
0
  0
VERTEX
  5
D7
100
AcDbEntity
  8
s100-@dxf
  6
CONTINUOUS
 62
    7
420
    0
370
   40
100
AcDbVertex
100
AcDb2dVertex
 10
153.8675994629423
 20
-12.00037738015709
 30
0
  0
SEQEND
  5
D8
100
AcDbEntity
  8
s100-@dxf
  6
CONTINUOUS
 62
    7
420
    0
370
   40
  0
POLYLINE
  5
D9
100
AcDbEntity
  8
s100-@dxf
  6
CONTINUOUS
 62
    7
420
    0
370
   40
100
AcDb2dPolyline
 10
0
 20
0
 30
0
 70
    0
  0
VERTEX
  5
DA
100
AcDbEntity
  8
s100-@dxf
  6
CONTINUOUS
 62
    7
420
    0
370
   40
100
AcDbVertex
100
AcDb2dVertex
 10
145.3501324629423
 20
-53.6231206801571
 30
0
  0
VERTEX
  5
DB
100
AcDbEntity
  8
s100-@dxf
  6
CONTINUOUS
 62
    7
420
    0
370
   40
100
AcDbVertex
100
AcDb2dVertex
 10
141.7266658629423
 20
-40.1001590801571
 30
0
  0
VERTEX
  5
DC
100
AcDbEntity
  8
s100-@dxf
  6
CONTINUOUS
 62
    7
420
    0
370
   40
100
AcDbVertex
100
AcDb2dVertex
 10
155.2496274629423
 20
-36.4766924801571
 30
0
  0
VERTEX
  5
DD
100
AcDbEntity
  8
s100-@dxf
  6
CONTINUOUS
 62
    7
420
    0
370
   40
100
AcDbVertex
100
AcDb2dVertex
 10
158.8730940629423
 20
-49.9996540801571
 30
0
  0
VERTEX
  5
DE
100
AcDbEntity
  8
s100-@dxf
  6
CONTINUOUS
 62
    7
420
    0
370
   40
100
AcDbVertex
100
AcDb2dVertex
 10
145.3501324629423
 20
-53.6231206801571
 30
0
  0
SEQEND
  5
DF
100
AcDbEntity
  8
s100-@dxf
  6
CONTINUOUS
 62
    7
420
    0
370
   40
  0
POLYLINE
  5
E0
100
AcDbEntity
  8
s100-@dxf
  6
CONTINUOUS
 62
    7
420
    0
370
   40
100
AcDb2dPolyline
 10
0
 20
0
 30
0
 70
    0
  0
VERTEX
  5
E1
100
AcDbEntity
  8
s100-@dxf
  6
CONTINUOUS
 62
    7
420
    0
370
   40
100
AcDbVertex
100
AcDb2dVertex
 10
140.4325706629423
 20
-35.27052998015709
 30
0
  0
VERTEX
  5
E2
100
AcDbEntity
  8
s100-@dxf
  6
CONTINUOUS
 62
    7
420
    0
370
   40
100
AcDbVertex
100
AcDb2dVertex
 10
136.8091040629423
 20
-21.74756838015709
 30
0
  0
VERTEX
  5
E3
100
AcDbEntity
  8
s100-@dxf
  6
CONTINUOUS
 62
    7
420
    0
370
   40
100
AcDbVertex
100
AcDb2dVertex
 10
150.3320656629423
 20
-18.12410178015709
 30
0
  0
VERTEX
  5
E4
100
AcDbEntity
  8
s100-@dxf
  6
CONTINUOUS
 62
    7
420
    0
370
   40
100
AcDbVertex
100
AcDb2dVertex
 10
153.9555322629423
 20
-31.64706338015709
 30
0
  0
VERTEX
  5
E5
100
AcDbEntity
  8
s100-@dxf
  6
CONTINUOUS
 62
    7
420
    0
370
   40
100
AcDbVertex
100
AcDb2dVertex
 10
140.4325706629423
 20
-35.27052998015709
 30
0
  0
SEQEND
  5
E6
100
AcDbEntity
  8
s100-@dxf
  6
CONTINUOUS
 62
    7
420
    0
370
   40
  0
POLYLINE
  5
E7
100
AcDbEntity
  8
s100-@dxf
  6
CONTINUOUS
 62
    7
420
    0
370
   40
100
AcDb2dPolyline
 10
0
 20
0
 30
0
 70
    0
  0
VERTEX
  5
E8
100
AcDbEntity
  8
s100-@dxf
  6
CONTINUOUS
 62
    7
420
    0
370
   40
100
AcDbVertex
100
AcDb2dVertex
 10
135.5150087629423
 20
-16.91793928015709
 30
0
  0
VERTEX
  5
E9
100
AcDbEntity
  8
s100-@dxf
  6
CONTINUOUS
 62
    7
420
    0
370
   40
100
AcDbVertex
100
AcDb2dVertex
 10
131.8915421629423
 20
-3.394977680157098
 30
0
  0
VERTEX
  5
EA
100
AcDbEntity
  8
s100-@dxf
  6
CONTINUOUS
 62
    7
420
    0
370
   40
100
AcDbVertex
100
AcDb2dVertex
 10
145.4145037629423
 20
0.2284889198429028
 30
0
  0
VERTEX
  5
EB
100
AcDbEntity
  8
s100-@dxf
  6
CONTINUOUS
 62
    7
420
    0
370
   40
100
AcDbVertex
100
AcDb2dVertex
 10
149.0379703629423
 20
-13.2944726801571
 30
0
  0
VERTEX
  5
EC
100
AcDbEntity
  8
s100-@dxf
  6
CONTINUOUS
 62
    7
420
    0
370
   40
100
AcDbVertex
100
AcDb2dVertex
 10
135.5150087629423
 20
-16.91793928015709
 30
0
  0
SEQEND
  5
ED
100
AcDbEntity
  8
s100-@dxf
  6
CONTINUOUS
 62
    7
420
    0
370
   40
  0
POLYLINE
  5
EE
100
AcDbEntity
  8
s100-@dxf
  6
CONTINUOUS
 62
    7
420
    0
370
   40
100
AcDb2dPolyline
 10
0
 20
0
 30
0
 70
    0
  0
VERTEX
  5
EF
100
AcDbEntity
  8
s100-@dxf
  6
CONTINUOUS
 62
    7
420
    0
370
   40
100
AcDbVertex
100
AcDb2dVertex
 10
124.2799418629423
 20
-48.39846138015709
 30
0
  0
VERTEX
  5
F0
100
AcDbEntity
  8
s100-@dxf
  6
CONTINUOUS
 62
    7
420
    0
370
   40
100
AcDbVertex
100
AcDb2dVertex
 10
120.6564752629423
 20
-34.87549978015709
 30
0
  0
VERTEX
  5
F1
100
AcDbEntity
  8
s100-@dxf
  6
CONTINUOUS
 62
    7
420
    0
370
   40
100
AcDbVertex
100
AcDb2dVertex
 10
134.1794368629423
 20
-31.25203318015708
 30
0
  0
VERTEX
  5
F2
100
AcDbEntity
  8
s100-@dxf
  6
CONTINUOUS
 62
    7
420
    0
370
   40
100
AcDbVertex
100
AcDb2dVertex
 10
137.8029034629423
 20
-44.77499478015709
 30
0
  0
VERTEX
  5
F3
100
AcDbEntity
  8
s100-@dxf
  6
CONTINUOUS
 62
    7
420
    0
370
   40
100
AcDbVertex
100
AcDb2dVertex
 10
124.2799418629423
 20
-48.39846138015709
 30
0
  0
SEQEND
  5
F4
100
AcDbEntity
  8
s100-@dxf
  6
CONTINUOUS
 62
    7
420
    0
370
   40
  0
POLYLINE
  5
F5
100
AcDbEntity
  8
s100-@dxf
  6
CONTINUOUS
 62
    7
420
    0
370
   40
100
AcDb2dPolyline
 10
0
 20
0
 30
0
 70
    0
  0
VERTEX
  5
F6
100
AcDbEntity
  8
s100-@dxf
  6
CONTINUOUS
 62
    7
420
    0
370
   40
100
AcDbVertex
100
AcDb2dVertex
 10
119.3623799629423
 20
-30.04587068015708
 30
0
  0
VERTEX
  5
F7
100
AcDbEntity
  8
s100-@dxf
  6
CONTINUOUS
 62
    7
420
    0
370
   40
100
AcDbVertex
100
AcDb2dVertex
 10
115.7389133629423
 20
-16.52290908015709
 30
0
  0
VERTEX
  5
F8
100
AcDbEntity
  8
s100-@dxf
  6
CONTINUOUS
 62
    7
420
    0
370
   40
100
AcDbVertex
100
AcDb2dVertex
 10
129.2618749629423
 20
-12.89944248015709
 30
0
  0
VERTEX
  5
F9
100
AcDbEntity
  8
s100-@dxf
  6
CONTINUOUS
 62
    7
420
    0
370
   40
100
AcDbVertex
100
AcDb2dVertex
 10
132.8853415629423
 20
-26.42240408015708
 30
0
  0
VERTEX
  5
FA
100
AcDbEntity
  8
s100-@dxf
  6
CONTINUOUS
 62
    7
420
    0
370
   40
100
AcDbVertex
100
AcDb2dVertex
 10
119.3623799629423
 20
-30.04587068015708
 30
0
  0
SEQEND
  5
FB
100
AcDbEntity
  8
s100-@dxf
  6
CONTINUOUS
 62
    7
420
    0
370
   40
  0
POLYLINE
  5
FC
100
AcDbEntity
  8
s100-@dxf
  6
CONTINUOUS
 62
    7
420
    0
370
   40
100
AcDb2dPolyline
 10
0
 20
0
 30
0
 70
    0
  0
VERTEX
  5
FD
100
AcDbEntity
  8
s100-@dxf
  6
CONTINUOUS
 62
    7
420
    0
370
   40
100
AcDbVertex
100
AcDb2dVertex
 10
114.4448180629423
 20
-11.69327998015709
 30
0
  0
VERTEX
  5
FE
100
AcDbEntity
  8
s100-@dxf
  6
CONTINUOUS
 62
    7
420
    0
370
   40
100
AcDbVertex
100
AcDb2dVertex
 10
110.8213514629423
 20
1.829681619842901
 30
0
  0
VERTEX
  5
FF
100
AcDbEntity
  8
s100-@dxf
  6
CONTINUOUS
 62
    7
420
    0
370
   40
100
AcDbVertex
100
AcDb2dVertex
 10
124.3443130629423
 20
5.453148219842902
 30
0
  0
VERTEX
  5
100
100
AcDbEntity
  8
s100-@dxf
  6
CONTINUOUS
 62
    7
420
    0
370
   40
100
AcDbVertex
100
AcDb2dVertex
 10
127.9677796629423
 20
-8.069813380157086
 30
0
  0
VERTEX
  5
101
100
AcDbEntity
  8
s100-@dxf
  6
CONTINUOUS
 62
    7
420
    0
370
   40
100
AcDbVertex
100
AcDb2dVertex
 10
114.4448180629423
 20
-11.69327998015709
 30
0
  0
SEQEND
  5
102
100
AcDbEntity
  8
s100-@dxf
  6
CONTINUOUS
 62
    7
420
    0
370
   40
  0
POLYLINE
  5
103
100
AcDbEntity
  8
s100-@dxf
  6
CONTINUOUS
 62
    7
420
    0
370
   40
100
AcDb2dPolyline
 10
0
 20
0
 30
0
 70
    0
  0
VERTEX
  5
104
100
AcDbEntity
  8
s100-@dxf
  6
CONTINUOUS
 62
    7
420
    0
370
   40
100
AcDbVertex
100
AcDb2dVertex
 10
105.1508939629423
 20
-50.41824568015709
 30
0
  0
VERTEX
  5
105
100
AcDbEntity
  8
s100-@dxf
  6
CONTINUOUS
 62
    7
420
    0
370
   40
100
AcDbVertex
100
AcDb2dVertex
 10
101.5274273629423
 20
-36.89528408015708
 30
0
  0
VERTEX
  5
106
100
AcDbEntity
  8
s100-@dxf
  6
CONTINUOUS
 62
    7
420
    0
370
   40
100
AcDbVertex
100
AcDb2dVertex
 10
115.0503889629423
 20
-33.27181748015708
 30
0
  0
VERTEX
  5
107
100
AcDbEntity
  8
s100-@dxf
  6
CONTINUOUS
 62
    7
420
    0
370
   40
100
AcDbVertex
100
AcDb2dVertex
 10
118.6738555629424
 20
-46.79477908015708
 30
0
  0
VERTEX
  5
108
100
AcDbEntity
  8
s100-@dxf
  6
CONTINUOUS
 62
    7
420
    0
370
   40
100
AcDbVertex
100
AcDb2dVertex
 10
105.1508939629423
 20
-50.41824568015709
 30
0
  0
SEQEND
  5
109
100
AcDbEntity
  8
s100-@dxf
  6
CONTINUOUS
 62
    7
420
    0
370
   40
  0
POLYLINE
  5
10A
100
AcDbEntity
  8
s100-@dxf
  6
CONTINUOUS
 62
    7
420
    0
370
   40
100
AcDb2dPolyline
 10
0
 20
0
 30
0
 70
    0
  0
VERTEX
  5
10B
100
AcDbEntity
  8
s100-@dxf
  6
CONTINUOUS
 62
    7
420
    0
370
   40
100
AcDbVertex
100
AcDb2dVertex
 10
100.2333321629423
 20
-32.06565498015711
 30
0
  0
VERTEX
  5
10C
100
AcDbEntity
  8
s100-@dxf
  6
CONTINUOUS
 62
    7
420
    0
370
   40
100
AcDbVertex
100
AcDb2dVertex
 10
96.6098655629423
 20
-18.5426933801571
 30
0
  0
VERTEX
  5
10D
100
AcDbEntity
  8
s100-@dxf
  6
CONTINUOUS
 62
    7
420
    0
370
   40
100
AcDbVertex
100
AcDb2dVertex
 10
110.1328271629423
 20
-14.91922678015709
 30
0
  0
VERTEX
  5
10E
100
AcDbEntity
  8
s100-@dxf
  6
CONTINUOUS
 62
    7
420
    0
370
   40
100
AcDbVertex
100
AcDb2dVertex
 10
113.7562937629423
 20
-28.44218838015711
 30
0
  0
VERTEX
  5
10F
100
AcDbEntity
  8
s100-@dxf
  6
CONTINUOUS
 62
    7
420
    0
370
   40
100
AcDbVertex
100
AcDb2dVertex
 10
100.2333321629423
 20
-32.06565498015711
 30
0
  0
SEQEND
  5
110
100
AcDbEntity
  8
s100-@dxf
  6
CONTINUOUS
 62
    7
420
    0
370
   40
  0
POLYLINE
  5
111
100
AcDbEntity
  8
s100-@dxf
  6
CONTINUOUS
 62
    7
420
    0
370
   40
100
AcDb2dPolyline
 10
0
 20
0
 30
0
 70
    0
  0
VERTEX
  5
112
100
AcDbEntity
  8
s100-@dxf
  6
CONTINUOUS
 62
    7
420
    0
370
   40
100
AcDbVertex
100
AcDb2dVertex
 10
95.31577026294232
 20
-13.7130642801571
 30
0
  0
VERTEX
  5
113
100
AcDbEntity
  8
s100-@dxf
  6
CONTINUOUS
 62
    7
420
    0
370
   40
100
AcDbVertex
100
AcDb2dVertex
 10
91.69230366294235
 20
-0.1901026801570964
 30
0
  0
VERTEX
  5
114
100
AcDbEntity
  8
s100-@dxf
  6
CONTINUOUS
 62
    7
420
    0
370
   40
100
AcDbVertex
100
AcDb2dVertex
 10
105.2152652629423
 20
3.433363919842904
 30
0
  0
VERTEX
  5
115
100
AcDbEntity
  8
s100-@dxf
  6
CONTINUOUS
 62
    7
420
    0
370
   40
100
AcDbVertex
100
AcDb2dVertex
 10
108.8387318629423
 20
-10.0895976801571
 30
0
  0
VERTEX
  5
116
100
AcDbEntity
  8
s100-@dxf
  6
CONTINUOUS
 62
    7
420
    0
370
   40
100
AcDbVertex
100
AcDb2dVertex
 10
95.31577026294232
 20
-13.7130642801571
 30
0
  0
SEQEND
  5
117
100
AcDbEntity
  8
s100-@dxf
  6
CONTINUOUS
 62
    7
420
    0
370
   40
  0
POLYLINE
  5
118
100
AcDbEntity
  8
s100-@dxf
  6
CONTINUOUS
 62
    7
420
    0
370
   40
100
AcDb2dPolyline
 10
0
 20
0
 30
0
 70
    0
  0
VERTEX
  5
119
100
AcDbEntity
  8
s100-@dxf
  6
CONTINUOUS
 62
    7
420
    0
370
   40
100
AcDbVertex
100
AcDb2dVertex
 10
88.09239856294235
 20
-60.1654366801571
 30
0
  0
VERTEX
  5
11A
100
AcDbEntity
  8
s100-@dxf
  6
CONTINUOUS
 62
    7
420
    0
370
   40
100
AcDbVertex
100
AcDb2dVertex
 10
84.46893196294232
 20
-46.6424750801571
 30
0
  0
VERTEX
  5
11B
100
AcDbEntity
  8
s100-@dxf
  6
CONTINUOUS
 62
    7
420
    0
370
   40
100
AcDbVertex
100
AcDb2dVertex
 10
97.99189356294235
 20
-43.0190084801571
 30
0
  0
VERTEX
  5
11C
100
AcDbEntity
  8
s100-@dxf
  6
CONTINUOUS
 62
    7
420
    0
370
   40
100
AcDbVertex
100
AcDb2dVertex
 10
101.6153601629423
 20
-56.5419700801571
 30
0
  0
VERTEX
  5
11D
100
AcDbEntity
  8
s100-@dxf
  6
CONTINUOUS
 62
    7
420
    0
370
   40
100
AcDbVertex
100
AcDb2dVertex
 10
88.09239856294235
 20
-60.1654366801571
 30
0
  0
SEQEND
  5
11E
100
AcDbEntity
  8
s100-@dxf
  6
CONTINUOUS
 62
    7
420
    0
370
   40
  0
POLYLINE
  5
11F
100
AcDbEntity
  8
s100-@dxf
  6
CONTINUOUS
 62
    7
420
    0
370
   40
100
AcDb2dPolyline
 10
0
 20
0
 30
0
 70
    0
  0
VERTEX
  5
120
100
AcDbEntity
  8
s100-@dxf
  6
CONTINUOUS
 62
    7
420
    0
370
   40
100
AcDbVertex
100
AcDb2dVertex
 10
83.17483666294234
 20
-41.81284598015709
 30
0
  0
VERTEX
  5
121
100
AcDbEntity
  8
s100-@dxf
  6
CONTINUOUS
 62
    7
420
    0
370
   40
100
AcDbVertex
100
AcDb2dVertex
 10
79.55137006294231
 20
-28.28988438015709
 30
0
  0
VERTEX
  5
122
100
AcDbEntity
  8
s100-@dxf
  6
CONTINUOUS
 62
    7
420
    0
370
   40
100
AcDbVertex
100
AcDb2dVertex
 10
93.07433166294234
 20
-24.66641778015709
 30
0
  0
VERTEX
  5
123
100
AcDbEntity
  8
s100-@dxf
  6
CONTINUOUS
 62
    7
420
    0
370
   40
100
AcDbVertex
100
AcDb2dVertex
 10
96.69779826294231
 20
-38.18937938015709
 30
0
  0
VERTEX
  5
124
100
AcDbEntity
  8
s100-@dxf
  6
CONTINUOUS
 62
    7
420
    0
370
   40
100
AcDbVertex
100
AcDb2dVertex
 10
83.17483666294234
 20
-41.81284598015709
 30
0
  0
SEQEND
  5
125
100
AcDbEntity
  8
s100-@dxf
  6
CONTINUOUS
 62
    7
420
    0
370
   40
  0
POLYLINE
  5
126
100
AcDbEntity
  8
s100-@dxf
  6
CONTINUOUS
 62
    7
420
    0
370
   40
100
AcDb2dPolyline
 10
0
 20
0
 30
0
 70
    0
  0
VERTEX
  5
127
100
AcDbEntity
  8
s100-@dxf
  6
CONTINUOUS
 62
    7
420
    0
370
   40
100
AcDbVertex
100
AcDb2dVertex
 10
78.25727476294233
 20
-23.46025528015709
 30
0
  0
VERTEX
  5
128
100
AcDbEntity
  8
s100-@dxf
  6
CONTINUOUS
 62
    7
420
    0
370
   40
100
AcDbVertex
100
AcDb2dVertex
 10
74.6338081629423
 20
-9.937293680157097
 30
0
  0
VERTEX
  5
129
100
AcDbEntity
  8
s100-@dxf
  6
CONTINUOUS
 62
    7
420
    0
370
   40
100
AcDbVertex
100
AcDb2dVertex
 10
88.15676976294233
 20
-6.313827080157097
 30
0
  0
VERTEX
  5
12A
100
AcDbEntity
  8
s100-@dxf
  6
CONTINUOUS
 62
    7
420
    0
370
   40
100
AcDbVertex
100
AcDb2dVertex
 10
91.7802363629423
 20
-19.83678868015708
 30
0
  0
VERTEX
  5
12B
100
AcDbEntity
  8
s100-@dxf
  6
CONTINUOUS
 62
    7
420
    0
370
   40
100
AcDbVertex
100
AcDb2dVertex
 10
78.25727476294233
 20
-23.46025528015709
 30
0
  0
SEQEND
  5
12C
100
AcDbEntity
  8
s100-@dxf
  6
CONTINUOUS
 62
    7
420
    0
370
   40
  0
POLYLINE
  5
12D
100
AcDbEntity
  8
s100-@dxf
  6
CONTINUOUS
 62
    7
420
    0
370
   40
100
AcDb2dPolyline
 10
0
 20
0
 30
0
 70
    0
  0
VERTEX
  5
12E
100
AcDbEntity
  8
s100-@dxf
  6
CONTINUOUS
 62
    7
420
    0
370
   40
100
AcDbVertex
100
AcDb2dVertex
 10
70.12803636294231
 20
-66.53188728015708
 30
0
  0
VERTEX
  5
12F
100
AcDbEntity
  8
s100-@dxf
  6
CONTINUOUS
 62
    7
420
    0
370
   40
100
AcDbVertex
100
AcDb2dVertex
 10
66.50456976294231
 20
-53.00892568015711
 30
0
  0
VERTEX
  5
130
100
AcDbEntity
  8
s100-@dxf
  6
CONTINUOUS
 62
    7
420
    0
370
   40
100
AcDbVertex
100
AcDb2dVertex
 10
80.02753136294231
 20
-49.3854590801571
 30
0
  0
VERTEX
  5
131
100
AcDbEntity
  8
s100-@dxf
  6
CONTINUOUS
 62
    7
420
    0
370
   40
100
AcDbVertex
100
AcDb2dVertex
 10
83.65099796294234
 20
-62.90842068015711
 30
0
  0
VERTEX
  5
132
100
AcDbEntity
  8
s100-@dxf
  6
CONTINUOUS
 62
    7
420
    0
370
   40
100
AcDbVertex
100
AcDb2dVertex
 10
70.12803636294231
 20
-66.53188728015708
 30
0
  0
SEQEND
  5
133
100
AcDbEntity
  8
s100-@dxf
  6
CONTINUOUS
 62
    7
420
    0
370
   40
  0
POLYLINE
  5
134
100
AcDbEntity
  8
s100-@dxf
  6
CONTINUOUS
 62
    7
420
    0
370
   40
100
AcDb2dPolyline
 10
0
 20
0
 30
0
 70
    0
  0
VERTEX
  5
135
100
AcDbEntity
  8
s100-@dxf
  6
CONTINUOUS
 62
    7
420
    0
370
   40
100
AcDbVertex
100
AcDb2dVertex
 10
65.21047456294232
 20
-48.1792965801571
 30
0
  0
VERTEX
  5
136
100
AcDbEntity
  8
s100-@dxf
  6
CONTINUOUS
 62
    7
420
    0
370
   40
100
AcDbVertex
100
AcDb2dVertex
 10
61.58700796294232
 20
-34.6563349801571
 30
0
  0
VERTEX
  5
137
100
AcDbEntity
  8
s100-@dxf
  6
CONTINUOUS
 62
    7
420
    0
370
   40
100
AcDbVertex
100
AcDb2dVertex
 10
75.10996956294233
 20
-31.0328683801571
 30
0
  0
VERTEX
  5
138
100
AcDbEntity
  8
s100-@dxf
  6
CONTINUOUS
 62
    7
420
    0
370
   40
100
AcDbVertex
100
AcDb2dVertex
 10
78.7334361629423
 20
-44.5558299801571
 30
0
  0
VERTEX
  5
139
100
AcDbEntity
  8
s100-@dxf
  6
CONTINUOUS
 62
    7
420
    0
370
   40
100
AcDbVertex
100
AcDb2dVertex
 10
65.21047456294232
 20
-48.1792965801571
 30
0
  0
SEQEND
  5
13A
100
AcDbEntity
  8
s100-@dxf
  6
CONTINUOUS
 62
    7
420
    0
370
   40
  0
POLYLINE
  5
13B
100
AcDbEntity
  8
s100-@dxf
  6
CONTINUOUS
 62
    7
420
    0
370
   40
100
AcDb2dPolyline
 10
0
 20
0
 30
0
 70
    0
  0
VERTEX
  5
13C
100
AcDbEntity
  8
s100-@dxf
  6
CONTINUOUS
 62
    7
420
    0
370
   40
100
AcDbVertex
100
AcDb2dVertex
 10
60.29291266294231
 20
-29.82670588015709
 30
0
  0
VERTEX
  5
13D
100
AcDbEntity
  8
s100-@dxf
  6
CONTINUOUS
 62
    7
420
    0
370
   40
100
AcDbVertex
100
AcDb2dVertex
 10
56.66944606294231
 20
-16.30374428015709
 30
0
  0
VERTEX
  5
13E
100
AcDbEntity
  8
s100-@dxf
  6
CONTINUOUS
 62
    7
420
    0
370
   40
100
AcDbVertex
100
AcDb2dVertex
 10
70.19240766294232
 20
-12.68027768015709
 30
0
  0
VERTEX
  5
13F
100
AcDbEntity
  8
s100-@dxf
  6
CONTINUOUS
 62
    7
420
    0
370
   40
100
AcDbVertex
100
AcDb2dVertex
 10
73.81587426294234
 20
-26.20323928015709
 30
0
  0
VERTEX
  5
140
100
AcDbEntity
  8
s100-@dxf
  6
CONTINUOUS
 62
    7
420
    0
370
   40
100
AcDbVertex
100
AcDb2dVertex
 10
60.29291266294231
 20
-29.82670588015709
 30
0
  0
SEQEND
  5
141
100
AcDbEntity
  8
s100-@dxf
  6
CONTINUOUS
 62
    7
420
    0
370
   40
  0
POLYLINE
  5
142
100
AcDbEntity
  8
s100-@dxf
  6
CONTINUOUS
 62
    7
420
    0
370
   40
100
AcDb2dPolyline
 10
0
 20
0
 30
0
 70
    0
  0
VERTEX
  5
143
100
AcDbEntity
  8
s100-@dxf
  6
CONTINUOUS
 62
    7
420
    0
370
   40
100
AcDbVertex
100
AcDb2dVertex
 10
102.5744842629423
 20
-77.50813518015708
 30
0
  0
VERTEX
  5
144
100
AcDbEntity
  8
s100-@dxf
  6
CONTINUOUS
 62
    7
420
    0
370
   40
100
AcDbVertex
100
AcDb2dVertex
 10
98.95101766294235
 20
-63.98517358015708
 30
0
  0
VERTEX
  5
145
100
AcDbEntity
  8
s100-@dxf
  6
CONTINUOUS
 62
    7
420
    0
370
   40
100
AcDbVertex
100
AcDb2dVertex
 10
112.4739792629423
 20
-60.36170698015708
 30
0
  0
VERTEX
  5
146
100
AcDbEntity
  8
s100-@dxf
  6
CONTINUOUS
 62
    7
420
    0
370
   40
100
AcDbVertex
100
AcDb2dVertex
 10
116.0974458629424
 20
-73.88466858015708
 30
0
  0
VERTEX
  5
147
100
AcDbEntity
  8
s100-@dxf
  6
CONTINUOUS
 62
    7
420
    0
370
   40
100
AcDbVertex
100
AcDb2dVertex
 10
102.5744842629423
 20
-77.50813518015708
 30
0
  0
SEQEND
  5
148
100
AcDbEntity
  8
s100-@dxf
  6
CONTINUOUS
 62
    7
420
    0
370
   40
  0
POLYLINE
  5
149
100
AcDbEntity
  8
s100-@dxf
  6
CONTINUOUS
 62
    7
420
    0
370
   40
100
AcDb2dPolyline
 10
0
 20
0
 30
0
 70
    0
  0
VERTEX
  5
14A
100
AcDbEntity
  8
s100-@dxf
  6
CONTINUOUS
 62
    7
420
    0
370
   40
100
AcDbVertex
100
AcDb2dVertex
 10
85.43190816294234
 20
-87.05962328015708
 30
0
  0
VERTEX
  5
14B
100
AcDbEntity
  8
s100-@dxf
  6
CONTINUOUS
 62
    7
420
    0
370
   40
100
AcDbVertex
100
AcDb2dVertex
 10
78.11692826294231
 20
-75.12266098015711
 30
0
  0
VERTEX
  5
14C
100
AcDbEntity
  8
s100-@dxf
  6
CONTINUOUS
 62
    7
420
    0
370
   40
100
AcDbVertex
100
AcDb2dVertex
 10
90.05389056294231
 20
-67.80768108015708
 30
0
  0
VERTEX
  5
14D
100
AcDbEntity
  8
s100-@dxf
  6
CONTINUOUS
 62
    7
420
    0
370
   40
100
AcDbVertex
100
AcDb2dVertex
 10
97.36887046294234
 20
-79.74464338015709
 30
0
  0
VERTEX
  5
14E
100
AcDbEntity
  8
s100-@dxf
  6
CONTINUOUS
 62
    7
420
    0
370
   40
100
AcDbVertex
100
AcDb2dVertex
 10
85.43190816294234
 20
-87.05962328015708
 30
0
  0
SEQEND
  5
14F
100
AcDbEntity
  8
s100-@dxf
  6
CONTINUOUS
 62
    7
420
    0
370
   40
  0
POLYLINE
  5
150
100
AcDbEntity
  8
s100-@dxf
  6
CONTINUOUS
 62
    7
420
    0
370
   40
100
AcDb2dPolyline
 10
0
 20
0
 30
0
 70
    0
  0
VERTEX
  5
151
100
AcDbEntity
  8
s100-@dxf
  6
CONTINUOUS
 62
    7
420
    0
370
   40
100
AcDbVertex
100
AcDb2dVertex
 10
73.20472756294234
 20
-103.8215124801571
 30
0
  0
VERTEX
  5
152
100
AcDbEntity
  8
s100-@dxf
  6
CONTINUOUS
 62
    7
420
    0
370
   40
100
AcDbVertex
100
AcDb2dVertex
 10
63.92804686294232
 20
-93.33613238015708
 30
0
  0
VERTEX
  5
153
100
AcDbEntity
  8
s100-@dxf
  6
CONTINUOUS
 62
    7
420
    0
370
   40
100
AcDbVertex
100
AcDb2dVertex
 10
74.41342696294234
 20
-84.0594516801571
 30
0
  0
VERTEX
  5
154
100
AcDbEntity
  8
s100-@dxf
  6
CONTINUOUS
 62
    7
420
    0
370
   40
100
AcDbVertex
100
AcDb2dVertex
 10
83.69010766294232
 20
-94.54483178015708
 30
0
  0
VERTEX
  5
155
100
AcDbEntity
  8
s100-@dxf
  6
CONTINUOUS
 62
    7
420
    0
370
   40
100
AcDbVertex
100
AcDb2dVertex
 10
73.20472756294234
 20
-103.8215124801571
 30
0
  0
SEQEND
  5
156
100
AcDbEntity
  8
s100-@dxf
  6
CONTINUOUS
 62
    7
420
    0
370
   40
  0
LINE
  5
157
100
AcDbEntity
  8
s001-#def-active-grp
  6
CONTINUOUS
 62
    7
420
    0
370
   40
100
AcDbLine
 10
-118.1475934485791
 20
14.65051542265226
 11
-129.9238598717468
 21
-29.29910967720845
  0
LINE
  5
158
100
AcDbEntity
  8
s001-#def-active-grp
  6
CONTINUOUS
 62
    7
420
    0
370
   40
100
AcDbLine
 10
-115.7817241804201
 20
-53.79400706601378
 11
-75.69580249006306
 21
-64.5349972922394
  0
LINE
  5
159
100
AcDbEntity
  8
s001-#def-active-grp
  6
CONTINUOUS
 62
    7
420
    0
370
   40
100
AcDbLine
 10
-72.16026856723137
 20
-70.65872163944071
 11
-73.3249542781666
 21
-75.00538793548053
  0
LINE
  5
15A
100
AcDbEntity
  8
s001-#def-active-grp
  6
CONTINUOUS
 62
    7
420
    0
370
   40
100
AcDbLine
 10
-71.55718731675076
 20
-78.06725010908117
 11
-66.72755818173424
 21
-79.361345321266
  0
LINE
  5
15B
100
AcDbEntity
  8
s001-#def-active-grp
  6
CONTINUOUS
 62
    7
420
    0
370
   40
100
AcDbLine
 10
-60.16716417203648
 20
-81.96210085317999
 11
-55.76271047882393
 21
-84.3286991850366
  0
LINE
  5
15C
100
AcDbEntity
  8
s001-#def-active-grp
  6
CONTINUOUS
 62
    7
420
    0
370
   40
100
AcDbLine
 10
-49.97305321447311
 20
-88.36386555838594
 11
-26.3962701810928
 21
-109.2228412033268
  0
LINE
  5
15D
100
AcDbEntity
  8
s001-#def-active-grp
  6
CONTINUOUS
 62
    7
420
    0
370
   40
100
AcDbLine
 10
-22.86733075838399
 20
-109.0070020251139
 11
5.858919965707315
 21
-76.53788215015713
  0
LINE
  5
15E
100
AcDbEntity
  8
s001-#def-active-grp
  6
CONTINUOUS
 62
    7
420
    0
370
   40
100
AcDbLine
 10
9.624584162942341
 20
-66.59858141666926
 11
9.624584162942341
 21
-51.87390448817634
  0
LINE
  5
15F
100
AcDbEntity
  8
s001-#def-active-grp
  6
CONTINUOUS
 62
    7
420
    0
370
   40
100
AcDbLine
 10
12.12458416294234
 20
-49.37390448817634
 11
36.12458416294234
 21
-49.37390448817634
  0
LINE
  5
160
100
AcDbEntity
  8
s001-#def-active-grp
  6
CONTINUOUS
 62
    7
420
    0
370
   40
100
AcDbLine
 10
38.62458416294234
 20
-51.87390448817634
 11
38.62458416294234
 21
-66.59858141666926
  0
LINE
  5
161
100
AcDbEntity
  8
s001-#def-active-grp
  6
CONTINUOUS
 62
    7
420
    0
370
   40
100
AcDbLine
 10
42.39024836017731
 20
-76.5378821501571
 11
71.11649908426864
 21
-109.0070020251139
  0
LINE
  5
162
100
AcDbEntity
  8
s001-#def-active-grp
  6
CONTINUOUS
 62
    7
420
    0
370
   40
100
AcDbLine
 10
74.64543850697746
 20
-109.2228412033268
 11
98.22222154035776
 21
-88.36386555838594
  0
LINE
  5
163
100
AcDbEntity
  8
s001-#def-active-grp
  6
CONTINUOUS
 62
    7
420
    0
370
   40
100
AcDbLine
 10
104.0118788047087
 20
-84.32869918503651
 11
108.4163324979213
 21
-81.96210085317993
  0
LINE
  5
164
100
AcDbEntity
  8
s001-#def-active-grp
  6
CONTINUOUS
 62
    7
420
    0
370
   40
100
AcDbLine
 10
114.9767265076189
 20
-79.361345321266
 11
119.8063556426354
 21
-78.06725010908117
  0
LINE
  5
165
100
AcDbEntity
  8
s001-#def-active-grp
  6
CONTINUOUS
 62
    7
420
    0
370
   40
100
AcDbLine
 10
121.5741226040513
 20
-75.0053879354805
 11
120.4094368931161
 21
-70.65872163944071
  0
LINE
  5
166
100
AcDbEntity
  8
s001-#def-active-grp
  6
CONTINUOUS
 62
    7
420
    0
370
   40
100
AcDbLine
 10
123.9449708159478
 20
-64.5349972922394
 11
164.0308925969915
 21
-53.79400704171432
  0
LINE
  5
167
100
AcDbEntity
  8
s001-#def-active-grp
  6
CONTINUOUS
 62
    7
420
    0
370
   40
100
AcDbLine
 10
178.1730282883183
 20
-29.29910965290897
 11
166.3967618651505
 21
14.65051544695173
  0
LINE
  5
168
100
AcDbEntity
  8
s001-#def-active-grp
  6
CONTINUOUS
 62
    7
420
    0
370
   40
100
AcDbLine
 10
154.1493131707478
 20
21.72158329261509
 11
40.00686979949685
 21
-8.862791893225847
  0
LINE
  5
169
100
AcDbEntity
  8
s001-#def-active-grp
  6
CONTINUOUS
 62
    7
420
    0
370
   40
100
AcDbLine
 10
36.12458416294237
 20
-9.373904488176322
 11
12.12458416294237
 21
-9.373904488176322
  0
LINE
  5
16A
100
AcDbEntity
  8
s001-#def-active-grp
  6
CONTINUOUS
 62
    7
420
    0
370
   40
100
AcDbLine
 10
8.242298526387913
 20
-8.862791893225847
 11
-105.9001447541764
 21
21.72158326831564
  0
ARC
  5
16B
100
AcDbEntity
  8
s001-#def-active-grp
  6
CONTINUOUS
 62
    7
420
    0
370
   40
100
AcDbCircle
 10
-108.4883351785461
 20
12.06232499828262
 40
10
100
AcDbArc
 50
75.0000001581127
 51
165.0000001581127
  0
ARC
  5
16C
100
AcDbEntity
  8
s001-#def-active-grp
  6
CONTINUOUS
 62
    7
420
    0
370
   40
100
AcDbCircle
 10
-110.6053433316808
 20
-34.47549052594773
 40
19.99999999999997
100
AcDbArc
 50
165.0000001581127
 51
-104.9999998418873
  0
ARC
  5
16D
100
AcDbEntity
  8
s001-#def-active-grp
  6
CONTINUOUS
 62
    7
420
    0
370
   40
100
AcDbCircle
 10
-76.98989770224789
 20
-69.3646264272559
 40
4.999999999999996
100
AcDbArc
 50
-14.9999998418872
 51
75.0000001581126
  0
ARC
  5
16E
100
AcDbEntity
  8
s001-#def-active-grp
  6
CONTINUOUS
 62
    7
420
    0
370
   40
100
AcDbCircle
 10
-70.91013971065833
 20
-75.65243554157293
 40
2.500000000000015
100
AcDbArc
 50
165.000000158113
 51
-104.9999998418878
  0
ARC
  5
16F
100
AcDbEntity
  8
s001-#def-active-grp
  6
CONTINUOUS
 62
    7
420
    0
370
   40
100
AcDbCircle
 10
-74.64340879538473
 20
-108.9037023226336
 40
30.58449849407188
100
AcDbArc
 50
61.75000005291399
 51
75.00000015811264
  0
ARC
  5
170
100
AcDbEntity
  8
s001-#def-active-grp
  6
CONTINUOUS
 62
    7
420
    0
370
   40
100
AcDbCircle
 10
-70.23895510217159
 20
-111.2703006544893
 40
30.58449849407072
100
AcDbArc
 50
48.49999994771495
 51
61.75000005291409
  0
ARC
  5
171
100
AcDbEntity
  8
s001-#def-active-grp
  6
CONTINUOUS
 62
    7
420
    0
370
   40
100
AcDbCircle
 10
-24.73972005884482
 20
-107.3504519028659
 40
2.500000000000004
100
AcDbArc
 50
-131.5000000522847
 51
-41.50000005228475
  0
ARC
  5
172
100
AcDbEntity
  8
s001-#def-active-grp
  6
CONTINUOUS
 62
    7
420
    0
370
   40
100
AcDbCircle
 10
-5.375415837057627
 20
-66.59858141666926
 40
14.99999999999996
100
AcDbArc
 50
-41.50000005228497
 51
0
  0
ARC
  5
173
100
AcDbEntity
  8
s001-#def-active-grp
  6
CONTINUOUS
 62
    7
420
    0
370
   40
100
AcDbCircle
 10
12.12458416294234
 20
-51.87390448817634
 40
2.5
100
AcDbArc
 50
90
 51
180
  0
ARC
  5
174
100
AcDbEntity
  8
s001-#def-active-grp
  6
CONTINUOUS
 62
    7
420
    0
370
   40
100
AcDbCircle
 10
36.12458416294234
 20
-51.87390448817634
 40
2.5
100
AcDbArc
 50
0
 51
90
  0
ARC
  5
175
100
AcDbEntity
  8
s001-#def-active-grp
  6
CONTINUOUS
 62
    7
420
    0
370
   40
100
AcDbCircle
 10
53.62458416294231
 20
-66.59858141666926
 40
14.99999999999996
100
AcDbArc
 50
180
 51
-138.4999999477153
  0
ARC
  5
176
100
AcDbEntity
  8
s001-#def-active-grp
  6
CONTINUOUS
 62
    7
420
    0
370
   40
100
AcDbCircle
 10
72.98888838472948
 20
-107.3504519028659
 40
2.499999999999995
100
AcDbArc
 50
-138.4999999477155
 51
-48.49999994771547
  0
ARC
  5
177
100
AcDbEntity
  8
s001-#def-active-grp
  6
CONTINUOUS
 62
    7
420
    0
370
   40
100
AcDbCircle
 10
118.4881234280558
 20
-111.2703006544886
 40
30.58449849406992
100
AcDbArc
 50
118.2499999470854
 51
131.5000000522853
  0
ARC
  5
178
100
AcDbEntity
  8
s001-#def-active-grp
  6
CONTINUOUS
 62
    7
420
    0
370
   40
100
AcDbCircle
 10
122.8925771212692
 20
-108.9037023226331
 40
30.58449849407129
100
AcDbArc
 50
104.9999998418873
 51
118.2499999470859
  0
ARC
  5
179
100
AcDbEntity
  8
s001-#def-active-grp
  6
CONTINUOUS
 62
    7
420
    0
370
   40
100
AcDbCircle
 10
119.159308036543
 20
-75.65243554157293
 40
2.499999999999984
100
AcDbArc
 50
-75.0000001581132
 51
14.99999984188767
  0
ARC
  5
17A
100
AcDbEntity
  8
s001-#def-active-grp
  6
CONTINUOUS
 62
    7
420
    0
370
   40
100
AcDbCircle
 10
125.2390660281326
 20
-69.3646264272559
 40
4.999999999999978
100
AcDbArc
 50
104.9999998418871
 51
-165.0000001581127
  0
ARC
  5
17B
100
AcDbEntity
  8
s001-#def-active-grp
  6
CONTINUOUS
 62
    7
420
    0
370
   40
100
AcDbCircle
 10
158.8545117482522
 20
-34.47549050164832
 40
19.99999999999997
100
AcDbArc
 50
-75.00000015811258
 51
14.99999984188748
  0
ARC
  5
17C
100
AcDbEntity
  8
s001-#def-active-grp
  6
CONTINUOUS
 62
    7
420
    0
370
   40
100
AcDbCircle
 10
156.7375035951174
 20
12.06232502258207
 40
10.00000000000002
100
AcDbArc
 50
14.99999984188736
 51
104.9999998418874
  0
ARC
  5
17D
100
AcDbEntity
  8
s001-#def-active-grp
  6
CONTINUOUS
 62
    7
420
    0
370
   40
100
AcDbCircle
 10
36.12458416294237
 20
5.626095511823722
 40
15.00000000000004
100
AcDbArc
 50
-90
 51
-75.00000015811266
  0
ARC
  5
17E
100
AcDbEntity
  8
s001-#def-active-grp
  6
CONTINUOUS
 62
    7
420
    0
370
   40
100
AcDbCircle
 10
12.12458416294237
 20
5.626095511823591
 40
14.9999999999999
100
AcDbArc
 50
-104.9999998418874
 51
-90
  0
ENDSEC
  0
SECTION
  2
OBJECTS
  0
DICTIONARY
  5
C
330
0
100
AcDbDictionary
281
    1
  3
ACAD_GROUP
350
D
  0
DICTIONARY
  5
D
330
C
100
AcDbDictionary
281
    1
  0
ENDSEC
  0
EOF
