999
"DXF R12 Output" (www.mydxf.blogspot.com)
 0 
SECTION
 2 
HEADER
 9 
$ACADVER
 1 
AC1009
 9 
$EXTMIN
 10 
 0 
 20 
 0 
 9 
$EXTMAX
 10 
 8.5 
 20 
 11 
 0 
ENDSEC
 0 
SECTION
 2 
ENTITIES
0
LINE
8
Layer 1
10
0.793749
20
297.793749
11
-0.793749
21
296.206251
0
LINE
8
Layer 1
10
0.000000
20
298.322915
11
0.000000
21
295.677085
0
LINE
8
Layer 1
10
2.116664
20
295.941668
11
1.058332
21
294.883336
0
LINE
8
Layer 1
10
1.587498
20
296.470834
11
0.529166
21
295.412502
0
LINE
8
Layer 1
10
1.058332
20
297.000000
11
0.000000
21
295.941668
0
LINE
8
s100-@dxf
10
-124.058798
20
-26.729094
11
-120.435336
21
-13.206149
0
LINE
8
s100-@dxf
10
-120.435336
20
-13.206149
11
-106.912392
21
-16.829611
0
LINE
8
s100-@dxf
10
-106.912392
20
-16.829611
11
-110.535854
21
-30.352556
0
LINE
8
s100-@dxf
10
-110.535854
20
-30.352556
11
-124.058798
21
-26.729094
0
LINE
8
s100-@dxf
10
-119.141243
20
-8.376526
11
-115.517780
21
5.146419
0
LINE
8
s100-@dxf
10
-115.517780
20
5.146419
11
-101.994836
21
1.522956
0
LINE
8
s100-@dxf
10
-101.994836
20
1.522956
11
-105.618298
21
-11.999988
0
LINE
8
s100-@dxf
10
-105.618298
20
-11.999988
11
-119.141243
21
-8.376526
0
LINE
8
s100-@dxf
10
-110.623786
20
-49.999217
11
-107.000324
21
-36.476272
0
LINE
8
s100-@dxf
10
-107.000324
20
-36.476272
11
-93.477380
21
-40.099734
0
LINE
8
s100-@dxf
10
-93.477380
20
-40.099734
11
-97.100842
21
-53.622679
0
LINE
8
s100-@dxf
10
-97.100842
20
-53.622679
11
-110.623786
21
-49.999217
0
LINE
8
s100-@dxf
10
-105.706231
20
-31.646649
11
-102.082769
21
-18.123705
0
LINE
8
s100-@dxf
10
-102.082769
20
-18.123705
11
-88.559824
21
-21.747167
0
LINE
8
s100-@dxf
10
-88.559824
20
-21.747167
11
-92.183286
21
-35.270111
0
LINE
8
s100-@dxf
10
-92.183286
20
-35.270111
11
-105.706231
21
-31.646649
0
LINE
8
s100-@dxf
10
-100.788675
20
-13.294082
11
-97.165213
21
0.228863
0
LINE
8
s100-@dxf
10
-97.165213
20
0.228863
11
-83.642268
21
-3.394599
0
LINE
8
s100-@dxf
10
-83.642268
20
-3.394599
11
-87.265731
21
-16.917544
0
LINE
8
s100-@dxf
10
-87.265731
20
-16.917544
11
-100.788675
21
-13.294082
0
LINE
8
s100-@dxf
10
-89.553622
20
-44.774564
11
-85.930160
21
-31.251620
0
LINE
8
s100-@dxf
10
-85.930160
20
-31.251620
11
-72.407216
21
-34.875082
0
LINE
8
s100-@dxf
10
-72.407216
20
-34.875082
11
-76.030678
21
-48.398026
0
LINE
8
s100-@dxf
10
-76.030678
20
-48.398026
11
-89.553622
21
-44.774564
0
LINE
8
s100-@dxf
10
-84.636067
20
-26.421997
11
-81.012604
21
-12.899052
0
LINE
8
s100-@dxf
10
-81.012604
20
-12.899052
11
-67.489660
21
-16.522514
0
LINE
8
s100-@dxf
10
-67.489660
20
-16.522514
11
-71.113122
21
-30.045459
0
LINE
8
s100-@dxf
10
-71.113122
20
-30.045459
11
-84.636067
21
-26.421997
0
LINE
8
s100-@dxf
10
-79.718511
20
-8.069429
11
-76.095049
21
5.453516
0
LINE
8
s100-@dxf
10
-76.095049
20
5.453516
11
-62.572104
21
1.830053
0
LINE
8
s100-@dxf
10
-62.572104
20
1.830053
11
-66.195566
21
-11.692891
0
LINE
8
s100-@dxf
10
-66.195566
20
-11.692891
11
-79.718511
21
-8.069429
0
LINE
8
s100-@dxf
10
-70.424598
20
-46.794346
11
-66.801136
21
-33.271401
0
LINE
8
s100-@dxf
10
-66.801136
20
-33.271401
11
-53.278192
21
-36.894863
0
LINE
8
s100-@dxf
10
-53.278192
20
-36.894863
11
-56.901654
21
-50.417808
0
LINE
8
s100-@dxf
10
-56.901654
20
-50.417808
11
-70.424598
21
-46.794346
0
LINE
8
s100-@dxf
10
-65.507043
20
-28.441778
11
-61.883581
21
-14.918834
0
LINE
8
s100-@dxf
10
-61.883581
20
-14.918834
11
-48.360636
21
-18.542296
0
LINE
8
s100-@dxf
10
-48.360636
20
-18.542296
11
-51.984098
21
-32.065240
0
LINE
8
s100-@dxf
10
-51.984098
20
-32.065240
11
-65.507043
21
-28.441778
0
LINE
8
s100-@dxf
10
-60.589487
20
-10.089211
11
-56.966025
21
3.433734
0
LINE
8
s100-@dxf
10
-56.966025
20
3.433734
11
-43.443081
21
-0.189728
0
LINE
8
s100-@dxf
10
-43.443081
20
-0.189728
11
-47.066543
21
-13.712673
0
LINE
8
s100-@dxf
10
-47.066543
20
-13.712673
11
-60.589487
21
-10.089211
0
LINE
8
s100-@dxf
10
-53.366125
20
-56.541525
11
-49.742663
21
-43.018580
0
LINE
8
s100-@dxf
10
-49.742663
20
-43.018580
11
-36.219718
21
-46.642042
0
LINE
8
s100-@dxf
10
-36.219718
20
-46.642042
11
-39.843180
21
-60.164987
0
LINE
8
s100-@dxf
10
-39.843180
20
-60.164987
11
-53.366125
21
-56.541525
0
LINE
8
s100-@dxf
10
-48.448569
20
-38.188957
11
-44.825107
21
-24.666013
0
LINE
8
s100-@dxf
10
-44.825107
20
-24.666013
11
-31.302162
21
-28.289475
0
LINE
8
s100-@dxf
10
-31.302162
20
-28.289475
11
-34.925624
21
-41.812419
0
LINE
8
s100-@dxf
10
-34.925624
20
-41.812419
11
-48.448569
21
-38.188957
0
LINE
8
s100-@dxf
10
-43.531013
20
-19.836390
11
-39.907551
21
-6.313445
0
LINE
8
s100-@dxf
10
-39.907551
20
-6.313445
11
-26.384606
21
-9.936907
0
LINE
8
s100-@dxf
10
-26.384606
20
-9.936907
11
-30.008069
21
-23.459851
0
LINE
8
s100-@dxf
10
-30.008069
20
-23.459851
11
-43.531013
21
-19.836390
0
LINE
8
s100-@dxf
10
-35.401785
20
-62.907967
11
-31.778323
21
-49.385023
0
LINE
8
s100-@dxf
10
-31.778323
20
-49.385023
11
-18.255378
21
-53.008485
0
LINE
8
s100-@dxf
10
-18.255378
20
-53.008485
11
-21.878841
21
-66.531429
0
LINE
8
s100-@dxf
10
-21.878841
20
-66.531429
11
-35.401785
21
-62.907967
0
LINE
8
s100-@dxf
10
-30.484229
20
-44.555400
11
-26.860768
21
-31.032455
0
LINE
8
s100-@dxf
10
-26.860768
20
-31.032455
11
-13.337823
21
-34.655917
0
LINE
8
s100-@dxf
10
-13.337823
20
-34.655917
11
-16.961285
21
-48.178862
0
LINE
8
s100-@dxf
10
-16.961285
20
-48.178862
11
-30.484229
21
-44.555400
0
LINE
8
s100-@dxf
10
-25.566674
20
-26.202832
11
-21.943212
21
-12.679888
0
LINE
8
s100-@dxf
10
-21.943212
20
-12.679888
11
-8.420267
21
-16.303350
0
LINE
8
s100-@dxf
10
-8.420267
20
-16.303350
11
-12.043729
21
-29.826294
0
LINE
8
s100-@dxf
10
-12.043729
20
-29.826294
11
-25.566674
21
-26.202832
0
LINE
8
s100-@dxf
10
-67.848192
20
-73.884201
11
-64.224730
21
-60.361257
0
LINE
8
s100-@dxf
10
-64.224730
20
-60.361257
11
-50.701785
21
-63.984719
0
LINE
8
s100-@dxf
10
-50.701785
20
-63.984719
11
-54.325248
21
-77.507663
0
LINE
8
s100-@dxf
10
-54.325248
20
-77.507663
11
-67.848192
21
-73.884201
0
LINE
8
s100-@dxf
10
-49.119640
20
-79.744169
11
-41.804670
21
-67.807221
0
LINE
8
s100-@dxf
10
-41.804670
20
-67.807221
11
-29.867722
21
-75.122192
0
LINE
8
s100-@dxf
10
-29.867722
20
-75.122192
11
-37.182693
21
-87.059140
0
LINE
8
s100-@dxf
10
-37.182693
20
-87.059140
11
-49.119640
21
-79.744169
0
LINE
8
s100-@dxf
10
-35.440895
20
-94.544338
11
-26.164226
21
-84.058972
0
LINE
8
s100-@dxf
10
-26.164226
20
-84.058972
11
-15.678859
21
-93.335641
0
LINE
8
s100-@dxf
10
-15.678859
20
-93.335641
11
-24.955528
21
-103.821008
0
LINE
8
s100-@dxf
10
-24.955528
20
-103.821008
11
-35.440895
21
-94.544338
0
LINE
8
s100-@dxf
10
158.784961
20
-30.352556
11
155.161499
21
-16.829611
0
LINE
8
s100-@dxf
10
155.161499
20
-16.829611
11
168.684444
21
-13.206149
0
LINE
8
s100-@dxf
10
168.684444
20
-13.206149
11
172.307906
21
-26.729094
0
LINE
8
s100-@dxf
10
172.307906
20
-26.729094
11
158.784961
21
-30.352556
0
LINE
8
s100-@dxf
10
153.867406
20
-11.999988
11
150.243944
21
1.522956
0
LINE
8
s100-@dxf
10
150.243944
20
1.522956
11
163.766888
21
5.146419
0
LINE
8
s100-@dxf
10
163.766888
20
5.146419
11
167.390350
21
-8.376526
0
LINE
8
s100-@dxf
10
167.390350
20
-8.376526
11
153.867406
21
-11.999988
0
LINE
8
s100-@dxf
10
145.349949
20
-53.622679
11
141.726487
21
-40.099734
0
LINE
8
s100-@dxf
10
141.726487
20
-40.099734
11
155.249432
21
-36.476272
0
LINE
8
s100-@dxf
10
155.249432
20
-36.476272
11
158.872894
21
-49.999217
0
LINE
8
s100-@dxf
10
158.872894
20
-49.999217
11
145.349949
21
-53.622679
0
LINE
8
s100-@dxf
10
140.432394
20
-35.270111
11
136.808932
21
-21.747167
0
LINE
8
s100-@dxf
10
136.808932
20
-21.747167
11
150.331876
21
-18.123705
0
LINE
8
s100-@dxf
10
150.331876
20
-18.123705
11
153.955338
21
-31.646649
0
LINE
8
s100-@dxf
10
153.955338
20
-31.646649
11
140.432394
21
-35.270111
0
LINE
8
s100-@dxf
10
135.514838
20
-16.917544
11
131.891376
21
-3.394599
0
LINE
8
s100-@dxf
10
131.891376
20
-3.394599
11
145.414320
21
0.228863
0
LINE
8
s100-@dxf
10
145.414320
20
0.228863
11
149.037783
21
-13.294082
0
LINE
8
s100-@dxf
10
149.037783
20
-13.294082
11
135.514838
21
-16.917544
0
LINE
8
s100-@dxf
10
124.279785
20
-48.398026
11
120.656323
21
-34.875082
0
LINE
8
s100-@dxf
10
120.656323
20
-34.875082
11
134.179268
21
-31.251620
0
LINE
8
s100-@dxf
10
134.179268
20
-31.251620
11
137.802730
21
-44.774564
0
LINE
8
s100-@dxf
10
137.802730
20
-44.774564
11
124.279785
21
-48.398026
0
LINE
8
s100-@dxf
10
119.362230
20
-30.045459
11
115.738768
21
-16.522514
0
LINE
8
s100-@dxf
10
115.738768
20
-16.522514
11
129.261712
21
-12.899052
0
LINE
8
s100-@dxf
10
129.261712
20
-12.899052
11
132.885174
21
-26.421997
0
LINE
8
s100-@dxf
10
132.885174
20
-26.421997
11
119.362230
21
-30.045459
0
LINE
8
s100-@dxf
10
114.444674
20
-11.692891
11
110.821212
21
1.830053
0
LINE
8
s100-@dxf
10
110.821212
20
1.830053
11
124.344156
21
5.453516
0
LINE
8
s100-@dxf
10
124.344156
20
5.453516
11
127.967618
21
-8.069429
0
LINE
8
s100-@dxf
10
127.967618
20
-8.069429
11
114.444674
21
-11.692891
0
LINE
8
s100-@dxf
10
105.150762
20
-50.417808
11
101.527300
21
-36.894863
0
LINE
8
s100-@dxf
10
101.527300
20
-36.894863
11
115.050244
21
-33.271401
0
LINE
8
s100-@dxf
10
115.050244
20
-33.271401
11
118.673706
21
-46.794346
0
LINE
8
s100-@dxf
10
118.673706
20
-46.794346
11
105.150762
21
-50.417808
0
LINE
8
s100-@dxf
10
100.233206
20
-32.065240
11
96.609744
21
-18.542296
0
LINE
8
s100-@dxf
10
96.609744
20
-18.542296
11
110.132688
21
-14.918834
0
LINE
8
s100-@dxf
10
110.132688
20
-14.918834
11
113.756150
21
-28.441778
0
LINE
8
s100-@dxf
10
113.756150
20
-28.441778
11
100.233206
21
-32.065240
0
LINE
8
s100-@dxf
10
95.315650
20
-13.712673
11
91.692188
21
-0.189728
0
LINE
8
s100-@dxf
10
91.692188
20
-0.189728
11
105.215133
21
3.433734
0
LINE
8
s100-@dxf
10
105.215133
20
3.433734
11
108.838595
21
-10.089211
0
LINE
8
s100-@dxf
10
108.838595
20
-10.089211
11
95.315650
21
-13.712673
0
LINE
8
s100-@dxf
10
88.092288
20
-60.164987
11
84.468825
21
-46.642042
0
LINE
8
s100-@dxf
10
84.468825
20
-46.642042
11
97.991770
21
-43.018580
0
LINE
8
s100-@dxf
10
97.991770
20
-43.018580
11
101.615232
21
-56.541525
0
LINE
8
s100-@dxf
10
101.615232
20
-56.541525
11
88.092288
21
-60.164987
0
LINE
8
s100-@dxf
10
83.174732
20
-41.812419
11
79.551270
21
-28.289475
0
LINE
8
s100-@dxf
10
79.551270
20
-28.289475
11
93.074215
21
-24.666013
0
LINE
8
s100-@dxf
10
93.074215
20
-24.666013
11
96.697676
21
-38.188957
0
LINE
8
s100-@dxf
10
96.697676
20
-38.188957
11
83.174732
21
-41.812419
0
LINE
8
s100-@dxf
10
78.257176
20
-23.459851
11
74.633714
21
-9.936907
0
LINE
8
s100-@dxf
10
74.633714
20
-9.936907
11
88.156659
21
-6.313445
0
LINE
8
s100-@dxf
10
88.156659
20
-6.313445
11
91.780121
21
-19.836390
0
LINE
8
s100-@dxf
10
91.780121
20
-19.836390
11
78.257176
21
-23.459851
0
LINE
8
s100-@dxf
10
70.127948
20
-66.531429
11
66.504486
21
-53.008485
0
LINE
8
s100-@dxf
10
66.504486
20
-53.008485
11
80.027430
21
-49.385023
0
LINE
8
s100-@dxf
10
80.027430
20
-49.385023
11
83.650893
21
-62.907967
0
LINE
8
s100-@dxf
10
83.650893
20
-62.907967
11
70.127948
21
-66.531429
0
LINE
8
s100-@dxf
10
65.210392
20
-48.178862
11
61.586930
21
-34.655917
0
LINE
8
s100-@dxf
10
61.586930
20
-34.655917
11
75.109875
21
-31.032455
0
LINE
8
s100-@dxf
10
75.109875
20
-31.032455
11
78.733337
21
-44.555400
0
LINE
8
s100-@dxf
10
78.733337
20
-44.555400
11
65.210392
21
-48.178862
0
LINE
8
s100-@dxf
10
60.292837
20
-29.826294
11
56.669375
21
-16.303350
0
LINE
8
s100-@dxf
10
56.669375
20
-16.303350
11
70.192319
21
-12.679888
0
LINE
8
s100-@dxf
10
70.192319
20
-12.679888
11
73.815781
21
-26.202832
0
LINE
8
s100-@dxf
10
73.815781
20
-26.202832
11
60.292837
21
-29.826294
0
LINE
8
s100-@dxf
10
102.574355
20
-77.507663
11
98.950893
21
-63.984719
0
LINE
8
s100-@dxf
10
98.950893
20
-63.984719
11
112.473837
21
-60.361257
0
LINE
8
s100-@dxf
10
112.473837
20
-60.361257
11
116.097300
21
-73.884201
0
LINE
8
s100-@dxf
10
116.097300
20
-73.884201
11
102.574355
21
-77.507663
0
LINE
8
s100-@dxf
10
85.431800
20
-87.059140
11
78.116830
21
-75.122192
0
LINE
8
s100-@dxf
10
78.116830
20
-75.122192
11
90.053777
21
-67.807221
0
LINE
8
s100-@dxf
10
90.053777
20
-67.807221
11
97.368748
21
-79.744169
0
LINE
8
s100-@dxf
10
97.368748
20
-79.744169
11
85.431800
21
-87.059140
0
LINE
8
s100-@dxf
10
73.204635
20
-103.821008
11
63.927966
21
-93.335641
0
LINE
8
s100-@dxf
10
63.927966
20
-93.335641
11
74.413333
21
-84.058972
0
LINE
8
s100-@dxf
10
74.413333
20
-84.058972
11
83.690002
21
-94.544338
0
LINE
8
s100-@dxf
10
83.690002
20
-94.544338
11
73.204635
21
-103.821008
 0 
ENDSEC
 0 
EOF