<?xml version="1.0" encoding="UTF-8" standalone="no"?>
<!-- Created with Inkscape (http://www.inkscape.org/) -->

<svg
   width="422.48425mm"
   height="381.20709mm"
   viewBox="0 0 422.48426 381.20709"
   version="1.1"
   id="svg1"
   inkscape:version="1.3.2 (091e20ef0f, 2023-11-25)"
   sodipodi:docname="sparkle.svg"
   xmlns:inkscape="http://www.inkscape.org/namespaces/inkscape"
   xmlns:sodipodi="http://sodipodi.sourceforge.net/DTD/sodipodi-0.dtd"
   xmlns="http://www.w3.org/2000/svg"
   xmlns:svg="http://www.w3.org/2000/svg">
  <sodipodi:namedview
     id="namedview1"
     pagecolor="#ffffff"
     bordercolor="#000000"
     borderopacity="0.25"
     inkscape:showpageshadow="false"
     inkscape:pageopacity="0.0"
     inkscape:pagecheckerboard="true"
     inkscape:deskcolor="#d1d1d1"
     inkscape:document-units="mm"
     inkscape:zoom="0.24977825"
     inkscape:cx="1545.3707"
     inkscape:cy="650.57706"
     inkscape:window-width="1920"
     inkscape:window-height="1011"
     inkscape:window-x="0"
     inkscape:window-y="32"
     inkscape:window-maximized="1"
     inkscape:current-layer="layer1"
     showborder="true"
     labelstyle="default"
     showgrid="false" />
  <defs
     id="defs1" />
  <g
     inkscape:label="Layer 1"
     inkscape:groupmode="layer"
     id="layer1"
     transform="translate(224.31227,234.27251)">
    <path
       sodipodi:type="star"
       style="fill:#000000;stroke-width:0.264583"
       id="path1"
       inkscape:flatsided="false"
       sodipodi:sides="4"
       sodipodi:cx="63.175137"
       sodipodi:cy="85.936928"
       sodipodi:r1="48.58786"
       sodipodi:r2="9.7175722"
       sodipodi:arg1="-1.5707963"
       sodipodi:arg2="-0.78539816"
       inkscape:rounded="0.08"
       inkscape:randomized="0.03"
       d="m 62.013114,37.880289 c 3.370134,-0.07291 5.171369,40.164938 7.620227,42.432257 2.448857,2.267318 40.866669,1.323714 40.813429,4.739075 -0.0533,3.415361 -38.502342,3.98421 -40.817602,6.512522 -2.31526,2.528312 -4.215599,43.378607 -7.613103,43.420917 -3.397504,0.0423 -2.995748,-39.200233 -5.406273,-41.615909 C 54.199268,90.953474 15.059351,88.155385 15.031036,84.82284 15.002721,81.490295 54.1776,81.606929 56.613965,79.202282 59.050329,76.797634 58.642981,37.9532 62.013114,37.880289 Z"
       transform="matrix(0.5,0,0,0.5,-6.5350751,-21.834488)" />
    <path
       sodipodi:type="star"
       style="fill:#000000;stroke-width:0.264583"
       id="path1-5"
       inkscape:flatsided="false"
       sodipodi:sides="4"
       sodipodi:cx="63.175137"
       sodipodi:cy="85.936928"
       sodipodi:r1="48.58786"
       sodipodi:r2="9.7175722"
       sodipodi:arg1="-1.5707963"
       sodipodi:arg2="-0.78539816"
       inkscape:rounded="0.08"
       inkscape:randomized="0.03"
       d="m 62.013114,37.880289 c 3.370134,-0.07291 5.171369,40.164938 7.620227,42.432257 2.448857,2.267318 40.866669,1.323714 40.813429,4.739075 -0.0533,3.415361 -38.502342,3.98421 -40.817602,6.512522 -2.31526,2.528312 -4.215599,43.378607 -7.613103,43.420917 -3.397504,0.0423 -2.995748,-39.200233 -5.406273,-41.615909 C 54.199268,90.953474 15.059351,88.155385 15.031036,84.82284 15.002721,81.490295 54.1776,81.606929 56.613965,79.202282 59.050329,76.797634 58.642981,37.9532 62.013114,37.880289 Z"
       transform="matrix(0.21476195,0,0,0.21476195,41.176869,-5.8292013)" />
    <path
       sodipodi:type="star"
       style="fill:#000000;stroke-width:0.264583"
       id="path1-7"
       inkscape:flatsided="false"
       sodipodi:sides="4"
       sodipodi:cx="63.175137"
       sodipodi:cy="85.936928"
       sodipodi:r1="48.58786"
       sodipodi:r2="9.7175722"
       sodipodi:arg1="-1.5707963"
       sodipodi:arg2="-0.78539816"
       inkscape:rounded="0.08"
       inkscape:randomized="0.03"
       d="m 62.013114,37.880289 c 3.370134,-0.07291 5.171369,40.164938 7.620227,42.432257 2.448857,2.267318 40.866669,1.323714 40.813429,4.739075 -0.0533,3.415361 -38.502342,3.98421 -40.817602,6.512522 -2.31526,2.528312 -4.215599,43.378607 -7.613103,43.420917 -3.397504,0.0423 -2.995748,-39.200233 -5.406273,-41.615909 C 54.199268,90.953474 15.059351,88.155385 15.031036,84.82284 15.002721,81.490295 54.1776,81.606929 56.613965,79.202282 59.050329,76.797634 58.642981,37.9532 62.013114,37.880289 Z"
       transform="matrix(0.12963961,0,0,0.12963961,-3.9268387,-5.1931028)" />
    <path
       sodipodi:type="star"
       style="fill:#000000;stroke-width:0.264583"
       id="path1-6"
       inkscape:flatsided="false"
       sodipodi:sides="4"
       sodipodi:cx="63.175137"
       sodipodi:cy="85.936928"
       sodipodi:r1="48.58786"
       sodipodi:r2="9.7175722"
       sodipodi:arg1="-1.5707963"
       sodipodi:arg2="-0.78539816"
       inkscape:rounded="0.08"
       inkscape:randomized="0.03"
       d="m 62.013114,37.880289 c 3.370134,-0.07291 5.171369,40.164938 7.620227,42.432257 2.448857,2.267318 40.866669,1.323714 40.813429,4.739075 -0.0533,3.415361 -38.502342,3.98421 -40.817602,6.512522 -2.31526,2.528312 -4.215599,43.378607 -7.613103,43.420917 -3.397504,0.0423 -2.995748,-39.200233 -5.406273,-41.615909 C 54.199268,90.953474 15.059351,88.155385 15.031036,84.82284 15.002721,81.490295 54.1776,81.606929 56.613965,79.202282 59.050329,76.797634 58.642981,37.9532 62.013114,37.880289 Z"
       inkscape:transform-center-y="2.7054853e-06"
       transform="matrix(0.233234,0,0,0.233234,-7.7423052,22.71499)" />
    <path
       sodipodi:type="star"
       style="fill:#000000;stroke-width:0.264583"
       id="path1-61"
       inkscape:flatsided="false"
       sodipodi:sides="4"
       sodipodi:cx="63.175137"
       sodipodi:cy="85.936928"
       sodipodi:r1="48.58786"
       sodipodi:r2="9.7175722"
       sodipodi:arg1="-1.5707963"
       sodipodi:arg2="-0.78539816"
       inkscape:rounded="0.08"
       inkscape:randomized="0.03"
       d="m 62.013114,37.880289 c 3.370134,-0.07291 5.171369,40.164938 7.620227,42.432257 2.448857,2.267318 40.866669,1.323714 40.813429,4.739075 -0.0533,3.415361 -38.502342,3.98421 -40.817602,6.512522 -2.31526,2.528312 -4.215599,43.378607 -7.613103,43.420917 -3.397504,0.0423 -2.995748,-39.200233 -5.406273,-41.615909 C 54.199268,90.953474 15.059351,88.155385 15.031036,84.82284 15.002721,81.490295 54.1776,81.606929 56.613965,79.202282 59.050329,76.797634 58.642981,37.9532 62.013114,37.880289 Z"
       transform="matrix(0.5,0,0,0.5,33.238522,20.083235)" />
    <path
       sodipodi:type="star"
       style="fill:#000000;stroke-width:0.264583"
       id="path1-5-8"
       inkscape:flatsided="false"
       sodipodi:sides="4"
       sodipodi:cx="63.175137"
       sodipodi:cy="85.936928"
       sodipodi:r1="48.58786"
       sodipodi:r2="9.7175722"
       sodipodi:arg1="-1.5707963"
       sodipodi:arg2="-0.78539816"
       inkscape:rounded="0.08"
       inkscape:randomized="0.03"
       d="m 62.013114,37.880289 c 3.370134,-0.07291 5.171369,40.164938 7.620227,42.432257 2.448857,2.267318 40.866669,1.323714 40.813429,4.739075 -0.0533,3.415361 -38.502342,3.98421 -40.817602,6.512522 -2.31526,2.528312 -4.215599,43.378607 -7.613103,43.420917 -3.397504,0.0423 -2.995748,-39.200233 -5.406273,-41.615909 C 54.199268,90.953474 15.059351,88.155385 15.031036,84.82284 15.002721,81.490295 54.1776,81.606929 56.613965,79.202282 59.050329,76.797634 58.642981,37.9532 62.013114,37.880289 Z"
       transform="matrix(0.21476195,0,0,0.21476195,80.950465,36.088522)" />
    <path
       sodipodi:type="star"
       style="fill:#000000;stroke-width:0.264583"
       id="path1-7-7"
       inkscape:flatsided="false"
       sodipodi:sides="4"
       sodipodi:cx="63.175137"
       sodipodi:cy="85.936928"
       sodipodi:r1="48.58786"
       sodipodi:r2="9.7175722"
       sodipodi:arg1="-1.5707963"
       sodipodi:arg2="-0.78539816"
       inkscape:rounded="0.08"
       inkscape:randomized="0.03"
       d="m 62.013114,37.880289 c 3.370134,-0.07291 5.171369,40.164938 7.620227,42.432257 2.448857,2.267318 40.866669,1.323714 40.813429,4.739075 -0.0533,3.415361 -38.502342,3.98421 -40.817602,6.512522 -2.31526,2.528312 -4.215599,43.378607 -7.613103,43.420917 -3.397504,0.0423 -2.995748,-39.200233 -5.406273,-41.615909 C 54.199268,90.953474 15.059351,88.155385 15.031036,84.82284 15.002721,81.490295 54.1776,81.606929 56.613965,79.202282 59.050329,76.797634 58.642981,37.9532 62.013114,37.880289 Z"
       transform="matrix(0.12963961,0,0,0.12963961,35.846757,36.724622)" />
    <path
       sodipodi:type="star"
       style="fill:#000000;stroke-width:0.264583"
       id="path1-6-9"
       inkscape:flatsided="false"
       sodipodi:sides="4"
       sodipodi:cx="63.175137"
       sodipodi:cy="85.936928"
       sodipodi:r1="48.58786"
       sodipodi:r2="9.7175722"
       sodipodi:arg1="-1.5707963"
       sodipodi:arg2="-0.78539816"
       inkscape:rounded="0.08"
       inkscape:randomized="0.03"
       d="m 62.013114,37.880289 c 3.370134,-0.07291 5.171369,40.164938 7.620227,42.432257 2.448857,2.267318 40.866669,1.323714 40.813429,4.739075 -0.0533,3.415361 -38.502342,3.98421 -40.817602,6.512522 -2.31526,2.528312 -4.215599,43.378607 -7.613103,43.420917 -3.397504,0.0423 -2.995748,-39.200233 -5.406273,-41.615909 C 54.199268,90.953474 15.059351,88.155385 15.031036,84.82284 15.002721,81.490295 54.1776,81.606929 56.613965,79.202282 59.050329,76.797634 58.642981,37.9532 62.013114,37.880289 Z"
       inkscape:transform-center-y="2.7054852e-06"
       transform="matrix(0.233234,0,0,0.233234,32.031292,64.632717)" />
    <path
       sodipodi:type="star"
       style="fill:#000000;stroke-width:0.264583"
       id="path1-3"
       inkscape:flatsided="false"
       sodipodi:sides="4"
       sodipodi:cx="63.175137"
       sodipodi:cy="85.936928"
       sodipodi:r1="48.58786"
       sodipodi:r2="9.7175722"
       sodipodi:arg1="-1.5707963"
       sodipodi:arg2="-0.78539816"
       inkscape:rounded="0.08"
       inkscape:randomized="0.03"
       d="m 62.013114,37.880289 c 3.370134,-0.07291 5.171369,40.164938 7.620227,42.432257 2.448857,2.267318 40.866669,1.323714 40.813429,4.739075 -0.0533,3.415361 -38.502342,3.98421 -40.817602,6.512522 -2.31526,2.528312 -4.215599,43.378607 -7.613103,43.420917 -3.397504,0.0423 -2.995748,-39.200233 -5.406273,-41.615909 C 54.199268,90.953474 15.059351,88.155385 15.031036,84.82284 15.002721,81.490295 54.1776,81.606929 56.613965,79.202282 59.050329,76.797634 58.642981,37.9532 62.013114,37.880289 Z"
       transform="matrix(0.5,0,0,0.5,-118.5285,70.901972)"
       inkscape:transform-center-x="4.9273771e-06" />
    <path
       sodipodi:type="star"
       style="fill:#000000;stroke-width:0.264583"
       id="path1-5-7"
       inkscape:flatsided="false"
       sodipodi:sides="4"
       sodipodi:cx="63.175137"
       sodipodi:cy="85.936928"
       sodipodi:r1="48.58786"
       sodipodi:r2="9.7175722"
       sodipodi:arg1="-1.5707963"
       sodipodi:arg2="-0.78539816"
       inkscape:rounded="0.08"
       inkscape:randomized="0.03"
       d="m 62.013114,37.880289 c 3.370134,-0.07291 5.171369,40.164938 7.620227,42.432257 2.448857,2.267318 40.866669,1.323714 40.813429,4.739075 -0.0533,3.415361 -38.502342,3.98421 -40.817602,6.512522 -2.31526,2.528312 -4.215599,43.378607 -7.613103,43.420917 -3.397504,0.0423 -2.995748,-39.200233 -5.406273,-41.615909 C 54.199268,90.953474 15.059351,88.155385 15.031036,84.82284 15.002721,81.490295 54.1776,81.606929 56.613965,79.202282 59.050329,76.797634 58.642981,37.9532 62.013114,37.880289 Z"
       transform="matrix(0.21476195,0,0,0.21476195,-70.81655,86.907257)" />
    <path
       sodipodi:type="star"
       style="fill:#000000;stroke-width:0.264583"
       id="path1-7-5"
       inkscape:flatsided="false"
       sodipodi:sides="4"
       sodipodi:cx="63.175137"
       sodipodi:cy="85.936928"
       sodipodi:r1="48.58786"
       sodipodi:r2="9.7175722"
       sodipodi:arg1="-1.5707963"
       sodipodi:arg2="-0.78539816"
       inkscape:rounded="0.08"
       inkscape:randomized="0.03"
       d="m 62.013114,37.880289 c 3.370134,-0.07291 5.171369,40.164938 7.620227,42.432257 2.448857,2.267318 40.866669,1.323714 40.813429,4.739075 -0.0533,3.415361 -38.502342,3.98421 -40.817602,6.512522 -2.31526,2.528312 -4.215599,43.378607 -7.613103,43.420917 -3.397504,0.0423 -2.995748,-39.200233 -5.406273,-41.615909 C 54.199268,90.953474 15.059351,88.155385 15.031036,84.82284 15.002721,81.490295 54.1776,81.606929 56.613965,79.202282 59.050329,76.797634 58.642981,37.9532 62.013114,37.880289 Z"
       transform="matrix(0.12963961,0,0,0.12963961,-115.92026,87.543357)" />
    <path
       sodipodi:type="star"
       style="fill:#000000;stroke-width:0.264583"
       id="path1-6-92"
       inkscape:flatsided="false"
       sodipodi:sides="4"
       sodipodi:cx="63.175137"
       sodipodi:cy="85.936928"
       sodipodi:r1="48.58786"
       sodipodi:r2="9.7175722"
       sodipodi:arg1="-1.5707963"
       sodipodi:arg2="-0.78539816"
       inkscape:rounded="0.08"
       inkscape:randomized="0.03"
       d="m 62.013114,37.880289 c 3.370134,-0.07291 5.171369,40.164938 7.620227,42.432257 2.448857,2.267318 40.866669,1.323714 40.813429,4.739075 -0.0533,3.415361 -38.502342,3.98421 -40.817602,6.512522 -2.31526,2.528312 -4.215599,43.378607 -7.613103,43.420917 -3.397504,0.0423 -2.995748,-39.200233 -5.406273,-41.615909 C 54.199268,90.953474 15.059351,88.155385 15.031036,84.82284 15.002721,81.490295 54.1776,81.606929 56.613965,79.202282 59.050329,76.797634 58.642981,37.9532 62.013114,37.880289 Z"
       transform="matrix(0.233234,0,0,0.233234,-119.73573,115.45145)"
       inkscape:transform-center-x="4.6136824e-06" />
    <path
       sodipodi:type="star"
       style="fill:#000000;stroke-width:0.264583"
       id="path1-73"
       inkscape:flatsided="false"
       sodipodi:sides="4"
       sodipodi:cx="63.175137"
       sodipodi:cy="85.936928"
       sodipodi:r1="48.58786"
       sodipodi:r2="9.7175722"
       sodipodi:arg1="-1.5707963"
       sodipodi:arg2="-0.78539816"
       inkscape:rounded="0.08"
       inkscape:randomized="0.03"
       d="m 62.013114,37.880289 c 3.370134,-0.07291 5.171369,40.164938 7.620227,42.432257 2.448857,2.267318 40.866669,1.323714 40.813429,4.739075 -0.0533,3.415361 -38.502342,3.98421 -40.817602,6.512522 -2.31526,2.528312 -4.215599,43.378607 -7.613103,43.420917 -3.397504,0.0423 -2.995748,-39.200233 -5.406273,-41.615909 C 54.199268,90.953474 15.059351,88.155385 15.031036,84.82284 15.002721,81.490295 54.1776,81.606929 56.613965,79.202282 59.050329,76.797634 58.642981,37.9532 62.013114,37.880289 Z"
       transform="matrix(0.5,0,0,0.5,-119.05767,-57.817822)"
       inkscape:transform-center-x="4.9273771e-06" />
    <path
       sodipodi:type="star"
       style="fill:#000000;stroke-width:0.264583"
       id="path1-5-6"
       inkscape:flatsided="false"
       sodipodi:sides="4"
       sodipodi:cx="63.175137"
       sodipodi:cy="85.936928"
       sodipodi:r1="48.58786"
       sodipodi:r2="9.7175722"
       sodipodi:arg1="-1.5707963"
       sodipodi:arg2="-0.78539816"
       inkscape:rounded="0.08"
       inkscape:randomized="0.03"
       d="m 62.013114,37.880289 c 3.370134,-0.07291 5.171369,40.164938 7.620227,42.432257 2.448857,2.267318 40.866669,1.323714 40.813429,4.739075 -0.0533,3.415361 -38.502342,3.98421 -40.817602,6.512522 -2.31526,2.528312 -4.215599,43.378607 -7.613103,43.420917 -3.397504,0.0423 -2.995748,-39.200233 -5.406273,-41.615909 C 54.199268,90.953474 15.059351,88.155385 15.031036,84.82284 15.002721,81.490295 54.1776,81.606929 56.613965,79.202282 59.050329,76.797634 58.642981,37.9532 62.013114,37.880289 Z"
       transform="matrix(0.21476195,0,0,0.21476195,-71.34572,-41.812535)" />
    <path
       sodipodi:type="star"
       style="fill:#000000;stroke-width:0.264583"
       id="path1-7-1"
       inkscape:flatsided="false"
       sodipodi:sides="4"
       sodipodi:cx="63.175137"
       sodipodi:cy="85.936928"
       sodipodi:r1="48.58786"
       sodipodi:r2="9.7175722"
       sodipodi:arg1="-1.5707963"
       sodipodi:arg2="-0.78539816"
       inkscape:rounded="0.08"
       inkscape:randomized="0.03"
       d="m 62.013114,37.880289 c 3.370134,-0.07291 5.171369,40.164938 7.620227,42.432257 2.448857,2.267318 40.866669,1.323714 40.813429,4.739075 -0.0533,3.415361 -38.502342,3.98421 -40.817602,6.512522 -2.31526,2.528312 -4.215599,43.378607 -7.613103,43.420917 -3.397504,0.0423 -2.995748,-39.200233 -5.406273,-41.615909 C 54.199268,90.953474 15.059351,88.155385 15.031036,84.82284 15.002721,81.490295 54.1776,81.606929 56.613965,79.202282 59.050329,76.797634 58.642981,37.9532 62.013114,37.880289 Z"
       transform="matrix(0.12963961,0,0,0.12963961,-116.44943,-41.176436)" />
    <path
       sodipodi:type="star"
       style="fill:#000000;stroke-width:0.264583"
       id="path1-6-2"
       inkscape:flatsided="false"
       sodipodi:sides="4"
       sodipodi:cx="63.175137"
       sodipodi:cy="85.936928"
       sodipodi:r1="48.58786"
       sodipodi:r2="9.7175722"
       sodipodi:arg1="-1.5707963"
       sodipodi:arg2="-0.78539816"
       inkscape:rounded="0.08"
       inkscape:randomized="0.03"
       d="m 62.013114,37.880289 c 3.370134,-0.07291 5.171369,40.164938 7.620227,42.432257 2.448857,2.267318 40.866669,1.323714 40.813429,4.739075 -0.0533,3.415361 -38.502342,3.98421 -40.817602,6.512522 -2.31526,2.528312 -4.215599,43.378607 -7.613103,43.420917 -3.397504,0.0423 -2.995748,-39.200233 -5.406273,-41.615909 C 54.199268,90.953474 15.059351,88.155385 15.031036,84.82284 15.002721,81.490295 54.1776,81.606929 56.613965,79.202282 59.050329,76.797634 58.642981,37.9532 62.013114,37.880289 Z"
       inkscape:transform-center-y="2.2054852e-06"
       transform="matrix(0.233234,0,0,0.233234,-120.2649,-13.268344)"
       inkscape:transform-center-x="4.6136825e-06" />
    <path
       sodipodi:type="star"
       style="fill:#000000;stroke-width:0.264583"
       id="path1-9"
       inkscape:flatsided="false"
       sodipodi:sides="4"
       sodipodi:cx="63.175137"
       sodipodi:cy="85.936928"
       sodipodi:r1="48.58786"
       sodipodi:r2="9.7175722"
       sodipodi:arg1="-1.5707963"
       sodipodi:arg2="-0.78539816"
       inkscape:rounded="0.08"
       inkscape:randomized="0.03"
       d="m 62.013114,37.880289 c 3.370134,-0.07291 5.171369,40.164938 7.620227,42.432257 2.448857,2.267318 40.866669,1.323714 40.813429,4.739075 -0.0533,3.415361 -38.502342,3.98421 -40.817602,6.512522 -2.31526,2.528312 -4.215599,43.378607 -7.613103,43.420917 -3.397504,0.0423 -2.995748,-39.200233 -5.406273,-41.615909 C 54.199268,90.953474 15.059351,88.155385 15.031036,84.82284 15.002721,81.490295 54.1776,81.606929 56.613965,79.202282 59.050329,76.797634 58.642981,37.9532 62.013114,37.880289 Z"
       transform="matrix(0.5,0,0,0.5,-2.9821407,-81.460918)" />
    <path
       sodipodi:type="star"
       style="fill:#000000;stroke-width:0.264583"
       id="path1-5-4"
       inkscape:flatsided="false"
       sodipodi:sides="4"
       sodipodi:cx="63.175137"
       sodipodi:cy="85.936928"
       sodipodi:r1="48.58786"
       sodipodi:r2="9.7175722"
       sodipodi:arg1="-1.5707963"
       sodipodi:arg2="-0.78539816"
       inkscape:rounded="0.08"
       inkscape:randomized="0.03"
       d="m 62.013114,37.880289 c 3.370134,-0.07291 5.171369,40.164938 7.620227,42.432257 2.448857,2.267318 40.866669,1.323714 40.813429,4.739075 -0.0533,3.415361 -38.502342,3.98421 -40.817602,6.512522 -2.31526,2.528312 -4.215599,43.378607 -7.613103,43.420917 -3.397504,0.0423 -2.995748,-39.200233 -5.406273,-41.615909 C 54.199268,90.953474 15.059351,88.155385 15.031036,84.82284 15.002721,81.490295 54.1776,81.606929 56.613965,79.202282 59.050329,76.797634 58.642981,37.9532 62.013114,37.880289 Z"
       inkscape:transform-center-y="2.6903004e-06"
       transform="matrix(0.21476195,0,0,0.21476195,77.482405,-121.7167)" />
    <path
       sodipodi:type="star"
       style="fill:#000000;stroke-width:0.264583"
       id="path1-7-78"
       inkscape:flatsided="false"
       sodipodi:sides="4"
       sodipodi:cx="63.175137"
       sodipodi:cy="85.936928"
       sodipodi:r1="48.58786"
       sodipodi:r2="9.7175722"
       sodipodi:arg1="-1.5707963"
       sodipodi:arg2="-0.78539816"
       inkscape:rounded="0.08"
       inkscape:randomized="0.03"
       d="m 62.013114,37.880289 c 3.370134,-0.07291 5.171369,40.164938 7.620227,42.432257 2.448857,2.267318 40.866669,1.323714 40.813429,4.739075 -0.0533,3.415361 -38.502342,3.98421 -40.817602,6.512522 -2.31526,2.528312 -4.215599,43.378607 -7.613103,43.420917 -3.397504,0.0423 -2.995748,-39.200233 -5.406273,-41.615909 C 54.199268,90.953474 15.059351,88.155385 15.031036,84.82284 15.002721,81.490295 54.1776,81.606929 56.613965,79.202282 59.050329,76.797634 58.642981,37.9532 62.013114,37.880289 Z"
       transform="matrix(0.12963961,0,0,0.12963961,30.823344,-127.2474)" />
    <path
       sodipodi:type="star"
       style="fill:#000000;stroke-width:0.264583"
       id="path1-6-4"
       inkscape:flatsided="false"
       sodipodi:sides="4"
       sodipodi:cx="63.175137"
       sodipodi:cy="85.936928"
       sodipodi:r1="48.58786"
       sodipodi:r2="9.7175722"
       sodipodi:arg1="-1.5707963"
       sodipodi:arg2="-0.78539816"
       inkscape:rounded="0.08"
       inkscape:randomized="0.03"
       d="m 62.013114,37.880289 c 3.370134,-0.07291 5.171369,40.164938 7.620227,42.432257 2.448857,2.267318 40.866669,1.323714 40.813429,4.739075 -0.0533,3.415361 -38.502342,3.98421 -40.817602,6.512522 -2.31526,2.528312 -4.215599,43.378607 -7.613103,43.420917 -3.397504,0.0423 -2.995748,-39.200233 -5.406273,-41.615909 C 54.199268,90.953474 15.059351,88.155385 15.031036,84.82284 15.002721,81.490295 54.1776,81.606929 56.613965,79.202282 59.050329,76.797634 58.642981,37.9532 62.013114,37.880289 Z"
       inkscape:transform-center-y="2.7054853e-06"
       transform="matrix(0.233234,0,0,0.233234,28.563232,-93.172508)" />
    <path
       sodipodi:type="star"
       style="fill:#000000;stroke-width:0.264583"
       id="path1-610"
       inkscape:flatsided="false"
       sodipodi:sides="4"
       sodipodi:cx="63.175137"
       sodipodi:cy="85.936928"
       sodipodi:r1="48.58786"
       sodipodi:r2="9.7175722"
       sodipodi:arg1="-1.5707963"
       sodipodi:arg2="-0.78539816"
       inkscape:rounded="0.08"
       inkscape:randomized="0.03"
       d="m 62.013114,37.880289 c 3.370134,-0.07291 5.171369,40.164938 7.620227,42.432257 2.448857,2.267318 40.866669,1.323714 40.813429,4.739075 -0.0533,3.415361 -38.502342,3.98421 -40.817602,6.512522 -2.31526,2.528312 -4.215599,43.378607 -7.613103,43.420917 -3.397504,0.0423 -2.995748,-39.200233 -5.406273,-41.615909 C 54.199268,90.953474 15.059351,88.155385 15.031036,84.82284 15.002721,81.490295 54.1776,81.606929 56.613965,79.202282 59.050329,76.797634 58.642981,37.9532 62.013114,37.880289 Z"
       transform="matrix(0.5,0,0,0.5,126.74025,-48.821988)"
       inkscape:transform-center-x="4.9273771e-06" />
    <path
       sodipodi:type="star"
       style="fill:#000000;stroke-width:0.264583"
       id="path1-5-63"
       inkscape:flatsided="false"
       sodipodi:sides="4"
       sodipodi:cx="63.175137"
       sodipodi:cy="85.936928"
       sodipodi:r1="48.58786"
       sodipodi:r2="9.7175722"
       sodipodi:arg1="-1.5707963"
       sodipodi:arg2="-0.78539816"
       inkscape:rounded="0.08"
       inkscape:randomized="0.03"
       d="m 62.013114,37.880289 c 3.370134,-0.07291 5.171369,40.164938 7.620227,42.432257 2.448857,2.267318 40.866669,1.323714 40.813429,4.739075 -0.0533,3.415361 -38.502342,3.98421 -40.817602,6.512522 -2.31526,2.528312 -4.215599,43.378607 -7.613103,43.420917 -3.397504,0.0423 -2.995748,-39.200233 -5.406273,-41.615909 C 54.199268,90.953474 15.059351,88.155385 15.031036,84.82284 15.002721,81.490295 54.1776,81.606929 56.613965,79.202282 59.050329,76.797634 58.642981,37.9532 62.013114,37.880289 Z"
       transform="matrix(0.21476195,0,0,0.21476195,174.4522,-32.816701)" />
    <path
       sodipodi:type="star"
       style="fill:#000000;stroke-width:0.264583"
       id="path1-7-2"
       inkscape:flatsided="false"
       sodipodi:sides="4"
       sodipodi:cx="63.175137"
       sodipodi:cy="85.936928"
       sodipodi:r1="48.58786"
       sodipodi:r2="9.7175722"
       sodipodi:arg1="-1.5707963"
       sodipodi:arg2="-0.78539816"
       inkscape:rounded="0.08"
       inkscape:randomized="0.03"
       d="m 62.013114,37.880289 c 3.370134,-0.07291 5.171369,40.164938 7.620227,42.432257 2.448857,2.267318 40.866669,1.323714 40.813429,4.739075 -0.0533,3.415361 -38.502342,3.98421 -40.817602,6.512522 -2.31526,2.528312 -4.215599,43.378607 -7.613103,43.420917 -3.397504,0.0423 -2.995748,-39.200233 -5.406273,-41.615909 C 54.199268,90.953474 15.059351,88.155385 15.031036,84.82284 15.002721,81.490295 54.1776,81.606929 56.613965,79.202282 59.050329,76.797634 58.642981,37.9532 62.013114,37.880289 Z"
       transform="matrix(0.12963961,0,0,0.12963961,129.34849,-32.180603)" />
    <path
       sodipodi:type="star"
       style="fill:#000000;stroke-width:0.264583"
       id="path1-6-0"
       inkscape:flatsided="false"
       sodipodi:sides="4"
       sodipodi:cx="63.175137"
       sodipodi:cy="85.936928"
       sodipodi:r1="48.58786"
       sodipodi:r2="9.7175722"
       sodipodi:arg1="-1.5707963"
       sodipodi:arg2="-0.78539816"
       inkscape:rounded="0.08"
       inkscape:randomized="0.03"
       d="m 62.013114,37.880289 c 3.370134,-0.07291 5.171369,40.164938 7.620227,42.432257 2.448857,2.267318 40.866669,1.323714 40.813429,4.739075 -0.0533,3.415361 -38.502342,3.98421 -40.817602,6.512522 -2.31526,2.528312 -4.215599,43.378607 -7.613103,43.420917 -3.397504,0.0423 -2.995748,-39.200233 -5.406273,-41.615909 C 54.199268,90.953474 15.059351,88.155385 15.031036,84.82284 15.002721,81.490295 54.1776,81.606929 56.613965,79.202282 59.050329,76.797634 58.642981,37.9532 62.013114,37.880289 Z"
       inkscape:transform-center-y="2.4054852e-06"
       transform="matrix(0.233234,0,0,0.233234,125.53302,-4.2725103)"
       inkscape:transform-center-x="4.6136825e-06" />
    <path
       sodipodi:type="star"
       style="fill:#000000;stroke-width:0.264583"
       id="path1-54"
       inkscape:flatsided="false"
       sodipodi:sides="4"
       sodipodi:cx="63.175137"
       sodipodi:cy="85.936928"
       sodipodi:r1="48.58786"
       sodipodi:r2="9.7175722"
       sodipodi:arg1="-1.5707963"
       sodipodi:arg2="-0.78539816"
       inkscape:rounded="0.08"
       inkscape:randomized="0.03"
       d="m 62.013114,37.880289 c 3.370134,-0.07291 5.171369,40.164938 7.620227,42.432257 2.448857,2.267318 40.866669,1.323714 40.813429,4.739075 -0.0533,3.415361 -38.502342,3.98421 -40.817602,6.512522 -2.31526,2.528312 -4.215599,43.378607 -7.613103,43.420917 -3.397504,0.0423 -2.995748,-39.200233 -5.406273,-41.615909 C 54.199268,90.953474 15.059351,88.155385 15.031036,84.82284 15.002721,81.490295 54.1776,81.606929 56.613965,79.202282 59.050329,76.797634 58.642981,37.9532 62.013114,37.880289 Z"
       transform="matrix(0.5,0,0,0.5,-54.896205,-96.976153)" />
    <path
       sodipodi:type="star"
       style="fill:#000000;stroke-width:0.264583"
       id="path1-5-76"
       inkscape:flatsided="false"
       sodipodi:sides="4"
       sodipodi:cx="63.175137"
       sodipodi:cy="85.936928"
       sodipodi:r1="48.58786"
       sodipodi:r2="9.7175722"
       sodipodi:arg1="-1.5707963"
       sodipodi:arg2="-0.78539816"
       inkscape:rounded="0.08"
       inkscape:randomized="0.03"
       d="m 62.013114,37.880289 c 3.370134,-0.07291 5.171369,40.164938 7.620227,42.432257 2.448857,2.267318 40.866669,1.323714 40.813429,4.739075 -0.0533,3.415361 -38.502342,3.98421 -40.817602,6.512522 -2.31526,2.528312 -4.215599,43.378607 -7.613103,43.420917 -3.397504,0.0423 -2.995748,-39.200233 -5.406273,-41.615909 C 54.199268,90.953474 15.059351,88.155385 15.031036,84.82284 15.002721,81.490295 54.1776,81.606929 56.613965,79.202282 59.050329,76.797634 58.642981,37.9532 62.013114,37.880289 Z"
       transform="matrix(0.21476195,0,0,0.21476195,-7.1842601,-80.970868)" />
    <path
       sodipodi:type="star"
       style="fill:#000000;stroke-width:0.264583"
       id="path1-7-56"
       inkscape:flatsided="false"
       sodipodi:sides="4"
       sodipodi:cx="63.175137"
       sodipodi:cy="85.936928"
       sodipodi:r1="48.58786"
       sodipodi:r2="9.7175722"
       sodipodi:arg1="-1.5707963"
       sodipodi:arg2="-0.78539816"
       inkscape:rounded="0.08"
       inkscape:randomized="0.03"
       d="m 62.013114,37.880289 c 3.370134,-0.07291 5.171369,40.164938 7.620227,42.432257 2.448857,2.267318 40.866669,1.323714 40.813429,4.739075 -0.0533,3.415361 -38.502342,3.98421 -40.817602,6.512522 -2.31526,2.528312 -4.215599,43.378607 -7.613103,43.420917 -3.397504,0.0423 -2.995748,-39.200233 -5.406273,-41.615909 C 54.199268,90.953474 15.059351,88.155385 15.031036,84.82284 15.002721,81.490295 54.1776,81.606929 56.613965,79.202282 59.050329,76.797634 58.642981,37.9532 62.013114,37.880289 Z"
       transform="matrix(0.12963961,0,0,0.12963961,-52.287968,-80.334768)" />
    <path
       sodipodi:type="star"
       style="fill:#000000;stroke-width:0.264583"
       id="path1-6-93"
       inkscape:flatsided="false"
       sodipodi:sides="4"
       sodipodi:cx="63.175137"
       sodipodi:cy="85.936928"
       sodipodi:r1="48.58786"
       sodipodi:r2="9.7175722"
       sodipodi:arg1="-1.5707963"
       sodipodi:arg2="-0.78539816"
       inkscape:rounded="0.08"
       inkscape:randomized="0.03"
       d="m 62.013114,37.880289 c 3.370134,-0.07291 5.171369,40.164938 7.620227,42.432257 2.448857,2.267318 40.866669,1.323714 40.813429,4.739075 -0.0533,3.415361 -38.502342,3.98421 -40.817602,6.512522 -2.31526,2.528312 -4.215599,43.378607 -7.613103,43.420917 -3.397504,0.0423 -2.995748,-39.200233 -5.406273,-41.615909 C 54.199268,90.953474 15.059351,88.155385 15.031036,84.82284 15.002721,81.490295 54.1776,81.606929 56.613965,79.202282 59.050329,76.797634 58.642981,37.9532 62.013114,37.880289 Z"
       inkscape:transform-center-y="2.7054852e-06"
       transform="matrix(0.233234,0,0,0.233234,-56.103435,-52.426675)" />
    <path
       sodipodi:type="star"
       style="fill:#000000;stroke-width:0.264583"
       id="path1-2"
       inkscape:flatsided="false"
       sodipodi:sides="4"
       sodipodi:cx="63.175137"
       sodipodi:cy="85.936928"
       sodipodi:r1="48.58786"
       sodipodi:r2="9.7175722"
       sodipodi:arg1="-1.5707963"
       sodipodi:arg2="-0.78539816"
       inkscape:rounded="0.08"
       inkscape:randomized="0.03"
       d="m 62.013114,37.880289 c 3.370134,-0.07291 5.171369,40.164938 7.620227,42.432257 2.448857,2.267318 40.866669,1.323714 40.813429,4.739075 -0.0533,3.415361 -38.502342,3.98421 -40.817602,6.512522 -2.31526,2.528312 -4.215599,43.378607 -7.613103,43.420917 -3.397504,0.0423 -2.995748,-39.200233 -5.406273,-41.615909 C 54.199268,90.953474 15.059351,88.155385 15.031036,84.82284 15.002721,81.490295 54.1776,81.606929 56.613965,79.202282 59.050329,76.797634 58.642981,37.9532 62.013114,37.880289 Z"
       inkscape:transform-center-y="1.5955276e-06"
       transform="matrix(0.3099709,0,0,0.3099709,-128.42196,-168.29485)"
       inkscape:transform-center-x="5.9779407e-06" />
    <path
       sodipodi:type="star"
       style="fill:#000000;stroke-width:0.264583"
       id="path1-5-5"
       inkscape:flatsided="false"
       sodipodi:sides="4"
       sodipodi:cx="63.175137"
       sodipodi:cy="85.936928"
       sodipodi:r1="48.58786"
       sodipodi:r2="9.7175722"
       sodipodi:arg1="-1.5707963"
       sodipodi:arg2="-0.78539816"
       inkscape:rounded="0.08"
       inkscape:randomized="0.03"
       d="m 62.013114,37.880289 c 3.370134,-0.07291 5.171369,40.164938 7.620227,42.432257 2.448857,2.267318 40.866669,1.323714 40.813429,4.739075 -0.0533,3.415361 -38.502342,3.98421 -40.817602,6.512522 -2.31526,2.528312 -4.215599,43.378607 -7.613103,43.420917 -3.397504,0.0423 -2.995748,-39.200233 -5.406273,-41.615909 C 54.199268,90.953474 15.059351,88.155385 15.031036,84.82284 15.002721,81.490295 54.1776,81.606929 56.613965,79.202282 59.050329,76.797634 58.642981,37.9532 62.013114,37.880289 Z"
       inkscape:transform-center-y="-3.7005593e-06"
       transform="matrix(0.13313991,0,0,0.13313991,-98.843325,-158.37251)" />
    <path
       sodipodi:type="star"
       style="fill:#000000;stroke-width:0.264583"
       id="path1-7-4"
       inkscape:flatsided="false"
       sodipodi:sides="4"
       sodipodi:cx="63.175137"
       sodipodi:cy="85.936928"
       sodipodi:r1="48.58786"
       sodipodi:r2="9.7175722"
       sodipodi:arg1="-1.5707963"
       sodipodi:arg2="-0.78539816"
       inkscape:rounded="0.08"
       inkscape:randomized="0.03"
       d="m 62.013114,37.880289 c 3.370134,-0.07291 5.171369,40.164938 7.620227,42.432257 2.448857,2.267318 40.866669,1.323714 40.813429,4.739075 -0.0533,3.415361 -38.502342,3.98421 -40.817602,6.512522 -2.31526,2.528312 -4.215599,43.378607 -7.613103,43.420917 -3.397504,0.0423 -2.995748,-39.200233 -5.406273,-41.615909 C 54.199268,90.953474 15.059351,88.155385 15.031036,84.82284 15.002721,81.490295 54.1776,81.606929 56.613965,79.202282 59.050329,76.797634 58.642981,37.9532 62.013114,37.880289 Z"
       transform="matrix(0.08036901,0,0,0.08036901,-126.805,-157.97816)" />
    <path
       sodipodi:type="star"
       style="fill:#000000;stroke-width:0.264583"
       id="path1-6-7"
       inkscape:flatsided="false"
       sodipodi:sides="4"
       sodipodi:cx="63.175137"
       sodipodi:cy="85.936928"
       sodipodi:r1="48.58786"
       sodipodi:r2="9.7175722"
       sodipodi:arg1="-1.5707963"
       sodipodi:arg2="-0.78539816"
       inkscape:rounded="0.08"
       inkscape:randomized="0.03"
       d="m 62.013114,37.880289 c 3.370134,-0.07291 5.171369,40.164938 7.620227,42.432257 2.448857,2.267318 40.866669,1.323714 40.813429,4.739075 -0.0533,3.415361 -38.502342,3.98421 -40.817602,6.512522 -2.31526,2.528312 -4.215599,43.378607 -7.613103,43.420917 -3.397504,0.0423 -2.995748,-39.200233 -5.406273,-41.615909 C 54.199268,90.953474 15.059351,88.155385 15.031036,84.82284 15.002721,81.490295 54.1776,81.606929 56.613965,79.202282 59.050329,76.797634 58.642981,37.9532 62.013114,37.880289 Z"
       transform="matrix(0.233234,0,0,0.233234,-156.7774,-149.39647)"
       inkscape:transform-center-x="4.6136824e-06" />
    <path
       sodipodi:type="star"
       style="fill:#000000;stroke-width:0.264583"
       id="path1-0"
       inkscape:flatsided="false"
       sodipodi:sides="4"
       sodipodi:cx="63.175137"
       sodipodi:cy="85.936928"
       sodipodi:r1="48.58786"
       sodipodi:r2="9.7175722"
       sodipodi:arg1="-1.5707963"
       sodipodi:arg2="-0.78539816"
       inkscape:rounded="0.08"
       inkscape:randomized="0.03"
       d="m 62.013114,37.880289 c 3.370134,-0.07291 5.171369,40.164938 7.620227,42.432257 2.448857,2.267318 40.866669,1.323714 40.813429,4.739075 -0.0533,3.415361 -38.502342,3.98421 -40.817602,6.512522 -2.31526,2.528312 -4.215599,43.378607 -7.613103,43.420917 -3.397504,0.0423 -2.995748,-39.200233 -5.406273,-41.615909 C 54.199268,90.953474 15.059351,88.155385 15.031036,84.82284 15.002721,81.490295 54.1776,81.606929 56.613965,79.202282 59.050329,76.797634 58.642981,37.9532 62.013114,37.880289 Z"
       transform="matrix(0.5,0,0,0.5,-210.6035,38.622802)"
       inkscape:transform-center-x="4.927377e-06" />
    <path
       sodipodi:type="star"
       style="fill:#000000;stroke-width:0.264583"
       id="path1-5-78"
       inkscape:flatsided="false"
       sodipodi:sides="4"
       sodipodi:cx="63.175137"
       sodipodi:cy="85.936928"
       sodipodi:r1="48.58786"
       sodipodi:r2="9.7175722"
       sodipodi:arg1="-1.5707963"
       sodipodi:arg2="-0.78539816"
       inkscape:rounded="0.08"
       inkscape:randomized="0.03"
       d="m 62.013114,37.880289 c 3.370134,-0.07291 5.171369,40.164938 7.620227,42.432257 2.448857,2.267318 40.866669,1.323714 40.813429,4.739075 -0.0533,3.415361 -38.502342,3.98421 -40.817602,6.512522 -2.31526,2.528312 -4.215599,43.378607 -7.613103,43.420917 -3.397504,0.0423 -2.995748,-39.200233 -5.406273,-41.615909 C 54.199268,90.953474 15.059351,88.155385 15.031036,84.82284 15.002721,81.490295 54.1776,81.606929 56.613965,79.202282 59.050329,76.797634 58.642981,37.9532 62.013114,37.880289 Z"
       transform="matrix(0.21476195,0,0,0.21476195,-140.69955,54.785452)"
       inkscape:transform-center-x="4.927377e-06" />
    <path
       sodipodi:type="star"
       style="fill:#000000;stroke-width:0.264583"
       id="path1-7-6"
       inkscape:flatsided="false"
       sodipodi:sides="4"
       sodipodi:cx="63.175137"
       sodipodi:cy="85.936928"
       sodipodi:r1="48.58786"
       sodipodi:r2="9.7175722"
       sodipodi:arg1="-1.5707963"
       sodipodi:arg2="-0.78539816"
       inkscape:rounded="0.08"
       inkscape:randomized="0.03"
       d="m 62.013114,37.880289 c 3.370134,-0.07291 5.171369,40.164938 7.620227,42.432257 2.448857,2.267318 40.866669,1.323714 40.813429,4.739075 -0.0533,3.415361 -38.502342,3.98421 -40.817602,6.512522 -2.31526,2.528312 -4.215599,43.378607 -7.613103,43.420917 -3.397504,0.0423 -2.995748,-39.200233 -5.406273,-41.615909 C 54.199268,90.953474 15.059351,88.155385 15.031036,84.82284 15.002721,81.490295 54.1776,81.606929 56.613965,79.202282 59.050329,76.797634 58.642981,37.9532 62.013114,37.880289 Z"
       transform="matrix(0.12963961,0,0,0.12963961,-207.99526,55.264187)" />
    <path
       sodipodi:type="star"
       style="fill:#000000;stroke-width:0.264583"
       id="path1-6-8"
       inkscape:flatsided="false"
       sodipodi:sides="4"
       sodipodi:cx="63.175137"
       sodipodi:cy="85.936928"
       sodipodi:r1="48.58786"
       sodipodi:r2="9.7175722"
       sodipodi:arg1="-1.5707963"
       sodipodi:arg2="-0.78539816"
       inkscape:rounded="0.08"
       inkscape:randomized="0.03"
       d="m 62.013114,37.880289 c 3.370134,-0.07291 5.171369,40.164938 7.620227,42.432257 2.448857,2.267318 40.866669,1.323714 40.813429,4.739075 -0.0533,3.415361 -38.502342,3.98421 -40.817602,6.512522 -2.31526,2.528312 -4.215599,43.378607 -7.613103,43.420917 -3.397504,0.0423 -2.995748,-39.200233 -5.406273,-41.615909 C 54.199268,90.953474 15.059351,88.155385 15.031036,84.82284 15.002721,81.490295 54.1776,81.606929 56.613965,79.202282 59.050329,76.797634 58.642981,37.9532 62.013114,37.880289 Z"
       inkscape:transform-center-y="2.7054852e-06"
       transform="matrix(0.233234,0,0,0.233234,-211.81073,83.172282)"
       inkscape:transform-center-x="4.6136824e-06" />
    <path
       sodipodi:type="star"
       style="fill:#000000;stroke-width:0.264583"
       id="path1-1"
       inkscape:flatsided="false"
       sodipodi:sides="4"
       sodipodi:cx="63.175137"
       sodipodi:cy="85.936928"
       sodipodi:r1="48.58786"
       sodipodi:r2="9.7175722"
       sodipodi:arg1="-1.5707963"
       sodipodi:arg2="-0.78539816"
       inkscape:rounded="0.08"
       inkscape:randomized="0.03"
       d="m 62.013114,37.880289 c 3.370134,-0.07291 5.171369,40.164938 7.620227,42.432257 2.448857,2.267318 40.866669,1.323714 40.813429,4.739075 -0.0533,3.415361 -38.502342,3.98421 -40.817602,6.512522 -2.31526,2.528312 -4.215599,43.378607 -7.613103,43.420917 -3.397504,0.0423 -2.995748,-39.200233 -5.406273,-41.615909 C 54.199268,90.953474 15.059351,88.155385 15.031036,84.82284 15.002721,81.490295 54.1776,81.606929 56.613965,79.202282 59.050329,76.797634 58.642981,37.9532 62.013114,37.880289 Z"
       inkscape:transform-center-y="2.8049965e-06"
       transform="matrix(0.5,0,0,0.5,-214.65756,-114.71589)"
       inkscape:transform-center-x="4.927377e-06" />
    <path
       sodipodi:type="star"
       style="fill:#000000;stroke-width:0.264583"
       id="path1-5-49"
       inkscape:flatsided="false"
       sodipodi:sides="4"
       sodipodi:cx="63.175137"
       sodipodi:cy="85.936928"
       sodipodi:r1="48.58786"
       sodipodi:r2="9.7175722"
       sodipodi:arg1="-1.5707963"
       sodipodi:arg2="-0.78539816"
       inkscape:rounded="0.08"
       inkscape:randomized="0.03"
       d="m 62.013114,37.880289 c 3.370134,-0.07291 5.171369,40.164938 7.620227,42.432257 2.448857,2.267318 40.866669,1.323714 40.813429,4.739075 -0.0533,3.415361 -38.502342,3.98421 -40.817602,6.512522 -2.31526,2.528312 -4.215599,43.378607 -7.613103,43.420917 -3.397504,0.0423 -2.995748,-39.200233 -5.406273,-41.615909 C 54.199268,90.953474 15.059351,88.155385 15.031036,84.82284 15.002721,81.490295 54.1776,81.606929 56.613965,79.202282 59.050329,76.797634 58.642981,37.9532 62.013114,37.880289 Z"
       inkscape:transform-center-y="-1.418541e-06"
       transform="matrix(0.25769933,0,0,0.25769933,-170.27085,-76.183443)"
       inkscape:transform-center-x="5.8159191e-06" />
    <path
       sodipodi:type="star"
       style="fill:#000000;stroke-width:0.264583"
       id="path1-7-20"
       inkscape:flatsided="false"
       sodipodi:sides="4"
       sodipodi:cx="63.175137"
       sodipodi:cy="85.936928"
       sodipodi:r1="48.58786"
       sodipodi:r2="9.7175722"
       sodipodi:arg1="-1.5707963"
       sodipodi:arg2="-0.78539816"
       inkscape:rounded="0.08"
       inkscape:randomized="0.03"
       d="m 62.013114,37.880289 c 3.370134,-0.07291 5.171369,40.164938 7.620227,42.432257 2.448857,2.267318 40.866669,1.323714 40.813429,4.739075 -0.0533,3.415361 -38.502342,3.98421 -40.817602,6.512522 -2.31526,2.528312 -4.215599,43.378607 -7.613103,43.420917 -3.397504,0.0423 -2.995748,-39.200233 -5.406273,-41.615909 C 54.199268,90.953474 15.059351,88.155385 15.031036,84.82284 15.002721,81.490295 54.1776,81.606929 56.613965,79.202282 59.050329,76.797634 58.642981,37.9532 62.013114,37.880289 Z"
       transform="matrix(0.15555846,0,0,0.15555846,-224.39214,-75.420168)" />
    <path
       sodipodi:type="star"
       style="fill:#000000;stroke-width:0.264583"
       id="path1-6-6"
       inkscape:flatsided="false"
       sodipodi:sides="4"
       sodipodi:cx="63.175137"
       sodipodi:cy="85.936928"
       sodipodi:r1="48.58786"
       sodipodi:r2="9.7175722"
       sodipodi:arg1="-1.5707963"
       sodipodi:arg2="-0.78539816"
       inkscape:rounded="0.08"
       inkscape:randomized="0.03"
       d="m 62.013114,37.880289 c 3.370134,-0.07291 5.171369,40.164938 7.620227,42.432257 2.448857,2.267318 40.866669,1.323714 40.813429,4.739075 -0.0533,3.415361 -38.502342,3.98421 -40.817602,6.512522 -2.31526,2.528312 -4.215599,43.378607 -7.613103,43.420917 -3.397504,0.0423 -2.995748,-39.200233 -5.406273,-41.615909 C 54.199268,90.953474 15.059351,88.155385 15.031036,84.82284 15.002721,81.490295 54.1776,81.606929 56.613965,79.202282 59.050329,76.797634 58.642981,37.9532 62.013114,37.880289 Z"
       inkscape:transform-center-y="2.7054852e-06"
       transform="matrix(0.233234,0,0,0.233234,-227.81802,-41.843345)" />
    <path
       sodipodi:type="star"
       style="fill:#000000;stroke-width:0.264583"
       id="path1-66"
       inkscape:flatsided="false"
       sodipodi:sides="4"
       sodipodi:cx="63.175137"
       sodipodi:cy="85.936928"
       sodipodi:r1="48.58786"
       sodipodi:r2="9.7175722"
       sodipodi:arg1="-1.5707963"
       sodipodi:arg2="-0.78539816"
       inkscape:rounded="0.08"
       inkscape:randomized="0.03"
       d="m 62.013114,37.880289 c 3.370134,-0.07291 5.171369,40.164938 7.620227,42.432257 2.448857,2.267318 40.866669,1.323714 40.813429,4.739075 -0.0533,3.415361 -38.502342,3.98421 -40.817602,6.512522 -2.31526,2.528312 -4.215599,43.378607 -7.613103,43.420917 -3.397504,0.0423 -2.995748,-39.200233 -5.406273,-41.615909 C 54.199268,90.953474 15.059351,88.155385 15.031036,84.82284 15.002721,81.490295 54.1776,81.606929 56.613965,79.202282 59.050329,76.797634 58.642981,37.9532 62.013114,37.880289 Z"
       transform="matrix(0.5,0,0,0.5,-79.89933,-2.6521968)" />
    <path
       sodipodi:type="star"
       style="fill:#000000;stroke-width:0.264583"
       id="path1-5-495"
       inkscape:flatsided="false"
       sodipodi:sides="4"
       sodipodi:cx="63.175137"
       sodipodi:cy="85.936928"
       sodipodi:r1="48.58786"
       sodipodi:r2="9.7175722"
       sodipodi:arg1="-1.5707963"
       sodipodi:arg2="-0.78539816"
       inkscape:rounded="0.08"
       inkscape:randomized="0.03"
       d="m 62.013114,37.880289 c 3.370134,-0.07291 5.171369,40.164938 7.620227,42.432257 2.448857,2.267318 40.866669,1.323714 40.813429,4.739075 -0.0533,3.415361 -38.502342,3.98421 -40.817602,6.512522 -2.31526,2.528312 -4.215599,43.378607 -7.613103,43.420917 -3.397504,0.0423 -2.995748,-39.200233 -5.406273,-41.615909 C 54.199268,90.953474 15.059351,88.155385 15.031036,84.82284 15.002721,81.490295 54.1776,81.606929 56.613965,79.202282 59.050329,76.797634 58.642981,37.9532 62.013114,37.880289 Z"
       transform="matrix(0.21476195,0,0,0.21476195,-32.187386,13.35309)" />
    <path
       sodipodi:type="star"
       style="fill:#000000;stroke-width:0.264583"
       id="path1-7-0"
       inkscape:flatsided="false"
       sodipodi:sides="4"
       sodipodi:cx="63.175137"
       sodipodi:cy="85.936928"
       sodipodi:r1="48.58786"
       sodipodi:r2="9.7175722"
       sodipodi:arg1="-1.5707963"
       sodipodi:arg2="-0.78539816"
       inkscape:rounded="0.08"
       inkscape:randomized="0.03"
       d="m 62.013114,37.880289 c 3.370134,-0.07291 5.171369,40.164938 7.620227,42.432257 2.448857,2.267318 40.866669,1.323714 40.813429,4.739075 -0.0533,3.415361 -38.502342,3.98421 -40.817602,6.512522 -2.31526,2.528312 -4.215599,43.378607 -7.613103,43.420917 -3.397504,0.0423 -2.995748,-39.200233 -5.406273,-41.615909 C 54.199268,90.953474 15.059351,88.155385 15.031036,84.82284 15.002721,81.490295 54.1776,81.606929 56.613965,79.202282 59.050329,76.797634 58.642981,37.9532 62.013114,37.880289 Z"
       transform="matrix(0.12963961,0,0,0.12963961,-77.291095,13.989189)" />
    <path
       sodipodi:type="star"
       style="fill:#000000;stroke-width:0.264583"
       id="path1-6-48"
       inkscape:flatsided="false"
       sodipodi:sides="4"
       sodipodi:cx="63.175137"
       sodipodi:cy="85.936928"
       sodipodi:r1="48.58786"
       sodipodi:r2="9.7175722"
       sodipodi:arg1="-1.5707963"
       sodipodi:arg2="-0.78539816"
       inkscape:rounded="0.08"
       inkscape:randomized="0.03"
       d="m 62.013114,37.880289 c 3.370134,-0.07291 5.171369,40.164938 7.620227,42.432257 2.448857,2.267318 40.866669,1.323714 40.813429,4.739075 -0.0533,3.415361 -38.502342,3.98421 -40.817602,6.512522 -2.31526,2.528312 -4.215599,43.378607 -7.613103,43.420917 -3.397504,0.0423 -2.995748,-39.200233 -5.406273,-41.615909 C 54.199268,90.953474 15.059351,88.155385 15.031036,84.82284 15.002721,81.490295 54.1776,81.606929 56.613965,79.202282 59.050329,76.797634 58.642981,37.9532 62.013114,37.880289 Z"
       inkscape:transform-center-y="2.7054852e-06"
       transform="matrix(0.233234,0,0,0.233234,-81.10656,41.897282)" />
    <path
       sodipodi:type="star"
       style="fill:#000000;stroke-width:0.264583"
       id="path1-27"
       inkscape:flatsided="false"
       sodipodi:sides="4"
       sodipodi:cx="63.175137"
       sodipodi:cy="85.936928"
       sodipodi:r1="48.58786"
       sodipodi:r2="9.7175722"
       sodipodi:arg1="-1.5707963"
       sodipodi:arg2="-0.78539816"
       inkscape:rounded="0.08"
       inkscape:randomized="0.03"
       d="m 62.013114,37.880289 c 3.370134,-0.07291 5.171369,40.164938 7.620227,42.432257 2.448857,2.267318 40.866669,1.323714 40.813429,4.739075 -0.0533,3.415361 -38.502342,3.98421 -40.817602,6.512522 -2.31526,2.528312 -4.215599,43.378607 -7.613103,43.420917 -3.397504,0.0423 -2.995748,-39.200233 -5.406273,-41.615909 C 54.199268,90.953474 15.059351,88.155385 15.031036,84.82284 15.002721,81.490295 54.1776,81.606929 56.613965,79.202282 59.050329,76.797634 58.642981,37.9532 62.013114,37.880289 Z"
       inkscape:transform-center-y="-2.1950035e-06"
       transform="matrix(0.5,0,0,0.5,-48.546205,-209.82095)" />
    <path
       sodipodi:type="star"
       style="fill:#000000;stroke-width:0.264583"
       id="path1-5-2"
       inkscape:flatsided="false"
       sodipodi:sides="4"
       sodipodi:cx="63.175137"
       sodipodi:cy="85.936928"
       sodipodi:r1="48.58786"
       sodipodi:r2="9.7175722"
       sodipodi:arg1="-1.5707963"
       sodipodi:arg2="-0.78539816"
       inkscape:rounded="0.08"
       inkscape:randomized="0.03"
       d="m 62.013114,37.880289 c 3.370134,-0.07291 5.171369,40.164938 7.620227,42.432257 2.448857,2.267318 40.866669,1.323714 40.813429,4.739075 -0.0533,3.415361 -38.502342,3.98421 -40.817602,6.512522 -2.31526,2.528312 -4.215599,43.378607 -7.613103,43.420917 -3.397504,0.0423 -2.995748,-39.200233 -5.406273,-41.615909 C 54.199268,90.953474 15.059351,88.155385 15.031036,84.82284 15.002721,81.490295 54.1776,81.606929 56.613965,79.202282 59.050329,76.797634 58.642981,37.9532 62.013114,37.880289 Z"
       inkscape:transform-center-y="2.6903004e-06"
       transform="matrix(0.21476195,0,0,0.21476195,-0.83426007,-193.81566)" />
    <path
       sodipodi:type="star"
       style="fill:#000000;stroke-width:0.264583"
       id="path1-7-26"
       inkscape:flatsided="false"
       sodipodi:sides="4"
       sodipodi:cx="63.175137"
       sodipodi:cy="85.936928"
       sodipodi:r1="48.58786"
       sodipodi:r2="9.7175722"
       sodipodi:arg1="-1.5707963"
       sodipodi:arg2="-0.78539816"
       inkscape:rounded="0.08"
       inkscape:randomized="0.03"
       d="m 62.013114,37.880289 c 3.370134,-0.07291 5.171369,40.164938 7.620227,42.432257 2.448857,2.267318 40.866669,1.323714 40.813429,4.739075 -0.0533,3.415361 -38.502342,3.98421 -40.817602,6.512522 -2.31526,2.528312 -4.215599,43.378607 -7.613103,43.420917 -3.397504,0.0423 -2.995748,-39.200233 -5.406273,-41.615909 C 54.199268,90.953474 15.059351,88.155385 15.031036,84.82284 15.002721,81.490295 54.1776,81.606929 56.613965,79.202282 59.050329,76.797634 58.642981,37.9532 62.013114,37.880289 Z"
       transform="matrix(0.12963961,0,0,0.12963961,-45.937968,-193.17956)" />
    <path
       sodipodi:type="star"
       style="fill:#000000;stroke-width:0.264583"
       id="path1-6-1"
       inkscape:flatsided="false"
       sodipodi:sides="4"
       sodipodi:cx="63.175137"
       sodipodi:cy="85.936928"
       sodipodi:r1="48.58786"
       sodipodi:r2="9.7175722"
       sodipodi:arg1="-1.5707963"
       sodipodi:arg2="-0.78539816"
       inkscape:rounded="0.08"
       inkscape:randomized="0.03"
       d="m 62.013114,37.880289 c 3.370134,-0.07291 5.171369,40.164938 7.620227,42.432257 2.448857,2.267318 40.866669,1.323714 40.813429,4.739075 -0.0533,3.415361 -38.502342,3.98421 -40.817602,6.512522 -2.31526,2.528312 -4.215599,43.378607 -7.613103,43.420917 -3.397504,0.0423 -2.995748,-39.200233 -5.406273,-41.615909 C 54.199268,90.953474 15.059351,88.155385 15.031036,84.82284 15.002721,81.490295 54.1776,81.606929 56.613965,79.202282 59.050329,76.797634 58.642981,37.9532 62.013114,37.880289 Z"
       transform="matrix(0.233234,0,0,0.233234,-49.753435,-165.27147)" />
    <path
       sodipodi:type="star"
       style="fill:#000000;stroke-width:0.264583"
       id="path1-59"
       inkscape:flatsided="false"
       sodipodi:sides="4"
       sodipodi:cx="63.175137"
       sodipodi:cy="85.936928"
       sodipodi:r1="48.58786"
       sodipodi:r2="9.7175722"
       sodipodi:arg1="-1.5707963"
       sodipodi:arg2="-0.78539816"
       inkscape:rounded="0.08"
       inkscape:randomized="0.03"
       d="m 62.013114,37.880289 c 3.370134,-0.07291 5.171369,40.164938 7.620227,42.432257 2.448857,2.267318 40.866669,1.323714 40.813429,4.739075 -0.0533,3.415361 -38.502342,3.98421 -40.817602,6.512522 -2.31526,2.528312 -4.215599,43.378607 -7.613103,43.420917 -3.397504,0.0423 -2.995748,-39.200233 -5.406273,-41.615909 C 54.199268,90.953474 15.059351,88.155385 15.031036,84.82284 15.002721,81.490295 54.1776,81.606929 56.613965,79.202282 59.050329,76.797634 58.642981,37.9532 62.013114,37.880289 Z"
       inkscape:transform-center-y="-2.1950034e-06"
       transform="matrix(0.5,0,0,0.5,-138.63683,-118.67199)" />
    <path
       sodipodi:type="star"
       style="fill:#000000;stroke-width:0.264583"
       id="path1-5-490"
       inkscape:flatsided="false"
       sodipodi:sides="4"
       sodipodi:cx="63.175137"
       sodipodi:cy="85.936928"
       sodipodi:r1="48.58786"
       sodipodi:r2="9.7175722"
       sodipodi:arg1="-1.5707963"
       sodipodi:arg2="-0.78539816"
       inkscape:rounded="0.08"
       inkscape:randomized="0.03"
       d="m 62.013114,37.880289 c 3.370134,-0.07291 5.171369,40.164938 7.620227,42.432257 2.448857,2.267318 40.866669,1.323714 40.813429,4.739075 -0.0533,3.415361 -38.502342,3.98421 -40.817602,6.512522 -2.31526,2.528312 -4.215599,43.378607 -7.613103,43.420917 -3.397504,0.0423 -2.995748,-39.200233 -5.406273,-41.615909 C 54.199268,90.953474 15.059351,88.155385 15.031036,84.82284 15.002721,81.490295 54.1776,81.606929 56.613965,79.202282 59.050329,76.797634 58.642981,37.9532 62.013114,37.880289 Z"
       inkscape:transform-center-y="2.6903004e-06"
       transform="matrix(0.21476195,0,0,0.21476195,-90.924885,-102.6667)" />
    <path
       sodipodi:type="star"
       style="fill:#000000;stroke-width:0.264583"
       id="path1-7-9"
       inkscape:flatsided="false"
       sodipodi:sides="4"
       sodipodi:cx="63.175137"
       sodipodi:cy="85.936928"
       sodipodi:r1="48.58786"
       sodipodi:r2="9.7175722"
       sodipodi:arg1="-1.5707963"
       sodipodi:arg2="-0.78539816"
       inkscape:rounded="0.08"
       inkscape:randomized="0.03"
       d="m 62.013114,37.880289 c 3.370134,-0.07291 5.171369,40.164938 7.620227,42.432257 2.448857,2.267318 40.866669,1.323714 40.813429,4.739075 -0.0533,3.415361 -38.502342,3.98421 -40.817602,6.512522 -2.31526,2.528312 -4.215599,43.378607 -7.613103,43.420917 -3.397504,0.0423 -2.995748,-39.200233 -5.406273,-41.615909 C 54.199268,90.953474 15.059351,88.155385 15.031036,84.82284 15.002721,81.490295 54.1776,81.606929 56.613965,79.202282 59.050329,76.797634 58.642981,37.9532 62.013114,37.880289 Z"
       transform="matrix(0.12963961,0,0,0.12963961,-136.0286,-102.0306)" />
    <path
       sodipodi:type="star"
       style="fill:#000000;stroke-width:0.264583"
       id="path1-6-17"
       inkscape:flatsided="false"
       sodipodi:sides="4"
       sodipodi:cx="63.175137"
       sodipodi:cy="85.936928"
       sodipodi:r1="48.58786"
       sodipodi:r2="9.7175722"
       sodipodi:arg1="-1.5707963"
       sodipodi:arg2="-0.78539816"
       inkscape:rounded="0.08"
       inkscape:randomized="0.03"
       d="m 62.013114,37.880289 c 3.370134,-0.07291 5.171369,40.164938 7.620227,42.432257 2.448857,2.267318 40.866669,1.323714 40.813429,4.739075 -0.0533,3.415361 -38.502342,3.98421 -40.817602,6.512522 -2.31526,2.528312 -4.215599,43.378607 -7.613103,43.420917 -3.397504,0.0423 -2.995748,-39.200233 -5.406273,-41.615909 C 54.199268,90.953474 15.059351,88.155385 15.031036,84.82284 15.002721,81.490295 54.1776,81.606929 56.613965,79.202282 59.050329,76.797634 58.642981,37.9532 62.013114,37.880289 Z"
       inkscape:transform-center-y="2.7054852e-06"
       transform="matrix(0.233234,0,0,0.233234,-139.84406,-74.122508)" />
    <path
       sodipodi:type="star"
       style="fill:#000000;stroke-width:0.264583"
       id="path1-597"
       inkscape:flatsided="false"
       sodipodi:sides="4"
       sodipodi:cx="63.175137"
       sodipodi:cy="85.936928"
       sodipodi:r1="48.58786"
       sodipodi:r2="9.7175722"
       sodipodi:arg1="-1.5707963"
       sodipodi:arg2="-0.78539816"
       inkscape:rounded="0.08"
       inkscape:randomized="0.03"
       d="m 62.013114,37.880289 c 3.370134,-0.07291 5.171369,40.164938 7.620227,42.432257 2.448857,2.267318 40.866669,1.323714 40.813429,4.739075 -0.0533,3.415361 -38.502342,3.98421 -40.817602,6.512522 -2.31526,2.528312 -4.215599,43.378607 -7.613103,43.420917 -3.397504,0.0423 -2.995748,-39.200233 -5.406273,-41.615909 C 54.199268,90.953474 15.059351,88.155385 15.031036,84.82284 15.002721,81.490295 54.1776,81.606929 56.613965,79.202282 59.050329,76.797634 58.642981,37.9532 62.013114,37.880289 Z"
       inkscape:transform-center-y="-2.1950035e-06"
       transform="matrix(0.5,0,0,0.5,53.548165,-182.04903)" />
    <path
       sodipodi:type="star"
       style="fill:#000000;stroke-width:0.264583"
       id="path1-5-767"
       inkscape:flatsided="false"
       sodipodi:sides="4"
       sodipodi:cx="63.175137"
       sodipodi:cy="85.936928"
       sodipodi:r1="48.58786"
       sodipodi:r2="9.7175722"
       sodipodi:arg1="-1.5707963"
       sodipodi:arg2="-0.78539816"
       inkscape:rounded="0.08"
       inkscape:randomized="0.03"
       d="m 62.013114,37.880289 c 3.370134,-0.07291 5.171369,40.164938 7.620227,42.432257 2.448857,2.267318 40.866669,1.323714 40.813429,4.739075 -0.0533,3.415361 -38.502342,3.98421 -40.817602,6.512522 -2.31526,2.528312 -4.215599,43.378607 -7.613103,43.420917 -3.397504,0.0423 -2.995748,-39.200233 -5.406273,-41.615909 C 54.199268,90.953474 15.059351,88.155385 15.031036,84.82284 15.002721,81.490295 54.1776,81.606929 56.613965,79.202282 59.050329,76.797634 58.642981,37.9532 62.013114,37.880289 Z"
       inkscape:transform-center-y="-2.3096996e-06"
       transform="matrix(0.21476195,0,0,0.21476195,164.9272,-200.69483)" />
    <path
       sodipodi:type="star"
       style="fill:#000000;stroke-width:0.264583"
       id="path1-7-3"
       inkscape:flatsided="false"
       sodipodi:sides="4"
       sodipodi:cx="63.175137"
       sodipodi:cy="85.936928"
       sodipodi:r1="48.58786"
       sodipodi:r2="9.7175722"
       sodipodi:arg1="-1.5707963"
       sodipodi:arg2="-0.78539816"
       inkscape:rounded="0.08"
       inkscape:randomized="0.03"
       d="m 62.013114,37.880289 c 3.370134,-0.07291 5.171369,40.164938 7.620227,42.432257 2.448857,2.267318 40.866669,1.323714 40.813429,4.739075 -0.0533,3.415361 -38.502342,3.98421 -40.817602,6.512522 -2.31526,2.528312 -4.215599,43.378607 -7.613103,43.420917 -3.397504,0.0423 -2.995748,-39.200233 -5.406273,-41.615909 C 54.199268,90.953474 15.059351,88.155385 15.031036,84.82284 15.002721,81.490295 54.1776,81.606929 56.613965,79.202282 59.050329,76.797634 58.642981,37.9532 62.013114,37.880289 Z"
       transform="matrix(0.12963961,0,0,0.12963961,119.82349,-200.05873)" />
    <path
       sodipodi:type="star"
       style="fill:#000000;stroke-width:0.264583"
       id="path1-6-65"
       inkscape:flatsided="false"
       sodipodi:sides="4"
       sodipodi:cx="63.175137"
       sodipodi:cy="85.936928"
       sodipodi:r1="48.58786"
       sodipodi:r2="9.7175722"
       sodipodi:arg1="-1.5707963"
       sodipodi:arg2="-0.78539816"
       inkscape:rounded="0.08"
       inkscape:randomized="0.03"
       d="m 62.013114,37.880289 c 3.370134,-0.07291 5.171369,40.164938 7.620227,42.432257 2.448857,2.267318 40.866669,1.323714 40.813429,4.739075 -0.0533,3.415361 -38.502342,3.98421 -40.817602,6.512522 -2.31526,2.528312 -4.215599,43.378607 -7.613103,43.420917 -3.397504,0.0423 -2.995748,-39.200233 -5.406273,-41.615909 C 54.199268,90.953474 15.059351,88.155385 15.031036,84.82284 15.002721,81.490295 54.1776,81.606929 56.613965,79.202282 59.050329,76.797634 58.642981,37.9532 62.013114,37.880289 Z"
       inkscape:transform-center-y="5.7054853e-06"
       transform="matrix(0.233234,0,0,0.233234,116.00802,-172.15063)"
       inkscape:transform-center-x="4.6136825e-06" />
    <path
       sodipodi:type="star"
       style="fill:#000000;stroke-width:0.264583"
       id="path1-4"
       inkscape:flatsided="false"
       sodipodi:sides="4"
       sodipodi:cx="63.175137"
       sodipodi:cy="85.936928"
       sodipodi:r1="48.58786"
       sodipodi:r2="9.7175722"
       sodipodi:arg1="-1.5707963"
       sodipodi:arg2="-0.78539816"
       inkscape:rounded="0.08"
       inkscape:randomized="0.03"
       d="m 62.013114,37.880289 c 3.370134,-0.07291 5.171369,40.164938 7.620227,42.432257 2.448857,2.267318 40.866669,1.323714 40.813429,4.739075 -0.0533,3.415361 -38.502342,3.98421 -40.817602,6.512522 -2.31526,2.528312 -4.215599,43.378607 -7.613103,43.420917 -3.397504,0.0423 -2.995748,-39.200233 -5.406273,-41.615909 C 54.199268,90.953474 15.059351,88.155385 15.031036,84.82284 15.002721,81.490295 54.1776,81.606929 56.613965,79.202282 59.050329,76.797634 58.642981,37.9532 62.013114,37.880289 Z"
       inkscape:transform-center-y="-2.1950034e-06"
       transform="matrix(0.5,0,0,0.5,-13.766688,-144.85597)" />
    <path
       sodipodi:type="star"
       style="fill:#000000;stroke-width:0.264583"
       id="path1-5-81"
       inkscape:flatsided="false"
       sodipodi:sides="4"
       sodipodi:cx="63.175137"
       sodipodi:cy="85.936928"
       sodipodi:r1="48.58786"
       sodipodi:r2="9.7175722"
       sodipodi:arg1="-1.5707963"
       sodipodi:arg2="-0.78539816"
       inkscape:rounded="0.08"
       inkscape:randomized="0.03"
       d="m 62.013114,37.880289 c 3.370134,-0.07291 5.171369,40.164938 7.620227,42.432257 2.448857,2.267318 40.866669,1.323714 40.813429,4.739075 -0.0533,3.415361 -38.502342,3.98421 -40.817602,6.512522 -2.31526,2.528312 -4.215599,43.378607 -7.613103,43.420917 -3.397504,0.0423 -2.995748,-39.200233 -5.406273,-41.615909 C 54.199268,90.953474 15.059351,88.155385 15.031036,84.82284 15.002721,81.490295 54.1776,81.606929 56.613965,79.202282 59.050329,76.797634 58.642981,37.9532 62.013114,37.880289 Z"
       transform="matrix(0.21476195,0,0,0.21476195,90.182405,-55.570868)" />
    <path
       sodipodi:type="star"
       style="fill:#000000;stroke-width:0.264583"
       id="path1-7-29"
       inkscape:flatsided="false"
       sodipodi:sides="4"
       sodipodi:cx="63.175137"
       sodipodi:cy="85.936928"
       sodipodi:r1="48.58786"
       sodipodi:r2="9.7175722"
       sodipodi:arg1="-1.5707963"
       sodipodi:arg2="-0.78539816"
       inkscape:rounded="0.08"
       inkscape:randomized="0.03"
       d="m 62.013114,37.880289 c 3.370134,-0.07291 5.171369,40.164938 7.620227,42.432257 2.448857,2.267318 40.866669,1.323714 40.813429,4.739075 -0.0533,3.415361 -38.502342,3.98421 -40.817602,6.512522 -2.31526,2.528312 -4.215599,43.378607 -7.613103,43.420917 -3.397504,0.0423 -2.995748,-39.200233 -5.406273,-41.615909 C 54.199268,90.953474 15.059351,88.155385 15.031036,84.82284 15.002721,81.490295 54.1776,81.606929 56.613965,79.202282 59.050329,76.797634 58.642981,37.9532 62.013114,37.880289 Z"
       transform="matrix(0.12963961,0,0,0.12963961,45.0787,-54.934769)" />
    <path
       sodipodi:type="star"
       style="fill:#000000;stroke-width:0.264583"
       id="path1-6-3"
       inkscape:flatsided="false"
       sodipodi:sides="4"
       sodipodi:cx="63.175137"
       sodipodi:cy="85.936928"
       sodipodi:r1="48.58786"
       sodipodi:r2="9.7175722"
       sodipodi:arg1="-1.5707963"
       sodipodi:arg2="-0.78539816"
       inkscape:rounded="0.08"
       inkscape:randomized="0.03"
       d="m 62.013114,37.880289 c 3.370134,-0.07291 5.171369,40.164938 7.620227,42.432257 2.448857,2.267318 40.866669,1.323714 40.813429,4.739075 -0.0533,3.415361 -38.502342,3.98421 -40.817602,6.512522 -2.31526,2.528312 -4.215599,43.378607 -7.613103,43.420917 -3.397504,0.0423 -2.995748,-39.200233 -5.406273,-41.615909 C 54.199268,90.953474 15.059351,88.155385 15.031036,84.82284 15.002721,81.490295 54.1776,81.606929 56.613965,79.202282 59.050329,76.797634 58.642981,37.9532 62.013114,37.880289 Z"
       inkscape:transform-center-y="2.2054852e-06"
       transform="matrix(0.233234,0,0,0.233234,41.263232,-27.026677)" />
    <path
       sodipodi:type="star"
       style="fill:#000000;stroke-width:0.264583"
       id="path1-8"
       inkscape:flatsided="false"
       sodipodi:sides="4"
       sodipodi:cx="63.175137"
       sodipodi:cy="85.936928"
       sodipodi:r1="48.58786"
       sodipodi:r2="9.7175722"
       sodipodi:arg1="-1.5707963"
       sodipodi:arg2="-0.78539816"
       inkscape:rounded="0.08"
       inkscape:randomized="0.03"
       d="m 62.013114,37.880289 c 3.370134,-0.07291 5.171369,40.164938 7.620227,42.432257 2.448857,2.267318 40.866669,1.323714 40.813429,4.739075 -0.0533,3.415361 -38.502342,3.98421 -40.817602,6.512522 -2.31526,2.528312 -4.215599,43.378607 -7.613103,43.420917 -3.397504,0.0423 -2.995748,-39.200233 -5.406273,-41.615909 C 54.199268,90.953474 15.059351,88.155385 15.031036,84.82284 15.002721,81.490295 54.1776,81.606929 56.613965,79.202282 59.050329,76.797634 58.642981,37.9532 62.013114,37.880289 Z"
       inkscape:transform-center-y="2.8049966e-06"
       transform="matrix(0.5,0,0,0.5,-104.95055,-200.91511)" />
    <path
       sodipodi:type="star"
       style="fill:#000000;stroke-width:0.264583"
       id="path1-5-50"
       inkscape:flatsided="false"
       sodipodi:sides="4"
       sodipodi:cx="63.175137"
       sodipodi:cy="85.936928"
       sodipodi:r1="48.58786"
       sodipodi:r2="9.7175722"
       sodipodi:arg1="-1.5707963"
       sodipodi:arg2="-0.78539816"
       inkscape:rounded="0.08"
       inkscape:randomized="0.03"
       d="m 62.013114,37.880289 c 3.370134,-0.07291 5.171369,40.164938 7.620227,42.432257 2.448857,2.267318 40.866669,1.323714 40.813429,4.739075 -0.0533,3.415361 -38.502342,3.98421 -40.817602,6.512522 -2.31526,2.528312 -4.215599,43.378607 -7.613103,43.420917 -3.397504,0.0423 -2.995748,-39.200233 -5.406273,-41.615909 C 54.199268,90.953474 15.059351,88.155385 15.031036,84.82284 15.002721,81.490295 54.1776,81.606929 56.613965,79.202282 59.050329,76.797634 58.642981,37.9532 62.013114,37.880289 Z"
       inkscape:transform-center-y="-2.3096996e-06"
       transform="matrix(0.21476195,0,0,0.21476195,-21.074886,-141.95733)" />
    <path
       sodipodi:type="star"
       style="fill:#000000;stroke-width:0.264583"
       id="path1-7-96"
       inkscape:flatsided="false"
       sodipodi:sides="4"
       sodipodi:cx="63.175137"
       sodipodi:cy="85.936928"
       sodipodi:r1="48.58786"
       sodipodi:r2="9.7175722"
       sodipodi:arg1="-1.5707963"
       sodipodi:arg2="-0.78539816"
       inkscape:rounded="0.08"
       inkscape:randomized="0.03"
       d="m 62.013114,37.880289 c 3.370134,-0.07291 5.171369,40.164938 7.620227,42.432257 2.448857,2.267318 40.866669,1.323714 40.813429,4.739075 -0.0533,3.415361 -38.502342,3.98421 -40.817602,6.512522 -2.31526,2.528312 -4.215599,43.378607 -7.613103,43.420917 -3.397504,0.0423 -2.995748,-39.200233 -5.406273,-41.615909 C 54.199268,90.953474 15.059351,88.155385 15.031036,84.82284 15.002721,81.490295 54.1776,81.606929 56.613965,79.202282 59.050329,76.797634 58.642981,37.9532 62.013114,37.880289 Z"
       transform="matrix(0.12963961,0,0,0.12963961,-66.178595,-141.32123)" />
    <path
       sodipodi:type="star"
       style="fill:#000000;stroke-width:0.264583"
       id="path1-6-38"
       inkscape:flatsided="false"
       sodipodi:sides="4"
       sodipodi:cx="63.175137"
       sodipodi:cy="85.936928"
       sodipodi:r1="48.58786"
       sodipodi:r2="9.7175722"
       sodipodi:arg1="-1.5707963"
       sodipodi:arg2="-0.78539816"
       inkscape:rounded="0.08"
       inkscape:randomized="0.03"
       d="m 62.013114,37.880289 c 3.370134,-0.07291 5.171369,40.164938 7.620227,42.432257 2.448857,2.267318 40.866669,1.323714 40.813429,4.739075 -0.0533,3.415361 -38.502342,3.98421 -40.817602,6.512522 -2.31526,2.528312 -4.215599,43.378607 -7.613103,43.420917 -3.397504,0.0423 -2.995748,-39.200233 -5.406273,-41.615909 C 54.199268,90.953474 15.059351,88.155385 15.031036,84.82284 15.002721,81.490295 54.1776,81.606929 56.613965,79.202282 59.050329,76.797634 58.642981,37.9532 62.013114,37.880289 Z"
       inkscape:transform-center-y="5.7054853e-06"
       transform="matrix(0.233234,0,0,0.233234,-69.99406,-113.41313)" />
    <path
       sodipodi:type="star"
       style="fill:#000000;stroke-width:0.264583"
       id="path1-15"
       inkscape:flatsided="false"
       sodipodi:sides="4"
       sodipodi:cx="63.175137"
       sodipodi:cy="85.936928"
       sodipodi:r1="48.58786"
       sodipodi:r2="9.7175722"
       sodipodi:arg1="-1.5707963"
       sodipodi:arg2="-0.78539816"
       inkscape:rounded="0.08"
       inkscape:randomized="0.03"
       d="m 62.013114,37.880289 c 3.370134,-0.07291 5.171369,40.164938 7.620227,42.432257 2.448857,2.267318 40.866669,1.323714 40.813429,4.739075 -0.0533,3.415361 -38.502342,3.98421 -40.817602,6.512522 -2.31526,2.528312 -4.215599,43.378607 -7.613103,43.420917 -3.397504,0.0423 -2.995748,-39.200233 -5.406273,-41.615909 C 54.199268,90.953474 15.059351,88.155385 15.031036,84.82284 15.002721,81.490295 54.1776,81.606929 56.613965,79.202282 59.050329,76.797634 58.642981,37.9532 62.013114,37.880289 Z"
       inkscape:transform-center-y="2.8049965e-06"
       transform="matrix(0.5,0,0,0.5,121.44858,-137.19282)"
       inkscape:transform-center-x="4.9273768e-06" />
    <path
       sodipodi:type="star"
       style="fill:#000000;stroke-width:0.264583"
       id="path1-5-9"
       inkscape:flatsided="false"
       sodipodi:sides="4"
       sodipodi:cx="63.175137"
       sodipodi:cy="85.936928"
       sodipodi:r1="48.58786"
       sodipodi:r2="9.7175722"
       sodipodi:arg1="-1.5707963"
       sodipodi:arg2="-0.78539816"
       inkscape:rounded="0.08"
       inkscape:randomized="0.03"
       d="m 62.013114,37.880289 c 3.370134,-0.07291 5.171369,40.164938 7.620227,42.432257 2.448857,2.267318 40.866669,1.323714 40.813429,4.739075 -0.0533,3.415361 -38.502342,3.98421 -40.817602,6.512522 -2.31526,2.528312 -4.215599,43.378607 -7.613103,43.420917 -3.397504,0.0423 -2.995748,-39.200233 -5.406273,-41.615909 C 54.199268,90.953474 15.059351,88.155385 15.031036,84.82284 15.002721,81.490295 54.1776,81.606929 56.613965,79.202282 59.050329,76.797634 58.642981,37.9532 62.013114,37.880289 Z"
       inkscape:transform-center-y="-2.3096996e-06"
       transform="matrix(0.21476195,0,0,0.21476195,169.16053,-121.18754)" />
    <path
       sodipodi:type="star"
       style="fill:#000000;stroke-width:0.264583"
       id="path1-7-8"
       inkscape:flatsided="false"
       sodipodi:sides="4"
       sodipodi:cx="63.175137"
       sodipodi:cy="85.936928"
       sodipodi:r1="48.58786"
       sodipodi:r2="9.7175722"
       sodipodi:arg1="-1.5707963"
       sodipodi:arg2="-0.78539816"
       inkscape:rounded="0.08"
       inkscape:randomized="0.03"
       d="m 62.013114,37.880289 c 3.370134,-0.07291 5.171369,40.164938 7.620227,42.432257 2.448857,2.267318 40.866669,1.323714 40.813429,4.739075 -0.0533,3.415361 -38.502342,3.98421 -40.817602,6.512522 -2.31526,2.528312 -4.215599,43.378607 -7.613103,43.420917 -3.397504,0.0423 -2.995748,-39.200233 -5.406273,-41.615909 C 54.199268,90.953474 15.059351,88.155385 15.031036,84.82284 15.002721,81.490295 54.1776,81.606929 56.613965,79.202282 59.050329,76.797634 58.642981,37.9532 62.013114,37.880289 Z"
       transform="matrix(0.12963961,0,0,0.12963961,124.05682,-120.55144)" />
    <path
       sodipodi:type="star"
       style="fill:#000000;stroke-width:0.264583"
       id="path1-6-481"
       inkscape:flatsided="false"
       sodipodi:sides="4"
       sodipodi:cx="63.175137"
       sodipodi:cy="85.936928"
       sodipodi:r1="48.58786"
       sodipodi:r2="9.7175722"
       sodipodi:arg1="-1.5707963"
       sodipodi:arg2="-0.78539816"
       inkscape:rounded="0.08"
       inkscape:randomized="0.03"
       d="m 62.013114,37.880289 c 3.370134,-0.07291 5.171369,40.164938 7.620227,42.432257 2.448857,2.267318 40.866669,1.323714 40.813429,4.739075 -0.0533,3.415361 -38.502342,3.98421 -40.817602,6.512522 -2.31526,2.528312 -4.215599,43.378607 -7.613103,43.420917 -3.397504,0.0423 -2.995748,-39.200233 -5.406273,-41.615909 C 54.199268,90.953474 15.059351,88.155385 15.031036,84.82284 15.002721,81.490295 54.1776,81.606929 56.613965,79.202282 59.050329,76.797634 58.642981,37.9532 62.013114,37.880289 Z"
       inkscape:transform-center-y="2.7054851e-06"
       transform="matrix(0.233234,0,0,0.233234,120.24135,-92.643343)"
       inkscape:transform-center-x="4.6136825e-06" />
    <path
       sodipodi:type="star"
       style="fill:#000000;stroke-width:0.264583"
       id="path1-44"
       inkscape:flatsided="false"
       sodipodi:sides="4"
       sodipodi:cx="63.175137"
       sodipodi:cy="85.936928"
       sodipodi:r1="48.58786"
       sodipodi:r2="9.7175722"
       sodipodi:arg1="-1.5707963"
       sodipodi:arg2="-0.78539816"
       inkscape:rounded="0.08"
       inkscape:randomized="0.03"
       d="m 62.013114,37.880289 c 3.370134,-0.07291 5.171369,40.164938 7.620227,42.432257 2.448857,2.267318 40.866669,1.323714 40.813429,4.739075 -0.0533,3.415361 -38.502342,3.98421 -40.817602,6.512522 -2.31526,2.528312 -4.215599,43.378607 -7.613103,43.420917 -3.397504,0.0423 -2.995748,-39.200233 -5.406273,-41.615909 C 54.199268,90.953474 15.059351,88.155385 15.031036,84.82284 15.002721,81.490295 54.1776,81.606929 56.613965,79.202282 59.050329,76.797634 58.642981,37.9532 62.013114,37.880289 Z"
       inkscape:transform-center-y="2.8049966e-06"
       transform="matrix(0.5,0,0,0.5,11.249629,-226.22511)" />
    <path
       sodipodi:type="star"
       style="fill:#000000;stroke-width:0.264583"
       id="path1-5-44"
       inkscape:flatsided="false"
       sodipodi:sides="4"
       sodipodi:cx="63.175137"
       sodipodi:cy="85.936928"
       sodipodi:r1="48.58786"
       sodipodi:r2="9.7175722"
       sodipodi:arg1="-1.5707963"
       sodipodi:arg2="-0.78539816"
       inkscape:rounded="0.08"
       inkscape:randomized="0.03"
       d="m 62.013114,37.880289 c 3.370134,-0.07291 5.171369,40.164938 7.620227,42.432257 2.448857,2.267318 40.866669,1.323714 40.813429,4.739075 -0.0533,3.415361 -38.502342,3.98421 -40.817602,6.512522 -2.31526,2.528312 -4.215599,43.378607 -7.613103,43.420917 -3.397504,0.0423 -2.995748,-39.200233 -5.406273,-41.615909 C 54.199268,90.953474 15.059351,88.155385 15.031036,84.82284 15.002721,81.490295 54.1776,81.606929 56.613965,79.202282 59.050329,76.797634 58.642981,37.9532 62.013114,37.880289 Z"
       inkscape:transform-center-y="-2.3096996e-06"
       transform="matrix(0.21476195,0,0,0.21476195,58.961575,-210.21983)" />
    <path
       sodipodi:type="star"
       style="fill:#000000;stroke-width:0.264583"
       id="path1-7-76"
       inkscape:flatsided="false"
       sodipodi:sides="4"
       sodipodi:cx="63.175137"
       sodipodi:cy="85.936928"
       sodipodi:r1="48.58786"
       sodipodi:r2="9.7175722"
       sodipodi:arg1="-1.5707963"
       sodipodi:arg2="-0.78539816"
       inkscape:rounded="0.08"
       inkscape:randomized="0.03"
       d="m 62.013114,37.880289 c 3.370134,-0.07291 5.171369,40.164938 7.620227,42.432257 2.448857,2.267318 40.866669,1.323714 40.813429,4.739075 -0.0533,3.415361 -38.502342,3.98421 -40.817602,6.512522 -2.31526,2.528312 -4.215599,43.378607 -7.613103,43.420917 -3.397504,0.0423 -2.995748,-39.200233 -5.406273,-41.615909 C 54.199268,90.953474 15.059351,88.155385 15.031036,84.82284 15.002721,81.490295 54.1776,81.606929 56.613965,79.202282 59.050329,76.797634 58.642981,37.9532 62.013114,37.880289 Z"
       transform="matrix(0.12963961,0,0,0.12963961,13.857865,-209.58373)" />
    <path
       sodipodi:type="star"
       style="fill:#000000;stroke-width:0.264583"
       id="path1-6-31"
       inkscape:flatsided="false"
       sodipodi:sides="4"
       sodipodi:cx="63.175137"
       sodipodi:cy="85.936928"
       sodipodi:r1="48.58786"
       sodipodi:r2="9.7175722"
       sodipodi:arg1="-1.5707963"
       sodipodi:arg2="-0.78539816"
       inkscape:rounded="0.08"
       inkscape:randomized="0.03"
       d="m 62.013114,37.880289 c 3.370134,-0.07291 5.171369,40.164938 7.620227,42.432257 2.448857,2.267318 40.866669,1.323714 40.813429,4.739075 -0.0533,3.415361 -38.502342,3.98421 -40.817602,6.512522 -2.31526,2.528312 -4.215599,43.378607 -7.613103,43.420917 -3.397504,0.0423 -2.995748,-39.200233 -5.406273,-41.615909 C 54.199268,90.953474 15.059351,88.155385 15.031036,84.82284 15.002721,81.490295 54.1776,81.606929 56.613965,79.202282 59.050329,76.797634 58.642981,37.9532 62.013114,37.880289 Z"
       inkscape:transform-center-y="5.7054853e-06"
       transform="matrix(0.233234,0,0,0.233234,10.042399,-181.67563)" />
    <path
       sodipodi:type="star"
       style="fill:#000000;stroke-width:0.264583"
       id="path1-62"
       inkscape:flatsided="false"
       sodipodi:sides="4"
       sodipodi:cx="63.175137"
       sodipodi:cy="85.936928"
       sodipodi:r1="48.58786"
       sodipodi:r2="9.7175722"
       sodipodi:arg1="-1.5707963"
       sodipodi:arg2="-0.78539816"
       inkscape:rounded="0.08"
       inkscape:randomized="0.03"
       d="m 62.013114,37.880289 c 3.370134,-0.07291 5.171369,40.164938 7.620227,42.432257 2.448857,2.267318 40.866669,1.323714 40.813429,4.739075 -0.0533,3.415361 -38.502342,3.98421 -40.817602,6.512522 -2.31526,2.528312 -4.215599,43.378607 -7.613103,43.420917 -3.397504,0.0423 -2.995748,-39.200233 -5.406273,-41.615909 C 54.199268,90.953474 15.059351,88.155385 15.031036,84.82284 15.002721,81.490295 54.1776,81.606929 56.613965,79.202282 59.050329,76.797634 58.642981,37.9532 62.013114,37.880289 Z"
       inkscape:transform-center-y="2.8049966e-06"
       transform="matrix(0.5,0,0,0.5,-113.23683,-253.21261)" />
    <path
       sodipodi:type="star"
       style="fill:#000000;stroke-width:0.264583"
       id="path1-5-1"
       inkscape:flatsided="false"
       sodipodi:sides="4"
       sodipodi:cx="63.175137"
       sodipodi:cy="85.936928"
       sodipodi:r1="48.58786"
       sodipodi:r2="9.7175722"
       sodipodi:arg1="-1.5707963"
       sodipodi:arg2="-0.78539816"
       inkscape:rounded="0.08"
       inkscape:randomized="0.03"
       d="m 62.013114,37.880289 c 3.370134,-0.07291 5.171369,40.164938 7.620227,42.432257 2.448857,2.267318 40.866669,1.323714 40.813429,4.739075 -0.0533,3.415361 -38.502342,3.98421 -40.817602,6.512522 -2.31526,2.528312 -4.215599,43.378607 -7.613103,43.420917 -3.397504,0.0423 -2.995748,-39.200233 -5.406273,-41.615909 C 54.199268,90.953474 15.059351,88.155385 15.031036,84.82284 15.002721,81.490295 54.1776,81.606929 56.613965,79.202282 59.050329,76.797634 58.642981,37.9532 62.013114,37.880289 Z"
       inkscape:transform-center-y="-2.3096996e-06"
       transform="matrix(0.21476195,0,0,0.21476195,-65.524885,-237.20733)" />
    <path
       sodipodi:type="star"
       style="fill:#000000;stroke-width:0.264583"
       id="path1-7-785"
       inkscape:flatsided="false"
       sodipodi:sides="4"
       sodipodi:cx="63.175137"
       sodipodi:cy="85.936928"
       sodipodi:r1="48.58786"
       sodipodi:r2="9.7175722"
       sodipodi:arg1="-1.5707963"
       sodipodi:arg2="-0.78539816"
       inkscape:rounded="0.08"
       inkscape:randomized="0.03"
       d="m 62.013114,37.880289 c 3.370134,-0.07291 5.171369,40.164938 7.620227,42.432257 2.448857,2.267318 40.866669,1.323714 40.813429,4.739075 -0.0533,3.415361 -38.502342,3.98421 -40.817602,6.512522 -2.31526,2.528312 -4.215599,43.378607 -7.613103,43.420917 -3.397504,0.0423 -2.995748,-39.200233 -5.406273,-41.615909 C 54.199268,90.953474 15.059351,88.155385 15.031036,84.82284 15.002721,81.490295 54.1776,81.606929 56.613965,79.202282 59.050329,76.797634 58.642981,37.9532 62.013114,37.880289 Z"
       transform="matrix(0.12963961,0,0,0.12963961,-110.6286,-236.57123)" />
    <path
       sodipodi:type="star"
       style="fill:#000000;stroke-width:0.264583"
       id="path1-6-74"
       inkscape:flatsided="false"
       sodipodi:sides="4"
       sodipodi:cx="63.175137"
       sodipodi:cy="85.936928"
       sodipodi:r1="48.58786"
       sodipodi:r2="9.7175722"
       sodipodi:arg1="-1.5707963"
       sodipodi:arg2="-0.78539816"
       inkscape:rounded="0.08"
       inkscape:randomized="0.03"
       d="m 62.013114,37.880289 c 3.370134,-0.07291 5.171369,40.164938 7.620227,42.432257 2.448857,2.267318 40.866669,1.323714 40.813429,4.739075 -0.0533,3.415361 -38.502342,3.98421 -40.817602,6.512522 -2.31526,2.528312 -4.215599,43.378607 -7.613103,43.420917 -3.397504,0.0423 -2.995748,-39.200233 -5.406273,-41.615909 C 54.199268,90.953474 15.059351,88.155385 15.031036,84.82284 15.002721,81.490295 54.1776,81.606929 56.613965,79.202282 59.050329,76.797634 58.642981,37.9532 62.013114,37.880289 Z"
       inkscape:transform-center-y="5.7054853e-06"
       transform="matrix(0.233234,0,0,0.233234,-114.44406,-208.66313)" />
    <path
       sodipodi:type="star"
       style="fill:#000000;stroke-width:0.264583"
       id="path1-6-318"
       inkscape:flatsided="false"
       sodipodi:sides="4"
       sodipodi:cx="63.175137"
       sodipodi:cy="85.936928"
       sodipodi:r1="48.58786"
       sodipodi:r2="9.7175722"
       sodipodi:arg1="-1.5707963"
       sodipodi:arg2="-0.78539816"
       inkscape:rounded="0.08"
       inkscape:randomized="0.03"
       d="m 62.013114,37.880289 c 3.370134,-0.07291 5.171369,40.164938 7.620227,42.432257 2.448857,2.267318 40.866669,1.323714 40.813429,4.739075 -0.0533,3.415361 -38.502342,3.98421 -40.817602,6.512522 -2.31526,2.528312 -4.215599,43.378607 -7.613103,43.420917 -3.397504,0.0423 -2.995748,-39.200233 -5.406273,-41.615909 C 54.199268,90.953474 15.059351,88.155385 15.031036,84.82284 15.002721,81.490295 54.1776,81.606929 56.613965,79.202282 59.050329,76.797634 58.642981,37.9532 62.013114,37.880289 Z"
       transform="matrix(0.08890258,0,0,0.08890258,-207.20877,-115.09721)"
       inkscape:transform-center-x="5.5328978e-06"
       inkscape:transform-center-y="-1.2215054e-06" />
    <path
       sodipodi:type="star"
       style="fill:#000000;stroke-width:0.264583"
       id="path1-33"
       inkscape:flatsided="false"
       sodipodi:sides="4"
       sodipodi:cx="63.175137"
       sodipodi:cy="85.936928"
       sodipodi:r1="48.58786"
       sodipodi:r2="9.7175722"
       sodipodi:arg1="-1.5707963"
       sodipodi:arg2="-0.78539816"
       inkscape:rounded="0.08"
       inkscape:randomized="0.03"
       d="m 62.013114,37.880289 c 3.370134,-0.07291 5.171369,40.164938 7.620227,42.432257 2.448857,2.267318 40.866669,1.323714 40.813429,4.739075 -0.0533,3.415361 -38.502342,3.98421 -40.817602,6.512522 -2.31526,2.528312 -4.215599,43.378607 -7.613103,43.420917 -3.397504,0.0423 -2.995748,-39.200233 -5.406273,-41.615909 C 54.199268,90.953474 15.059351,88.155385 15.031036,84.82284 15.002721,81.490295 54.1776,81.606929 56.613965,79.202282 59.050329,76.797634 58.642981,37.9532 62.013114,37.880289 Z"
       transform="matrix(0.5,0,0,0.5,-197.9035,-29.771988)"
       inkscape:transform-center-x="4.9273771e-06" />
    <path
       sodipodi:type="star"
       style="fill:#000000;stroke-width:0.264583"
       id="path1-5-3"
       inkscape:flatsided="false"
       sodipodi:sides="4"
       sodipodi:cx="63.175137"
       sodipodi:cy="85.936928"
       sodipodi:r1="48.58786"
       sodipodi:r2="9.7175722"
       sodipodi:arg1="-1.5707963"
       sodipodi:arg2="-0.78539816"
       inkscape:rounded="0.08"
       inkscape:randomized="0.03"
       d="m 62.013114,37.880289 c 3.370134,-0.07291 5.171369,40.164938 7.620227,42.432257 2.448857,2.267318 40.866669,1.323714 40.813429,4.739075 -0.0533,3.415361 -38.502342,3.98421 -40.817602,6.512522 -2.31526,2.528312 -4.215599,43.378607 -7.613103,43.420917 -3.397504,0.0423 -2.995748,-39.200233 -5.406273,-41.615909 C 54.199268,90.953474 15.059351,88.155385 15.031036,84.82284 15.002721,81.490295 54.1776,81.606929 56.613965,79.202282 59.050329,76.797634 58.642981,37.9532 62.013114,37.880289 Z"
       transform="matrix(0.21476195,0,0,0.21476195,-161.52063,-38.395022)"
       inkscape:transform-center-x="4.9273769e-06" />
    <path
       sodipodi:type="star"
       style="fill:#000000;stroke-width:0.264583"
       id="path1-7-86"
       inkscape:flatsided="false"
       sodipodi:sides="4"
       sodipodi:cx="63.175137"
       sodipodi:cy="85.936928"
       sodipodi:r1="48.58786"
       sodipodi:r2="9.7175722"
       sodipodi:arg1="-1.5707963"
       sodipodi:arg2="-0.78539816"
       inkscape:rounded="0.08"
       inkscape:randomized="0.03"
       d="m 62.013114,37.880289 c 3.370134,-0.07291 5.171369,40.164938 7.620227,42.432257 2.448857,2.267318 40.866669,1.323714 40.813429,4.739075 -0.0533,3.415361 -38.502342,3.98421 -40.817602,6.512522 -2.31526,2.528312 -4.215599,43.378607 -7.613103,43.420917 -3.397504,0.0423 -2.995748,-39.200233 -5.406273,-41.615909 C 54.199268,90.953474 15.059351,88.155385 15.031036,84.82284 15.002721,81.490295 54.1776,81.606929 56.613965,79.202282 59.050329,76.797634 58.642981,37.9532 62.013114,37.880289 Z"
       transform="matrix(0.12963961,0,0,0.12963961,-195.29526,-13.130603)" />
    <path
       sodipodi:type="star"
       style="fill:#000000;stroke-width:0.264583"
       id="path1-6-04"
       inkscape:flatsided="false"
       sodipodi:sides="4"
       sodipodi:cx="63.175137"
       sodipodi:cy="85.936928"
       sodipodi:r1="48.58786"
       sodipodi:r2="9.7175722"
       sodipodi:arg1="-1.5707963"
       sodipodi:arg2="-0.78539816"
       inkscape:rounded="0.08"
       inkscape:randomized="0.03"
       d="m 62.013114,37.880289 c 3.370134,-0.07291 5.171369,40.164938 7.620227,42.432257 2.448857,2.267318 40.866669,1.323714 40.813429,4.739075 -0.0533,3.415361 -38.502342,3.98421 -40.817602,6.512522 -2.31526,2.528312 -4.215599,43.378607 -7.613103,43.420917 -3.397504,0.0423 -2.995748,-39.200233 -5.406273,-41.615909 C 54.199268,90.953474 15.059351,88.155385 15.031036,84.82284 15.002721,81.490295 54.1776,81.606929 56.613965,79.202282 59.050329,76.797634 58.642981,37.9532 62.013114,37.880289 Z"
       inkscape:transform-center-y="2.7054851e-06"
       transform="matrix(0.233234,0,0,0.233234,-199.11073,14.77749)"
       inkscape:transform-center-x="4.6136824e-06" />
    <path
       sodipodi:type="star"
       style="fill:#000000;stroke-width:0.264583"
       id="path1-977"
       inkscape:flatsided="false"
       sodipodi:sides="4"
       sodipodi:cx="63.175137"
       sodipodi:cy="85.936928"
       sodipodi:r1="48.58786"
       sodipodi:r2="9.7175722"
       sodipodi:arg1="-1.5707963"
       sodipodi:arg2="-0.78539816"
       inkscape:rounded="0.08"
       inkscape:randomized="0.03"
       d="m 62.013114,37.880289 c 3.370134,-0.07291 5.171369,40.164938 7.620227,42.432257 2.448857,2.267318 40.866669,1.323714 40.813429,4.739075 -0.0533,3.415361 -38.502342,3.98421 -40.817602,6.512522 -2.31526,2.528312 -4.215599,43.378607 -7.613103,43.420917 -3.397504,0.0423 -2.995748,-39.200233 -5.406273,-41.615909 C 54.199268,90.953474 15.059351,88.155385 15.031036,84.82284 15.002721,81.490295 54.1776,81.606929 56.613965,79.202282 59.050329,76.797634 58.642981,37.9532 62.013114,37.880289 Z"
       transform="matrix(0.5,0,0,0.5,-28.7941,47.747977)" />
    <path
       sodipodi:type="star"
       style="fill:#000000;stroke-width:0.264583"
       id="path1-5-64"
       inkscape:flatsided="false"
       sodipodi:sides="4"
       sodipodi:cx="63.175137"
       sodipodi:cy="85.936928"
       sodipodi:r1="48.58786"
       sodipodi:r2="9.7175722"
       sodipodi:arg1="-1.5707963"
       sodipodi:arg2="-0.78539816"
       inkscape:rounded="0.08"
       inkscape:randomized="0.03"
       d="m 62.013114,37.880289 c 3.370134,-0.07291 5.171369,40.164938 7.620227,42.432257 2.448857,2.267318 40.866669,1.323714 40.813429,4.739075 -0.0533,3.415361 -38.502342,3.98421 -40.817602,6.512522 -2.31526,2.528312 -4.215599,43.378607 -7.613103,43.420917 -3.397504,0.0423 -2.995748,-39.200233 -5.406273,-41.615909 C 54.199268,90.953474 15.059351,88.155385 15.031036,84.82284 15.002721,81.490295 54.1776,81.606929 56.613965,79.202282 59.050329,76.797634 58.642981,37.9532 62.013114,37.880289 Z"
       inkscape:transform-center-y="2.6903001e-06"
       transform="matrix(0.21476195,0,0,0.21476195,22.97824,110.19059)" />
    <path
       sodipodi:type="star"
       style="fill:#000000;stroke-width:0.264583"
       id="path1-7-30"
       inkscape:flatsided="false"
       sodipodi:sides="4"
       sodipodi:cx="63.175137"
       sodipodi:cy="85.936928"
       sodipodi:r1="48.58786"
       sodipodi:r2="9.7175722"
       sodipodi:arg1="-1.5707963"
       sodipodi:arg2="-0.78539816"
       inkscape:rounded="0.08"
       inkscape:randomized="0.03"
       d="m 62.013114,37.880289 c 3.370134,-0.07291 5.171369,40.164938 7.620227,42.432257 2.448857,2.267318 40.866669,1.323714 40.813429,4.739075 -0.0533,3.415361 -38.502342,3.98421 -40.817602,6.512522 -2.31526,2.528312 -4.215599,43.378607 -7.613103,43.420917 -3.397504,0.0423 -2.995748,-39.200233 -5.406273,-41.615909 C 54.199268,90.953474 15.059351,88.155385 15.031036,84.82284 15.002721,81.490295 54.1776,81.606929 56.613965,79.202282 59.050329,76.797634 58.642981,37.9532 62.013114,37.880289 Z"
       transform="matrix(0.12963961,0,0,0.12963961,-22.125468,110.82669)" />
    <path
       sodipodi:type="star"
       style="fill:#000000;stroke-width:0.264583"
       id="path1-6-30"
       inkscape:flatsided="false"
       sodipodi:sides="4"
       sodipodi:cx="63.175137"
       sodipodi:cy="85.936928"
       sodipodi:r1="48.58786"
       sodipodi:r2="9.7175722"
       sodipodi:arg1="-1.5707963"
       sodipodi:arg2="-0.78539816"
       inkscape:rounded="0.08"
       inkscape:randomized="0.03"
       d="m 62.013114,37.880289 c 3.370134,-0.07291 5.171369,40.164938 7.620227,42.432257 2.448857,2.267318 40.866669,1.323714 40.813429,4.739075 -0.0533,3.415361 -38.502342,3.98421 -40.817602,6.512522 -2.31526,2.528312 -4.215599,43.378607 -7.613103,43.420917 -3.397504,0.0423 -2.995748,-39.200233 -5.406273,-41.615909 C 54.199268,90.953474 15.059351,88.155385 15.031036,84.82284 15.002721,81.490295 54.1776,81.606929 56.613965,79.202282 59.050329,76.797634 58.642981,37.9532 62.013114,37.880289 Z"
       inkscape:transform-center-y="2.4054852e-06"
       transform="matrix(0.233234,0,0,0.233234,82.23563,-2.8186073)" />
  </g>
</svg>
