0
SECTION
2
HEADER
9
$INSUNITS
70
4
0
ENDSEC
0
SECTION
2
TABLES
0
TABLE
2
LTYPE
0
LTYPE
72
65
70
64
2
CONTINUOUS
3
______
73
0
40
0
0
ENDTAB
0
TABLE
2
LAYER
0
ENDTAB
0
ENDSEC
0
SECTION
2
ENTITIES
0
LINE
8
0
10
57.4479572
20
-139.5429404
11
75.883576
21
-144.1394564
0
LINE
8
0
10
57.4479572
20
-139.5429404
11
67.124833
21
-100.7311114
0
LINE
8
0
10
85.5604518
20
-105.3276274
11
67.124833
21
-100.7311114
0
LINE
8
0
10
71.7709038
20
-160.6344837
11
92.147114
21
-165.7148435
0
LINE
8
0
10
92.147114
20
-165.7148435
11
94.6872939
21
-155.5267384
0
LINE
8
0
10
75.883576
20
-144.1394564
11
71.7709038
21
-160.6344837
0
LINE
8
0
10
104.4799144
20
-107.9835519
11
86.0442956
21
-103.3870359
0
LINE
8
0
10
86.0442956
20
-103.3870359
11
85.5604518
21
-105.3276274
0
LINE
8
0
10
94.6872939
20
-155.5267384
11
113.1229127
21
-160.1232544
0
LINE
8
0
10
113.1229127
20
-160.1232544
11
113.8486784
21
-157.2123673
0
LINE
8
0
10
125.4557131
20
-102.3919628
11
107.0200943
21
-97.7954468
0
LINE
8
0
10
107.0200943
20
-97.7954468
11
104.4799144
21
-107.9835519
0
LINE
8
0
10
113.8486784
20
-157.2123673
11
130.3437058
21
-161.3250395
0
LINE
8
0
10
126.1814788
20
-99.4810757
11
183.4289266
21
-113.7544675
0
LINE
8
0
10
126.1814788
20
-99.4810757
11
125.4557131
21
-102.3919628
0
LINE
8
0
10
123.6908536
20
-188.008172
11
130.3437058
21
-161.3250395
0
LINE
8
0
10
166.9282698
20
-179.9349875
11
173.510129
21
-153.5365923
0
LINE
8
0
10
123.6908536
20
-188.008172
11
142.9560821
21
-192.8115329
0
LINE
8
0
10
142.9560821
20
-192.8115329
11
159.0771757
21
-202.3075828
0
LINE
8
0
10
159.0771757
20
-202.3075828
11
172.6182576
21
-216.8286153
0
LINE
8
0
10
172.6182576
20
-216.8286153
11
187.9766853
21
-202.5066498
0
LINE
8
0
10
166.9282698
20
-179.9349875
11
187.9766853
21
-202.5066498
0
LINE
8
0
10
345.0342186
20
-144.1394564
11
363.4698374
21
-139.5429404
0
LINE
8
0
10
353.7929616
20
-100.7311114
11
363.4698374
21
-139.5429404
0
LINE
8
0
10
353.7929616
20
-100.7311114
11
335.3573428
21
-105.3276274
0
LINE
8
0
10
328.7706806
20
-165.7148435
11
349.1468908
21
-160.6344837
0
LINE
8
0
10
349.1468908
20
-160.6344837
11
345.0342186
21
-144.1394564
0
LINE
8
0
10
326.2305007
20
-155.5267384
11
328.7706806
21
-165.7148435
0
LINE
8
0
10
335.3573428
20
-105.3276274
11
334.873499
21
-103.3870359
0
LINE
8
0
10
334.873499
20
-103.3870359
11
316.4378802
21
-107.9835519
0
LINE
8
0
10
307.7948819
20
-160.1232544
11
326.2305007
21
-155.5267384
0
LINE
8
0
10
307.0691162
20
-157.2123673
11
307.7948819
21
-160.1232544
0
LINE
8
0
10
316.4378802
20
-107.9835519
11
313.8977003
21
-97.7954468
0
LINE
8
0
10
313.8977003
20
-97.7954468
11
295.4620815
21
-102.3919628
0
LINE
8
0
10
290.5740888
20
-161.3250395
11
307.0691162
21
-157.2123673
0
LINE
8
0
10
295.4620815
20
-102.3919628
11
294.7363158
21
-99.4810757
0
LINE
8
0
10
237.488868
20
-113.7544675
11
294.7363158
21
-99.4810757
0
LINE
8
0
10
290.5740888
20
-161.3250395
11
297.226941
21
-188.008172
0
LINE
8
0
10
247.4076656
20
-153.5365923
11
253.9895248
21
-179.9349875
0
LINE
8
0
10
277.9617125
20
-192.8115329
11
297.226941
21
-188.008172
0
LINE
8
0
10
261.8406189
20
-202.3075828
11
277.9617125
21
-192.8115329
0
LINE
8
0
10
248.299537
20
-216.8286153
11
261.8406189
21
-202.3075828
0
LINE
8
0
10
232.9411093
20
-202.5066498
11
253.9895248
21
-179.9349875
0
LINE
8
0
10
232.9411093
20
-202.5066498
11
248.299537
21
-216.8286153
0
LINE
8
0
10
183.4289266
20
-113.7544675
11
237.488868
21
-113.7544675
0
LINE
8
0
10
247.4076656
20
-153.5365923
11
173.510129
21
-153.5365923
0
ENDSEC
0
EOF