0
SECTION
2
HEADER
9
$INSUNITS
70
4
0
ENDSEC
0
SECTION
2
TABLES
0
TABLE
2
LTYPE
0
LTYPE
72
65
70
64
2
CONTINUOUS
3
______
73
0
40
0
0
ENDTAB
0
TABLE
2
LAYER
0
ENDTAB
0
ENDSEC
0
SECTION
2
ENTITIES
0
LINE
8
0
10
61.8119406
20
-136.9207946
11
75.2020216
21
-140.2593168
0
LINE
8
0
10
75.2020216
20
-140.2593168
11
78.5405438
21
-126.8692358
0
LINE
8
0
10
78.5405438
20
-126.8692358
11
65.1504628
21
-123.5307136
0
LINE
8
0
10
65.1504628
20
-123.5307136
11
61.8119406
21
-136.9207946
0
LINE
8
0
10
66.4084566
20
-118.4851758
11
79.7985376
21
-121.823698
0
LINE
8
0
10
79.7985376
20
-121.823698
11
83.1370598
21
-108.433617
0
LINE
8
0
10
83.1370598
20
-108.433617
11
69.7469788
21
-105.0950948
0
LINE
8
0
10
69.7469788
20
-105.0950948
11
66.4084566
21
-118.4851758
0
LINE
8
0
10
76.1348872
20
-158.0123379
11
89.5249682
21
-161.3508601
0
LINE
8
0
10
89.5249682
20
-161.3508601
11
92.8634904
21
-147.9607791
0
LINE
8
0
10
92.8634904
20
-147.9607791
11
79.4734094
21
-144.6222569
0
LINE
8
0
10
79.4734094
20
-144.6222569
11
76.1348872
21
-158.0123379
0
LINE
8
0
10
80.7314032
20
-139.5767191
11
94.1214842
21
-142.9152413
0
LINE
8
0
10
94.1214842
20
-142.9152413
11
97.4600064
21
-129.5251603
0
LINE
8
0
10
97.4600064
20
-129.5251603
11
84.0699254
21
-126.1866381
0
LINE
8
0
10
84.0699254
20
-126.1866381
11
80.7314032
21
-139.5767191
0
LINE
8
0
10
85.3279192
20
-121.1411003
11
98.7180002
21
-124.4796225
0
LINE
8
0
10
98.7180002
20
-124.4796225
11
102.0565224
21
-111.0895415
0
LINE
8
0
10
102.0565224
20
-111.0895415
11
88.6664414
21
-107.7510193
0
LINE
8
0
10
88.6664414
20
-107.7510193
11
85.3279192
21
-121.1411003
0
LINE
8
0
10
97.1106859
20
-152.4207488
11
110.5007669
21
-155.759271
0
LINE
8
0
10
110.5007669
20
-155.759271
11
113.8392891
21
-142.36919
0
LINE
8
0
10
113.8392891
20
-142.36919
11
100.4492081
21
-139.0306678
0
LINE
8
0
10
100.4492081
20
-139.0306678
11
97.1106859
21
-152.4207488
0
LINE
8
0
10
101.7072019
20
-133.98513
11
115.0972829
21
-137.3236522
0
LINE
8
0
10
115.0972829
20
-137.3236522
11
118.4358051
21
-123.9335712
0
LINE
8
0
10
118.4358051
20
-123.9335712
11
105.0457241
21
-120.595049
0
LINE
8
0
10
105.0457241
20
-120.595049
11
101.7072019
21
-133.98513
0
LINE
8
0
10
106.3037179
20
-115.5495112
11
119.6937989
21
-118.8880334
0
LINE
8
0
10
119.6937989
20
-118.8880334
11
123.0323211
21
-105.4979524
0
LINE
8
0
10
123.0323211
20
-105.4979524
11
109.6422401
21
-102.1594302
0
LINE
8
0
10
109.6422401
20
-102.1594302
11
106.3037179
21
-115.5495112
0
LINE
8
0
10
116.2720704
20
-154.1063777
11
129.6621514
21
-157.4448999
0
LINE
8
0
10
129.6621514
20
-157.4448999
11
133.0006736
21
-144.0548189
0
LINE
8
0
10
133.0006736
20
-144.0548189
11
119.6105926
21
-140.7162967
0
LINE
8
0
10
119.6105926
20
-140.7162967
11
116.2720704
21
-154.1063777
0
LINE
8
0
10
120.8685864
20
-135.6707589
11
134.2586674
21
-139.0092811
0
LINE
8
0
10
134.2586674
20
-139.0092811
11
137.5971896
21
-125.6192001
0
LINE
8
0
10
137.5971896
20
-125.6192001
11
124.2071086
21
-122.2806779
0
LINE
8
0
10
124.2071086
20
-122.2806779
11
120.8685864
21
-135.6707589
0
LINE
8
0
10
125.4651024
20
-117.2351401
11
138.8551834
21
-120.5736623
0
LINE
8
0
10
138.8551834
20
-120.5736623
11
142.1937056
21
-107.1835813
0
LINE
8
0
10
142.1937056
20
-107.1835813
11
128.8036246
21
-103.8450591
0
LINE
8
0
10
128.8036246
20
-103.8450591
11
125.4651024
21
-117.2351401
0
LINE
8
0
10
133.4980797
20
-163.5543723
11
146.8881607
21
-166.8928945
0
LINE
8
0
10
146.8881607
20
-166.8928945
11
150.2266829
21
-153.5028135
0
LINE
8
0
10
150.2266829
20
-153.5028135
11
136.8366019
21
-150.1642913
0
LINE
8
0
10
136.8366019
20
-150.1642913
11
133.4980797
21
-163.5543723
0
LINE
8
0
10
138.0945957
20
-145.1187535
11
151.4846767
21
-148.4572757
0
LINE
8
0
10
151.4846767
20
-148.4572757
11
154.8231989
21
-135.0671947
0
LINE
8
0
10
154.8231989
20
-135.0671947
11
141.4331179
21
-131.7286725
0
LINE
8
0
10
141.4331179
20
-131.7286725
11
138.0945957
21
-145.1187535
0
LINE
8
0
10
142.6911117
20
-126.6831347
11
156.0811927
21
-130.0216569
0
LINE
8
0
10
156.0811927
20
-130.0216569
11
159.4197149
21
-116.6315759
0
LINE
8
0
10
159.4197149
20
-116.6315759
11
146.0296339
21
-113.2930537
0
LINE
8
0
10
146.0296339
20
-113.2930537
11
142.6911117
21
-126.6831347
0
LINE
8
0
10
151.0869719
20
-171.5469234
11
164.4770529
21
-174.8854456
0
LINE
8
0
10
164.4770529
20
-174.8854456
11
167.8155751
21
-161.4953646
0
LINE
8
0
10
167.8155751
20
-161.4953646
11
154.4254941
21
-158.1568424
0
LINE
8
0
10
154.4254941
20
-158.1568424
11
151.0869719
21
-171.5469234
0
LINE
8
0
10
155.6834879
20
-153.1113046
11
169.0735689
21
-156.4498268
0
LINE
8
0
10
169.0735689
20
-156.4498268
11
172.4120911
21
-143.0597458
0
LINE
8
0
10
172.4120911
20
-143.0597458
11
159.0220101
21
-139.7212236
0
LINE
8
0
10
159.0220101
20
-139.7212236
11
155.6834879
21
-153.1113046
0
LINE
8
0
10
160.2800039
20
-134.6756858
11
173.6700849
21
-138.014208
0
LINE
8
0
10
173.6700849
20
-138.014208
11
177.0086071
21
-124.624127
0
LINE
8
0
10
177.0086071
20
-124.624127
11
163.6185261
21
-121.2856048
0
LINE
8
0
10
163.6185261
20
-121.2856048
11
160.2800039
21
-134.6756858
0
LINE
8
0
10
128.054837
20
-185.3860262
11
141.444918
21
-188.7245484
0
LINE
8
0
10
141.444918
20
-188.7245484
11
144.7834402
21
-175.3344674
0
LINE
8
0
10
144.7834402
20
-175.3344674
11
131.3933592
21
-171.9959452
0
LINE
8
0
10
131.3933592
20
-171.9959452
11
128.054837
21
-185.3860262
0
LINE
8
0
10
146.8985257
20
-190.9556781
11
158.7890081
21
-197.9597075
0
LINE
8
0
10
158.7890081
20
-197.9597075
11
165.7930375
21
-186.0692251
0
LINE
8
0
10
165.7930375
20
-186.0692251
11
153.9025551
21
-179.0651957
0
LINE
8
0
10
153.9025551
20
-179.0651957
11
146.8985257
21
-190.9556781
0
LINE
8
0
10
163.3843595
20
-201.6478668
11
172.7959368
21
-211.7405479
0
LINE
8
0
10
172.7959368
20
-211.7405479
11
182.8886179
21
-202.3289706
0
LINE
8
0
10
182.8886179
20
-202.3289706
11
173.4770406
21
-192.2362895
0
LINE
8
0
10
173.4770406
20
-192.2362895
11
163.3843595
21
-201.6478668
0
LINE
8
0
10
345.715773
20
-140.2593168
11
359.105854
21
-136.9207946
0
LINE
8
0
10
359.105854
20
-136.9207946
11
355.7673318
21
-123.5307136
0
LINE
8
0
10
355.7673318
20
-123.5307136
11
342.3772508
21
-126.8692358
0
LINE
8
0
10
342.3772508
20
-126.8692358
11
345.715773
21
-140.2593168
0
LINE
8
0
10
341.119257
20
-121.823698
11
354.509338
21
-118.4851758
0
LINE
8
0
10
354.509338
20
-118.4851758
11
351.1708158
21
-105.0950948
0
LINE
8
0
10
351.1708158
20
-105.0950948
11
337.7807348
21
-108.433617
0
LINE
8
0
10
337.7807348
20
-108.433617
11
341.119257
21
-121.823698
0
LINE
8
0
10
331.3928264
20
-161.3508601
11
344.7829074
21
-158.0123379
0
LINE
8
0
10
344.7829074
20
-158.0123379
11
341.4443852
21
-144.6222569
0
LINE
8
0
10
341.4443852
20
-144.6222569
11
328.0543042
21
-147.9607791
0
LINE
8
0
10
328.0543042
20
-147.9607791
11
331.3928264
21
-161.3508601
0
LINE
8
0
10
326.7963104
20
-142.9152413
11
340.1863914
21
-139.5767191
0
LINE
8
0
10
340.1863914
20
-139.5767191
11
336.8478692
21
-126.1866381
0
LINE
8
0
10
336.8478692
20
-126.1866381
11
323.4577882
21
-129.5251603
0
LINE
8
0
10
323.4577882
20
-129.5251603
11
326.7963104
21
-142.9152413
0
LINE
8
0
10
322.1997944
20
-124.4796225
11
335.5898754
21
-121.1411003
0
LINE
8
0
10
335.5898754
20
-121.1411003
11
332.2513532
21
-107.7510193
0
LINE
8
0
10
332.2513532
20
-107.7510193
11
318.8612722
21
-111.0895415
0
LINE
8
0
10
318.8612722
20
-111.0895415
11
322.1997944
21
-124.4796225
0
LINE
8
0
10
310.4170277
20
-155.759271
11
323.8071087
21
-152.4207488
0
LINE
8
0
10
323.8071087
20
-152.4207488
11
320.4685865
21
-139.0306678
0
LINE
8
0
10
320.4685865
20
-139.0306678
11
307.0785055
21
-142.36919
0
LINE
8
0
10
307.0785055
20
-142.36919
11
310.4170277
21
-155.759271
0
LINE
8
0
10
305.8205117
20
-137.3236522
11
319.2105927
21
-133.98513
0
LINE
8
0
10
319.2105927
20
-133.98513
11
315.8720705
21
-120.595049
0
LINE
8
0
10
315.8720705
20
-120.595049
11
302.4819895
21
-123.9335712
0
LINE
8
0
10
302.4819895
20
-123.9335712
11
305.8205117
21
-137.3236522
0
LINE
8
0
10
301.2239957
20
-118.8880334
11
314.6140767
21
-115.5495112
0
LINE
8
0
10
314.6140767
20
-115.5495112
11
311.2755545
21
-102.1594302
0
LINE
8
0
10
311.2755545
20
-102.1594302
11
297.8854735
21
-105.4979524
0
LINE
8
0
10
297.8854735
20
-105.4979524
11
301.2239957
21
-118.8880334
0
LINE
8
0
10
291.2556432
20
-157.4448999
11
304.6457242
21
-154.1063777
0
LINE
8
0
10
304.6457242
20
-154.1063777
11
301.307202
21
-140.7162967
0
LINE
8
0
10
301.307202
20
-140.7162967
11
287.917121
21
-144.0548189
0
LINE
8
0
10
287.917121
20
-144.0548189
11
291.2556432
21
-157.4448999
0
LINE
8
0
10
286.6591272
20
-139.0092811
11
300.0492082
21
-135.6707589
0
LINE
8
0
10
300.0492082
20
-135.6707589
11
296.710686
21
-122.2806779
0
LINE
8
0
10
296.710686
20
-122.2806779
11
283.320605
21
-125.6192001
0
LINE
8
0
10
283.320605
20
-125.6192001
11
286.6591272
21
-139.0092811
0
LINE
8
0
10
282.0626112
20
-120.5736623
11
295.4526922
21
-117.2351401
0
LINE
8
0
10
295.4526922
20
-117.2351401
11
292.11417
21
-103.8450591
0
LINE
8
0
10
292.11417
20
-103.8450591
11
278.724089
21
-107.1835813
0
LINE
8
0
10
278.724089
20
-107.1835813
11
282.0626112
21
-120.5736623
0
LINE
8
0
10
274.0296339
20
-166.8928945
11
287.4197149
21
-163.5543723
0
LINE
8
0
10
287.4197149
20
-163.5543723
11
284.0811927
21
-150.1642913
0
LINE
8
0
10
284.0811927
20
-150.1642913
11
270.6911117
21
-153.5028135
0
LINE
8
0
10
270.6911117
20
-153.5028135
11
274.0296339
21
-166.8928945
0
LINE
8
0
10
269.4331179
20
-148.4572757
11
282.8231989
21
-145.1187535
0
LINE
8
0
10
282.8231989
20
-145.1187535
11
279.4846767
21
-131.7286725
0
LINE
8
0
10
279.4846767
20
-131.7286725
11
266.0945957
21
-135.0671947
0
LINE
8
0
10
266.0945957
20
-135.0671947
11
269.4331179
21
-148.4572757
0
LINE
8
0
10
264.8366019
20
-130.0216569
11
278.2266829
21
-126.6831347
0
LINE
8
0
10
278.2266829
20
-126.6831347
11
274.8881607
21
-113.2930537
0
LINE
8
0
10
274.8881607
20
-113.2930537
11
261.4980797
21
-116.6315759
0
LINE
8
0
10
261.4980797
20
-116.6315759
11
264.8366019
21
-130.0216569
0
LINE
8
0
10
256.4407417
20
-174.8854456
11
269.8308227
21
-171.5469234
0
LINE
8
0
10
269.8308227
20
-171.5469234
11
266.4923005
21
-158.1568424
0
LINE
8
0
10
266.4923005
20
-158.1568424
11
253.1022195
21
-161.4953646
0
LINE
8
0
10
253.1022195
20
-161.4953646
11
256.4407417
21
-174.8854456
0
LINE
8
0
10
251.8442257
20
-156.4498268
11
265.2343067
21
-153.1113046
0
LINE
8
0
10
265.2343067
20
-153.1113046
11
261.8957845
21
-139.7212236
0
LINE
8
0
10
261.8957845
20
-139.7212236
11
248.5057035
21
-143.0597458
0
LINE
8
0
10
248.5057035
20
-143.0597458
11
251.8442257
21
-156.4498268
0
LINE
8
0
10
247.2477097
20
-138.014208
11
260.6377907
21
-134.6756858
0
LINE
8
0
10
260.6377907
20
-134.6756858
11
257.2992685
21
-121.2856048
0
LINE
8
0
10
257.2992685
20
-121.2856048
11
243.9091875
21
-124.624127
0
LINE
8
0
10
243.9091875
20
-124.624127
11
247.2477097
21
-138.014208
0
LINE
8
0
10
279.4728766
20
-188.7245484
11
292.8629576
21
-185.3860262
0
LINE
8
0
10
292.8629576
20
-185.3860262
11
289.5244354
21
-171.9959452
0
LINE
8
0
10
289.5244354
20
-171.9959452
11
276.1343544
21
-175.3344674
0
LINE
8
0
10
276.1343544
20
-175.3344674
11
279.4728766
21
-188.7245484
0
LINE
8
0
10
262.1287865
20
-197.9597075
11
274.0192689
21
-190.9556781
0
LINE
8
0
10
274.0192689
20
-190.9556781
11
267.0152395
21
-179.0651957
0
LINE
8
0
10
267.0152395
20
-179.0651957
11
255.1247571
21
-186.0692251
0
LINE
8
0
10
255.1247571
20
-186.0692251
11
262.1287865
21
-197.9597075
0
LINE
8
0
10
248.1218578
20
-211.7405479
11
257.5334351
21
-201.6478668
0
LINE
8
0
10
257.5334351
20
-201.6478668
11
247.440754
21
-192.2362895
0
LINE
8
0
10
247.440754
20
-192.2362895
11
238.0291767
21
-202.3289706
0
LINE
8
0
10
238.0291767
20
-202.3289706
11
248.1218578
21
-211.7405479
0
ENDSEC
0
EOF