999
"DXF R12 Output" (www.mydxf.blogspot.com)
 0 
SECTION
 2 
HEADER
 9 
$ACADVER
 1 
AC1009
 9 
$EXTMIN
 10 
 0 
 20 
 0 
 9 
$EXTMAX
 10 
 8.5 
 20 
 11 
 0 
ENDSEC
 0 
SECTION
 2 
ENTITIES
0
LINE
8
Layer 1
10
0.793749
20
297.793749
11
-0.793749
21
296.206251
0
LINE
8
Layer 1
10
0.000000
20
298.322915
11
0.000000
21
295.677085
0
LINE
8
Layer 1
10
2.116664
20
295.941668
11
1.058332
21
294.883336
0
LINE
8
Layer 1
10
1.587498
20
296.470834
11
0.529166
21
295.412502
0
LINE
8
Layer 1
10
1.058332
20
297.000000
11
0.000000
21
295.941668
0
LINE
8
BLACK
10
127.067573
20
-102.808725
11
127.067573
21
-102.808725
0
LINE
8
BLACK
10
127.067573
20
-102.808725
11
127.067573
21
-102.808725
0
LINE
8
BLACK
10
127.260983
20
-102.033497
11
127.067573
21
-102.808725
0
LINE
8
BLACK
10
127.260983
20
-102.033497
11
127.260983
21
-102.033497
0
LINE
8
BLACK
10
127.260983
20
-102.033497
11
127.260983
21
-102.033497
0
LINE
8
BLACK
10
127.282679
20
-101.946185
11
127.260983
21
-102.033497
0
LINE
8
BLACK
10
127.355704
20
-101.782143
11
127.282679
21
-101.946185
0
LINE
8
BLACK
10
127.455981
20
-101.633977
11
127.355704
21
-101.782143
0
LINE
8
BLACK
10
127.580600
20
-101.504331
11
127.455981
21
-101.633977
0
LINE
8
BLACK
10
127.725591
20
-101.398498
11
127.580600
21
-101.504331
0
LINE
8
BLACK
10
127.886722
20
-101.321769
11
127.725591
21
-101.398498
0
LINE
8
BLACK
10
128.059230
20
-101.271498
11
127.886722
21
-101.321769
0
LINE
8
BLACK
10
128.237559
20
-101.252977
11
128.059230
21
-101.271498
0
LINE
8
BLACK
10
128.416682
20
-101.266207
11
128.237559
21
-101.252977
0
LINE
8
BLACK
10
128.503201
20
-101.287373
11
128.416682
21
-101.266207
0
LINE
8
BLACK
10
128.503465
20
-101.287373
11
128.503201
21
-101.287373
0
LINE
8
BLACK
10
128.503465
20
-101.287373
11
128.503465
21
-101.287373
0
LINE
8
BLACK
10
128.503465
20
-101.287373
11
128.503465
21
-101.287373
0
LINE
8
BLACK
10
128.503465
20
-101.287373
11
128.503465
21
-101.287373
0
LINE
8
BLACK
10
184.552728
20
-115.262647
11
128.503465
21
-101.287373
0
LINE
8
BLACK
10
184.552728
20
-115.262647
11
184.552728
21
-115.262647
0
LINE
8
BLACK
10
184.552728
20
-115.262647
11
184.552728
21
-115.262647
0
LINE
8
BLACK
10
184.552728
20
-115.262647
11
184.552728
21
-115.262647
0
LINE
8
BLACK
10
184.646390
20
-115.281168
11
184.552728
21
-115.262647
0
LINE
8
BLACK
10
184.741376
20
-115.291751
11
184.646390
21
-115.281168
0
LINE
8
BLACK
10
184.836890
20
-115.297043
11
184.741376
21
-115.291751
0
LINE
8
BLACK
10
184.836890
20
-115.297043
11
184.836890
21
-115.297043
0
LINE
8
BLACK
10
238.626614
20
-115.297043
11
184.836890
21
-115.297043
0
LINE
8
BLACK
10
238.626614
20
-115.297043
11
238.626614
21
-115.297043
0
LINE
8
BLACK
10
238.626614
20
-115.297043
11
238.626614
21
-115.297043
0
LINE
8
BLACK
10
238.626614
20
-115.297043
11
238.626614
21
-115.297043
0
LINE
8
BLACK
10
238.626614
20
-115.297043
11
238.626614
21
-115.297043
0
LINE
8
BLACK
10
238.722128
20
-115.291751
11
238.626614
21
-115.297043
0
LINE
8
BLACK
10
238.817114
20
-115.281168
11
238.722128
21
-115.291751
0
LINE
8
BLACK
10
238.910776
20
-115.262647
11
238.817114
21
-115.281168
0
LINE
8
BLACK
10
238.910776
20
-115.262647
11
238.910776
21
-115.262647
0
LINE
8
BLACK
10
294.959774
20
-101.287373
11
238.910776
21
-115.262647
0
LINE
8
BLACK
10
294.959774
20
-101.287373
11
294.959774
21
-101.287373
0
LINE
8
BLACK
10
294.959774
20
-101.287373
11
294.959774
21
-101.287373
0
LINE
8
BLACK
10
294.959774
20
-101.287373
11
294.959774
21
-101.287373
0
LINE
8
BLACK
10
295.047087
20
-101.266207
11
294.959774
21
-101.287373
0
LINE
8
BLACK
10
295.227003
20
-101.252977
11
295.047087
21
-101.266207
0
LINE
8
BLACK
10
295.404274
20
-101.271498
11
295.227003
21
-101.252977
0
LINE
8
BLACK
10
295.576253
20
-101.321769
11
295.404274
21
-101.271498
0
LINE
8
BLACK
10
295.737648
20
-101.398498
11
295.576253
21
-101.321769
0
LINE
8
BLACK
10
295.883169
20
-101.504331
11
295.737648
21
-101.398498
0
LINE
8
BLACK
10
296.007523
20
-101.633977
11
295.883169
21
-101.504331
0
LINE
8
BLACK
10
296.108064
20
-101.782143
11
296.007523
21
-101.633977
0
LINE
8
BLACK
10
296.179502
20
-101.946185
11
296.108064
21
-101.782143
0
LINE
8
BLACK
10
296.203314
20
-102.033497
11
296.179502
21
-101.946185
0
LINE
8
BLACK
10
296.203314
20
-102.033497
11
296.203314
21
-102.033497
0
LINE
8
BLACK
10
296.396460
20
-102.808725
11
296.203314
21
-102.033497
0
LINE
8
BLACK
10
296.396460
20
-102.808725
11
296.396460
21
-102.808725
0
LINE
8
BLACK
10
296.396460
20
-102.808725
11
296.396460
21
-102.808725
0
LINE
8
BLACK
10
296.396460
20
-102.808725
11
296.396460
21
-102.808725
0
LINE
8
BLACK
10
296.454668
20
-102.983350
11
296.396460
21
-102.808725
0
LINE
8
BLACK
10
296.539335
20
-103.147392
11
296.454668
21
-102.983350
0
LINE
8
BLACK
10
296.650460
20
-103.295558
11
296.539335
21
-103.147392
0
LINE
8
BLACK
10
296.780105
20
-103.425204
11
296.650460
21
-103.295558
0
LINE
8
BLACK
10
296.930918
20
-103.533683
11
296.780105
21
-103.425204
0
LINE
8
BLACK
10
297.094959
20
-103.615704
11
296.930918
21
-103.533683
0
LINE
8
BLACK
10
297.272230
20
-103.671266
11
297.094959
21
-103.615704
0
LINE
8
BLACK
10
297.454792
20
-103.697724
11
297.272230
21
-103.671266
0
LINE
8
BLACK
10
297.637354
20
-103.695079
11
297.454792
21
-103.697724
0
LINE
8
BLACK
10
297.819916
20
-103.665974
11
297.637354
21
-103.695079
0
LINE
8
BLACK
10
297.819916
20
-103.665974
11
297.819916
21
-103.665974
0
LINE
8
BLACK
10
314.120875
20
-99.601980
11
297.819916
21
-103.665974
0
LINE
8
BLACK
10
314.120875
20
-99.601980
11
314.120875
21
-99.601980
0
LINE
8
BLACK
10
314.120875
20
-99.601980
11
314.120875
21
-99.601980
0
LINE
8
BLACK
10
314.208187
20
-99.580813
11
314.120875
21
-99.601980
0
LINE
8
BLACK
10
314.388104
20
-99.567584
11
314.208187
21
-99.580813
0
LINE
8
BLACK
10
314.565375
20
-99.586105
11
314.388104
21
-99.567584
0
LINE
8
BLACK
10
314.737353
20
-99.636375
11
314.565375
21
-99.586105
0
LINE
8
BLACK
10
314.898749
20
-99.713104
11
314.737353
21
-99.636375
0
LINE
8
BLACK
10
315.044270
20
-99.818938
11
314.898749
21
-99.713104
0
LINE
8
BLACK
10
315.168624
20
-99.948583
11
315.044270
21
-99.818938
0
LINE
8
BLACK
10
315.269165
20
-100.096750
11
315.168624
21
-99.948583
0
LINE
8
BLACK
10
315.343249
20
-100.260791
11
315.269165
21
-100.096750
0
LINE
8
BLACK
10
315.364415
20
-100.348104
11
315.343249
21
-100.260791
0
LINE
8
BLACK
10
315.364415
20
-100.348104
11
315.364415
21
-100.348104
0
LINE
8
BLACK
10
315.364415
20
-100.348104
11
315.364415
21
-100.348104
0
LINE
8
BLACK
10
315.364415
20
-100.348104
11
315.364415
21
-100.348104
0
LINE
8
BLACK
10
317.372600
20
-108.402010
11
315.364415
21
-100.348104
0
LINE
8
BLACK
10
317.372600
20
-108.402010
11
317.372600
21
-108.402010
0
LINE
8
BLACK
10
317.372600
20
-108.402010
11
317.372600
21
-108.402010
0
LINE
8
BLACK
10
317.372600
20
-108.402010
11
317.372600
21
-108.402010
0
LINE
8
BLACK
10
317.430808
20
-108.576635
11
317.372600
21
-108.402010
0
LINE
8
BLACK
10
317.515475
20
-108.740676
11
317.430808
21
-108.576635
0
LINE
8
BLACK
10
317.623954
20
-108.888843
11
317.515475
21
-108.740676
0
LINE
8
BLACK
10
317.756246
20
-109.018488
11
317.623954
21
-108.888843
0
LINE
8
BLACK
10
317.907058
20
-109.124322
11
317.756246
21
-109.018488
0
LINE
8
BLACK
10
318.071099
20
-109.206342
11
317.907058
21
-109.124322
0
LINE
8
BLACK
10
318.248370
20
-109.261905
11
318.071099
21
-109.206342
0
LINE
8
BLACK
10
318.430932
20
-109.288363
11
318.248370
21
-109.261905
0
LINE
8
BLACK
10
318.613494
20
-109.288363
11
318.430932
21
-109.288363
0
LINE
8
BLACK
10
318.796057
20
-109.256613
11
318.613494
21
-109.288363
0
LINE
8
BLACK
10
318.796057
20
-109.256613
11
318.796057
21
-109.256613
0
LINE
8
BLACK
10
318.796057
20
-109.256613
11
318.796057
21
-109.256613
0
LINE
8
BLACK
10
335.097015
20
-105.192618
11
318.796057
21
-109.256613
0
LINE
8
BLACK
10
335.097015
20
-105.192618
11
335.097015
21
-105.192618
0
LINE
8
BLACK
10
335.097015
20
-105.192618
11
335.097015
21
-105.192618
0
LINE
8
BLACK
10
335.184328
20
-105.171452
11
335.097015
21
-105.192618
0
LINE
8
BLACK
10
335.361598
20
-105.158223
11
335.184328
21
-105.171452
0
LINE
8
BLACK
10
335.541515
20
-105.176743
11
335.361598
21
-105.158223
0
LINE
8
BLACK
10
335.713494
20
-105.227014
11
335.541515
21
-105.176743
0
LINE
8
BLACK
10
335.874889
20
-105.306389
11
335.713494
21
-105.227014
0
LINE
8
BLACK
10
336.020410
20
-105.409576
11
335.874889
21
-105.306389
0
LINE
8
BLACK
10
336.144764
20
-105.539222
11
336.020410
21
-105.409576
0
LINE
8
BLACK
10
336.245306
20
-105.687389
11
336.144764
21
-105.539222
0
LINE
8
BLACK
10
336.316743
20
-105.851430
11
336.245306
21
-105.687389
0
LINE
8
BLACK
10
336.340555
20
-105.938742
11
336.316743
21
-105.851430
0
LINE
8
BLACK
10
336.340555
20
-105.938742
11
336.340555
21
-105.938742
0
LINE
8
BLACK
10
336.343201
20
-105.944034
11
336.340555
21
-105.938742
0
LINE
8
BLACK
10
336.343201
20
-105.951972
11
336.343201
21
-105.944034
0
LINE
8
BLACK
10
336.343201
20
-105.951972
11
336.343201
21
-105.951972
0
LINE
8
BLACK
10
336.433159
20
-106.113367
11
336.343201
21
-105.951972
0
LINE
8
BLACK
10
336.544284
20
-106.258888
11
336.433159
21
-106.113367
0
LINE
8
BLACK
10
336.676576
20
-106.383242
11
336.544284
21
-106.258888
0
LINE
8
BLACK
10
336.830034
20
-106.486429
11
336.676576
21
-106.383242
0
LINE
8
BLACK
10
336.994075
20
-106.565804
11
336.830034
21
-106.486429
0
LINE
8
BLACK
10
337.171346
20
-106.616075
11
336.994075
21
-106.565804
0
LINE
8
BLACK
10
337.353908
20
-106.639887
11
337.171346
21
-106.616075
0
LINE
8
BLACK
10
337.536471
20
-106.634596
11
337.353908
21
-106.639887
0
LINE
8
BLACK
10
337.713741
20
-106.602846
11
337.536471
21
-106.634596
0
LINE
8
BLACK
10
337.716387
20
-106.600200
11
337.713741
21
-106.602846
0
LINE
8
BLACK
10
354.017346
20
-102.536205
11
337.716387
21
-106.600200
0
LINE
8
BLACK
10
354.017346
20
-102.536205
11
354.017346
21
-102.536205
0
LINE
8
BLACK
10
354.104658
20
-102.515038
11
354.017346
21
-102.536205
0
LINE
8
BLACK
10
354.281929
20
-102.501809
11
354.104658
21
-102.515038
0
LINE
8
BLACK
10
354.461845
20
-102.520330
11
354.281929
21
-102.501809
0
LINE
8
BLACK
10
354.633824
20
-102.570601
11
354.461845
21
-102.520330
0
LINE
8
BLACK
10
354.795220
20
-102.649976
11
354.633824
21
-102.570601
0
LINE
8
BLACK
10
354.938094
20
-102.755809
11
354.795220
21
-102.649976
0
LINE
8
BLACK
10
355.065094
20
-102.882809
11
354.938094
21
-102.755809
0
LINE
8
BLACK
10
355.162990
20
-103.033621
11
355.065094
21
-102.882809
0
LINE
8
BLACK
10
355.237073
20
-103.197662
11
355.162990
21
-103.033621
0
LINE
8
BLACK
10
355.258240
20
-103.282329
11
355.237073
21
-103.197662
0
LINE
8
BLACK
10
355.258240
20
-103.282329
11
355.258240
21
-103.282329
0
LINE
8
BLACK
10
355.258240
20
-103.282329
11
355.258240
21
-103.282329
0
LINE
8
BLACK
10
355.258240
20
-103.282329
11
355.258240
21
-103.282329
0
LINE
8
BLACK
10
364.404874
20
-139.961470
11
355.258240
21
-103.282329
0
LINE
8
BLACK
10
364.404874
20
-139.961470
11
364.404874
21
-139.961470
0
LINE
8
BLACK
10
364.404874
20
-139.961470
11
364.404874
21
-139.961470
0
LINE
8
BLACK
10
364.426041
20
-140.048783
11
364.404874
21
-139.961470
0
LINE
8
BLACK
10
364.436624
20
-140.226053
11
364.426041
21
-140.048783
0
LINE
8
BLACK
10
364.418103
20
-140.405970
11
364.436624
21
-140.226053
0
LINE
8
BLACK
10
364.370478
20
-140.577949
11
364.418103
21
-140.405970
0
LINE
8
BLACK
10
364.291104
20
-140.739344
11
364.370478
21
-140.577949
0
LINE
8
BLACK
10
364.185270
20
-140.884865
11
364.291104
21
-140.739344
0
LINE
8
BLACK
10
364.055625
20
-141.009219
11
364.185270
21
-140.884865
0
LINE
8
BLACK
10
363.907458
20
-141.109761
11
364.055625
21
-141.009219
0
LINE
8
BLACK
10
363.743417
20
-141.181198
11
363.907458
21
-141.109761
0
LINE
8
BLACK
10
363.656104
20
-141.202365
11
363.743417
21
-141.181198
0
LINE
8
BLACK
10
363.656104
20
-141.202365
11
363.656104
21
-141.202365
0
LINE
8
BLACK
10
363.656104
20
-141.202365
11
363.656104
21
-141.202365
0
LINE
8
BLACK
10
363.656104
20
-141.202365
11
363.656104
21
-141.202365
0
LINE
8
BLACK
10
347.355146
20
-145.266359
11
363.656104
21
-141.202365
0
LINE
8
BLACK
10
347.355146
20
-145.266359
11
347.355146
21
-145.266359
0
LINE
8
BLACK
10
347.355146
20
-145.266359
11
347.355146
21
-145.266359
0
LINE
8
BLACK
10
347.355146
20
-145.266359
11
347.355146
21
-145.266359
0
LINE
8
BLACK
10
347.180521
20
-145.327214
11
347.355146
21
-145.266359
0
LINE
8
BLACK
10
347.016479
20
-145.411880
11
347.180521
21
-145.327214
0
LINE
8
BLACK
10
346.868313
20
-145.520359
11
347.016479
21
-145.411880
0
LINE
8
BLACK
10
346.741313
20
-145.652651
11
346.868313
21
-145.520359
0
LINE
8
BLACK
10
346.632834
20
-145.803463
11
346.741313
21
-145.652651
0
LINE
8
BLACK
10
346.550813
20
-145.967504
11
346.632834
21
-145.803463
0
LINE
8
BLACK
10
346.495251
20
-146.142129
11
346.550813
21
-145.967504
0
LINE
8
BLACK
10
346.468793
20
-146.324691
11
346.495251
21
-146.142129
0
LINE
8
BLACK
10
346.468793
20
-146.509900
11
346.468793
21
-146.324691
0
LINE
8
BLACK
10
346.500543
20
-146.692462
11
346.468793
21
-146.509900
0
LINE
8
BLACK
10
346.500543
20
-146.692462
11
346.500543
21
-146.692462
0
LINE
8
BLACK
10
346.500543
20
-146.692462
11
346.500543
21
-146.692462
0
LINE
8
BLACK
10
346.500543
20
-146.692462
11
346.500543
21
-146.692462
0
LINE
8
BLACK
10
350.080351
20
-161.051381
11
346.500543
21
-146.692462
0
LINE
8
BLACK
10
350.080351
20
-161.051381
11
350.080351
21
-161.051381
0
LINE
8
BLACK
10
350.101517
20
-161.138694
11
350.080351
21
-161.051381
0
LINE
8
BLACK
10
350.114746
20
-161.318610
11
350.101517
21
-161.138694
0
LINE
8
BLACK
10
350.096226
20
-161.495881
11
350.114746
21
-161.318610
0
LINE
8
BLACK
10
350.045955
20
-161.667860
11
350.096226
21
-161.495881
0
LINE
8
BLACK
10
349.969226
20
-161.829255
11
350.045955
21
-161.667860
0
LINE
8
BLACK
10
349.863393
20
-161.974776
11
349.969226
21
-161.829255
0
LINE
8
BLACK
10
349.733747
20
-162.099130
11
349.863393
21
-161.974776
0
LINE
8
BLACK
10
349.585580
20
-162.199671
11
349.733747
21
-162.099130
0
LINE
8
BLACK
10
349.421539
20
-162.273755
11
349.585580
21
-162.199671
0
LINE
8
BLACK
10
349.334227
20
-162.294921
11
349.421539
21
-162.273755
0
LINE
8
BLACK
10
349.334227
20
-162.294921
11
349.334227
21
-162.294921
0
LINE
8
BLACK
10
349.334227
20
-162.294921
11
349.334227
21
-162.294921
0
LINE
8
BLACK
10
349.334227
20
-162.294921
11
349.334227
21
-162.294921
0
LINE
8
BLACK
10
331.091229
20
-166.843103
11
349.334227
21
-162.294921
0
LINE
8
BLACK
10
331.091229
20
-166.843103
11
331.091229
21
-166.843103
0
LINE
8
BLACK
10
331.006562
20
-166.864270
11
331.091229
21
-166.843103
0
LINE
8
BLACK
10
330.826646
20
-166.877499
11
331.006562
21
-166.864270
0
LINE
8
BLACK
10
330.649375
20
-166.858978
11
330.826646
21
-166.877499
0
LINE
8
BLACK
10
330.474750
20
-166.808707
11
330.649375
21
-166.858978
0
LINE
8
BLACK
10
330.313355
20
-166.729332
11
330.474750
21
-166.808707
0
LINE
8
BLACK
10
330.170480
20
-166.623499
11
330.313355
21
-166.729332
0
LINE
8
BLACK
10
330.046126
20
-166.496499
11
330.170480
21
-166.623499
0
LINE
8
BLACK
10
329.945584
20
-166.348333
11
330.046126
21
-166.496499
0
LINE
8
BLACK
10
329.871501
20
-166.184291
11
329.945584
21
-166.348333
0
LINE
8
BLACK
10
329.850334
20
-166.096979
11
329.871501
21
-166.184291
0
LINE
8
BLACK
10
329.850334
20
-166.096979
11
329.850334
21
-166.096979
0
LINE
8
BLACK
10
327.842149
20
-158.043073
11
329.850334
21
-166.096979
0
LINE
8
BLACK
10
327.842149
20
-158.043073
11
327.842149
21
-158.043073
0
LINE
8
BLACK
10
327.783941
20
-157.868448
11
327.842149
21
-158.043073
0
LINE
8
BLACK
10
327.699275
20
-157.704406
11
327.783941
21
-157.868448
0
LINE
8
BLACK
10
327.588150
20
-157.556240
11
327.699275
21
-157.704406
0
LINE
8
BLACK
10
327.458504
20
-157.426594
11
327.588150
21
-157.556240
0
LINE
8
BLACK
10
327.307692
20
-157.320761
11
327.458504
21
-157.426594
0
LINE
8
BLACK
10
327.141005
20
-157.238740
11
327.307692
21
-157.320761
0
LINE
8
BLACK
10
326.966380
20
-157.183178
11
327.141005
21
-157.238740
0
LINE
8
BLACK
10
326.783817
20
-157.154074
11
326.966380
21
-157.183178
0
LINE
8
BLACK
10
326.598609
20
-157.156719
11
326.783817
21
-157.154074
0
LINE
8
BLACK
10
326.418693
20
-157.185824
11
326.598609
21
-157.156719
0
LINE
8
BLACK
10
326.418693
20
-157.185824
11
326.418693
21
-157.185824
0
LINE
8
BLACK
10
326.418693
20
-157.185824
11
326.418693
21
-157.185824
0
LINE
8
BLACK
10
326.418693
20
-157.185824
11
326.418693
21
-157.185824
0
LINE
8
BLACK
10
310.117734
20
-161.252464
11
326.418693
21
-157.185824
0
LINE
8
BLACK
10
310.117734
20
-161.252464
11
310.117734
21
-161.252464
0
LINE
8
BLACK
10
310.117734
20
-161.252464
11
310.117734
21
-161.252464
0
LINE
8
BLACK
10
310.030422
20
-161.273631
11
310.117734
21
-161.252464
0
LINE
8
BLACK
10
309.850505
20
-161.284214
11
310.030422
21
-161.273631
0
LINE
8
BLACK
10
309.673235
20
-161.265693
11
309.850505
21
-161.284214
0
LINE
8
BLACK
10
309.501256
20
-161.218069
11
309.673235
21
-161.265693
0
LINE
8
BLACK
10
309.339860
20
-161.138694
11
309.501256
21
-161.218069
0
LINE
8
BLACK
10
309.194340
20
-161.032860
11
309.339860
21
-161.138694
0
LINE
8
BLACK
10
309.069986
20
-160.903215
11
309.194340
21
-161.032860
0
LINE
8
BLACK
10
308.969444
20
-160.755048
11
309.069986
21
-160.903215
0
LINE
8
BLACK
10
308.895361
20
-160.591007
11
308.969444
21
-160.755048
0
LINE
8
BLACK
10
308.874194
20
-160.506340
11
308.895361
21
-160.591007
0
LINE
8
BLACK
10
308.874194
20
-160.503694
11
308.874194
21
-160.506340
0
LINE
8
BLACK
10
308.681049
20
-159.728466
11
308.874194
21
-160.503694
0
LINE
8
BLACK
10
308.681049
20
-159.725820
11
308.681049
21
-159.728466
0
LINE
8
BLACK
10
308.622840
20
-159.553841
11
308.681049
21
-159.725820
0
LINE
8
BLACK
10
308.538174
20
-159.389800
11
308.622840
21
-159.553841
0
LINE
8
BLACK
10
308.427049
20
-159.241634
11
308.538174
21
-159.389800
0
LINE
8
BLACK
10
308.294757
20
-159.111988
11
308.427049
21
-159.241634
0
LINE
8
BLACK
10
308.146591
20
-159.006155
11
308.294757
21
-159.111988
0
LINE
8
BLACK
10
307.979904
20
-158.924134
11
308.146591
21
-159.006155
0
LINE
8
BLACK
10
307.805279
20
-158.868572
11
307.979904
21
-158.924134
0
LINE
8
BLACK
10
307.622717
20
-158.839467
11
307.805279
21
-158.868572
0
LINE
8
BLACK
10
307.437509
20
-158.842113
11
307.622717
21
-158.839467
0
LINE
8
BLACK
10
307.257592
20
-158.873863
11
307.437509
21
-158.842113
0
LINE
8
BLACK
10
307.257592
20
-158.873863
11
307.257592
21
-158.873863
0
LINE
8
BLACK
10
292.896027
20
-162.453671
11
307.257592
21
-158.873863
0
LINE
8
BLACK
10
292.896027
20
-162.453671
11
292.896027
21
-162.453671
0
LINE
8
BLACK
10
292.896027
20
-162.453671
11
292.896027
21
-162.453671
0
LINE
8
BLACK
10
292.896027
20
-162.453671
11
292.896027
21
-162.453671
0
LINE
8
BLACK
10
292.721402
20
-162.511879
11
292.896027
21
-162.453671
0
LINE
8
BLACK
10
292.557361
20
-162.596546
11
292.721402
21
-162.511879
0
LINE
8
BLACK
10
292.409194
20
-162.707671
11
292.557361
21
-162.596546
0
LINE
8
BLACK
10
292.279548
20
-162.837317
11
292.409194
21
-162.707671
0
LINE
8
BLACK
10
292.173715
20
-162.988129
11
292.279548
21
-162.837317
0
LINE
8
BLACK
10
292.091695
20
-163.152170
11
292.173715
21
-162.988129
0
LINE
8
BLACK
10
292.036132
20
-163.329441
11
292.091695
21
-163.152170
0
LINE
8
BLACK
10
292.007028
20
-163.512003
11
292.036132
21
-163.329441
0
LINE
8
BLACK
10
292.009674
20
-163.694565
11
292.007028
21
-163.512003
0
LINE
8
BLACK
10
292.041424
20
-163.877128
11
292.009674
21
-163.694565
0
LINE
8
BLACK
10
292.041424
20
-163.877128
11
292.041424
21
-163.877128
0
LINE
8
BLACK
10
292.041424
20
-163.877128
11
292.041424
21
-163.877128
0
LINE
8
BLACK
10
292.041424
20
-163.877128
11
292.041424
21
-163.877128
0
LINE
8
BLACK
10
298.161229
20
-188.425138
11
292.041424
21
-163.877128
0
LINE
8
BLACK
10
298.161229
20
-188.425138
11
298.161229
21
-188.425138
0
LINE
8
BLACK
10
298.161229
20
-188.425138
11
298.161229
21
-188.425138
0
LINE
8
BLACK
10
298.182395
20
-188.512451
11
298.161229
21
-188.425138
0
LINE
8
BLACK
10
298.195624
20
-188.692367
11
298.182395
21
-188.512451
0
LINE
8
BLACK
10
298.177104
20
-188.869638
11
298.195624
21
-188.692367
0
LINE
8
BLACK
10
298.126833
20
-189.041617
11
298.177104
21
-188.869638
0
LINE
8
BLACK
10
298.047458
20
-189.203012
11
298.126833
21
-189.041617
0
LINE
8
BLACK
10
297.941625
20
-189.348533
11
298.047458
21
-189.203012
0
LINE
8
BLACK
10
297.814625
20
-189.472887
11
297.941625
21
-189.348533
0
LINE
8
BLACK
10
297.663812
20
-189.573429
11
297.814625
21
-189.472887
0
LINE
8
BLACK
10
297.502417
20
-189.647512
11
297.663812
21
-189.573429
0
LINE
8
BLACK
10
297.415104
20
-189.668679
11
297.502417
21
-189.647512
0
LINE
8
BLACK
10
297.415104
20
-189.668679
11
297.415104
21
-189.668679
0
LINE
8
BLACK
10
297.415104
20
-189.668679
11
297.415104
21
-189.668679
0
LINE
8
BLACK
10
297.415104
20
-189.668679
11
297.415104
21
-189.668679
0
LINE
8
BLACK
10
297.415104
20
-189.668679
11
297.415104
21
-189.668679
0
LINE
8
BLACK
10
279.370544
20
-194.166590
11
297.415104
21
-189.668679
0
LINE
8
BLACK
10
279.370544
20
-194.166590
11
279.370544
21
-194.166590
0
LINE
8
BLACK
10
279.370544
20
-194.166590
11
279.370544
21
-194.166590
0
LINE
8
BLACK
10
279.262065
20
-194.198339
11
279.370544
21
-194.166590
0
LINE
8
BLACK
10
279.158877
20
-194.243319
11
279.262065
21
-194.198339
0
LINE
8
BLACK
10
279.058336
20
-194.293589
11
279.158877
21
-194.243319
0
LINE
8
BLACK
10
263.212725
20
-203.628078
11
279.058336
21
-194.293589
0
LINE
8
BLACK
10
263.212725
20
-203.628078
11
263.212725
21
-203.628078
0
LINE
8
BLACK
10
263.212725
20
-203.628078
11
263.212725
21
-203.628078
0
LINE
8
BLACK
10
263.212725
20
-203.628078
11
263.212725
21
-203.628078
0
LINE
8
BLACK
10
263.118533
20
-203.691578
11
263.212725
21
-203.628078
0
LINE
8
BLACK
10
263.030427
20
-203.760369
11
263.118533
21
-203.691578
0
LINE
8
BLACK
10
262.949729
20
-203.839744
11
263.030427
21
-203.760369
0
LINE
8
BLACK
10
262.949729
20
-203.839744
11
262.949729
21
-203.839744
0
LINE
8
BLACK
10
250.267737
20
-217.439310
11
262.949729
21
-203.839744
0
LINE
8
BLACK
10
250.267737
20
-217.439310
11
250.267737
21
-217.439310
0
LINE
8
BLACK
10
250.267737
20
-217.439310
11
250.267737
21
-217.439310
0
LINE
8
BLACK
10
250.206618
20
-217.505456
11
250.267737
21
-217.439310
0
LINE
8
BLACK
10
250.063214
20
-217.613935
11
250.206618
21
-217.505456
0
LINE
8
BLACK
10
249.903406
20
-217.695956
11
250.063214
21
-217.613935
0
LINE
8
BLACK
10
249.731956
20
-217.746226
11
249.903406
21
-217.695956
0
LINE
8
BLACK
10
249.553892
20
-217.770039
11
249.731956
21
-217.746226
0
LINE
8
BLACK
10
249.374769
20
-217.759456
11
249.553892
21
-217.770039
0
LINE
8
BLACK
10
249.200144
20
-217.719768
11
249.374769
21
-217.759456
0
LINE
8
BLACK
10
249.035045
20
-217.648331
11
249.200144
21
-217.719768
0
LINE
8
BLACK
10
248.884497
20
-217.550435
11
249.035045
21
-217.648331
0
LINE
8
BLACK
10
248.819409
20
-217.489581
11
248.884497
21
-217.550435
0
LINE
8
BLACK
10
248.818880
20
-217.489581
11
248.819409
21
-217.489581
0
LINE
8
BLACK
10
235.069560
20
-204.667889
11
248.818880
21
-217.489581
0
LINE
8
BLACK
10
235.069560
20
-204.667889
11
235.069560
21
-204.667889
0
LINE
8
BLACK
10
235.003944
20
-204.607035
11
235.069560
21
-204.667889
0
LINE
8
BLACK
10
234.895994
20
-204.464160
11
235.003944
21
-204.607035
0
LINE
8
BLACK
10
234.814502
20
-204.305410
11
234.895994
21
-204.464160
0
LINE
8
BLACK
10
234.762115
20
-204.133431
11
234.814502
21
-204.305410
0
LINE
8
BLACK
10
234.740154
20
-203.956161
11
234.762115
21
-204.133431
0
LINE
8
BLACK
10
234.749679
20
-203.776244
11
234.740154
21
-203.956161
0
LINE
8
BLACK
10
234.789896
20
-203.601619
11
234.749679
21
-203.776244
0
LINE
8
BLACK
10
234.860010
20
-203.434932
11
234.789896
21
-203.601619
0
LINE
8
BLACK
10
234.957641
20
-203.286766
11
234.860010
21
-203.434932
0
LINE
8
BLACK
10
235.018496
20
-203.220620
11
234.957641
21
-203.286766
0
LINE
8
BLACK
10
235.019025
20
-203.220620
11
235.018496
21
-203.220620
0
LINE
8
BLACK
10
254.909846
20
-181.889938
11
235.019025
21
-203.220620
0
LINE
8
BLACK
10
254.909846
20
-181.889938
11
254.909846
21
-181.889938
0
LINE
8
BLACK
10
254.909846
20
-181.889938
11
254.909846
21
-181.889938
0
LINE
8
BLACK
10
254.909846
20
-181.889938
11
254.909846
21
-181.889938
0
LINE
8
BLACK
10
254.910639
20
-181.887293
11
254.909846
21
-181.889938
0
LINE
8
BLACK
10
255.030231
20
-181.736480
11
254.910639
21
-181.887293
0
LINE
8
BLACK
10
255.123893
20
-181.567147
11
255.030231
21
-181.736480
0
LINE
8
BLACK
10
255.188187
20
-181.381939
11
255.123893
21
-181.567147
0
LINE
8
BLACK
10
255.220995
20
-181.191439
11
255.188187
21
-181.381939
0
LINE
8
BLACK
10
255.221789
20
-180.995648
11
255.220995
21
-181.191439
0
LINE
8
BLACK
10
255.190568
20
-180.805148
11
255.221789
21
-180.995648
0
LINE
8
BLACK
10
255.190568
20
-180.805148
11
255.190568
21
-180.805148
0
LINE
8
BLACK
10
248.961226
20
-155.817930
11
255.190568
21
-180.805148
0
LINE
8
BLACK
10
248.961226
20
-155.817930
11
248.961226
21
-155.817930
0
LINE
8
BLACK
10
248.961226
20
-155.817930
11
248.961226
21
-155.817930
0
LINE
8
BLACK
10
248.961226
20
-155.817930
11
248.961226
21
-155.817930
0
LINE
8
BLACK
10
248.960432
20
-155.817930
11
248.961226
21
-155.817930
0
LINE
8
BLACK
10
248.898520
20
-155.635367
11
248.960432
21
-155.817930
0
LINE
8
BLACK
10
248.806445
20
-155.463388
11
248.898520
21
-155.635367
0
LINE
8
BLACK
10
248.687383
20
-155.309930
11
248.806445
21
-155.463388
0
LINE
8
BLACK
10
248.544508
20
-155.177639
11
248.687383
21
-155.309930
0
LINE
8
BLACK
10
248.381789
20
-155.071805
11
248.544508
21
-155.177639
0
LINE
8
BLACK
10
248.203460
20
-154.992431
11
248.381789
21
-155.071805
0
LINE
8
BLACK
10
248.015077
20
-154.944806
11
248.203460
21
-154.992431
0
LINE
8
BLACK
10
247.821138
20
-154.928931
11
248.015077
21
-154.944806
0
LINE
8
BLACK
10
247.821138
20
-154.928931
11
247.821138
21
-154.928931
0
LINE
8
BLACK
10
175.642366
20
-154.928931
11
247.821138
21
-154.928931
0
LINE
8
BLACK
10
175.642366
20
-154.928931
11
175.642366
21
-154.928931
0
LINE
8
BLACK
10
175.642366
20
-154.928931
11
175.642366
21
-154.928931
0
LINE
8
BLACK
10
175.640514
20
-154.928931
11
175.642366
21
-154.928931
0
LINE
8
BLACK
10
175.448427
20
-154.944806
11
175.640514
21
-154.928931
0
LINE
8
BLACK
10
175.259779
20
-154.992431
11
175.448427
21
-154.944806
0
LINE
8
BLACK
10
175.081715
20
-155.071805
11
175.259779
21
-154.992431
0
LINE
8
BLACK
10
174.918996
20
-155.177639
11
175.081715
21
-155.071805
0
LINE
8
BLACK
10
174.776121
20
-155.309930
11
174.918996
21
-155.177639
0
LINE
8
BLACK
10
174.657059
20
-155.463388
11
174.776121
21
-155.309930
0
LINE
8
BLACK
10
174.564984
20
-155.635367
11
174.657059
21
-155.463388
0
LINE
8
BLACK
10
174.502278
20
-155.817930
11
174.564984
21
-155.635367
0
LINE
8
BLACK
10
174.502278
20
-155.817930
11
174.502278
21
-155.817930
0
LINE
8
BLACK
10
174.502278
20
-155.817930
11
174.502278
21
-155.817930
0
LINE
8
BLACK
10
168.272936
20
-180.805148
11
174.502278
21
-155.817930
0
LINE
8
BLACK
10
168.272936
20
-180.805148
11
168.272936
21
-180.805148
0
LINE
8
BLACK
10
168.241451
20
-180.995648
11
168.272936
21
-180.805148
0
LINE
8
BLACK
10
168.242509
20
-181.191439
11
168.241451
21
-180.995648
0
LINE
8
BLACK
10
168.275317
20
-181.381939
11
168.242509
21
-181.191439
0
LINE
8
BLACK
10
168.339611
20
-181.567147
11
168.275317
21
-181.381939
0
LINE
8
BLACK
10
168.433009
20
-181.736480
11
168.339611
21
-181.567147
0
LINE
8
BLACK
10
168.553658
20
-181.889938
11
168.433009
21
-181.736480
0
LINE
8
BLACK
10
168.553658
20
-181.889938
11
168.553658
21
-181.889938
0
LINE
8
BLACK
10
188.444479
20
-203.220620
11
168.553658
21
-181.889938
0
LINE
8
BLACK
10
188.505598
20
-203.286766
11
188.444479
21
-203.220620
0
LINE
8
BLACK
10
188.603229
20
-203.434932
11
188.505598
21
-203.286766
0
LINE
8
BLACK
10
188.673344
20
-203.601619
11
188.603229
21
-203.434932
0
LINE
8
BLACK
10
188.713825
20
-203.776244
11
188.673344
21
-203.601619
0
LINE
8
BLACK
10
188.723085
20
-203.956161
11
188.713825
21
-203.776244
0
LINE
8
BLACK
10
188.701389
20
-204.133431
11
188.723085
21
-203.956161
0
LINE
8
BLACK
10
188.648737
20
-204.305410
11
188.701389
21
-204.133431
0
LINE
8
BLACK
10
188.567510
20
-204.464160
11
188.648737
21
-204.305410
0
LINE
8
BLACK
10
188.459560
20
-204.607035
11
188.567510
21
-204.464160
0
LINE
8
BLACK
10
188.393944
20
-204.667889
11
188.459560
21
-204.607035
0
LINE
8
BLACK
10
188.393944
20
-204.667889
11
188.393944
21
-204.667889
0
LINE
8
BLACK
10
188.393944
20
-204.667889
11
188.393944
21
-204.667889
0
LINE
8
BLACK
10
188.393944
20
-204.667889
11
188.393944
21
-204.667889
0
LINE
8
BLACK
10
174.644359
20
-217.489581
11
188.393944
21
-204.667889
0
LINE
8
BLACK
10
174.644359
20
-217.489581
11
174.644359
21
-217.489581
0
LINE
8
BLACK
10
174.644359
20
-217.489581
11
174.644359
21
-217.489581
0
LINE
8
BLACK
10
174.644359
20
-217.489581
11
174.644359
21
-217.489581
0
LINE
8
BLACK
10
174.578743
20
-217.550435
11
174.644359
21
-217.489581
0
LINE
8
BLACK
10
174.428459
20
-217.648331
11
174.578743
21
-217.550435
0
LINE
8
BLACK
10
174.263360
20
-217.719768
11
174.428459
21
-217.648331
0
LINE
8
BLACK
10
174.088735
20
-217.759456
11
174.263360
21
-217.719768
0
LINE
8
BLACK
10
173.909612
20
-217.770039
11
174.088735
21
-217.759456
0
LINE
8
BLACK
10
173.731548
20
-217.746226
11
173.909612
21
-217.770039
0
LINE
8
BLACK
10
173.559833
20
-217.695956
11
173.731548
21
-217.746226
0
LINE
8
BLACK
10
173.400025
20
-217.613935
11
173.559833
21
-217.695956
0
LINE
8
BLACK
10
173.256886
20
-217.505456
11
173.400025
21
-217.613935
0
LINE
8
BLACK
10
173.195767
20
-217.439310
11
173.256886
21
-217.505456
0
LINE
8
BLACK
10
173.195767
20
-217.439310
11
173.195767
21
-217.439310
0
LINE
8
BLACK
10
173.195767
20
-217.439310
11
173.195767
21
-217.439310
0
LINE
8
BLACK
10
173.195767
20
-217.439310
11
173.195767
21
-217.439310
0
LINE
8
BLACK
10
173.195767
20
-217.439310
11
173.195767
21
-217.439310
0
LINE
8
BLACK
10
160.513775
20
-203.839744
11
173.195767
21
-217.439310
0
LINE
8
BLACK
10
160.513510
20
-203.839744
11
160.513775
21
-203.839744
0
LINE
8
BLACK
10
160.432812
20
-203.760369
11
160.513510
21
-203.839744
0
LINE
8
BLACK
10
160.344971
20
-203.691578
11
160.432812
21
-203.760369
0
LINE
8
BLACK
10
160.250779
20
-203.628078
11
160.344971
21
-203.691578
0
LINE
8
BLACK
10
160.250779
20
-203.628078
11
160.250779
21
-203.628078
0
LINE
8
BLACK
10
144.404374
20
-194.293589
11
160.250779
21
-203.628078
0
LINE
8
BLACK
10
144.404374
20
-194.293589
11
144.404374
21
-194.293589
0
LINE
8
BLACK
10
144.404374
20
-194.293589
11
144.404374
21
-194.293589
0
LINE
8
BLACK
10
144.404374
20
-194.293589
11
144.404374
21
-194.293589
0
LINE
8
BLACK
10
144.404374
20
-194.293589
11
144.404374
21
-194.293589
0
LINE
8
BLACK
10
144.304627
20
-194.243319
11
144.404374
21
-194.293589
0
LINE
8
BLACK
10
144.200381
20
-194.198339
11
144.304627
21
-194.243319
0
LINE
8
BLACK
10
144.092431
20
-194.166590
11
144.200381
21
-194.198339
0
LINE
8
BLACK
10
144.092431
20
-194.166590
11
144.092431
21
-194.166590
0
LINE
8
BLACK
10
144.092431
20
-194.166590
11
144.092431
21
-194.166590
0
LINE
8
BLACK
10
126.049193
20
-189.668679
11
144.092431
21
-194.166590
0
LINE
8
BLACK
10
126.049193
20
-189.668679
11
126.049193
21
-189.668679
0
LINE
8
BLACK
10
125.962145
20
-189.647512
11
126.049193
21
-189.668679
0
LINE
8
BLACK
10
125.798369
20
-189.573429
11
125.962145
21
-189.647512
0
LINE
8
BLACK
10
125.649673
20
-189.472887
11
125.798369
21
-189.573429
0
LINE
8
BLACK
10
125.520556
20
-189.348533
11
125.649673
21
-189.472887
0
LINE
8
BLACK
10
125.415252
20
-189.203012
11
125.520556
21
-189.348533
0
LINE
8
BLACK
10
125.336671
20
-189.041617
11
125.415252
21
-189.203012
0
LINE
8
BLACK
10
125.287194
20
-188.869638
11
125.336671
21
-189.041617
0
LINE
8
BLACK
10
125.268409
20
-188.692367
11
125.287194
21
-188.869638
0
LINE
8
BLACK
10
125.280844
20
-188.512451
11
125.268409
21
-188.692367
0
LINE
8
BLACK
10
125.302540
20
-188.425138
11
125.280844
21
-188.512451
0
LINE
8
BLACK
10
125.302805
20
-188.425138
11
125.302540
21
-188.425138
0
LINE
8
BLACK
10
125.302805
20
-188.425138
11
125.302805
21
-188.425138
0
LINE
8
BLACK
10
125.302805
20
-188.425138
11
125.302805
21
-188.425138
0
LINE
8
BLACK
10
125.302805
20
-188.425138
11
125.302805
21
-188.425138
0
LINE
8
BLACK
10
131.423403
20
-163.877128
11
125.302805
21
-188.425138
0
LINE
8
BLACK
10
131.423403
20
-163.877128
11
131.423403
21
-163.877128
0
LINE
8
BLACK
10
131.453830
20
-163.694565
11
131.423403
21
-163.877128
0
LINE
8
BLACK
10
131.455418
20
-163.512003
11
131.453830
21
-163.694565
0
LINE
8
BLACK
10
131.428166
20
-163.329441
11
131.455418
21
-163.512003
0
LINE
8
BLACK
10
131.372603
20
-163.152170
11
131.428166
21
-163.329441
0
LINE
8
BLACK
10
131.290318
20
-162.988129
11
131.372603
21
-163.152170
0
LINE
8
BLACK
10
131.183426
20
-162.837317
11
131.290318
21
-162.988129
0
LINE
8
BLACK
10
131.054045
20
-162.705025
11
131.183426
21
-162.837317
0
LINE
8
BLACK
10
130.905879
20
-162.596546
11
131.054045
21
-162.705025
0
LINE
8
BLACK
10
130.742367
20
-162.511879
11
130.905879
21
-162.596546
0
LINE
8
BLACK
10
130.567477
20
-162.453671
11
130.742367
21
-162.511879
0
LINE
8
BLACK
10
130.567477
20
-162.453671
11
130.567477
21
-162.453671
0
LINE
8
BLACK
10
130.567477
20
-162.453671
11
130.567477
21
-162.453671
0
LINE
8
BLACK
10
130.567477
20
-162.453671
11
130.567477
21
-162.453671
0
LINE
8
BLACK
10
116.206970
20
-158.873863
11
130.567477
21
-162.453671
0
LINE
8
BLACK
10
116.206970
20
-158.873863
11
116.206970
21
-158.873863
0
LINE
8
BLACK
10
116.206970
20
-158.873863
11
116.206970
21
-158.873863
0
LINE
8
BLACK
10
116.203795
20
-158.871217
11
116.206970
21
-158.873863
0
LINE
8
BLACK
10
116.025202
20
-158.842113
11
116.203795
21
-158.871217
0
LINE
8
BLACK
10
115.840787
20
-158.839467
11
116.025202
21
-158.842113
0
LINE
8
BLACK
10
115.658490
20
-158.868572
11
115.840787
21
-158.839467
0
LINE
8
BLACK
10
115.482542
20
-158.924134
11
115.658490
21
-158.868572
0
LINE
8
BLACK
10
115.317707
20
-159.006155
11
115.482542
21
-158.924134
0
LINE
8
BLACK
10
115.167424
20
-159.111988
11
115.317707
21
-159.006155
0
LINE
8
BLACK
10
115.035926
20
-159.241634
11
115.167424
21
-159.111988
0
LINE
8
BLACK
10
114.926389
20
-159.389800
11
115.035926
21
-159.241634
0
LINE
8
BLACK
10
114.841193
20
-159.553841
11
114.926389
21
-159.389800
0
LINE
8
BLACK
10
114.782720
20
-159.728466
11
114.841193
21
-159.553841
0
LINE
8
BLACK
10
114.782720
20
-159.728466
11
114.782720
21
-159.728466
0
LINE
8
BLACK
10
114.589310
20
-160.503694
11
114.782720
21
-159.728466
0
LINE
8
BLACK
10
114.589310
20
-160.503694
11
114.589310
21
-160.503694
0
LINE
8
BLACK
10
114.589310
20
-160.503694
11
114.589310
21
-160.503694
0
LINE
8
BLACK
10
114.567614
20
-160.591007
11
114.589310
21
-160.503694
0
LINE
8
BLACK
10
114.494589
20
-160.755048
11
114.567614
21
-160.591007
0
LINE
8
BLACK
10
114.394312
20
-160.903215
11
114.494589
21
-160.755048
0
LINE
8
BLACK
10
114.269694
20
-161.032860
11
114.394312
21
-160.903215
0
LINE
8
BLACK
10
114.124702
20
-161.138694
11
114.269694
21
-161.032860
0
LINE
8
BLACK
10
113.963306
20
-161.218069
11
114.124702
21
-161.138694
0
LINE
8
BLACK
10
113.791063
20
-161.265693
11
113.963306
21
-161.218069
0
LINE
8
BLACK
10
113.612734
20
-161.284214
11
113.791063
21
-161.265693
0
LINE
8
BLACK
10
113.433611
20
-161.273631
11
113.612734
21
-161.284214
0
LINE
8
BLACK
10
113.346828
20
-161.252464
11
113.433611
21
-161.273631
0
LINE
8
BLACK
10
113.346563
20
-161.252464
11
113.346828
21
-161.252464
0
LINE
8
BLACK
10
97.045869
20
-157.185824
11
113.346563
21
-161.252464
0
LINE
8
BLACK
10
97.045340
20
-157.185824
11
97.045869
21
-157.185824
0
LINE
8
BLACK
10
96.863836
20
-157.156719
11
97.045340
21
-157.185824
0
LINE
8
BLACK
10
96.679422
20
-157.154074
11
96.863836
21
-157.156719
0
LINE
8
BLACK
10
96.497124
20
-157.183178
11
96.679422
21
-157.154074
0
LINE
8
BLACK
10
96.321441
20
-157.238740
11
96.497124
21
-157.183178
0
LINE
8
BLACK
10
96.156341
20
-157.320761
11
96.321441
21
-157.238740
0
LINE
8
BLACK
10
96.006323
20
-157.426594
11
96.156341
21
-157.320761
0
LINE
8
BLACK
10
95.874825
20
-157.556240
11
96.006323
21
-157.426594
0
LINE
8
BLACK
10
95.765023
20
-157.704406
11
95.874825
21
-157.556240
0
LINE
8
BLACK
10
95.679827
20
-157.868448
11
95.765023
21
-157.704406
0
LINE
8
BLACK
10
95.621355
20
-158.043073
11
95.679827
21
-157.868448
0
LINE
8
BLACK
10
95.621355
20
-158.043073
11
95.621355
21
-158.043073
0
LINE
8
BLACK
10
93.613434
20
-166.096979
11
95.621355
21
-158.043073
0
LINE
8
BLACK
10
93.613434
20
-166.096979
11
93.613434
21
-166.096979
0
LINE
8
BLACK
10
93.591738
20
-166.184291
11
93.613434
21
-166.096979
0
LINE
8
BLACK
10
93.518713
20
-166.348333
11
93.591738
21
-166.184291
0
LINE
8
BLACK
10
93.418436
20
-166.496499
11
93.518713
21
-166.348333
0
LINE
8
BLACK
10
93.293818
20
-166.626145
11
93.418436
21
-166.496499
0
LINE
8
BLACK
10
93.148826
20
-166.729332
11
93.293818
21
-166.626145
0
LINE
8
BLACK
10
92.987695
20
-166.808707
11
93.148826
21
-166.729332
0
LINE
8
BLACK
10
92.815187
20
-166.858978
11
92.987695
21
-166.808707
0
LINE
8
BLACK
10
92.636858
20
-166.877499
11
92.815187
21
-166.858978
0
LINE
8
BLACK
10
92.458000
20
-166.864270
11
92.636858
21
-166.877499
0
LINE
8
BLACK
10
92.370952
20
-166.843103
11
92.458000
21
-166.864270
0
LINE
8
BLACK
10
92.370952
20
-166.843103
11
92.370952
21
-166.843103
0
LINE
8
BLACK
10
92.370952
20
-166.843103
11
92.370952
21
-166.843103
0
LINE
8
BLACK
10
74.129277
20
-162.294921
11
92.370952
21
-166.843103
0
LINE
8
BLACK
10
74.129277
20
-162.294921
11
74.129277
21
-162.294921
0
LINE
8
BLACK
10
74.129277
20
-162.294921
11
74.129277
21
-162.294921
0
LINE
8
BLACK
10
74.042230
20
-162.273755
11
74.129277
21
-162.294921
0
LINE
8
BLACK
10
73.878453
20
-162.199671
11
74.042230
21
-162.273755
0
LINE
8
BLACK
10
73.729757
20
-162.099130
11
73.878453
21
-162.199671
0
LINE
8
BLACK
10
73.600905
20
-161.974776
11
73.729757
21
-162.099130
0
LINE
8
BLACK
10
73.495337
20
-161.829255
11
73.600905
21
-161.974776
0
LINE
8
BLACK
10
73.416755
20
-161.667860
11
73.495337
21
-161.829255
0
LINE
8
BLACK
10
73.367278
20
-161.495881
11
73.416755
21
-161.667860
0
LINE
8
BLACK
10
73.348493
20
-161.318610
11
73.367278
21
-161.495881
0
LINE
8
BLACK
10
73.361193
20
-161.138694
11
73.348493
21
-161.318610
0
LINE
8
BLACK
10
73.382889
20
-161.051381
11
73.361193
21
-161.138694
0
LINE
8
BLACK
10
73.382889
20
-161.051381
11
73.382889
21
-161.051381
0
LINE
8
BLACK
10
73.382889
20
-161.051381
11
73.382889
21
-161.051381
0
LINE
8
BLACK
10
73.382889
20
-161.051381
11
73.382889
21
-161.051381
0
LINE
8
BLACK
10
76.963226
20
-146.692462
11
73.382889
21
-161.051381
0
LINE
8
BLACK
10
76.963491
20
-146.689816
11
76.963226
21
-146.692462
0
LINE
8
BLACK
10
76.993653
20
-146.509900
11
76.963491
21
-146.689816
0
LINE
8
BLACK
10
76.995240
20
-146.324691
11
76.993653
21
-146.509900
0
LINE
8
BLACK
10
76.967988
20
-146.142129
11
76.995240
21
-146.324691
0
LINE
8
BLACK
10
76.912426
20
-145.967504
11
76.967988
21
-146.142129
0
LINE
8
BLACK
10
76.830141
20
-145.803463
11
76.912426
21
-145.967504
0
LINE
8
BLACK
10
76.723249
20
-145.652651
11
76.830141
21
-145.803463
0
LINE
8
BLACK
10
76.593868
20
-145.520359
11
76.723249
21
-145.652651
0
LINE
8
BLACK
10
76.445702
20
-145.411880
11
76.593868
21
-145.520359
0
LINE
8
BLACK
10
76.282189
20
-145.327214
11
76.445702
21
-145.411880
0
LINE
8
BLACK
10
76.108094
20
-145.269005
11
76.282189
21
-145.327214
0
LINE
8
BLACK
10
76.107300
20
-145.266359
11
76.108094
21
-145.269005
0
LINE
8
BLACK
10
59.806341
20
-141.202365
11
76.107300
21
-145.266359
0
LINE
8
BLACK
10
59.806341
20
-141.202365
11
59.806341
21
-141.202365
0
LINE
8
BLACK
10
59.719558
20
-141.181198
11
59.806341
21
-141.202365
0
LINE
8
BLACK
10
59.555517
20
-141.109761
11
59.719558
21
-141.181198
0
LINE
8
BLACK
10
59.406821
20
-141.009219
11
59.555517
21
-141.109761
0
LINE
8
BLACK
10
59.277969
20
-140.884865
11
59.406821
21
-141.009219
0
LINE
8
BLACK
10
59.172400
20
-140.739344
11
59.277969
21
-140.884865
0
LINE
8
BLACK
10
59.093819
20
-140.577949
11
59.172400
21
-140.739344
0
LINE
8
BLACK
10
59.044607
20
-140.405970
11
59.093819
21
-140.577949
0
LINE
8
BLACK
10
59.025821
20
-140.226053
11
59.044607
21
-140.405970
0
LINE
8
BLACK
10
59.038257
20
-140.048783
11
59.025821
21
-140.226053
0
LINE
8
BLACK
10
59.059953
20
-139.961470
11
59.038257
21
-140.048783
0
LINE
8
BLACK
10
59.059953
20
-139.961470
11
59.059953
21
-139.961470
0
LINE
8
BLACK
10
59.059953
20
-139.961470
11
59.059953
21
-139.961470
0
LINE
8
BLACK
10
68.204470
20
-103.282329
11
59.059953
21
-139.961470
0
LINE
8
BLACK
10
68.226166
20
-103.197662
11
68.204470
21
-103.282329
0
LINE
8
BLACK
10
68.299191
20
-103.033621
11
68.226166
21
-103.197662
0
LINE
8
BLACK
10
68.399468
20
-102.882809
11
68.299191
21
-103.033621
0
LINE
8
BLACK
10
68.524087
20
-102.755809
11
68.399468
21
-102.882809
0
LINE
8
BLACK
10
68.669078
20
-102.649976
11
68.524087
21
-102.755809
0
LINE
8
BLACK
10
68.830209
20
-102.570601
11
68.669078
21
-102.649976
0
LINE
8
BLACK
10
69.002717
20
-102.520330
11
68.830209
21
-102.570601
0
LINE
8
BLACK
10
69.181046
20
-102.501809
11
69.002717
21
-102.520330
0
LINE
8
BLACK
10
69.359904
20
-102.515038
11
69.181046
21
-102.501809
0
LINE
8
BLACK
10
69.446952
20
-102.536205
11
69.359904
21
-102.515038
0
LINE
8
BLACK
10
69.446952
20
-102.536205
11
69.446952
21
-102.536205
0
LINE
8
BLACK
10
69.447481
20
-102.536205
11
69.446952
21
-102.536205
0
LINE
8
BLACK
10
69.447746
20
-102.536205
11
69.447481
21
-102.536205
0
LINE
8
BLACK
10
85.747911
20
-106.600200
11
69.447746
21
-102.536205
0
LINE
8
BLACK
10
85.750557
20
-106.602846
11
85.747911
21
-106.600200
0
LINE
8
BLACK
10
85.926769
20
-106.634596
11
85.750557
21
-106.602846
0
LINE
8
BLACK
10
86.110125
20
-106.639887
11
85.926769
21
-106.634596
0
LINE
8
BLACK
10
86.292158
20
-106.616075
11
86.110125
21
-106.639887
0
LINE
8
BLACK
10
86.468106
20
-106.565804
11
86.292158
21
-106.616075
0
LINE
8
BLACK
10
86.633999
20
-106.486429
11
86.468106
21
-106.565804
0
LINE
8
BLACK
10
86.785605
20
-106.383242
11
86.633999
21
-106.486429
0
LINE
8
BLACK
10
86.919220
20
-106.258888
11
86.785605
21
-106.383242
0
LINE
8
BLACK
10
87.031403
20
-106.113367
11
86.919220
21
-106.258888
0
LINE
8
BLACK
10
87.119509
20
-105.951972
11
87.031403
21
-106.113367
0
LINE
8
BLACK
10
87.119509
20
-105.951972
11
87.119509
21
-105.951972
0
LINE
8
BLACK
10
87.120303
20
-105.944034
11
87.119509
21
-105.951972
0
LINE
8
BLACK
10
87.124007
20
-105.938742
11
87.120303
21
-105.944034
0
LINE
8
BLACK
10
87.124007
20
-105.938742
11
87.124007
21
-105.938742
0
LINE
8
BLACK
10
87.145703
20
-105.851430
11
87.124007
21
-105.938742
0
LINE
8
BLACK
10
87.218728
20
-105.687389
11
87.145703
21
-105.851430
0
LINE
8
BLACK
10
87.319005
20
-105.539222
11
87.218728
21
-105.687389
0
LINE
8
BLACK
10
87.443359
20
-105.412222
11
87.319005
21
-105.539222
0
LINE
8
BLACK
10
87.588615
20
-105.306389
11
87.443359
21
-105.412222
0
LINE
8
BLACK
10
87.749746
20
-105.227014
11
87.588615
21
-105.306389
0
LINE
8
BLACK
10
87.922254
20
-105.176743
11
87.749746
21
-105.227014
0
LINE
8
BLACK
10
88.100583
20
-105.158223
11
87.922254
21
-105.176743
0
LINE
8
BLACK
10
88.279441
20
-105.171452
11
88.100583
21
-105.158223
0
LINE
8
BLACK
10
88.366489
20
-105.192618
11
88.279441
21
-105.171452
0
LINE
8
BLACK
10
88.366489
20
-105.192618
11
88.366489
21
-105.192618
0
LINE
8
BLACK
10
88.366489
20
-105.192618
11
88.366489
21
-105.192618
0
LINE
8
BLACK
10
88.366489
20
-105.192618
11
88.366489
21
-105.192618
0
LINE
8
BLACK
10
88.366489
20
-105.192618
11
88.366489
21
-105.192618
0
LINE
8
BLACK
10
104.667447
20
-109.256613
11
88.366489
21
-105.192618
0
LINE
8
BLACK
10
104.667447
20
-109.256613
11
104.667447
21
-109.256613
0
LINE
8
BLACK
10
104.667447
20
-109.256613
11
104.667447
21
-109.256613
0
LINE
8
BLACK
10
104.667447
20
-109.256613
11
104.667447
21
-109.256613
0
LINE
8
BLACK
10
104.849216
20
-109.288363
11
104.667447
21
-109.256613
0
LINE
8
BLACK
10
105.033630
20
-109.288363
11
104.849216
21
-109.288363
0
LINE
8
BLACK
10
105.215928
20
-109.261905
11
105.033630
21
-109.288363
0
LINE
8
BLACK
10
105.391876
20
-109.206342
11
105.215928
21
-109.261905
0
LINE
8
BLACK
10
105.556711
20
-109.124322
11
105.391876
21
-109.206342
0
LINE
8
BLACK
10
105.706994
20
-109.015843
11
105.556711
21
-109.124322
0
LINE
8
BLACK
10
105.838492
20
-108.888843
11
105.706994
21
-109.015843
0
LINE
8
BLACK
10
105.948029
20
-108.740676
11
105.838492
21
-108.888843
0
LINE
8
BLACK
10
106.033225
20
-108.576635
11
105.948029
21
-108.740676
0
LINE
8
BLACK
10
106.091698
20
-108.402010
11
106.033225
21
-108.576635
0
LINE
8
BLACK
10
106.091698
20
-108.402010
11
106.091698
21
-108.402010
0
LINE
8
BLACK
10
106.091698
20
-108.402010
11
106.091698
21
-108.402010
0
LINE
8
BLACK
10
106.091698
20
-108.402010
11
106.091698
21
-108.402010
0
LINE
8
BLACK
10
108.099618
20
-100.348104
11
106.091698
21
-108.402010
0
LINE
8
BLACK
10
108.099618
20
-100.348104
11
108.099618
21
-100.348104
0
LINE
8
BLACK
10
108.099618
20
-100.348104
11
108.099618
21
-100.348104
0
LINE
8
BLACK
10
108.121314
20
-100.260791
11
108.099618
21
-100.348104
0
LINE
8
BLACK
10
108.194339
20
-100.096750
11
108.121314
21
-100.260791
0
LINE
8
BLACK
10
108.294616
20
-99.948583
11
108.194339
21
-100.096750
0
LINE
8
BLACK
10
108.419234
20
-99.818938
11
108.294616
21
-99.948583
0
LINE
8
BLACK
10
108.564226
20
-99.713104
11
108.419234
21
-99.818938
0
LINE
8
BLACK
10
108.725621
20
-99.636375
11
108.564226
21
-99.713104
0
LINE
8
BLACK
10
108.897865
20
-99.586105
11
108.725621
21
-99.636375
0
LINE
8
BLACK
10
109.076194
20
-99.567584
11
108.897865
21
-99.586105
0
LINE
8
BLACK
10
109.255317
20
-99.580813
11
109.076194
21
-99.567584
0
LINE
8
BLACK
10
109.342100
20
-99.601980
11
109.255317
21
-99.580813
0
LINE
8
BLACK
10
109.342100
20
-99.601980
11
109.342100
21
-99.601980
0
LINE
8
BLACK
10
125.643058
20
-103.665974
11
109.342100
21
-99.601980
0
LINE
8
BLACK
10
125.643058
20
-103.665974
11
125.643058
21
-103.665974
0
LINE
8
BLACK
10
125.643058
20
-103.665974
11
125.643058
21
-103.665974
0
LINE
8
BLACK
10
125.643058
20
-103.665974
11
125.643058
21
-103.665974
0
LINE
8
BLACK
10
125.645175
20
-103.665974
11
125.643058
21
-103.665974
0
LINE
8
BLACK
10
125.825091
20
-103.695079
11
125.645175
21
-103.665974
0
LINE
8
BLACK
10
126.009506
20
-103.697724
11
125.825091
21
-103.695079
0
LINE
8
BLACK
10
126.191804
20
-103.671266
11
126.009506
21
-103.697724
0
LINE
8
BLACK
10
126.367487
20
-103.615704
11
126.191804
21
-103.671266
0
LINE
8
BLACK
10
126.532586
20
-103.533683
11
126.367487
21
-103.615704
0
LINE
8
BLACK
10
126.682605
20
-103.425204
11
126.532586
21
-103.533683
0
LINE
8
BLACK
10
126.814103
20
-103.295558
11
126.682605
21
-103.425204
0
LINE
8
BLACK
10
126.923905
20
-103.147392
11
126.814103
21
-103.295558
0
LINE
8
BLACK
10
127.009100
20
-102.983350
11
126.923905
21
-103.147392
0
LINE
8
BLACK
10
127.067573
20
-102.808725
11
127.009100
21
-102.983350
0
LINE
8
BLACK
10
314.451604
20
-99.424709
11
314.634166
21
-99.451167
0
LINE
8
BLACK
10
314.266396
20
-99.424709
11
314.451604
21
-99.424709
0
LINE
8
BLACK
10
314.083833
20
-99.456459
11
314.266396
21
-99.424709
0
LINE
8
BLACK
10
314.083833
20
-99.456459
11
314.083833
21
-99.456459
0
LINE
8
BLACK
10
297.782875
20
-103.520454
11
314.083833
21
-99.456459
0
LINE
8
BLACK
10
297.782875
20
-103.520454
11
297.782875
21
-103.520454
0
LINE
8
BLACK
10
297.698208
20
-103.541620
11
297.782875
21
-103.520454
0
LINE
8
BLACK
10
297.518292
20
-103.554850
11
297.698208
21
-103.541620
0
LINE
8
BLACK
10
297.338375
20
-103.536329
11
297.518292
21
-103.554850
0
LINE
8
BLACK
10
297.166396
20
-103.486058
11
297.338375
21
-103.536329
0
LINE
8
BLACK
10
297.005001
20
-103.406683
11
297.166396
21
-103.486058
0
LINE
8
BLACK
10
296.862126
20
-103.300850
11
297.005001
21
-103.406683
0
LINE
8
BLACK
10
296.735126
20
-103.173850
11
296.862126
21
-103.300850
0
LINE
8
BLACK
10
296.637230
20
-103.023038
11
296.735126
21
-103.173850
0
LINE
8
BLACK
10
296.563147
20
-102.861642
11
296.637230
21
-103.023038
0
LINE
8
BLACK
10
296.541981
20
-102.774330
11
296.563147
21
-102.861642
0
LINE
8
BLACK
10
296.541981
20
-102.774330
11
296.541981
21
-102.774330
0
LINE
8
BLACK
10
296.348835
20
-101.996456
11
296.541981
21
-102.774330
0
LINE
8
BLACK
10
296.348835
20
-101.996456
11
296.348835
21
-101.996456
0
LINE
8
BLACK
10
296.290627
20
-101.821831
11
296.348835
21
-101.996456
0
LINE
8
BLACK
10
296.203314
20
-101.657789
11
296.290627
21
-101.821831
0
LINE
8
BLACK
10
296.094835
20
-101.509623
11
296.203314
21
-101.657789
0
LINE
8
BLACK
10
295.962544
20
-101.382623
11
296.094835
21
-101.509623
0
LINE
8
BLACK
10
295.811731
20
-101.274144
11
295.962544
21
-101.382623
0
LINE
8
BLACK
10
295.647690
20
-101.192123
11
295.811731
21
-101.274144
0
LINE
8
BLACK
10
295.473065
20
-101.136561
11
295.647690
21
-101.192123
0
LINE
8
BLACK
10
295.290503
20
-101.110103
11
295.473065
21
-101.136561
0
LINE
8
BLACK
10
295.105295
20
-101.110103
11
295.290503
21
-101.110103
0
LINE
8
BLACK
10
294.922733
20
-101.141853
11
295.105295
21
-101.110103
0
LINE
8
BLACK
10
294.922733
20
-101.141853
11
294.922733
21
-101.141853
0
LINE
8
BLACK
10
238.874528
20
-115.117127
11
294.922733
21
-101.141853
0
LINE
8
BLACK
10
238.874528
20
-115.117127
11
238.874528
21
-115.117127
0
LINE
8
BLACK
10
238.874528
20
-115.117127
11
238.874528
21
-115.117127
0
LINE
8
BLACK
10
238.834047
20
-115.125064
11
238.874528
21
-115.117127
0
LINE
8
BLACK
10
238.751497
20
-115.138293
11
238.834047
21
-115.125064
0
LINE
8
BLACK
10
238.668418
20
-115.146231
11
238.751497
21
-115.138293
0
LINE
8
BLACK
10
238.626614
20
-115.146231
11
238.668418
21
-115.146231
0
LINE
8
BLACK
10
238.626614
20
-115.146231
11
238.626614
21
-115.146231
0
LINE
8
BLACK
10
184.836890
20
-115.146231
11
238.626614
21
-115.146231
0
LINE
8
BLACK
10
184.836890
20
-115.146231
11
184.836890
21
-115.146231
0
LINE
8
BLACK
10
184.836890
20
-115.146231
11
184.836890
21
-115.146231
0
LINE
8
BLACK
10
184.795086
20
-115.146231
11
184.836890
21
-115.146231
0
LINE
8
BLACK
10
184.711742
20
-115.140939
11
184.795086
21
-115.146231
0
LINE
8
BLACK
10
184.629457
20
-115.125064
11
184.711742
21
-115.140939
0
LINE
8
BLACK
10
184.588976
20
-115.117127
11
184.629457
21
-115.125064
0
LINE
8
BLACK
10
184.588976
20
-115.117127
11
184.588976
21
-115.117127
0
LINE
8
BLACK
10
128.539978
20
-101.141853
11
184.588976
21
-115.117127
0
LINE
8
BLACK
10
128.539978
20
-101.141853
11
128.539978
21
-101.141853
0
LINE
8
BLACK
10
128.357945
20
-101.110103
11
128.539978
21
-101.141853
0
LINE
8
BLACK
10
128.173530
20
-101.110103
11
128.357945
21
-101.110103
0
LINE
8
BLACK
10
127.991233
20
-101.136561
11
128.173530
21
-101.110103
0
LINE
8
BLACK
10
127.815549
20
-101.192123
11
127.991233
21
-101.136561
0
LINE
8
BLACK
10
127.650450
20
-101.274144
11
127.815549
21
-101.192123
0
LINE
8
BLACK
10
127.500166
20
-101.382623
11
127.650450
21
-101.274144
0
LINE
8
BLACK
10
127.368669
20
-101.509623
11
127.500166
21
-101.382623
0
LINE
8
BLACK
10
127.259131
20
-101.657789
11
127.368669
21
-101.509623
0
LINE
8
BLACK
10
127.173936
20
-101.821831
11
127.259131
21
-101.657789
0
LINE
8
BLACK
10
127.115463
20
-101.996456
11
127.173936
21
-101.821831
0
LINE
8
BLACK
10
127.115463
20
-101.996456
11
127.115463
21
-101.996456
0
LINE
8
BLACK
10
126.922053
20
-102.774330
11
127.115463
21
-101.996456
0
LINE
8
BLACK
10
126.922053
20
-102.774330
11
126.922053
21
-102.774330
0
LINE
8
BLACK
10
126.922053
20
-102.774330
11
126.922053
21
-102.774330
0
LINE
8
BLACK
10
126.900357
20
-102.861642
11
126.922053
21
-102.774330
0
LINE
8
BLACK
10
126.827332
20
-103.023038
11
126.900357
21
-102.861642
0
LINE
8
BLACK
10
126.727055
20
-103.173850
11
126.827332
21
-103.023038
0
LINE
8
BLACK
10
126.602436
20
-103.300850
11
126.727055
21
-103.173850
0
LINE
8
BLACK
10
126.457445
20
-103.406683
11
126.602436
21
-103.300850
0
LINE
8
BLACK
10
126.296049
20
-103.486058
11
126.457445
21
-103.406683
0
LINE
8
BLACK
10
126.123806
20
-103.536329
11
126.296049
21
-103.486058
0
LINE
8
BLACK
10
125.945477
20
-103.554850
11
126.123806
21
-103.536329
0
LINE
8
BLACK
10
125.766354
20
-103.541620
11
125.945477
21
-103.554850
0
LINE
8
BLACK
10
125.679571
20
-103.520454
11
125.766354
21
-103.541620
0
LINE
8
BLACK
10
125.679571
20
-103.520454
11
125.679571
21
-103.520454
0
LINE
8
BLACK
10
109.378612
20
-99.456459
11
125.679571
21
-103.520454
0
LINE
8
BLACK
10
109.377818
20
-99.456459
11
109.378612
21
-99.456459
0
LINE
8
BLACK
10
109.196579
20
-99.424709
11
109.377818
21
-99.456459
0
LINE
8
BLACK
10
109.012165
20
-99.424709
11
109.196579
21
-99.424709
0
LINE
8
BLACK
10
108.829867
20
-99.451167
11
109.012165
21
-99.424709
0
LINE
8
BLACK
10
108.654184
20
-99.506730
11
108.829867
21
-99.451167
0
LINE
8
BLACK
10
108.489084
20
-99.588750
11
108.654184
21
-99.506730
0
LINE
8
BLACK
10
108.339066
20
-99.694584
11
108.489084
21
-99.588750
0
LINE
8
BLACK
10
108.207568
20
-99.824229
11
108.339066
21
-99.694584
0
LINE
8
BLACK
10
108.097766
20
-99.972396
11
108.207568
21
-99.824229
0
LINE
8
BLACK
10
108.012570
20
-100.136437
11
108.097766
21
-99.972396
0
LINE
8
BLACK
10
107.954097
20
-100.311062
11
108.012570
21
-100.136437
0
LINE
8
BLACK
10
107.954097
20
-100.311062
11
107.954097
21
-100.311062
0
LINE
8
BLACK
10
107.954097
20
-100.311062
11
107.954097
21
-100.311062
0
LINE
8
BLACK
10
105.946177
20
-108.364968
11
107.954097
21
-100.311062
0
LINE
8
BLACK
10
105.946177
20
-108.364968
11
105.946177
21
-108.364968
0
LINE
8
BLACK
10
105.924481
20
-108.452281
11
105.946177
21
-108.364968
0
LINE
8
BLACK
10
105.851456
20
-108.616322
11
105.924481
21
-108.452281
0
LINE
8
BLACK
10
105.751179
20
-108.764489
11
105.851456
21
-108.616322
0
LINE
8
BLACK
10
105.626561
20
-108.894134
11
105.751179
21
-108.764489
0
LINE
8
BLACK
10
105.481569
20
-108.999968
11
105.626561
21
-108.894134
0
LINE
8
BLACK
10
105.320438
20
-109.076697
11
105.481569
21
-108.999968
0
LINE
8
BLACK
10
105.147930
20
-109.126968
11
105.320438
21
-109.076697
0
LINE
8
BLACK
10
104.969601
20
-109.145488
11
105.147930
21
-109.126968
0
LINE
8
BLACK
10
104.790743
20
-109.132259
11
104.969601
21
-109.145488
0
LINE
8
BLACK
10
104.704224
20
-109.111093
11
104.790743
21
-109.132259
0
LINE
8
BLACK
10
104.703695
20
-109.111093
11
104.704224
21
-109.111093
0
LINE
8
BLACK
10
88.402737
20
-105.047098
11
104.703695
21
-109.111093
0
LINE
8
BLACK
10
88.402737
20
-105.047098
11
88.402737
21
-105.047098
0
LINE
8
BLACK
10
88.402737
20
-105.047098
11
88.402737
21
-105.047098
0
LINE
8
BLACK
10
88.402737
20
-105.047098
11
88.402737
21
-105.047098
0
LINE
8
BLACK
10
88.220968
20
-105.017994
11
88.402737
21
-105.047098
0
LINE
8
BLACK
10
88.036554
20
-105.015348
11
88.220968
21
-105.017994
0
LINE
8
BLACK
10
87.854256
20
-105.041806
11
88.036554
21
-105.015348
0
LINE
8
BLACK
10
87.678308
20
-105.097368
11
87.854256
21
-105.041806
0
LINE
8
BLACK
10
87.513208
20
-105.179389
11
87.678308
21
-105.097368
0
LINE
8
BLACK
10
87.363190
20
-105.287868
11
87.513208
21
-105.179389
0
LINE
8
BLACK
10
87.231692
20
-105.417514
11
87.363190
21
-105.287868
0
LINE
8
BLACK
10
87.122155
20
-105.565680
11
87.231692
21
-105.417514
0
LINE
8
BLACK
10
87.036959
20
-105.727076
11
87.122155
21
-105.565680
0
LINE
8
BLACK
10
86.982190
20
-105.891117
11
87.036959
21
-105.727076
0
LINE
8
BLACK
10
86.945678
20
-105.973138
11
86.982190
21
-105.891117
0
LINE
8
BLACK
10
86.843814
20
-106.121305
11
86.945678
21
-105.973138
0
LINE
8
BLACK
10
86.717343
20
-106.250950
11
86.843814
21
-106.121305
0
LINE
8
BLACK
10
86.570235
20
-106.356784
11
86.717343
21
-106.250950
0
LINE
8
BLACK
10
86.406987
20
-106.433513
11
86.570235
21
-106.356784
0
LINE
8
BLACK
10
86.232627
20
-106.481138
11
86.406987
21
-106.433513
0
LINE
8
BLACK
10
86.052710
20
-106.497012
11
86.232627
21
-106.481138
0
LINE
8
BLACK
10
85.872794
20
-106.478492
11
86.052710
21
-106.497012
0
LINE
8
BLACK
10
85.785746
20
-106.457325
11
85.872794
21
-106.478492
0
LINE
8
BLACK
10
85.785746
20
-106.457325
11
85.785746
21
-106.457325
0
LINE
8
BLACK
10
85.785482
20
-106.457325
11
85.785746
21
-106.457325
0
LINE
8
BLACK
10
85.784159
20
-106.454679
11
85.785482
21
-106.457325
0
LINE
8
BLACK
10
69.483994
20
-102.390684
11
85.784159
21
-106.454679
0
LINE
8
BLACK
10
69.479231
20
-102.390684
11
69.483994
21
-102.390684
0
LINE
8
BLACK
10
69.301431
20
-102.361580
11
69.479231
21
-102.390684
0
LINE
8
BLACK
10
69.117017
20
-102.358934
11
69.301431
21
-102.361580
0
LINE
8
BLACK
10
68.934719
20
-102.385393
11
69.117017
21
-102.358934
0
LINE
8
BLACK
10
68.758772
20
-102.440955
11
68.934719
21
-102.385393
0
LINE
8
BLACK
10
68.593936
20
-102.525622
11
68.758772
21
-102.440955
0
LINE
8
BLACK
10
68.443918
20
-102.631455
11
68.593936
21
-102.525622
0
LINE
8
BLACK
10
68.312156
20
-102.761101
11
68.443918
21
-102.631455
0
LINE
8
BLACK
10
68.202618
20
-102.909267
11
68.312156
21
-102.761101
0
LINE
8
BLACK
10
68.117423
20
-103.073308
11
68.202618
21
-102.909267
0
LINE
8
BLACK
10
68.058950
20
-103.247933
11
68.117423
21
-103.073308
0
LINE
8
BLACK
10
68.058950
20
-103.247933
11
68.058950
21
-103.247933
0
LINE
8
BLACK
10
58.914432
20
-139.924429
11
68.058950
21
-103.247933
0
LINE
8
BLACK
10
58.914432
20
-139.924429
11
58.914432
21
-139.924429
0
LINE
8
BLACK
10
58.913638
20
-139.929720
11
58.914432
21
-139.924429
0
LINE
8
BLACK
10
58.884005
20
-140.106991
11
58.913638
21
-139.929720
0
LINE
8
BLACK
10
58.882417
20
-140.289553
11
58.884005
21
-140.106991
0
LINE
8
BLACK
10
58.909670
20
-140.472116
11
58.882417
21
-140.289553
0
LINE
8
BLACK
10
58.964967
20
-140.649386
11
58.909670
21
-140.472116
0
LINE
8
BLACK
10
59.047253
20
-140.813428
11
58.964967
21
-140.649386
0
LINE
8
BLACK
10
59.154409
20
-140.964240
11
59.047253
21
-140.813428
0
LINE
8
BLACK
10
59.283525
20
-141.096531
11
59.154409
21
-140.964240
0
LINE
8
BLACK
10
59.431692
20
-141.205010
11
59.283525
21
-141.096531
0
LINE
8
BLACK
10
59.595204
20
-141.289677
11
59.431692
21
-141.205010
0
LINE
8
BLACK
10
59.770093
20
-141.347885
11
59.595204
21
-141.289677
0
LINE
8
BLACK
10
59.770093
20
-141.347885
11
59.770093
21
-141.347885
0
LINE
8
BLACK
10
59.770093
20
-141.347885
11
59.770093
21
-141.347885
0
LINE
8
BLACK
10
76.071052
20
-145.411880
11
59.770093
21
-141.347885
0
LINE
8
BLACK
10
76.071052
20
-145.411880
11
76.071052
21
-145.411880
0
LINE
8
BLACK
10
76.071052
20
-145.411880
11
76.071052
21
-145.411880
0
LINE
8
BLACK
10
76.158100
20
-145.435693
11
76.071052
21
-145.411880
0
LINE
8
BLACK
10
76.321877
20
-145.507130
11
76.158100
21
-145.435693
0
LINE
8
BLACK
10
76.470572
20
-145.607672
11
76.321877
21
-145.507130
0
LINE
8
BLACK
10
76.599689
20
-145.732026
11
76.470572
21
-145.607672
0
LINE
8
BLACK
10
76.704993
20
-145.877546
11
76.599689
21
-145.732026
0
LINE
8
BLACK
10
76.783574
20
-146.038942
11
76.704993
21
-145.877546
0
LINE
8
BLACK
10
76.833051
20
-146.210921
11
76.783574
21
-146.038942
0
LINE
8
BLACK
10
76.851837
20
-146.390837
11
76.833051
21
-146.210921
0
LINE
8
BLACK
10
76.839401
20
-146.568108
11
76.851837
21
-146.390837
0
LINE
8
BLACK
10
76.817705
20
-146.655420
11
76.839401
21
-146.568108
0
LINE
8
BLACK
10
76.817705
20
-146.655420
11
76.817705
21
-146.655420
0
LINE
8
BLACK
10
73.237368
20
-161.016985
11
76.817705
21
-146.655420
0
LINE
8
BLACK
10
73.236839
20
-161.016985
11
73.237368
21
-161.016985
0
LINE
8
BLACK
10
73.206941
20
-161.196902
11
73.236839
21
-161.016985
0
LINE
8
BLACK
10
73.205354
20
-161.382110
11
73.206941
21
-161.196902
0
LINE
8
BLACK
10
73.232341
20
-161.564672
11
73.205354
21
-161.382110
0
LINE
8
BLACK
10
73.287904
20
-161.739297
11
73.232341
21
-161.564672
0
LINE
8
BLACK
10
73.370189
20
-161.905984
11
73.287904
21
-161.739297
0
LINE
8
BLACK
10
73.477345
20
-162.054151
11
73.370189
21
-161.905984
0
LINE
8
BLACK
10
73.606461
20
-162.186442
11
73.477345
21
-162.054151
0
LINE
8
BLACK
10
73.754628
20
-162.297567
11
73.606461
21
-162.186442
0
LINE
8
BLACK
10
73.918140
20
-162.382234
11
73.754628
21
-162.297567
0
LINE
8
BLACK
10
74.093030
20
-162.440442
11
73.918140
21
-162.382234
0
LINE
8
BLACK
10
74.093030
20
-162.440442
11
74.093030
21
-162.440442
0
LINE
8
BLACK
10
92.334705
20
-166.988624
11
74.093030
21
-162.440442
0
LINE
8
BLACK
10
92.334705
20
-166.988624
11
92.334705
21
-166.988624
0
LINE
8
BLACK
10
92.334705
20
-166.988624
11
92.334705
21
-166.988624
0
LINE
8
BLACK
10
92.516473
20
-167.017728
11
92.334705
21
-166.988624
0
LINE
8
BLACK
10
92.700887
20
-167.020374
11
92.516473
21
-167.017728
0
LINE
8
BLACK
10
92.883185
20
-166.993915
11
92.700887
21
-167.020374
0
LINE
8
BLACK
10
93.059133
20
-166.938353
11
92.883185
21
-166.993915
0
LINE
8
BLACK
10
93.223968
20
-166.856332
11
93.059133
21
-166.938353
0
LINE
8
BLACK
10
93.374251
20
-166.747853
11
93.223968
21
-166.856332
0
LINE
8
BLACK
10
93.505749
20
-166.618208
11
93.374251
21
-166.747853
0
LINE
8
BLACK
10
93.615286
20
-166.470041
11
93.505749
21
-166.618208
0
LINE
8
BLACK
10
93.700482
20
-166.308645
11
93.615286
21
-166.470041
0
LINE
8
BLACK
10
93.758955
20
-166.131375
11
93.700482
21
-166.308645
0
LINE
8
BLACK
10
93.758955
20
-166.131375
11
93.758955
21
-166.131375
0
LINE
8
BLACK
10
93.758955
20
-166.131375
11
93.758955
21
-166.131375
0
LINE
8
BLACK
10
93.758955
20
-166.131375
11
93.758955
21
-166.131375
0
LINE
8
BLACK
10
93.758955
20
-166.131375
11
93.758955
21
-166.131375
0
LINE
8
BLACK
10
95.766875
20
-158.080114
11
93.758955
21
-166.131375
0
LINE
8
BLACK
10
95.766875
20
-158.080114
11
95.766875
21
-158.080114
0
LINE
8
BLACK
10
95.788571
20
-157.992802
11
95.766875
21
-158.080114
0
LINE
8
BLACK
10
95.861596
20
-157.828760
11
95.788571
21
-157.992802
0
LINE
8
BLACK
10
95.961873
20
-157.680594
11
95.861596
21
-157.828760
0
LINE
8
BLACK
10
96.086491
20
-157.550948
11
95.961873
21
-157.680594
0
LINE
8
BLACK
10
96.231483
20
-157.445115
11
96.086491
21
-157.550948
0
LINE
8
BLACK
10
96.392879
20
-157.365740
11
96.231483
21
-157.445115
0
LINE
8
BLACK
10
96.565122
20
-157.318115
11
96.392879
21
-157.365740
0
LINE
8
BLACK
10
96.743451
20
-157.299594
11
96.565122
21
-157.318115
0
LINE
8
BLACK
10
96.922574
20
-157.310178
11
96.743451
21
-157.299594
0
LINE
8
BLACK
10
97.009357
20
-157.331344
11
96.922574
21
-157.310178
0
LINE
8
BLACK
10
97.009357
20
-157.331344
11
97.009357
21
-157.331344
0
LINE
8
BLACK
10
113.310316
20
-161.397985
11
97.009357
21
-157.331344
0
LINE
8
BLACK
10
113.310316
20
-161.397985
11
113.310316
21
-161.397985
0
LINE
8
BLACK
10
113.310316
20
-161.397985
11
113.310316
21
-161.397985
0
LINE
8
BLACK
10
113.492349
20
-161.427089
11
113.310316
21
-161.397985
0
LINE
8
BLACK
10
113.676498
20
-161.429735
11
113.492349
21
-161.427089
0
LINE
8
BLACK
10
113.859061
20
-161.400631
11
113.676498
21
-161.429735
0
LINE
8
BLACK
10
114.034744
20
-161.345068
11
113.859061
21
-161.400631
0
LINE
8
BLACK
10
114.199844
20
-161.263048
11
114.034744
21
-161.345068
0
LINE
8
BLACK
10
114.349862
20
-161.157214
11
114.199844
21
-161.263048
0
LINE
8
BLACK
10
114.481360
20
-161.027569
11
114.349862
21
-161.157214
0
LINE
8
BLACK
10
114.591162
20
-160.879402
11
114.481360
21
-161.027569
0
LINE
8
BLACK
10
114.676358
20
-160.715361
11
114.591162
21
-160.879402
0
LINE
8
BLACK
10
114.734566
20
-160.540736
11
114.676358
21
-160.715361
0
LINE
8
BLACK
10
114.734830
20
-160.540736
11
114.734566
21
-160.540736
0
LINE
8
BLACK
10
114.928241
20
-159.765508
11
114.734830
21
-160.540736
0
LINE
8
BLACK
10
114.928241
20
-159.765508
11
114.928241
21
-159.765508
0
LINE
8
BLACK
10
114.928241
20
-159.765508
11
114.928241
21
-159.765508
0
LINE
8
BLACK
10
114.949936
20
-159.678195
11
114.928241
21
-159.765508
0
LINE
8
BLACK
10
115.022961
20
-159.514154
11
114.949936
21
-159.678195
0
LINE
8
BLACK
10
115.123238
20
-159.365988
11
115.022961
21
-159.514154
0
LINE
8
BLACK
10
115.247857
20
-159.236342
11
115.123238
21
-159.365988
0
LINE
8
BLACK
10
115.392848
20
-159.130509
11
115.247857
21
-159.236342
0
LINE
8
BLACK
10
115.553979
20
-159.051134
11
115.392848
21
-159.130509
0
LINE
8
BLACK
10
115.726488
20
-159.003509
11
115.553979
21
-159.051134
0
LINE
8
BLACK
10
115.904816
20
-158.984988
11
115.726488
21
-159.003509
0
LINE
8
BLACK
10
116.083675
20
-158.995571
11
115.904816
21
-158.984988
0
LINE
8
BLACK
10
116.170722
20
-159.019384
11
116.083675
21
-158.995571
0
LINE
8
BLACK
10
116.170722
20
-159.019384
11
116.170722
21
-159.019384
0
LINE
8
BLACK
10
116.170722
20
-159.019384
11
116.170722
21
-159.019384
0
LINE
8
BLACK
10
116.170722
20
-159.019384
11
116.170722
21
-159.019384
0
LINE
8
BLACK
10
130.531229
20
-162.599192
11
116.170722
21
-159.019384
0
LINE
8
BLACK
10
130.531229
20
-162.599192
11
130.531229
21
-162.599192
0
LINE
8
BLACK
10
130.531229
20
-162.599192
11
130.531229
21
-162.599192
0
LINE
8
BLACK
10
130.531229
20
-162.599192
11
130.531229
21
-162.599192
0
LINE
8
BLACK
10
130.618277
20
-162.620358
11
130.531229
21
-162.599192
0
LINE
8
BLACK
10
130.782054
20
-162.694442
11
130.618277
21
-162.620358
0
LINE
8
BLACK
10
130.930750
20
-162.792337
11
130.782054
21
-162.694442
0
LINE
8
BLACK
10
131.059866
20
-162.919337
11
130.930750
21
-162.792337
0
LINE
8
BLACK
10
131.165170
20
-163.062212
11
131.059866
21
-162.919337
0
LINE
8
BLACK
10
131.243751
20
-163.223608
11
131.165170
21
-163.062212
0
LINE
8
BLACK
10
131.293228
20
-163.395587
11
131.243751
21
-163.223608
0
LINE
8
BLACK
10
131.312014
20
-163.575503
11
131.293228
21
-163.395587
0
LINE
8
BLACK
10
131.299578
20
-163.755420
11
131.312014
21
-163.575503
0
LINE
8
BLACK
10
131.277883
20
-163.840086
11
131.299578
21
-163.755420
0
LINE
8
BLACK
10
131.277883
20
-163.840086
11
131.277883
21
-163.840086
0
LINE
8
BLACK
10
125.157019
20
-188.390743
11
131.277883
21
-163.840086
0
LINE
8
BLACK
10
125.157019
20
-188.390743
11
125.157019
21
-188.390743
0
LINE
8
BLACK
10
125.157019
20
-188.390743
11
125.157019
21
-188.390743
0
LINE
8
BLACK
10
125.126592
20
-188.570659
11
125.157019
21
-188.390743
0
LINE
8
BLACK
10
125.125005
20
-188.755867
11
125.126592
21
-188.570659
0
LINE
8
BLACK
10
125.152257
20
-188.938429
11
125.125005
21
-188.755867
0
LINE
8
BLACK
10
125.207819
20
-189.113054
11
125.152257
21
-188.938429
0
LINE
8
BLACK
10
125.290105
20
-189.279742
11
125.207819
21
-189.113054
0
LINE
8
BLACK
10
125.396996
20
-189.427908
11
125.290105
21
-189.279742
0
LINE
8
BLACK
10
125.526377
20
-189.560200
11
125.396996
21
-189.427908
0
LINE
8
BLACK
10
125.674544
20
-189.671324
11
125.526377
21
-189.560200
0
LINE
8
BLACK
10
125.838056
20
-189.755991
11
125.674544
21
-189.671324
0
LINE
8
BLACK
10
126.012945
20
-189.814199
11
125.838056
21
-189.755991
0
LINE
8
BLACK
10
144.056183
20
-194.312110
11
126.012945
21
-189.814199
0
LINE
8
BLACK
10
144.056183
20
-194.312110
11
144.056183
21
-194.312110
0
LINE
8
BLACK
10
144.103808
20
-194.325339
11
144.056183
21
-194.312110
0
LINE
8
BLACK
10
144.196677
20
-194.357089
11
144.103808
21
-194.325339
0
LINE
8
BLACK
10
144.285841
20
-194.399423
11
144.196677
21
-194.357089
0
LINE
8
BLACK
10
144.328439
20
-194.423235
11
144.285841
21
-194.399423
0
LINE
8
BLACK
10
144.328439
20
-194.423235
11
144.328439
21
-194.423235
0
LINE
8
BLACK
10
144.328439
20
-194.423235
11
144.328439
21
-194.423235
0
LINE
8
BLACK
10
160.174579
20
-203.757723
11
144.328439
21
-194.423235
0
LINE
8
BLACK
10
160.174579
20
-203.757723
11
160.174579
21
-203.757723
0
LINE
8
BLACK
10
160.174579
20
-203.757723
11
160.174579
21
-203.757723
0
LINE
8
BLACK
10
160.174579
20
-203.757723
11
160.174579
21
-203.757723
0
LINE
8
BLACK
10
160.216913
20
-203.784182
11
160.174579
21
-203.757723
0
LINE
8
BLACK
10
160.296552
20
-203.839744
11
160.216913
21
-203.784182
0
LINE
8
BLACK
10
160.370371
20
-203.905890
11
160.296552
21
-203.839744
0
LINE
8
BLACK
10
160.403973
20
-203.942931
11
160.370371
21
-203.905890
0
LINE
8
BLACK
10
160.403973
20
-203.942931
11
160.403973
21
-203.942931
0
LINE
8
BLACK
10
160.403973
20
-203.942931
11
160.403973
21
-203.942931
0
LINE
8
BLACK
10
173.085965
20
-217.542498
11
160.403973
21
-203.942931
0
LINE
8
BLACK
10
173.085965
20
-217.542498
11
173.085965
21
-217.542498
0
LINE
8
BLACK
10
173.221961
20
-217.666852
11
173.085965
21
-217.542498
0
LINE
8
BLACK
10
173.375684
20
-217.767393
11
173.221961
21
-217.666852
0
LINE
8
BLACK
10
173.543429
20
-217.844122
11
173.375684
21
-217.767393
0
LINE
8
BLACK
10
173.721229
20
-217.894393
11
173.543429
21
-217.844122
0
LINE
8
BLACK
10
173.904320
20
-217.915560
11
173.721229
21
-217.894393
0
LINE
8
BLACK
10
174.088735
20
-217.907622
11
173.904320
21
-217.915560
0
LINE
8
BLACK
10
174.269180
20
-217.870581
11
174.088735
21
-217.907622
0
LINE
8
BLACK
10
174.441953
20
-217.804435
11
174.269180
21
-217.870581
0
LINE
8
BLACK
10
174.602555
20
-217.714477
11
174.441953
21
-217.804435
0
LINE
8
BLACK
10
174.746488
20
-217.600706
11
174.602555
21
-217.714477
0
LINE
8
BLACK
10
174.746753
20
-217.600706
11
174.746488
21
-217.600706
0
LINE
8
BLACK
10
188.496073
20
-204.779014
11
174.746753
21
-217.600706
0
LINE
8
BLACK
10
188.497396
20
-204.776368
11
188.496073
21
-204.779014
0
LINE
8
BLACK
10
188.620692
20
-204.641431
11
188.497396
21
-204.776368
0
LINE
8
BLACK
10
188.722556
20
-204.487972
11
188.620692
21
-204.641431
0
LINE
8
BLACK
10
188.799020
20
-204.321285
11
188.722556
21
-204.487972
0
LINE
8
BLACK
10
188.848233
20
-204.144014
11
188.799020
21
-204.321285
0
LINE
8
BLACK
10
188.869135
20
-203.961452
11
188.848233
21
-204.144014
0
LINE
8
BLACK
10
188.861197
20
-203.776244
11
188.869135
21
-203.961452
0
LINE
8
BLACK
10
188.824420
20
-203.596328
11
188.861197
21
-203.776244
0
LINE
8
BLACK
10
188.759862
20
-203.421703
11
188.824420
21
-203.596328
0
LINE
8
BLACK
10
188.668846
20
-203.262953
11
188.759862
21
-203.421703
0
LINE
8
BLACK
10
188.554281
20
-203.117432
11
188.668846
21
-203.262953
0
LINE
8
BLACK
10
188.554281
20
-203.117432
11
188.554281
21
-203.117432
0
LINE
8
BLACK
10
168.663196
20
-181.786751
11
188.554281
21
-203.117432
0
LINE
8
BLACK
10
168.663196
20
-181.786751
11
168.663196
21
-181.786751
0
LINE
8
BLACK
10
168.663196
20
-181.786751
11
168.663196
21
-181.786751
0
LINE
8
BLACK
10
168.605252
20
-181.725897
11
168.663196
21
-181.786751
0
LINE
8
BLACK
10
168.511325
20
-181.583022
11
168.605252
21
-181.725897
0
LINE
8
BLACK
10
168.442004
20
-181.426918
11
168.511325
21
-181.583022
0
LINE
8
BLACK
10
168.399407
20
-181.262877
11
168.442004
21
-181.426918
0
LINE
8
BLACK
10
168.384325
20
-181.093544
11
168.399407
21
-181.262877
0
LINE
8
BLACK
10
168.397819
20
-180.924210
11
168.384325
21
-181.093544
0
LINE
8
BLACK
10
168.418457
20
-180.839544
11
168.397819
21
-180.924210
0
LINE
8
BLACK
10
168.418457
20
-180.839544
11
168.418457
21
-180.839544
0
LINE
8
BLACK
10
168.418457
20
-180.839544
11
168.418457
21
-180.839544
0
LINE
8
BLACK
10
168.418457
20
-180.839544
11
168.418457
21
-180.839544
0
LINE
8
BLACK
10
168.418457
20
-180.839544
11
168.418457
21
-180.839544
0
LINE
8
BLACK
10
174.647799
20
-155.854971
11
168.418457
21
-180.839544
0
LINE
8
BLACK
10
174.647799
20
-155.854971
11
174.647799
21
-155.854971
0
LINE
8
BLACK
10
174.668436
20
-155.772950
11
174.647799
21
-155.854971
0
LINE
8
BLACK
10
174.736434
20
-155.616846
11
174.668436
21
-155.772950
0
LINE
8
BLACK
10
174.829303
20
-155.473972
11
174.736434
21
-155.616846
0
LINE
8
BLACK
10
174.944396
20
-155.346972
11
174.829303
21
-155.473972
0
LINE
8
BLACK
10
175.078540
20
-155.243784
11
174.944396
21
-155.346972
0
LINE
8
BLACK
10
175.228294
20
-155.161764
11
175.078540
21
-155.243784
0
LINE
8
BLACK
10
175.389160
20
-155.106201
11
175.228294
21
-155.161764
0
LINE
8
BLACK
10
175.557170
20
-155.079743
11
175.389160
21
-155.106201
0
LINE
8
BLACK
10
175.642366
20
-155.079743
11
175.557170
21
-155.079743
0
LINE
8
BLACK
10
175.642366
20
-155.079743
11
175.642366
21
-155.079743
0
LINE
8
BLACK
10
175.642366
20
-155.079743
11
175.642366
21
-155.079743
0
LINE
8
BLACK
10
247.821138
20
-155.079743
11
175.642366
21
-155.079743
0
LINE
8
BLACK
10
247.821138
20
-155.079743
11
247.821138
21
-155.079743
0
LINE
8
BLACK
10
247.821138
20
-155.079743
11
247.821138
21
-155.079743
0
LINE
8
BLACK
10
247.906334
20
-155.079743
11
247.821138
21
-155.079743
0
LINE
8
BLACK
10
248.074344
20
-155.106201
11
247.906334
21
-155.079743
0
LINE
8
BLACK
10
248.235210
20
-155.161764
11
248.074344
21
-155.106201
0
LINE
8
BLACK
10
248.384964
20
-155.243784
11
248.235210
21
-155.161764
0
LINE
8
BLACK
10
248.519108
20
-155.346972
11
248.384964
21
-155.243784
0
LINE
8
BLACK
10
248.634201
20
-155.473972
11
248.519108
21
-155.346972
0
LINE
8
BLACK
10
248.727070
20
-155.616846
11
248.634201
21
-155.473972
0
LINE
8
BLACK
10
248.794803
20
-155.772950
11
248.727070
21
-155.616846
0
LINE
8
BLACK
10
248.815441
20
-155.854971
11
248.794803
21
-155.772950
0
LINE
8
BLACK
10
248.815441
20
-155.854971
11
248.815441
21
-155.854971
0
LINE
8
BLACK
10
248.815441
20
-155.854971
11
248.815441
21
-155.854971
0
LINE
8
BLACK
10
248.815441
20
-155.854971
11
248.815441
21
-155.854971
0
LINE
8
BLACK
10
255.045047
20
-180.839544
11
248.815441
21
-155.854971
0
LINE
8
BLACK
10
255.045047
20
-180.839544
11
255.045047
21
-180.839544
0
LINE
8
BLACK
10
255.045047
20
-180.839544
11
255.045047
21
-180.839544
0
LINE
8
BLACK
10
255.065685
20
-180.924210
11
255.045047
21
-180.839544
0
LINE
8
BLACK
10
255.078914
20
-181.093544
11
255.065685
21
-180.924210
0
LINE
8
BLACK
10
255.064097
20
-181.262877
11
255.078914
21
-181.093544
0
LINE
8
BLACK
10
255.021500
20
-181.426918
11
255.064097
21
-181.262877
0
LINE
8
BLACK
10
254.952179
20
-181.583022
11
255.021500
21
-181.426918
0
LINE
8
BLACK
10
254.858252
20
-181.725897
11
254.952179
21
-181.583022
0
LINE
8
BLACK
10
254.800044
20
-181.786751
11
254.858252
21
-181.725897
0
LINE
8
BLACK
10
254.800044
20
-181.786751
11
254.800044
21
-181.786751
0
LINE
8
BLACK
10
254.800044
20
-181.786751
11
254.800044
21
-181.786751
0
LINE
8
BLACK
10
254.800044
20
-181.786751
11
254.800044
21
-181.786751
0
LINE
8
BLACK
10
234.909223
20
-203.117432
11
254.800044
21
-181.786751
0
LINE
8
BLACK
10
234.909223
20
-203.117432
11
234.909223
21
-203.117432
0
LINE
8
BLACK
10
234.909223
20
-203.117432
11
234.909223
21
-203.117432
0
LINE
8
BLACK
10
234.794394
20
-203.262953
11
234.909223
21
-203.117432
0
LINE
8
BLACK
10
234.703642
20
-203.421703
11
234.794394
21
-203.262953
0
LINE
8
BLACK
10
234.639084
20
-203.596328
11
234.703642
21
-203.421703
0
LINE
8
BLACK
10
234.602307
20
-203.776244
11
234.639084
21
-203.596328
0
LINE
8
BLACK
10
234.594369
20
-203.961452
11
234.602307
21
-203.776244
0
LINE
8
BLACK
10
234.615271
20
-204.144014
11
234.594369
21
-203.961452
0
LINE
8
BLACK
10
234.664484
20
-204.321285
11
234.615271
21
-204.144014
0
LINE
8
BLACK
10
234.740948
20
-204.487972
11
234.664484
21
-204.321285
0
LINE
8
BLACK
10
234.842548
20
-204.641431
11
234.740948
21
-204.487972
0
LINE
8
BLACK
10
234.967166
20
-204.779014
11
234.842548
21
-204.641431
0
LINE
8
BLACK
10
234.967166
20
-204.779014
11
234.967166
21
-204.779014
0
LINE
8
BLACK
10
248.716751
20
-217.600706
11
234.967166
21
-204.779014
0
LINE
8
BLACK
10
248.716751
20
-217.600706
11
248.716751
21
-217.600706
0
LINE
8
BLACK
10
248.716751
20
-217.600706
11
248.716751
21
-217.600706
0
LINE
8
BLACK
10
248.860949
20
-217.714477
11
248.716751
21
-217.600706
0
LINE
8
BLACK
10
249.021286
20
-217.804435
11
248.860949
21
-217.714477
0
LINE
8
BLACK
10
249.194059
20
-217.870581
11
249.021286
21
-217.804435
0
LINE
8
BLACK
10
249.374769
20
-217.907622
11
249.194059
21
-217.870581
0
LINE
8
BLACK
10
249.558919
20
-217.915560
11
249.374769
21
-217.907622
0
LINE
8
BLACK
10
249.742275
20
-217.894393
11
249.558919
21
-217.915560
0
LINE
8
BLACK
10
249.919810
20
-217.844122
11
249.742275
21
-217.894393
0
LINE
8
BLACK
10
250.087556
20
-217.767393
11
249.919810
21
-217.844122
0
LINE
8
BLACK
10
250.241543
20
-217.666852
11
250.087556
21
-217.767393
0
LINE
8
BLACK
10
250.377274
20
-217.542498
11
250.241543
21
-217.666852
0
LINE
8
BLACK
10
250.377274
20
-217.542498
11
250.377274
21
-217.542498
0
LINE
8
BLACK
10
263.059531
20
-203.942931
11
250.377274
21
-217.542498
0
LINE
8
BLACK
10
263.059531
20
-203.942931
11
263.059531
21
-203.942931
0
LINE
8
BLACK
10
263.093133
20
-203.905890
11
263.059531
21
-203.942931
0
LINE
8
BLACK
10
263.166687
20
-203.839744
11
263.093133
21
-203.905890
0
LINE
8
BLACK
10
263.246327
20
-203.784182
11
263.166687
21
-203.839744
0
LINE
8
BLACK
10
263.288925
20
-203.757723
11
263.246327
21
-203.784182
0
LINE
8
BLACK
10
263.288925
20
-203.757723
11
263.288925
21
-203.757723
0
LINE
8
BLACK
10
263.288925
20
-203.757723
11
263.288925
21
-203.757723
0
LINE
8
BLACK
10
263.288925
20
-203.757723
11
263.288925
21
-203.757723
0
LINE
8
BLACK
10
279.135065
20
-194.423235
11
263.288925
21
-203.757723
0
LINE
8
BLACK
10
279.135065
20
-194.423235
11
279.135065
21
-194.423235
0
LINE
8
BLACK
10
279.177398
20
-194.399423
11
279.135065
21
-194.423235
0
LINE
8
BLACK
10
279.267357
20
-194.357089
11
279.177398
21
-194.399423
0
LINE
8
BLACK
10
279.359961
20
-194.325339
11
279.267357
21
-194.357089
0
LINE
8
BLACK
10
279.407585
20
-194.312110
11
279.359961
21
-194.325339
0
LINE
8
BLACK
10
279.407585
20
-194.312110
11
279.407585
21
-194.312110
0
LINE
8
BLACK
10
279.407585
20
-194.312110
11
279.407585
21
-194.312110
0
LINE
8
BLACK
10
279.407585
20
-194.312110
11
279.407585
21
-194.312110
0
LINE
8
BLACK
10
297.449500
20
-189.814199
11
279.407585
21
-194.312110
0
LINE
8
BLACK
10
297.449500
20
-189.814199
11
297.449500
21
-189.814199
0
LINE
8
BLACK
10
297.449500
20
-189.814199
11
297.449500
21
-189.814199
0
LINE
8
BLACK
10
297.624125
20
-189.755991
11
297.449500
21
-189.814199
0
LINE
8
BLACK
10
297.788167
20
-189.671324
11
297.624125
21
-189.755991
0
LINE
8
BLACK
10
297.936333
20
-189.560200
11
297.788167
21
-189.671324
0
LINE
8
BLACK
10
298.065979
20
-189.427908
11
297.936333
21
-189.560200
0
LINE
8
BLACK
10
298.174458
20
-189.279742
11
298.065979
21
-189.427908
0
LINE
8
BLACK
10
298.256478
20
-189.113054
11
298.174458
21
-189.279742
0
LINE
8
BLACK
10
298.312041
20
-188.938429
11
298.256478
21
-189.113054
0
LINE
8
BLACK
10
298.338499
20
-188.755867
11
298.312041
21
-188.938429
0
LINE
8
BLACK
10
298.335853
20
-188.570659
11
298.338499
21
-188.755867
0
LINE
8
BLACK
10
298.306749
20
-188.390743
11
298.335853
21
-188.570659
0
LINE
8
BLACK
10
298.306749
20
-188.390743
11
298.306749
21
-188.390743
0
LINE
8
BLACK
10
292.186944
20
-163.840086
11
298.306749
21
-188.390743
0
LINE
8
BLACK
10
292.186944
20
-163.840086
11
292.186944
21
-163.840086
0
LINE
8
BLACK
10
292.163132
20
-163.755420
11
292.186944
21
-163.840086
0
LINE
8
BLACK
10
292.152549
20
-163.575503
11
292.163132
21
-163.755420
0
LINE
8
BLACK
10
292.171069
20
-163.395587
11
292.152549
21
-163.575503
0
LINE
8
BLACK
10
292.218694
20
-163.223608
11
292.171069
21
-163.395587
0
LINE
8
BLACK
10
292.298069
20
-163.062212
11
292.218694
21
-163.223608
0
LINE
8
BLACK
10
292.403902
20
-162.919337
11
292.298069
21
-163.062212
0
LINE
8
BLACK
10
292.533548
20
-162.792337
11
292.403902
21
-162.919337
0
LINE
8
BLACK
10
292.681715
20
-162.694442
11
292.533548
21
-162.792337
0
LINE
8
BLACK
10
292.845756
20
-162.620358
11
292.681715
21
-162.694442
0
LINE
8
BLACK
10
292.933068
20
-162.599192
11
292.845756
21
-162.620358
0
LINE
8
BLACK
10
292.933068
20
-162.599192
11
292.933068
21
-162.599192
0
LINE
8
BLACK
10
292.933068
20
-162.599192
11
292.933068
21
-162.599192
0
LINE
8
BLACK
10
307.291988
20
-159.019384
11
292.933068
21
-162.599192
0
LINE
8
BLACK
10
307.291988
20
-159.019384
11
307.291988
21
-159.019384
0
LINE
8
BLACK
10
307.379300
20
-158.995571
11
307.291988
21
-159.019384
0
LINE
8
BLACK
10
307.559217
20
-158.984988
11
307.379300
21
-158.995571
0
LINE
8
BLACK
10
307.736487
20
-159.003509
11
307.559217
21
-158.984988
0
LINE
8
BLACK
10
307.908466
20
-159.051134
11
307.736487
21
-159.003509
0
LINE
8
BLACK
10
308.069862
20
-159.130509
11
307.908466
21
-159.051134
0
LINE
8
BLACK
10
308.215383
20
-159.236342
11
308.069862
21
-159.130509
0
LINE
8
BLACK
10
308.339737
20
-159.365988
11
308.215383
21
-159.236342
0
LINE
8
BLACK
10
308.440278
20
-159.514154
11
308.339737
21
-159.365988
0
LINE
8
BLACK
10
308.514361
20
-159.678195
11
308.440278
21
-159.514154
0
LINE
8
BLACK
10
308.535528
20
-159.765508
11
308.514361
21
-159.678195
0
LINE
8
BLACK
10
308.535528
20
-159.765508
11
308.535528
21
-159.765508
0
LINE
8
BLACK
10
308.535528
20
-159.765508
11
308.535528
21
-159.765508
0
LINE
8
BLACK
10
308.728674
20
-160.540736
11
308.535528
21
-159.765508
0
LINE
8
BLACK
10
308.728674
20
-160.540736
11
308.728674
21
-160.540736
0
LINE
8
BLACK
10
308.728674
20
-160.540736
11
308.728674
21
-160.540736
0
LINE
8
BLACK
10
308.728674
20
-160.540736
11
308.728674
21
-160.540736
0
LINE
8
BLACK
10
308.786882
20
-160.715361
11
308.728674
21
-160.540736
0
LINE
8
BLACK
10
308.871548
20
-160.879402
11
308.786882
21
-160.715361
0
LINE
8
BLACK
10
308.982673
20
-161.027569
11
308.871548
21
-160.879402
0
LINE
8
BLACK
10
309.112319
20
-161.157214
11
308.982673
21
-161.027569
0
LINE
8
BLACK
10
309.263131
20
-161.263048
11
309.112319
21
-161.157214
0
LINE
8
BLACK
10
309.429819
20
-161.345068
11
309.263131
21
-161.263048
0
LINE
8
BLACK
10
309.604443
20
-161.400631
11
309.429819
21
-161.345068
0
LINE
8
BLACK
10
309.787006
20
-161.429735
11
309.604443
21
-161.400631
0
LINE
8
BLACK
10
309.972214
20
-161.427089
11
309.787006
21
-161.429735
0
LINE
8
BLACK
10
310.152130
20
-161.397985
11
309.972214
21
-161.427089
0
LINE
8
BLACK
10
310.152130
20
-161.397985
11
310.152130
21
-161.397985
0
LINE
8
BLACK
10
310.152130
20
-161.397985
11
310.152130
21
-161.397985
0
LINE
8
BLACK
10
310.152130
20
-161.397985
11
310.152130
21
-161.397985
0
LINE
8
BLACK
10
326.453089
20
-157.331344
11
310.152130
21
-161.397985
0
LINE
8
BLACK
10
326.453089
20
-157.331344
11
326.453089
21
-157.331344
0
LINE
8
BLACK
10
326.453089
20
-157.331344
11
326.453089
21
-157.331344
0
LINE
8
BLACK
10
326.453089
20
-157.331344
11
326.453089
21
-157.331344
0
LINE
8
BLACK
10
326.540401
20
-157.310178
11
326.453089
21
-157.331344
0
LINE
8
BLACK
10
326.720318
20
-157.299594
11
326.540401
21
-157.310178
0
LINE
8
BLACK
10
326.897588
20
-157.318115
11
326.720318
21
-157.299594
0
LINE
8
BLACK
10
327.069567
20
-157.365740
11
326.897588
21
-157.318115
0
LINE
8
BLACK
10
327.230963
20
-157.445115
11
327.069567
21
-157.365740
0
LINE
8
BLACK
10
327.376483
20
-157.550948
11
327.230963
21
-157.445115
0
LINE
8
BLACK
10
327.500837
20
-157.680594
11
327.376483
21
-157.550948
0
LINE
8
BLACK
10
327.601379
20
-157.828760
11
327.500837
21
-157.680594
0
LINE
8
BLACK
10
327.675462
20
-157.992802
11
327.601379
21
-157.828760
0
LINE
8
BLACK
10
327.696629
20
-158.080114
11
327.675462
21
-157.992802
0
LINE
8
BLACK
10
327.696629
20
-158.080114
11
327.696629
21
-158.080114
0
LINE
8
BLACK
10
327.696629
20
-158.080114
11
327.696629
21
-158.080114
0
LINE
8
BLACK
10
327.696629
20
-158.080114
11
327.696629
21
-158.080114
0
LINE
8
BLACK
10
329.704814
20
-166.131375
11
327.696629
21
-158.080114
0
LINE
8
BLACK
10
329.704814
20
-166.131375
11
329.704814
21
-166.131375
0
LINE
8
BLACK
10
329.704814
20
-166.131375
11
329.704814
21
-166.131375
0
LINE
8
BLACK
10
329.704814
20
-166.131375
11
329.704814
21
-166.131375
0
LINE
8
BLACK
10
329.763022
20
-166.308645
11
329.704814
21
-166.131375
0
LINE
8
BLACK
10
329.847689
20
-166.470041
11
329.763022
21
-166.308645
0
LINE
8
BLACK
10
329.958813
20
-166.618208
11
329.847689
21
-166.470041
0
LINE
8
BLACK
10
330.088459
20
-166.747853
11
329.958813
21
-166.618208
0
LINE
8
BLACK
10
330.239271
20
-166.856332
11
330.088459
21
-166.747853
0
LINE
8
BLACK
10
330.403313
20
-166.938353
11
330.239271
21
-166.856332
0
LINE
8
BLACK
10
330.580584
20
-166.993915
11
330.403313
21
-166.938353
0
LINE
8
BLACK
10
330.763146
20
-167.020374
11
330.580584
21
-166.993915
0
LINE
8
BLACK
10
330.945708
20
-167.017728
11
330.763146
21
-167.020374
0
LINE
8
BLACK
10
331.128270
20
-166.988624
11
330.945708
21
-167.017728
0
LINE
8
BLACK
10
331.128270
20
-166.988624
11
331.128270
21
-166.988624
0
LINE
8
BLACK
10
331.128270
20
-166.988624
11
331.128270
21
-166.988624
0
LINE
8
BLACK
10
331.128270
20
-166.988624
11
331.128270
21
-166.988624
0
LINE
8
BLACK
10
349.371268
20
-162.440442
11
331.128270
21
-166.988624
0
LINE
8
BLACK
10
349.371268
20
-162.440442
11
349.371268
21
-162.440442
0
LINE
8
BLACK
10
349.371268
20
-162.440442
11
349.371268
21
-162.440442
0
LINE
8
BLACK
10
349.545893
20
-162.382234
11
349.371268
21
-162.440442
0
LINE
8
BLACK
10
349.709934
20
-162.297567
11
349.545893
21
-162.382234
0
LINE
8
BLACK
10
349.858101
20
-162.186442
11
349.709934
21
-162.297567
0
LINE
8
BLACK
10
349.985101
20
-162.054151
11
349.858101
21
-162.186442
0
LINE
8
BLACK
10
350.093580
20
-161.905984
11
349.985101
21
-162.054151
0
LINE
8
BLACK
10
350.175600
20
-161.739297
11
350.093580
21
-161.905984
0
LINE
8
BLACK
10
350.231163
20
-161.564672
11
350.175600
21
-161.739297
0
LINE
8
BLACK
10
350.257621
20
-161.382110
11
350.231163
21
-161.564672
0
LINE
8
BLACK
10
350.257621
20
-161.196902
11
350.257621
21
-161.382110
0
LINE
8
BLACK
10
350.225871
20
-161.016985
11
350.257621
21
-161.196902
0
LINE
8
BLACK
10
350.225871
20
-161.016985
11
350.225871
21
-161.016985
0
LINE
8
BLACK
10
346.646063
20
-146.655420
11
350.225871
21
-161.016985
0
LINE
8
BLACK
10
346.646063
20
-146.655420
11
346.646063
21
-146.655420
0
LINE
8
BLACK
10
346.624897
20
-146.568108
11
346.646063
21
-146.655420
0
LINE
8
BLACK
10
346.611667
20
-146.390837
11
346.624897
21
-146.568108
0
LINE
8
BLACK
10
346.630188
20
-146.210921
11
346.611667
21
-146.390837
0
LINE
8
BLACK
10
346.680459
20
-146.038942
11
346.630188
21
-146.210921
0
LINE
8
BLACK
10
346.757188
20
-145.877546
11
346.680459
21
-146.038942
0
LINE
8
BLACK
10
346.863021
20
-145.732026
11
346.757188
21
-145.877546
0
LINE
8
BLACK
10
346.992667
20
-145.607672
11
346.863021
21
-145.732026
0
LINE
8
BLACK
10
347.140833
20
-145.507130
11
346.992667
21
-145.607672
0
LINE
8
BLACK
10
347.304875
20
-145.435693
11
347.140833
21
-145.507130
0
LINE
8
BLACK
10
347.392187
20
-145.411880
11
347.304875
21
-145.435693
0
LINE
8
BLACK
10
347.392187
20
-145.411880
11
347.392187
21
-145.411880
0
LINE
8
BLACK
10
347.392187
20
-145.411880
11
347.392187
21
-145.411880
0
LINE
8
BLACK
10
347.392187
20
-145.411880
11
347.392187
21
-145.411880
0
LINE
8
BLACK
10
347.392187
20
-145.411880
11
347.392187
21
-145.411880
0
LINE
8
BLACK
10
363.693146
20
-141.347885
11
347.392187
21
-145.411880
0
LINE
8
BLACK
10
363.693146
20
-141.347885
11
363.693146
21
-141.347885
0
LINE
8
BLACK
10
363.693146
20
-141.347885
11
363.693146
21
-141.347885
0
LINE
8
BLACK
10
363.693146
20
-141.347885
11
363.693146
21
-141.347885
0
LINE
8
BLACK
10
363.693146
20
-141.347885
11
363.693146
21
-141.347885
0
LINE
8
BLACK
10
363.867771
20
-141.289677
11
363.693146
21
-141.347885
0
LINE
8
BLACK
10
364.031812
20
-141.205010
11
363.867771
21
-141.289677
0
LINE
8
BLACK
10
364.179979
20
-141.096531
11
364.031812
21
-141.205010
0
LINE
8
BLACK
10
364.309624
20
-140.964240
11
364.179979
21
-141.096531
0
LINE
8
BLACK
10
364.415458
20
-140.813428
11
364.309624
21
-140.964240
0
LINE
8
BLACK
10
364.497478
20
-140.649386
11
364.415458
21
-140.813428
0
LINE
8
BLACK
10
364.553041
20
-140.472116
11
364.497478
21
-140.649386
0
LINE
8
BLACK
10
364.582145
20
-140.289553
11
364.553041
21
-140.472116
0
LINE
8
BLACK
10
364.579499
20
-140.106991
11
364.582145
21
-140.289553
0
LINE
8
BLACK
10
364.550395
20
-139.924429
11
364.579499
21
-140.106991
0
LINE
8
BLACK
10
364.550395
20
-139.924429
11
364.550395
21
-139.924429
0
LINE
8
BLACK
10
355.403761
20
-103.247933
11
364.550395
21
-139.924429
0
LINE
8
BLACK
10
355.403761
20
-103.247933
11
355.403761
21
-103.247933
0
LINE
8
BLACK
10
355.403761
20
-103.247933
11
355.403761
21
-103.247933
0
LINE
8
BLACK
10
355.403761
20
-103.247933
11
355.403761
21
-103.247933
0
LINE
8
BLACK
10
355.403761
20
-103.245287
11
355.403761
21
-103.247933
0
LINE
8
BLACK
10
355.345552
20
-103.073308
11
355.403761
21
-103.245287
0
LINE
8
BLACK
10
355.260886
20
-102.909267
11
355.345552
21
-103.073308
0
LINE
8
BLACK
10
355.152407
20
-102.761101
11
355.260886
21
-102.909267
0
LINE
8
BLACK
10
355.020115
20
-102.631455
11
355.152407
21
-102.761101
0
LINE
8
BLACK
10
354.869303
20
-102.525622
11
355.020115
21
-102.631455
0
LINE
8
BLACK
10
354.705261
20
-102.440955
11
354.869303
21
-102.525622
0
LINE
8
BLACK
10
354.527991
20
-102.385393
11
354.705261
21
-102.440955
0
LINE
8
BLACK
10
354.345429
20
-102.358934
11
354.527991
21
-102.385393
0
LINE
8
BLACK
10
354.162866
20
-102.361580
11
354.345429
21
-102.358934
0
LINE
8
BLACK
10
353.980304
20
-102.390684
11
354.162866
21
-102.361580
0
LINE
8
BLACK
10
353.980304
20
-102.390684
11
353.980304
21
-102.390684
0
LINE
8
BLACK
10
353.980304
20
-102.390684
11
353.980304
21
-102.390684
0
LINE
8
BLACK
10
337.679345
20
-106.454679
11
353.980304
21
-102.390684
0
LINE
8
BLACK
10
337.676700
20
-106.457325
11
337.679345
21
-106.454679
0
LINE
8
BLACK
10
337.676700
20
-106.457325
11
337.676700
21
-106.457325
0
LINE
8
BLACK
10
337.589387
20
-106.478492
11
337.676700
21
-106.457325
0
LINE
8
BLACK
10
337.409471
20
-106.497012
11
337.589387
21
-106.478492
0
LINE
8
BLACK
10
337.229554
20
-106.481138
11
337.409471
21
-106.497012
0
LINE
8
BLACK
10
337.057575
20
-106.433513
11
337.229554
21
-106.481138
0
LINE
8
BLACK
10
336.893534
20
-106.356784
11
337.057575
21
-106.433513
0
LINE
8
BLACK
10
336.745367
20
-106.250950
11
336.893534
21
-106.356784
0
LINE
8
BLACK
10
336.618368
20
-106.121305
11
336.745367
21
-106.250950
0
LINE
8
BLACK
10
336.517826
20
-105.973138
11
336.618368
21
-106.121305
0
LINE
8
BLACK
10
336.480784
20
-105.891117
11
336.517826
21
-105.973138
0
LINE
8
BLACK
10
336.425222
20
-105.727076
11
336.480784
21
-105.891117
0
LINE
8
BLACK
10
336.340555
20
-105.565680
11
336.425222
21
-105.727076
0
LINE
8
BLACK
10
336.232076
20
-105.417514
11
336.340555
21
-105.565680
0
LINE
8
BLACK
10
336.099785
20
-105.287868
11
336.232076
21
-105.417514
0
LINE
8
BLACK
10
335.948973
20
-105.179389
11
336.099785
21
-105.287868
0
LINE
8
BLACK
10
335.784931
20
-105.097368
11
335.948973
21
-105.179389
0
LINE
8
BLACK
10
335.610306
20
-105.041806
11
335.784931
21
-105.097368
0
LINE
8
BLACK
10
335.427744
20
-105.015348
11
335.610306
21
-105.041806
0
LINE
8
BLACK
10
335.242536
20
-105.017994
11
335.427744
21
-105.015348
0
LINE
8
BLACK
10
335.059974
20
-105.047098
11
335.242536
21
-105.017994
0
LINE
8
BLACK
10
335.059974
20
-105.047098
11
335.059974
21
-105.047098
0
LINE
8
BLACK
10
318.759015
20
-109.111093
11
335.059974
21
-105.047098
0
LINE
8
BLACK
10
318.759015
20
-109.111093
11
318.759015
21
-109.111093
0
LINE
8
BLACK
10
318.671703
20
-109.132259
11
318.759015
21
-109.111093
0
LINE
8
BLACK
10
318.494432
20
-109.145488
11
318.671703
21
-109.132259
0
LINE
8
BLACK
10
318.314516
20
-109.126968
11
318.494432
21
-109.145488
0
LINE
8
BLACK
10
318.142537
20
-109.076697
11
318.314516
21
-109.126968
0
LINE
8
BLACK
10
317.981141
20
-108.999968
11
318.142537
21
-109.076697
0
LINE
8
BLACK
10
317.835620
20
-108.894134
11
317.981141
21
-108.999968
0
LINE
8
BLACK
10
317.711266
20
-108.764489
11
317.835620
21
-108.894134
0
LINE
8
BLACK
10
317.610725
20
-108.616322
11
317.711266
21
-108.764489
0
LINE
8
BLACK
10
317.539287
20
-108.452281
11
317.610725
21
-108.616322
0
LINE
8
BLACK
10
317.518121
20
-108.364968
11
317.539287
21
-108.452281
0
LINE
8
BLACK
10
317.518121
20
-108.364968
11
317.518121
21
-108.364968
0
LINE
8
BLACK
10
315.509936
20
-100.311062
11
317.518121
21
-108.364968
0
LINE
8
BLACK
10
315.509936
20
-100.311062
11
315.509936
21
-100.311062
0
LINE
8
BLACK
10
315.451728
20
-100.136437
11
315.509936
21
-100.311062
0
LINE
8
BLACK
10
315.364415
20
-99.972396
11
315.451728
21
-100.136437
0
LINE
8
BLACK
10
315.255936
20
-99.824229
11
315.364415
21
-99.972396
0
LINE
8
BLACK
10
315.123645
20
-99.694584
11
315.255936
21
-99.824229
0
LINE
8
BLACK
10
314.975478
20
-99.588750
11
315.123645
21
-99.694584
0
LINE
8
BLACK
10
314.808791
20
-99.506730
11
314.975478
21
-99.588750
0
LINE
8
BLACK
10
314.634166
20
-99.451167
11
314.808791
21
-99.506730
 0 
ENDSEC
 0 
EOF