0
SECTION
2
HEADER
9
$INSUNITS
70
4
0
ENDSEC
0
SECTION
2
TABLES
0
TABLE
2
LTYPE
0
LTYPE
72
65
70
64
2
CONTINUOUS
3
______
73
0
40
0
0
ENDTAB
0
TABLE
2
LAYER
0
ENDTAB
0
ENDSEC
0
SECTION
2
ENTITIES
0
LINE
8
0
10
58.9028792
20
-139.0812023
11
76.0771135
21
-143.3632198
0
ARC
8
0
10
75.883576
20
-144.1394564
40
0.8
50
345.9999934
51
76
0
LINE
8
0
10
76.6598126
20
-144.332994
11
72.8616389
21
-159.5666367
0
LINE
8
0
10
73.2258258
20
-160.1727456
11
91.079267
21
-164.6241084
0
LINE
8
0
10
91.6853759
20
-164.2599215
11
93.9110573
21
-155.3332008
0
ARC
8
0
10
94.6872939
20
-155.5267384
40
0.8
50
436.0000023
51
165.9999934
0
LINE
8
0
10
94.8808314
20
-154.7505018
11
112.0550657
21
-159.0325193
0
LINE
8
0
10
112.6611746
20
-158.6683324
11
113.0724418
21
-157.0188297
0
ARC
8
0
10
113.8486784
20
-157.2123673
40
0.8
50
436.0000039
51
165.9999934
0
LINE
8
0
10
114.0422159
20
-156.4361307
11
130.5368552
21
-160.5487062
0
ARC
8
0
10
130.3437058
20
-161.3250395
40
0.8
50
345.9999983
51
76
0
LINE
8
0
10
124.7815887
20
-186.940325
11
131.1199423
21
-161.518577
0
LINE
8
0
10
125.1457756
20
-187.5464339
11
143.1496196
21
-192.0352964
0
ARC
8
0
10
142.9560821
20
-192.8115329
40
0.8
50
419.4999972
51
76
0
LINE
8
0
10
143.3624574
20
-192.1224327
11
159.4832064
21
-201.6182794
0
ARC
8
0
10
159.0771758
20
-202.3075827
40
0.8
50
402.9999986
51
59.5000001
0
LINE
8
0
10
159.6622587
20
-201.7619841
11
172.3167427
21
-215.3322567
0
LINE
8
0
10
173.0234188
20
-215.3569344
11
186.4803268
21
-202.8081647
0
LINE
8
0
10
166.3431868
20
-180.4805862
11
186.5050044
21
-202.1014886
0
ARC
8
0
10
166.9282698
20
-179.9349875
40
0.8
50
165.9999998
51
222.9999987
0
LINE
8
0
10
166.1520332
20
-179.74145
11
172.7338925
21
-153.3430548
0
ARC
8
0
10
173.510129
20
-153.5365923
40
0.8
50
449.9999974
51
165.9999998
0
LINE
8
0
10
247.4076656
20
-152.7365923
11
173.510129
21
-152.7365923
0
ARC
8
0
10
247.4076656
20
-153.5365923
40
0.8
50
14.0000002
51
90
0
LINE
8
0
10
248.1839022
20
-153.3430548
11
254.7657614
21
-179.7414499
0
ARC
8
0
10
253.9895248
20
-179.9349875
40
0.8
50
317.0000013
51
14.0000066
0
LINE
8
0
10
234.4127902
20
-202.1014886
11
254.5746078
21
-180.4805862
0
LINE
8
0
10
234.4374679
20
-202.8081647
11
247.8943758
21
-215.3569344
0
LINE
8
0
10
248.6010519
20
-215.3322567
11
261.2555359
21
-201.7619841
0
ARC
8
0
10
261.8406189
20
-202.3075828
40
0.8
50
120.4999999
51
136.9999995
0
LINE
8
0
10
261.4345882
20
-201.6182795
11
277.5556819
21
-192.1222296
0
ARC
8
0
10
277.9617125
20
-192.8115329
40
0.8
50
104
51
120.4999968
0
LINE
8
0
10
277.768175
20
-192.0352963
11
295.772019
21
-187.5464339
0
LINE
8
0
10
289.7978522
20
-161.518577
11
296.136206
21
-186.9403251
0
ARC
8
0
10
290.5740888
20
-161.3250395
40
0.8
50
104
51
193.9999985
0
LINE
8
0
10
290.3805513
20
-160.5488029
11
306.8755787
21
-156.4361307
0
ARC
8
0
10
307.0691162
20
-157.2123673
40
0.8
50
14.0000066
51
103.999999
0
LINE
8
0
10
307.8453528
20
-157.0188297
11
308.25662
21
-158.6683324
0
LINE
8
0
10
308.8627289
20
-159.0325193
11
326.0369632
21
-154.7505018
0
ARC
8
0
10
326.2305007
20
-155.5267384
40
0.8
50
14.0000066
51
103.9999993
0
LINE
8
0
10
327.0067373
20
-155.3332008
11
329.2324187
21
-164.2599215
0
LINE
8
0
10
329.8385276
20
-164.6241084
11
347.6919688
21
-160.1727456
0
LINE
8
0
10
348.0561557
20
-159.5666367
11
344.257982
21
-144.3329939
0
ARC
8
0
10
345.0342186
20
-144.1394564
40
0.8
50
104
51
193.999997
0
LINE
8
0
10
344.8406811
20
-143.3632198
11
362.0149154
21
-139.0812023
0
LINE
8
0
10
353.3312235
20
-102.1860334
11
362.3791023
21
-138.4750935
0
LINE
8
0
10
352.7251146
20
-101.8218465
11
335.5508804
21
-106.103864
0
ARC
8
0
10
335.3573428
20
-105.3276274
40
0.8
50
194
51
284.0000066
0
LINE
8
0
10
334.5811062
20
-105.5211649
11
334.4117609
21
-104.8419579
0
LINE
8
0
10
333.805652
20
-104.477771
11
316.6314178
21
-108.7597885
0
ARC
8
0
10
316.4378802
20
-107.9835519
40
0.8
50
194
51
284.0000066
0
LINE
8
0
10
315.6616436
20
-108.1770894
11
313.4359622
21
-99.2503688
0
LINE
8
0
10
312.8298533
20
-98.8861819
11
295.6556191
21
-103.1681994
0
ARC
8
0
10
295.4620815
20
-102.3919628
40
0.8
50
194.0000066
51
284.0000066
0
LINE
8
0
10
294.6858449
20
-102.5855004
11
294.2745777
21
-100.9359977
0
LINE
8
0
10
237.6824055
20
-114.5307041
11
293.6684688
21
-100.5718108
0
ARC
8
0
10
237.488868
20
-113.7544675
40
0.8
50
270
51
284
0
LINE
8
0
10
183.4289266
20
-114.5544675
11
237.488868
21
-114.5544675
0
ARC
8
0
10
183.4289266
20
-113.7544675
40
0.8
50
256
51
270
0
LINE
8
0
10
127.2493258
20
-100.5718108
11
183.2353891
21
-114.5307041
0
LINE
8
0
10
126.6432169
20
-100.9359977
11
126.2319497
21
-102.5855003
0
ARC
8
0
10
125.4557131
20
-102.3919628
40
0.8
50
255.9999934
51
346.000003
0
LINE
8
0
10
125.2621756
20
-103.1681994
11
108.0879413
21
-98.8861819
0
LINE
8
0
10
107.4818324
20
-99.2503688
11
105.256151
21
-108.1770895
0
ARC
8
0
10
104.4799144
20
-107.9835519
40
0.8
50
255.9999934
51
345.9999934
0
LINE
8
0
10
104.2863768
20
-108.7597885
11
87.1121426
21
-104.477771
0
LINE
8
0
10
86.5060337
20
-104.8419579
11
86.3366884
21
-105.521165
0
ARC
8
0
10
85.5604518
20
-105.3276274
40
0.8
50
255.9999934
51
345.9999934
0
LINE
8
0
10
85.3669142
20
-106.103864
11
68.19268
21
-101.8218465
0
LINE
8
0
10
58.5386923
20
-138.4750934
11
67.5865711
21
-102.1860334
0
ARC
8
0
10
76.1746647
20
-144.212033
40
0.5
50
345.9999934
51
345.9999994
0
ARC
8
0
10
73.3467868
20
-159.6875977
40
0.5
50
165.9999994
51
255.9999994
0
ARC
8
0
10
91.200228
20
-164.1389605
40
0.5
50
255.9999994
51
345.9999994
0
ARC
8
0
10
94.3962052
20
-155.4541618
40
0.5
50
165.9999934
51
165.9999994
0
ARC
8
0
10
112.1760267
20
-158.5473714
40
0.5
50
255.9999994
51
345.9999994
0
ARC
8
0
10
113.5575897
20
-157.1397907
40
0.5
50
165.9999934
51
165.9999994
0
ARC
8
0
10
125.2667366
20
-187.061286
40
0.5
50
165.9999994
51
255.9999994
0
ARC
8
0
10
172.6824195
20
-214.9912575
40
0.5
50
223.0000017
51
313.0000017
0
ARC
8
0
10
186.1393275
20
-202.4424878
40
0.5
50
313.0000017
51
43.0000017
0
ARC
8
0
10
254.2806135
20
-179.8624109
40
0.5
50
14.0000006
51
14.0000066
0
ARC
8
0
10
234.7784671
20
-202.4424878
40
0.5
50
136.9999983
51
226.9999983
0
ARC
8
0
10
248.2353751
20
-214.9912575
40
0.5
50
226.9999983
51
316.9999983
0
ARC
8
0
10
295.6510581
20
-187.061286
40
0.5
50
284.0000006
51
14.0000006
0
ARC
8
0
10
307.3602049
20
-157.1397907
40
0.5
50
14.0000006
51
14.0000066
0
ARC
8
0
10
308.741768
20
-158.5473714
40
0.5
50
194.0000006
51
284.0000006
0
ARC
8
0
10
326.5215894
20
-155.4541618
40
0.5
50
14.0000006
51
14.0000066
0
ARC
8
0
10
329.7175666
20
-164.1389605
40
0.5
50
194.0000006
51
284.0000006
0
ARC
8
0
10
347.5710078
20
-159.6875977
40
0.5
50
284.0000006
51
14.0000006
0
ARC
8
0
10
361.8939544
20
-138.5960544
40
0.5
50
284.0000006
51
14.0000006
0
ARC
8
0
10
352.8460756
20
-102.3069944
40
0.5
50
14.0000006
51
104.0000006
0
ARC
8
0
10
335.4299194
20
-105.6187161
40
0.5
50
284.0000006
51
284.0000066
0
ARC
8
0
10
333.926613
20
-104.9629189
40
0.5
50
14.0000006
51
104.0000006
0
ARC
8
0
10
316.5104568
20
-108.2746406
40
0.5
50
284.0000006
51
284.0000066
0
ARC
8
0
10
312.9508143
20
-99.3713298
40
0.5
50
14.0000006
51
104.0000006
0
ARC
8
0
10
295.5346581
20
-102.6830515
40
0.5
50
284.0000006
51
284.0000066
0
ARC
8
0
10
295.1709928
20
-102.4645394
40
0.5
50
194.0000006
51
194.0000066
0
ARC
8
0
10
293.7894298
20
-101.0569587
40
0.5
50
14.0000006
51
104.0000006
0
ARC
8
0
10
127.1283648
20
-101.0569587
40
0.5
50
75.9999994
51
165.9999994
0
ARC
8
0
10
125.3831365
20
-102.6830515
40
0.5
50
255.9999934
51
255.9999994
0
ARC
8
0
10
107.9669803
20
-99.3713298
40
0.5
50
75.9999994
51
165.9999994
0
ARC
8
0
10
104.7710031
20
-108.0561285
40
0.5
50
345.9999934
51
345.9999994
0
ARC
8
0
10
104.4073378
20
-108.2746406
40
0.5
50
255.9999934
51
255.9999994
0
ARC
8
0
10
86.9911816
20
-104.9629189
40
0.5
50
75.9999994
51
165.9999994
0
ARC
8
0
10
85.8515405
20
-105.400204
40
0.5
50
345.9999934
51
345.9999994
0
ARC
8
0
10
85.4878752
20
-105.6187161
40
0.5
50
255.9999934
51
255.9999994
0
ARC
8
0
10
68.071719
20
-102.3069944
40
0.5
50
75.9999994
51
165.9999994
0
ARC
8
0
10
59.0238402
20
-138.5960544
40
0.5
50
165.9999994
51
255.9999994
0
ENDSEC
0
EOF