0
SECTION
2
HEADER
9
$INSUNITS
70
4
0
ENDSEC
0
SECTION
2
TABLES
0
TABLE
2
LTYPE
0
LTYPE
72
65
70
64
2
CONTINUOUS
3
______
73
0
40
0
0
ENDTAB
0
TABLE
2
LAYER
0
ENDTAB
0
ENDSEC
0
SECTION
2
ENTITIES
0
LINE
8
0
10
75.7854486
20
-129.709621
11
89.451148
21
-131.6302098
0
LINE
8
0
10
89.451148
20
-131.6302098
11
91.3717368
21
-117.9645104
0
LINE
8
0
10
91.3717368
20
-117.9645104
11
77.7060374
21
-116.0439216
0
LINE
8
0
10
77.7060374
20
-116.0439216
11
75.7854486
21
-129.709621
0
LINE
8
0
10
78.4297375
20
-110.8945277
11
92.0954369
21
-112.8151165
0
LINE
8
0
10
92.0954369
20
-112.8151165
11
94.0160257
21
-99.1494171
0
LINE
8
0
10
94.0160257
20
-99.1494171
11
80.3503263
21
-97.2288283
0
LINE
8
0
10
80.3503263
20
-97.2288283
11
78.4297375
21
-110.8945277
0
LINE
8
0
10
81.0740264
20
-92.0794344
11
94.7397258
21
-94.0000232
0
LINE
8
0
10
94.7397258
20
-94.0000232
11
96.6603146
21
-80.3343238
0
LINE
8
0
10
96.6603146
20
-80.3343238
11
82.9946152
21
-78.413735
0
LINE
8
0
10
82.9946152
20
-78.413735
11
81.0740264
21
-92.0794344
0
LINE
8
0
10
91.956253
20
-151.1690033
11
105.6219524
21
-153.0895921
0
LINE
8
0
10
105.6219524
20
-153.0895921
11
107.5425412
21
-139.4238927
0
LINE
8
0
10
107.5425412
20
-139.4238927
11
93.8768418
21
-137.5033039
0
LINE
8
0
10
93.8768418
20
-137.5033039
11
91.956253
21
-151.1690033
0
LINE
8
0
10
94.6005419
20
-132.3539099
11
108.2662413
21
-134.2744987
0
LINE
8
0
10
108.2662413
20
-134.2744987
11
110.1868301
21
-120.6087993
0
LINE
8
0
10
110.1868301
20
-120.6087993
11
96.5211307
21
-118.6882105
0
LINE
8
0
10
96.5211307
20
-118.6882105
11
94.6005419
21
-132.3539099
0
LINE
8
0
10
97.2448308
20
-113.5388166
11
110.9105302
21
-115.4594054
0
LINE
8
0
10
110.9105302
20
-115.4594054
11
112.831119
21
-101.793706
0
LINE
8
0
10
112.831119
20
-101.793706
11
99.1654196
21
-99.8731172
0
LINE
8
0
10
99.1654196
20
-99.8731172
11
97.2448308
21
-113.5388166
0
LINE
8
0
10
99.8891197
20
-94.7237233
11
113.5548191
21
-96.6443121
0
LINE
8
0
10
113.5548191
20
-96.6443121
11
115.4754079
21
-82.9786127
0
LINE
8
0
10
115.4754079
20
-82.9786127
11
101.8097085
21
-81.0580239
0
LINE
8
0
10
101.8097085
20
-81.0580239
11
99.8891197
21
-94.7237233
0
LINE
8
0
10
112.2326638
20
-143.4154774
11
125.8983632
21
-145.3360662
0
LINE
8
0
10
125.8983632
20
-145.3360662
11
127.818952
21
-131.6703668
0
LINE
8
0
10
127.818952
20
-131.6703668
11
114.1532526
21
-129.749778
0
LINE
8
0
10
114.1532526
20
-129.749778
11
112.2326638
21
-143.4154774
0
LINE
8
0
10
114.8769527
20
-124.6003841
11
128.5426521
21
-126.5209729
0
LINE
8
0
10
128.5426521
20
-126.5209729
11
130.4632409
21
-112.8552735
0
LINE
8
0
10
130.4632409
20
-112.8552735
11
116.7975415
21
-110.9346847
0
LINE
8
0
10
116.7975415
20
-110.9346847
11
114.8769527
21
-124.6003841
0
LINE
8
0
10
117.5212417
20
-105.7852908
11
131.1869411
21
-107.7058796
0
LINE
8
0
10
131.1869411
20
-107.7058796
11
133.1075299
21
-94.0401802
0
LINE
8
0
10
133.1075299
20
-94.0401802
11
119.4418305
21
-92.1195914
0
LINE
8
0
10
119.4418305
20
-92.1195914
11
117.5212417
21
-105.7852908
0
LINE
8
0
10
120.1655306
20
-86.9701975
11
133.83123
21
-88.8907863
0
LINE
8
0
10
133.83123
20
-88.8907863
11
135.7518188
21
-75.2250869
0
LINE
8
0
10
135.7518188
20
-75.2250869
11
122.0861194
21
-73.3044981
0
LINE
8
0
10
122.0861194
20
-73.3044981
11
120.1655306
21
-86.9701975
0
LINE
8
0
10
131.4652764
20
-143.0889622
11
145.1309758
21
-145.009551
0
LINE
8
0
10
145.1309758
20
-145.009551
11
147.0515646
21
-131.3438516
0
LINE
8
0
10
147.0515646
20
-131.3438516
11
133.3858652
21
-129.4232628
0
LINE
8
0
10
133.3858652
20
-129.4232628
11
131.4652764
21
-143.0889622
0
LINE
8
0
10
134.1095653
20
-124.2738689
11
147.7752647
21
-126.1944577
0
LINE
8
0
10
147.7752647
20
-126.1944577
11
149.6958535
21
-112.5287583
0
LINE
8
0
10
149.6958535
20
-112.5287583
11
136.0301541
21
-110.6081695
0
LINE
8
0
10
136.0301541
20
-110.6081695
11
134.1095653
21
-124.2738689
0
LINE
8
0
10
136.7538543
20
-105.4587755
11
150.4195537
21
-107.3793643
0
LINE
8
0
10
150.4195537
20
-107.3793643
11
152.3401425
21
-93.7136649
0
LINE
8
0
10
152.3401425
20
-93.7136649
11
138.6744431
21
-91.7930761
0
LINE
8
0
10
138.6744431
20
-91.7930761
11
136.7538543
21
-105.4587755
0
LINE
8
0
10
139.3981432
20
-86.6436822
11
153.0638426
21
-88.564271
0
LINE
8
0
10
153.0638426
20
-88.564271
11
154.9844314
21
-74.8985716
0
LINE
8
0
10
154.9844314
20
-74.8985716
11
141.318732
21
-72.9779828
0
LINE
8
0
10
141.318732
20
-72.9779828
11
139.3981432
21
-86.6436822
0
LINE
8
0
10
149.5845042
20
-150.6845914
11
163.2502036
21
-152.6051802
0
LINE
8
0
10
163.2502036
20
-152.6051802
11
165.1707924
21
-138.9394808
0
LINE
8
0
10
165.1707924
20
-138.9394808
11
151.505093
21
-137.018892
0
LINE
8
0
10
151.505093
20
-137.018892
11
149.5845042
21
-150.6845914
0
LINE
8
0
10
152.2287932
20
-131.8694981
11
165.8944926
21
-133.7900869
0
LINE
8
0
10
165.8944926
20
-133.7900869
11
167.8150814
21
-120.1243875
0
LINE
8
0
10
167.8150814
20
-120.1243875
11
154.149382
21
-118.2037987
0
LINE
8
0
10
154.149382
20
-118.2037987
11
152.2287932
21
-131.8694981
0
LINE
8
0
10
154.8730821
20
-113.0544048
11
168.5387815
21
-114.9749936
0
LINE
8
0
10
168.5387815
20
-114.9749936
11
170.4593703
21
-101.3092942
0
LINE
8
0
10
170.4593703
20
-101.3092942
11
156.7936709
21
-99.3887054
0
LINE
8
0
10
156.7936709
20
-99.3887054
11
154.8730821
21
-113.0544048
0
LINE
8
0
10
157.517371
20
-94.2393115
11
171.1830704
21
-96.1599003
0
LINE
8
0
10
171.1830704
20
-96.1599003
11
173.1036592
21
-82.4942009
0
LINE
8
0
10
173.1036592
20
-82.4942009
11
159.4379598
21
-80.5736121
0
LINE
8
0
10
159.4379598
20
-80.5736121
11
157.517371
21
-94.2393115
0
LINE
8
0
10
168.1908379
20
-154.8142824
11
181.8565373
21
-156.7348712
0
LINE
8
0
10
181.8565373
20
-156.7348712
11
183.7771261
21
-143.0691718
0
LINE
8
0
10
183.7771261
20
-143.0691718
11
170.1114267
21
-141.148583
0
LINE
8
0
10
170.1114267
20
-141.148583
11
168.1908379
21
-154.8142824
0
LINE
8
0
10
170.8351268
20
-135.9991891
11
184.5008262
21
-137.9197779
0
LINE
8
0
10
184.5008262
20
-137.9197779
11
186.421415
21
-124.2540785
0
LINE
8
0
10
186.421415
20
-124.2540785
11
172.7557156
21
-122.3334897
0
LINE
8
0
10
172.7557156
20
-122.3334897
11
170.8351268
21
-135.9991891
0
LINE
8
0
10
173.4794157
20
-117.1840958
11
187.1451151
21
-119.1046846
0
LINE
8
0
10
187.1451151
20
-119.1046846
11
189.0657039
21
-105.4389852
0
LINE
8
0
10
189.0657039
20
-105.4389852
11
175.4000045
21
-103.5183964
0
LINE
8
0
10
175.4000045
20
-103.5183964
11
173.4794157
21
-117.1840958
0
LINE
8
0
10
176.1237046
20
-98.3690025
11
189.789404
21
-100.2895913
0
LINE
8
0
10
189.789404
20
-100.2895913
11
191.7099928
21
-86.6238919
0
LINE
8
0
10
191.7099928
20
-86.6238919
11
178.0442934
21
-84.7033031
0
LINE
8
0
10
178.0442934
20
-84.7033031
11
176.1237046
21
-98.3690025
0
LINE
8
0
10
134.2644619
20
-172.7502689
11
145.285632
21
-164.4452216
0
LINE
8
0
10
145.285632
20
-164.4452216
11
136.9805847
21
-153.4240515
0
LINE
8
0
10
136.9805847
20
-153.4240515
11
125.9594146
21
-161.7290988
0
LINE
8
0
10
125.9594146
20
-161.7290988
11
134.2644619
21
-172.7502689
0
LINE
8
0
10
156.0520191
20
-172.9261488
11
169.7177185
21
-174.8467376
0
LINE
8
0
10
169.7177185
20
-174.8467376
11
171.6383073
21
-161.1810382
0
LINE
8
0
10
171.6383073
20
-161.1810382
11
157.9726079
21
-159.2604494
0
LINE
8
0
10
157.9726079
20
-159.2604494
11
156.0520191
21
-172.9261488
0
LINE
8
0
10
182.603255
20
-179.4374307
11
194.7879318
21
-185.9161383
0
LINE
8
0
10
194.7879318
20
-185.9161383
11
201.2666394
21
-173.7314615
0
LINE
8
0
10
201.2666394
20
-173.7314615
11
189.0819626
21
-167.2527539
0
LINE
8
0
10
189.0819626
20
-167.2527539
11
182.603255
21
-179.4374307
0
LINE
8
0
10
335.3053938
20
-131.6302098
11
348.9710932
21
-129.709621
0
LINE
8
0
10
348.9710932
20
-129.709621
11
347.0505044
21
-116.0439216
0
LINE
8
0
10
347.0505044
20
-116.0439216
11
333.384805
21
-117.9645104
0
LINE
8
0
10
333.384805
20
-117.9645104
11
335.3053938
21
-131.6302098
0
LINE
8
0
10
332.6611049
20
-112.8151165
11
346.3268043
21
-110.8945277
0
LINE
8
0
10
346.3268043
20
-110.8945277
11
344.4062155
21
-97.2288283
0
LINE
8
0
10
344.4062155
20
-97.2288283
11
330.7405161
21
-99.1494171
0
LINE
8
0
10
330.7405161
20
-99.1494171
11
332.6611049
21
-112.8151165
0
LINE
8
0
10
330.016816
20
-94.0000232
11
343.6825154
21
-92.0794344
0
LINE
8
0
10
343.6825154
20
-92.0794344
11
341.7619266
21
-78.413735
0
LINE
8
0
10
341.7619266
20
-78.413735
11
328.0962272
21
-80.3343238
0
LINE
8
0
10
328.0962272
20
-80.3343238
11
330.016816
21
-94.0000232
0
LINE
8
0
10
319.1345894
20
-153.0895921
11
332.8002888
21
-151.1690033
0
LINE
8
0
10
332.8002888
20
-151.1690033
11
330.8797
21
-137.5033039
0
LINE
8
0
10
330.8797
20
-137.5033039
11
317.2140006
21
-139.4238927
0
LINE
8
0
10
317.2140006
20
-139.4238927
11
319.1345894
21
-153.0895921
0
LINE
8
0
10
316.4903005
20
-134.2744987
11
330.1559999
21
-132.3539099
0
LINE
8
0
10
330.1559999
20
-132.3539099
11
328.2354111
21
-118.6882105
0
LINE
8
0
10
328.2354111
20
-118.6882105
11
314.5697117
21
-120.6087993
0
LINE
8
0
10
314.5697117
20
-120.6087993
11
316.4903005
21
-134.2744987
0
LINE
8
0
10
313.8460116
20
-115.4594054
11
327.511711
21
-113.5388166
0
LINE
8
0
10
327.511711
20
-113.5388166
11
325.5911222
21
-99.8731172
0
LINE
8
0
10
325.5911222
20
-99.8731172
11
311.9254228
21
-101.793706
0
LINE
8
0
10
311.9254228
20
-101.793706
11
313.8460116
21
-115.4594054
0
LINE
8
0
10
311.2017227
20
-96.6443121
11
324.8674221
21
-94.7237233
0
LINE
8
0
10
324.8674221
20
-94.7237233
11
322.9468333
21
-81.0580239
0
LINE
8
0
10
322.9468333
20
-81.0580239
11
309.2811339
21
-82.9786127
0
LINE
8
0
10
309.2811339
20
-82.9786127
11
311.2017227
21
-96.6443121
0
LINE
8
0
10
298.8581786
20
-145.3360662
11
312.523878
21
-143.4154774
0
LINE
8
0
10
312.523878
20
-143.4154774
11
310.6032892
21
-129.749778
0
LINE
8
0
10
310.6032892
20
-129.749778
11
296.9375898
21
-131.6703668
0
LINE
8
0
10
296.9375898
20
-131.6703668
11
298.8581786
21
-145.3360662
0
LINE
8
0
10
296.2138897
20
-126.5209729
11
309.8795891
21
-124.6003841
0
LINE
8
0
10
309.8795891
20
-124.6003841
11
307.9590003
21
-110.9346847
0
LINE
8
0
10
307.9590003
20
-110.9346847
11
294.2933009
21
-112.8552735
0
LINE
8
0
10
294.2933009
20
-112.8552735
11
296.2138897
21
-126.5209729
0
LINE
8
0
10
293.5696007
20
-107.7058796
11
307.2353001
21
-105.7852908
0
LINE
8
0
10
307.2353001
20
-105.7852908
11
305.3147113
21
-92.1195914
0
LINE
8
0
10
305.3147113
20
-92.1195914
11
291.6490119
21
-94.0401802
0
LINE
8
0
10
291.6490119
20
-94.0401802
11
293.5696007
21
-107.7058796
0
LINE
8
0
10
290.9253118
20
-88.8907863
11
304.5910112
21
-86.9701975
0
LINE
8
0
10
304.5910112
20
-86.9701975
11
302.6704224
21
-73.3044981
0
LINE
8
0
10
302.6704224
20
-73.3044981
11
289.004723
21
-75.2250869
0
LINE
8
0
10
289.004723
20
-75.2250869
11
290.9253118
21
-88.8907863
0
LINE
8
0
10
279.625566
20
-145.009551
11
293.2912654
21
-143.0889622
0
LINE
8
0
10
293.2912654
20
-143.0889622
11
291.3706766
21
-129.4232628
0
LINE
8
0
10
291.3706766
20
-129.4232628
11
277.7049772
21
-131.3438516
0
LINE
8
0
10
277.7049772
20
-131.3438516
11
279.625566
21
-145.009551
0
LINE
8
0
10
276.9812771
20
-126.1944577
11
290.6469765
21
-124.2738689
0
LINE
8
0
10
290.6469765
20
-124.2738689
11
288.7263877
21
-110.6081695
0
LINE
8
0
10
288.7263877
20
-110.6081695
11
275.0606883
21
-112.5287583
0
LINE
8
0
10
275.0606883
20
-112.5287583
11
276.9812771
21
-126.1944577
0
LINE
8
0
10
274.3369881
20
-107.3793643
11
288.0026875
21
-105.4587755
0
LINE
8
0
10
288.0026875
20
-105.4587755
11
286.0820987
21
-91.7930761
0
LINE
8
0
10
286.0820987
20
-91.7930761
11
272.4163993
21
-93.7136649
0
LINE
8
0
10
272.4163993
20
-93.7136649
11
274.3369881
21
-107.3793643
0
LINE
8
0
10
271.6926992
20
-88.564271
11
285.3583986
21
-86.6436822
0
LINE
8
0
10
285.3583986
20
-86.6436822
11
283.4378098
21
-72.9779828
0
LINE
8
0
10
283.4378098
20
-72.9779828
11
269.7721104
21
-74.8985716
0
LINE
8
0
10
269.7721104
20
-74.8985716
11
271.6926992
21
-88.564271
0
LINE
8
0
10
261.5063382
20
-152.6051802
11
275.1720376
21
-150.6845914
0
LINE
8
0
10
275.1720376
20
-150.6845914
11
273.2514488
21
-137.018892
0
LINE
8
0
10
273.2514488
20
-137.018892
11
259.5857494
21
-138.9394808
0
LINE
8
0
10
259.5857494
20
-138.9394808
11
261.5063382
21
-152.6051802
0
LINE
8
0
10
258.8620492
20
-133.7900869
11
272.5277486
21
-131.8694981
0
LINE
8
0
10
272.5277486
20
-131.8694981
11
270.6071598
21
-118.2037987
0
LINE
8
0
10
270.6071598
20
-118.2037987
11
256.9414604
21
-120.1243875
0
LINE
8
0
10
256.9414604
20
-120.1243875
11
258.8620492
21
-133.7900869
0
LINE
8
0
10
256.2177603
20
-114.9749936
11
269.8834597
21
-113.0544048
0
LINE
8
0
10
269.8834597
20
-113.0544048
11
267.9628709
21
-99.3887054
0
LINE
8
0
10
267.9628709
20
-99.3887054
11
254.2971715
21
-101.3092942
0
LINE
8
0
10
254.2971715
20
-101.3092942
11
256.2177603
21
-114.9749936
0
LINE
8
0
10
253.5734714
20
-96.1599003
11
267.2391708
21
-94.2393115
0
LINE
8
0
10
267.2391708
20
-94.2393115
11
265.318582
21
-80.5736121
0
LINE
8
0
10
265.318582
20
-80.5736121
11
251.6528826
21
-82.4942009
0
LINE
8
0
10
251.6528826
20
-82.4942009
11
253.5734714
21
-96.1599003
0
LINE
8
0
10
242.9000045
20
-156.7348712
11
256.5657039
21
-154.8142824
0
LINE
8
0
10
256.5657039
20
-154.8142824
11
254.6451151
21
-141.148583
0
LINE
8
0
10
254.6451151
20
-141.148583
11
240.9794157
21
-143.0691718
0
LINE
8
0
10
240.9794157
20
-143.0691718
11
242.9000045
21
-156.7348712
0
LINE
8
0
10
240.2557156
20
-137.9197779
11
253.921415
21
-135.9991891
0
LINE
8
0
10
253.921415
20
-135.9991891
11
252.0008262
21
-122.3334897
0
LINE
8
0
10
252.0008262
20
-122.3334897
11
238.3351268
21
-124.2540785
0
LINE
8
0
10
238.3351268
20
-124.2540785
11
240.2557156
21
-137.9197779
0
LINE
8
0
10
237.6114267
20
-119.1046846
11
251.2771261
21
-117.1840958
0
LINE
8
0
10
251.2771261
20
-117.1840958
11
249.3565373
21
-103.5183964
0
LINE
8
0
10
249.3565373
20
-103.5183964
11
235.6908379
21
-105.4389852
0
LINE
8
0
10
235.6908379
20
-105.4389852
11
237.6114267
21
-119.1046846
0
LINE
8
0
10
234.9671378
20
-100.2895913
11
248.6328372
21
-98.3690025
0
LINE
8
0
10
248.6328372
20
-98.3690025
11
246.7122484
21
-84.7033031
0
LINE
8
0
10
246.7122484
20
-84.7033031
11
233.046549
21
-86.6238919
0
LINE
8
0
10
233.046549
20
-86.6238919
11
234.9671378
21
-100.2895913
0
LINE
8
0
10
279.4709098
20
-164.4452216
11
290.4920799
21
-172.7502689
0
LINE
8
0
10
290.4920799
20
-172.7502689
11
298.7971272
21
-161.7290988
0
LINE
8
0
10
298.7971272
20
-161.7290988
11
287.7759571
21
-153.4240515
0
LINE
8
0
10
287.7759571
20
-153.4240515
11
279.4709098
21
-164.4452216
0
LINE
8
0
10
255.0388233
20
-174.8467376
11
268.7045227
21
-172.9261488
0
LINE
8
0
10
268.7045227
20
-172.9261488
11
266.7839339
21
-159.2604494
0
LINE
8
0
10
266.7839339
20
-159.2604494
11
253.1182345
21
-161.1810382
0
LINE
8
0
10
253.1182345
20
-161.1810382
11
255.0388233
21
-174.8467376
0
LINE
8
0
10
229.96861
20
-185.9161383
11
242.1532868
21
-179.4374307
0
LINE
8
0
10
242.1532868
20
-179.4374307
11
235.6745792
21
-167.2527539
0
LINE
8
0
10
235.6745792
20
-167.2527539
11
223.4899024
21
-173.7314615
0
LINE
8
0
10
223.4899024
20
-173.7314615
11
229.96861
21
-185.9161383
0
ENDSEC
0
EOF