0
SECTION
2
HEADER
9
$INSUNITS
70
4
0
ENDSEC
0
SECTION
2
TABLES
0
TABLE
2
LTYPE
0
LTYPE
72
65
70
64
2
CONTINUOUS
3
______
73
0
40
0
0
ENDTAB
0
TABLE
2
LAYER
0
ENDTAB
0
ENDSEC
0
SECTION
2
ENTITIES
0
LINE
8
0
10
72.8489016
20
-131.9224679
11
91.6639949
21
-134.5667568
0
LINE
8
0
10
72.8489016
20
-131.9224679
11
80.7817683
21
-75.477188
0
LINE
8
0
10
80.7817683
20
-75.477188
11
118.4119549
21
-80.7657658
0
LINE
8
0
10
89.019706
20
-153.3818502
11
107.8347993
21
-156.0261391
0
LINE
8
0
10
107.8347993
20
-156.0261391
11
109.2961168
21
-145.6283243
0
LINE
8
0
10
91.6639949
20
-134.5667569
11
89.019706
21
-153.3818502
0
LINE
8
0
10
109.2961168
20
-145.6283243
11
128.1112101
21
-148.2726132
0
LINE
8
0
10
128.1112101
20
-148.2726132
11
128.5287294
21
-145.3018091
0
LINE
8
0
10
138.6883658
20
-73.01224
11
119.8732725
21
-70.3679511
0
LINE
8
0
10
119.8732725
20
-70.3679511
11
118.4119549
21
-80.7657658
0
LINE
8
0
10
128.5287294
20
-145.3018091
11
141.0952027
21
-147.0679117
0
LINE
8
0
10
157.2251129
20
-77.6370651
11
157.9209784
21
-72.6857247
0
LINE
8
0
10
157.9209784
20
-72.6857247
11
139.1058851
21
-70.0414358
0
LINE
8
0
10
139.1058851
20
-70.0414358
11
138.6883658
21
-73.01224
0
LINE
8
0
10
175.8314465
20
-81.7667561
11
176.0402062
21
-80.281354
0
LINE
8
0
10
176.0402062
20
-80.281354
11
157.2251129
21
-77.6370651
0
LINE
8
0
10
183.811584
20
-161.5057618
11
194.6465398
21
-84.411045
0
LINE
8
0
10
194.6465398
20
-84.411045
11
175.8314465
21
-81.7667561
0
LINE
8
0
10
333.0925469
20
-134.5667568
11
351.9076402
21
-131.9224679
0
LINE
8
0
10
343.9747735
20
-75.477188
11
351.9076402
21
-131.9224679
0
LINE
8
0
10
306.3445869
20
-80.7657658
11
343.9747735
21
-75.477188
0
LINE
8
0
10
316.9217425
20
-156.0261391
11
335.7368358
21
-153.3818502
0
LINE
8
0
10
335.7368358
20
-153.3818502
11
333.0925469
21
-134.5667569
0
LINE
8
0
10
315.460425
20
-145.6283243
11
316.9217425
21
-156.0261391
0
LINE
8
0
10
296.6453317
20
-148.2726132
11
315.460425
21
-145.6283243
0
LINE
8
0
10
296.2278124
20
-145.3018091
11
296.6453317
21
-148.2726132
0
LINE
8
0
10
306.3445869
20
-80.7657658
11
304.8832693
21
-70.3679511
0
LINE
8
0
10
304.8832693
20
-70.3679511
11
286.068176
21
-73.01224
0
LINE
8
0
10
283.6613391
20
-147.0679117
11
296.2278124
21
-145.3018091
0
LINE
8
0
10
286.068176
20
-73.01224
11
285.6506567
21
-70.0414358
0
LINE
8
0
10
285.6506567
20
-70.0414358
11
266.8355634
21
-72.6857247
0
LINE
8
0
10
266.8355634
20
-72.6857247
11
267.5314289
21
-77.6370651
0
LINE
8
0
10
267.5314289
20
-77.6370651
11
248.7163356
21
-80.281354
0
LINE
8
0
10
248.7163356
20
-80.281354
11
248.9250953
21
-81.7667561
0
LINE
8
0
10
230.110002
20
-84.411045
11
240.9449578
21
-161.5057618
0
LINE
8
0
10
248.9250953
20
-81.7667561
11
230.110002
21
-84.411045
0
LINE
8
0
10
174.3028465
20
-177.9687074
11
197.95997
21
-190.5474231
0
LINE
8
0
10
197.95997
20
-190.5474231
11
206.8799297
21
-173.7714188
0
LINE
8
0
10
206.8799297
20
-173.7714188
11
183.811584
21
-161.5057618
0
LINE
8
0
10
226.7965718
20
-190.5474231
11
250.4536953
21
-177.9687074
0
LINE
8
0
10
240.9449578
20
-161.5057618
11
217.8766121
21
-173.7714188
0
LINE
8
0
10
217.8766121
20
-173.7714188
11
226.7965718
21
-190.5474231
0
LINE
8
0
10
150.7635855
20
-174.8084596
11
174.2824521
21
-178.1138207
0
LINE
8
0
10
174.2824521
20
-178.1138207
11
174.3028465
21
-177.9687074
0
LINE
8
0
10
152.5296881
20
-162.2419865
11
150.7635855
21
-174.8084596
0
LINE
8
0
10
250.4740897
20
-178.1138207
11
273.9929563
21
-174.8084596
0
LINE
8
0
10
273.9929563
20
-174.8084596
11
272.2268537
21
-162.2419865
0
LINE
8
0
10
250.4536953
20
-177.9687074
11
250.4740897
21
-178.1138207
0
LINE
8
0
10
131.8559694
20
-177.820751
11
152.5296881
21
-162.2419865
0
LINE
8
0
10
141.0952027
20
-147.0679117
11
120.4214839
21
-162.6466763
0
LINE
8
0
10
120.4214839
20
-162.6466763
11
131.8559694
21
-177.820751
0
LINE
8
0
10
272.2268537
20
-162.2419865
11
292.9005724
21
-177.820751
0
LINE
8
0
10
292.9005724
20
-177.820751
11
304.3350579
21
-162.6466763
0
LINE
8
0
10
304.3350579
20
-162.6466763
11
283.6613391
21
-147.0679117
0
ENDSEC
0
EOF