0
SECTION
2
HEADER
9
$INSUNITS
70
4
0
ENDSEC
0
SECTION
2
TABLES
0
TABLE
2
LTYPE
0
LTYPE
72
65
70
64
2
CONTINUOUS
3
______
73
0
40
0
0
ENDTAB
0
TABLE
2
LAYER
0
ENDTAB
0
ENDSEC
0
SECTION
2
ENTITIES
0
LINE
8
0
10
281.0227501
20
-195.352412
11
143.7337917
21
-195.352412
0
ARC
8
0
10
143.7337917
20
-188.852412
40
6.5
50
234.8979117
51
270
0
LINE
8
0
10
139.9960638
20
-194.170249
11
86.6558226
21
-156.6791964
0
ARC
8
0
10
90.3931024
20
-151.3610446
40
6.5
50
216.9999993
51
234.8979117
0
LINE
8
0
10
85.2019715
20
-155.2728422
11
70.7514098
21
-136.096299
0
ARC
8
0
10
75.9425406
20
-132.1845014
40
6.5
50
172.0000003
51
216.9944942
0
LINE
8
0
10
69.5057982
20
-131.2798762
11
77.1496226
21
-76.891239
0
ARC
8
0
10
83.5863651
20
-77.7958642
40
6.5
50
97.4463168
51
172.0000003
0
LINE
8
0
10
82.7439833
20
-71.3506805
11
117.7814119
21
-66.7713089
0
ARC
8
0
10
118.6237937
20
-73.2164926
40
6.5
50
90.9726254
51
97.4463168
0
LINE
8
0
10
118.5134581
20
-66.7174291
11
137.0710928
21
-66.402373
0
ARC
8
0
10
137.1814284
20
-72.9014365
40
6.5
50
82.0000003
51
90.9726254
0
LINE
8
0
10
138.0860535
20
-66.4646941
11
159.855259
21
-69.5241564
0
ARC
8
0
10
158.9506339
20
-75.9608988
40
6.5
50
72.2933463
51
82.0000003
0
LINE
8
0
10
160.9275679
20
-69.7688287
11
196.5067818
21
-81.1281562
0
ARC
8
0
10
197.5712847
20
-77.7939646
40
3.5
50
252.2933463
51
270
0
LINE
8
0
10
197.5712847
20
-81.2939646
11
227.1852571
21
-81.2939646
0
ARC
8
0
10
227.1852571
20
-77.7939646
40
3.5
50
270
51
287.7066537
0
LINE
8
0
10
228.24976
20
-81.1281562
11
263.8289739
21
-69.7688288
0
ARC
8
0
10
265.8059079
20
-75.9608988
40
6.5
50
97.9999997
51
107.7066537
0
LINE
8
0
10
264.9012827
20
-69.5241564
11
286.6704883
21
-66.4646941
0
ARC
8
0
10
287.5751134
20
-72.9014365
40
6.5
50
89.0273746
51
97.9999997
0
LINE
8
0
10
287.685449
20
-66.402373
11
306.2430837
21
-66.7174291
0
ARC
8
0
10
306.1327481
20
-73.2164926
40
6.5
50
82.5536832
51
89.0273746
0
LINE
8
0
10
306.9751299
20
-66.7713089
11
342.0125585
21
-71.3506805
0
ARC
8
0
10
341.1701767
20
-77.7958642
40
6.5
50
7.9999997
51
82.5536832
0
LINE
8
0
10
347.6069191
20
-76.891239
11
355.2507436
21
-131.2798763
0
ARC
8
0
10
348.8140012
20
-132.1845014
40
6.5
50
323.0000007
51
367.9999997
0
LINE
8
0
10
354.0051321
20
-136.096299
11
339.5545703
21
-155.2728422
0
ARC
8
0
10
334.3634394
20
-151.3610446
40
6.5
50
305.1020883
51
323.0000007
0
LINE
8
0
10
338.1011673
20
-156.6788816
11
284.760478
21
-194.170249
0
ARC
8
0
10
281.0227501
20
-188.852412
40
6.5
50
270
51
305.1020883
0
ENDSEC
0
EOF