0
SECTION
2
HEADER
9
$INSUNITS
70
4
0
ENDSEC
0
SECTION
2
TABLES
0
TABLE
2
LTYPE
0
LTYPE
72
65
70
64
2
CONTINUOUS
3
______
73
0
40
0
0
ENDTAB
0
TABLE
2
LAYER
0
ENDTAB
0
ENDSEC
0
SECTION
2
ENTITIES
0
LINE
8
0
10
281.0227501
20
-194.852412
11
143.7337917
21
-194.852412
0
ARC
8
0
10
143.7337917
20
-188.852412
40
6
50
234.8979117
51
270
0
LINE
8
0
10
140.2835813
20
-193.7611846
11
86.942892
21
-156.2698172
0
ARC
8
0
10
90.3931024
20
-151.3610446
40
6
50
216.9999993
51
234.8979117
0
LINE
8
0
10
85.6012893
20
-154.9719347
11
71.1507275
21
-135.7953915
0
ARC
8
0
10
75.9425406
20
-132.1845014
40
6
50
172.0000003
51
216.9953211
0
LINE
8
0
10
70.0009322
20
-131.3494628
11
77.6447567
21
-76.9608256
0
ARC
8
0
10
83.5863651
20
-77.7958642
40
6
50
97.4463168
51
172.0000003
0
LINE
8
0
10
82.8087819
20
-71.8464639
11
117.8462105
21
-67.2670923
0
ARC
8
0
10
118.6237937
20
-73.2164926
40
6
50
90.9726254
51
97.4463168
0
LINE
8
0
10
118.5219455
20
-67.2173571
11
137.0795802
21
-66.902301
0
ARC
8
0
10
137.1814284
20
-72.9014365
40
6
50
82.0000003
51
90.9726254
0
LINE
8
0
10
138.0164669
20
-66.9598281
11
159.7856725
21
-70.0192905
0
ARC
8
0
10
158.9506339
20
-75.9608988
40
6
50
72.2933463
51
82.0000003
0
LINE
8
0
10
160.7754961
20
-70.2451418
11
196.35471
21
-81.6044693
0
ARC
8
0
10
197.5712847
20
-77.7939646
40
4
50
252.2933463
51
270
0
LINE
8
0
10
197.5712847
20
-81.7939646
11
227.1852571
21
-81.7939646
0
ARC
8
0
10
227.1852571
20
-77.7939646
40
4
50
270
51
287.7066537
0
LINE
8
0
10
228.4018318
20
-81.6044693
11
263.9810457
21
-70.2451418
0
ARC
8
0
10
265.8059079
20
-75.9608988
40
6
50
97.9999997
51
107.7066537
0
LINE
8
0
10
264.9708693
20
-70.0192904
11
286.7400749
21
-66.9598281
0
ARC
8
0
10
287.5751134
20
-72.9014365
40
6
50
89.0273746
51
97.9999997
0
LINE
8
0
10
287.6769616
20
-66.902301
11
306.2345963
21
-67.2173571
0
ARC
8
0
10
306.1327481
20
-73.2164926
40
6
50
82.5536832
51
89.0273746
0
LINE
8
0
10
306.9103313
20
-67.2670923
11
341.9477599
21
-71.8464638
0
ARC
8
0
10
341.1701767
20
-77.7958642
40
6
50
7.9999997
51
82.5536832
0
LINE
8
0
10
347.1117851
20
-76.9608256
11
354.7556095
21
-131.3494628
0
ARC
8
0
10
348.8140012
20
-132.1845014
40
6
50
323.0000007
51
367.9999997
0
LINE
8
0
10
353.6058143
20
-135.7953915
11
339.1552526
21
-154.9719347
0
ARC
8
0
10
334.3634394
20
-151.3610446
40
6
50
305.1020883
51
323.0000007
0
LINE
8
0
10
337.8136498
20
-156.2698172
11
284.4729605
21
-193.7611846
0
ARC
8
0
10
281.0227501
20
-188.852412
40
6
50
270
51
305.1020883
0
ENDSEC
0
EOF