<?xml version="1.0" standalone="no"?>
 <!DOCTYPE svg PUBLIC "-//W3C//DTD SVG 1.1//EN" 
 "http://www.w3.org/Graphics/SVG/1.1/DTD/svg11.dtd"> 
<svg
  xmlns:svg="http://www.w3.org/2000/svg"
  xmlns="http://www.w3.org/2000/svg"
  xmlns:xlink="http://www.w3.org/1999/xlink"
  version="1.1"
  width="30.284420cm" height="14.160500cm" viewBox="0 0 302844200 141605000">
<title>SVG Picture created as shockboard-User_Drawings.svg date 2022/10/03 22:14:10 </title>
  <desc>Picture generated by PCBNEW </desc>
<g style="fill:#000000; fill-opacity:1.000000;stroke:#000000; stroke-opacity:1.000000;
stroke-linecap:round; stroke-linejoin:round;"
 transform="translate(0 0) scale(1 1)">
</g>
<g style="fill:#000000; fill-opacity:0.0; 
stroke:#000000; stroke-width:0.000000; stroke-opacity:1; 
stroke-linecap:round; stroke-linejoin:round;">
</g>
<g style="fill:#000000; fill-opacity:0.0; 
stroke:#000000; stroke-width:200000.000000; stroke-opacity:1; 
stroke-linecap:round; stroke-linejoin:round;">
<path d="M282220381 100148
L20726751 100255
" />
<path d="M150700398.003793 141442741.978490 A4196353.000000 4196353.000000 0.0 0 0 152157775.996207 141442741.978490" />
<path d="M160024808 122763650
L170510188 132040331
" />
<path d="M170510188 132040331
L179786868 121554951
" />
<path d="M177625291 105397851
L185147486 117205332
" />
<path d="M189432772 97875657
L177625291 105397851
" />
<path d="M201347230 93762876
L203295653 107626629
" />
<path d="M215210983 91814453
L201347230 93762876
" />
<path d="M203295653 107626629
L217159406 105678206
" />
<path d="M229644140 89786005
L231592563 103649758
" />
<path d="M185848174 18689317
L171984421 20637740
" />
<path d="M173932845 34501493
L187796598 32553070
" />
<path d="M174628710 39452834
L176577134 53316587
" />
<path d="M188492463 37504410
L174628710 39452834
" />
<path d="M190440887 51368163
L188492463 37504410
" />
<path d="M176577134 53316587
L190440887 51368163
" />
<path d="M177272999 58267927
L179221422 72131680
" />
<path d="M193085175 70183257
L191136752 56319504
" />
<path d="M179221422 72131680
L193085175 70183257
" />
<path d="M195729464 88998350
L193781041 75134597
" />
<path d="M181865711 90946773
L195729464 88998350
" />
<path d="M243507893 87837581
L229644140 89786005
" />
<path d="M204454508 14559626
L190590755 16508049
" />
<path d="M192539178 30371802
L206402931 28423379
" />
<path d="M193235044 35323143
L195183467 49186896
" />
<path d="M207098797 33374719
L193235044 35323143
" />
<path d="M195183467 49186896
L209047220 47238472
" />
<path d="M209743086 52189813
L195879333 54138236
" />
<path d="M198523622 72953329
L200472045 86817082
" />
<path d="M200472045 86817082
L214335798 84868659
" />
<path d="M224522159 20827750
L222573736 6963997
" />
<path d="M210658406 22776173
L224522159 20827750
" />
<path d="M211354272 27727513
L213302695 41591266
" />
<path d="M206402931 28423379
L204454508 14559626
" />
<path d="M227166448 39642843
L225218025 25779090
" />
<path d="M209047220 47238472
L207098797 33374719
" />
<path d="M215946984 60406360
L229810737 58457936
" />
<path d="M216642849 65357700
L218591273 79221453
" />
<path d="M227942595 9238935
L229891019 23102688
" />
<path d="M241806348 7290512
L227942595 9238935
" />
<path d="M229891019 23102688
L243754772 21154265
" />
<path d="M230586884 28054029
L232535308 41917782
" />
<path d="M244450637 26105605
L230586884 28054029
" />
<path d="M251687638 77599545
L249739215 63735792
" />
<path d="M262082759 15044038
L248219006 16992461
" />
<path d="M264031183 28907791
L262082759 15044038
" />
<path d="M250167430 30856214
L264031183 28907791
" />
<path d="M266675472 47722884
L264727048 33859131
" />
<path d="M252811719 49671307
L266675472 47722884
" />
<path d="M269319760 66537977
L267371337 52674224
" />
<path d="M255456007 68486401
L269319760 66537977
" />
<path d="M256151873 73437741
L258100296 87301494
" />
<path d="M267034099 14348172
L268982523 28211925
" />
<path d="M282846276 26263502
L280897852 12399749
" />
<path d="M268982523 28211925
L282846276 26263502
" />
<path d="M269678388 33163266
L271626812 47027019
" />
<path d="M232535308 41917782
L246399061 39969358
" />
<path d="M249043350 58784452
L247094926 44920699
" />
<path d="M271626812 47027019
L285490565 45078595
" />
<path d="M272322677 51978359
L274271101 65842112
" />
<path d="M286186430 50029935
L272322677 51978359
" />
<path d="M288134854 63893688
L286186430 50029935
" />
<path d="M193781041 75134597
L179917288 77083020
" />
<path d="M213998561 46542607
L215946984 60406360
" />
<path d="M288830719 68845029
L274966966 70793452
" />
<path d="M59103403 21154265
L72967156 23102688
" />
<path d="M235179597 60732875
L249043350 58784452
" />
<path d="M74995861 44594183
L73047438 58457936
" />
<path d="M53814825 58784452
L67678578 60732875
" />
<path d="M77640150 25779090
L75691726 39642843
" />
<path d="M51170536 77599545
L65034289 79547968
" />
<path d="M185147486 117205332
L196954966 109683137
" />
<path d="M40775415 15044038
L38826992 28907791
" />
<path d="M237823885 79547968
L251687638 77599545
" />
<path d="M270015626 71489318
L256151873 73437741
" />
<path d="M96455243 28423379
L110318996 30371802
" />
<path d="M38131126 33859131
L36182703 47722884
" />
<path d="M72271290 28054029
L58407537 26105605
" />
<path d="M112417288 51368163
L126281041 53316587
" />
<path d="M87647192 91814453
L85698768 105678206
" />
<path d="M36182703 47722884
L50046456 49671307
" />
<path d="M54639168 16992461
L40775415 15044038
" />
<path d="M53118959 63735792
L51170536 77599545
" />
<path d="M285490565 45078595
L283542141 31214842
" />
<path d="M35486837 52674224
L33538414 66537977
" />
<path d="M102386129 86817082
L104334553 72953329
" />
<path d="M130873753 20637740
L117010000 18689317
" />
<path d="M190590755 16508049
L192539178 30371802
" />
<path d="M46706302 73437741
L32842549 71489318
" />
<path d="M208709983 8912420
L210658406 22776173
" />
<path d="M27891208 70793452
L14027455 68845029
" />
<path d="M211691509 66053566
L209743086 52189813
" />
<path d="M52690745 30856214
L54639168 16992461
" />
<path d="M197827756 68001989
L211691509 66053566
" />
<path d="M258100296 87301494
L271964049 85353071
" />
<path d="M274271101 65842112
L288134854 63893688
" />
<path d="M123636752 72131680
L125585175 58267927
" />
<path d="M44757878 87301494
L46706302 73437741
" />
<path d="M30894125 85353071
L44757878 87301494
" />
<path d="M67678578 60732875
L69627001 46869122
" />
<path d="M287133274.917598 4404133.043963 A5000017.000000 5000017.000000 0.0 0 0 282220381.000565 100147.926542" />
<path d="M196954966 109683137
L189432772 97875657
" />
<path d="M58407537 26105605
L56459114 39969358
" />
<path d="M93810954 47238472
L107674707 49186896
" />
<path d="M86215325 65357700
L72351572 63409277
" />
<path d="M55763248 44920699
L53814825 58784452
" />
<path d="M248219006 16992461
L250167430 30856214
" />
<path d="M33179786 33163266
L19316033 31214842
" />
<path d="M230506602 63409277
L216642849 65357700
" />
<path d="M152157776 141442742
L298454039 120882143
" />
<path d="M171984421 20637740
L173932845 34501493
" />
<path d="M85698768 105678206
L99562521 107626629
" />
<path d="M32842549 71489318
L30894125 85353071
" />
<path d="M25942785 84657205
L27891208 70793452
" />
<path d="M16671744 50029935
L14723321 63893688
" />
<path d="M187796598 32553070
L185848174 18689317
" />
<path d="M264727048 33859131
L250863295 35807554
" />
<path d="M50046456 49671307
L51994879 35807554
" />
<path d="M31231363 47027019
L33179786 33163266
" />
<path d="M117010000 18689317
L115061577 32553070
" />
<path d="M33875652 28211925
L35824075 14348172
" />
<path d="M113425403 97875657
L105903208 109683137
" />
<path d="M212387375 71004906
L198523622 72953329
" />
<path d="M20726750.999988 100255.001203 A5000000.000000 5000000.000000 0.0 0 0 15724913.593379 4404134.942853" />
<path d="M280897852 12399749
L267034099 14348172
" />
<path d="M4404135 120882143
L150700398 141442742
" />
<path d="M19316033 31214842
L17367610 45078595
" />
<path d="M75691726 39642843
L89555479 41591266
" />
<path d="M91166665 66053566
L105030418 68001989
" />
<path d="M235875462 65684215
L237823885 79547968
" />
<path d="M14027455 68845029
L12079032 82708782
" />
<path d="M169301488 112278270
L160024808 122763650
" />
<path d="M14723321 63893688
L28587074 65842112
" />
<path d="M250863295 35807554
L252811719 49671307
" />
<path d="M12079032 82708782
L25942785 84657205
" />
<path d="M243754772 21154265
L241806348 7290512
" />
<path d="M290779143 82708782
L288830719 68845029
" />
<path d="M66982712 65684215
L53118959 63735792
" />
<path d="M98403667 14559626
L96455243 28423379
" />
<path d="M222573736 6963997
L208709983 8912420
" />
<path d="M298454035.754149 120882119.903097 A4999956.000000 4999956.000000 0.0 0 0 302709513.876522 115234937.017354" />
<path d="M101510945 93762876
L87647192 91814453
" />
<path d="M28587074 65842112
L30535497 51978359
" />
<path d="M74915579 9238935
L61051826 7290512
" />
<path d="M70322867 41917782
L72271290 28054029
" />
<path d="M229810737 58457936
L227862314 44594183
" />
<path d="M218591273 79221453
L232455026 77273030
" />
<path d="M33538414 66537977
L47402167 68486401
" />
<path d="M80284439 6963997
L78336015 20827750
" />
<path d="M274966966 70793452
L276915390 84657205
" />
<path d="M20011899 26263502
L33875652 28211925
" />
<path d="M15724914 4404135
L148660 115234937
" />
<path d="M30535497 51978359
L16671744 50029935
" />
<path d="M246399061 39969358
L244450637 26105605
" />
<path d="M65034289 79547968
L66982712 65684215
" />
<path d="M21960322 12399749
L20011899 26263502
" />
<path d="M110318996 30371802
L112267420 16508049
" />
<path d="M61051826 7290512
L59103403 21154265
" />
<path d="M78336015 20827750
L92199768 22776173
" />
<path d="M217159406 105678206
L215210983 91814453
" />
<path d="M302709514 115234937
L287133261 4404135
" />
<path d="M70403149 77273030
L84266902 79221453
" />
<path d="M253507584 54622648
L255456007 68486401
" />
<path d="M104334553 72953329
L90470800 71004906
" />
<path d="M249739215 63735792
L235875462 65684215
" />
<path d="M51994879 35807554
L38131126 33859131
" />
<path d="M84266902 79221453
L86215325 65357700
" />
<path d="M267371337 52674224
L253507584 54622648
" />
<path d="M112267420 16508049
L98403667 14559626
" />
<path d="M179786868 121554951
L169301488 112278270
" />
<path d="M73047438 58457936
L86911190 60406360
" />
<path d="M88859614 46542607
L74995861 44594183
" />
<path d="M86911190 60406360
L88859614 46542607
" />
<path d="M89555479 41591266
L91503903 27727513
" />
<path d="M91503903 27727513
L77640150 25779090
" />
<path d="M225218025 25779090
L211354272 27727513
" />
<path d="M233231173 46869122
L235179597 60732875
" />
<path d="M92199768 22776173
L94148192 8912420
" />
<path d="M94148192 8912420
L80284439 6963997
" />
<path d="M88522376 84868659
L102386129 86817082
" />
<path d="M90470800 71004906
L88522376 84868659
" />
<path d="M105030418 68001989
L106978842 54138236
" />
<path d="M195879333 54138236
L197827756 68001989
" />
<path d="M213302695 41591266
L227166448 39642843
" />
<path d="M106978842 54138236
L93115089 52189813
" />
<path d="M191136752 56319504
L177272999 58267927
" />
<path d="M109623131 35323143
L95759378 33374719
" />
<path d="M95759378 33374719
L93810954 47238472
" />
<path d="M247094926 44920699
L233231173 46869122
" />
<path d="M107128710 88998350
L120992463 90946773
" />
<path d="M99562521 107626629
L101510945 93762876
" />
<path d="M120992463 90946773
L122940886 77083020
" />
<path d="M122940886 77083020
L109077133 75134597
" />
<path d="M109077133 75134597
L107128710 88998350
" />
<path d="M179917288 77083020
L181865711 90946773
" />
<path d="M35824075 14348172
L21960322 12399749
" />
<path d="M17367610 45078595
L31231363 47027019
" />
<path d="M109772999 70183257
L123636752 72131680
" />
<path d="M125585175 58267927
L111721422 56319504
" />
<path d="M214335798 84868659
L212387375 71004906
" />
<path d="M69627001 46869122
L55763248 44920699
" />
<path d="M111721422 56319504
L109772999 70183257
" />
<path d="M49350590 54622648
L35486837 52674224
" />
<path d="M59350281 87837581
L57401858 101701334
" />
<path d="M126281041 53316587
L128229464 39452834
" />
<path d="M128229464 39452834
L114365711 37504410
" />
<path d="M245456316 101701334
L243507893 87837581
" />
<path d="M231592563 103649758
L245456316 101701334
" />
<path d="M72967156 23102688
L74915579 9238935
" />
<path d="M115061577 32553070
L128925330 34501493
" />
<path d="M128925330 34501493
L130873753 20637740
" />
<path d="M271964049 85353071
L270015626 71489318
" />
<path d="M107674707 49186896
L109623131 35323143
" />
<path d="M56459114 39969358
L70322867 41917782
" />
<path d="M57401858 101701334
L71265611 103649758
" />
<path d="M72351572 63409277
L70403149 77273030
" />
<path d="M71265611 103649758
L73214034 89786005
" />
<path d="M283542141 31214842
L269678388 33163266
" />
<path d="M73214034 89786005
L59350281 87837581
" />
<path d="M93115089 52189813
L91166665 66053566
" />
<path d="M125232883 105397851
L113425403 97875657
" />
<path d="M114365711 37504410
L112417288 51368163
" />
<path d="M105903208 109683137
L117710689 117205332
" />
<path d="M227862314 44594183
L213998561 46542607
" />
<path d="M38826992 28907791
L52690745 30856214
" />
<path d="M117710689 117205332
L125232883 105397851
" />
<path d="M123071306 121554951
L132347987 132040331
" />
<path d="M232455026 77273030
L230506602 63409277
" />
<path d="M132347987 132040331
L142833367 122763650
" />
<path d="M148659.731197 115234936.962222 A5000000.000000 5000000.000000 0.0 0 0 4404134.942853 120882143.406621" />
<path d="M142833367 122763650
L133556686 112278270
" />
<path d="M133556686 112278270
L123071306 121554951
" />
<path d="M47402167 68486401
L49350590 54622648
" />
<path d="M276915390 84657205
L290779143 82708782
" />
<g >
</g>
<g >
</g>
<g >
</g>
</g>
<g style="fill:#000000; fill-opacity:0.0; 
stroke:#000000; stroke-width:200000.000000; stroke-opacity:1; 
stroke-linecap:round; stroke-linejoin:round;">
<g >
</g>
<g >
</g>
<g >
</g>
</g> 
</svg>
