999
DXF from OpenSCAD
  0
SECTION
  2
HEADER
  9
$ACADVER
  1
AC1006
  9
$INSBASE
 10
0.0
 20
0.0
 30
0.0
  9
$EXTMIN
 10
-36.2755
 20
3.68387
  9
$EXTMAX
 10
36.2718
 20
43.4651
  9
$LINMIN
 10
-36.2755
 20
3.68387
  9
$LINMAX
 10
36.2718
 20
43.4651
  0
ENDSEC
  0
SECTION
  2
TABLES
  0
TABLE
  2
LTYPE
 70
1
  0
LTYPE
  2
CONTINUOUS
 70
64
  3
Solid line
 72
65
 73
0
 40
0.000000
  0
ENDTAB
  0
TABLE
  2
LAYER
 70
6
  0
LAYER
  2
0
 70
64
 62
7
  6
CONTINUOUS
  0
ENDTAB
  0
TABLE
  2
STYLE
 70
0
  0
ENDTAB
  0
ENDSEC
  0
SECTION
  2
BLOCKS
  0
ENDSEC
  0
SECTION
  2
ENTITIES
  0
LWPOLYLINE
100
AcDbEntity
  8
0
100
AcDbPolyline
 90
78
 70
1
 10
-32.66
 20
10.58
 10
-11.78
 20
10.58
 10
-11.78
 20
3.68387
 10
35.1839
 20
3.68387
 10
35.2815
 20
3.6883
 10
35.3784
 20
3.70154
 10
35.4736
 20
3.72351
 10
35.5666
 20
3.75401
 10
35.6564
 20
3.7928
 10
35.7425
 20
3.83957
 10
35.824
 20
3.89395
 10
35.9004
 20
3.95549
 10
35.971
 20
4.0237
 10
36.0353
 20
4.09803
 10
36.0928
 20
4.17788
 10
36.1429
 20
4.26261
 10
36.1853
 20
4.35154
 10
36.2196
 20
4.44395
 10
36.2456
 20
4.53909
 10
36.2631
 20
4.63621
 10
36.2718
 20
4.73452
 10
36.2718
 20
4.83322
 10
36.2631
 20
4.93152
 10
36.2406
 20
5.04997
 10
26.9648
 20
42.6312
 10
26.9369
 20
42.7258
 10
26.9008
 20
42.8175
 10
26.8566
 20
42.9056
 10
26.8048
 20
42.9893
 10
26.7458
 20
43.068
 10
26.6801
 20
43.141
 10
26.6081
 20
43.2078
 10
26.5305
 20
43.2677
 10
26.4479
 20
43.3205
 10
26.361
 20
43.3655
 10
26.2704
 20
43.4025
 10
26.1769
 20
43.4311
 10
26.0812
 20
43.4511
 10
25.9841
 20
43.4624
 10
25.9081
 20
43.4651
 10
-25.9102
 20
43.4651
 10
-26.0078
 20
43.4607
 10
-26.1046
 20
43.4474
 10
-26.1999
 20
43.4255
 10
-26.2928
 20
43.395
 10
-26.3827
 20
43.3562
 10
-26.4687
 20
43.3094
 10
-26.5503
 20
43.255
 10
-26.6267
 20
43.1935
 10
-26.6973
 20
43.1253
 10
-26.7616
 20
43.051
 10
-26.819
 20
42.9711
 10
-26.8691
 20
42.8864
 10
-26.9115
 20
42.7974
 10
-26.9459
 20
42.705
 10
-26.9668
 20
42.6312
 10
-36.2435
 20
5.04999
 10
-36.2629
 20
4.95325
 10
-36.2736
 20
4.85514
 10
-36.2755
 20
4.75645
 10
-36.2687
 20
4.65799
 10
-36.2532
 20
4.56054
 10
-36.2291
 20
4.46489
 10
-36.1966
 20
4.37181
 10
-36.1559
 20
4.28204
 10
-36.1075
 20
4.19632
 10
-36.0517
 20
4.11533
 10
-35.9888
 20
4.03971
 10
-35.9196
 20
3.97009
 10
-35.8444
 20
3.90703
 10
-35.764
 20
3.85102
 10
-35.6788
 20
3.80252
 10
-35.5898
 20
3.76193
 10
-35.4975
 20
3.72956
 10
-35.4027
 20
3.70568
 10
-35.3061
 20
3.69048
 10
-35.1869
 20
3.68387
 10
-32.66
 20
3.68387
  0
LWPOLYLINE
100
AcDbEntity
  8
0
100
AcDbPolyline
 90
76
 70
1
 10
-23.1211
 20
31.4798
 10
-23.2198
 20
31.4915
 10
-23.3174
 20
31.512
 10
-23.4121
 20
31.5403
 10
-23.5049
 20
31.5764
 10
-23.5938
 20
31.6194
 10
-23.6787
 20
31.6702
 10
-23.7598
 20
31.7278
 10
-23.835
 20
31.7923
 10
-23.9053
 20
31.8626
 10
-23.9698
 20
31.9378
 10
-24.0274
 20
32.0188
 10
-24.0782
 20
32.1038
 10
-24.1211
 20
32.1936
 10
-24.1573
 20
32.2854
 10
-24.1856
 20
32.3811
 10
-24.2061
 20
32.4778
 10
-24.2188
 20
32.5764
 10
-24.2227
 20
32.6751
 10
-24.2188
 20
32.7747
 10
-24.2061
 20
32.8723
 10
-24.1856
 20
32.97
 10
-24.1573
 20
33.0647
 10
-24.1211
 20
33.1575
 10
-24.0782
 20
33.2464
 10
-24.0274
 20
33.3313
 10
-23.9698
 20
33.4124
 10
-23.9053
 20
33.4876
 10
-23.835
 20
33.5579
 10
-23.7598
 20
33.6223
 10
-23.6787
 20
33.68
 10
-23.5938
 20
33.7307
 10
-23.5049
 20
33.7737
 10
-23.4121
 20
33.8098
 10
-23.3174
 20
33.8382
 10
-23.2198
 20
33.8587
 10
-23.1211
 20
33.8714
 10
-23.0225
 20
33.8753
 10
-22.9229
 20
33.8714
 10
-22.8252
 20
33.8587
 10
-22.7276
 20
33.8382
 10
-22.6329
 20
33.8098
 10
-22.5401
 20
33.7737
 10
-22.4512
 20
33.7307
 10
-22.3662
 20
33.68
 10
-22.2852
 20
33.6223
 10
-22.21
 20
33.5579
 10
-22.1397
 20
33.4876
 10
-22.0752
 20
33.4124
 10
-22.0176
 20
33.3313
 10
-21.9668
 20
33.2464
 10
-21.9239
 20
33.1575
 10
-21.8877
 20
33.0647
 10
-21.8594
 20
32.97
 10
-21.8389
 20
32.8723
 10
-21.8262
 20
32.7747
 10
-21.8223
 20
32.6751
 10
-21.8262
 20
32.5764
 10
-21.8389
 20
32.4778
 10
-21.8594
 20
32.3811
 10
-21.8877
 20
32.2854
 10
-21.9239
 20
32.1936
 10
-21.9668
 20
32.1038
 10
-22.0176
 20
32.0188
 10
-22.0752
 20
31.9378
 10
-22.1397
 20
31.8626
 10
-22.21
 20
31.7923
 10
-22.2852
 20
31.7278
 10
-22.3662
 20
31.6702
 10
-22.4512
 20
31.6194
 10
-22.5401
 20
31.5764
 10
-22.6329
 20
31.5403
 10
-22.7276
 20
31.512
 10
-22.8252
 20
31.4915
 10
-22.9229
 20
31.4798
 10
-23.0225
 20
31.4749
  0
LWPOLYLINE
100
AcDbEntity
  8
0
100
AcDbPolyline
 90
76
 70
1
 10
22.9209
 20
31.4798
 10
22.8222
 20
31.4915
 10
22.7255
 20
31.512
 10
22.6308
 20
31.5403
 10
22.538
 20
31.5764
 10
22.4492
 20
31.6194
 10
22.3642
 20
31.6702
 10
22.2832
 20
31.7278
 10
22.207
 20
31.7923
 10
22.1377
 20
31.8626
 10
22.0732
 20
31.9378
 10
22.0156
 20
32.0188
 10
21.9648
 20
32.1038
 10
21.9209
 20
32.1936
 10
21.8857
 20
32.2854
 10
21.8574
 20
32.3811
 10
21.8369
 20
32.4778
 10
21.8242
 20
32.5764
 10
21.8203
 20
32.6751
 10
21.8242
 20
32.7747
 10
21.8369
 20
32.8723
 10
21.8574
 20
32.97
 10
21.8857
 20
33.0647
 10
21.9209
 20
33.1575
 10
21.9648
 20
33.2464
 10
22.0156
 20
33.3313
 10
22.0732
 20
33.4124
 10
22.1377
 20
33.4876
 10
22.207
 20
33.5579
 10
22.2832
 20
33.6223
 10
22.3642
 20
33.68
 10
22.4492
 20
33.7307
 10
22.538
 20
33.7737
 10
22.6308
 20
33.8098
 10
22.7255
 20
33.8382
 10
22.8222
 20
33.8587
 10
22.9209
 20
33.8714
 10
23.0205
 20
33.8753
 10
23.1191
 20
33.8714
 10
23.2177
 20
33.8587
 10
23.3144
 20
33.8382
 10
23.4101
 20
33.8098
 10
23.5019
 20
33.7737
 10
23.5918
 20
33.7307
 10
23.6767
 20
33.68
 10
23.7568
 20
33.6223
 10
23.833
 20
33.5579
 10
23.9033
 20
33.4876
 10
23.9668
 20
33.4124
 10
24.0244
 20
33.3313
 10
24.0752
 20
33.2464
 10
24.1191
 20
33.1575
 10
24.1552
 20
33.0647
 10
24.1836
 20
32.97
 10
24.2041
 20
32.8723
 10
24.2158
 20
32.7747
 10
24.2207
 20
32.6751
 10
24.2158
 20
32.5764
 10
24.2041
 20
32.4778
 10
24.1836
 20
32.3811
 10
24.1552
 20
32.2854
 10
24.1191
 20
32.1936
 10
24.0752
 20
32.1038
 10
24.0244
 20
32.0188
 10
23.9668
 20
31.9378
 10
23.9033
 20
31.8626
 10
23.833
 20
31.7923
 10
23.7568
 20
31.7278
 10
23.6767
 20
31.6702
 10
23.5918
 20
31.6194
 10
23.5019
 20
31.5764
 10
23.4101
 20
31.5403
 10
23.3144
 20
31.512
 10
23.2177
 20
31.4915
 10
23.1191
 20
31.4798
 10
23.0205
 20
31.4749
  0
LWPOLYLINE
100
AcDbEntity
  8
0
100
AcDbPolyline
 90
76
 70
1
 10
-26.7989
 20
16.7307
 10
-26.8975
 20
16.7434
 10
-26.9942
 20
16.763
 10
-27.0889
 20
16.7913
 10
-27.1817
 20
16.8274
 10
-27.2705
 20
16.8714
 10
-27.3555
 20
16.9221
 10
-27.4366
 20
16.9798
 10
-27.5127
 20
17.0442
 10
-27.5821
 20
17.1136
 10
-27.6465
 20
17.1897
 10
-27.7041
 20
17.2708
 10
-27.7549
 20
17.3557
 10
-27.7989
 20
17.4446
 10
-27.835
 20
17.5374
 10
-27.8633
 20
17.6321
 10
-27.8829
 20
17.7288
 10
-27.8955
 20
17.8274
 10
-27.8995
 20
17.927
 10
-27.8955
 20
18.0257
 10
-27.8829
 20
18.1243
 10
-27.8633
 20
18.221
 10
-27.835
 20
18.3167
 10
-27.7989
 20
18.4085
 10
-27.7549
 20
18.4983
 10
-27.7041
 20
18.5833
 10
-27.6465
 20
18.6634
 10
-27.5821
 20
18.7395
 10
-27.5127
 20
18.8098
 10
-27.4366
 20
18.8733
 10
-27.3555
 20
18.9309
 10
-27.2705
 20
18.9817
 10
-27.1817
 20
19.0257
 10
-27.0889
 20
19.0618
 10
-26.9942
 20
19.0901
 10
-26.8975
 20
19.1106
 10
-26.7989
 20
19.1223
 10
-26.6993
 20
19.1262
 10
-26.6006
 20
19.1223
 10
-26.502
 20
19.1106
 10
-26.4053
 20
19.0901
 10
-26.3096
 20
19.0618
 10
-26.2178
 20
19.0257
 10
-26.1289
 20
18.9817
 10
-26.043
 20
18.9309
 10
-25.9629
 20
18.8733
 10
-25.8868
 20
18.8098
 10
-25.8164
 20
18.7395
 10
-25.753
 20
18.6634
 10
-25.6954
 20
18.5833
 10
-25.6446
 20
18.4983
 10
-25.6006
 20
18.4085
 10
-25.5645
 20
18.3167
 10
-25.5362
 20
18.221
 10
-25.5157
 20
18.1243
 10
-25.5039
 20
18.0257
 10
-25.5
 20
17.927
 10
-25.5039
 20
17.8274
 10
-25.5157
 20
17.7288
 10
-25.5362
 20
17.6321
 10
-25.5645
 20
17.5374
 10
-25.6006
 20
17.4446
 10
-25.6446
 20
17.3557
 10
-25.6954
 20
17.2708
 10
-25.753
 20
17.1897
 10
-25.8164
 20
17.1136
 10
-25.8868
 20
17.0442
 10
-25.9629
 20
16.9798
 10
-26.043
 20
16.9221
 10
-26.1289
 20
16.8714
 10
-26.2178
 20
16.8274
 10
-26.3096
 20
16.7913
 10
-26.4053
 20
16.763
 10
-26.502
 20
16.7434
 10
-26.6006
 20
16.7307
 10
-26.6993
 20
16.7268
  0
LWPOLYLINE
100
AcDbEntity
  8
0
100
AcDbPolyline
 90
76
 70
1
 10
26.5986
 20
16.7307
 10
26.5
 20
16.7434
 10
26.4033
 20
16.763
 10
26.3076
 20
16.7913
 10
26.2158
 20
16.8274
 10
26.1259
 20
16.8714
 10
26.041
 20
16.9221
 10
25.9599
 20
16.9798
 10
25.8847
 20
17.0442
 10
25.8144
 20
17.1136
 10
25.75
 20
17.1897
 10
25.6923
 20
17.2708
 10
25.6416
 20
17.3557
 10
25.5986
 20
17.4446
 10
25.5625
 20
17.5374
 10
25.5341
 20
17.6321
 10
25.5136
 20
17.7288
 10
25.5019
 20
17.8274
 10
25.497
 20
17.927
 10
25.5019
 20
18.0257
 10
25.5136
 20
18.1243
 10
25.5341
 20
18.221
 10
25.5625
 20
18.3167
 10
25.5986
 20
18.4085
 10
25.6416
 20
18.4983
 10
25.6923
 20
18.5833
 10
25.75
 20
18.6634
 10
25.8144
 20
18.7395
 10
25.8847
 20
18.8098
 10
25.9599
 20
18.8733
 10
26.041
 20
18.9309
 10
26.1259
 20
18.9817
 10
26.2158
 20
19.0257
 10
26.3076
 20
19.0618
 10
26.4033
 20
19.0901
 10
26.5
 20
19.1106
 10
26.5986
 20
19.1223
 10
26.6972
 20
19.1262
 10
26.7968
 20
19.1223
 10
26.8945
 20
19.1106
 10
26.9921
 20
19.0901
 10
27.0869
 20
19.0618
 10
27.1796
 20
19.0257
 10
27.2685
 20
18.9817
 10
27.3535
 20
18.9309
 10
27.4345
 20
18.8733
 10
27.5097
 20
18.8098
 10
27.58
 20
18.7395
 10
27.6445
 20
18.6634
 10
27.7021
 20
18.5833
 10
27.7529
 20
18.4983
 10
27.7959
 20
18.4085
 10
27.832
 20
18.3167
 10
27.8603
 20
18.221
 10
27.8808
 20
18.1243
 10
27.8935
 20
18.0257
 10
27.8974
 20
17.927
 10
27.8935
 20
17.8274
 10
27.8808
 20
17.7288
 10
27.8603
 20
17.6321
 10
27.832
 20
17.5374
 10
27.7959
 20
17.4446
 10
27.7529
 20
17.3557
 10
27.7021
 20
17.2708
 10
27.6445
 20
17.1897
 10
27.58
 20
17.1136
 10
27.5097
 20
17.0442
 10
27.4345
 20
16.9798
 10
27.3535
 20
16.9221
 10
27.2685
 20
16.8714
 10
27.1796
 20
16.8274
 10
27.0869
 20
16.7913
 10
26.9921
 20
16.763
 10
26.8945
 20
16.7434
 10
26.7968
 20
16.7307
 10
26.6972
 20
16.7268
  0
ENDSEC
  0
EOF
