0
SECTION
2
HEADER
9
$INSUNITS
70
4
0
ENDSEC
0
SECTION
2
TABLES
0
TABLE
2
LTYPE
0
LTYPE
72
65
70
64
2
CONTINUOUS
3
______
73
0
40
0
0
ENDTAB
0
TABLE
2
LAYER
0
ENDTAB
0
ENDSEC
0
SECTION
2
ENTITIES
0
LINE
8
0
10
-5.2617993
20
12.8574285
11
8.6019537
21
10.9090051
0
LINE
8
0
10
8.6019537
20
10.9090051
11
10.5503771
21
24.7727581
0
LINE
8
0
10
10.5503771
20
24.7727581
11
-3.3133759
21
26.7211815
0
LINE
8
0
10
-3.3133759
20
26.7211815
11
-5.2617993
21
12.8574285
0
LINE
8
0
10
-2.6175104
20
31.6725218
11
11.2462426
21
29.7240984
0
LINE
8
0
10
11.2462426
20
29.7240984
11
13.194666
21
43.5878514
0
LINE
8
0
10
13.194666
20
43.5878514
11
-0.669087
21
45.5362748
0
LINE
8
0
10
-0.669087
20
45.5362748
11
-2.6175104
21
31.6725218
0
LINE
8
0
10
0.0267786
20
50.4876151
11
13.8905316
21
48.5391917
0
LINE
8
0
10
13.8905316
20
48.5391917
11
15.838955
21
62.4029447
0
LINE
8
0
10
15.838955
20
62.4029447
11
1.975202
21
64.3513681
0
LINE
8
0
10
1.975202
20
64.3513681
11
0.0267786
21
50.4876151
0
LINE
8
0
10
10.9090051
20
-8.6019537
11
24.7727581
21
-10.5503771
0
LINE
8
0
10
24.7727581
20
-10.5503771
11
26.7211815
21
3.3133759
0
LINE
8
0
10
26.7211815
20
3.3133759
11
12.8574285
21
5.2617993
0
LINE
8
0
10
12.8574285
20
5.2617993
11
10.9090051
21
-8.6019537
0
LINE
8
0
10
13.553294
20
10.2131396
11
27.417047
21
8.2647162
0
LINE
8
0
10
27.417047
20
8.2647162
11
29.3654704
21
22.1284692
0
LINE
8
0
10
29.3654704
20
22.1284692
11
15.5017174
21
24.0768926
0
LINE
8
0
10
15.5017174
20
24.0768926
11
13.553294
21
10.2131396
0
LINE
8
0
10
16.1975829
20
29.0282329
11
30.0613359
21
27.0798095
0
LINE
8
0
10
30.0613359
20
27.0798095
11
32.0097593
21
40.9435625
0
LINE
8
0
10
32.0097593
20
40.9435625
11
18.1460063
21
42.8919859
0
LINE
8
0
10
18.1460063
20
42.8919859
11
16.1975829
21
29.0282329
0
LINE
8
0
10
18.8418719
20
47.8433262
11
32.7056249
21
45.8949028
0
LINE
8
0
10
32.7056249
20
45.8949028
11
34.6540483
21
59.7586558
0
LINE
8
0
10
34.6540483
20
59.7586558
11
20.7902953
21
61.7070792
0
LINE
8
0
10
20.7902953
20
61.7070792
11
18.8418719
21
47.8433262
0
LINE
8
0
10
31.185416
20
-0.8484279
11
45.049169
21
-2.7968513
0
LINE
8
0
10
45.049169
20
-2.7968513
11
46.9975924
21
11.0669017
0
LINE
8
0
10
46.9975924
20
11.0669017
11
33.1338394
21
13.0153251
0
LINE
8
0
10
33.1338394
20
13.0153251
11
31.185416
21
-0.8484279
0
LINE
8
0
10
33.8297049
20
17.9666654
11
47.6934579
21
16.018242
0
LINE
8
0
10
47.6934579
20
16.018242
11
49.6418813
21
29.881995
0
LINE
8
0
10
49.6418813
20
29.881995
11
35.7781283
21
31.8304184
0
LINE
8
0
10
35.7781283
20
31.8304184
11
33.8297049
21
17.9666654
0
LINE
8
0
10
36.4739938
20
36.7817587
11
50.3377468
21
34.8333353
0
LINE
8
0
10
50.3377468
20
34.8333353
11
52.2861702
21
48.6970883
0
LINE
8
0
10
52.2861702
20
48.6970883
11
38.4224172
21
50.6455117
0
LINE
8
0
10
38.4224172
20
50.6455117
11
36.4739938
21
36.7817587
0
LINE
8
0
10
39.1182827
20
55.596852
11
52.9820357
21
53.6484286
0
LINE
8
0
10
52.9820357
20
53.6484286
11
54.9304591
21
67.5121816
0
LINE
8
0
10
54.9304591
20
67.5121816
11
41.0667061
21
69.460605
0
LINE
8
0
10
41.0667061
20
69.460605
11
39.1182827
21
55.596852
0
LINE
8
0
10
50.4180286
20
-0.5219126
11
64.2817816
21
-2.470336
0
LINE
8
0
10
64.2817816
20
-2.470336
11
66.230205
21
11.393417
0
LINE
8
0
10
66.230205
20
11.393417
11
52.366452
21
13.3418404
0
LINE
8
0
10
52.366452
20
13.3418404
11
50.4180286
21
-0.5219126
0
LINE
8
0
10
53.0623175
20
18.2931807
11
66.9260705
21
16.3447573
0
LINE
8
0
10
66.9260705
20
16.3447573
11
68.8744939
21
30.2085103
0
LINE
8
0
10
68.8744939
20
30.2085103
11
55.0107409
21
32.1569337
0
LINE
8
0
10
55.0107409
20
32.1569337
11
53.0623175
21
18.2931807
0
LINE
8
0
10
55.7066064
20
37.108274
11
69.5703594
21
35.1598506
0
LINE
8
0
10
69.5703594
20
35.1598506
11
71.5187828
21
49.0236036
0
LINE
8
0
10
71.5187828
20
49.0236036
11
57.6550298
21
50.972027
0
LINE
8
0
10
57.6550298
20
50.972027
11
55.7066064
21
37.108274
0
LINE
8
0
10
58.3508953
20
55.9233673
11
72.2146483
21
53.9749439
0
LINE
8
0
10
72.2146483
20
53.9749439
11
74.1630717
21
67.8386969
0
LINE
8
0
10
74.1630717
20
67.8386969
11
60.2993187
21
69.7871203
0
LINE
8
0
10
60.2993187
20
69.7871203
11
58.3508953
21
55.9233673
0
LINE
8
0
10
68.5372564
20
-8.1175419
11
82.4010094
21
-10.0659653
0
LINE
8
0
10
82.4010094
20
-10.0659653
11
84.3494328
21
3.7977877
0
LINE
8
0
10
84.3494328
20
3.7977877
11
70.4856798
21
5.7462111
0
LINE
8
0
10
70.4856798
20
5.7462111
11
68.5372564
21
-8.1175419
0
LINE
8
0
10
71.1815453
20
10.6975514
11
85.0452983
21
8.749128
0
LINE
8
0
10
85.0452983
20
8.749128
11
86.9937217
21
22.612881
0
LINE
8
0
10
86.9937217
20
22.612881
11
73.1299687
21
24.5613044
0
LINE
8
0
10
73.1299687
20
24.5613044
11
71.1815453
21
10.6975514
0
LINE
8
0
10
73.8258342
20
29.5126447
11
87.6895872
21
27.5642213
0
LINE
8
0
10
87.6895872
20
27.5642213
11
89.6380106
21
41.4279743
0
LINE
8
0
10
89.6380106
20
41.4279743
11
75.7742576
21
43.3763977
0
LINE
8
0
10
75.7742576
20
43.3763977
11
73.8258342
21
29.5126447
0
LINE
8
0
10
76.4701231
20
48.327738
11
90.3338761
21
46.3793146
0
LINE
8
0
10
90.3338761
20
46.3793146
11
92.2822995
21
60.2430676
0
LINE
8
0
10
92.2822995
20
60.2430676
11
78.4185465
21
62.191491
0
LINE
8
0
10
78.4185465
20
62.191491
11
76.4701231
21
48.327738
0
LINE
8
0
10
87.14359
20
-12.2472329
11
101.007343
21
-14.1956563
0
LINE
8
0
10
101.007343
20
-14.1956563
11
102.9557664
21
-0.3319033
0
LINE
8
0
10
102.9557664
20
-0.3319033
11
89.0920134
21
1.6165201
0
LINE
8
0
10
89.0920134
20
1.6165201
11
87.14359
21
-12.2472329
0
LINE
8
0
10
89.787879
20
6.5678604
11
103.651632
21
4.619437
0
LINE
8
0
10
103.651632
20
4.619437
11
105.6000554
21
18.48319
0
LINE
8
0
10
105.6000554
20
18.48319
11
91.7363024
21
20.4316134
0
LINE
8
0
10
91.7363024
20
20.4316134
11
89.787879
21
6.5678604
0
LINE
8
0
10
92.4321679
20
25.3829537
11
106.2959209
21
23.4345303
0
LINE
8
0
10
106.2959209
20
23.4345303
11
108.2443443
21
37.2982833
0
LINE
8
0
10
108.2443443
20
37.2982833
11
94.3805913
21
39.2467067
0
LINE
8
0
10
94.3805913
20
39.2467067
11
92.4321679
21
25.3829537
0
LINE
8
0
10
95.0764568
20
44.198047
11
108.9402098
21
42.2496236
0
LINE
8
0
10
108.9402098
20
42.2496236
11
110.8886332
21
56.1133766
0
LINE
8
0
10
110.8886332
20
56.1133766
11
97.0248802
21
58.0618
0
LINE
8
0
10
97.0248802
20
58.0618
11
95.0764568
21
44.198047
0
LINE
8
0
10
53.3104761
20
-30.2381548
11
64.4913732
21
-21.8127445
0
LINE
8
0
10
64.4913732
20
-21.8127445
11
56.0659629
21
-10.6318474
0
LINE
8
0
10
56.0659629
20
-10.6318474
11
44.8850658
21
-19.0572577
0
LINE
8
0
10
44.8850658
20
-19.0572577
11
53.3104761
21
-30.2381548
0
LINE
8
0
10
75.0047713
20
-30.3590993
11
88.8685243
21
-32.3075227
0
LINE
8
0
10
88.8685243
20
-32.3075227
11
90.8169477
21
-18.4437697
0
LINE
8
0
10
90.8169477
20
-18.4437697
11
76.9531947
21
-16.4953463
0
LINE
8
0
10
76.9531947
20
-16.4953463
11
75.0047713
21
-30.3590993
0
LINE
8
0
10
101.5337093
20
-36.8266192
11
113.8949756
21
-43.3992211
0
LINE
8
0
10
113.8949756
20
-43.3992211
11
120.4675775
21
-31.0379548
0
LINE
8
0
10
120.4675775
20
-31.0379548
11
108.1063112
21
-24.4653529
0
LINE
8
0
10
108.1063112
20
-24.4653529
11
101.5337093
21
-36.8266192
0
LINE
8
0
10
254.2859807
20
10.9090051
11
268.1497337
21
12.8574285
0
LINE
8
0
10
268.1497337
20
12.8574285
11
266.2013103
21
26.7211815
0
LINE
8
0
10
266.2013103
20
26.7211815
11
252.3375573
21
24.7727581
0
LINE
8
0
10
252.3375573
20
24.7727581
11
254.2859807
21
10.9090051
0
LINE
8
0
10
251.6416918
20
29.7240984
11
265.5054448
21
31.6725218
0
LINE
8
0
10
265.5054448
20
31.6725218
11
263.5570214
21
45.5362748
0
LINE
8
0
10
263.5570214
20
45.5362748
11
249.6932684
21
43.5878514
0
LINE
8
0
10
249.6932684
20
43.5878514
11
251.6416918
21
29.7240984
0
LINE
8
0
10
248.9974028
20
48.5391917
11
262.8611558
21
50.4876151
0
LINE
8
0
10
262.8611558
20
50.4876151
11
260.9127324
21
64.3513681
0
LINE
8
0
10
260.9127324
20
64.3513681
11
247.0489794
21
62.4029447
0
LINE
8
0
10
247.0489794
20
62.4029447
11
248.9974028
21
48.5391917
0
LINE
8
0
10
238.1151763
20
-10.5503771
11
251.9789293
21
-8.6019537
0
LINE
8
0
10
251.9789293
20
-8.6019537
11
250.0305059
21
5.2617993
0
LINE
8
0
10
250.0305059
20
5.2617993
11
236.1667529
21
3.3133759
0
LINE
8
0
10
236.1667529
20
3.3133759
11
238.1151763
21
-10.5503771
0
LINE
8
0
10
235.4708874
20
8.2647162
11
249.3346404
21
10.2131396
0
LINE
8
0
10
249.3346404
20
10.2131396
11
247.386217
21
24.0768926
0
LINE
8
0
10
247.386217
20
24.0768926
11
233.522464
21
22.1284692
0
LINE
8
0
10
233.522464
20
22.1284692
11
235.4708874
21
8.2647162
0
LINE
8
0
10
232.8265985
20
27.0798095
11
246.6903515
21
29.0282329
0
LINE
8
0
10
246.6903515
20
29.0282329
11
244.7419281
21
42.8919859
0
LINE
8
0
10
244.7419281
20
42.8919859
11
230.8781751
21
40.9435625
0
LINE
8
0
10
230.8781751
20
40.9435625
11
232.8265985
21
27.0798095
0
LINE
8
0
10
230.1823095
20
45.8949028
11
244.0460625
21
47.8433262
0
LINE
8
0
10
244.0460625
20
47.8433262
11
242.0976391
21
61.7070792
0
LINE
8
0
10
242.0976391
20
61.7070792
11
228.2338861
21
59.7586558
0
LINE
8
0
10
228.2338861
20
59.7586558
11
230.1823095
21
45.8949028
0
LINE
8
0
10
217.8387654
20
-2.7968513
11
231.7025184
21
-0.8484279
0
LINE
8
0
10
231.7025184
20
-0.8484279
11
229.754095
21
13.0153251
0
LINE
8
0
10
229.754095
20
13.0153251
11
215.890342
21
11.0669017
0
LINE
8
0
10
215.890342
20
11.0669017
11
217.8387654
21
-2.7968513
0
LINE
8
0
10
215.1944765
20
16.018242
11
229.0582295
21
17.9666654
0
LINE
8
0
10
229.0582295
20
17.9666654
11
227.1098061
21
31.8304184
0
LINE
8
0
10
227.1098061
20
31.8304184
11
213.2460531
21
29.881995
0
LINE
8
0
10
213.2460531
20
29.881995
11
215.1944765
21
16.018242
0
LINE
8
0
10
212.5501876
20
34.8333353
11
226.4139406
21
36.7817587
0
LINE
8
0
10
226.4139406
20
36.7817587
11
224.4655172
21
50.6455117
0
LINE
8
0
10
224.4655172
20
50.6455117
11
210.6017642
21
48.6970883
0
LINE
8
0
10
210.6017642
20
48.6970883
11
212.5501876
21
34.8333353
0
LINE
8
0
10
209.9058987
20
53.6484286
11
223.7696517
21
55.596852
0
LINE
8
0
10
223.7696517
20
55.596852
11
221.8212283
21
69.460605
0
LINE
8
0
10
221.8212283
20
69.460605
11
207.9574753
21
67.5121816
0
LINE
8
0
10
207.9574753
20
67.5121816
11
209.9058987
21
53.6484286
0
LINE
8
0
10
198.6061528
20
-2.470336
11
212.4699058
21
-0.5219126
0
LINE
8
0
10
212.4699058
20
-0.5219126
11
210.5214824
21
13.3418404
0
LINE
8
0
10
210.5214824
20
13.3418404
11
196.6577294
21
11.393417
0
LINE
8
0
10
196.6577294
20
11.393417
11
198.6061528
21
-2.470336
0
LINE
8
0
10
195.9618639
20
16.3447573
11
209.8256169
21
18.2931807
0
LINE
8
0
10
209.8256169
20
18.2931807
11
207.8771935
21
32.1569337
0
LINE
8
0
10
207.8771935
20
32.1569337
11
194.0134405
21
30.2085103
0
LINE
8
0
10
194.0134405
20
30.2085103
11
195.9618639
21
16.3447573
0
LINE
8
0
10
193.317575
20
35.1598506
11
207.181328
21
37.108274
0
LINE
8
0
10
207.181328
20
37.108274
11
205.2329046
21
50.972027
0
LINE
8
0
10
205.2329046
20
50.972027
11
191.3691516
21
49.0236036
0
LINE
8
0
10
191.3691516
20
49.0236036
11
193.317575
21
35.1598506
0
LINE
8
0
10
190.6732861
20
53.9749439
11
204.5370391
21
55.9233673
0
LINE
8
0
10
204.5370391
20
55.9233673
11
202.5886157
21
69.7871203
0
LINE
8
0
10
202.5886157
20
69.7871203
11
188.7248627
21
67.8386969
0
LINE
8
0
10
188.7248627
20
67.8386969
11
190.6732861
21
53.9749439
0
LINE
8
0
10
180.486925
20
-10.0659653
11
194.350678
21
-8.1175419
0
LINE
8
0
10
194.350678
20
-8.1175419
11
192.4022546
21
5.7462111
0
LINE
8
0
10
192.4022546
20
5.7462111
11
178.5385016
21
3.7977877
0
LINE
8
0
10
178.5385016
20
3.7977877
11
180.486925
21
-10.0659653
0
LINE
8
0
10
177.8426361
20
8.749128
11
191.7063891
21
10.6975514
0
LINE
8
0
10
191.7063891
20
10.6975514
11
189.7579657
21
24.5613044
0
LINE
8
0
10
189.7579657
20
24.5613044
11
175.8942127
21
22.612881
0
LINE
8
0
10
175.8942127
20
22.612881
11
177.8426361
21
8.749128
0
LINE
8
0
10
175.1983472
20
27.5642213
11
189.0621002
21
29.5126447
0
LINE
8
0
10
189.0621002
20
29.5126447
11
187.1136768
21
43.3763977
0
LINE
8
0
10
187.1136768
20
43.3763977
11
173.2499238
21
41.4279743
0
LINE
8
0
10
173.2499238
20
41.4279743
11
175.1983472
21
27.5642213
0
LINE
8
0
10
172.5540583
20
46.3793146
11
186.4178113
21
48.327738
0
LINE
8
0
10
186.4178113
20
48.327738
11
184.4693879
21
62.191491
0
LINE
8
0
10
184.4693879
20
62.191491
11
170.6056349
21
60.2430676
0
LINE
8
0
10
170.6056349
20
60.2430676
11
172.5540583
21
46.3793146
0
LINE
8
0
10
161.8805914
20
-14.1956563
11
175.7443444
21
-12.2472329
0
LINE
8
0
10
175.7443444
20
-12.2472329
11
173.795921
21
1.6165201
0
LINE
8
0
10
173.795921
20
1.6165201
11
159.932168
21
-0.3319033
0
LINE
8
0
10
159.932168
20
-0.3319033
11
161.8805914
21
-14.1956563
0
LINE
8
0
10
159.2363024
20
4.619437
11
173.1000554
21
6.5678604
0
LINE
8
0
10
173.1000554
20
6.5678604
11
171.151632
21
20.4316134
0
LINE
8
0
10
171.151632
20
20.4316134
11
157.287879
21
18.48319
0
LINE
8
0
10
157.287879
20
18.48319
11
159.2363024
21
4.619437
0
LINE
8
0
10
156.5920135
20
23.4345303
11
170.4557665
21
25.3829537
0
LINE
8
0
10
170.4557665
20
25.3829537
11
168.5073431
21
39.2467067
0
LINE
8
0
10
168.5073431
20
39.2467067
11
154.6435901
21
37.2982833
0
LINE
8
0
10
154.6435901
20
37.2982833
11
156.5920135
21
23.4345303
0
LINE
8
0
10
153.9477246
20
42.2496236
11
167.8114776
21
44.198047
0
LINE
8
0
10
167.8114776
20
44.198047
11
165.8630542
21
58.0618
0
LINE
8
0
10
165.8630542
20
58.0618
11
151.9993012
21
56.1133766
0
LINE
8
0
10
151.9993012
20
56.1133766
11
153.9477246
21
42.2496236
0
LINE
8
0
10
198.3965612
20
-21.8127445
11
209.5774583
21
-30.2381548
0
LINE
8
0
10
209.5774583
20
-30.2381548
11
218.0028686
21
-19.0572577
0
LINE
8
0
10
218.0028686
20
-19.0572577
11
206.8219715
21
-10.6318474
0
LINE
8
0
10
206.8219715
20
-10.6318474
11
198.3965612
21
-21.8127445
0
LINE
8
0
10
174.0194101
20
-32.3075227
11
187.8831631
21
-30.3590993
0
LINE
8
0
10
187.8831631
20
-30.3590993
11
185.9347397
21
-16.4953463
0
LINE
8
0
10
185.9347397
20
-16.4953463
11
172.0709867
21
-18.4437697
0
LINE
8
0
10
172.0709867
20
-18.4437697
11
174.0194101
21
-32.3075227
0
LINE
8
0
10
148.9929588
20
-43.3992211
11
161.3542251
21
-36.8266192
0
LINE
8
0
10
161.3542251
20
-36.8266192
11
154.7816232
21
-24.4653529
0
LINE
8
0
10
154.7816232
20
-24.4653529
11
142.4203569
21
-31.0379548
0
LINE
8
0
10
142.4203569
20
-31.0379548
11
148.9929588
21
-43.3992211
0
ENDSEC
0
EOF