0
SECTION
2
HEADER
9
$INSUNITS
70
4
0
ENDSEC
0
SECTION
2
TABLES
0
TABLE
2
LTYPE
0
LTYPE
72
65
70
64
2
CONTINUOUS
3
______
73
0
40
0
0
ENDTAB
0
TABLE
2
LAYER
0
ENDTAB
0
ENDSEC
0
SECTION
2
ENTITIES
0
LINE
8
0
10
75.6725045
20
-129.7947305
11
89.5362575
21
-131.7431539
0
LINE
8
0
10
89.5362575
20
-131.7431539
11
91.4846809
21
-117.8794009
0
LINE
8
0
10
91.4846809
20
-117.8794009
11
77.6209279
21
-115.9309775
0
LINE
8
0
10
77.6209279
20
-115.9309775
11
75.6725045
21
-129.7947305
0
LINE
8
0
10
78.3167934
20
-110.9796372
11
92.1805464
21
-112.9280606
0
LINE
8
0
10
92.1805464
20
-112.9280606
11
94.1289698
21
-99.0643076
0
LINE
8
0
10
94.1289698
20
-99.0643076
11
80.2652168
21
-97.1158842
0
LINE
8
0
10
80.2652168
20
-97.1158842
11
78.3167934
21
-110.9796372
0
LINE
8
0
10
80.9610823
20
-92.1645439
11
94.8248353
21
-94.1129673
0
LINE
8
0
10
94.8248353
20
-94.1129673
11
96.7732587
21
-80.2492143
0
LINE
8
0
10
96.7732587
20
-80.2492143
11
82.9095057
21
-78.3007909
0
LINE
8
0
10
82.9095057
20
-78.3007909
11
80.9610823
21
-92.1645439
0
LINE
8
0
10
91.8433089
20
-151.2541128
11
105.7070619
21
-153.2025362
0
LINE
8
0
10
105.7070619
20
-153.2025362
11
107.6554853
21
-139.3387832
0
LINE
8
0
10
107.6554853
20
-139.3387832
11
93.7917323
21
-137.3903598
0
LINE
8
0
10
93.7917323
20
-137.3903598
11
91.8433089
21
-151.2541128
0
LINE
8
0
10
94.4875978
20
-132.4390194
11
108.3513508
21
-134.3874428
0
LINE
8
0
10
108.3513508
20
-134.3874428
11
110.2997742
21
-120.5236898
0
LINE
8
0
10
110.2997742
20
-120.5236898
11
96.4360212
21
-118.5752664
0
LINE
8
0
10
96.4360212
20
-118.5752664
11
94.4875978
21
-132.4390194
0
LINE
8
0
10
97.1318867
20
-113.6239261
11
110.9956397
21
-115.5723495
0
LINE
8
0
10
110.9956397
20
-115.5723495
11
112.9440631
21
-101.7085965
0
LINE
8
0
10
112.9440631
20
-101.7085965
11
99.0803101
21
-99.7601731
0
LINE
8
0
10
99.0803101
20
-99.7601731
11
97.1318867
21
-113.6239261
0
LINE
8
0
10
99.7761756
20
-94.8088328
11
113.6399286
21
-96.7572562
0
LINE
8
0
10
113.6399286
20
-96.7572562
11
115.588352
21
-82.8935032
0
LINE
8
0
10
115.588352
20
-82.8935032
11
101.724599
21
-80.9450798
0
LINE
8
0
10
101.724599
20
-80.9450798
11
99.7761756
21
-94.8088328
0
LINE
8
0
10
112.1197197
20
-143.5005869
11
125.9834727
21
-145.4490103
0
LINE
8
0
10
125.9834727
20
-145.4490103
11
127.9318961
21
-131.5852573
0
LINE
8
0
10
127.9318961
20
-131.5852573
11
114.0681431
21
-129.6368339
0
LINE
8
0
10
114.0681431
20
-129.6368339
11
112.1197197
21
-143.5005869
0
LINE
8
0
10
114.7640086
20
-124.6854936
11
128.6277616
21
-126.633917
0
LINE
8
0
10
128.6277616
20
-126.633917
11
130.576185
21
-112.770164
0
LINE
8
0
10
130.576185
20
-112.770164
11
116.712432
21
-110.8217406
0
LINE
8
0
10
116.712432
20
-110.8217406
11
114.7640086
21
-124.6854936
0
LINE
8
0
10
117.4082976
20
-105.8704003
11
131.2720506
21
-107.8188237
0
LINE
8
0
10
131.2720506
20
-107.8188237
11
133.220474
21
-93.9550707
0
LINE
8
0
10
133.220474
20
-93.9550707
11
119.356721
21
-92.0066473
0
LINE
8
0
10
119.356721
20
-92.0066473
11
117.4082976
21
-105.8704003
0
LINE
8
0
10
120.0525865
20
-87.055307
11
133.9163395
21
-89.0037304
0
LINE
8
0
10
133.9163395
20
-89.0037304
11
135.8647629
21
-75.1399774
0
LINE
8
0
10
135.8647629
20
-75.1399774
11
122.0010099
21
-73.191554
0
LINE
8
0
10
122.0010099
20
-73.191554
11
120.0525865
21
-87.055307
0
LINE
8
0
10
131.3523323
20
-143.1740717
11
145.2160853
21
-145.1224951
0
LINE
8
0
10
145.2160853
20
-145.1224951
11
147.1645087
21
-131.2587421
0
LINE
8
0
10
147.1645087
20
-131.2587421
11
133.3007557
21
-129.3103187
0
LINE
8
0
10
133.3007557
20
-129.3103187
11
131.3523323
21
-143.1740717
0
LINE
8
0
10
133.9966212
20
-124.3589784
11
147.8603742
21
-126.3074018
0
LINE
8
0
10
147.8603742
20
-126.3074018
11
149.8087976
21
-112.4436488
0
LINE
8
0
10
149.8087976
20
-112.4436488
11
135.9450446
21
-110.4952254
0
LINE
8
0
10
135.9450446
20
-110.4952254
11
133.9966212
21
-124.3589784
0
LINE
8
0
10
136.6409102
20
-105.543885
11
150.5046632
21
-107.4923084
0
LINE
8
0
10
150.5046632
20
-107.4923084
11
152.4530866
21
-93.6285554
0
LINE
8
0
10
152.4530866
20
-93.6285554
11
138.5893336
21
-91.680132
0
LINE
8
0
10
138.5893336
20
-91.680132
11
136.6409102
21
-105.543885
0
LINE
8
0
10
139.2851991
20
-86.7287917
11
153.1489521
21
-88.6772151
0
LINE
8
0
10
153.1489521
20
-88.6772151
11
155.0973755
21
-74.8134621
0
LINE
8
0
10
155.0973755
20
-74.8134621
11
141.2336225
21
-72.8650387
0
LINE
8
0
10
141.2336225
20
-72.8650387
11
139.2851991
21
-86.7287917
0
LINE
8
0
10
149.4715601
20
-150.7697009
11
163.3353131
21
-152.7181243
0
LINE
8
0
10
163.3353131
20
-152.7181243
11
165.2837365
21
-138.8543713
0
LINE
8
0
10
165.2837365
20
-138.8543713
11
151.4199835
21
-136.9059479
0
LINE
8
0
10
151.4199835
20
-136.9059479
11
149.4715601
21
-150.7697009
0
LINE
8
0
10
152.1158491
20
-131.9546076
11
165.9796021
21
-133.903031
0
LINE
8
0
10
165.9796021
20
-133.903031
11
167.9280255
21
-120.039278
0
LINE
8
0
10
167.9280255
20
-120.039278
11
154.0642725
21
-118.0908546
0
LINE
8
0
10
154.0642725
20
-118.0908546
11
152.1158491
21
-131.9546076
0
LINE
8
0
10
154.760138
20
-113.1395143
11
168.623891
21
-115.0879377
0
LINE
8
0
10
168.623891
20
-115.0879377
11
170.5723144
21
-101.2241847
0
LINE
8
0
10
170.5723144
20
-101.2241847
11
156.7085614
21
-99.2757613
0
LINE
8
0
10
156.7085614
20
-99.2757613
11
154.760138
21
-113.1395143
0
LINE
8
0
10
157.4044269
20
-94.324421
11
171.2681799
21
-96.2728444
0
LINE
8
0
10
171.2681799
20
-96.2728444
11
173.2166033
21
-82.4090914
0
LINE
8
0
10
173.2166033
20
-82.4090914
11
159.3528503
21
-80.460668
0
LINE
8
0
10
159.3528503
20
-80.460668
11
157.4044269
21
-94.324421
0
LINE
8
0
10
168.0778938
20
-154.8993919
11
181.9416468
21
-156.8478153
0
LINE
8
0
10
181.9416468
20
-156.8478153
11
183.8900702
21
-142.9840623
0
LINE
8
0
10
183.8900702
20
-142.9840623
11
170.0263172
21
-141.0356389
0
LINE
8
0
10
170.0263172
20
-141.0356389
11
168.0778938
21
-154.8993919
0
LINE
8
0
10
170.7221827
20
-136.0842986
11
184.5859357
21
-138.032722
0
LINE
8
0
10
184.5859357
20
-138.032722
11
186.5343591
21
-124.168969
0
LINE
8
0
10
186.5343591
20
-124.168969
11
172.6706061
21
-122.2205456
0
LINE
8
0
10
172.6706061
20
-122.2205456
11
170.7221827
21
-136.0842986
0
LINE
8
0
10
173.3664716
20
-117.2692053
11
187.2302246
21
-119.2176287
0
LINE
8
0
10
187.2302246
20
-119.2176287
11
189.178648
21
-105.3538757
0
LINE
8
0
10
189.178648
20
-105.3538757
11
175.314895
21
-103.4054523
0
LINE
8
0
10
175.314895
20
-103.4054523
11
173.3664716
21
-117.2692053
0
LINE
8
0
10
176.0107605
20
-98.454112
11
189.8745135
21
-100.4025354
0
LINE
8
0
10
189.8745135
20
-100.4025354
11
191.8229369
21
-86.5387824
0
LINE
8
0
10
191.8229369
20
-86.5387824
11
177.9591839
21
-84.590359
0
LINE
8
0
10
177.9591839
20
-84.590359
11
176.0107605
21
-98.454112
0
LINE
8
0
10
134.2447799
20
-172.8903139
11
145.425677
21
-164.4649036
0
LINE
8
0
10
145.425677
20
-164.4649036
11
137.0002667
21
-153.2840065
0
LINE
8
0
10
137.0002667
20
-153.2840065
11
125.8193696
21
-161.7094168
0
LINE
8
0
10
125.8193696
20
-161.7094168
11
134.2447799
21
-172.8903139
0
LINE
8
0
10
155.939075
20
-173.0112583
11
169.802828
21
-174.9596817
0
LINE
8
0
10
169.802828
20
-174.9596817
11
171.7512514
21
-161.0959287
0
LINE
8
0
10
171.7512514
20
-161.0959287
11
157.8874984
21
-159.1475053
0
LINE
8
0
10
157.8874984
20
-159.1475053
11
155.939075
21
-173.0112583
0
LINE
8
0
10
182.4680131
20
-179.4787783
11
194.8292794
21
-186.0513802
0
LINE
8
0
10
194.8292794
20
-186.0513802
11
201.4018813
21
-173.6901139
0
LINE
8
0
10
201.4018813
20
-173.6901139
11
189.040615
21
-167.117512
0
LINE
8
0
10
189.040615
20
-167.117512
11
182.4680131
21
-179.4787783
0
LINE
8
0
10
335.2202843
20
-131.7431539
11
349.0840373
21
-129.7947305
0
LINE
8
0
10
349.0840373
20
-129.7947305
11
347.1356139
21
-115.9309775
0
LINE
8
0
10
347.1356139
20
-115.9309775
11
333.2718609
21
-117.8794009
0
LINE
8
0
10
333.2718609
20
-117.8794009
11
335.2202843
21
-131.7431539
0
LINE
8
0
10
332.5759954
20
-112.9280606
11
346.4397484
21
-110.9796372
0
LINE
8
0
10
346.4397484
20
-110.9796372
11
344.491325
21
-97.1158842
0
LINE
8
0
10
344.491325
20
-97.1158842
11
330.627572
21
-99.0643076
0
LINE
8
0
10
330.627572
20
-99.0643076
11
332.5759954
21
-112.9280606
0
LINE
8
0
10
329.9317065
20
-94.1129673
11
343.7954595
21
-92.1645439
0
LINE
8
0
10
343.7954595
20
-92.1645439
11
341.8470361
21
-78.3007909
0
LINE
8
0
10
341.8470361
20
-78.3007909
11
327.9832831
21
-80.2492143
0
LINE
8
0
10
327.9832831
20
-80.2492143
11
329.9317065
21
-94.1129673
0
LINE
8
0
10
319.0494799
20
-153.2025362
11
332.9132329
21
-151.2541128
0
LINE
8
0
10
332.9132329
20
-151.2541128
11
330.9648095
21
-137.3903598
0
LINE
8
0
10
330.9648095
20
-137.3903598
11
317.1010565
21
-139.3387832
0
LINE
8
0
10
317.1010565
20
-139.3387832
11
319.0494799
21
-153.2025362
0
LINE
8
0
10
316.405191
20
-134.3874428
11
330.268944
21
-132.4390194
0
LINE
8
0
10
330.268944
20
-132.4390194
11
328.3205206
21
-118.5752664
0
LINE
8
0
10
328.3205206
20
-118.5752664
11
314.4567676
21
-120.5236898
0
LINE
8
0
10
314.4567676
20
-120.5236898
11
316.405191
21
-134.3874428
0
LINE
8
0
10
313.7609021
20
-115.5723495
11
327.6246551
21
-113.6239261
0
LINE
8
0
10
327.6246551
20
-113.6239261
11
325.6762317
21
-99.7601731
0
LINE
8
0
10
325.6762317
20
-99.7601731
11
311.8124787
21
-101.7085965
0
LINE
8
0
10
311.8124787
20
-101.7085965
11
313.7609021
21
-115.5723495
0
LINE
8
0
10
311.1166132
20
-96.7572562
11
324.9803662
21
-94.8088328
0
LINE
8
0
10
324.9803662
20
-94.8088328
11
323.0319428
21
-80.9450798
0
LINE
8
0
10
323.0319428
20
-80.9450798
11
309.1681898
21
-82.8935032
0
LINE
8
0
10
309.1681898
20
-82.8935032
11
311.1166132
21
-96.7572562
0
LINE
8
0
10
298.7730691
20
-145.4490103
11
312.6368221
21
-143.5005869
0
LINE
8
0
10
312.6368221
20
-143.5005869
11
310.6883987
21
-129.6368339
0
LINE
8
0
10
310.6883987
20
-129.6368339
11
296.8246457
21
-131.5852573
0
LINE
8
0
10
296.8246457
20
-131.5852573
11
298.7730691
21
-145.4490103
0
LINE
8
0
10
296.1287802
20
-126.633917
11
309.9925332
21
-124.6854936
0
LINE
8
0
10
309.9925332
20
-124.6854936
11
308.0441098
21
-110.8217406
0
LINE
8
0
10
308.0441098
20
-110.8217406
11
294.1803568
21
-112.770164
0
LINE
8
0
10
294.1803568
20
-112.770164
11
296.1287802
21
-126.633917
0
LINE
8
0
10
293.4844912
20
-107.8188237
11
307.3482442
21
-105.8704003
0
LINE
8
0
10
307.3482442
20
-105.8704003
11
305.3998208
21
-92.0066473
0
LINE
8
0
10
305.3998208
20
-92.0066473
11
291.5360678
21
-93.9550707
0
LINE
8
0
10
291.5360678
20
-93.9550707
11
293.4844912
21
-107.8188237
0
LINE
8
0
10
290.8402023
20
-89.0037304
11
304.7039553
21
-87.055307
0
LINE
8
0
10
304.7039553
20
-87.055307
11
302.7555319
21
-73.191554
0
LINE
8
0
10
302.7555319
20
-73.191554
11
288.8917789
21
-75.1399774
0
LINE
8
0
10
288.8917789
20
-75.1399774
11
290.8402023
21
-89.0037304
0
LINE
8
0
10
279.5404565
20
-145.1224951
11
293.4042095
21
-143.1740717
0
LINE
8
0
10
293.4042095
20
-143.1740717
11
291.4557861
21
-129.3103187
0
LINE
8
0
10
291.4557861
20
-129.3103187
11
277.5920331
21
-131.2587421
0
LINE
8
0
10
277.5920331
20
-131.2587421
11
279.5404565
21
-145.1224951
0
LINE
8
0
10
276.8961676
20
-126.3074018
11
290.7599206
21
-124.3589784
0
LINE
8
0
10
290.7599206
20
-124.3589784
11
288.8114972
21
-110.4952254
0
LINE
8
0
10
288.8114972
20
-110.4952254
11
274.9477442
21
-112.4436488
0
LINE
8
0
10
274.9477442
20
-112.4436488
11
276.8961676
21
-126.3074018
0
LINE
8
0
10
274.2518786
20
-107.4923084
11
288.1156316
21
-105.543885
0
LINE
8
0
10
288.1156316
20
-105.543885
11
286.1672082
21
-91.680132
0
LINE
8
0
10
286.1672082
20
-91.680132
11
272.3034552
21
-93.6285554
0
LINE
8
0
10
272.3034552
20
-93.6285554
11
274.2518786
21
-107.4923084
0
LINE
8
0
10
271.6075897
20
-88.6772151
11
285.4713427
21
-86.7287917
0
LINE
8
0
10
285.4713427
20
-86.7287917
11
283.5229193
21
-72.8650387
0
LINE
8
0
10
283.5229193
20
-72.8650387
11
269.6591663
21
-74.8134621
0
LINE
8
0
10
269.6591663
20
-74.8134621
11
271.6075897
21
-88.6772151
0
LINE
8
0
10
261.4212287
20
-152.7181243
11
275.2849817
21
-150.7697009
0
LINE
8
0
10
275.2849817
20
-150.7697009
11
273.3365583
21
-136.9059479
0
LINE
8
0
10
273.3365583
20
-136.9059479
11
259.4728053
21
-138.8543713
0
LINE
8
0
10
259.4728053
20
-138.8543713
11
261.4212287
21
-152.7181243
0
LINE
8
0
10
258.7769397
20
-133.903031
11
272.6406927
21
-131.9546076
0
LINE
8
0
10
272.6406927
20
-131.9546076
11
270.6922693
21
-118.0908546
0
LINE
8
0
10
270.6922693
20
-118.0908546
11
256.8285163
21
-120.039278
0
LINE
8
0
10
256.8285163
20
-120.039278
11
258.7769397
21
-133.903031
0
LINE
8
0
10
256.1326508
20
-115.0879377
11
269.9964038
21
-113.1395143
0
LINE
8
0
10
269.9964038
20
-113.1395143
11
268.0479804
21
-99.2757613
0
LINE
8
0
10
268.0479804
20
-99.2757613
11
254.1842274
21
-101.2241847
0
LINE
8
0
10
254.1842274
20
-101.2241847
11
256.1326508
21
-115.0879377
0
LINE
8
0
10
253.4883619
20
-96.2728444
11
267.3521149
21
-94.324421
0
LINE
8
0
10
267.3521149
20
-94.324421
11
265.4036915
21
-80.460668
0
LINE
8
0
10
265.4036915
20
-80.460668
11
251.5399385
21
-82.4090914
0
LINE
8
0
10
251.5399385
20
-82.4090914
11
253.4883619
21
-96.2728444
0
LINE
8
0
10
242.814895
20
-156.8478153
11
256.678648
21
-154.8993919
0
LINE
8
0
10
256.678648
20
-154.8993919
11
254.7302246
21
-141.0356389
0
LINE
8
0
10
254.7302246
20
-141.0356389
11
240.8664716
21
-142.9840623
0
LINE
8
0
10
240.8664716
20
-142.9840623
11
242.814895
21
-156.8478153
0
LINE
8
0
10
240.1706061
20
-138.032722
11
254.0343591
21
-136.0842986
0
LINE
8
0
10
254.0343591
20
-136.0842986
11
252.0859357
21
-122.2205456
0
LINE
8
0
10
252.0859357
20
-122.2205456
11
238.2221827
21
-124.168969
0
LINE
8
0
10
238.2221827
20
-124.168969
11
240.1706061
21
-138.032722
0
LINE
8
0
10
237.5263172
20
-119.2176287
11
251.3900702
21
-117.2692053
0
LINE
8
0
10
251.3900702
20
-117.2692053
11
249.4416468
21
-103.4054523
0
LINE
8
0
10
249.4416468
20
-103.4054523
11
235.5778938
21
-105.3538757
0
LINE
8
0
10
235.5778938
20
-105.3538757
11
237.5263172
21
-119.2176287
0
LINE
8
0
10
234.8820283
20
-100.4025354
11
248.7457813
21
-98.454112
0
LINE
8
0
10
248.7457813
20
-98.454112
11
246.7973579
21
-84.590359
0
LINE
8
0
10
246.7973579
20
-84.590359
11
232.9336049
21
-86.5387824
0
LINE
8
0
10
232.9336049
20
-86.5387824
11
234.8820283
21
-100.4025354
0
LINE
8
0
10
279.3308648
20
-164.4649036
11
290.5117619
21
-172.8903139
0
LINE
8
0
10
290.5117619
20
-172.8903139
11
298.9371722
21
-161.7094168
0
LINE
8
0
10
298.9371722
20
-161.7094168
11
287.7562751
21
-153.2840065
0
LINE
8
0
10
287.7562751
20
-153.2840065
11
279.3308648
21
-164.4649036
0
LINE
8
0
10
254.9537138
20
-174.9596817
11
268.8174668
21
-173.0112583
0
LINE
8
0
10
268.8174668
20
-173.0112583
11
266.8690434
21
-159.1475053
0
LINE
8
0
10
266.8690434
20
-159.1475053
11
253.0052904
21
-161.0959287
0
LINE
8
0
10
253.0052904
20
-161.0959287
11
254.9537138
21
-174.9596817
0
LINE
8
0
10
229.9272624
20
-186.0513802
11
242.2885287
21
-179.4787783
0
LINE
8
0
10
242.2885287
20
-179.4787783
11
235.7159268
21
-167.117512
0
LINE
8
0
10
235.7159268
20
-167.117512
11
223.3546605
21
-173.6901139
0
LINE
8
0
10
223.3546605
20
-173.6901139
11
229.9272624
21
-186.0513802
0
ENDSEC
0
EOF