0
SECTION
2
HEADER
9
$INSUNITS
70
4
0
ENDSEC
0
SECTION
2
TABLES
0
TABLE
2
LTYPE
0
LTYPE
72
65
70
64
2
CONTINUOUS
3
______
73
0
40
0
0
ENDTAB
0
TABLE
2
LAYER
0
ENDTAB
0
ENDSEC
0
SECTION
2
ENTITIES
0
LINE
8
0
10
281.0227501
20
-193.852412
11
143.7337917
21
-193.852412
0
LINE
8
0
10
140.8586164
20
-192.9430558
11
87.5179271
21
-155.4516884
0
LINE
8
0
10
86.3999248
20
-154.3701197
11
71.949363
21
-135.1935765
0
LINE
8
0
10
70.9912003
20
-131.4886359
11
78.6350248
21
-77.0999987
0
LINE
8
0
10
82.9383791
20
-72.8380306
11
117.9758077
21
-68.258659
0
LINE
8
0
10
118.5389202
20
-68.217213
11
137.0965549
21
-67.9021569
0
LINE
8
0
10
137.8772938
20
-67.9500962
11
159.6464994
21
-71.0095585
0
LINE
8
0
10
160.4713524
20
-71.197768
11
196.0505663
21
-82.5570955
0
LINE
8
0
10
197.5712847
20
-82.7939646
11
227.1852571
21
-82.7939646
0
LINE
8
0
10
228.7059755
20
-82.5570955
11
264.2851894
21
-71.197768
0
LINE
8
0
10
265.1100424
20
-71.0095585
11
286.879248
21
-67.9500962
0
LINE
8
0
10
287.6599869
20
-67.9021569
11
306.2176216
21
-68.217213
0
LINE
8
0
10
306.7807341
20
-68.258659
11
341.8181627
21
-72.8380306
0
LINE
8
0
10
346.121517
20
-77.0999987
11
353.7653415
21
-131.4886359
0
LINE
8
0
10
352.8071788
20
-135.1935765
11
338.356617
21
-154.3701197
0
LINE
8
0
10
337.2386147
20
-155.4516884
11
283.8979254
21
-192.9430558
0
ARC
8
0
10
143.7337917
20
-188.852412
40
5
50
234.8979117
51
270
0
ARC
8
0
10
90.3931024
20
-151.3610446
40
5
50
216.9999993
51
234.8979117
0
ARC
8
0
10
75.9425406
20
-132.1845014
40
5
50
172.0000003
51
216.9999993
0
ARC
8
0
10
83.5863651
20
-77.7958642
40
5
50
97.4463168
51
172.0000003
0
ARC
8
0
10
118.6237937
20
-73.2164926
40
5
50
90.9726254
51
97.4463168
0
ARC
8
0
10
137.1814284
20
-72.9014365
40
5
50
82.0000003
51
90.9726254
0
ARC
8
0
10
158.9506339
20
-75.9608988
40
5
50
72.2933463
51
82.0000003
0
ARC
8
0
10
197.5712847
20
-77.7939646
40
5
50
252.2933463
51
270
0
ARC
8
0
10
227.1852571
20
-77.7939646
40
5
50
270
51
287.7066537
0
ARC
8
0
10
265.8059079
20
-75.9608988
40
5
50
97.9999997
51
107.7066537
0
ARC
8
0
10
287.5751134
20
-72.9014365
40
5
50
89.0273746
51
97.9999997
0
ARC
8
0
10
306.1327481
20
-73.2164926
40
5
50
82.5536832
51
89.0273746
0
ARC
8
0
10
341.1701767
20
-77.7958642
40
5
50
7.9999997
51
82.5536832
0
ARC
8
0
10
348.8140012
20
-132.1845014
40
5
50
323.0000007
51
7.9999997
0
ARC
8
0
10
334.3634394
20
-151.3610446
40
5
50
305.1020883
51
323.0000007
0
ARC
8
0
10
281.0227501
20
-188.852412
40
5
50
270
51
305.1020883
0
ENDSEC
0
EOF