0
SECTION
2
HEADER
9
$INSUNITS
70
4
0
ENDSEC
0
SECTION
2
TABLES
0
TABLE
2
LTYPE
0
LTYPE
72
65
70
64
2
CONTINUOUS
3
______
73
0
40
0
0
ENDTAB
0
TABLE
2
LAYER
0
ENDTAB
0
ENDSEC
0
SECTION
2
ENTITIES
0
LINE
8
0
10
281.0227501
20
-196.352412
11
143.7337917
21
-196.352412
0
ARC
8
0
10
143.7337917
20
-188.852412
40
7.5
50
234.8979117
51
270
0
LINE
8
0
10
139.4204502
20
-194.987971
11
86.0809179
21
-157.4974169
0
ARC
8
0
10
90.3931024
20
-151.3610446
40
7.5
50
216.9999993
51
234.8979117
0
LINE
8
0
10
84.403336
20
-155.8746573
11
69.9527743
21
-136.6981141
0
ARC
8
0
10
75.9425406
20
-132.1845014
40
7.5
50
172.0000003
51
216.9933828
0
LINE
8
0
10
68.5155301
20
-131.1407031
11
76.1593546
21
-76.7520659
0
ARC
8
0
10
83.5863651
20
-77.7958642
40
7.5
50
97.4463168
51
172.0000003
0
LINE
8
0
10
82.6143861
20
-70.3591138
11
117.6518147
21
-65.7797422
0
ARC
8
0
10
118.6237937
20
-73.2164926
40
7.5
50
90.9726254
51
97.4463168
0
LINE
8
0
10
118.4964834
20
-65.7175732
11
137.0541181
21
-65.4025171
0
ARC
8
0
10
137.1814284
20
-72.9014365
40
7.5
50
82.0000003
51
90.9726254
0
LINE
8
0
10
138.2252266
20
-65.474426
11
159.9944321
21
-68.5338884
0
ARC
8
0
10
158.9506339
20
-75.9608988
40
7.5
50
72.2933463
51
82.0000003
0
LINE
8
0
10
161.2317116
20
-68.8162026
11
196.8109255
21
-80.17553
0
ARC
8
0
10
197.5712847
20
-77.7939646
40
2.5
50
252.2933463
51
270
0
LINE
8
0
10
197.5712847
20
-80.2939646
11
227.1852571
21
-80.2939646
0
ARC
8
0
10
227.1852571
20
-77.7939646
40
2.5
50
270
51
287.7066537
0
LINE
8
0
10
227.94629
20
-80.175315
11
263.5248302
21
-68.8162026
0
ARC
8
0
10
265.8059079
20
-75.9608988
40
7.5
50
97.9999997
51
107.7066537
0
LINE
8
0
10
264.7621096
20
-68.5338883
11
286.5313152
21
-65.474426
0
ARC
8
0
10
287.5751134
20
-72.9014365
40
7.5
50
89.0273746
51
97.9999997
0
LINE
8
0
10
287.7024237
20
-65.4025171
11
306.2600584
21
-65.7175732
0
ARC
8
0
10
306.1327481
20
-73.2164926
40
7.5
50
82.5536832
51
89.0273746
0
LINE
8
0
10
307.1047271
20
-65.7797422
11
342.1421557
21
-70.3591138
0
ARC
8
0
10
341.1701767
20
-77.7958642
40
7.5
50
7.9999997
51
82.5536832
0
LINE
8
0
10
348.5971872
20
-76.7520659
11
356.2410116
21
-131.1407032
0
ARC
8
0
10
348.8140012
20
-132.1845014
40
7.5
50
323.0000007
51
367.9999997
0
LINE
8
0
10
354.8037676
20
-136.6981141
11
340.3532058
21
-155.8746573
0
ARC
8
0
10
334.3634394
20
-151.3610446
40
7.5
50
305.1020883
51
323.0000007
0
LINE
8
0
10
338.6756239
20
-157.4974169
11
285.3360916
21
-194.987971
0
ARC
8
0
10
281.0227501
20
-188.852412
40
7.5
50
270
51
305.1020883
0
ENDSEC
0
EOF