0
SECTION
2
HEADER
9
$INSUNITS
70
4
0
ENDSEC
0
SECTION
2
TABLES
0
TABLE
2
LTYPE
0
LTYPE
72
65
70
64
2
CONTINUOUS
3
______
73
0
40
0
0
ENDTAB
0
TABLE
2
LAYER
0
ENDTAB
0
ENDSEC
0
SECTION
2
ENTITIES
0
LINE
8
0
10
-13.2608918
20
8.9324898
11
5.5542015
21
6.2882009
0
LINE
8
0
10
-13.2608918
20
8.9324898
11
-4.6321595
21
70.3291101
0
LINE
8
0
10
-4.6321595
20
70.3291101
11
32.998027
21
65.0405322
0
LINE
8
0
10
2.9099126
20
-12.5268924
11
31.3801196
21
-16.5281191
0
LINE
8
0
10
31.3801196
20
-16.5281191
11
32.8414372
21
-6.1303043
0
LINE
8
0
10
5.5542015
20
6.2882009
11
2.9099126
21
-12.5268924
0
LINE
8
0
10
32.8414372
20
-6.1303043
11
50.4478461
21
-8.6047238
0
LINE
8
0
10
51.8264
20
-7.5659089
11
52.0740498
21
-5.8037891
0
LINE
8
0
10
53.2744379
20
72.7940581
11
34.4593446
21
75.438347
0
LINE
8
0
10
34.4593446
20
75.438347
11
32.998027
21
65.0405322
0
LINE
8
0
10
52.0740498
20
-5.8037891
11
53.8361696
21
-6.0514388
0
LINE
8
0
10
81.4662987
20
66.8122952
11
82.1621642
21
71.7636356
0
LINE
8
0
10
82.1621642
20
71.7636356
11
53.6919572
21
75.7648623
0
LINE
8
0
10
53.6919572
20
75.7648623
11
53.2744379
21
72.7940581
0
LINE
8
0
10
67.0534543
20
-12.958145
11
69.9457105
21
-13.3646251
0
LINE
8
0
10
100.0726324
20
62.6826043
11
100.281392
21
64.1680063
0
LINE
8
0
10
100.281392
20
64.1680063
11
81.4662987
21
66.8122952
0
LINE
8
0
10
98.2071579
20
-18.8512538
11
102.4235953
21
-19.4438355
0
LINE
8
0
10
107.8281569
20
-18.6546054
11
118.8877257
21
60.0383153
0
LINE
8
0
10
118.8877257
20
60.0383153
11
100.0726324
21
62.6826043
0
LINE
8
0
10
50.4296143
20
-38.6697182
11
68.2797302
21
-25.2186911
0
LINE
8
0
10
69.5392304
20
-16.2568813
11
67.0534543
21
-12.958145
0
LINE
8
0
10
50.4478461
20
-8.6047238
11
35.9860538
21
-19.5024659
0
LINE
8
0
10
53.8361696
20
-6.0514388
11
51.8264
21
-7.5659089
0
LINE
8
0
10
35.9860538
20
-19.5024659
11
50.4296143
21
-38.6697182
0
LINE
8
0
10
67.0056788
20
-34.284038
11
92.9623843
21
-37.9320151
0
LINE
8
0
10
96.5790533
20
-30.4358203
11
98.2071579
21
-18.8512538
0
LINE
8
0
10
69.9457105
20
-13.3646251
11
69.5392304
21
-16.2568813
0
LINE
8
0
10
68.2797302
20
-25.2186911
11
67.0056788
21
-34.284038
0
LINE
8
0
10
92.9623843
20
-37.9320151
11
118.0593563
21
-51.2763118
0
LINE
8
0
10
118.0593563
20
-51.2763118
11
129.3266738
21
-30.0855696
0
LINE
8
0
10
129.3266738
20
-30.0855696
11
107.8281569
21
-18.6546054
0
LINE
8
0
10
102.4235953
20
-19.4438355
11
96.5790533
21
-30.4358203
0
LINE
8
0
10
257.3337329
20
6.2882009
11
276.1488262
21
8.9324898
0
LINE
8
0
10
267.5200939
20
70.3291101
11
276.1488262
21
8.9324898
0
LINE
8
0
10
229.8899074
20
65.0405322
11
267.5200939
21
70.3291101
0
LINE
8
0
10
231.5078148
20
-16.5281191
11
259.9780218
21
-12.5268924
0
LINE
8
0
10
259.9780218
20
-12.5268924
11
257.3337329
21
6.2882009
0
LINE
8
0
10
230.0464972
20
-6.1303043
11
231.5078148
21
-16.5281191
0
LINE
8
0
10
212.4400883
20
-8.6047238
11
230.0464972
21
-6.1303043
0
LINE
8
0
10
210.8138846
20
-5.8037891
11
211.0615344
21
-7.5659089
0
LINE
8
0
10
229.8899074
20
65.0405322
11
228.4285898
21
75.438347
0
LINE
8
0
10
228.4285898
20
75.438347
11
209.6134965
21
72.7940581
0
LINE
8
0
10
209.0517648
20
-6.0514388
11
210.8138846
21
-5.8037891
0
LINE
8
0
10
209.6134965
20
72.7940581
11
209.1959772
21
75.7648623
0
LINE
8
0
10
209.1959772
20
75.7648623
11
180.7257702
21
71.7636356
0
LINE
8
0
10
180.7257702
20
71.7636356
11
181.4216357
21
66.8122952
0
LINE
8
0
10
192.9422239
20
-13.3646251
11
195.8344801
21
-12.958145
0
LINE
8
0
10
181.4216357
20
66.8122952
11
162.6065424
21
64.1680063
0
LINE
8
0
10
162.6065424
20
64.1680063
11
162.815302
21
62.6826043
0
LINE
8
0
10
160.4643391
20
-19.4438355
11
164.6807765
21
-18.8512538
0
LINE
8
0
10
144.0002087
20
60.0383153
11
155.0597775
21
-18.6546054
0
LINE
8
0
10
162.815302
20
62.6826043
11
144.0002087
21
60.0383153
0
LINE
8
0
10
194.6082042
20
-25.2186911
11
212.4583201
21
-38.6697182
0
LINE
8
0
10
212.4583201
20
-38.6697182
11
226.9018806
21
-19.5024659
0
LINE
8
0
10
226.9018806
20
-19.5024659
11
212.4400883
21
-8.6047238
0
LINE
8
0
10
211.0615344
20
-7.5659089
11
209.0517648
21
-6.0514388
0
LINE
8
0
10
195.8344801
20
-12.958145
11
193.348704
21
-16.2568813
0
LINE
8
0
10
169.9255501
20
-37.9320151
11
195.8822556
21
-34.284038
0
LINE
8
0
10
195.8822556
20
-34.284038
11
194.6082042
21
-25.2186911
0
LINE
8
0
10
193.348704
20
-16.2568813
11
192.9422239
21
-13.3646251
0
LINE
8
0
10
164.6807765
20
-18.8512538
11
166.3088811
21
-30.4358203
0
LINE
8
0
10
144.8285781
20
-51.2763118
11
169.9255501
21
-37.9320151
0
LINE
8
0
10
166.3088811
20
-30.4358203
11
160.4643391
21
-19.4438355
0
LINE
8
0
10
155.0597775
20
-18.6546054
11
133.5612606
21
-30.0855696
0
LINE
8
0
10
133.5612606
20
-30.0855696
11
144.8285781
21
-51.2763118
0
ENDSEC
0
EOF