0
SECTION
2
HEADER
9
$INSUNITS
70
4
0
ENDSEC
0
SECTION
2
TABLES
0
TABLE
2
LTYPE
0
LTYPE
72
65
70
64
2
CONTINUOUS
3
______
73
0
40
0
0
ENDTAB
0
TABLE
2
LAYER
0
ENDTAB
0
ENDSEC
0
SECTION
2
ENTITIES
0
LINE
8
0
10
67.673412
20
-133.7196692
11
86.4885053
21
-136.3639581
0
LINE
8
0
10
67.673412
20
-133.7196692
11
76.3021442
21
-72.3230489
0
LINE
8
0
10
76.3021442
20
-72.3230489
11
113.9323308
21
-77.6116268
0
LINE
8
0
10
83.8442164
20
-155.1790515
11
112.3144234
21
-159.1802782
0
LINE
8
0
10
112.3144234
20
-159.1802782
11
113.775741
21
-148.7824634
0
LINE
8
0
10
86.4885053
20
-136.3639581
11
83.8442164
21
-155.1790515
0
LINE
8
0
10
113.775741
20
-148.7824634
11
131.38215
21
-151.2568828
0
LINE
8
0
10
132.7607037
20
-150.2180681
11
133.0083535
21
-148.4559482
0
LINE
8
0
10
134.2087417
20
-69.8581009
11
115.3936484
21
-67.213812
0
LINE
8
0
10
115.3936484
20
-67.213812
11
113.9323308
21
-77.6116268
0
LINE
8
0
10
133.0083535
20
-148.4559482
11
134.7704734
21
-148.703598
0
LINE
8
0
10
162.4006025
20
-75.8398638
11
163.096468
21
-70.8885234
0
LINE
8
0
10
163.096468
20
-70.8885234
11
134.626261
21
-66.8872967
0
LINE
8
0
10
134.626261
20
-66.8872967
11
134.2087417
21
-69.8581009
0
LINE
8
0
10
147.9877581
20
-155.610304
11
150.8800142
21
-156.0167841
0
LINE
8
0
10
181.0069362
20
-79.9695548
11
181.2156958
21
-78.4841527
0
LINE
8
0
10
181.2156958
20
-78.4841527
11
162.4006025
21
-75.8398638
0
LINE
8
0
10
179.1414616
20
-161.5034128
11
183.3578991
21
-162.0959945
0
LINE
8
0
10
188.7624607
20
-161.3067645
11
199.8220294
21
-82.6138437
0
LINE
8
0
10
199.8220294
20
-82.6138437
11
181.0069362
21
-79.9695548
0
LINE
8
0
10
131.3639181
20
-181.3218773
11
149.2140339
21
-167.8708503
0
LINE
8
0
10
150.4735341
20
-158.9090402
11
147.9877581
21
-155.610304
0
LINE
8
0
10
131.38215
20
-151.2568828
11
116.9203576
21
-162.154625
0
LINE
8
0
10
134.7704734
20
-148.703598
11
132.7607037
21
-150.2180681
0
LINE
8
0
10
116.9203576
20
-162.154625
11
131.3639181
21
-181.3218773
0
LINE
8
0
10
147.9399825
20
-176.936197
11
173.8966878
21
-180.5841741
0
LINE
8
0
10
177.5133569
20
-173.0879797
11
179.1414616
21
-161.5034128
0
LINE
8
0
10
150.8800142
20
-156.0167841
11
150.4735341
21
-158.9090402
0
LINE
8
0
10
149.2140339
20
-167.8708503
11
147.9399825
21
-176.936197
0
LINE
8
0
10
173.8966878
20
-180.5841741
11
198.9936601
21
-193.9284709
0
LINE
8
0
10
198.9936601
20
-193.9284709
11
210.2609776
21
-172.7377287
0
LINE
8
0
10
210.2609776
20
-172.7377287
11
188.7624607
21
-161.3067645
0
LINE
8
0
10
183.3578991
20
-162.0959945
11
177.5133569
21
-173.0879797
0
LINE
8
0
10
338.2680365
20
-136.3639581
11
357.0831298
21
-133.7196692
0
LINE
8
0
10
348.4543976
20
-72.3230489
11
357.0831298
21
-133.7196692
0
LINE
8
0
10
310.824211
20
-77.6116268
11
348.4543976
21
-72.3230489
0
LINE
8
0
10
312.4421184
20
-159.1802782
11
340.9123254
21
-155.1790515
0
LINE
8
0
10
340.9123254
20
-155.1790515
11
338.2680365
21
-136.3639581
0
LINE
8
0
10
310.9808008
20
-148.7824634
11
312.4421184
21
-159.1802782
0
LINE
8
0
10
293.3743918
20
-151.2568828
11
310.9808008
21
-148.7824634
0
LINE
8
0
10
291.7481883
20
-148.4559482
11
291.9958381
21
-150.2180681
0
LINE
8
0
10
310.824211
20
-77.6116268
11
309.3628934
21
-67.213812
0
LINE
8
0
10
309.3628934
20
-67.213812
11
290.5478001
21
-69.8581009
0
LINE
8
0
10
289.9860684
20
-148.703598
11
291.7481883
21
-148.4559482
0
LINE
8
0
10
290.5478001
20
-69.8581009
11
290.1302808
21
-66.8872967
0
LINE
8
0
10
290.1302808
20
-66.8872967
11
261.6600738
21
-70.8885234
0
LINE
8
0
10
261.6600738
20
-70.8885234
11
262.3559393
21
-75.8398638
0
LINE
8
0
10
273.8765276
20
-156.0167841
11
276.7687837
21
-155.610304
0
LINE
8
0
10
262.3559393
20
-75.8398638
11
243.540846
21
-78.4841527
0
LINE
8
0
10
243.540846
20
-78.4841527
11
243.7496056
21
-79.9695548
0
LINE
8
0
10
241.3986427
20
-162.0959945
11
245.6150802
21
-161.5034128
0
LINE
8
0
10
224.9345124
20
-82.6138437
11
235.9940811
21
-161.3067645
0
LINE
8
0
10
243.7496056
20
-79.9695548
11
224.9345124
21
-82.6138437
0
LINE
8
0
10
275.5425079
20
-167.8708503
11
293.3926237
21
-181.3218773
0
LINE
8
0
10
293.3926237
20
-181.3218773
11
307.8361842
21
-162.154625
0
LINE
8
0
10
307.8361842
20
-162.154625
11
293.3743918
21
-151.2568828
0
LINE
8
0
10
291.9958381
20
-150.2180681
11
289.9860684
21
-148.703598
0
LINE
8
0
10
276.7687837
20
-155.610304
11
274.2830077
21
-158.9090402
0
LINE
8
0
10
250.859854
20
-180.5841741
11
276.8165593
21
-176.936197
0
LINE
8
0
10
276.8165593
20
-176.936197
11
275.5425079
21
-167.8708503
0
LINE
8
0
10
274.2830077
20
-158.9090402
11
273.8765276
21
-156.0167841
0
LINE
8
0
10
245.6150802
20
-161.5034128
11
247.2431849
21
-173.0879797
0
LINE
8
0
10
225.7628817
20
-193.9284709
11
250.859854
21
-180.5841741
0
LINE
8
0
10
247.2431849
20
-173.0879797
11
241.3986427
21
-162.0959945
0
LINE
8
0
10
235.9940811
20
-161.3067645
11
214.4955642
21
-172.7377287
0
LINE
8
0
10
214.4955642
20
-172.7377287
11
225.7628817
21
-193.9284709
0
ENDSEC
0
EOF